<svg xmlns="http://www.w3.org/2000/svg" xmlns:xlink="http://www.w3.org/1999/xlink" width="198.691" height="159.045" viewBox="0 0 198.691 159.045">
  <defs>
    <clipPath id="clip-path">
      <rect id="Rectángulo_9071" data-name="Rectángulo 9071" width="120.489" height="143.097" fill="#0c8ed1"/>
    </clipPath>
    <clipPath id="clip-path-2">
      <rect id="Rectángulo_9072" data-name="Rectángulo 9072" width="87.559" height="128.721" fill="none"/>
    </clipPath>
    <clipPath id="clip-path-3">
      <rect id="Rectángulo_9074" data-name="Rectángulo 9074" width="118.151" height="114.243" fill="#0c8ed1"/>
    </clipPath>
    <clipPath id="clip-path-4">
      <rect id="Rectángulo_9073" data-name="Rectángulo 9073" width="72.062" height="42.811" fill="none"/>
    </clipPath>
    <clipPath id="clip-path-5">
      <rect id="Rectángulo_9076" data-name="Rectángulo 9076" width="69.279" height="40.514" fill="none"/>
    </clipPath>
    <clipPath id="clip-path-6">
      <rect id="Rectángulo_9077" data-name="Rectángulo 9077" width="70.766" height="35.382" fill="none"/>
    </clipPath>
  </defs>
  <g id="Grupo_59327" data-name="Grupo 59327" transform="translate(-13733.127 -1812)">
    <g id="Grupo_59325" data-name="Grupo 59325" transform="translate(-20.182 0)">
      <g id="Grupo_59299" data-name="Grupo 59299" transform="translate(13790.456 1815.873)" opacity="0.25">
        <g id="Grupo_59298" data-name="Grupo 59298">
          <g id="Grupo_59297" data-name="Grupo 59297" clip-path="url(#clip-path)">
            <path id="Trazado_106662" data-name="Trazado 106662" d="M1006.315,88.322a7.93,7.93,0,0,0-4.559-4.068l-15.264-5.326-.546-5.953a7.983,7.983,0,0,0-8.679-7.22l-22.589,2.072L933.26,60.354a7.983,7.983,0,0,0-10.167,4.907L921.124,70.9l-16.1,1.477a7.993,7.993,0,0,0-7.22,8.679l4.117,44.877-14.847,42.549a7.983,7.983,0,0,0,4.907,10.167l15.264,5.326.546,5.953a7.994,7.994,0,0,0,7.944,7.254c.243,0,.489-.011.735-.034l22.589-2.072,21.417,7.473a7.981,7.981,0,0,0,10.168-4.907L972.612,192l16.1-1.477a7.983,7.983,0,0,0,7.22-8.679l-4.117-44.877,14.847-42.549a7.929,7.929,0,0,0-.348-6.1" transform="translate(-886.623 -59.904)" fill="#0c8ed1"/>
          </g>
        </g>
      </g>
      <path id="Trazado_106663" data-name="Trazado 106663" d="M1106.6,230.262l-11.386,1.043-46.3,4.248-14.552,1.334a6.835,6.835,0,0,1-7.429-6.18l-.268-2.918-4.479-48.852-5.236-57.1a6.835,6.835,0,0,1,6.18-7.43l22.288-2.044,18.825-1.727,31.13-2.855a6.837,6.837,0,0,1,7.429,6.18l.959,10.464,5.984,65.254,3.041,33.155a6.835,6.835,0,0,1-6.18,7.43" transform="translate(12781.965 1711.217)" fill="#fff"/>
      <path id="Trazado_106664" data-name="Trazado 106664" d="M1031.17,234.546a7.012,7.012,0,0,1-6.968-6.369L1014.218,119.3a7.012,7.012,0,0,1,6.339-7.621l72.243-6.626a7.021,7.021,0,0,1,7.621,6.339l9.984,108.874a7.012,7.012,0,0,1-6.34,7.621l-72.243,6.625q-.328.03-.653.03m62.275-129.167q-.3,0-.612.028l-72.243,6.626a6.66,6.66,0,0,0-6.021,7.238l9.984,108.874a6.66,6.66,0,0,0,7.238,6.021l72.243-6.625a6.659,6.659,0,0,0,6.021-7.238l-9.984-108.874a6.672,6.672,0,0,0-6.625-6.049" transform="translate(12784.517 1713.764)" fill="#390075"/>
      <path id="Trazado_106665" data-name="Trazado 106665" d="M1017.07,221.438a7.985,7.985,0,0,1-7.935-7.254l-9.987-108.872a7.993,7.993,0,0,1,7.221-8.679l72.242-6.627a7.983,7.983,0,0,1,8.679,7.22l9.987,108.872a7.993,7.993,0,0,1-7.221,8.679l-72.242,6.627c-.249.023-.5.034-.744.034m62.28-129.167c-.176,0-.352.008-.529.024l-72.242,6.627a5.69,5.69,0,0,0-5.141,6.179l9.987,108.872a5.684,5.684,0,0,0,6.179,5.141l72.242-6.627.1,1.145-.1-1.145a5.69,5.69,0,0,0,5.141-6.179L1085,97.437a5.685,5.685,0,0,0-5.65-5.165" transform="translate(12798.616 1727.845)" fill="#040735"/>
      <g id="Grupo_59302" data-name="Grupo 59302" transform="translate(13804.146 1818.049)" opacity="0.3">
        <g id="Grupo_59301" data-name="Grupo 59301">
          <g id="Grupo_59300" data-name="Grupo 59300" clip-path="url(#clip-path-2)">
            <path id="Trazado_106666" data-name="Trazado 106666" d="M1185.906,176.409l-14.526,41.628-46.3,4.248-22.25-7.764-4.479-48.852,23.561-67.521a6.831,6.831,0,0,1,8.7-4.2l49.312,17.207Z" transform="translate(-1098.347 -93.564)" fill="#0c8ed1"/>
          </g>
        </g>
      </g>
      <path id="Trazado_106667" data-name="Trazado 106667" d="M962.36,50.811,926.34,154.037a6.831,6.831,0,0,1-8.7,4.2l-68.494-23.9a6.831,6.831,0,0,1-4.2-8.7l36.02-103.226a6.831,6.831,0,0,1,8.7-4.2l68.494,23.9a6.831,6.831,0,0,1,4.2,8.7" transform="translate(12943.176 1795.328)" fill="#fff"/>
      <path id="Trazado_106668" data-name="Trazado 106668" d="M917.372,156.272a7.012,7.012,0,0,1-2.315-.4l-68.494-23.9a7.016,7.016,0,0,1-4.308-8.926l36.02-103.226a7.016,7.016,0,0,1,8.926-4.308l68.494,23.9A7.007,7.007,0,0,1,960,48.343L923.982,151.569a7.02,7.02,0,0,1-6.61,4.7M884.9,15.477a6.667,6.667,0,0,0-6.29,4.464L842.586,123.167a6.664,6.664,0,0,0,4.092,8.477l68.494,23.9a6.655,6.655,0,0,0,8.477-4.092L959.67,48.227l.166.058-.166-.058a6.655,6.655,0,0,0-4.092-8.477l-68.494-23.9a6.631,6.631,0,0,0-2.187-.372" transform="translate(12945.699 1797.853)" fill="#390075"/>
      <g id="Grupo_59308" data-name="Grupo 59308" transform="translate(13786.938 1839.385)" opacity="0.3">
        <g id="Grupo_59307" data-name="Grupo 59307">
          <g id="Grupo_59306" data-name="Grupo 59306" clip-path="url(#clip-path-3)">
            <path id="Trazado_106670" data-name="Trazado 106670" d="M949.994,429.964,913.973,533.19a6.831,6.831,0,0,1-8.7,4.2l-68.495-23.9a6.827,6.827,0,0,1-4.55-5.8,6.8,6.8,0,0,0,3.149,2.268l68.494,23.9a6.831,6.831,0,0,0,8.7-4.2l36.02-103.226a6.764,6.764,0,0,0,.351-2.9,6.813,6.813,0,0,1,1.05,6.434" transform="translate(-832.227 -423.53)" fill="#0c8ed1"/>
          </g>
        </g>
      </g>
      <path id="Trazado_106671" data-name="Trazado 106671" d="M903.265,143.1a7.99,7.99,0,0,1-2.637-.45l-68.5-23.9a7.992,7.992,0,0,1-4.907-10.168L863.246,5.361A7.983,7.983,0,0,1,873.413.454l68.495,23.9a7.993,7.993,0,0,1,4.907,10.168L910.8,137.748a8,8,0,0,1-7.531,5.357M870.779,2.3a5.695,5.695,0,0,0-5.362,3.814L829.4,109.344a5.691,5.691,0,0,0,3.494,7.239l68.495,23.9h0a5.684,5.684,0,0,0,7.239-3.494l36.02-103.225a5.69,5.69,0,0,0-3.494-7.239l-68.495-23.9a5.691,5.691,0,0,0-1.877-.32" transform="translate(12959.807 1811.996)" fill="#040735"/>
      <rect id="Rectángulo_9079" data-name="Rectángulo 9079" width="177.818" height="146.97" transform="translate(13774.182 1824.075)" fill="none"/>
    </g>
    <g id="Grupo_59326" data-name="Grupo 59326" transform="translate(0 30.896)">
      <g id="Grupo_59305" data-name="Grupo 59305" transform="translate(13734.378 1857.189)" opacity="0.2">
        <g id="Grupo_59304" data-name="Grupo 59304">
          <g id="Grupo_59303" data-name="Grupo 59303" clip-path="url(#clip-path-4)">
            <path id="Trazado_106669" data-name="Trazado 106669" d="M104.434,724.2a1.8,1.8,0,0,0-1.893-.956L83.384,726.24a.65.65,0,0,0-.2.066L35.248,751.336a4.954,4.954,0,0,0-2.1,6.686l2.792,5.347a4.947,4.947,0,0,0,6.686,2.1l47.936-25.031a.644.644,0,0,0,.168-.126l13.405-14.01a1.8,1.8,0,0,0,.3-2.1" transform="translate(-32.584 -723.223)" fill="#390075"/>
          </g>
        </g>
      </g>
      <path id="Trazado_106673" data-name="Trazado 106673" d="M62.891,693.092,24.146,713.324a3.482,3.482,0,0,1-4.7-1.475l-2.257-4.322a3.482,3.482,0,0,1,1.475-4.7L57.41,682.6l.394-.062,11.7-1.828,3.387-.529a.949.949,0,0,1,.832,1.593l-2.37,2.477L63.167,692.8Z" transform="translate(13730.546 1175.373)" fill="#48aea0"/>
      <path id="Trazado_106674" data-name="Trazado 106674" d="M30.569,1360.149l-4.679,2.443a4.308,4.308,0,0,1-5.814-1.825l-2.792-5.347a4.308,4.308,0,0,1,1.825-5.814l4.679-2.443Z" transform="translate(13716.979 533.971)" fill="#70089b"/>
      <rect id="Rectángulo_9075" data-name="Rectángulo 9075" width="4.632" height="14.651" transform="translate(13740.766 1881.133) rotate(-27.573)" fill="#d7dcf0"/>
      <path id="Trazado_106675" data-name="Trazado 106675" d="M202.265,1303.032l-.048-.093-6.83-13.079,4.291-2.241.048.093,6.83,13.079Zm-6.6-13.083,6.685,12.8,3.921-2.048-6.685-12.8Z" transform="translate(13545.237 591.228)" fill="#390075"/>
      <path id="Trazado_106676" data-name="Trazado 106676" d="M1312.99,695.8c-1.117-1.254-3.142.095-4.19-1.5-1.036-1.673,1.2-2.969.34-4.572-.822-1.625-3.165-.527-3.946-2.334-.713-1.774,1.552-2.665,1.161-4.3l14.479-2.262,4.191-.655a1.174,1.174,0,0,1,1.029,1.971l-2.933,3.065Z" transform="translate(12478.154 1175.373)" fill="#ffdc9c"/>
      <path id="Trazado_106677" data-name="Trazado 106677" d="M1310.357,693.352l-.075-.084a2.37,2.37,0,0,0-1.9-.585,2.14,2.14,0,0,1-2.172-3.41,2.241,2.241,0,0,0,.209-2.1c-.376-.744-1.089-.884-1.844-1.031a2.14,2.14,0,0,1-1.557-3.732,2.37,2.37,0,0,0,.607-1.894l-.026-.11,18.782-2.934a1.278,1.278,0,0,1,1.121,2.146Zm-6.509-12.775a2.667,2.667,0,0,1-.658,1.948,2.235,2.235,0,0,0-.53,2.225c.379.878,1.144,1.027,1.953,1.186a2.125,2.125,0,0,1,1.786,3.422,2.233,2.233,0,0,0-.141,2.282c.525.8,1.3.817,2.127.835a2.669,2.669,0,0,1,1.975.572l12.987-13.574a1.07,1.07,0,0,0-.937-1.8Z" transform="translate(12480.786 1177.979)" fill="#390075"/>
      <g id="Grupo_59311" data-name="Grupo 59311" transform="translate(13735.26 1856.539)" opacity="0.3">
        <g id="Grupo_59310" data-name="Grupo 59310">
          <g id="Grupo_59309" data-name="Grupo 59309" clip-path="url(#clip-path-5)">
            <path id="Trazado_106678" data-name="Trazado 106678" d="M111.109,721.279,63.173,746.31a4.309,4.309,0,0,1-5.814-1.825l-1.8-3.438a4.308,4.308,0,0,0,5.814,1.825l47.5-24.8a3.012,3.012,0,0,0,.779-.584l15.174-11.2a1.142,1.142,0,0,1-.315.984l-2.932,3.065-10.131,10.589Z" transform="translate(-55.564 -706.286)" fill="#390075"/>
          </g>
        </g>
      </g>
      <g id="Grupo_59314" data-name="Grupo 59314" transform="translate(13733.772 1855.536)" opacity="0.55">
        <g id="Grupo_59313" data-name="Grupo 59313">
          <g id="Grupo_59312" data-name="Grupo 59312" clip-path="url(#clip-path-6)">
            <path id="Trazado_106679" data-name="Trazado 106679" d="M87.494,681.729A1.189,1.189,0,0,0,87,681.7l-4.191.655L68.33,684.622l-.487.077L19.907,709.73a4.308,4.308,0,0,0-1.825,5.814l-.8-1.528a4.308,4.308,0,0,1,1.825-5.814l47.936-25.031.487-.077,14.479-2.262,4.191-.655a1.179,1.179,0,0,1,1.292,1.552" transform="translate(-16.794 -680.162)" fill="#fff"/>
          </g>
        </g>
      </g>
      <path id="Trazado_106680" data-name="Trazado 106680" d="M7.755,706.132a4.96,4.96,0,0,1-4.4-2.661L.562,698.123a4.961,4.961,0,0,1,2.1-6.686L50.6,666.406a.646.646,0,0,1,.2-.066l19.157-2.994a1.82,1.82,0,0,1,1.6,3.056l-13.405,14.01a.646.646,0,0,1-.168.126L10.04,705.57a4.928,4.928,0,0,1-2.285.562M51.1,667.6,3.259,692.583a3.667,3.667,0,0,0-1.551,4.942L4.5,702.872a3.666,3.666,0,0,0,4.942,1.551l47.842-24.982,13.331-13.933a.528.528,0,0,0-.463-.885Zm6.576,12.364h0Z" transform="translate(13733.128 1191.567)" fill="#390075"/>
      <path id="Trazado_106681" data-name="Trazado 106681" d="M1296.792,753.723a.645.645,0,0,1-.483-.216c-.32-.36-.782-.388-1.508-.4a2.66,2.66,0,0,1-2.657-4.17c.317-.719.484-1.15.228-1.625-.252-.5-.7-.606-1.471-.757a2.659,2.659,0,0,1-1.9-4.563c.4-.6.643-1,.531-1.468a.646.646,0,1,1,1.257-.3,3.064,3.064,0,0,1-.712,2.484c-.466.7-.718,1.126-.478,1.723.248.574.728.694,1.554.856a2.643,2.643,0,0,1,2.178,4.172c-.339.77-.515,1.232-.177,1.778.344.524.837.56,1.678.578a3.064,3.064,0,0,1,2.446.836.646.646,0,0,1-.483,1.076" transform="translate(12494.354 1118.1)" fill="#390075"/>
      <path id="Trazado_106682" data-name="Trazado 106682" d="M1718.519,685.214a5.726,5.726,0,0,1-2.288-4.381l4.191-.655a1.174,1.174,0,0,1,1.029,1.971Z" transform="translate(12082.758 1175.373)" fill="#390075"/>
      <path id="Trazado_106683" data-name="Trazado 106683" d="M189.646,1290.869a.646.646,0,0,1-.573-.347l-6.781-12.987a.647.647,0,0,1,.274-.872l4.106-2.144a.647.647,0,0,1,.872.274l6.781,12.986a.646.646,0,0,1-.274.872l-4.106,2.144a.647.647,0,0,1-.3.073m-5.909-13.359,6.183,11.841,2.96-1.546-6.183-11.841Z" transform="translate(13557.9 603.898)" fill="#390075"/>
      <path id="Trazado_106684" data-name="Trazado 106684" d="M1702.323,686.456a.645.645,0,0,1-.4-.137,6.376,6.376,0,0,1-2.534-4.854.646.646,0,1,1,1.291-.072,5.07,5.07,0,0,0,2.041,3.908.646.646,0,0,1-.4,1.155" transform="translate(12098.954 1174.778)" fill="#390075"/>
    </g>
  </g>
</svg>
