<svg xmlns="http://www.w3.org/2000/svg" width="108" height="106.75" viewBox="0 0 108 106.75">
  <g id="Grupo_66052" data-name="Grupo 66052" transform="translate(-746 -1717.25)">
    <path id="Trazado_110948" data-name="Trazado 110948" d="M20.125,0H17.109L5.656-17.531V0H2.641V-22.75H5.656L17.141-5.141V-22.75h2.984ZM38.3-5.953H28.766L26.625,0H23.531l8.688-22.75h2.625L43.547,0H40.469ZM29.672-8.406h7.734L33.531-19.047ZM64.094,0H61.078L49.625-17.531V0H46.609V-22.75h3.016L61.109-5.141V-22.75h2.984Zm5.328,0V-22.75h6.422a10.338,10.338,0,0,1,5.25,1.313A8.877,8.877,0,0,1,84.617-17.7a12.155,12.155,0,0,1,1.258,5.563v1.453a12.2,12.2,0,0,1-1.242,5.641,8.738,8.738,0,0,1-3.547,3.719A11,11,0,0,1,75.719,0Zm3-20.3V-2.453h3.156a6.867,6.867,0,0,0,5.4-2.158,8.917,8.917,0,0,0,1.93-6.146v-1.329a9.058,9.058,0,0,0-1.82-6.029A6.478,6.478,0,0,0,75.922-20.3Z" transform="translate(758 1740)" fill="#f6f6f6"/>
    <path id="Unión_8" data-name="Unión 8" d="M23.6,54V43.2H0V40.32H23.6V14.4H0V11.52H23.6V0H50.88A25.658,25.658,0,0,1,76.013,20.5a5.678,5.678,0,0,1,1.947-.342,5.741,5.741,0,0,1,5.722,5.76H108v2.16H83.266a5.711,5.711,0,0,1-7.3,3.239A28.361,28.361,0,0,1,48.18,54Z" transform="translate(746 1770)" fill="#fff"/>
  </g>
</svg>
