<svg xmlns="http://www.w3.org/2000/svg" xmlns:xlink="http://www.w3.org/1999/xlink" width="330" height="483" viewBox="0 0 330 483">
  <defs>
    <clipPath id="clip-path">
      <rect id="Rectángulo_13300" data-name="Rectángulo 13300" width="330" height="483" transform="translate(154 -7400)" fill="#fff" stroke="#707070" stroke-width="1"/>
    </clipPath>
  </defs>
  <g id="Enmascarar_grupo_57386" data-name="Enmascarar grupo 57386" transform="translate(-154 7400)" clip-path="url(#clip-path)">
    <path id="Trazado_110918" data-name="Trazado 110918" d="M78.128,504.284a19.351,19.351,0,0,1-4.182,7.337c-1.968,2.1-.652,4.572,2.121,5.484,5.775.207,7.233-4.683,6.858-6.306-.946-4.1-4.8-6.515-4.8-6.515" transform="translate(125.218 -7592.212)" fill="#d78c63"/>
    <path id="Trazado_110919" data-name="Trazado 110919" d="M47.954,498.45c1.635-3.661,5.617-5.231,12.409-1.723,8.1,4.185,12.31,8.741,10.795,12.493-1.8,4.461-8.227,4.434-16.955-.453-4.768-2.67-7.884-6.655-6.249-10.317" transform="translate(135.279 -7588.455)" fill="#fdcfad"/>
    <path id="Trazado_110920" data-name="Trazado 110920" d="M38.548,519.5c1.5-3.72,5.418-5.437,12.336-2.184,8.25,3.88,12.627,8.276,11.252,12.083-1.634,4.525-8.056,4.736-16.959.178-4.865-2.491-8.127-6.357-6.629-10.077" transform="translate(138.962 -7596.677)" fill="#fdcfad"/>
    <path id="Trazado_110921" data-name="Trazado 110921" d="M35.044,540.622c1.5-3.719,5.418-5.437,12.336-2.184,8.25,3.88,12.627,8.276,11.252,12.083-1.634,4.525-8.056,4.736-16.959.178-4.865-2.49-8.127-6.357-6.629-10.077" transform="translate(140.345 -7605.013)" fill="#fdcfad"/>
    <path id="Trazado_110922" data-name="Trazado 110922" d="M38.473,562.5c1.055-3.246,4.284-4.935,10.349-2.576,7.234,2.813,11.208,6.291,10.263,9.6-1.123,3.938-6.565,4.493-14.393,1.142-4.277-1.831-7.273-4.924-6.219-8.17" transform="translate(138.931 -7613.736)" fill="#fdcfad"/>
    <g id="Grupo_66013" data-name="Grupo 66013">
      <path id="Trazado_110627" data-name="Trazado 110627" d="M246.857,534.965c-11.336-2.617-18.163-1.733-29.465,2.723-16.365,6.452-49.284,21.159-49.284,21.159-3.282,3.322-4.116,10.8-2.176,15.727s7.979,8.8,10.446,8.719S228.8,563.738,228.8,563.738c15.548-4.362,25.972-13.887,25.357-19.548,0,0,.669-6.527-7.3-9.225" transform="translate(88.951 -7603.743)" fill="#d78c63"/>
      <path id="Trazado_110628" data-name="Trazado 110628" d="M146.25,587.151c-10.325-2.872-45.911-18.4-52.327-20.047-2.424-3.191,6.934-23.555,10.251-23.768,21.05,10.525,34.778,11.273,43.79,16.612.877.52,4.205,4.672,4.853,11.269.763,7.781-.98,17.488-6.567,15.934" transform="translate(117.119 -7607.625)" fill="#fdcfad"/>
      <path id="Trazado_110629" data-name="Trazado 110629" d="M395.726,646.115l-27.24-2.8-51.529-1.306-30.8,1.1s-5.3,39.084-4.281,51.678c.413,5.1,24.666,31.619,52.424,35.6,9.439,1.354,70.162-16.808,70.575-21.9,7.678-23.895-4.429-41.531-7.087-48.358-1.853-3.293-2.058-14.015-2.058-14.015" transform="translate(42.84 -7646.566)" fill="#d78c63"/>
      <path id="Trazado_110630" data-name="Trazado 110630" d="M419.647,513.993c-2.657-5.76-20.852-15.884-54.521-21.665-4.809-.826-29.685-.363-37.5-.416,0,0-28.569,5.334-35.878,9.6-3.335,2.4-4.215,31.465-2.436,40.535l-.527,49.253s-1.223,14.385,33.634,19.712c70.936,6.393,75.783-6.882,77.849-8.02-.148-14.223,12.63-55.033,12.63-55.033.068-.378,11.309-28.094,6.749-33.968" transform="translate(40.208 -7587.297)" fill="#fdcfad"/>
      <path id="Trazado_110631" data-name="Trazado 110631" d="M352.074,459.413v23.123c0,4.311,7.308,7.807,16.324,7.807s16.324-3.5,16.324-7.807V459.413Z" transform="translate(15.083 -7574.504)" fill="#d78c63"/>
      <path id="Trazado_110632" data-name="Trazado 110632" d="M487.4,531.231c6.339,2.921,12.144,13.5,18.936,23.624,9.834,14.657,32.882,46.871,34.874,57.4-6.543,14.508-22.757,12.8-27.213,7.831l-27.577-36.85a64.146,64.146,0,0,1-6.166-7.719c-4.293-8.254-4.878-20.79-4.213-29.509.789-10.339,4.791-17.8,11.358-14.772" transform="translate(-33.752 -7602.579)" fill="#d78c63"/>
      <path id="Trazado_110633" data-name="Trazado 110633" d="M586.971,744.459s4.552,13.512,4.267,15.787-15.219,9.814-15.219,9.814l-16.783-1.991s.142-13.085-1-17.921Z" transform="translate(-66.282 -7686.999)" fill="#d78c63"/>
      <path id="Trazado_110634" data-name="Trazado 110634" d="M564.235,660.112c-3.507-7.911-30.457-2.053-28.521,8.54s12.007,34.44,14.322,50.9c2.942,2.675,27.756-5.131,28.257-8.449-8.972-27.271-10.551-43.079-14.058-50.99" transform="translate(-57.352 -7652.266)" fill="#fdcfad"/>
      <path id="Trazado_110635" data-name="Trazado 110635" d="M270.751,507.358s5.431,6.966-.449,19.962a88.877,88.877,0,0,1-16.693,24.994C250.2,555.8,232.39,574.48,232.39,574.48s-8.2-6.015-17.3-17.641c-6.116-7.813-9.624-22.373-8.308-23.525,4.847-3.732,12.6-5.413,19.576-9.87,9.905-6.327,15.975-9.978,19.906-13,3.429-2.633,8.112-3.7,12.174-4.606,5.969-1.325,9.509-1.849,12.313,1.516" transform="translate(72.531 -7592.424)" fill="#fff"/>
      <path id="Trazado_110636" data-name="Trazado 110636" d="M236.719,528.531c-10.136,1.637-20.044,4.727-30.207,6.16-.014-.717.073-1.2.272-1.377,4.848-3.732,12.6-5.413,19.576-9.871,9.906-6.327,15.975-9.978,19.906-13,3.429-2.633,8.112-3.7,12.174-4.607,5.969-1.325,9.509-1.849,12.313,1.517,0,0,3.678,4.728,1.694,13.653-11.526,4.219-23.681,5.573-35.727,7.52" transform="translate(72.53 -7592.424)" fill="#b1cad5"/>
      <path id="Trazado_110637" data-name="Trazado 110637" d="M261.668,548.257c1.349-2.193-2.511-13.064-2.8-15.793s7.124-17.052,15.01-21.459l9.948,7.078a27.447,27.447,0,0,1-2.729,11.678l-5.612,27.791c-3.411,3.482-24.676,24.923-27.638,23.69s-8.225-8.472-13.983-16.862c3.64-1.544,26.486-13.983,27.8-16.122" transform="translate(61.734 -7594.865)" fill="#90b3c3"/>
      <path id="Trazado_110638" data-name="Trazado 110638" d="M383,493.61a62.839,62.839,0,0,0,9.449,5.4c4.134,1.707,19.785,6.259,23.624,12.232,0,0,2.067,11.663-1.772,29.015S402.2,587.2,400.72,591.749s-2.363,15.361-2.067,16.214-21.556,13.085-52.267,13.37-46.361-6.258-53.153-10.241a25.809,25.809,0,0,1-10.63-13.085c-.591-1.992,2.362-11.948,2.362-15.361s-.3-38.117-.3-43.238.591-36.126,2.658-38.117,25.4-7.681,25.4-7.681,10.033,1.99,11.221,5.4c-1.476,13.37,3.277,35.691,5.316,36.127,2.658.568,19.194-29.584,19.194-29.584Z" transform="translate(42.531 -7588)" fill="#fff"/>
      <path id="Trazado_110639" data-name="Trazado 110639" d="M447.411,576.245c-1.683-6.9,8.431-34.439,14.564-40.384a108.343,108.343,0,0,1,18.469-14.5,8.381,8.381,0,0,1,.631.838s2.067,11.663-1.772,29.015S467.2,598.149,465.72,602.7s-2.362,15.361-2.067,16.214c.126.365-3.8,2.807-10.724,5.507-.885-7.066-3.3-39.066-5.518-48.176" transform="translate(-22.469 -7598.951)" fill="#90b3c3"/>
      <path id="Trazado_110640" data-name="Trazado 110640" d="M363.646,527.176c-2.447.976-9.44-2.96-11.812-2.56-7.678,4.267-15.636,14.508-21.261,14.508-2.657,0-8.774-10.547-12.4-13.939-2.849-2.664-10.89.963-11.812.569-3.466-1.484-18.06-2.964-18.771-10.847-.38-4.208-.332-14.36.37-14.559,6.891-1.954,26.669-6.738,26.669-6.738s10.034,1.99,11.221,5.405c-1.476,13.37,3.277,35.69,5.316,36.126,2.658.569,19.194-29.584,19.194-29.584l34.549-11.947a62.876,62.876,0,0,0,9.449,5.405c.852.351-10.04,19.912-30.71,28.161" transform="translate(40.625 -7588)" fill="#90b3c3"/>
      <path id="Trazado_110641" data-name="Trazado 110641" d="M359.058,529.28c-.372-5.748,5.28-10.814,8.666-17.761,3.752-7.7,5.374-17.1,7.087-19.311,3.173-4.086,25.1-19.311,28.644-19.608s8.557,11.752,15.883,14.931c0,0-3.605,10.138-27.777,25.894-2.543-3.463-6.535-12.564-7.685-13.223,0,0-18.086,25.566-24.818,29.078" transform="translate(12.333 -7579.706)" fill="#d5f2fa"/>
      <path id="Trazado_110642" data-name="Trazado 110642" d="M343.6,529.442c2.51-9.432-2.148-16.506-2.362-24.362-.886-7.427,1.771-15.152,0-19.311-3.839-6.536.241-15.818-1.477-15.152-2.3.892-7.972,9.21-13.288,10.992-2.631.883-8.184,24.506-5.316,29.083,1.372-.95,7.973-2.275,7.973-2.275Z" transform="translate(27.601 -7578.913)" fill="#d5f2fa"/>
      <path id="Trazado_110643" data-name="Trazado 110643" d="M341.76,485.817c-.058.045-.116.086-.173.135a82.348,82.348,0,0,1-19.946,12.14c1.271-7.7,3.8-15.967,5.337-16.482,5.316-1.783,10.989-10.1,13.289-10.992,1.717-.666-2.363,8.615,1.476,15.152.006.015.01.032.016.047" transform="translate(27.093 -7578.913)" fill="#90b3c3"/>
      <path id="Trazado_110644" data-name="Trazado 110644" d="M388.666,523.126s-4.875-12.46-6.442-13.04-4.814,2.48-6.224,6.213c-.769,2.036,1.234,5.529-.918,9.534-1.917,3.57-12.993,9.524-15.355,18.628,2.067,1.138,8.018-6.18,15.06-12.232a73.5,73.5,0,0,1,13.879-9.1" transform="translate(12.062 -7594.475)" fill="#90b3c3"/>
      <path id="Trazado_110645" data-name="Trazado 110645" d="M343.891,544.388c.3-10.4-8.859-17.231-8.564-22.876.249-3.506,4.216-14.247,2.363-14.557s-15.06,13.963-16.537,17.825c-.766,2,6.681,3.083,11.221,7.092,4.215,3.721,8.859,12.232,11.517,12.516" transform="translate(27.307 -7593.265)" fill="#90b3c3"/>
      <path id="Trazado_110646" data-name="Trazado 110646" d="M487.015,520.4s-10.77,4.976-15.89,24.6c-2.275,8.534,2.081,17.64,4.552,21.335,2.708,4.05,17.428,31.96,17.428,31.96s15.234-12.733,21.389-15.821c7.387-3.707,16.658-8.112,18.55-8.992s-24.117-35.132-26.335-38.319S494.07,518.222,487.015,520.4" transform="translate(-31.65 -7598.48)" fill="#fff"/>
      <path id="Trazado_110647" data-name="Trazado 110647" d="M468.72,569c.854-17.068,13.939-21.9,13.939-21.9s.476,9.138-1.707,13.085-5.394,9.9-5.974,10.525,23.964,15.813,23.636,17.254-3.449,17.881-4.17,18.55c-.278.258-11.785,8.856-13.207,6.3S468.521,572.987,468.72,569" transform="translate(-30.951 -7609.108)" fill="#afcddb"/>
      <path id="Trazado_110648" data-name="Trazado 110648" d="M620.534,900.14l3.044,7.837,9.168,15.551c.913,13.062-2.98,46.076-11.031,61.424-3,5.71-12.188,3.455-14.206,1.813-.949-3.619.4-13.649-.61-19.37-1.22-6.9,6.141-47.83,6.141-47.83l-3.933-6.284s-2.7-12.994-2.923-14.441c-.284-1.162,5.584-.6,8.236-1.2Z" transform="translate(-85.199 -7747.453)" fill="#59482f"/>
      <path id="Trazado_110649" data-name="Trazado 110649" d="M614.421,897.612c-2.651.6-8.52.037-8.236,1.2.115.746.889,4.564,1.611,8.087a24.981,24.981,0,0,1,10.41,7.405c5.231,6.416,7.37,24.6,7.37,24.6a55.979,55.979,0,0,1,2.534,27.224c3.645-15.543,5.259-33.726,4.636-42.635-.852-12.184-4.519-9.52-6.719-14.965-1.338-3.731-1.561-6.681-2.251-8.724-1.663-2.753-9.356-2.2-9.356-2.2" transform="translate(-85.199 -7747.423)" fill="#3a2d1c"/>
      <path id="Trazado_110650" data-name="Trazado 110650" d="M605.3,896.791c1.639,1.876,1.408,5.489,3.212,10.528,2.194,5.439,5.855,2.778,6.7,14.95.906,13.048-3.507,44.244-11.547,59.575a7.469,7.469,0,0,1-6.333,4.353c-2.414,0-11.561,1.426-15.534-5.134-8.2-13.534,3.558-29.308,1.736-33.706a18.434,18.434,0,0,1-2.694-4.144,26.007,26.007,0,0,1-2.227-14.963c1.343-9.133,6.856-12.351,9.748-13.351a5.854,5.854,0,0,1,7.184,3.414c-.3-3.21-3.961-3.747-3.923-6.277.166-11.173-2.691-12.98-2.912-14.426-.283-1.161,5.574-.6,8.221-1.2,4.155-.939,6.832-1.378,8.368.381" transform="translate(-74.209 -7746.643)" fill="#776445"/>
      <path id="Trazado_110651" data-name="Trazado 110651" d="M589.782,1017.539s-3.914-2.258-2.684-5.327,10.555-6.905,16.8-26.608c0,0-.5,25.839-14.117,31.935" transform="translate(-77.576 -7782.167)" fill="#99866b"/>
      <path id="Trazado_110652" data-name="Trazado 110652" d="M592.312,951.981c6.4-14.8,11.614-31.933,12.719-46.417-.648-2.895,1.41-7.464.266-8.773-1.536-1.759-4.213-1.32-8.368-.38-2.647.6-8.5.037-8.221,1.2.222,1.446,3.079,3.253,2.912,14.427-.038,2.53,3.628,3.066,3.923,6.277a5.854,5.854,0,0,0-7.184-3.414c-2.894,1-8.406,4.218-9.748,13.35a26,26,0,0,0,2.227,14.964,18.413,18.413,0,0,0,2.694,4.144c1.262,3.047-3.992,11.56-4.613,20.993,2.332-1.123,8.862-5.9,13.393-16.369" transform="translate(-74.209 -7746.643)" fill="#59482f"/>
      <path id="Trazado_110653" data-name="Trazado 110653" d="M603.766,896.369c-11.307,1.659-8.266-2.273-5.789,8.057,5.612,1.275,11.566,3.039,15,6.838,4.756,5.262,8.825,10.842,8.486,26.747.133-6.218.857-11.857.584-15.783-.846-12.172-4.507-9.511-6.7-14.95-3.152-12.14-2.532-13-11.58-10.909" transform="translate(-81.045 -7746.601)" fill="#59482f"/>
      <path id="Trazado_110654" data-name="Trazado 110654" d="M377.554,914.647c5.12,2.56,40.8,9.176,46.687,11.716s48.6,18.011,53.762,16.094,9.377-37.292,10.36-48.248-10.017-26.875-10.017-26.875-17.895-.479-25.216-1.285c-7.3-.8-23.021-9.706-27.771-11.132s-23.053,12.454-23.053,12.454-31.152,29.782-24.751,47.277" transform="translate(5.369 -7730.55)" fill="#2b517c"/>
      <path id="Trazado_110655" data-name="Trazado 110655" d="M528.851,926.415s-6.836-20.354-4.723-29.988a38.744,38.744,0,0,1,7.632-15.9s1.666,36.509-2.909,45.885" transform="translate(-52.659 -7740.7)" fill="#336097"/>
      <path id="Trazado_110656" data-name="Trazado 110656" d="M322.618,758.117l42.518,48.239s15.577,10.488,15.683,21.219c.052,5.265.327,19.917-6.038,28.6-8.511,11.615-29.864,15.9-34.888,17.4a43.146,43.146,0,0,1-24.179-7.681s-19.314-28.416-29.8-35.039c-17.654-11.152-33.487-32-33.487-32L306.187,745.7Z" transform="translate(54.408 -7687.489)" fill="#1d0427"/>
      <path id="Trazado_110657" data-name="Trazado 110657" d="M530.031,949.919c1.286-2.736,14.62-41.168,11.736-73.317a26.541,26.541,0,0,1,5.388-5.625c3.068-2.23,8.2,9.534,8.2,9.534s6.752-7.359,11.615-6.5c7.546,1.33,5.592,23.206,5.475,30.726-.116,7.435-11.715,55.08-15.684,57.874-4.24,2.984-11.053-8.994-11.053-8.994s-5.34,6.359-10.779,4.144a7.923,7.923,0,0,1-4.894-7.84" transform="translate(-55.143 -7736.818)" fill="#6a96c9"/>
      <path id="Trazado_110658" data-name="Trazado 110658" d="M530.573,951.656s5.408-20.21,6.987-25.8c1.6-5.653,4.51-28.423,4.591-34.1.081-5.727-.164-13.969-.164-13.969l4.458-4.089s3.26,33.549,3.388,35.3-8.992,19.287-8.992,19.287-2.6,19.969-4,22.013-6.267,1.36-6.267,1.36" transform="translate(-55.363 -7738.003)" fill="#4c79a4"/>
      <path id="Trazado_110659" data-name="Trazado 110659" d="M567.809,878.492a33.977,33.977,0,0,0,2.273,4.07c.625.692,4.219-3.415,4.883-3.742s4.013-3.7,6.732-2.759,6.5,4.453,5.444,21.641l.005,10.745s-4.312,23.345-7.763,34.157c0,0,4.451-42.666,1.174-49.193,0,0-4.322,16.583-5.312,21.853-.981,5.222-5.822,24.844-7.538,27.882-1.7,3.016,3.083-30.854,3.185-37.052.1-6.257-3.084-27.6-3.084-27.6" transform="translate(-69.873 -7738.87)" fill="#4c79a4"/>
      <path id="Trazado_110660" data-name="Trazado 110660" d="M555.62,995.51s3.1,3.864,4.006,4.307.281-21.665.281-21.665Z" transform="translate(-65.248 -7779.227)" fill="#4c79a4"/>
      <path id="Trazado_110661" data-name="Trazado 110661" d="M418.631,557.026a3.209,3.209,0,0,1,3.427-.7c.891.277-4.234,8.62-4.664,10.112a100.086,100.086,0,0,0,14.76,5.946c1.828.177,5.811-10.233,6.651-9.715,2.528,1.561,1.12,4.886-.421,7.755-2.279,4.242-3.673,4.9-4.1,4.911-3.171.055-19.762-7.037-21.179-8.764-1.042-1.271,2.271-4.2,2.808-5.015.582-.886,1.7-3.782,2.719-4.525" transform="translate(-8.924 -7612.664)" fill="#c5c5bd"/>
      <path id="Trazado_110662" data-name="Trazado 110662" d="M423.933,556.43c.892.277-4.234,8.621-4.664,10.112a100.086,100.086,0,0,0,14.76,5.946c1.828.177,5.811-10.233,6.65-9.715,1.575,1.551-.3,4.228-1.826,7.086-2.256,4.229-3.785,4.849-4.206,4.858a11.284,11.284,0,0,1-2.793-.562c-.857-.249-.15-1.849-1.2-2.21-5.742-1.973-11.732-3.794-12.76-5.018-1.085-1.292,1.849-4.221,2.395-5.047.592-.9,1.784-6.029,3.645-5.449" transform="translate(-10.799 -7612.774)" fill="#919187"/>
      <path id="Trazado_110663" data-name="Trazado 110663" d="M426.413,592.752c.131-.547,1.286-8.4,2.11-9.8s3.418-3.921,3.018-5.359-16.474-7.718-17.909-7.172c-1.42.54-4.61,7.336-5.9,10.356a63.028,63.028,0,0,0-2.484,8.6Z" transform="translate(-5.904 -7618.3)" fill="#70089b"/>
      <path id="Trazado_110664" data-name="Trazado 110664" d="M426.413,592.753c.131-.547,1.286-8.4,2.11-9.8-.574-1-17.551-1.95-17.9-3.286,2.151-3.209,4.447-9.791,3.013-9.245-1.42.54-4.61,7.336-5.9,10.356a63.028,63.028,0,0,0-2.484,8.6Z" transform="translate(-5.904 -7618.301)" fill="#450560"/>
      <path id="Trazado_110665" data-name="Trazado 110665" d="M442.3,543.872l23.846-36.236s-1.509-1.621-8.817-4.394c-7.309-2.88-10.882-3.245-10.882-3.245l-20.766,36.621c-.2.916,16.044,8.237,16.619,7.254" transform="translate(-13.965 -7590.521)" fill="#70089b"/>
      <path id="Trazado_110666" data-name="Trazado 110666" d="M446.443,500l1.47.9s-8.975,20.269-15.177,28.47c-.716.947-4.446,4.882-4.29,5.982.163,1.153,7.07,2.223,8.09,2.954a40.626,40.626,0,0,1,5.759,5.571c-.575.982-16.824-6.339-16.619-7.254Z" transform="translate(-13.964 -7590.52)" fill="#37064b"/>
      <path id="Trazado_110667" data-name="Trazado 110667" d="M306.455,559.733c.1.929,1.447,4.647.251,5.656-1.612,1.36-15.007,3.984-16.93,3.144-.255-.111-.877-1.062-.851-5.481.017-2.943.258-6.236,2.26-7.144.672-.305-.311,10.125.868,10.4a58.515,58.515,0,0,0,11.675-2.116c.217-1.568-.446-10.778.253-10.865,1.474-.185,1.774.666,2.124,1.382.458.939.246,4.024.351,5.028" transform="translate(40.005 -7611.556)" fill="#c5c5bd"/>
      <path id="Trazado_110668" data-name="Trazado 110668" d="M305.311,559.393c.094.932,1.14,4.518-.074,5.528-1.141.95-5.826,1.231-10.209,1.7-.784.085-.874,1.768-1.494,1.789a5.24,5.24,0,0,1-1.916-.165c-.254-.111-.979-1.06-.954-5.479.016-2.944-.232-5.758,1.2-6.848.673-.305-.311,10.125.869,10.4a58.505,58.505,0,0,0,11.675-2.116c.217-1.568-.446-10.778.254-10.865,1.474-.185.544,5.049.647,6.056" transform="translate(39.321 -7611.569)" fill="#919187"/>
      <path id="Trazado_110669" data-name="Trazado 110669" d="M288.737,586.942c.1-.558,2.022-8.3,1.981-9.836s-.789-4.5-.074-5.736,13.287-3.472,14.1-2.595.7,8.5.554,11.91a93.051,93.051,0,0,1-1.28,9.552Z" transform="translate(40.079 -7617.586)" fill="#70089b"/>
      <path id="Trazado_110670" data-name="Trazado 110670" d="M288.737,586.994c.1-.558,2.022-8.3,1.981-9.836.156-.18,1.335-2.358,2.383-2.423,3.577-.22,10.7,1.636,10.937,1.117-.389-3.744-.106-7.9.7-7.025s.7,8.5.554,11.91a93.054,93.054,0,0,1-1.28,9.552Z" transform="translate(40.079 -7617.639)" fill="#450560"/>
      <path id="Trazado_110671" data-name="Trazado 110671" d="M290.857,537.08l-2.367-34.951s1.688-2.294,6.736-3.874,7.1-1.15,7.1-1.15l1.624,36.667c-.173.93-13.068,4.33-13.1,3.308" transform="translate(40.176 -7589.358)" fill="#70089b"/>
      <path id="Trazado_110672" data-name="Trazado 110672" d="M303.871,497.1a4.876,4.876,0,0,0-.939-.051c-.3,0-1.074,19.857.257,28.442.158,1.018,1.331,5.46.855,6.482-.5,1.068-5.376.676-6.265,1.153a37.122,37.122,0,0,0-5.378,3.95c.027,1.022,12.923-2.378,13.095-3.309Z" transform="translate(38.633 -7589.358)" fill="#37064b"/>
      <path id="Trazado_110673" data-name="Trazado 110673" d="M273.8,676.364s-8.416,9.387-8.859,12.374.443,9.814.443,9.814-4.429,22.188-3.543,27.735,9.892,17.637,34.7,27.593a105.889,105.889,0,0,0,33.663,7.112c2.658,0,72.938-22.544,76.039-23.4-2.879-14.294-2.215-23.681-2.657-27.948s-1.329-16.214-3.1-19.628-10.631-14.081-10.631-14.081Z" transform="translate(50.738 -7659.956)" fill="#520c70"/>
      <path id="Trazado_110674" data-name="Trazado 110674" d="M397.254,630.315c-17.939-9.174-19.268-36.269-21.7-38.616-4.331-4.173-87.941-11.166-91.32-8.676-5.02,3.7-9.228,46.011-13.215,63.292-2.346,10.17,48.5,27.521,55.811,28.161s75.743-16,77.736-17.281-5.02-23.4-7.308-26.882" transform="translate(47.104 -7623.081)" fill="#70089b"/>
      <path id="Trazado_110675" data-name="Trazado 110675" d="M447.906,619.561c2.706,8.995,7.531,20.126,17.8,25.38,2.289,3.484,9.3,25.6,7.309,26.882-.831.534-13.208,3.736-27.889,7.244-2.083-14.853.725-47.839,2.776-59.506" transform="translate(-21.353 -7637.707)" fill="#2b073a"/>
      <path id="Trazado_110676" data-name="Trazado 110676" d="M271.016,666.8c1.777-7.7,3.6-20.384,5.517-32.4.561,4.831,3.564,23.724,2.045,41.565-5.06-3.263-8.184-6.467-7.562-9.165" transform="translate(47.104 -7643.562)" fill="#2b073a"/>
      <path id="Trazado_110677" data-name="Trazado 110677" d="M476.111,724.145c2-7.7,6.262-25.7,6.644-24.961,1.772,3.414,2.657,15.361,3.1,19.628s-.222,13.654,2.657,27.948c-.994.274-8.5,2.237-18.326,4.776-.056-17.363,4.242-20.905,5.923-27.391" transform="translate(-31.531 -7669.122)" fill="#2b517c"/>
      <path id="Trazado_110678" data-name="Trazado 110678" d="M381.42,723.362c4.274.129,7.963.2,10.923.2.9-.371,1.585-21.482.257-21.6-24.605.048-126.092-6.225-158.274-10.852-1.777-.518-4.248,20.967-2.927,21.384,30.351,4.129,112.6,9.734,150.02,10.863" transform="translate(62.855 -7665.942)" fill="#555863"/>
      <path id="Trazado_110679" data-name="Trazado 110679" d="M323.741,713.442c1.105-.134,2.316-8.911,2.227-9.965,8.987-1.009,55.9-1.323,67.049-1.317,1.328.11.7,19.527-.2,19.866-2.96-.01-6.65-.084-10.923-.213-37.422-1.129-119.257-5.979-149.615-9.85-.66-.193,0-13.66,2.616-19.131,10.342,2.233,62.535,5.3,62.535,5.3s3.394,16.811,6.543,16.847c0,0,12.605-.67,19.771-1.538" transform="translate(62.455 -7666.624)" fill="#2f323c"/>
      <path id="Trazado_110680" data-name="Trazado 110680" d="M276.709,715.17s-7.33,20.7-10.311,31.675-.918,27.348-9.466,37.413c-3.785,6.513-18.86,13.353-26.2,12.286s-14.306-11.111-16.478-16.81,6.79-37.976,7.294-43.114,4.573-23.825,4.573-23.825Z" transform="translate(69.61 -7674.502)" fill="#555863"/>
      <path id="Trazado_110681" data-name="Trazado 110681" d="M228.121,730.5c1.361-7.409,3.6-17.708,3.6-17.708l50.592,2.375s-6.486,12.289-8.959,18.189c-12.114.509-42.23-2.5-45.237-2.857" transform="translate(64.001 -7674.502)" fill="#2f323c"/>
      <path id="Trazado_110682" data-name="Trazado 110682" d="M260.288,685.3a24.489,24.489,0,0,1,12.78-9.633c1.941-.631,11.257-1.3,12.6-.891,5.831,1.8,17.277,7.37,19.653,11.155,1.34,3.137.664,24.789-.671,25.425-.152.073-6.356,2.212-9.016,2.183-11.675-.017-33.827-2.045-34.37-2.317-1.348-.674-2.251-22.823-.975-25.923" transform="translate(51.549 -7659.447)" fill="#e5a60b"/>
      <path id="Trazado_110683" data-name="Trazado 110683" d="M245.271,687.539c2.829-4.576,19.327-11.471,22.372-11.1.008,0,.018.005.026.006l.026,0c3.039-.288,19.683,7.071,22.607,11.728,1.34,3.137.892,25.267-.443,25.9-.689.329-42.917-.264-43.613-.612-1.348-.674-2.251-22.823-.976-25.923" transform="translate(57.475 -7660.149)" fill="#ffdf2c"/>
      <path id="Trazado_110684" data-name="Trazado 110684" d="M266.8,698.075c1.1-1.348,15.667-.945,16.529-.479s.995,10.4.478,10.644c-.266.127-16.593-.1-16.862-.237-.521-.261-.856-9.054-.145-9.928" transform="translate(48.897 -7668.33)" fill="#2f323c"/>
      <path id="Trazado_110685" data-name="Trazado 110685" d="M302.4,688.058c-3.343-3.148-13.571-8.856-19.768-11.611l.026.006.026,0c3.039-.289,19.684,7.071,22.607,11.728,1.219,2.853.958,21.417-.1,25.228-.239-5.215.286-22.452-2.788-25.347" transform="translate(42.49 -7660.155)" fill="#fff18a"/>
      <path id="Trazado_110686" data-name="Trazado 110686" d="M245.271,694.783c.769.148-.166,22.409,2.88,22.782.008,0,43.044,3.117,41.71,3.753-.689.329-42.917-.264-43.613-.612-1.348-.674-2.251-22.823-.976-25.923" transform="translate(57.475 -7667.394)" fill="#e5a60b"/>
      <path id="Trazado_110687" data-name="Trazado 110687" d="M216.727,765.954c1.353.065,40.585,7.1,41.288,7.856s3.141,21.805-5,32.712c-4,5.809-18.79,11.91-26.191,11.029s-15.49-9.653-18.42-14.835c-1.665-2.943-4.171-32.131-3.754-32.982s8.767-3.94,12.08-3.781" transform="translate(73.284 -7695.479)" fill="#2f323c"/>
      <path id="Trazado_110688" data-name="Trazado 110688" d="M261.441,791.406l4.312-.167-1.872-44.849-4.312.167Z" transform="translate(51.591 -7687.76)" fill="#c5c5bd"/>
      <path id="Trazado_110689" data-name="Trazado 110689" d="M267.265,809.4l1.525.018-.709-16.973Z" transform="translate(48.553 -7705.935)" fill="#919187"/>
      <path id="Trazado_110690" data-name="Trazado 110690" d="M261.441,791.406l.467-7.941-.682-29.742,2.95-.268-.295-7.066-4.312.167Z" transform="translate(51.591 -7687.76)" fill="#919187"/>
      <path id="Trazado_110691" data-name="Trazado 110691" d="M258.485,809.451c.343-.4,3.334-2.9,3.334-2.9l1.76-.068s3.189,2.262,3.564,2.631-1.67,9.988-1.67,9.988l-4.49.174s-2.84-9.428-2.5-9.826" transform="translate(52.029 -7711.477)" fill="#c5c5bd"/>
      <path id="Trazado_110692" data-name="Trazado 110692" d="M263.824,815.577c.154-.211,4.332-2.8,4.5-2.6s-1.459,8.076-1.459,8.076l-2.213.085s-.985-5.352-.831-5.564" transform="translate(49.917 -7714.036)" fill="#e0e0dc"/>
      <path id="Trazado_110693" data-name="Trazado 110693" d="M253.835,726.01l8.62-.334c2.806-.108,2.011-3.135,2.011-3.135l-1.459-34.962s-1.018-5.153-6.007-4.959c-5.969.231-6.434,5.133-6.434,5.133l1.465,35.1s-.6,3.254,1.805,3.161" transform="translate(55.144 -7662.591)" fill="#c3302a"/>
      <path id="Trazado_110694" data-name="Trazado 110694" d="M262.429,715.841l2.486-.1c.809-.031.524-2.237.524-2.237l-1.058-25.351s-.35-2.07-1.789-2.014c-1.721.067-1.805,1.93-1.805,1.93l1.062,25.447s-.114,2.347.579,2.32" transform="translate(51.11 -7663.983)" fill="#e25757"/>
      <path id="Trazado_110695" data-name="Trazado 110695" d="M252.662,724.519,251.209,689.7a5.861,5.861,0,0,1,.649-2.01c.214,7.489,2.226,32.1,3.785,35.991,1,2.487,6.242,1.725,8.6,2.489a1.81,1.81,0,0,1-1.809,1.171l-8.074.313c-2.254.087-1.7-3.139-1.7-3.139" transform="translate(54.89 -7664.596)" fill="#8a1515"/>
      <path id="Trazado_110696" data-name="Trazado 110696" d="M239.343,793.277l4.267-.622-6.969-44.381-4.267.622Z" transform="translate(62.323 -7688.504)" fill="#c5c5bd"/>
      <path id="Trazado_110697" data-name="Trazado 110697" d="M247.7,810.784l1.518-.143-2.637-16.795Z" transform="translate(56.717 -7706.489)" fill="#919187"/>
      <path id="Trazado_110698" data-name="Trazado 110698" d="M239.343,793.277l-.44-7.943-4.067-29.49,2.9-.579-1.1-6.991-4.267.622Z" transform="translate(62.323 -7688.504)" fill="#919187"/>
      <path id="Trazado_110699" data-name="Trazado 110699" d="M238.678,811.47c.3-.432,2.983-3.233,2.983-3.233l1.742-.254s3.427,1.911,3.842,2.239-.522,10.1-.522,10.1l-4.444.647s-3.9-9.071-3.6-9.5" transform="translate(59.841 -7712.068)" fill="#c5c5bd"/>
      <path id="Trazado_110700" data-name="Trazado 110700" d="M244.653,817.039c.129-.226,3.987-3.237,4.18-3.058s-.531,8.181-.531,8.181l-2.189.318s-1.589-5.216-1.46-5.442" transform="translate(57.48 -7714.433)" fill="#e0e0dc"/>
      <path id="Trazado_110701" data-name="Trazado 110701" d="M224.7,728.891l8.529-1.243c2.777-.4,1.642-3.329,1.642-3.329l-5.433-34.6s-1.6-5.013-6.536-4.294c-5.907.861-5.81,5.783-5.81,5.783l5.454,34.729s-.226,3.3,2.154,2.951" transform="translate(68.352 -7663.674)" fill="#76a43b"/>
      <path id="Trazado_110702" data-name="Trazado 110702" d="M231.848,718.228l2.46-.358c.8-.117.266-2.279.266-2.279l-3.939-25.086s-.583-2.021-2.007-1.813a1.952,1.952,0,0,0-1.575,2.109l3.954,25.182s.154,2.344.84,2.245" transform="translate(64.423 -7664.984)" fill="#9cc063"/>
      <path id="Trazado_110703" data-name="Trazado 110703" d="M223.136,727.974l-5.41-34.451a5.833,5.833,0,0,1,.415-2.067c1.067,7.422,5.87,31.673,7.862,35.375,1.274,2.367,6.4,1.054,8.833,1.565a1.79,1.79,0,0,1-1.665,1.355l-7.99,1.165c-2.229.325-2.045-2.941-2.045-2.941" transform="translate(68.104 -7666.081)" fill="#4b6d1d"/>
      <path id="Trazado_110704" data-name="Trazado 110704" d="M221.967,792.081l4.083-1.347-15.1-42.465-4.083,1.347Z" transform="translate(72.388 -7688.502)" fill="#c5c5bd"/>
      <path id="Trazado_110705" data-name="Trazado 110705" d="M233.362,808.345l1.467-.4-5.713-16.07Z" transform="translate(63.608 -7705.71)" fill="#919187"/>
      <path id="Trazado_110706" data-name="Trazado 110706" d="M221.967,792.081l-1.907-7.739-9.475-28.314,2.748-1.069-2.378-6.69-4.083,1.347Z" transform="translate(72.388 -7688.502)" fill="#919187"/>
      <path id="Trazado_110707" data-name="Trazado 110707" d="M225.042,810.042c.211-.476,2.335-3.7,2.335-3.7l1.667-.55s3.727,1.289,4.2,1.541,1.362,10.031,1.362,10.031l-4.252,1.4s-5.518-8.253-5.307-8.729" transform="translate(65.219 -7711.206)" fill="#c5c5bd"/>
      <path id="Trazado_110708" data-name="Trazado 110708" d="M231.9,814.556c.085-.245,3.322-3.872,3.545-3.728s1,8.141,1,8.141l-2.095.691s-2.532-4.858-2.447-5.1" transform="translate(62.51 -7713.189)" fill="#e0e0dc"/>
      <path id="Trazado_110709" data-name="Trazado 110709" d="M196.2,730.918l8.161-2.692c2.657-.876,1-3.558,1-3.558l-11.767-33.1s-2.5-4.658-7.228-3.1c-5.652,1.864-4.643,6.69-4.643,6.69l11.813,33.23s.39,3.283,2.667,2.532" transform="translate(82.341 -7664.774)" fill="#ffdf2c"/>
      <path id="Trazado_110710" data-name="Trazado 110710" d="M200.8,719.8l2.354-.777c.766-.252-.161-2.288-.161-2.288l-8.532-24s-.949-1.887-2.311-1.438a1.926,1.926,0,0,0-1.157,2.346l8.565,24.1s.587,2.28,1.243,2.064" transform="translate(78.678 -7665.989)" fill="#fff18a"/>
      <path id="Trazado_110711" data-name="Trazado 110711" d="M194.021,731.055,182.3,698.09a5.824,5.824,0,0,1,.025-2.1c2.427,7.118,11.654,30.151,14.3,33.45,1.693,2.109,6.494-.066,8.982.018a1.76,1.76,0,0,1-1.386,1.62L196.58,733.6c-2.134.7-2.559-2.541-2.559-2.541" transform="translate(82.116 -7667.869)" fill="#e5a60b"/>
      <path id="Trazado_110712" data-name="Trazado 110712" d="M245.65,810.275c6.217-11.127,1.451-29.942.064-30.8s-39.881-7.45-42.2-7.338c-1.945.667-3.929,22.62,3.76,33.021,2.91,5.5,14.013,11.709,17.066,12.36s18.691-3.322,21.308-7.244" transform="translate(74.408 -7697.922)" fill="#555863"/>
      <path id="Trazado_110713" data-name="Trazado 110713" d="M247.34,785.346c-3.681-4.429-23.211-4.432-24.662-8.855,11.36,2.3,27.485,5.25,28.409,5.818,1.272.781,2.805,21.38,1.008,27.923-.966-2.6-1.532-21.007-4.755-24.886" transform="translate(66.149 -7699.64)" fill="#6d727f"/>
      <path id="Trazado_110714" data-name="Trazado 110714" d="M375.825,811.43s10.04-1.991,17.127-6.258c5.07-3.053,3.839,4.552,1.181,7.965s-18.308-1.707-18.308-1.707" transform="translate(5.709 -7710.68)" fill="#2b517c"/>
      <path id="Trazado_110715" data-name="Trazado 110715" d="M289.14,608.642c.677.675,35.974,3.334,36.591,3.018s1.933-8.936,1.281-9.916-35.754-3.058-36.247-2.774-2.3,9-1.624,9.672" transform="translate(39.979 -7629.57)" fill="#540c72"/>
      <path id="Trazado_110716" data-name="Trazado 110716" d="M289.925,606.557s34.358,3.352,35.02,3.1,1.443-7.476,1.443-7.476l-35.131-2.644Z" transform="translate(39.61 -7629.806)" fill="#a02fcf"/>
      <path id="Trazado_110717" data-name="Trazado 110717" d="M401.346,616.453c-.013.53.6,39.418.412,41.433-.254,2.736-17.4,2.288-26.448,1.989-9.17-.3-22.312-3.351-24.61-4.913s7.463-42.524,7.463-42.524Z" transform="translate(15.762 -7634.896)" fill="#390350"/>
      <path id="Trazado_110718" data-name="Trazado 110718" d="M399.091,617.906c-.018.5-.154,33.568-.346,35.416-.259,2.506-15.905,3.474-24.032,3.2-8.226-.278-19.433-2.934-21.488-4.369s6.6-37.876,6.6-37.876Z" transform="translate(14.752 -7635.621)" fill="#70089b"/>
      <path id="Trazado_110719" data-name="Trazado 110719" d="M354.535,656.609c.321-3.055,3.065-18.976,2.575-20.35-2.645,10.389-4.947,23.809-3.858,24.569a14.7,14.7,0,0,0,3.536,1.39,5.724,5.724,0,0,1-2.253-5.609" transform="translate(14.727 -7644.297)" fill="#a02fcf"/>
      <path id="Trazado_110720" data-name="Trazado 110720" d="M360.24,601.648c1.219-.233,41.818,2.723,42.727,3.987s.864,15.9-.077,16.97c-3.466,3.944-43.375-.193-47.442-1.708s3.569-19.014,4.793-19.249" transform="translate(14.216 -7630.633)" fill="#390350"/>
      <path id="Trazado_110721" data-name="Trazado 110721" d="M361.853,603.282c2.582.239,38.141,2.919,39.671,3.061s.454,12.817-.465,13.762c-3.376,3.47-38.231-.41-42.147-1.783s2.941-15.04,2.941-15.04" transform="translate(12.86 -7631.282)" fill="#70089b"/>
      <path id="Trazado_110722" data-name="Trazado 110722" d="M361.853,603.282c2.582.239,38.141,2.919,39.671,3.061-.429,2.2-36.733-1.565-37.788-.688-3.875,3.222-5.73,10.162-4.823,12.666-3.909-1.37,2.941-15.04,2.941-15.04" transform="translate(12.86 -7631.282)" fill="#a02fcf"/>
      <path id="Trazado_110723" data-name="Trazado 110723" d="M221.531,156.506s-18.436,34.295-22.676,47.453c-4.686,14.545-6.286,34.345,7.75,53.243,0,0,7.442-32.658,17.962-55.568l5.673-41.8Z" transform="translate(76.87 -7454.96)" fill="#86541d"/>
      <path id="Trazado_110724" data-name="Trazado 110724" d="M359.222,320.914s-67.024,8.918-92,7.564a275.023,275.023,0,0,1-37.968-10.236c-28.609-10.406-56.982-26.621-51.8-54.856-.084-8.589,12.592-18.887,15.283-40.817.634-5.167,1.351-10.514,2.217-15.9,2.8-17.476,7.181-35.389,15.428-49.069,37.021-79.842,190.9-45.793,201.09,18.907.853,9.207,3.367,61.96,2.541,87.363a95.682,95.682,0,0,1-.766,10.4,12.984,12.984,0,0,1-.539,2.347c1.359,6.507-53.486,44.3-53.486,44.3" transform="translate(84.24 -7437.038)" fill="#fdcfad"/>
      <path id="Trazado_110725" data-name="Trazado 110725" d="M267.34,389.166c24.972,1.354,92-7.564,92-7.564s54.845-37.793,53.486-44.3c3.184-21.228.786-47.042.276-72.436-20.751,5.174-28.383,11.4-30.265,18.591,2.657,10.24,7.308,28.8-5.979,50.46-11.64,18.973-37.969,28.339-56.919,17.17-13.716-8.005-21.944-24.86-35.657-32.855-13.286-7.665-18.6-2.987-24.583.213a22.456,22.456,0,0,0-12.624-7.681c-17.542-2.938-24.737,31.583-46.878,20.837-7.251-3.659-14.174-11.663-16.229-22.561-3.411,6.2-6.437,10.824-6.4,15.033-6.15,41.678,53.714,57.079,89.773,65.092M243.751,325.6c4.5-.39,6.937,3.159,14.023,2.306,3.823-.461,9.305-1.959,12.993-.569,6.791,2.56,9.11,7.831,13.288,11.947,6.237,6.144,15.06,23.041,8.564,27.308-4.333,2.846-23.033,1.992-33.959.569-6.845-.891-30.431-5.557-35.436-13.085-3.329-5.008,10.335-27.593,20.526-28.476" transform="translate(84.126 -7497.725)" fill="#d78c63"/>
      <path id="Trazado_110726" data-name="Trazado 110726" d="M410.012,257.894c.255-7.4-2.046-23.952-2.818-27.144-1.386-5.735-5.891-17.52-9.733-22.949a86.2,86.2,0,0,1-6.4-13.078A74.465,74.465,0,0,0,382.6,176.71c-1.617-2.31-19.683-10.023-24.826-12.419a93.671,93.671,0,0,0-16.392-5.415c-23.67-6.112-47.92-12.672-72.669-10.73a120.738,120.738,0,0,0-27.213,4.92,68.1,68.1,0,0,0-8.154,3.153c38.154-78.054,190.292-44.03,200.424,20.292.628,6.777,6.208,18.953.06,48.811-2.048,8.636-23.924,35.528-23.822,32.572" transform="translate(61.938 -7437.039)" fill="#d78c63"/>
      <path id="Trazado_110727" data-name="Trazado 110727" d="M366.629,411.793c-30.6,8.135-63.119,10.018-94.082,4.434a274.913,274.913,0,0,1-37.968-10.236c-15.616-6.027-27.9-10.112-44.257-26.82,20.386,18.765,72.364,31.025,121.46,27.7,47.922-3.241,93.849-22.519,102.176-60.5-.561,2.561,2.729-12.939,2.729-12.939-.157,1,3.789,16.8,1.342,30.928-.682,7.879-11.112,36.721-51.4,47.43" transform="translate(78.919 -7524.786)" fill="#d78c63"/>
      <path id="Trazado_110728" data-name="Trazado 110728" d="M179.9,326.473c-5.513,15.278-8.792,30.742-7.727,37.465,3.986,25.175,28.348,42.243,72.608,48.243,76.1,11.854,109.885,5.52,128.045-11.974,14.974-13.712,22.156-31.215,25.441-46.956,4.586-21.975.84-38.383,1.283-43.929-3.839,3.129-12.107,11.52-12.107,11.52-5.759,40.109-24.2,52.35-39.422,54.617-25.687,3.826-35.7-2.718-43.67-12.065-5.36-6.288-18.728-26.455-34.436-29.609-4.139-1.328-11.683.644-13.288,2.845-9.449-9.388-19.564-7.468-24.436-2.774-13.953,10.454-24.14,22.828-36.1,19.841-8.459-2.964-12.319-11.214-12.506-20.906-.137-7.056,6.453-20.91,5.073-21.975a60.478,60.478,0,0,0-8.758,15.655m62.257,12.149c6.2-.26,12.692,3.951,13.812,4.12s10.252-.679,12.47-.137c14.47,3.414,29.878,31.37,27.758,40.678-2.007,8.813-23.619,8.208-47.838,3.982-12.745-2.223-33.352-8.254-35.14-13.938-2.953-9.388,15.356-34.135,28.939-34.7" transform="translate(86.161 -7515.27)" fill="#aa7e41"/>
      <path id="Trazado_110729" data-name="Trazado 110729" d="M500.473,362.85c7.431-8.331,13.675-21.539,16.613-42.007,0,0,8.268-8.392,12.108-11.521-.443,5.547,3.3,21.955-1.284,43.929-3.108,14.9-9.71,31.365-23.1,44.711,6.738-14.4-3.48-31.664-4.339-35.113" transform="translate(-43.484 -7515.27)" fill="#a06f35"/>
      <path id="Trazado_110730" data-name="Trazado 110730" d="M278.011,358.443c-1.256-.464-7.665-7.261-12.733-7.184-13.991.214-23.947,15.128-25.508,16.713-3.338,3.392-14.227,17.823-11.221,23.895,3.622,7.317,25.32,15.644,32.187,17.21,5.622,1.282,23.688,3.664,33.368,3.414,20.583-.532,25.541-2.766,27.314-7.4,2.228-5.816-1.768-17.1-7.234-25.6-8.3-12.9-20.495-22.65-23.328-22.9-5.759-.854-11.434,2.371-12.845,1.849m12.55.711c14.47,3.414,29.878,31.37,27.758,40.678-2.007,8.813-23.619,8.208-47.837,3.983-12.745-2.224-33.352-8.255-35.14-13.939-2.953-9.387,15.355-34.135,28.939-34.7,6.2-.26,12.692,3.951,13.812,4.12s10.252-.679,12.47-.137" transform="translate(64.037 -7531.82)" fill="#915f1a"/>
      <path id="Trazado_110731" data-name="Trazado 110731" d="M501.149,358.3a54.873,54.873,0,0,1-8.434,12.95,32.935,32.935,0,0,1-13.088,8.986,27.69,27.69,0,0,1-7.994,1.531c13.94-4.245,28.974-17.912,34.071-53.411,0,0,2.363,16.073-4.555,29.943" transform="translate(-32.102 -7522.78)" fill="#915f1a"/>
      <path id="Trazado_110732" data-name="Trazado 110732" d="M172.031,363.565c-.714-13.161,8.447-42.925,16.633-51.773,1.38,1.065-5.21,14.919-5.073,21.975-.6,15.023,12.489,27.363,26.386,18.205-4.934,5.817-11.008,6.935-16.979,5.471-4.4-1.079-9.3-3.624-11.665-9.882-4.429,12.516,2.6,28.4,16.832,38.971,15.177,11.275,46.366,15.943,64.965,18.775,31.147,2.9,59.63,4.092,89.327-6.258,18.162-6.33,34.771-18.988,43.185-34.7-4.025,12.818-10.988,26.006-22.81,36.832-24.141,22.4-67,19.423-114.722,13.867-20.541-2.391-40.123-5.673-56.032-13.654-16.8-8.426-29.382-21.9-30.047-37.83" transform="translate(86.153 -7516.245)" fill="#915f1a"/>
      <path id="Trazado_110733" data-name="Trazado 110733" d="M168.976,375.166a.945.945,0,0,0,.415-.021,1.848,1.848,0,0,0,1.231-1.573c.655-8.736,9.628-20.283,9.716-20.4a1.2,1.2,0,0,0,.071-1.617,1.113,1.113,0,0,0-1.515.4c-.387.49-9.759,12.456-10.541,22.211a.846.846,0,0,0,.621.992" transform="translate(87.59 -7531.873)" fill="#86541d"/>
      <path id="Trazado_110734" data-name="Trazado 110734" d="M173.889,398.657a.857.857,0,0,0,.614-.164,2.15,2.15,0,0,0,.849-1.906c-1.025-7.591,5.992-22.331,7.141-24.112a1.417,1.417,0,0,0,.053-1.7c-.36-.332-.969-.113-1.36.49-1.363,2.1-9.014,17.813-7.862,26.666a.751.751,0,0,0,.565.724" transform="translate(85.674 -7539.462)" fill="#86541d"/>
      <path id="Trazado_110735" data-name="Trazado 110735" d="M179.332,411.122a.759.759,0,0,0,.428-.062,2.1,2.1,0,0,0,1.051-1.808c.044-4.041,4.043-13.779,5.589-16.9.34-.686.266-1.446-.162-1.7s-1.048.094-1.39.777c-.966,1.936-6.024,13.18-6.108,18.711-.008.553.234.923.591.985" transform="translate(83.49 -7547.333)" fill="#86541d"/>
      <path id="Trazado_110736" data-name="Trazado 110736" d="M187.841,424.276a1.292,1.292,0,0,0,1.215-.35,2.981,2.981,0,0,0,.878-2.914c-2.128-6.6,4.244-21.908,6.115-24.582a.837.837,0,0,0-.22-1.248,1.088,1.088,0,0,0-1.355.351c-1.917,2.582-9.833,19.06-7.387,27.858a1.194,1.194,0,0,0,.755.885" transform="translate(80.379 -7549.11)" fill="#86541d"/>
      <path id="Trazado_110737" data-name="Trazado 110737" d="M466.153,465.782a1.507,1.507,0,0,0,1.616-.716c3.526-6.428-1.963-24.836-5.705-30.216a2.291,2.291,0,0,0-2.1-.874.824.824,0,0,0-.609,1.356c3.369,5.159,7.231,21.909,4.4,26.519a2.737,2.737,0,0,0,.991,3.277,2.89,2.89,0,0,0,1.4.653" transform="translate(-27.183 -7564.456)" fill="#86541d"/>
      <path id="Trazado_110738" data-name="Trazado 110738" d="M487.459,450.368A1.559,1.559,0,0,0,489,449.309c3.381-10.178-6.523-27.532-11.724-32.8a1.918,1.918,0,0,0-2.1-.338.933.933,0,0,0-.292,1.558c4.644,4.938,13.086,21.145,10.029,29.4a2.564,2.564,0,0,0,1.371,2.923,2.433,2.433,0,0,0,1.179.314" transform="translate(-33.263 -7557.369)" fill="#86541d"/>
      <path id="Trazado_110739" data-name="Trazado 110739" d="M516.17,420.775a1.038,1.038,0,0,0,1.1-.893c1.1-8.781-10.11-24.615-10.571-25.26a2.125,2.125,0,0,0-2.22-.87c-.709.244-.87,1.03-.357,1.758.1.148,10.792,15.4,9.776,23.06a2.2,2.2,0,0,0,1.5,2.058,2.006,2.006,0,0,0,.774.147" transform="translate(-44.804 -7548.562)" fill="#86541d"/>
      <path id="Trazado_110740" data-name="Trazado 110740" d="M529.016,402.219a1,1,0,0,0,1.071-.936c.542-12.079-10.177-24.738-10.619-25.254a2.071,2.071,0,0,0-2.214-.685c-.65.291-.717,1.071-.146,1.745.1.117,10.194,12.178,9.63,23.1a2.212,2.212,0,0,0,1.605,1.926,1.98,1.98,0,0,0,.673.106" transform="translate(-49.896 -7541.282)" fill="#86541d"/>
      <path id="Trazado_110741" data-name="Trazado 110741" d="M201.237,442.478a.812.812,0,0,0,.559-.128,2.161,2.161,0,0,0,.878-1.951c-.353-3.1,1.094-8.811,1.673-10.724.231-.762.005-1.465-.5-1.572s-1.1.421-1.338,1.182c-.1.313-2.381,7.836-1.889,12.352.053.482.3.786.619.843" transform="translate(74.883 -7562.143)" fill="#86541d"/>
      <path id="Trazado_110742" data-name="Trazado 110742" d="M214.254,446.954a1.176,1.176,0,0,0,1.033-.5,2.138,2.138,0,0,0,.452-2.147c-3.441-6.578,2.046-19.1,2.1-19.225.329-.742.2-1.5-.28-1.69s-1.141.248-1.473.986c-.254.565-6.366,14.338-2.311,22.2a.673.673,0,0,0,.479.379" transform="translate(70.21 -7560.271)" fill="#86541d"/>
      <path id="Trazado_110743" data-name="Trazado 110743" d="M502.715,439.34a1.078,1.078,0,0,0,1.1-.808c1.268-5.269-6.446-16.869-7.3-18.137a2.135,2.135,0,0,0-2.271-.935c-.731.257-.9,1.093-.384,1.869,2.914,4.357,7.377,12.576,6.623,15.625a2.133,2.133,0,0,0,1.326,2.176,2.035,2.035,0,0,0,.907.211" transform="translate(-40.755 -7558.706)" fill="#86541d"/>
      <path id="Trazado_110744" data-name="Trazado 110744" d="M388.428,475.029a1.531,1.531,0,0,0,1.773-.135c5.611-4.86,7.053-23.963,5.467-30.256a2.22,2.22,0,0,0-1.654-1.516.843.843,0,0,0-1.058,1.07c1.315,5.962-1.06,22.967-5.369,26.353a2.72,2.72,0,0,0-.244,3.4,2.793,2.793,0,0,0,1.084,1.08" transform="translate(1.348 -7568.066)" fill="#86541d"/>
      <path id="Trazado_110745" data-name="Trazado 110745" d="M416.866,467.7a1.6,1.6,0,0,0,1.823-.483c6.819-8.429,3.739-28.009.744-34.685a1.879,1.879,0,0,0-1.851-1.016.95.95,0,0,0-.831,1.365c2.589,6.179,4.709,24.2-1.119,30.933a2.525,2.525,0,0,0,.24,3.2,2.363,2.363,0,0,0,.995.687" transform="translate(-9.817 -7563.488)" fill="#86541d"/>
      <path id="Trazado_110746" data-name="Trazado 110746" d="M436.083,462.383a1.107,1.107,0,0,0,1.324-.392c3.077-4.524-.008-17.975-.36-19.451a2.072,2.072,0,0,0-1.8-1.633c-.778,0-1.24.726-1.03,1.628,1.174,5.057,2.42,14.255.62,16.866a2.087,2.087,0,0,0,.466,2.482,1.979,1.979,0,0,0,.776.5" transform="translate(-17.317 -7567.2)" fill="#86541d"/>
      <path id="Trazado_110747" data-name="Trazado 110747" d="M322.694,476.759a1.165,1.165,0,0,0,1.136-.5c3.122-4.085,3.362-14.587,3.379-15.744a1.328,1.328,0,1,0-2.582-.041c-.056,2.784-.643,10.724-2.654,13.33a2.147,2.147,0,0,0-.027,2.466,1.213,1.213,0,0,0,.748.491" transform="translate(27.121 -7574.283)" fill="#86541d"/>
      <path id="Trazado_110748" data-name="Trazado 110748" d="M349.4,476.775a1.138,1.138,0,0,0,1.136-.521c2.688-3.776,2.811-13.911,2.817-15.028a1.58,1.58,0,0,0-1.284-1.71,1.428,1.428,0,0,0-1.308,1.577c-.039,3.757-.667,10.623-2.19,12.743a2.146,2.146,0,0,0,.079,2.466,1.263,1.263,0,0,0,.75.473" transform="translate(16.603 -7574.544)" fill="#86541d"/>
      <path id="Trazado_110749" data-name="Trazado 110749" d="M335.521,481.605a1.344,1.344,0,0,0,1.434-1.149l2.122-7.961a1.866,1.866,0,0,0-.812-2.158c-.683-.311-1.427.145-1.665,1.022l-2.156,7.923a1.937,1.937,0,0,0,.809,2.237,1.078,1.078,0,0,0,.268.087" transform="translate(22.071 -7578.776)" fill="#86541d"/>
      <path id="Trazado_110750" data-name="Trazado 110750" d="M276.721,468.594a.982.982,0,0,0,.531-.055,2.023,2.023,0,0,0,1.048-2.122c-.249-1.9,1.406-9.144,2.634-13.583a1.559,1.559,0,0,0-.727-1.948c-.636-.215-1.352.305-1.6,1.164-.539,1.912-3.269,11.849-2.832,15.326a1.3,1.3,0,0,0,.941,1.217" transform="translate(45.211 -7571.12)" fill="#86541d"/>
      <path id="Trazado_110751" data-name="Trazado 110751" d="M261.855,465.784a.982.982,0,0,0,.539-.058,2.048,2.048,0,0,0,1.067-2.11c-.34-2.816,1.381-9.6,2.061-11.942a1.521,1.521,0,0,0-.7-1.933c-.637-.2-1.354.316-1.608,1.174-.278.942-2.757,9.48-2.274,13.678a1.253,1.253,0,0,0,.912,1.191" transform="translate(51.073 -7570.669)" fill="#86541d"/>
      <path id="Trazado_110752" data-name="Trazado 110752" d="M229.792,458.435a1.021,1.021,0,0,0,.939-.462,2.381,2.381,0,0,0,.375-2.3c-1.774-3.676.216-9.909.236-9.971.269-.831.071-1.668-.444-1.872s-1.151.3-1.426,1.125c-.107.32-2.613,8-.23,13.007a.784.784,0,0,0,.551.474" transform="translate(63.964 -7568.335)" fill="#86541d"/>
      <path id="Trazado_110753" data-name="Trazado 110753" d="M242.878,459.044a1.131,1.131,0,0,0,.93-.295,2.158,2.158,0,0,0,.589-2.308c-1.711-4.173,1.713-13.459,3.141-16.612a1.569,1.569,0,0,0-.389-2c-.57-.321-1.317.045-1.673.824-.239.522-5.985,13.2-3.358,19.711a1.037,1.037,0,0,0,.76.681" transform="translate(58.748 -7565.939)" fill="#86541d"/>
      <path id="Trazado_110754" data-name="Trazado 110754" d="M539.55,316.841a68.643,68.643,0,0,0-4.429,17.352c-1.476,10.81-1.181,24.464.886,25.032s5.02-32.144,3.544-42.384" transform="translate(-56.793 -7518.237)" fill="#aa7e41"/>
      <path id="Trazado_110755" data-name="Trazado 110755" d="M376.475,226.817c12.165-4.489,30.344-3.347,41.637,2.347,6.481,3.268,11.12,10.8,9.966,12.587-1.067,1.651-19.7-5.983-38.28-1.6-5.637,1.328-12.9,4.178-20.134,7.606-3.981,1.887-2.749-17.407,6.812-20.935" transform="translate(8.982 -7481.621)" fill="#d78c63"/>
      <path id="Trazado_110756" data-name="Trazado 110756" d="M379.895,221.584c11.489-4.378,25.168-1.665,34.075,1.6,5.884,2.154,13.816,12.293,13.529,13.039-.723,1.874-17.806-5.043-36.395-.662a98.16,98.16,0,0,0-19.046,7.2c-3.984,1.889.806-18.488,7.837-21.168" transform="translate(7.766 -7479.744)" fill="#86541d"/>
      <path id="Trazado_110757" data-name="Trazado 110757" d="M438.476,234.431a1.437,1.437,0,0,0,.569-.1,1.614,1.614,0,0,0,.848-2.09,23.931,23.931,0,0,0-5.277-7.647,1.464,1.464,0,0,0-2.164.092,1.711,1.711,0,0,0,.161,2.3,20.719,20.719,0,0,1,4.434,6.367,1.611,1.611,0,0,0,1.429,1.073" transform="translate(-16.493 -7481.662)" fill="#a06f35"/>
      <path id="Trazado_110758" data-name="Trazado 110758" d="M425.167,233.176a1.438,1.438,0,0,0,.569-.1,1.614,1.614,0,0,0,.848-2.09,23.917,23.917,0,0,0-5.277-7.646,1.464,1.464,0,0,0-2.164.091,1.711,1.711,0,0,0,.161,2.3,20.716,20.716,0,0,1,4.434,6.368,1.612,1.612,0,0,0,1.429,1.072" transform="translate(-11.24 -7481.167)" fill="#a06f35"/>
      <path id="Trazado_110759" data-name="Trazado 110759" d="M410.337,231.871a1.426,1.426,0,0,0,.569-.1,1.614,1.614,0,0,0,.848-2.09,23.917,23.917,0,0,0-5.277-7.646,1.464,1.464,0,0,0-2.164.091,1.711,1.711,0,0,0,.161,2.3,20.718,20.718,0,0,1,4.434,6.367,1.611,1.611,0,0,0,1.429,1.073" transform="translate(-5.387 -7480.652)" fill="#a06f35"/>
      <path id="Trazado_110760" data-name="Trazado 110760" d="M395.3,233.722a1.439,1.439,0,0,0,.519-.255,1.678,1.678,0,0,0,.29-2.273,22.852,22.852,0,0,0-6.941-5.964,1.456,1.456,0,0,0-2.044.7,1.722,1.722,0,0,0,.726,2.2,19.792,19.792,0,0,1,5.819,4.955,1.534,1.534,0,0,0,1.631.643" transform="translate(1.308 -7482.01)" fill="#a06f35"/>
      <path id="Trazado_110761" data-name="Trazado 110761" d="M257.741,211.688c-8.276-5.881-22.369-4.053-28.348-.427-5.036,3.054-9.681,10.644-8.859,12.588.725,1.714,14.654-3.732,27.334,2.3a66.415,66.415,0,0,1,13.048,9.055c2.466,2.1,3.222-18.973-3.176-23.519" transform="translate(67.033 -7475.239)" fill="#d78c63"/>
      <path id="Trazado_110762" data-name="Trazado 110762" d="M258.767,208.723c-8-5.914-18.26-4.2-24.886-1.466-4.3,1.771-10,11.57-9.8,12.345.5,1.932,12.576-3.506,25.369,2.619a59.776,59.776,0,0,1,12.456,8.7c2.492,2.134,1.648-18.665-3.141-22.2" transform="translate(65.597 -7473.999)" fill="#86541d"/>
      <path id="Trazado_110763" data-name="Trazado 110763" d="M238.841,218.312a.8.8,0,0,1-.4-.151,2.152,2.152,0,0,1-.542-2.229,24.509,24.509,0,0,1,4.035-7.622c.492-.6,1.194-.47,1.567.3a2.5,2.5,0,0,1-.219,2.465,20.976,20.976,0,0,0-3.4,6.267c-.191.64-.61,1-1.039.969" transform="translate(60.179 -7475.255)" fill="#a06f35"/>
      <path id="Trazado_110764" data-name="Trazado 110764" d="M248.279,218.222a.787.787,0,0,1-.4-.152,2.13,2.13,0,0,1-.506-2.234,25.1,25.1,0,0,1,4.187-7.644c.5-.607,1.209-.471,1.57.3a2.517,2.517,0,0,1-.263,2.472,21.492,21.492,0,0,0-3.53,6.285c-.2.642-.631,1.006-1.061.972" transform="translate(56.445 -7475.208)" fill="#a06f35"/>
      <path id="Trazado_110765" data-name="Trazado 110765" d="M258.847,218.219a.78.78,0,0,1-.4-.153,2.108,2.108,0,0,1-.466-2.24,25.775,25.775,0,0,1,4.358-7.665c.518-.609,1.224-.473,1.571.3a2.535,2.535,0,0,1-.311,2.479,22.067,22.067,0,0,0-3.671,6.3c-.217.643-.654,1.008-1.086.974" transform="translate(52.264 -7475.196)" fill="#a06f35"/>
      <path id="Trazado_110766" data-name="Trazado 110766" d="M268.729,221.591a1.006,1.006,0,0,1-.346-.308,2.334,2.334,0,0,1-.015-2.37,18.867,18.867,0,0,1,5.555-5.661c.6-.376,1.232.046,1.409.94a2.288,2.288,0,0,1-.759,2.269,16.141,16.141,0,0,0-4.634,4.621c-.327.538-.809.717-1.21.509" transform="translate(48.242 -7477.301)" fill="#a06f35"/>
      <path id="Trazado_110767" data-name="Trazado 110767" d="M187.265,318.934c-7.864-1.714-13.527.445-14.551,3.882-.813,2.728.184,11.241,11.393,13.876,12.893,3.032,20.709-13.934,3.158-17.758" transform="translate(85.953 -7518.826)" fill="#f9b3a8"/>
      <path id="Trazado_110768" data-name="Trazado 110768" d="M188.646,325.125a.831.831,0,0,1-.959-.373.822.822,0,0,1,.208-1.137,34.072,34.072,0,0,1,4.516-2.315.838.838,0,0,1,1.065.477.8.8,0,0,1-.384,1.078,33.2,33.2,0,0,0-4.295,2.2.725.725,0,0,1-.151.073" transform="translate(80.014 -7519.975)" fill="#c45c57"/>
      <path id="Trazado_110769" data-name="Trazado 110769" d="M195.8,328.138a.833.833,0,0,1-.971-.393.817.817,0,0,1,.242-1.128,35.68,35.68,0,0,1,3.992-1.988.834.834,0,0,1,1.064.477.8.8,0,0,1-.386,1.076,34.894,34.894,0,0,0-3.807,1.895.729.729,0,0,1-.133.061" transform="translate(77.192 -7521.288)" fill="#c45c57"/>
      <path id="Trazado_110770" data-name="Trazado 110770" d="M469.066,361.336c-13.187-1.2-22.533,2.579-24.086,7.441-1.232,3.858.811,15.385,19.616,17.364,21.623,2.275,33.889-22.117,4.471-24.8" transform="translate(-21.469 -7535.708)" fill="#f9b3a8"/>
      <path id="Trazado_110771" data-name="Trazado 110771" d="M465.572,369.508a1.482,1.482,0,0,1-1.616-.372,1.034,1.034,0,0,1,.3-1.59,66.421,66.421,0,0,1,7.421-3.832,1.452,1.452,0,0,1,1.8.5,1.069,1.069,0,0,1-.591,1.533,64.822,64.822,0,0,0-7.057,3.639,1.416,1.416,0,0,1-.249.122" transform="translate(-28.972 -7536.687)" fill="#c45c57"/>
      <path id="Trazado_110772" data-name="Trazado 110772" d="M477.619,372.647a1.474,1.474,0,0,1-1.636-.4,1.038,1.038,0,0,1,.35-1.581,69.723,69.723,0,0,1,6.561-3.307,1.442,1.442,0,0,1,1.795.5,1.069,1.069,0,0,1-.593,1.531,68.3,68.3,0,0,0-6.257,3.152,1.449,1.449,0,0,1-.219.1" transform="translate(-33.727 -7538.125)" fill="#c45c57"/>
      <path id="Trazado_110773" data-name="Trazado 110773" d="M220.891,314.036c-9.494-4.848-7.975-22.317-2.992-37.683,4.671-14.406,12.726-27.61,22.945-26.873,11.485.828,15.568,18.649,13.439,37.5-2.11,18.672-11.548,38.217-33.393,27.061" transform="translate(69.593 -7491.641)" fill="#d78c63"/>
      <path id="Trazado_110774" data-name="Trazado 110774" d="M224.406,312.276c-8.7-4.444-7.294-20.453-2.723-34.525,4.283-13.184,11.657-25.261,21.007-24.586,10.507.758,14.246,17.059,12.3,34.312-1.929,17.106-10.573,35.026-30.586,24.8" transform="translate(67.973 -7493.096)" fill="#fdfdfd"/>
      <path id="Trazado_110775" data-name="Trazado 110775" d="M242.505,289.453a60.248,60.248,0,0,1,9.988,16.485c2.99-5.173,4.73-11.878,5.472-18.462,1.945-17.252-1.795-33.553-12.3-34.312-8.7-.628-15.694,9.793-20.073,21.872a60.755,60.755,0,0,1,16.915,14.417" transform="translate(65 -7493.096)" fill="#c5c5be"/>
      <path id="Trazado_110776" data-name="Trazado 110776" d="M236.636,325.134c-4.728-2.136-3.5-13.055-.558-22.96,2.747-9.261,7.176-18.065,12.351-18.531,5.815-.524,7.463,10.016,5.926,21.779-1.528,11.693-6.829,24.632-17.72,19.712" transform="translate(61.888 -7505.128)" fill="#654833"/>
      <path id="Trazado_110777" data-name="Trazado 110777" d="M244.321,323.843c-2.707-1.223-2-7.474-.32-13.144,1.573-5.3,4.108-10.342,7.071-10.609,3.329-.3,4.273,5.734,3.393,12.468-.875,6.695-3.91,14.1-10.144,11.285" transform="translate(58.322 -7511.622)" fill="#35291e"/>
      <path id="Trazado_110778" data-name="Trazado 110778" d="M247.978,286.1c-4.878-.556-11.373,7.676-5.328,11.822s12.065-11.054,5.328-11.822" transform="translate(59.231 -7506.093)" fill="#fdfdfd"/>
      <path id="Trazado_110779" data-name="Trazado 110779" d="M222.913,277.867c-1.878-1.178,2.757-12.2,6.135-17.519,3.762-5.92,8.992-11.377,15.465-10.91,4.6.331,8.405,3.832,10.708,9.34,1.806,4.32,2.386,11.582,1.667,11.727s-1.533-14.073-12.9-15.211c-12.543-1.255-20.959,22.645-21.078,22.572" transform="translate(66.228 -7491.625)" fill="#6b4017"/>
      <path id="Trazado_110780" data-name="Trazado 110780" d="M400.317,338c15.221-1.449,19.461-18.7,18.085-34.856-1.272-14.939-7.583-29.764-21.877-32.65-16.16-3.263-28.687,11.632-33.082,30C359,319.051,364.71,341.387,400.317,338" transform="translate(11.108 -7499.768)" fill="#d78c63"/>
      <path id="Trazado_110781" data-name="Trazado 110781" d="M399.973,335.834c14.159-1.334,18.114-17.363,16.841-32.394-1.177-13.9-7.046-27.7-20.353-30.381-15.037-3.03-26.684,10.831-30.765,27.906-4.121,17.243,1.188,37.987,34.276,34.869" transform="translate(10.181 -7500.793)" fill="#fdfdfd"/>
      <path id="Trazado_110782" data-name="Trazado 110782" d="M387.088,308.334a78.991,78.991,0,0,0-20.913,12.456c-2.245-6.107-2.053-13.224-.475-19.824,4.081-17.074,15.728-30.936,30.764-27.906,12.387,2.5,18.323,14.617,20.036,27.486a104.977,104.977,0,0,0-29.413,7.788" transform="translate(10.178 -7500.793)" fill="#c5c5be"/>
      <path id="Trazado_110783" data-name="Trazado 110783" d="M421.223,303.609c3.072-.464.569-12.47-2.228-18.614-3.1-6.813-8.4-13.686-17.616-15.535a22.565,22.565,0,0,0-18.6,4.861c-4.231,3.389-7.892,10-6.923,10.393s7.638-12.62,24.071-9.66c18.01,3.245,21.1,28.583,21.3,28.555" transform="translate(5.759 -7499.375)" fill="#6b4017"/>
      <path id="Trazado_110784" data-name="Trazado 110784" d="M393.542,344.8c8.661-.842,11.206-12.118,10.542-22.743-.615-9.843-4.113-19.64-12.251-21.572-9.172-2.178-16.353,7.587-18.932,19.6-2.6,12.1.5,26.672,20.64,24.713" transform="translate(7.173 -7511.662)" fill="#654833"/>
      <path id="Trazado_110785" data-name="Trazado 110785" d="M393.951,341.274c4.906-.477,6.348-6.864,5.972-12.884-.349-5.576-2.33-11.125-6.94-12.22-5.2-1.233-9.264,4.3-10.724,11.1-1.47,6.852.286,15.108,11.692,14" transform="translate(3.346 -7517.904)" fill="#35291e"/>
      <path id="Trazado_110786" data-name="Trazado 110786" d="M388.254,303.587c-8.34.056-19.6,9.087-9.182,12.454,10.373,3.354,20.639-12.53,9.182-12.454" transform="translate(6.083 -7513.006)" fill="#fdfdfd"/>
      <path id="Trazado_110787" data-name="Trazado 110787" d="M301.289,338.18c.213-1.757,2.455-6.523,6.6-4.972s6.874,6.329,4.759,7.286-11.512-1.005-11.354-2.314" transform="translate(35.126 -7524.576)" fill="#d78c63"/>
      <path id="Trazado_110788" data-name="Trazado 110788" d="M274.31,373.771c2.383-1.659,40.643,4.549,41.832,6.589,1.152,1.976-12.411,25.767-25.518,23.716-13.234-2.07-18.62-28.7-16.313-30.3" transform="translate(45.977 -7540.595)" fill="#fd5f54"/>
      <path id="Trazado_110789" data-name="Trazado 110789" d="M274.347,373.771c2.383-1.659,40.643,4.549,41.832,6.589.394.675-1.277,4.557-4.085,8.94-7.577-14.245-29.238-15.278-37.093-5.711-1.217-5.044-1.444-9.268-.654-9.819" transform="translate(45.94 -7540.595)" fill="#902422"/>
      <path id="Trazado_110790" data-name="Trazado 110790" d="M570.792,170.24c11.916,5.26,28.944,34.31,22.962,68.172-5.071,28.7-10.768,41.256-23.765,51.561-13.359,10.593-20.1,35.377-45.524,44.1,0,0,31.543-26.118,27.658-71.33,0,0,27.722-72.3,18.669-92.5" transform="translate(-52.952 -7460.38)" fill="#86541d"/>
      <path id="Trazado_110791" data-name="Trazado 110791" d="M572.541,341.48c6.194-6.741,18.1-11.68,25.326-35.123-4.512,18.995-10.258,28.917-20.874,37.335-11.25,8.92-17.812,27.9-34.783,38.884,14.209-11.979,24.737-35.01,30.331-41.1" transform="translate(-59.955 -7514.1)" fill="#a06f35"/>
      <path id="Trazado_110792" data-name="Trazado 110792" d="M441.562,234a144.808,144.808,0,0,0-11.133-54.5c-.766-1.829,7.228-12.72,7.228-12.72s-16.033-10.543-22.225-17.136c-8.084-8.607-22.837-11.642-29.391-14.816-37.1-15.958-78.565-22.989-78.565-22.989a97.727,97.727,0,0,1-5.117-9c-3.42-6.187-5.21-17.081,4.015-27.518a44.678,44.678,0,0,1,9.735-8.053,24,24,0,0,1,5.352-3.989c11.209-6.386,31.234-5.71,45.718-5.347,11.143.28,22.684-2.187,34.041.252,24.683,5.3,51.057,13.336,66.041,28.076,25.138,25.16,36.543,46.722,38.348,93.775,1.72,44.855-52.531,44.361-64.047,53.974" transform="translate(35.796 -7415.724)" fill="#86541d"/>
      <path id="Trazado_110793" data-name="Trazado 110793" d="M309.392,60.243,295.174,92.189C289.159,99.2,278.7,108.9,269.945,113.975c-7.914,4.583-24.165-6.5-32.092-2l-.291,13.892c-2.618,1.036-8.081.9-12.523,3.216,0,0-.332-1.973-.527-4.128l-3.2,7.639c-12.729,14.832-19.5,52.1-19.5,52.1a103.888,103.888,0,0,1,.149-51.443c5.181-19.162,13.829-29.41,28.729-43.228a113.872,113.872,0,0,1,57.277-29.017,77.6,77.6,0,0,1,14.055-1.3,43.7,43.7,0,0,1,7.371.53" transform="translate(75.633 -7416.76)" fill="#a06f35"/>
      <path id="Trazado_110794" data-name="Trazado 110794" d="M209.112,164.659l-3.2,8.267s1.153,7.156,10.5,11.474c0,0-8.325-8.267-7.3-19.741" transform="translate(72.767 -7458.178)" fill="#86541d"/>
      <path id="Trazado_110795" data-name="Trazado 110795" d="M203.084,186.468a31.083,31.083,0,0,0-1.025,9.377c.384,4.319,4.739,10.611,6.788,11.228,0,0-6.276-9.377-5.763-20.6" transform="translate(74.313 -7466.785)" fill="#86541d"/>
      <path id="Trazado_110796" data-name="Trazado 110796" d="M206.585,228.307l-2.434,11.227s-6.02-16.039-4.355-26.773a23.419,23.419,0,0,0,6.788,15.546" transform="translate(75.295 -7477.162)" fill="#86541d"/>
      <path id="Trazado_110797" data-name="Trazado 110797" d="M242.138,152.622s-3.231-6.661-7-9.221c-6.2-3.84-8.638-7.68-6.866-12.16,1.329-2.347,9.966-4.481,9.966-4.481l9.957,24.957Z" transform="translate(64.163 -7443.221)" fill="#86541d"/>
      <path id="Trazado_110798" data-name="Trazado 110798" d="M223.146,136.629s-4.683,6.627-5.536,8.107,4.452,11.206,10.087,15.154c0,0-8.095-11.1-4.551-23.26" transform="translate(68.185 -7447.116)" fill="#86541d"/>
      <path id="Trazado_110799" data-name="Trazado 110799" d="M536.385,314.787c2.919-9.666,8.622-29.148,25.207-23.219,6.041,2.159,14.89,11.594,10.424,25.895-1.567,10.075-9.428,22.361-18.747,28.345-6.763,4.343-18.55,6.609-18.225,3.162,1.883-19.995-1.578-24.517,1.341-34.183" transform="translate(-57.125 -7507.828)" fill="#d78c63"/>
      <path id="Trazado_110800" data-name="Trazado 110800" d="M532.051,326.486c2.191-7.256,6.472-21.88,18.921-17.429,4.535,1.621,11.178,8.7,7.825,19.438-1.176,7.563-7.167,19.506-14.161,24-5.076,3.26-14.459,6.8-14.215,4.208,1.413-15.009-.561-22.959,1.63-30.215" transform="translate(-55.301 -7514.839)" fill="#fdcfad"/>
      <path id="Trazado_110801" data-name="Trazado 110801" d="M388.948,76.595s73.4-22.661,108.4,25.1c33.439,60.873-24.687,117.8-24.687,117.8s1.675-26.207-5.515-43.01c-2.985,1.874-13.005,3.06-13.005,3.06s-1.77-10.125-8.344-17.827c-17.757-20.775-40.414-21.853-64.587-28.72,0,0,3.966-13.976,4.6-22.844Z" transform="translate(3.585 -7421.303)" fill="#a06f35"/>
      <path id="Trazado_110802" data-name="Trazado 110802" d="M486.551,80.172c2.657,3.627,10.587,10.834,12.387,14.635-4.056,4.006-8.994,21.24-29.655,33.848-3.644,3.3-22.963,19.608-34.264,16.459-16.562-6.437-37.4-11.141-53.078-15.6,0,0,3.523-15.682,4.156-24.55L389.238,71.4s52.826-35.2,97.313,8.77" transform="translate(3.296 -7416.111)" fill="#86541d"/>
      <path id="Trazado_110803" data-name="Trazado 110803" d="M541.431,160.607c7.351,3.136,32.383,51.6,18.61,86.71-4.914-17.981-23.315-16.53-26.709-5.846-3.67,11.554-6.486,24.4-15.508,35.954,0,0,4.639-34.384-14.456-57.418,28.965-21.164,38.062-59.4,38.062-59.4" transform="translate(-44.627 -7456.579)" fill="#a06f35"/>
      <path id="Trazado_110804" data-name="Trazado 110804" d="M588.333,256.891c11.368-8.953,19.184-13.723,22.758-24.645.941-2.874-8.326-28.95-8.388-27.77-1.031,19.434-11.252,35.943-22.182,46.431,0,0,6.029,2.361,7.813,5.983" transform="translate(-75.075 -7473.877)" fill="#86541d"/>
      <path id="Trazado_110805" data-name="Trazado 110805" d="M517.432,213.132c-1.537.262,11.106-5.493,16.4-12.215,13.649-14.977,12.348-23.762,13.847-24.949,1.218-.965.941,9.028-7.354,24.3-5.906,9.248-16.611,11.793-22.895,12.863" transform="translate(-50.126 -7462.616)" fill="#aa7e41"/>
      <path id="Trazado_110806" data-name="Trazado 110806" d="M542.02,282.98c4.981-4.534,10.364-13.528,8.009-13.209-3.054,4.836-5.411,4.7-11.781,11.374-4.614,4.836-13.22,8.569-12.043,9.227.611.341,9.584-1.721,15.815-7.391" transform="translate(-53.596 -7499.657)" fill="#aa7e41"/>
      <path id="Trazado_110807" data-name="Trazado 110807" d="M555.021,127.727c-.025-1.228-10.48-14.916-10.448-13.692-.914,17.575-14.67,50.178-41.068,62.78,19.235-4.668,51.764-37.149,51.516-49.087" transform="translate(-44.68 -7438.168)" fill="#86541d"/>
      <path id="Trazado_110808" data-name="Trazado 110808" d="M513.89,214.167c22.617-2.632,43.1-26.01,49.005-44.5.926-2.9-1.561-25.916-1.621-24.728-1.662,33-33.995,67.658-47.385,69.228" transform="translate(-48.779 -7450.378)" fill="#86541d"/>
      <path id="Trazado_110809" data-name="Trazado 110809" d="M574,208.508c.156-1.144-9.936-19.909-10.112-18.763-4.25,49.041-45,58.573-43.5,58.412,15.936-1.716,46.187-18.965,53.614-39.649" transform="translate(-51.325 -7468.059)" fill="#86541d"/>
      <path id="Trazado_110810" data-name="Trazado 110810" d="M328.782,118.112c-2.317,2.229-4.869,4.478-7.632,6.715-22.4-7.008-46.727-8.027-66.409-5.6,0,0-3.925-3.284-3.982-6.295-1.137,2.476.305,8.431-1.027,8.623s-4.737-7.841-10.495-14.241c-5.094-5.12-7.712-6.843-9.6-9.714-3.019-4.58,7.827-14.243,12.04-18.234,24.639-23.341,65.046-37.2,88.81-29.442,8.587,2.8,13.641,8.649,16.909,17.583,14.418,19.327-2.749,40.9-18.611,50.6" transform="translate(63.611 -7412.044)" fill="#aa7e41"/>
      <path id="Trazado_110811" data-name="Trazado 110811" d="M266.666,138.5c.424.087,5.587-5.926,4.812-12.9-.689-6.193-6.118-22.952-30.585-22.633-1.548,2.664-11.958,9.7-10.186,15.89,6.2-8.747,33.664-8.534,38.734,7.025,2.263,6.943-3.165,12.534-2.774,12.614" transform="translate(63.061 -7433.832)" fill="#915f1a"/>
      <path id="Trazado_110812" data-name="Trazado 110812" d="M309.021,155.282c4.687-4.757.947-14.9,1.051-13.732.717,7.96-4.423,13.267-3.693,13.908a2.276,2.276,0,0,0,2.642-.176" transform="translate(33.144 -7449.021)" fill="#915f1a"/>
      <path id="Trazado_110813" data-name="Trazado 110813" d="M325.555,151.705c-4.5-9.524-1.236-18.689-1.756-17.576-3.371,7.2-2.059,18.05-2.059,18.05.017.968,4.564,1.113,3.815-.473" transform="translate(27.153 -7446.093)" fill="#915f1a"/>
      <path id="Trazado_110814" data-name="Trazado 110814" d="M292.164,116.568a25.592,25.592,0,0,0-9.991-26.322c-6.783-4.858-15.821-4-19.895-1.44-.867.546,6.219-1.882,16.532,3.533,13.152,6.906,13.29,24.518,13.354,24.228" transform="translate(50.549 -7427.426)" fill="#915f1a"/>
      <path id="Trazado_110815" data-name="Trazado 110815" d="M258.4,149.133a11.522,11.522,0,0,0-4.651-16.854c-6.644-3.84-14.829-2.37-17.022.153-.634.729,7.824-.07,13.7,3.474,7.695,4.64,7.972,13.4,7.973,13.227" transform="translate(60.62 -7444.472)" fill="#915f1a"/>
      <path id="Trazado_110816" data-name="Trazado 110816" d="M333.946,66.865c-1.475-7.107-9.377-5.254-8.535-4.724,1.12.705,4.546-.336,5.773,4.879,1.448,6.149-2.234,8.6-1.2,8.343,3.7-.92,4.283-6.951,3.961-8.5" transform="translate(25.63 -7417.477)" fill="#c7985e"/>
      <path id="Trazado_110817" data-name="Trazado 110817" d="M295.032,86.948c-.489-4.178-3.394-9.074-6.977-10.459-5.068-1.958-9.283,1.034-8.429,1.292a53.877,53.877,0,0,1,6.77,2.052c4.349,1.689,8.448,8.647,8.636,7.115" transform="translate(43.718 -7423.121)" fill="#c7985e"/>
      <path id="Trazado_110818" data-name="Trazado 110818" d="M270.192,98.128c-4.48-1.329-10.456-.568-11.959,1.28-.689.846,3.714.081,10.529,1.834,4.914,1.265,8.684,5.826,8.546,4.831-.461-3.313-4.749-7.244-7.115-7.945" transform="translate(52.145 -7431.657)" fill="#c7985e"/>
      <path id="Trazado_110819" data-name="Trazado 110819" d="M537.345,90.621c5.02-2.845,5.951,15.787-.127,24.667-8.875,12.967-14.933,17.149-30.289,21.415-.578.416,12.7-5.12,21.262-18.205,5.044-7.708,8.859-18.206,9.154-27.877" transform="translate(-46.024 -7428.843)" fill="#aa7e41"/>
      <path id="Trazado_110820" data-name="Trazado 110820" d="M364.188,48.345c6.811-.354,15.068,1.049,23.665.666,10.107-.449,28.287-6.55,50.729-3.421,15.356.853,23.317,17.22,21.557,31.575-3.19,26.009-33.073,58.315-71.767,54.111-11.024-1.2-23.348-4.934-38.157-9.593-42.331-7.444-14.616-65.909,13.973-73.339" transform="translate(24.39 -7410.836)" fill="#aa7e41"/>
      <path id="Trazado_110821" data-name="Trazado 110821" d="M489.949,54.385c-12.536-7.615-31.694-4.921-41.217-4.44,11.481-2.138,26.442-5.092,37.186-2.155,12.529.393,21.773,13.359,20.729,26.867a30.306,30.306,0,0,1-11.075,20.589c.272-.288,19.731-25.46-5.624-40.861" transform="translate(-23.064 -7411.568)" fill="#c7985e"/>
      <path id="Trazado_110822" data-name="Trazado 110822" d="M379.272,165.244a2.229,2.229,0,0,0,2.376-1.439c2.149-4.97,11.1-8.638,22.088-8.867,4.153-.086,8.657.139,13.078.361,13.9.694,32.117-1.306,40.876-10.665,1.1-1.177-12.189,9.621-40.473,7.288-4.474-.369-31.84-6.313-39.177,10.321a2.155,2.155,0,0,0,.892,2.893,1.683,1.683,0,0,0,.34.108" transform="translate(4.922 -7450.239)" fill="#915f1a"/>
      <path id="Trazado_110823" data-name="Trazado 110823" d="M365.32,126.587a1.717,1.717,0,0,0,.772-.025,2.523,2.523,0,0,0,1.722-2.685c-.631-5.961,7.047-13.338,18.3-17.281,4.727-1.656,9.913-3.015,15.516-4.484,17.357-4.548,36.532-9.573,45.171-24.982,4.677-8.343,3.328-13.674,1.37-16.649-8.7-13.21-40.6-5.742-46.142-.967-1.128.972,34.126-11.724,41.442,4.894,1.341,3.046,1.4,6.307-1.148,10.919-7.067,12.788-24.846,17.608-41.012,21.993-5.457,1.479-10.983,2.978-15.884,4.742-13.844,4.983-22.423,14.3-21.5,22.837a1.834,1.834,0,0,0,1.4,1.689" transform="translate(10.434 -7414.13)" fill="#915f1a"/>
      <path id="Trazado_110824" data-name="Trazado 110824" d="M351.484,133.608a1.937,1.937,0,0,0,1.893-.826,2.417,2.417,0,0,0-.056-3.1c-.676-.659-1.093-2.329-.5-4.587.51-1.939,1.88-8.3,14.715-14.887,10.031-5.15,32.307-8.894,37.559-14.912a14.533,14.533,0,0,0,3.144-14.736c-2.262-7.089-15.479-4.753-15.7-3.327s9.655-2.094,11.194,6.143a13.832,13.832,0,0,1-2.245,9.493c-3.241,4.868-12.822,8.031-25.525,12.224-2.874.949-5.811,1.919-8.968,3-13.537,4.637-16.962,12.887-17.814,16.181-.948,3.669-.372,7.071,1.5,8.91a1.573,1.573,0,0,0,.8.428" transform="translate(16.401 -7423.065)" fill="#915f1a"/>
      <path id="Trazado_110825" data-name="Trazado 110825" d="M328.333,108.234a1.481,1.481,0,0,0,.188.02c.993.039.95-6.969,7.044-12.752,5.357-5.083,16.109-3.409,25.267-10.679a16.132,16.132,0,0,0,5.8-13.351c-.7-9.868-12.992-11.2-13.412-9.847s9.324,1.82,9.157,11.183a11.137,11.137,0,0,1-3.61,8.317c-2.734,2.406-6.959,3.807-11.355,5.266-4.341,1.44-8.749,2.9-12.427,5.536-4.45,3.187-7.555,10.892-6.652,16.306" transform="translate(24.514 -7417.34)" fill="#915f1a"/>
      <path id="Trazado_110826" data-name="Trazado 110826" d="M503.564,80.476c.3-12.516-8.957-17.8-9.509-16.338s8.032,6.1,3.6,18.614c-7.033,19.444-21.447,18.088-26.182,19.214-1.055.251,28.8,2.583,32.088-21.489" transform="translate(-32.029 -7418.414)" fill="#c7985e"/>
      <path id="Trazado_110827" data-name="Trazado 110827" d="M414.938,176.008c21.975,2.225,37.51-1.927,38.171-1.007.742,1.036-8.885,4.781-15.2,5.092-13.407.658-24.139-4.2-22.969-4.085m34.752-1.222,0,0,0,0" transform="translate(-9.692 -7462.173)" fill="#c7985e"/>
      <path id="Trazado_110828" data-name="Trazado 110828" d="M403.618,73.094c3.78-2.027,5.3-10.616,3.868-13.353-2.369-4.515-9.117-5.054-8.377-4.152,1.334,1.627,4.432,1.559,5.621,7.245,1.354,6.485-2.227,9.972-1.111,10.261" transform="translate(-3.457 -7414.988)" fill="#c7985e"/>
      <path id="Trazado_110829" data-name="Trazado 110829" d="M387,63.827c1.394-9.742-8.889-14.207-13.356-11.453A26.377,26.377,0,0,1,387,63.827" transform="translate(6.569 -7413.548)" fill="#c7985e"/>
      <path id="Trazado_110830" data-name="Trazado 110830" d="M343.935,74.1c2.114-4.647,3.483-9.759,1.4-13.626-4.162-7.748-12.463-5.307-12.569-3.98s6.494-1.6,9.143,5.543c1.013,2.732-.106,6.8-1.094,9.882-2.707,8.424-16.8,12.881-16.565,25.732,2.211-11.079,15.656-14.7,19.682-23.551" transform="translate(26.064 -7414.921)" fill="#c7985e"/>
      <path id="Trazado_110831" data-name="Trazado 110831" d="M339.737,146.292c-1.533-3.038-1.657-7.3.785-12.223,7.672-15.472,14.768-13.856,14.735-15.129s-11.5-.841-18.068,13.63c-1.406,3.094-3.748,9.159-.886,14.028.782,1.331,4.54,1.885,3.435-.305" transform="translate(21.842 -7439.952)" fill="#c7985e"/>
      <path id="Trazado_110832" data-name="Trazado 110832" d="M186.248,1017.583c-17.116,5.386-36.931-6.944-41.987-5.343-3.22,1.019-4.684,4.208-1.464,12.417a35.334,35.334,0,0,0,17.091,18.613c9.994,4.833,15.375,6.12,23.638,8.4,7.622,2.1,13.98,3.394,18.1,4.369a13.31,13.31,0,0,0,7.2-.136c3.832-1.639,9.059-4.093,9.485-6.573.813-4.737,2.737-17.855,7.436-27.684-9.06-14.569-19.267-16.646-25.1-19.8a49.506,49.506,0,0,1-14.4,15.733" transform="translate(98.387 -7788.579)" fill="#d78c63"/>
      <path id="Trazado_110833" data-name="Trazado 110833" d="M211.246,1068.105l-7.733.792-15.966,4.619c-11.929-2.748-40.711-15.715-52.792-27.827-4.5-4.507-.6-12.89,1.278-14.417,3.439.068,12.16,4.167,17.505,4.757,6.458.713,41.775,19.312,41.775,19.312l6.519-2.111s12.34.969,13.7,1.154c1.114.046-.67,5.656-.7,8.427Z" transform="translate(101.671 -7800.19)" fill="#59482f"/>
      <path id="Trazado_110834" data-name="Trazado 110834" d="M226.3,1077.44c.034-2.77,1.818-8.381.7-8.426-.7-.1-4.325-.4-7.67-.671a22.442,22.442,0,0,1-8.932,8.151c-6.9,3.333-23.722.361-23.722.361a48.508,48.508,0,0,1-24.949-5.086c13.172,7.871,29.15,14.5,37.288,16.378,11.147,2.568,9.532-1.757,14.911-2.387,3.654-.268,6.365.338,8.359.234,2.846-.858,4.012-8.553,4.012-8.553" transform="translate(90.204 -7814.82)" fill="#3a2d1c"/>
      <path id="Trazado_110835" data-name="Trazado 110835" d="M216.322,1055.6c-2.052,1.083-5.267-.153-10.208.209-5.38.631-3.765,4.955-14.911,2.387-11.93-2.748-39-15.724-51.085-27.836a8.422,8.422,0,0,1-2.6-7.412c.49-2.37,1.088-11.758,7.8-13.862,13.882-4.354,25.641,11.615,29.99,11.039a15.321,15.321,0,0,1,4.31-1.509,22.293,22.293,0,0,1,14,1.955c7.981,3.865,9.707,10.2,9.989,13.331a5.551,5.551,0,0,1-4.631,6.119c2.965.6,4.238-2.853,6.519-2.111,10.08,3.279,12.34.969,13.7,1.154,1.114.046-.67,5.656-.7,8.426-.053,4.345-.237,7.095-2.162,8.11" transform="translate(99.81 -7791.137)" fill="#776445"/>
      <path id="Trazado_110836" data-name="Trazado 110836" d="M147.493,1015.447s2.835-3.233,5.34-1.173,4.023,12.3,20.43,23.889c0,0-23.1-7.652-25.77-22.716" transform="translate(95.822 -7793.211)" fill="#99866b"/>
      <path id="Trazado_110837" data-name="Trazado 110837" d="M182.3,1028.417c11.98,10.4,26.323,20.28,39.163,25.4,2.756.172,6.441,3.466,7.873,2.711,1.925-1.016,2.11-3.765,2.162-8.11.034-2.77,1.818-8.381.7-8.426-1.359-.185-3.619,2.124-13.7-1.155-2.281-.741-3.554,2.715-6.519,2.111a5.551,5.551,0,0,0,4.631-6.12c-.282-3.13-2.009-9.466-9.989-13.331a22.3,22.3,0,0,0-14-1.955,15.307,15.307,0,0,0-4.309,1.509c-3.014.4-9.586-7.141-17.956-10.364.525,2.611,3.461,10.367,11.942,17.727" transform="translate(86.798 -7792.068)" fill="#59482f"/>
      <path id="Trazado_110838" data-name="Trazado 110838" d="M244.4,1067.609c.959-11.6,3.862-7.5-6.041-7.943-2.369,5.166-5.249,10.52-9.419,12.828-5.765,3.191-11.66,5.615-25.895.857,5.562,1.859,10.482,4.137,14.072,4.964,11.147,2.568,9.532-1.757,14.911-2.387,11.654.3,12.3,1.149,12.371-8.319" transform="translate(73.899 -7811.257)" fill="#59482f"/>
      <path id="Trazado_110839" data-name="Trazado 110839" d="M249.467,868.217s-7.623,15.617-11.991,20.472-40.613,43.328-40.85,49.238,28.337,24.943,37.324,30.532,21.338,5.52,21.338,5.52S273,946.371,276.446,939.427s17.09-18.9,20.134-23.061-2.026-28.516-2.026-28.516Z" transform="translate(76.432 -7735.84)" fill="#2b517c"/>
      <path id="Trazado_110840" data-name="Trazado 110840" d="M213.667,969.711s19.932,1.8,27.409,7.962a40.718,40.718,0,0,1,10.8,14.287S220,978.19,213.667,969.711" transform="translate(69.706 -7775.896)" fill="#336097"/>
      <path id="Trazado_110841" data-name="Trazado 110841" d="M336.024,855.594c-3.284,3.1-6.726,8.323-12.639,12.682-3.548,2.616-7.6,4.642-11.488,4.433-5.075-.274-19-3.987-27.119-10.6-7.222-5.882-9.011-18.4-14.764-30.561,5.026-7.265,6.055-14.341,9.411-19.935,4.375-7.291,12.787-9.321,22.447-16.452,17.253-12.736,37.281-29.457,43.823-32.871,12.232-21.619,58.884-29.584,62.3-23.326,4.836,16.783,3.153,42.42-1.137,51.772-11.094,24.179-62.641,57.124-70.831,64.857" transform="translate(47.468 -7684.013)" fill="#70089b"/>
      <path id="Trazado_110842" data-name="Trazado 110842" d="M374.319,921.012s-.854-9.1,3.7-11.947,18.774-5.69,18.774-5.69-18.774,11.948-22.472,17.637" transform="translate(6.329 -7749.715)" fill="#2b517c"/>
      <path id="Trazado_110843" data-name="Trazado 110843" d="M452.109,775.378c-1.864,3.355-6.811,5.974-12.232,5.974-12.232,0-37.508-20.162-36.421-22.6,1.917-4.305,4.434-9.372,3.708-14.092,15.388-9.835,51.522-6.727,53.194-5.974,2.925,1.318,3.7,34.988-1.138,50.634-2.207,7.141-16.485,18.2-20.766,22.188,13.939-16.214,14.792-31.575,13.654-36.126" transform="translate(-5.182 -7684.3)" fill="#630f85"/>
      <path id="Trazado_110844" data-name="Trazado 110844" d="M274.055,879.821c1.01,5.378,2.1,11.447,4.4,13.727,6.126,6.086,20.951,18.359,22.26,19.613,2.759,2.642-14.514,2-17.273-.644-1.989-1.9-11.24-13.953-15.319-22.614,1.967-3.272,5.934-10.083,5.934-10.083" transform="translate(48.215 -7740.42)" fill="#2b517c"/>
      <path id="Trazado_110845" data-name="Trazado 110845" d="M316.807,882.393c-1.877.474-17.637-3.414-19.711-16.8-1.771-3.025,22.489-14.433,26.538-8.8s-4.951,25.127-6.827,25.6" transform="translate(36.816 -7730.724)" fill="#630f85"/>
      <path id="Trazado_110846" data-name="Trazado 110846" d="M186.69,968.068c1.863,2.423,29.756,31.778,58.318,42.511a30.629,30.629,0,0,1,2.815,7.7c.767,3.971-11.2,4.04-11.2,4.04s3.788,9.751,1.255,14.159c-3.921,6.827-21.83-4.33-28.18-7.617-6.273-3.247-42.463-34.643-43.405-39.716-1.008-5.424,11.591-7.122,11.591-7.122s-3.473-7.94.369-12.393a6.535,6.535,0,0,1,8.44-1.561" transform="translate(88.425 -7774.884)" fill="#6a96c9"/>
      <path id="Trazado_110847" data-name="Trazado 110847" d="M198.1,968.812s15.25,13.845,19.44,17.76c4.238,3.96,22.616,16.44,27.442,18.918,4.872,2.5,12.024,5.745,12.024,5.745l1.845,6.132s-29.888-10.962-31.427-11.574-13.152-17-13.152-17-16.054-10.963-17.285-13.206,1.113-6.777,1.113-6.777" transform="translate(76.429 -7775.541)" fill="#4c79a4"/>
      <path id="Trazado_110848" data-name="Trazado 110848" d="M251.307,1039.4a27.755,27.755,0,0,0-4.323.515c-.822.323,1.357,5.594,1.39,6.384s1.678,5.507-.135,7.775-6.2,4.481-20.444-3.814l-9.136-4.528s-18.248-14.054-26.165-21.982c0,0,34.609,22.326,41.369,21.87,0,0-12.537-11.24-16.66-14.434-4.083-3.163-19-16.177-20.955-19.143-1.944-2.945,25.112,16.015,30.354,18.729,5.3,2.742,24.7,8.627,24.7,8.627" transform="translate(78.062 -7792.479)" fill="#4c79a4"/>
      <path id="Trazado_110849" data-name="Trazado 110849" d="M182.974,991.767s-4.395,1.438-5.1,2.146,18.289,9.369,18.289,9.369Z" transform="translate(83.838 -7784.6)" fill="#4c79a4"/>
      <path id="Trazado_110850" data-name="Trazado 110850" d="M459.1,700.178c-1.53-.158-52.589-.607-53.442.092s-.455,28.182,6.221,38.131c5.076,7.566,23.734,17.137,32.85,17.137,9.014,0,18.158-9.227,21.248-14.809,1.731-3.128,2.389-34.862,1.855-35.832s-5-4.333-8.732-4.718" transform="translate(-5.937 -7669.409)" fill="#2b517c"/>
      <path id="Trazado_110851" data-name="Trazado 110851" d="M420.622,714.907c6.856,4.064,13.465,8.421,20.154,12.588a221.8,221.8,0,0,0,25.558,14.147,4.482,4.482,0,0,1-.352,1.073c-3.09,5.582-12.234,14.809-21.248,14.809-9.116,0-27.773-9.57-32.85-17.137-5.492-8.185-6.731-28.172-6.526-35.464a131.8,131.8,0,0,0,15.263,9.985" transform="translate(-5.938 -7671.395)" fill="#183956"/>
      <path id="Trazado_110852" data-name="Trazado 110852" d="M458.963,738.4l4.136,1.19,13.333-43.009-4.136-1.19Z" transform="translate(-27.102 -7667.632)" fill="#c5c5bd"/>
      <path id="Trazado_110853" data-name="Trazado 110853" d="M463.421,757.3l1.437.493,5.045-16.275Z" transform="translate(-28.861 -7685.836)" fill="#919187"/>
      <path id="Trazado_110854" data-name="Trazado 110854" d="M458.963,738.4l3.116-7.366,9.37-28.347,2.881.668,2.1-6.775-4.136-1.19Z" transform="translate(-27.102 -7667.632)" fill="#919187"/>
      <path id="Trazado_110855" data-name="Trazado 110855" d="M457.569,755.166c.459-.269,4.129-1.7,4.129-1.7l1.688.485s2.255,3.136,2.486,3.6-4.943,8.926-4.943,8.926l-4.306-1.239s.488-9.805.947-10.075" transform="translate(-26.178 -7690.553)" fill="#c5c5bd"/>
      <path id="Trazado_110856" data-name="Trazado 110856" d="M460.535,762.808c.217-.152,5.039-1.291,5.134-1.05s-4.1,7.182-4.1,7.182l-2.121-.61s.87-5.371,1.087-5.523" transform="translate(-27.293 -7693.813)" fill="#e0e0dc"/>
      <path id="Trazado_110857" data-name="Trazado 110857" d="M474.212,675.134l8.266,2.378c2.691.774,2.958-2.337,2.958-2.337l10.394-33.527s.772-5.193-4.012-6.569c-5.724-1.647-7.815,2.845-7.815,2.845L473.57,671.58s-1.664,2.891.643,3.554" transform="translate(-32.637 -7643.688)" fill="#c3302a"/>
      <path id="Trazado_110858" data-name="Trazado 110858" d="M488.406,667.439l2.384.686c.776.223,1.249-1.953,1.249-1.953l7.536-24.31s.367-2.067-1.013-2.464a2.03,2.03,0,0,0-2.357,1.262l-7.566,24.4s-.9,2.184-.233,2.375" transform="translate(-38.624 -7645.503)" fill="#e25757"/>
      <path id="Trazado_110859" data-name="Trazado 110859" d="M474.349,672.412l10.35-33.387a6.036,6.036,0,0,1,1.29-1.7c-2.319,7.152-8.7,31.061-8.541,35.228.105,2.664,5.325,3.582,7.3,5.043a1.854,1.854,0,0,1-2.105.542l-7.743-2.228c-2.161-.622-.55-3.5-.55-3.5" transform="translate(-32.946 -7644.718)" fill="#8a1515"/>
      <path id="Trazado_110860" data-name="Trazado 110860" d="M440.577,733.541l4.246.745,8.354-44.158-4.247-.746Z" transform="translate(-19.845 -7665.262)" fill="#c5c5bd"/>
      <path id="Trazado_110861" data-name="Trazado 110861" d="M445.139,752.328l1.484.339,3.161-16.711Z" transform="translate(-21.646 -7683.643)" fill="#919187"/>
      <path id="Trazado_110862" data-name="Trazado 110862" d="M440.577,733.541l2.258-7.65,6.086-29.166,2.94.36,1.316-6.956-4.247-.746Z" transform="translate(-19.845 -7665.262)" fill="#919187"/>
      <path id="Trazado_110863" data-name="Trazado 110863" d="M438.551,750.926c.425-.316,3.911-2.126,3.911-2.126l1.733.3s2.6,2.878,2.881,3.318-3.9,9.394-3.9,9.394l-4.421-.777s-.631-9.8-.206-10.114" transform="translate(-18.988 -7688.712)" fill="#c5c5bd"/>
      <path id="Trazado_110864" data-name="Trazado 110864" d="M442.217,758.137c.2-.174,4.862-1.816,4.983-1.586s-3.257,7.573-3.257,7.573l-2.179-.383s.254-5.431.453-5.6" transform="translate(-20.314 -7691.762)" fill="#e0e0dc"/>
      <path id="Trazado_110865" data-name="Trazado 110865" d="M448.207,668.81l8.487,1.49c2.763.485,2.674-2.636,2.674-2.636l6.512-34.423s.176-5.242-4.736-6.1c-5.877-1.031-7.443,3.654-7.443,3.654l-6.537,34.556s-1.325,3.048,1.044,3.464" transform="translate(-22.299 -7640.638)" fill="#555863"/>
      <path id="Trazado_110866" data-name="Trazado 110866" d="M460.609,660.134l2.447.43c.8.14,1.019-2.073,1.019-2.073l4.722-24.96s.129-2.093-1.287-2.341a2.011,2.011,0,0,0-2.2,1.5l-4.74,25.056s-.644,2.266.039,2.386" transform="translate(-27.627 -7642.283)" fill="#6d727f"/>
      <path id="Trazado_110867" data-name="Trazado 110867" d="M447.9,666.406l6.484-34.279a5.976,5.976,0,0,1,1.089-1.825c-1.49,7.354-5.114,31.794-4.476,35.918.407,2.638,5.7,3,7.828,4.24a1.842,1.842,0,0,1-2.031.762l-7.95-1.4c-2.219-.389-.945-3.421-.945-3.421" transform="translate(-22.593 -7641.946)" fill="#2f323c"/>
      <path id="Trazado_110868" data-name="Trazado 110868" d="M427.8,744.06c-3.4-5.174-1.668-34.321-.016-35.028s45.533-1.538,48.155-1.038c2.24,1.025,3.539,25.763-1.86,35.873-3.042,5.961-16.017,11.688-19.711,12.025s-23.23-6.747-26.568-11.831" transform="translate(-14.03 -7672.547)" fill="#4472ab"/>
      <path id="Trazado_110869" data-name="Trazado 110869" d="M473.554,711.494c-12.984-.395-44.832-2.326-44.513-2.463,1.651-.707,45.533-1.538,48.155-1.039,2.24,1.026,3.539,25.764-1.86,35.873,3.876-15.741-.6-32.336-1.782-32.371" transform="translate(-15.292 -7672.547)" fill="#5e85b7"/>
      <path id="Trazado_110870" data-name="Trazado 110870" d="M120.711,184.747c.854,8.154,52.37,20.551,78.511,23.536,112.006,12.787,207.764.2,229.418-9.451,2.979-1.328,4.265-2.468,4.541-3.423.355-1.228.863-4.947-.665-5.565,0,0-5.25,1.838-5.653,1.853-3.877.148-19.734-.278-19.734-.278l-30.189-13.343s-194.063-6.1-202.465-5.931c-17.06.345-49.745.72-53.835,8.278-.308.57.042,3.7.071,4.324" transform="translate(106.469 -7461.131)" fill="#12263f"/>
      <path id="Trazado_110871" data-name="Trazado 110871" d="M120.838,162.663c.854,8.154,52.37,20.551,78.511,23.536,112.006,12.787,207.764.2,229.418-9.451,10.814-4.819-.689-7.176-1.778-7.135-12.161.464-49.923-13.621-49.923-13.621L200.2,126.516c-8.689,13.144-17.2,23.375-25.6,23.545-18.348.371-54.19,3.707-53.763,12.6" transform="translate(106.343 -7443.125)" fill="#0155a0"/>
      <path id="Trazado_110872" data-name="Trazado 110872" d="M261.052,218.242c18.092,1.217,87.9,1.853,129.385-.235-43.2,4.984-107.184,6.977-177.6-1.062a351.462,351.462,0,0,1-57.828-12.523s39.907,9.373,106.044,13.821" transform="translate(92.856 -7473.87)" fill="#8dd5fb"/>
      <path id="Trazado_110873" data-name="Trazado 110873" d="M388.14,200.907l-.486-9.29,94.714-16.408s37.763,14.084,49.923,13.621c.76-.029,6.255,1.468,4.526,3.147-2.493,2.419-20.226,7.788-61.915,9.919-19.343.989-53.763,2.223-86.761-.989" transform="translate(1.041 -7462.341)" fill="#a3cce1"/>
      <path id="Trazado_110874" data-name="Trazado 110874" d="M215.751,167.859c19.013,7.5,66.749,15.2,120.967,15.2,57.062,0,115.543-6.123,125.767-9.822.434-.157.854-9.76.32-10.409s-2.791-.607-2.791-.607c-6.736.317-13.347,1.428-20.322,1.749-72.008,3.306-134.857.128-136.04-13.827l-87.793-21.1a77.324,77.324,0,0,0-8,19.61s-3.84-.926-4.48-.185c-1.067,1.482-1.437,9.488-.214,11.614,1.493,2.594,7.342,6.1,12.588,7.784" transform="translate(74.153 -7444.12)" fill="#0155a0"/>
      <path id="Trazado_110875" data-name="Trazado 110875" d="M354.934,190.025c54.048,3.212,102.426-1.361,130.276-4.248,19.743-2.047,32.942-4.737,32.293-7.952-.533-.649-2.791-.607-2.791-.607-6.736.316-13.347,1.428-20.321,1.749-72.009,3.306-141.448-4.757-153.4-11.922Z" transform="translate(19.455 -7459.12)" fill="#8dd5fb"/>
      <path id="Trazado_110876" data-name="Trazado 110876" d="M215.751,180.523c19.013,7.5,66.749,15.2,120.967,15.2,0,0-25.1-1.36-36.766-7.537,0,0-101.837-7.166-96.574-27.057-1.067,1.482-1.437,9.488-.214,11.614,1.493,2.594,7.342,6.1,12.588,7.784" transform="translate(74.153 -7456.784)" fill="#12263f"/>
      <path id="Trazado_110877" data-name="Trazado 110877" d="M211.769,100.292c.245,3.044,3.437,5.648,9.052,7.868,19.013,7.5,65.807,10.477,120.025,10.477,60.317,0,117.123,0,121.954-4.358a30.592,30.592,0,0,0,1.98-7.275c3.857-49.664-37.554-85.722-90.663-96.179a182.525,182.525,0,0,0-35.194-3.38c-27,0-52.056,5.836-72.669,16.046-33.014,16.358-54.616,43.943-54.485,76.8" transform="translate(70.455 -7396.132)" fill="#0155a0"/>
      <path id="Trazado_110878" data-name="Trazado 110878" d="M512.75,21.595c38.668,13.56,66.063,41.052,70.023,73.552-11.326-41.855-53.571-63.8-70.023-73.552" transform="translate(-48.329 -7401.717)" fill="#8dd5fb"/>
      <path id="Trazado_110879" data-name="Trazado 110879" d="M402.9,43.382C399.416,35.093,406.644,7.43,414,7.43c12.209,0,27.868-.346,39.042,1.854,1.28.463,3.026,3.028,3.026,3.028S416.132,31.893,402.9,43.382" transform="translate(-4.621 -7396.119)" fill="#12263f"/>
      <path id="Trazado_110880" data-name="Trazado 110880" d="M266.254,25.779a152.083,152.083,0,0,1,37.154-12.534q-4.026,6.257-8.191,12.446c-19.311,28.828-39.843,57.943-48.165,90.632-11.157-1.527-20.128-3.467-26.233-5.874-5.615-2.219-8.807-4.823-9.051-7.868-.131-32.859,21.471-60.444,54.485-76.8" transform="translate(70.455 -7398.422)" fill="#12263f"/>
      <path id="Trazado_110881" data-name="Trazado 110881" d="M211.217,98.895c.285,6.425,15.3,9.526,19.439,10.591,24.427,6.279,71.032,11.771,117.387,11.771,51.884,0,97.039-5.094,113.927-8.154,1.685-.306,2.543-9.039,2.543-9.039-5.1,1.441-71.72,4.776-93.855,3.85-34.826-1.456-61.784-7.395-62.507-15.928-.159-36.936,26.705-67.531,65.7-84.1,1.3-.548,2.605-1.087,3.931-1.606-.154-3.5-54.486-14.87-98.754,5.782a125.505,125.505,0,0,0-13.04,8.49c-20.428,15.206-35.408,36.263-41.921,61-1.47,4-4.883,8.7-12.848,8.2,0,0-.285,6.178,0,9.143" transform="translate(70.723 -7393.193)" fill="#01a0f2"/>
      <path id="Trazado_110882" data-name="Trazado 110882" d="M411.177,14.087C421.032,3.579,410.151,3.95,391.59,2.838c-17.557-1.052-39.9,2.78-53.4,5.5C380.487-7.1,427.8,3.011,427.942,6.28c-1.326.519-2.634,1.058-3.932,1.606q-6.665,2.832-12.833,6.2" transform="translate(20.561 -7393.195)" fill="#8dd5fb"/>
      <path id="Trazado_110883" data-name="Trazado 110883" d="M211.217,147.624c2.845,3.212,13.037,3.012,14.508-.989A39.5,39.5,0,0,0,254.17,168.38c8.807,1.734,50.347,8.154,100.13,8.154,46.083,0,107.679-5.561,107.669-5.559-16.888,3.059-62.042,8.154-113.927,8.154-46.354,0-92.96-5.492-117.387-11.771-4.144-1.065-19.154-4.167-19.439-10.591-.285-2.965,0-9.143,0-9.143" transform="translate(70.723 -7451.064)" fill="#12263f"/>
      <path id="Trazado_110884" data-name="Trazado 110884" d="M501.255,135.317c-36.056,3.336-83.641,4.086-105.819.185-12.538-2.205-35.328-4.082-33.922-19.088,1.493-15.938,10.028-38.547,26.029-50.268-12.726,14.81-20.136,32.5-20.053,51.946.724,8.533,27.681,14.472,62.507,15.928,22.135.926,88.752-2.409,93.855-3.85,0,0-4.716,3.493-22.6,5.147" transform="translate(11.382 -7419.299)" fill="#12263f"/>
      <path id="Trazado_110885" data-name="Trazado 110885" d="M359.386,142.349a35.669,35.669,0,0,0-.569,8.154c.285,3.83,4.125,8.649,11.663,10.872a14.908,14.908,0,0,1-11.521-3.954c-5.547-4.941.427-15.073.427-15.073" transform="translate(13.297 -7449.373)" fill="#a3cce1"/>
      <path id="Trazado_110886" data-name="Trazado 110886" d="M607.626,794.363s3.313-1.821,4.552,1c1.564,3.556-1.849,14.649-7.538,14.934-2.7.135-7.4-5.12-7.4-9.529s10.383-6.4,10.383-6.4" transform="translate(-81.674 -7706.465)" fill="#d78c63"/>
      <path id="Trazado_110887" data-name="Trazado 110887" d="M546.082,823.881c-.837-5.633-1.3-15.489,4.986-18.2,3.919-1.691,16.956-1.82,22.4-1.793,18.944.084,21.011,1.867,22.121,2.826,3.247,2.8,3.7,10.162,3.5,15.843a4.173,4.173,0,0,1-4.416,3.7l-.131,0c-2.44-.061-4.36-1.818-4.289-3.923.128-3.865-.284-8.218-.9-9.934-5.711-1.185-29.094-1.194-34.054.034-.837,1.434-1.066,6.318-.455,10.479.311,2.09-1.4,4-3.823,4.269a5.128,5.128,0,0,1-.568.031,4.254,4.254,0,0,1-4.379-3.33" transform="translate(-61.294 -7710.45)" fill="#555863"/>
      <path id="Trazado_110888" data-name="Trazado 110888" d="M554.524,825.153a34.33,34.33,0,0,0,.328,5.874c.311,2.09-1.4,4-3.823,4.269a5.143,5.143,0,0,1-.568.031,4.254,4.254,0,0,1-4.379-3.33,39.721,39.721,0,0,1-.446-7.55c2.961.254,5.917.557,8.888.706" transform="translate(-61.294 -7718.566)" fill="#2f323c"/>
      <path id="Trazado_110889" data-name="Trazado 110889" d="M565.453,812.249c9.067-1.3,33.155-1.669,34.537.358a51.63,51.63,0,0,1,4.421,8.106c.078,1.617,1.015,3.223.964,4.722a4.172,4.172,0,0,1-4.416,3.7h-.131c-2.44-.061-4.36-1.818-4.289-3.923.128-3.865-.284-8.218-.9-9.934-5.711-1.185-29.094-1.194-34.055.034-.557-1.752,2.388-2.851,3.865-3.063" transform="translate(-67.576 -7713.33)" fill="#2f323c"/>
      <path id="Trazado_110890" data-name="Trazado 110890" d="M501.031,856.558c.64,1.173,115.242,2.6,116.274,2.062.355-.854-.766-15.59-1.636-17.921-1.565-4.2-7.67-10.62-18.348-11.023-11.308-.427-95.082.427-96.646,1.636Z" transform="translate(-43.563 -7720.586)" fill="#c3211b"/>
      <path id="Trazado_110891" data-name="Trazado 110891" d="M672.421,861.154s-4.053-1.28-5.547-1.493-20.908-.213-22.188,0a2.974,2.974,0,0,0-1.92,1.28Z" transform="translate(-99.64 -7732.4)" fill="#e24949"/>
      <path id="Trazado_110892" data-name="Trazado 110892" d="M642.953,839.147s-52.943,1.416-55.043,1.493c-5.76.214-4.693,3.627.64,3.627s58.67.427,58.67.427a10.863,10.863,0,0,0-4.267-5.547" transform="translate(-76.466 -7724.368)" fill="#d82a2a"/>
      <path id="Trazado_110893" data-name="Trazado 110893" d="M614.9,833.263c-7.442-2.97-84.062-1.287-88.511-2.422-.152-.039-.3-.081-.455-.121,27.031-.374,72.856-1.334,81.357-1.013,10.678.4,16.783,6.827,18.347,11.023,0,0-6.1-5.616-10.738-7.467" transform="translate(-53.532 -7720.617)" fill="#e24949"/>
      <path id="Trazado_110894" data-name="Trazado 110894" d="M472.652,857c.64,1.173,39.362,4.3,40.394,3.769.355-.853.869-15.589,0-17.921-1.565-4.2-7.674-10.51-18.348-11.023-14.792-.711-19.912,5.831-21.192,9.031-.524,1.311-1.209,15.005-.854,16.143" transform="translate(-32.465 -7721.458)" fill="#a01212"/>
      <path id="Trazado_110895" data-name="Trazado 110895" d="M473.3,919.806c.64,1.173,38.509,4.374,39.54,3.84,2.733-1.414,1.28-58.884,0-61.017s-37.407-4.125-39.54-1.991-1.191,56.984,0,59.168" transform="translate(-32.257 -7732.488)" fill="#a01212"/>
      <path id="Trazado_110896" data-name="Trazado 110896" d="M487.376,864.61c-3.6-.148-10.63-.829-14.24-.92.165-1.357.093-1.785.314-2.035,1.138-1.28,38.545.569,39.825,1.707a10.257,10.257,0,0,1,.4,2.179c-8.756-.1-17.56-.571-26.3-.93" transform="translate(-32.695 -7733.079)" fill="#780c0c"/>
      <path id="Trazado_110897" data-name="Trazado 110897" d="M538.621,924.555c1.28,2.133,89.712-.32,92.272-2.027s1.973-57.977.693-60.11c-12.96-.374-89.979-1.013-92.112,1.12-.854.854-2.134,58.884-.854,61.017" transform="translate(-58.325 -7733.398)" fill="#c3211b"/>
      <path id="Trazado_110898" data-name="Trazado 110898" d="M686.75,920.26c.264-3.7,2.844-23.041,4.308-40.284.568,16.912.4,48.366-1.5,49.636,0,0-3.093-5.369-2.809-9.352" transform="translate(-116.991 -7740.481)" fill="#e24949"/>
      <path id="Trazado_110899" data-name="Trazado 110899" d="M539.768,867.08s.254-3.186.373-3.3c2.276-.711,55.683-1.28,92.112-1.12.314,0,.321,1.4.47,3.162-9.793.467-91.272,1.3-92.955,1.263" transform="translate(-58.992 -7733.634)" fill="#a01212"/>
      <path id="Trazado_110900" data-name="Trazado 110900" d="M602.4,867.994c-.423-.492-.036-8.179.838-8.86.119-.229,3.655-.544,5.19-.6,4.133-.084,8.517-.553,12.568.459,1.88,1.585,1.31,4.746,1.483,6.984-.339,4.245,1,12.691-1.688,14.15-3.1,1.03-17.1.524-18.007-.078-.768-.511-.57-7.72-.384-12.051" transform="translate(-83.643 -7731.945)" fill="#a01212"/>
      <path id="Trazado_110901" data-name="Trazado 110901" d="M625.125,870.053c.107,2.453.463,10.256-.96,11.393s-15.066.68-15.895.128c-.853-.569-.32-10.774-.213-12.8.03-.568,16.961-1.173,17.068,1.28" transform="translate(-85.839 -7735.859)" fill="#c5c5c2"/>
      <path id="Trazado_110902" data-name="Trazado 110902" d="M608.218,868.773c.03-.568,16.961-1.173,17.068,1.28.019.449.047,1.077.071,1.811-.444.589-10.418.855-13.618.482,0,0-.48,7.468-.107,7.84,3.307.96,9.761.32,11.147.32.533,0,1.706.693,1.547.939-1.423,1.137-14.746.573-15.574.021-.854-.569-.427-10.454-.533-12.694" transform="translate(-86 -7735.859)" fill="#868681"/>
      <path id="Trazado_110903" data-name="Trazado 110903" d="M625.168,867.5s.427-6.258-1-7.4-14.674-.552-15.5,0c-.854.569-.854,6.969-.854,7.538s16.641,1.138,17.352-.142" transform="translate(-85.847 -7732.381)" fill="#c5c5c2"/>
      <path id="Trazado_110904" data-name="Trazado 110904" d="M623.922,860.708c-1.327-.136-11.589.125-11.84-.108-.011-.011-.97-.616-1.176-.7h0l-.075-.019c3.246-.457,13.3-.761,14.533.222.973.779,1.081,3.957,1.051,5.885-.945-.16-.079-5.032-2.492-5.28" transform="translate(-87.036 -7732.381)" fill="#e5e5e3"/>
      <path id="Trazado_110905" data-name="Trazado 110905" d="M609.2,861.069c-.831.543-.884,2.045-1.151,7.592-.008.163,1.6.64,3.787.48-.16-7.573-1.83-8.6-2.636-8.072" transform="translate(-85.94 -7732.973)" fill="#868681"/>
      <path id="Trazado_110906" data-name="Trazado 110906" d="M634.471,876.506c-.331.066-1.653,6.08-1.493,6.507s.854.48,1.173.587.747-4.693.32-7.093" transform="translate(-95.772 -7739.111)" fill="#e5e5e3"/>
      <path id="Trazado_110907" data-name="Trazado 110907" d="M561.46,768.256c-3.506,7.673-3.825,17.263-3.077,20.4,1,4.207,2.708,8.188,4.768,9.219a5.9,5.9,0,0,0,6.676-.954s3.815,4.451,7.948-.636c0,0,4.212,4.371,7.788.079,0,0,3.7,2.958,6.382-.9s1.486-13.877,1.248-16.023c-.228-2.049,3.891-5.69-4.311-17.081-2.555-3.276-22.751-.573-27.422,5.9" transform="translate(-66.208 -7693.51)" fill="#fdcfad"/>
      <path id="Trazado_110908" data-name="Trazado 110908" d="M563.064,808.593c9.274-2.65,10.383,2.987,29.73-.688.812-.154,1.835,4.535.778,6.061-2.678,3.863-6.382.906-6.382.906-3.576,4.291-7.788-.08-7.788-.08-4.133,5.087-7.948.636-7.948.636a5.9,5.9,0,0,1-6.676.953c-2.007-1-3.705-7.219-1.714-7.788" transform="translate(-67.835 -7712.019)" fill="#d78c63"/>
      <path id="Trazado_110909" data-name="Trazado 110909" d="M77.018,506.657c-9.971-5.216-23.644-3.887-32.445,7.9a30.238,30.238,0,0,0-6.007,18.928c.187,4.476,3.435,11.483,9.6,14.1,4.2,3.257,18.818,11.536,28.828.215,1.4-1.271,7.48-9.377,9.167-15.491,2.191-7.881,2.2-18.468-9.144-25.65" transform="translate(138.815 -7592.002)" fill="#d78c63"/>
      <path id="Trazado_110917" data-name="Trazado 110917" d="M100.636,517.535s2.53-10.968-5.865-17.995c-3.735-3.127-10.467-3.456-13.266-2.21-4.336,1.931-2.6,5.983-7.561,11.279-3.71,3.963,4.254,9.242,11.646,2.9a15.07,15.07,0,0,0-3.1,11.361c.583,3.857,5.109,5.027,8.27,5.013a9.879,9.879,0,0,0,9.876-10.353" transform="translate(125.219 -7589.201)" fill="#fdcfad"/>
      <rect id="Rectángulo_13299" data-name="Rectángulo 13299" width="420.325" height="667.329" transform="translate(154.03 -7393.196)" fill="none"/>
      <path id="Trazado_110923" data-name="Trazado 110923" d="M203.211-7072.43c-1.611-5.771,3.389-.17,3.789-.97s-4.8,9.8,3.2,12.8,12,0,12,0-11.6,21.6-16.8,19.8-4.8-.8-4.8-.8a9.086,9.086,0,0,0,0-7.4c-1.8-3.8,2.611-6.8,2.611-6.8s-.011-5.8-1.611-6.6S204.823-7066.659,203.211-7072.43Z" fill="#fdcfad"/>
    </g>
  </g>
</svg>
