<svg xmlns="http://www.w3.org/2000/svg" width="98.242" height="16.5" viewBox="0 0 98.242 16.5">
  <g id="Grupo_66048" data-name="Grupo 66048" transform="translate(-128.758 8497)">
    <g id="Grupo_66047" data-name="Grupo 66047" transform="translate(50.5 5)">
      <path id="Trazado_111041" data-name="Trazado 111041" d="M8.235-2.391H4.008L3.27,0h-3.3L4.667-12.8h2.9L12.3,0H8.982ZM4.746-4.772H7.5L6.117-9.211ZM22.913-7.26h3v2.54h-3v3.437H20.145V-4.72H17.139V-7.26h3.006V-10.6h2.769ZM39.076-2.391H34.849L34.11,0h-3.3l4.693-12.8h2.9L43.137,0H39.823ZM35.587-4.772h2.751l-1.38-4.438ZM44.068,0V-12.8h4.6a6.509,6.509,0,0,1,3.757.905A3.012,3.012,0,0,1,53.71-9.264a3.045,3.045,0,0,1-.457,1.7A2.663,2.663,0,0,1,51.908-6.53a2.7,2.7,0,0,1,1.538.984,2.862,2.862,0,0,1,.536,1.758A3.388,3.388,0,0,1,52.792-.962,5.667,5.667,0,0,1,49.263,0Zm3.085-5.44v3.067h2.021a1.923,1.923,0,0,0,1.283-.382,1.338,1.338,0,0,0,.448-1.077A1.419,1.419,0,0,0,49.315-5.44Zm0-2.021h1.608a2.285,2.285,0,0,0,1.441-.37A1.314,1.314,0,0,0,50.634-8.9a1.379,1.379,0,0,0-.466-1.168,2.493,2.493,0,0,0-1.5-.357H47.153Zm18.211.2h3v2.54h-3v3.437H62.6V-4.72H59.59V-7.26H62.6V-10.6h2.769ZM81.527-2.391H77.3L76.562,0h-3.3l4.693-12.8h2.9L85.588,0H82.274ZM78.038-4.772h2.751l-1.38-4.438ZM86.52,0V-12.8h4.6a6.509,6.509,0,0,1,3.757.905,3.012,3.012,0,0,1,1.288,2.628,3.045,3.045,0,0,1-.457,1.7A2.663,2.663,0,0,1,94.359-6.53a2.7,2.7,0,0,1,1.538.984,2.862,2.862,0,0,1,.536,1.758A3.388,3.388,0,0,1,95.243-.962,5.667,5.667,0,0,1,91.714,0ZM89.6-5.44v3.067h2.021a1.923,1.923,0,0,0,1.283-.382,1.338,1.338,0,0,0,.448-1.077A1.419,1.419,0,0,0,91.767-5.44Zm0-2.021h1.608a2.285,2.285,0,0,0,1.441-.37A1.314,1.314,0,0,0,93.085-8.9a1.379,1.379,0,0,0-.466-1.168,2.493,2.493,0,0,0-1.5-.357H89.6Z" transform="translate(79 -8486)" fill="#12263f" stroke="rgba(0,0,0,0)" stroke-width="1"/>
    </g>
    <path id="Trazado_111042" data-name="Trazado 111042" d="M0,0H23" transform="translate(204 -8496.5)" fill="none" stroke="#12263f" stroke-width="1"/>
  </g>
</svg>
