<svg xmlns="http://www.w3.org/2000/svg" width="464.609" height="133" viewBox="0 0 464.609 133">
  <g id="Grupo_66015" data-name="Grupo 66015" transform="translate(6560 9675)">
    <path id="Trazado_110601" data-name="Trazado 110601" d="M9.578-11.328,15.516-22.75h3.406L11.078-8.484V0h-3V-8.484L.234-22.75H3.672Zm25.047-1.391H21.594v-2.516H34.625Zm0,6.484H21.594v-2.5H34.625Zm25.281.281H50.375L48.234,0H45.141l8.688-22.75h2.625L65.156,0H62.078ZM51.281-8.406h7.734L55.141-19.047Zm32.688-3.8h6.344v2.734H83.969v7.188H81.063V-9.469H74.719V-12.2h6.344v-6.641h2.906ZM110.125,0V-22.75h7.438a8.634,8.634,0,0,1,5.57,1.531A5.519,5.519,0,0,1,125-16.687a4.621,4.621,0,0,1-.906,2.82,5.875,5.875,0,0,1-2.469,1.9,5.276,5.276,0,0,1,2.914,1.961,5.628,5.628,0,0,1,1.07,3.445,6.085,6.085,0,0,1-1.984,4.813A8.206,8.206,0,0,1,118.016,0Zm3-10.641v8.188h4.953a4.769,4.769,0,0,0,3.3-1.086,3.814,3.814,0,0,0,1.211-2.992q0-4.109-4.469-4.109Zm0-2.406h4.531a4.75,4.75,0,0,0,3.148-.986,3.307,3.307,0,0,0,1.18-2.678,3.252,3.252,0,0,0-1.094-2.733,5.371,5.371,0,0,0-3.328-.853h-4.437Z" transform="translate(-6221 -9592)" fill="#12263f"/>
    <path id="Trazado_110605" data-name="Trazado 110605" d="M0,0H46V60H0Z" transform="translate(-6560 -9609)" fill="#43babe"/>
    <path id="Trazado_110606" data-name="Trazado 110606" d="M2.641,0V-22.75h7.438a8.634,8.634,0,0,1,5.57,1.531,5.519,5.519,0,0,1,1.867,4.531,4.621,4.621,0,0,1-.906,2.82,5.875,5.875,0,0,1-2.469,1.9,5.276,5.276,0,0,1,2.914,1.961,5.628,5.628,0,0,1,1.07,3.445A6.085,6.085,0,0,1,16.141-1.75,8.206,8.206,0,0,1,10.531,0Zm3-10.641v8.188h4.953a4.769,4.769,0,0,0,3.3-1.086,3.814,3.814,0,0,0,1.211-2.992q0-4.109-4.469-4.109Zm0-2.406h4.531a4.75,4.75,0,0,0,3.148-.986,3.307,3.307,0,0,0,1.18-2.678,3.252,3.252,0,0,0-1.094-2.733,5.371,5.371,0,0,0-3.328-.853H5.641Z" transform="translate(-6547 -9569)" fill="#12263f"/>
    <path id="Trazado_110607" data-name="Trazado 110607" d="M0,0H46V60H0Z" transform="translate(-6560 -9675)" fill="#43babe"/>
    <path id="Trazado_110608" data-name="Trazado 110608" d="M15.2-5.953H5.672L3.531,0H.438L9.125-22.75H11.75L20.453,0H17.375ZM6.578-8.406h7.734L10.438-19.047Z" transform="translate(-6547 -9633)" fill="#12263f"/>
    <path id="Trazado_110602" data-name="Trazado 110602" d="M0,0H46V60H0Z" transform="translate(-6311 -9637)" fill="#43babe"/>
    <path id="Trazado_110603" data-name="Trazado 110603" d="M9.578-11.328,15.516-22.75h3.406L11.078-8.484V0h-3V-8.484L.234-22.75H3.672Z" transform="translate(-6298 -9597)" fill="#12263f"/>
    <path id="Trazado_110604" data-name="Trazado 110604" d="M53.357,127H2.132c22.531-11.108,37.089-35.836,37.089-63,0-28.282-15.4-53.4-39.221-64H52.358a59.95,59.95,0,0,1,60,60v.959h56.805v6.773H112.358V68a58.951,58.951,0,0,1-59,59Z" transform="translate(-6481.163 -9669)" fill="#70089b"/>
    <path id="Trazado_110609" data-name="Trazado 110609" d="M0,0H75V7H0Z" transform="translate(-6514 -9641)" fill="#70089b"/>
    <path id="Trazado_110610" data-name="Trazado 110610" d="M0,0H75V7H0Z" transform="translate(-6514 -9584)" fill="#70089b"/>
  </g>
</svg>
