<svg xmlns="http://www.w3.org/2000/svg" width="110.122" height="27.695" viewBox="0 0 110.122 27.695">
  <g id="Grupo_66049" data-name="Grupo 66049" transform="translate(2968.122 7147.5)">
    <path id="Trazado_110945" data-name="Trazado 110945" d="M-48.813-8.047l2.617-6.172h3.7l-4.58,9.111V0h-3.477V-5.107l-4.57-9.111h3.682Zm16.572,1h-9.043V-9.59h9.043Zm0,4.287h-9.043V-5.3h9.043Zm15.547.107h-4.7L-22.212,0h-3.662l5.215-14.219h3.223L-12.183,0h-3.682ZM-20.571-5.3h3.057l-1.533-4.932ZM-.386-8.066h3.33v2.822H-.386v3.818H-3.462V-5.244H-6.8V-8.066h3.34v-3.711H-.386ZM9.5,0V-14.219H14.6a7.232,7.232,0,0,1,4.175,1.006,3.347,3.347,0,0,1,1.431,2.92A3.383,3.383,0,0,1,19.7-8.408a2.959,2.959,0,0,1-1.494,1.152,3,3,0,0,1,1.709,1.094,3.18,3.18,0,0,1,.6,1.953,3.765,3.765,0,0,1-1.323,3.14A6.3,6.3,0,0,1,15.269,0Zm3.428-6.045v3.408h2.246A2.136,2.136,0,0,0,16.6-3.062a1.487,1.487,0,0,0,.5-1.2,1.576,1.576,0,0,0-1.768-1.787Zm0-2.246h1.787a2.539,2.539,0,0,0,1.6-.411,1.46,1.46,0,0,0,.479-1.185,1.533,1.533,0,0,0-.518-1.3,2.77,2.77,0,0,0-1.67-.4h-1.68Zm20.234.225h3.33v2.822h-3.33v3.818H30.083V-5.244h-3.34V-8.066h3.34v-3.711h3.076ZM54.546-4.814a5.193,5.193,0,0,1-.8,2.622A4.833,4.833,0,0,1,51.689-.43,7,7,0,0,1,48.667.2a5.584,5.584,0,0,1-4.414-1.826,7.54,7.54,0,0,1-1.611-5.156v-.7a8.607,8.607,0,0,1,.728-3.657,5.513,5.513,0,0,1,2.095-2.422,5.844,5.844,0,0,1,3.164-.854,6.129,6.129,0,0,1,4.16,1.362,5.383,5.383,0,0,1,1.787,3.755H51.157a2.547,2.547,0,0,0-.654-1.865,2.691,2.691,0,0,0-1.875-.566,2.048,2.048,0,0,0-1.875.957,6.151,6.151,0,0,0-.625,3.057v1.006A6.806,6.806,0,0,0,46.7-3.467a2.091,2.091,0,0,0,1.968.977,2.632,2.632,0,0,0,1.807-.557,2.363,2.363,0,0,0,.664-1.768Z" transform="translate(-2913 -7120)" fill="#12263f"/>
    <path id="Trazado_110946" data-name="Trazado 110946" d="M0,0H13" transform="translate(-2938.5 -7140.5)" fill="none" stroke="#12263f" stroke-width="2"/>
    <path id="Trazado_110947" data-name="Trazado 110947" d="M0,0H13" transform="translate(-2905 -7140.5)" fill="none" stroke="#12263f" stroke-width="2"/>
    <path id="Trazado_110948" data-name="Trazado 110948" d="M0,0H13" transform="translate(-2871 -7140.5)" fill="none" stroke="#12263f" stroke-width="2"/>
    <path id="Trazado_110949" data-name="Trazado 110949" d="M0,0H80.5" transform="translate(-2938.5 -7146.5)" fill="none" stroke="#12263f" stroke-width="2"/>
  </g>
</svg>
