<svg xmlns="http://www.w3.org/2000/svg" width="143" height="47" viewBox="0 0 143 47">
  <g id="Grupo_66018" data-name="Grupo 66018" transform="translate(2547 7194)">
    <g id="Grupo_59634" data-name="Grupo 59634" transform="translate(-366 20)">
      <rect id="Rectángulo_9452" data-name="Rectángulo 9452" width="143" height="47" rx="23.5" transform="translate(-2181 -7214)" fill="#fff"/>
      <g id="Grupo_59633" data-name="Grupo 59633" transform="translate(-2151.166 -7203.5)">
        <path id="Trazado_110958" data-name="Trazado 110958" d="M-31.318-2.656h-4.7L-36.836,0H-40.5l5.215-14.219h3.223L-26.807,0h-3.682ZM-35.2-5.3h3.057l-1.533-4.932ZM-15.01-8.066h3.33v2.822h-3.33v3.818h-3.076V-5.244h-3.34V-8.066h3.34v-3.711h3.076ZM-5.127,0V-14.219H-.02a7.232,7.232,0,0,1,4.175,1.006,3.347,3.347,0,0,1,1.431,2.92,3.383,3.383,0,0,1-.508,1.885A2.959,2.959,0,0,1,3.584-7.256,3,3,0,0,1,5.293-6.162a3.18,3.18,0,0,1,.6,1.953,3.765,3.765,0,0,1-1.323,3.14A6.3,6.3,0,0,1,.645,0ZM-1.7-6.045v3.408H.547a2.136,2.136,0,0,0,1.426-.425,1.487,1.487,0,0,0,.5-1.2A1.576,1.576,0,0,0,.7-6.045Zm0-2.246H.088a2.539,2.539,0,0,0,1.6-.411,1.46,1.46,0,0,0,.479-1.185,1.533,1.533,0,0,0-.518-1.3,2.77,2.77,0,0,0-1.67-.4H-1.7Zm20.234.225h3.33v2.822h-3.33v3.818H15.459V-5.244h-3.34V-8.066h3.34v-3.711h3.076ZM39.922-4.814a5.193,5.193,0,0,1-.8,2.622A4.833,4.833,0,0,1,37.065-.43,7,7,0,0,1,34.043.2a5.584,5.584,0,0,1-4.414-1.826,7.54,7.54,0,0,1-1.611-5.156v-.7a8.607,8.607,0,0,1,.728-3.657,5.513,5.513,0,0,1,2.095-2.422A5.844,5.844,0,0,1,34-14.424a6.129,6.129,0,0,1,4.16,1.362,5.383,5.383,0,0,1,1.787,3.755H36.533a2.547,2.547,0,0,0-.654-1.865A2.691,2.691,0,0,0,34-11.738a2.048,2.048,0,0,0-1.875.957A6.151,6.151,0,0,0,31.5-7.725v1.006a6.806,6.806,0,0,0,.571,3.252,2.091,2.091,0,0,0,1.968.977,2.632,2.632,0,0,0,1.807-.557,2.363,2.363,0,0,0,.664-1.768Z" transform="translate(40.5 21)" fill="#43babe"/>
        <line id="Línea_207" data-name="Línea 207" x2="13" transform="translate(0 0.5)" fill="none" stroke="#43babe" stroke-width="2"/>
        <line id="Línea_208" data-name="Línea 208" x2="13" transform="translate(33.166 0.5)" fill="none" stroke="#43babe" stroke-width="2"/>
        <line id="Línea_209" data-name="Línea 209" x2="13" transform="translate(67.166 0.5)" fill="none" stroke="#43babe" stroke-width="2"/>
      </g>
    </g>
  </g>
</svg>
