<svg xmlns="http://www.w3.org/2000/svg" width="96.599" height="44.609" viewBox="0 0 96.599 44.609">
  <g id="Grupo_66049" data-name="Grupo 66049" transform="translate(-211.555 8312)">
    <path id="Trazado_111059" data-name="Trazado 111059" d="M1.055-5.2a13.431,13.431,0,0,1,.571-3.99A9.629,9.629,0,0,1,3.2-12.322,5.6,5.6,0,0,1,5.44-14.115L6-12.656A5.73,5.73,0,0,0,4.1-9.831a13.782,13.782,0,0,0-.681,4.5v.387A14.051,14.051,0,0,0,4.091-.352,5.706,5.706,0,0,0,6,2.5L5.44,3.955A5.547,5.547,0,0,1,3.2,2.158,9.484,9.484,0,0,1,1.626-.958a13.5,13.5,0,0,1-.571-3.85ZM14.59-2.391H10.362L9.624,0h-3.3l4.693-12.8h2.9L18.65,0H15.337ZM11.1-4.772h2.751l-1.38-4.438ZM24.785-7.26h3v2.54h-3v3.437H22.017V-4.72H19.011V-7.26h3.006V-10.6h2.769ZM36.466-2.391H32.238L31.5,0H28.2L32.9-12.8h2.9L40.526,0H37.213ZM32.977-4.772h2.751l-1.38-4.438Zm13.017-.185a12.532,12.532,0,0,1-.606,3.92,10.008,10.008,0,0,1-1.674,3.186,5.574,5.574,0,0,1-2.307,1.806L40.843,2.5a5.787,5.787,0,0,0,1.89-2.812,13.577,13.577,0,0,0,.694-4.368v-.536a14.051,14.051,0,0,0-.672-4.588,5.706,5.706,0,0,0-1.912-2.848l.563-1.459a5.676,5.676,0,0,1,2.29,1.789,9.885,9.885,0,0,1,1.67,3.138,12.426,12.426,0,0,1,.628,3.845ZM60.574-6.346H52.436V-8.631h8.139Zm0,3.858H52.436V-4.772h8.139ZM69.2,0H66.226V-9.457L63.308-8.6v-2.25L68.924-12.8H69.2Z" transform="translate(227 -8272)" fill="#12263f" stroke="rgba(0,0,0,0)" stroke-width="1"/>
    <path id="Trazado_111060" data-name="Trazado 111060" d="M0,0H10" transform="translate(256.5 -8287)" fill="none" stroke="#12263f" stroke-width="1"/>
    <path id="Trazado_111061" data-name="Trazado 111061" d="M1.055-5.2a13.431,13.431,0,0,1,.571-3.99A9.629,9.629,0,0,1,3.2-12.322,5.6,5.6,0,0,1,5.44-14.115L6-12.656A5.73,5.73,0,0,0,4.1-9.831a13.782,13.782,0,0,0-.681,4.5v.387A14.051,14.051,0,0,0,4.091-.352,5.706,5.706,0,0,0,6,2.5L5.44,3.955A5.547,5.547,0,0,1,3.2,2.158,9.484,9.484,0,0,1,1.626-.958a13.5,13.5,0,0,1-.571-3.85ZM14.59-2.391H10.362L9.624,0h-3.3l4.693-12.8h2.9L18.65,0H15.337ZM11.1-4.772h2.751l-1.38-4.438ZM24.785-7.26h3v2.54h-3v3.437H22.017V-4.72H19.011V-7.26h3.006V-10.6h2.769ZM36.466-2.391H32.238L31.5,0H28.2L32.9-12.8h2.9L40.526,0H37.213ZM32.977-4.772h2.751l-1.38-4.438Zm13.017-.185a12.532,12.532,0,0,1-.606,3.92,10.008,10.008,0,0,1-1.674,3.186,5.574,5.574,0,0,1-2.307,1.806L40.843,2.5a5.787,5.787,0,0,0,1.89-2.812,13.577,13.577,0,0,0,.694-4.368v-.536a14.051,14.051,0,0,0-.672-4.588,5.706,5.706,0,0,0-1.912-2.848l.563-1.459a5.676,5.676,0,0,1,2.29,1.789,9.885,9.885,0,0,1,1.67,3.138,12.426,12.426,0,0,1,.628,3.845ZM52.365-5.2a13.431,13.431,0,0,1,.571-3.99,9.629,9.629,0,0,1,1.578-3.129,5.6,5.6,0,0,1,2.237-1.793l.563,1.459a5.73,5.73,0,0,0-1.9,2.826,13.782,13.782,0,0,0-.681,4.5v.387A14.051,14.051,0,0,0,55.4-.352,5.706,5.706,0,0,0,57.313,2.5l-.562,1.459a5.547,5.547,0,0,1-2.237-1.8A9.484,9.484,0,0,1,52.937-.958a13.5,13.5,0,0,1-.571-3.85ZM65.9-2.391H61.673L60.935,0h-3.3l4.693-12.8h2.9L69.961,0H66.647ZM62.411-4.772h2.751l-1.38-4.438ZM76.1-7.26h3v2.54h-3v3.437H73.327V-4.72H70.321V-7.26h3.006V-10.6H76.1ZM80.508,0V-12.8h4.6a6.509,6.509,0,0,1,3.757.905,3.012,3.012,0,0,1,1.288,2.628,3.045,3.045,0,0,1-.457,1.7A2.663,2.663,0,0,1,88.348-6.53a2.7,2.7,0,0,1,1.538.984,2.862,2.862,0,0,1,.536,1.758A3.388,3.388,0,0,1,89.231-.962,5.667,5.667,0,0,1,85.7,0Zm3.085-5.44v3.067h2.021A1.923,1.923,0,0,0,86.9-2.755a1.338,1.338,0,0,0,.448-1.077A1.419,1.419,0,0,0,85.755-5.44Zm0-2.021H85.2a2.285,2.285,0,0,0,1.441-.37A1.314,1.314,0,0,0,87.073-8.9a1.379,1.379,0,0,0-.466-1.168,2.493,2.493,0,0,0-1.5-.357H83.593Zm13.061,2.5a12.532,12.532,0,0,1-.606,3.92,10.008,10.008,0,0,1-1.674,3.186,5.574,5.574,0,0,1-2.307,1.806L91.5,2.5a5.787,5.787,0,0,0,1.89-2.812,13.577,13.577,0,0,0,.694-4.368v-.536a14.051,14.051,0,0,0-.672-4.588A5.706,5.706,0,0,0,91.5-12.656l.563-1.459a5.676,5.676,0,0,1,2.29,1.789,9.885,9.885,0,0,1,1.67,3.138,12.426,12.426,0,0,1,.628,3.845Z" transform="translate(211 -8296)" fill="#12263f" stroke="rgba(0,0,0,0)" stroke-width="1"/>
    <path id="Trazado_111062" data-name="Trazado 111062" d="M0,0H10" transform="translate(240.5 -8311.5)" fill="none" stroke="#12263f" stroke-width="1"/>
  </g>
</svg>
