<svg xmlns="http://www.w3.org/2000/svg" width="401.5" height="109" viewBox="0 0 401.5 109">
  <g id="Grupo_66042" data-name="Grupo 66042" transform="translate(6539 8725)">
    <path id="Trazado_110947" data-name="Trazado 110947" d="M0,0H46V60H0Z" transform="translate(-6539 -8699)" fill="#43babe"/>
    <path id="Trazado_110948" data-name="Trazado 110948" d="M15.2-5.953H5.672L3.531,0H.438L9.125-22.75H11.75L20.453,0H17.375ZM6.578-8.406h7.734L10.438-19.047Z" transform="translate(-6526 -8657)" fill="#12263f"/>
    <path id="Trazado_110949" data-name="Trazado 110949" d="M0,0H46V60H0Z" transform="translate(-6290 -8701)" fill="#43babe"/>
    <path id="Trazado_110950" data-name="Trazado 110950" d="M9.578-11.328,15.516-22.75h3.406L11.078-8.484V0h-3V-8.484L.234-22.75H3.672Z" transform="translate(-6277 -8661)" fill="#12263f"/>
    <path id="Trazado_110943" data-name="Trazado 110943" d="M0,0H62.77V5.317H0Z" transform="translate(-6493 -8671.829)" fill="#70089b"/>
    <path id="Trazado_110944" data-name="Trazado 110944" d="M0,0H62.77V5.317H0Z" transform="translate(-6352.77 -8673.158)" fill="#70089b"/>
    <path id="Trazado_110945" data-name="Trazado 110945" d="M54.5,0,109,100.164H0Z" transform="translate(-6344.757 -8725) rotate(90)" fill="#70089b"/>
    <path id="Trazado_110946" data-name="Trazado 110946" d="M9.349,0A9.3,9.3,0,1,1,0,9.3,9.327,9.327,0,0,1,9.349,0Z" transform="translate(-6358.112 -8681.134)" fill="#70089b"/>
    <path id="Trazado_110951" data-name="Trazado 110951" d="M9.578-11.328,15.516-22.75h3.406L11.078-8.484V0h-3V-8.484L.234-22.75H3.672Zm25.047-1.391H21.594v-2.516H34.625Zm0,6.484H21.594v-2.5H34.625Zm25.281.281H50.375L48.234,0H45.141l8.688-22.75h2.625L65.156,0H62.078ZM51.281-8.406h7.734L55.141-19.047Z" transform="translate(-6203 -8658)" fill="#12263f"/>
    <path id="Trazado_110952" data-name="Trazado 110952" d="M0,0H21" transform="translate(-6158.5 -8685.5)" fill="none" stroke="#12263f" stroke-width="2"/>
  </g>
</svg>
