<svg xmlns="http://www.w3.org/2000/svg" width="111" height="108.063" viewBox="0 0 111 108.063">
  <g id="Grupo_66053" data-name="Grupo 66053" transform="translate(-925 -1716.938)">
    <path id="Trazado_110949" data-name="Trazado 110949" d="M20.125,0H17.109L5.656-17.531V0H2.641V-22.75H5.656L17.141-5.141V-22.75h2.984ZM42.953-10.641A14.073,14.073,0,0,1,41.828-4.8,8.521,8.521,0,0,1,38.641-1,8.77,8.77,0,0,1,33.828.313a8.7,8.7,0,0,1-4.766-1.32,8.725,8.725,0,0,1-3.227-3.766,13.5,13.5,0,0,1-1.18-5.664v-1.641a13.906,13.906,0,0,1,1.141-5.8,8.694,8.694,0,0,1,3.227-3.852A8.658,8.658,0,0,1,33.8-23.062a8.819,8.819,0,0,1,4.82,1.32,8.506,8.506,0,0,1,3.211,3.828,14.142,14.142,0,0,1,1.125,5.836Zm-2.984-1.469a10.2,10.2,0,0,0-1.625-6.211A5.36,5.36,0,0,0,33.8-20.484,5.3,5.3,0,0,0,29.32-18.32a9.991,9.991,0,0,0-1.68,6.008v1.672a10.215,10.215,0,0,0,1.648,6.164,5.325,5.325,0,0,0,4.539,2.242,5.3,5.3,0,0,0,4.5-2.117,10.157,10.157,0,0,0,1.641-6.07ZM55.8-9.2H50.453V0H47.438V-22.75h7.531A8.914,8.914,0,0,1,60.883-21a6.3,6.3,0,0,1,2.07,5.094A6.125,6.125,0,0,1,61.8-12.2a6.856,6.856,0,0,1-3.2,2.359L63.953-.187V0H60.734Zm-5.344-2.453h4.609a5.2,5.2,0,0,0,3.555-1.158,3.917,3.917,0,0,0,1.32-3.1,4.125,4.125,0,0,0-1.258-3.24A5.326,5.326,0,0,0,55.047-20.3H50.453Z" transform="translate(948 1740)" fill="#f6f6f6"/>
    <path id="Unión_9" data-name="Unión 9" d="M17.711,54A30.062,30.062,0,0,0,29.022,43.2H0V40.32H30.565a30.525,30.525,0,0,0,2.878-12.96,30.574,30.574,0,0,0-2.86-12.96H0V11.52H29.043A30.022,30.022,0,0,0,17.078.384V0h32.7a25.629,25.629,0,0,1,25.6,23.951A5.671,5.671,0,0,1,85.917,25.2H111v2.88H85.917a5.673,5.673,0,0,1-10.692.954A28.33,28.33,0,0,1,47.074,54Z" transform="translate(925 1771)" fill="#fff"/>
  </g>
</svg>
