<svg xmlns="http://www.w3.org/2000/svg" width="537" height="297.661" viewBox="0 0 537 297.661">
  <g id="Grupo_66061" data-name="Grupo 66061" transform="translate(508 6016.199)">
    <g id="Grupo_66060" data-name="Grupo 66060">
      <path id="Trazado_111014" data-name="Trazado 111014" d="M22,0H515c12.15,0,22,9.077,22,20.274V277.387c0,11.2-9.85,20.274-22,20.274H22c-12.15,0-22-9.077-22-20.274V20.274C0,9.077,9.85,0,22,0Z" transform="translate(-508 -6016.199)" fill="#fff"/>
      <path id="Trazado_111039" data-name="Trazado 111039" d="M5.576-14.219,8.75-4.326l3.164-9.893h4.512V0H12.988V-3.32l.332-6.8L9.883,0H7.617L4.17-10.127,4.5-3.32V0H1.074V-14.219ZM24.4,0a3.716,3.716,0,0,1-.312-.947A3.06,3.06,0,0,1,21.553.2a3.749,3.749,0,0,1-2.539-.9,2.875,2.875,0,0,1-1.045-2.271,2.955,2.955,0,0,1,1.27-2.6,6.468,6.468,0,0,1,3.691-.879h1.016v-.559q0-1.462-1.26-1.462a1.03,1.03,0,0,0-1.172,1.158H18.223a2.95,2.95,0,0,1,1.3-2.487,5.479,5.479,0,0,1,3.325-.956,4.8,4.8,0,0,1,3.193.986,3.429,3.429,0,0,1,1.2,2.705v4.678A4.79,4.79,0,0,0,27.7-.166V0ZM22.344-2.148a1.836,1.836,0,0,0,1.021-.264,1.653,1.653,0,0,0,.581-.6V-4.7h-.957q-1.719,0-1.719,1.543a.942.942,0,0,0,.3.728A1.1,1.1,0,0,0,22.344-2.148ZM38.877-5.205a6.372,6.372,0,0,1-1.108,3.931A3.554,3.554,0,0,1,34.775.2,3.046,3.046,0,0,1,32.383-.869V4.063H29.092V-10.566h3.076l.1.977a3.046,3.046,0,0,1,2.49-1.172,3.582,3.582,0,0,1,3.037,1.44,6.45,6.45,0,0,1,1.084,3.96ZM35.586-5.41q0-2.812-1.641-2.812a1.549,1.549,0,0,0-1.562.84v4.16a1.6,1.6,0,0,0,1.582.879q1.572,0,1.621-2.715ZM46.279,0a3.716,3.716,0,0,1-.312-.947A3.06,3.06,0,0,1,43.428.2a3.749,3.749,0,0,1-2.539-.9,2.875,2.875,0,0,1-1.045-2.271,2.955,2.955,0,0,1,1.27-2.6A6.468,6.468,0,0,1,44.8-6.455H45.82v-.559q0-1.462-1.26-1.462a1.03,1.03,0,0,0-1.172,1.158H40.1a2.95,2.95,0,0,1,1.3-2.487,5.479,5.479,0,0,1,3.325-.956,4.8,4.8,0,0,1,3.193.986,3.429,3.429,0,0,1,1.2,2.705v4.678A4.79,4.79,0,0,0,49.57-.166V0ZM44.219-2.148a1.836,1.836,0,0,0,1.021-.264,1.653,1.653,0,0,0,.581-.6V-4.7h-.957q-1.719,0-1.719,1.543a.942.942,0,0,0,.3.728A1.1,1.1,0,0,0,44.219-2.148Z" transform="translate(-255 -5981)" fill="#12263f"/>
      <path id="Trazado_111040" data-name="Trazado 111040" d="M0,0H57V44H0Z" transform="translate(-352 -5895)" fill="#68b1f2"/>
      <path id="Trazado_111041" data-name="Trazado 111041" d="M0,0H57V43H0Z" transform="translate(-352 -5796)" fill="#68b1f2"/>
      <path id="Trazado_111025" data-name="Trazado 111025" d="M0,0H58V44H0Z" transform="translate(-292 -5895)" fill="#68b1f2"/>
      <path id="Trazado_111026" data-name="Trazado 111026" d="M0,0H58V43H0Z" transform="translate(-292 -5796)" fill="#68b1f2"/>
      <path id="Trazado_111015" data-name="Trazado 111015" d="M0,0H57V44H0Z" transform="translate(-231 -5895)" fill="#68b1f2"/>
      <path id="Trazado_111016" data-name="Trazado 111016" d="M0,0H57V43H0Z" transform="translate(-231 -5796)" fill="#68b1f2"/>
      <path id="Trazado_111017" data-name="Trazado 111017" d="M0,0H57V44H0Z" transform="translate(-170 -5895)" fill="#68b1f2"/>
      <path id="Trazado_111018" data-name="Trazado 111018" d="M0,0H57V43H0Z" transform="translate(-170 -5796)" fill="#68b1f2"/>
      <path id="Trazado_111042" data-name="Trazado 111042" d="M0,0H57V43H0Z" transform="translate(-352 -5944)" fill="#0155a0"/>
      <path id="Trazado_111043" data-name="Trazado 111043" d="M0,0H57V44H0Z" transform="translate(-352 -5846)" fill="#0155a0"/>
      <path id="Trazado_111027" data-name="Trazado 111027" d="M0,0H58V43H0Z" transform="translate(-292 -5944)" fill="#0155a0"/>
      <path id="Trazado_111028" data-name="Trazado 111028" d="M0,0H58V44H0Z" transform="translate(-292 -5846)" fill="#0155a0"/>
      <path id="Trazado_111029" data-name="Trazado 111029" d="M0,0H57V43H0Z" transform="translate(-231 -5944)" fill="#0155a0"/>
      <path id="Trazado_111019" data-name="Trazado 111019" d="M0,0H57V44H0Z" transform="translate(-231 -5846)" fill="#0155a0"/>
      <path id="Trazado_111030" data-name="Trazado 111030" d="M0,0H57V43H0Z" transform="translate(-170 -5944)" fill="#0155a0"/>
      <path id="Trazado_111020" data-name="Trazado 111020" d="M0,0H57V44H0Z" transform="translate(-170 -5846)" fill="#0155a0"/>
      <path id="Trazado_111047" data-name="Trazado 111047" d="M6.563-3.942a5.371,5.371,0,0,1-.7,3.066,2.506,2.506,0,0,1-2.2,1,2.524,2.524,0,0,1-2.19-.981A5.1,5.1,0,0,1,.73-3.783V-5.351a5.251,5.251,0,0,1,.7-3.028,2.525,2.525,0,0,1,2.209-.99,2.548,2.548,0,0,1,2.2.955,5.068,5.068,0,0,1,.724,2.948ZM5.389-5.548A4.3,4.3,0,0,0,4.97-7.722,1.442,1.442,0,0,0,3.644-8.4a1.423,1.423,0,0,0-1.314.679A4.2,4.2,0,0,0,1.9-5.637v1.879a4.372,4.372,0,0,0,.435,2.212,1.439,1.439,0,0,0,1.317.714A1.42,1.42,0,0,0,4.948-1.5a4.214,4.214,0,0,0,.441-2.12Zm8.474,1.606a5.371,5.371,0,0,1-.7,3.066,2.506,2.506,0,0,1-2.2,1,2.524,2.524,0,0,1-2.19-.981A5.1,5.1,0,0,1,8.03-3.783V-5.351a5.251,5.251,0,0,1,.7-3.028,2.525,2.525,0,0,1,2.209-.99,2.548,2.548,0,0,1,2.2.955,5.068,5.068,0,0,1,.724,2.948ZM12.689-5.548a4.3,4.3,0,0,0-.419-2.174A1.442,1.442,0,0,0,10.943-8.4a1.423,1.423,0,0,0-1.314.679A4.2,4.2,0,0,0,9.2-5.637v1.879a4.372,4.372,0,0,0,.435,2.212,1.439,1.439,0,0,0,1.317.714A1.42,1.42,0,0,0,12.248-1.5a4.214,4.214,0,0,0,.441-2.12Z" transform="translate(-328 -5955)" fill="#12263f"/>
      <path id="Trazado_111044" data-name="Trazado 111044" d="M6.563-3.942a5.371,5.371,0,0,1-.7,3.066,2.506,2.506,0,0,1-2.2,1,2.524,2.524,0,0,1-2.19-.981A5.1,5.1,0,0,1,.73-3.783V-5.351a5.251,5.251,0,0,1,.7-3.028,2.525,2.525,0,0,1,2.209-.99,2.548,2.548,0,0,1,2.2.955,5.068,5.068,0,0,1,.724,2.948ZM5.389-5.548A4.3,4.3,0,0,0,4.97-7.722,1.442,1.442,0,0,0,3.644-8.4a1.423,1.423,0,0,0-1.314.679A4.2,4.2,0,0,0,1.9-5.637v1.879a4.372,4.372,0,0,0,.435,2.212,1.439,1.439,0,0,0,1.317.714A1.42,1.42,0,0,0,4.948-1.5a4.214,4.214,0,0,0,.441-2.12ZM11.927,0H10.747V-7.827l-2.368.87V-8.023l3.364-1.263h.184Z" transform="translate(-268 -5955)" fill="#12263f"/>
      <path id="Trazado_111045" data-name="Trazado 111045" d="M4.627,0H3.447V-7.827l-2.368.87V-8.023L4.443-9.287h.184Zm7.3,0H10.747V-7.827l-2.368.87V-8.023l3.364-1.263h.184Z" transform="translate(-208 -5955)" fill="#12263f"/>
      <path id="Trazado_111046" data-name="Trazado 111046" d="M4.627,0H3.447V-7.827l-2.368.87V-8.023L4.443-9.287h.184Zm9.236-3.942a5.371,5.371,0,0,1-.7,3.066,2.506,2.506,0,0,1-2.2,1,2.524,2.524,0,0,1-2.19-.981A5.1,5.1,0,0,1,8.03-3.783V-5.351a5.251,5.251,0,0,1,.7-3.028,2.525,2.525,0,0,1,2.209-.99,2.548,2.548,0,0,1,2.2.955,5.068,5.068,0,0,1,.724,2.948ZM12.689-5.548a4.3,4.3,0,0,0-.419-2.174A1.442,1.442,0,0,0,10.943-8.4a1.423,1.423,0,0,0-1.314.679A4.2,4.2,0,0,0,9.2-5.637v1.879a4.372,4.372,0,0,0,.435,2.212,1.439,1.439,0,0,0,1.317.714A1.42,1.42,0,0,0,12.248-1.5a4.214,4.214,0,0,0,.441-2.12Z" transform="translate(-149 -5955)" fill="#12263f"/>
      <path id="Trazado_111057" data-name="Trazado 111057" d="M6.563-3.942a5.371,5.371,0,0,1-.7,3.066,2.506,2.506,0,0,1-2.2,1,2.524,2.524,0,0,1-2.19-.981A5.1,5.1,0,0,1,.73-3.783V-5.351a5.251,5.251,0,0,1,.7-3.028,2.525,2.525,0,0,1,2.209-.99,2.548,2.548,0,0,1,2.2.955,5.068,5.068,0,0,1,.724,2.948ZM5.389-5.548A4.3,4.3,0,0,0,4.97-7.722,1.442,1.442,0,0,0,3.644-8.4a1.423,1.423,0,0,0-1.314.679A4.2,4.2,0,0,0,1.9-5.637v1.879a4.372,4.372,0,0,0,.435,2.212,1.439,1.439,0,0,0,1.317.714A1.42,1.42,0,0,0,4.948-1.5a4.214,4.214,0,0,0,.441-2.12Z" transform="translate(-370 -5917)" fill="#12263f"/>
      <path id="Trazado_111048" data-name="Trazado 111048" d="M6.563-3.942a5.371,5.371,0,0,1-.7,3.066,2.506,2.506,0,0,1-2.2,1,2.524,2.524,0,0,1-2.19-.981A5.1,5.1,0,0,1,.73-3.783V-5.351a5.251,5.251,0,0,1,.7-3.028,2.525,2.525,0,0,1,2.209-.99,2.548,2.548,0,0,1,2.2.955,5.068,5.068,0,0,1,.724,2.948ZM5.389-5.548A4.3,4.3,0,0,0,4.97-7.722,1.442,1.442,0,0,0,3.644-8.4a1.423,1.423,0,0,0-1.314.679A4.2,4.2,0,0,0,1.9-5.637v1.879a4.372,4.372,0,0,0,.435,2.212,1.439,1.439,0,0,0,1.317.714A1.42,1.42,0,0,0,4.948-1.5a4.214,4.214,0,0,0,.441-2.12Z" transform="translate(-326 -5917)" fill="#fff"/>
      <path id="Trazado_111049" data-name="Trazado 111049" d="M6.824,0H.768V-.844L3.967-4.4A7.6,7.6,0,0,0,4.948-5.71a2.188,2.188,0,0,0,.27-1.044A1.658,1.658,0,0,0,4.78-7.941,1.531,1.531,0,0,0,3.612-8.4a1.814,1.814,0,0,0-1.362.5,1.9,1.9,0,0,0-.486,1.387H.59a2.726,2.726,0,0,1,.822-2.063,3.047,3.047,0,0,1,2.2-.787,2.928,2.928,0,0,1,2.038.676,2.306,2.306,0,0,1,.749,1.8,5.287,5.287,0,0,1-1.739,3.25L2.184-.958h4.64Z" transform="translate(-326 -5819)" fill="#fff"/>
      <path id="Trazado_111031" data-name="Trazado 111031" d="M5.726-3.1H7.008v.958H5.726V0H4.545V-2.146H.336v-.692l4.139-6.4h1.25Zm-4.056,0H4.545V-7.636l-.14.254Z" transform="translate(-267 -5917)" fill="#fff"/>
      <path id="Trazado_111032" data-name="Trazado 111032" d="M5.376-9.249v1H5.161a3.092,3.092,0,0,0-2.184.813,3.381,3.381,0,0,0-.939,2.215,2.507,2.507,0,0,1,1.993-.838,2.4,2.4,0,0,1,1.927.851,3.281,3.281,0,0,1,.72,2.2A3.27,3.27,0,0,1,5.9-.73,2.678,2.678,0,0,1,3.815.127,2.638,2.638,0,0,1,1.663-.892,4.038,4.038,0,0,1,.838-3.517v-.451a6.084,6.084,0,0,1,1.089-3.9,4,4,0,0,1,3.24-1.381ZM3.834-5.084a1.874,1.874,0,0,0-1.111.362,1.885,1.885,0,0,0-.7.908v.432a3.032,3.032,0,0,0,.514,1.841,1.541,1.541,0,0,0,1.282.7,1.493,1.493,0,0,0,1.247-.584,2.423,2.423,0,0,0,.454-1.53A2.424,2.424,0,0,0,5.056-4.5,1.475,1.475,0,0,0,3.834-5.084Z" transform="translate(-267 -5819)" fill="#fff"/>
      <path id="Trazado_111033" data-name="Trazado 111033" d="M4.627,0H3.447V-7.827l-2.368.87V-8.023L4.443-9.287h.184Zm9.5,0H8.068V-.844l3.2-3.555a7.6,7.6,0,0,0,.981-1.311,2.188,2.188,0,0,0,.27-1.044,1.658,1.658,0,0,0-.438-1.187A1.531,1.531,0,0,0,10.912-8.4a1.814,1.814,0,0,0-1.362.5,1.9,1.9,0,0,0-.486,1.387H7.89a2.726,2.726,0,0,1,.822-2.063,3.047,3.047,0,0,1,2.2-.787,2.928,2.928,0,0,1,2.038.676,2.306,2.306,0,0,1,.749,1.8,5.287,5.287,0,0,1-1.739,3.25L9.483-.958h4.64Z" transform="translate(-209 -5917)" fill="#fff"/>
      <path id="Trazado_111021" data-name="Trazado 111021" d="M4.627,0H3.447V-7.827l-2.368.87V-8.023L4.443-9.287h.184Zm8.4-3.1h1.282v.958H13.025V0H11.845V-2.146H7.636v-.692l4.139-6.4h1.25Zm-4.056,0h2.875V-7.636l-.14.254Z" transform="translate(-209 -5819)" fill="#fff"/>
      <path id="Trazado_111034" data-name="Trazado 111034" d="M6.373-6.83A2.146,2.146,0,0,1,6.008-5.6a2.483,2.483,0,0,1-.987.844,2.649,2.649,0,0,1,1.146.908,2.284,2.284,0,0,1,.422,1.352A2.415,2.415,0,0,1,5.78-.584,3.109,3.109,0,0,1,3.65.127,3.1,3.1,0,0,1,1.514-.587a2.426,2.426,0,0,1-.8-1.907A2.352,2.352,0,0,1,1.12-3.847a2.548,2.548,0,0,1,1.133-.914A2.422,2.422,0,0,1,1.282-5.6,2.177,2.177,0,0,1,.927-6.83a2.389,2.389,0,0,1,.749-1.854A2.81,2.81,0,0,1,3.65-9.369a2.812,2.812,0,0,1,1.971.686A2.384,2.384,0,0,1,6.373-6.83ZM5.415-2.52a1.7,1.7,0,0,0-.492-1.263,1.745,1.745,0,0,0-1.285-.489,1.714,1.714,0,0,0-1.273.482,1.723,1.723,0,0,0-.479,1.27,1.641,1.641,0,0,0,.467,1.238,1.791,1.791,0,0,0,1.3.451,1.786,1.786,0,0,0,1.295-.454A1.637,1.637,0,0,0,5.415-2.52ZM3.65-8.4a1.515,1.515,0,0,0-1.12.428A1.574,1.574,0,0,0,2.1-6.811a1.566,1.566,0,0,0,.422,1.139,1.5,1.5,0,0,0,1.127.435,1.5,1.5,0,0,0,1.127-.435A1.566,1.566,0,0,0,5.2-6.811,1.567,1.567,0,0,0,4.761-7.96,1.494,1.494,0,0,0,3.65-8.4Z" transform="translate(-145 -5917)" fill="#fff"/>
      <path id="Trazado_111022" data-name="Trazado 111022" d="M4.627,0H3.447V-7.827l-2.368.87V-8.023L4.443-9.287h.184Zm9.236-3.942a5.371,5.371,0,0,1-.7,3.066,2.506,2.506,0,0,1-2.2,1,2.524,2.524,0,0,1-2.19-.981A5.1,5.1,0,0,1,8.03-3.783V-5.351a5.251,5.251,0,0,1,.7-3.028,2.525,2.525,0,0,1,2.209-.99,2.548,2.548,0,0,1,2.2.955,5.068,5.068,0,0,1,.724,2.948ZM12.689-5.548a4.3,4.3,0,0,0-.419-2.174A1.442,1.442,0,0,0,10.943-8.4a1.423,1.423,0,0,0-1.314.679A4.2,4.2,0,0,0,9.2-5.637v1.879a4.372,4.372,0,0,0,.435,2.212,1.439,1.439,0,0,0,1.317.714A1.42,1.42,0,0,0,12.248-1.5a4.214,4.214,0,0,0,.441-2.12Z" transform="translate(-149 -5819)" fill="#fff"/>
      <path id="Trazado_111052" data-name="Trazado 111052" d="M6.563-3.942a5.371,5.371,0,0,1-.7,3.066,2.506,2.506,0,0,1-2.2,1,2.524,2.524,0,0,1-2.19-.981A5.1,5.1,0,0,1,.73-3.783V-5.351a5.251,5.251,0,0,1,.7-3.028,2.525,2.525,0,0,1,2.209-.99,2.548,2.548,0,0,1,2.2.955,5.068,5.068,0,0,1,.724,2.948ZM5.389-5.548A4.3,4.3,0,0,0,4.97-7.722,1.442,1.442,0,0,0,3.644-8.4a1.423,1.423,0,0,0-1.314.679A4.2,4.2,0,0,0,1.9-5.637v1.879a4.372,4.372,0,0,0,.435,2.212,1.439,1.439,0,0,0,1.317.714A1.42,1.42,0,0,0,4.948-1.5a4.214,4.214,0,0,0,.441-2.12ZM11.927,0H10.747V-7.827l-2.368.87V-8.023l3.364-1.263h.184Z" transform="translate(-373 -5868)" fill="#12263f"/>
      <path id="Trazado_111053" data-name="Trazado 111053" d="M4.627,0H3.447V-7.827l-2.368.87V-8.023L4.443-9.287h.184Zm7.3,0H10.747V-7.827l-2.368.87V-8.023l3.364-1.263h.184Z" transform="translate(-373 -5819)" fill="#12263f"/>
      <path id="Trazado_111054" data-name="Trazado 111054" d="M4.627,0H3.447V-7.827l-2.368.87V-8.023L4.443-9.287h.184Zm9.236-3.942a5.371,5.371,0,0,1-.7,3.066,2.506,2.506,0,0,1-2.2,1,2.524,2.524,0,0,1-2.19-.981A5.1,5.1,0,0,1,8.03-3.783V-5.351a5.251,5.251,0,0,1,.7-3.028,2.525,2.525,0,0,1,2.209-.99,2.548,2.548,0,0,1,2.2.955,5.068,5.068,0,0,1,.724,2.948ZM12.689-5.548a4.3,4.3,0,0,0-.419-2.174A1.442,1.442,0,0,0,10.943-8.4a1.423,1.423,0,0,0-1.314.679A4.2,4.2,0,0,0,9.2-5.637v1.879a4.372,4.372,0,0,0,.435,2.212,1.439,1.439,0,0,0,1.317.714A1.42,1.42,0,0,0,12.248-1.5a4.214,4.214,0,0,0,.441-2.12Z" transform="translate(-373 -5770)" fill="#12263f"/>
      <path id="Trazado_111050" data-name="Trazado 111050" d="M4.627,0H3.447V-7.827l-2.368.87V-8.023L4.443-9.287h.184Z" transform="translate(-326 -5868)" fill="#fff"/>
      <path id="Trazado_111051" data-name="Trazado 111051" d="M2.476-5.192h.882A1.939,1.939,0,0,0,4.666-5.63a1.463,1.463,0,0,0,.476-1.149A1.434,1.434,0,0,0,3.523-8.4a1.684,1.684,0,0,0-1.216.435,1.522,1.522,0,0,0-.454,1.152H.679a2.358,2.358,0,0,1,.8-1.825,2.925,2.925,0,0,1,2.041-.727,2.891,2.891,0,0,1,2.05.692,2.5,2.5,0,0,1,.743,1.923,2.029,2.029,0,0,1-.39,1.168,2.357,2.357,0,0,1-1.063.844,2.271,2.271,0,0,1,1.177.8,2.221,2.221,0,0,1,.416,1.365A2.521,2.521,0,0,1,5.643-.6a3.043,3.043,0,0,1-2.114.73,3.123,3.123,0,0,1-2.117-.7A2.337,2.337,0,0,1,.6-2.437H1.777A1.511,1.511,0,0,0,2.253-1.27a1.811,1.811,0,0,0,1.276.438,1.777,1.777,0,0,0,1.3-.444,1.712,1.712,0,0,0,.451-1.276,1.554,1.554,0,0,0-.5-1.238,2.157,2.157,0,0,0-1.428-.444H2.476Z" transform="translate(-326 -5770)" fill="#fff"/>
      <path id="Trazado_111035" data-name="Trazado 111035" d="M1.308-4.634l.47-4.608H6.513v1.085H2.774l-.279,2.52a2.983,2.983,0,0,1,1.542-.4A2.55,2.55,0,0,1,6.043-5.2a3.271,3.271,0,0,1,.743,2.257A3.158,3.158,0,0,1,6.014-.7,2.811,2.811,0,0,1,3.859.127a2.921,2.921,0,0,1-2-.679A2.711,2.711,0,0,1,.978-2.431H2.088a1.865,1.865,0,0,0,.565,1.2,1.757,1.757,0,0,0,1.206.4A1.585,1.585,0,0,0,5.145-1.39a2.335,2.335,0,0,0,.467-1.542,2.143,2.143,0,0,0-.5-1.489,1.717,1.717,0,0,0-1.343-.562,1.936,1.936,0,0,0-1.206.336l-.311.254Z" transform="translate(-267 -5868)" fill="#fff"/>
      <path id="Trazado_111036" data-name="Trazado 111036" d="M6.735-8.582,2.907,0H1.676L5.491-8.277h-5v-.965H6.735Z" transform="translate(-267 -5770)" fill="#fff"/>
      <path id="Trazado_111037" data-name="Trazado 111037" d="M4.627,0H3.447V-7.827l-2.368.87V-8.023L4.443-9.287h.184ZM9.775-5.192h.882a1.939,1.939,0,0,0,1.308-.438,1.463,1.463,0,0,0,.476-1.149A1.434,1.434,0,0,0,10.823-8.4a1.684,1.684,0,0,0-1.216.435,1.522,1.522,0,0,0-.454,1.152H7.979a2.358,2.358,0,0,1,.8-1.825,2.925,2.925,0,0,1,2.041-.727,2.891,2.891,0,0,1,2.05.692,2.5,2.5,0,0,1,.743,1.923,2.029,2.029,0,0,1-.39,1.168,2.357,2.357,0,0,1-1.063.844,2.271,2.271,0,0,1,1.177.8,2.221,2.221,0,0,1,.416,1.365A2.521,2.521,0,0,1,12.943-.6a3.043,3.043,0,0,1-2.114.73,3.123,3.123,0,0,1-2.117-.7A2.337,2.337,0,0,1,7.9-2.437H9.077A1.511,1.511,0,0,0,9.553-1.27a1.811,1.811,0,0,0,1.276.438,1.777,1.777,0,0,0,1.3-.444,1.712,1.712,0,0,0,.451-1.276,1.554,1.554,0,0,0-.5-1.238,2.157,2.157,0,0,0-1.428-.444H9.775Z" transform="translate(-209 -5868)" fill="#fff"/>
      <path id="Trazado_111023" data-name="Trazado 111023" d="M4.627,0H3.447V-7.827l-2.368.87V-8.023L4.443-9.287h.184Zm3.98-4.634.47-4.608h4.735v1.085H10.074l-.279,2.52a2.983,2.983,0,0,1,1.542-.4,2.55,2.55,0,0,1,2.006.835,3.271,3.271,0,0,1,.743,2.257A3.158,3.158,0,0,1,13.314-.7a2.811,2.811,0,0,1-2.155.822,2.921,2.921,0,0,1-2-.679,2.711,2.711,0,0,1-.882-1.879H9.388a1.865,1.865,0,0,0,.565,1.2,1.757,1.757,0,0,0,1.206.4,1.585,1.585,0,0,0,1.285-.559,2.335,2.335,0,0,0,.467-1.542,2.143,2.143,0,0,0-.5-1.489,1.717,1.717,0,0,0-1.343-.562,1.936,1.936,0,0,0-1.206.336l-.311.254Z" transform="translate(-209 -5770)" fill="#fff"/>
      <path id="Trazado_111038" data-name="Trazado 111038" d="M5.269-4.062a2.873,2.873,0,0,1-.879.7,2.385,2.385,0,0,1-1.12.267,2.463,2.463,0,0,1-1.393-.394A2.558,2.558,0,0,1,.958-4.593,3.776,3.776,0,0,1,.635-6.17,3.847,3.847,0,0,1,.987-7.839a2.588,2.588,0,0,1,1-1.136A2.851,2.851,0,0,1,3.5-9.369,2.581,2.581,0,0,1,5.659-8.344a4.471,4.471,0,0,1,.79,2.8v.343A5.974,5.974,0,0,1,5.383-1.266,4.1,4.1,0,0,1,2.165.006H1.936v-1h.248a3.233,3.233,0,0,0,2.234-.757A3.248,3.248,0,0,0,5.269-4.062Zm-1.809,0a1.813,1.813,0,0,0,1.089-.362,2.133,2.133,0,0,0,.727-.9v-.47a3.232,3.232,0,0,0-.5-1.879A1.5,1.5,0,0,0,3.5-8.392,1.508,1.508,0,0,0,2.26-7.8a2.448,2.448,0,0,0-.47,1.565,2.548,2.548,0,0,0,.454,1.558A1.437,1.437,0,0,0,3.459-4.062Z" transform="translate(-145 -5868)" fill="#fff"/>
      <path id="Trazado_111024" data-name="Trazado 111024" d="M4.627,0H3.447V-7.827l-2.368.87V-8.023L4.443-9.287h.184Zm7.3,0H10.747V-7.827l-2.368.87V-8.023l3.364-1.263h.184Z" transform="translate(-149 -5770)" fill="#fff"/>
      <path id="Trazado_111055" data-name="Trazado 111055" d="M28.287,27.478,0,0" transform="translate(-377.706 -5969.261)" fill="none" stroke="#0155a0" stroke-width="3"/>
      <path id="Trazado_111058" data-name="Trazado 111058" d="M7.377-2.777A3.08,3.08,0,0,1,6.369-.647,3.436,3.436,0,0,1,4.031.117a3.327,3.327,0,0,1-1.8-.483,3.173,3.173,0,0,1-1.2-1.374A4.958,4.958,0,0,1,.6-3.809v-.8a4.994,4.994,0,0,1,.428-2.127A3.224,3.224,0,0,1,2.253-8.15a3.424,3.424,0,0,1,1.849-.5,3.3,3.3,0,0,1,2.273.765,3.2,3.2,0,0,1,1,2.165H5.9a2.107,2.107,0,0,0-.536-1.327A1.772,1.772,0,0,0,4.1-7.453a1.731,1.731,0,0,0-1.485.707,3.532,3.532,0,0,0-.53,2.073v.757a3.747,3.747,0,0,0,.5,2.111,1.643,1.643,0,0,0,1.45.727,1.917,1.917,0,0,0,1.313-.393A2.047,2.047,0,0,0,5.9-2.777ZM8.7,0V-8.531h2.52a3.952,3.952,0,0,1,2.007.5A3.436,3.436,0,0,1,14.584-6.6a4.538,4.538,0,0,1,.48,2.121v.428a4.519,4.519,0,0,1-.483,2.133A3.4,3.4,0,0,1,13.2-.5a4.135,4.135,0,0,1-2.048.5Zm1.482-7.336V-1.2h.967a2.228,2.228,0,0,0,1.79-.728,3.167,3.167,0,0,0,.636-2.091v-.474a3.25,3.25,0,0,0-.6-2.117,2.142,2.142,0,0,0-1.752-.731Z" transform="translate(-382 -5941)" fill="#0155a0"/>
      <path id="Trazado_111056" data-name="Trazado 111056" d="M5.643-1.986h-3.3L1.646,0H.105L3.328-8.531h1.33L7.887,0H6.34Zm-2.889-1.2H5.227L3.99-6.721ZM8.854,0V-8.531h2.924a3.57,3.57,0,0,1,2.2.58,2.043,2.043,0,0,1,.756,1.729,1.842,1.842,0,0,1-.316,1.055,2.037,2.037,0,0,1-.926.727,1.883,1.883,0,0,1,1.069.706,2.056,2.056,0,0,1,.378,1.245,2.271,2.271,0,0,1-.771,1.846A3.35,3.35,0,0,1,11.965,0Zm1.482-3.85V-1.2h1.646a1.6,1.6,0,0,0,1.09-.344,1.205,1.205,0,0,0,.393-.957A1.215,1.215,0,0,0,12.105-3.85Zm0-1.09h1.453a1.68,1.68,0,0,0,1.081-.313,1.074,1.074,0,0,0,.39-.888,1.089,1.089,0,0,0-.36-.914,1.82,1.82,0,0,0-1.122-.281H10.336Z" transform="translate(-366 -5965)" fill="#0155a0"/>
    </g>
  </g>
</svg>
