<svg xmlns="http://www.w3.org/2000/svg" xmlns:xlink="http://www.w3.org/1999/xlink" width="387.408" height="368.8" viewBox="0 0 387.408 368.8">
  <defs>
    <clipPath id="clip-path">
      <rect id="Rectángulo_9440" data-name="Rectángulo 9440" width="387.408" height="368.8" transform="translate(0 0)" fill="none"/>
    </clipPath>
  </defs>
  <g id="Grupo_66017" data-name="Grupo 66017" transform="translate(-822.592 -4415.695)">
    <g id="Grupo_59626" data-name="Grupo 59626" transform="translate(822.592 4415.695)">
      <g id="Grupo_59625" data-name="Grupo 59625" transform="translate(0 0)" clip-path="url(#clip-path)">
        <path id="Trazado_107101" data-name="Trazado 107101" d="M15.632,207.023c-8.292,10.244-5.318,26.23-5.166,39.679.592,52.468,5.2,105.337,10.575,157.519,3.008,29.189,12.156,28.358,38.766,32.516,9.486,1.482,19.657,1.707,23.84,13.741,3.327,9.575-2.012,20.384.869,29.211,5.7-8.617,13.651-15.482,21.188-22.466,25.5-23.624,64.666-26.068,97.516-28.664,43.332-3.423,86.26-9.809,129.782-11.936,19.106-.933,18.8-18.822,20.285-34.044,5.614-57.689,5.686-116.29,3.274-174.156-.8-19.078-17.189-27.057-34.369-28.127-51.795-3.227-103.483.352-155.111,3.641-26.761,1.7-53.84,3.786-80.58,5.59-19.364,1.307-57.6,1.105-70.869,17.5" transform="translate(25.791 -114.356)" fill="#fff"/>
        <path id="Trazado_107102" data-name="Trazado 107102" d="M6.561,198.587a4.167,4.167,0,0,1,.259-.348q.133-.17.271-.315c6.161-7.184,15.678-10.807,24.627-13.039,10.513-2.622,21.417-3.6,32.206-4.273,28.411-1.765,56.8-3.832,85.2-5.737,32.816-2.2,65.664-4.437,98.547-5.317,16.458-.44,32.93-.507,49.387.028,12.819.417,26.421.051,38.339,5.48,9.714,4.425,16.631,12.936,18.078,23.605,1.031,7.6.812,15.515,1.05,23.177q.38,12.194.586,24.393c.535,32.566.055,65.162-1.994,97.672-.885,14.043-1.964,28.111-3.473,42.1-.974,9.036-2.837,19.071-11,24.44-4.976,3.272-10.867,3.366-16.6,3.685-8.144.453-16.279,1.048-24.406,1.736-16.036,1.358-32.037,3.082-48.038,4.8-16.192,1.74-32.387,3.476-48.617,4.825-12.6,1.048-25.249,1.829-37.78,3.6-12.249,1.732-24.478,4.307-36.017,8.853A87.8,87.8,0,0,0,110.9,446.4c-5.5,3.642-10.245,8.164-15.055,12.65-5.316,4.958-10.486,10.1-14.566,16.15a3.6,3.6,0,0,1-6.486-.848c-3.112-10.554,3.583-22.495-2.347-32.347-4.427-7.354-14.671-7.336-22.208-8.484-11.9-1.813-26.886-2.47-33.611-14.177-3.888-6.769-4.767-14.95-5.554-22.562q-2.1-20.343-3.957-40.712c-2.439-27.024-4.44-54.093-5.57-81.205-.6-14.336-.539-28.7-1.26-43.026-.58-11.519-.97-23.624,6.278-33.256M7.4,232.3c.624,12.421.564,24.876,1.029,37.307.994,26.529,2.848,53.02,5.157,79.466q1.73,19.806,3.75,39.586c.845,8.364.965,17.822,4.621,25.593,5.175,11,20.334,10.918,30.926,12.543,9.29,1.425,19.2,2.216,25.034,10.631,3.4,4.91,4.37,10.946,4.024,16.8-.192,3.25-.773,6.577-1,9.884,2.627-3.029,5.442-5.9,8.366-8.664A164.29,164.29,0,0,1,103.727,442.8c9.658-7.21,20.959-12.052,32.49-15.376,24.564-7.08,50.482-7.639,75.773-9.987,31.468-2.921,62.828-6.969,94.347-9.354q5.519-.418,11.044-.763c3.824-.237,7.806-.134,11.593-.736a13.318,13.318,0,0,0,9.841-6.388c4.589-7.831,4.132-18.593,4.95-27.352,2.956-31.638,4.258-63.417,4.431-95.188q.13-23.843-.533-47.681-.315-11.889-.79-23.773c-.228-5.758-.648-11.131-3.892-16.078-5.429-8.28-16.157-11.617-25.534-12.436-15.724-1.373-31.668-1.431-47.441-1.377-31.754.107-63.466,1.989-95.147,4-31.749,2.018-63.468,4.481-95.215,6.525-9.546.614-19.108.907-28.626,1.932-9.9,1.067-20.39,2.68-29.414,7.115a28.952,28.952,0,0,0-9.767,7.375c-6.18,7.96-4.907,19.651-4.435,29.046" transform="translate(32.094 -108.082)" fill="#231f20"/>
        <path id="Trazado_107103" data-name="Trazado 107103" d="M960.118,674.388c-.024,25.953.021,54.1,13.836,77.058,3.424,5.691,7.848,11.71,14.683,13.266,3.4.774,1.96,6-1.441,5.225-6.632-1.509-11.577-6.442-15.377-11.828a79.442,79.442,0,0,1-9.429-18.5c-4.817-13.145-6.563-27.255-7.262-41.169-.4-8.01-.436-16.032-.429-24.051,0-3.486,5.422-3.492,5.419,0" transform="translate(-948.043 -429.101)" fill="#231f20"/>
        <path id="Trazado_107104" data-name="Trazado 107104" d="M885.962,942.141l5.627,2.11a2.785,2.785,0,0,1,1.892,3.333,2.731,2.731,0,0,1-3.333,1.892l-5.627-2.11a2.785,2.785,0,0,1-1.892-3.333,2.731,2.731,0,0,1,3.333-1.892" transform="translate(-824.976 -601.719)" fill="#231f20"/>
        <path id="Trazado_107105" data-name="Trazado 107105" d="M986.536,174.633c-10.169,1.772-20.42,5.458-27.839,12.907-7.805,7.838-11.115,19.01-11.973,29.793a151.234,151.234,0,0,0,.227,21.487c.219,3.482-5.2,3.469-5.419,0-.8-12.765-1.207-25.988,3.1-38.236a44.056,44.056,0,0,1,22.041-25.293,66.5,66.5,0,0,1,18.427-5.883c3.41-.595,4.875,4.626,1.441,5.225" transform="translate(-941.02 -108.18)" fill="#231f20"/>
        <path id="Trazado_107106" data-name="Trazado 107106" d="M886.066,74.953c6.709,3.023,9.16,5.473,12.182,12.182,3.023-6.709,5.473-9.159,12.182-12.182-6.709-3.023-9.159-5.473-12.182-12.182-3.023,6.709-5.473,9.159-12.182,12.182" transform="translate(-843.103 -40.095)" fill="#231f20"/>
        <path id="Trazado_107107" data-name="Trazado 107107" d="M932.068,6.805c3.749,1.689,5.119,3.059,6.808,6.808,1.689-3.75,3.059-5.119,6.808-6.808-3.749-1.689-5.119-3.059-6.808-6.808-1.69,3.75-3.059,5.119-6.808,6.808" transform="translate(-894.975 0.003)" fill="#231f20"/>
        <path id="Trazado_107108" data-name="Trazado 107108" d="M852.474,38.955a6.067,6.067,0,0,1,3.7,3.7,6.068,6.068,0,0,1,3.7-3.7,6.068,6.068,0,0,1-3.7-3.7,6.067,6.067,0,0,1-3.7,3.7" transform="translate(-780.421 -22.516)" fill="#231f20"/>
      </g>
    </g>
    <path id="Trazado_110957" data-name="Trazado 110957" d="M36.469,27.326H25.149v7.137H38.52V40H17.951V10.141h20.61V15.7H25.149v6.3h11.32Zm12.1-9.516V40.759a8.055,8.055,0,0,1-2.256,6.07,8.666,8.666,0,0,1-6.234,2.133,14.719,14.719,0,0,1-3.261-.349V43.384a13.223,13.223,0,0,0,1.948.185,2.529,2.529,0,0,0,2.871-2.851V17.811Zm-7.444-5.742a3.112,3.112,0,0,1,1.066-2.435,4.512,4.512,0,0,1,5.537,0,3.112,3.112,0,0,1,1.066,2.435A3.112,3.112,0,0,1,47.728,14.5a4.512,4.512,0,0,1-5.537,0A3.112,3.112,0,0,1,41.125,12.068ZM63.211,40.41a11.407,11.407,0,0,1-8.265-3.045,10.517,10.517,0,0,1-3.158-7.926v-.574a13.627,13.627,0,0,1,1.261-6.009,9.229,9.229,0,0,1,3.681-4.03A11.113,11.113,0,0,1,62.473,17.4a9.605,9.605,0,0,1,7.383,2.9q2.707,2.9,2.707,8.09v2.687H58.823a4.981,4.981,0,0,0,1.62,2.933,4.821,4.821,0,0,0,3.24,1.066,6.211,6.211,0,0,0,5.127-2.3l3.158,3.732a8.828,8.828,0,0,1-3.661,2.84A12.37,12.37,0,0,1,63.211,40.41Zm-.779-17.678q-3.035,0-3.609,4.02H65.8v-.533a3.423,3.423,0,0,0-.841-2.574A3.346,3.346,0,0,0,62.432,22.732Zm19.441-4.922.226,2.6A7.629,7.629,0,0,1,88.436,17.4q4.2,0,5.681,3.343a7.385,7.385,0,0,1,6.521-3.343q6.747,0,6.932,8.162V40h-6.932V25.993a4.23,4.23,0,0,0-.574-2.481,2.444,2.444,0,0,0-2.092-.779,3.274,3.274,0,0,0-3.056,1.825l.021.287V40H88.005V26.034a4.446,4.446,0,0,0-.554-2.522,2.437,2.437,0,0,0-2.112-.779A3.314,3.314,0,0,0,82.3,24.558V40H75.393V17.811Zm50.244,11.259a13.381,13.381,0,0,1-2.328,8.254A7.463,7.463,0,0,1,123.5,40.41a6.4,6.4,0,0,1-5.024-2.235V48.531h-6.911V17.811h6.46l.205,2.051a6.4,6.4,0,0,1,5.229-2.461,7.523,7.523,0,0,1,6.378,3.025q2.276,3.025,2.276,8.316Zm-6.911-.431q0-5.906-3.445-5.906A3.253,3.253,0,0,0,118.48,24.5v8.736a3.358,3.358,0,0,0,3.322,1.846q3.3,0,3.4-5.7ZM142.454,40h-6.932V8.5h6.932Zm3.384-11.3a13.1,13.1,0,0,1,1.292-5.917,9.239,9.239,0,0,1,3.712-3.989,11.179,11.179,0,0,1,5.681-1.395,10.2,10.2,0,0,1,7.854,3.086q2.871,3.086,2.871,8.4v.246a11.491,11.491,0,0,1-2.881,8.234,10.23,10.23,0,0,1-7.8,3.045,10.346,10.346,0,0,1-7.608-2.84,11.109,11.109,0,0,1-3.1-7.7Zm6.911.431a8.256,8.256,0,0,0,.964,4.512,3.211,3.211,0,0,0,2.851,1.436q3.691,0,3.773-5.681v-.7q0-5.968-3.814-5.968-3.466,0-3.753,5.147Zm27.132-.39q0-5.271,2.276-8.306a7.493,7.493,0,0,1,6.357-3.035,6.373,6.373,0,0,1,5,2.338V8.5h6.932V40h-6.214l-.349-2.379a6.544,6.544,0,0,1-5.414,2.789,7.479,7.479,0,0,1-6.275-3.035Q179.88,34.34,179.88,28.741Zm6.911.431q0,5.906,3.445,5.906a3.4,3.4,0,0,0,3.281-1.928V24.7a3.311,3.311,0,0,0-3.24-1.969q-3.2,0-3.466,5.168ZM215.113,40.41a11.407,11.407,0,0,1-8.265-3.045,10.517,10.517,0,0,1-3.158-7.926v-.574a13.627,13.627,0,0,1,1.261-6.009,9.229,9.229,0,0,1,3.681-4.03,11.113,11.113,0,0,1,5.742-1.425,9.605,9.605,0,0,1,7.383,2.9q2.707,2.9,2.707,8.09v2.687h-13.74a4.981,4.981,0,0,0,1.62,2.933,4.821,4.821,0,0,0,3.24,1.066,6.211,6.211,0,0,0,5.127-2.3l3.158,3.732a8.828,8.828,0,0,1-3.661,2.84A12.37,12.37,0,0,1,215.113,40.41Zm-.779-17.678q-3.035,0-3.609,4.02H217.7v-.533a3.423,3.423,0,0,0-.841-2.574A3.346,3.346,0,0,0,214.333,22.732ZM40.161,80.422H30.3L28.574,86h-7.69L31.834,56.141H38.6L49.635,86H41.9Zm-8.142-5.558h6.419l-3.22-10.356Zm39.088.205a13.381,13.381,0,0,1-2.328,8.254,7.463,7.463,0,0,1-6.286,3.086,6.4,6.4,0,0,1-5.024-2.235V94.531H50.558V63.811h6.46l.205,2.051A6.4,6.4,0,0,1,62.453,63.4a7.523,7.523,0,0,1,6.378,3.025q2.276,3.025,2.276,8.316ZM64.2,74.639q0-5.906-3.445-5.906A3.253,3.253,0,0,0,57.469,70.5v8.736a3.358,3.358,0,0,0,3.322,1.846q3.3,0,3.4-5.7ZM81.443,86H74.511V54.5h6.932Zm11.546,0H86.057V63.811h6.932ZM85.647,58.068a3.112,3.112,0,0,1,1.066-2.435,4.512,4.512,0,0,1,5.537,0,3.312,3.312,0,0,1,0,4.869,4.512,4.512,0,0,1-5.537,0A3.112,3.112,0,0,1,85.647,58.068Zm20.979,23.01a3.074,3.074,0,0,0,2.256-.79,2.9,2.9,0,0,0,.779-2.2h6.48a7.672,7.672,0,0,1-2.615,5.988,9.726,9.726,0,0,1-6.737,2.338,9.847,9.847,0,0,1-7.629-3.035q-2.789-3.035-2.789-8.408V74.68a13.516,13.516,0,0,1,1.241-5.937,9.034,9.034,0,0,1,3.579-3.958,10.67,10.67,0,0,1,5.537-1.384,9.6,9.6,0,0,1,6.87,2.4,8.51,8.51,0,0,1,2.543,6.5h-6.48a3.794,3.794,0,0,0-.841-2.646,2.9,2.9,0,0,0-2.256-.923q-2.687,0-3.138,3.425a24.166,24.166,0,0,0-.144,2.994,9.492,9.492,0,0,0,.8,4.635A2.769,2.769,0,0,0,106.626,81.078ZM131.564,86a7.8,7.8,0,0,1-.656-1.989,6.426,6.426,0,0,1-5.332,2.4,7.873,7.873,0,0,1-5.332-1.9,6.038,6.038,0,0,1-2.194-4.768,6.206,6.206,0,0,1,2.666-5.455q2.666-1.846,7.752-1.846H130.6V71.27q0-3.07-2.646-3.07a2.162,2.162,0,0,0-2.461,2.432h-6.911a6.2,6.2,0,0,1,2.738-5.223A11.506,11.506,0,0,1,128.3,63.4a10.088,10.088,0,0,1,6.706,2.071,7.2,7.2,0,0,1,2.522,5.681v9.823a10.06,10.06,0,0,0,.943,4.676V86Zm-4.327-4.512a3.855,3.855,0,0,0,2.143-.554,3.47,3.47,0,0,0,1.22-1.251V76.136h-2.01q-3.609,0-3.609,3.24a1.978,1.978,0,0,0,.636,1.528A2.3,2.3,0,0,0,127.237,81.488Zm23.5-.41a3.074,3.074,0,0,0,2.256-.79,2.9,2.9,0,0,0,.779-2.2h6.48a7.672,7.672,0,0,1-2.615,5.988A9.726,9.726,0,0,1,150.9,86.41a9.847,9.847,0,0,1-7.629-3.035q-2.789-3.035-2.789-8.408V74.68a13.516,13.516,0,0,1,1.241-5.937,9.034,9.034,0,0,1,3.579-3.958,10.67,10.67,0,0,1,5.537-1.384,9.6,9.6,0,0,1,6.87,2.4,8.51,8.51,0,0,1,2.543,6.5h-6.48a3.794,3.794,0,0,0-.841-2.646,2.9,2.9,0,0,0-2.256-.923q-2.687,0-3.138,3.425a24.166,24.166,0,0,0-.144,2.994,9.492,9.492,0,0,0,.8,4.635A2.769,2.769,0,0,0,150.739,81.078ZM170.467,86h-6.932V63.811h6.932Zm-7.342-27.932a3.112,3.112,0,0,1,1.066-2.435,4.512,4.512,0,0,1,5.537,0,3.312,3.312,0,0,1,0,4.869,4.512,4.512,0,0,1-5.537,0A3.112,3.112,0,0,1,163.125,58.068ZM173.851,74.7a13.1,13.1,0,0,1,1.292-5.917,9.239,9.239,0,0,1,3.712-3.989,11.179,11.179,0,0,1,5.681-1.395,10.2,10.2,0,0,1,7.854,3.086q2.871,3.086,2.871,8.4v.246a11.491,11.491,0,0,1-2.881,8.234,10.23,10.23,0,0,1-7.8,3.045,10.346,10.346,0,0,1-7.608-2.84,11.109,11.109,0,0,1-3.1-7.7Zm6.911.431a8.256,8.256,0,0,0,.964,4.512,3.211,3.211,0,0,0,2.851,1.436q3.691,0,3.773-5.681v-.7q0-5.968-3.814-5.968-3.466,0-3.753,5.147ZM185.479,54.5h7.3l-5.7,6.439-5.64-.01Zm19.175,9.311.226,2.6a7.525,7.525,0,0,1,6.337-3.015,6.331,6.331,0,0,1,5.178,2.071q1.712,2.071,1.774,6.234V86h-6.932V71.993a3.744,3.744,0,0,0-.677-2.471,3.131,3.131,0,0,0-2.461-.79,3.3,3.3,0,0,0-3.015,1.6V86h-6.911V63.811Z" transform="translate(913 4541.032)" fill="#12263f"/>
  </g>
</svg>
