<svg xmlns="http://www.w3.org/2000/svg" width="170" height="54.02" viewBox="0 0 170 54.02">
  <g id="Grupo_66050" data-name="Grupo 66050" transform="translate(1379 7244)">
    <path id="Trazado_110951" data-name="Trazado 110951" d="M23.5,0h123C159.479,0,170,12.093,170,27.01s-10.521,27.01-23.5,27.01H23.5C10.521,54.02,0,41.927,0,27.01S10.521,0,23.5,0Z" transform="translate(-1379 -7244)" fill="#fff"/>
    <path id="Trazado_110952" data-name="Trazado 110952" d="M-61.978-2.656h-4.7L-67.5,0h-3.662l5.215-14.219h3.223L-57.466,0h-3.682ZM-65.854-5.3H-62.8l-1.533-4.932Zm20.186-2.764h3.33v2.822h-3.33v3.818h-3.076V-5.244h-3.34V-8.066h3.34v-3.711h3.076ZM-35.786,0V-14.219h5.107A7.232,7.232,0,0,1-26.5-13.213a3.347,3.347,0,0,1,1.431,2.92,3.383,3.383,0,0,1-.508,1.885,2.959,2.959,0,0,1-1.494,1.152,3,3,0,0,1,1.709,1.094,3.18,3.18,0,0,1,.6,1.953,3.765,3.765,0,0,1-1.323,3.14A6.3,6.3,0,0,1-30.015,0Zm3.428-6.045v3.408h2.246a2.136,2.136,0,0,0,1.426-.425,1.487,1.487,0,0,0,.5-1.2,1.576,1.576,0,0,0-1.768-1.787Zm0-2.246h1.787a2.539,2.539,0,0,0,1.6-.411,1.46,1.46,0,0,0,.479-1.185,1.533,1.533,0,0,0-.518-1.3,2.77,2.77,0,0,0-1.67-.4h-1.68Zm20.234.225h3.33v2.822h-3.33v3.818H-15.2V-5.244h-3.34V-8.066h3.34v-3.711h3.076ZM9.263-4.814a5.193,5.193,0,0,1-.8,2.622A4.833,4.833,0,0,1,6.406-.43,7,7,0,0,1,3.384.2,5.584,5.584,0,0,1-1.03-1.631,7.54,7.54,0,0,1-2.642-6.787v-.7a8.607,8.607,0,0,1,.728-3.657A5.513,5.513,0,0,1,.181-13.569a5.844,5.844,0,0,1,3.164-.854A6.129,6.129,0,0,1,7.5-13.062,5.383,5.383,0,0,1,9.292-9.307H5.874a2.547,2.547,0,0,0-.654-1.865,2.691,2.691,0,0,0-1.875-.566,2.048,2.048,0,0,0-1.875.957A6.151,6.151,0,0,0,.845-7.725v1.006a6.806,6.806,0,0,0,.571,3.252,2.091,2.091,0,0,0,1.968.977A2.632,2.632,0,0,0,5.19-3.047a2.363,2.363,0,0,0,.664-1.768Zm15.82-2.236H16.04V-9.59h9.043Zm0,4.287H16.04V-5.3h9.043Zm15.547.107h-4.7L35.112,0H31.45l5.215-14.219h3.223L45.142,0H41.46ZM36.753-5.3H39.81l-1.533-4.932ZM46.177,0V-14.219h5.107a7.232,7.232,0,0,1,4.175,1.006,3.347,3.347,0,0,1,1.431,2.92,3.383,3.383,0,0,1-.508,1.885,2.959,2.959,0,0,1-1.494,1.152A3,3,0,0,1,56.6-6.162a3.18,3.18,0,0,1,.6,1.953,3.765,3.765,0,0,1-1.323,3.14A6.3,6.3,0,0,1,51.948,0ZM49.6-6.045v3.408h2.246a2.136,2.136,0,0,0,1.426-.425,1.487,1.487,0,0,0,.5-1.2,1.576,1.576,0,0,0-1.768-1.787Zm0-2.246h1.787a2.539,2.539,0,0,0,1.6-.411,1.46,1.46,0,0,0,.479-1.185,1.533,1.533,0,0,0-.518-1.3,2.77,2.77,0,0,0-1.67-.4H49.6ZM70.581-4.814a5.193,5.193,0,0,1-.8,2.622A4.833,4.833,0,0,1,67.725-.43,7,7,0,0,1,64.7.2a5.584,5.584,0,0,1-4.414-1.826,7.54,7.54,0,0,1-1.611-5.156v-.7a8.607,8.607,0,0,1,.728-3.657A5.513,5.513,0,0,1,61.5-13.569a5.844,5.844,0,0,1,3.164-.854,6.129,6.129,0,0,1,4.16,1.362A5.383,5.383,0,0,1,70.61-9.307H67.192a2.547,2.547,0,0,0-.654-1.865,2.691,2.691,0,0,0-1.875-.566,2.048,2.048,0,0,0-1.875.957,6.151,6.151,0,0,0-.625,3.057v1.006a6.806,6.806,0,0,0,.571,3.252A2.091,2.091,0,0,0,64.7-2.49a2.632,2.632,0,0,0,1.807-.557,2.363,2.363,0,0,0,.664-1.768Z" transform="translate(-1295.666 -7208.798)" fill="#43babe"/>
    <path id="Trazado_110953" data-name="Trazado 110953" d="M0,0H13" transform="translate(-1366.666 -7231.357)" fill="none" stroke="#43babe" stroke-width="2"/>
    <path id="Trazado_110954" data-name="Trazado 110954" d="M0,0H13" transform="translate(-1333 -7231.357)" fill="none" stroke="#43babe" stroke-width="2"/>
    <path id="Trazado_110955" data-name="Trazado 110955" d="M0,0H13" transform="translate(-1299 -7231.357)" fill="none" stroke="#43babe" stroke-width="2"/>
    <path id="Trazado_110956" data-name="Trazado 110956" d="M0,0H41" transform="translate(-1264 -7231.357)" fill="none" stroke="#43babe" stroke-width="2"/>
  </g>
</svg>
