<svg xmlns="http://www.w3.org/2000/svg" width="98" height="99.063" viewBox="0 0 98 99.063">
  <g id="Grupo_66050" data-name="Grupo 66050" transform="translate(-393 -1716.938)">
    <path id="Unión_6" data-name="Unión 6" d="M16.6,50a28.028,28.028,0,0,0,10.6-10H0V37.334H28.637a27.982,27.982,0,0,0,2.7-12,28.034,28.034,0,0,0-2.679-12H0V10.667H27.211A28,28,0,0,0,16,.356V0H46.917A23.75,23.75,0,0,1,70.664,23.333H98V26H70.573A26.229,26.229,0,0,1,44.417,50Z" transform="translate(393 1766)" fill="#fff"/>
    <path id="Trazado_110946" data-name="Trazado 110946" d="M20.141-10.641A14.073,14.073,0,0,1,19.016-4.8,8.521,8.521,0,0,1,15.828-1,8.77,8.77,0,0,1,11.016.313,8.7,8.7,0,0,1,6.25-1.008,8.725,8.725,0,0,1,3.023-4.773a13.5,13.5,0,0,1-1.18-5.664v-1.641a13.906,13.906,0,0,1,1.141-5.8,8.694,8.694,0,0,1,3.227-3.852,8.658,8.658,0,0,1,4.773-1.336,8.819,8.819,0,0,1,4.82,1.32,8.506,8.506,0,0,1,3.211,3.828,14.142,14.142,0,0,1,1.125,5.836Zm-2.984-1.469a10.2,10.2,0,0,0-1.625-6.211,5.36,5.36,0,0,0-4.547-2.164A5.3,5.3,0,0,0,6.508-18.32a9.991,9.991,0,0,0-1.68,6.008v1.672A10.215,10.215,0,0,0,6.477-4.477a5.325,5.325,0,0,0,4.539,2.242,5.3,5.3,0,0,0,4.5-2.117,10.157,10.157,0,0,0,1.641-6.07ZM32.984-9.2H27.641V0H24.625V-22.75h7.531A8.914,8.914,0,0,1,38.07-21a6.3,6.3,0,0,1,2.07,5.094,6.125,6.125,0,0,1-1.148,3.7,6.856,6.856,0,0,1-3.2,2.359L41.141-.187V0H37.922Zm-5.344-2.453H32.25A5.2,5.2,0,0,0,35.8-12.815a3.917,3.917,0,0,0,1.32-3.1,4.125,4.125,0,0,0-1.258-3.24A5.326,5.326,0,0,0,32.234-20.3H27.641Z" transform="translate(419 1740)" fill="#fff"/>
  </g>
</svg>
