<svg xmlns="http://www.w3.org/2000/svg" xmlns:xlink="http://www.w3.org/1999/xlink" width="163" height="154" viewBox="0 0 163 154">
  <defs>
    <linearGradient id="linear-gradient" x1="0.5" x2="0.5" y2="1" gradientUnits="objectBoundingBox">
      <stop offset="0" stop-color="#47a0e6"/>
      <stop offset="1" stop-color="#0f2771"/>
    </linearGradient>
  </defs>
  <g id="Grupo_66037" data-name="Grupo 66037" transform="translate(-540 -1697)">
    <path id="Trazado_110930" data-name="Trazado 110930" d="M18,0H145a18,18,0,0,1,18,18V136a18,18,0,0,1-18,18H18A18,18,0,0,1,0,136V18A18,18,0,0,1,18,0Z" transform="translate(540 1697)" fill="url(#linear-gradient)"/>
    <path id="Trazado_110931" data-name="Trazado 110931" d="M20.125,0H17.109L5.656-17.531V0H2.641V-22.75H5.656L17.141-5.141V-22.75h2.984ZM42.953-10.641A14.073,14.073,0,0,1,41.828-4.8,8.521,8.521,0,0,1,38.641-1,8.77,8.77,0,0,1,33.828.313a8.7,8.7,0,0,1-4.766-1.32,8.725,8.725,0,0,1-3.227-3.766,13.5,13.5,0,0,1-1.18-5.664v-1.641a13.906,13.906,0,0,1,1.141-5.8,8.694,8.694,0,0,1,3.227-3.852A8.658,8.658,0,0,1,33.8-23.062a8.819,8.819,0,0,1,4.82,1.32,8.506,8.506,0,0,1,3.211,3.828,14.142,14.142,0,0,1,1.125,5.836Zm-2.984-1.469a10.2,10.2,0,0,0-1.625-6.211A5.36,5.36,0,0,0,33.8-20.484,5.3,5.3,0,0,0,29.32-18.32a9.991,9.991,0,0,0-1.68,6.008v1.672a10.215,10.215,0,0,0,1.648,6.164,5.325,5.325,0,0,0,4.539,2.242,5.3,5.3,0,0,0,4.5-2.117,10.157,10.157,0,0,0,1.641-6.07ZM62.75-20.3H55.438V0H52.453V-20.3h-7.3V-22.75H62.75Z" transform="translate(590 1740)" fill="#f6f6f6"/>
    <path id="Trazado_110932" data-name="Trazado 110932" d="M22.026,26.829H0V24.39H22.026V0L62.5,22.049a4.288,4.288,0,0,1,7.821,1.731H93V26.22H69.95a4.292,4.292,0,0,1-6.737,1.342L22.026,50Z" transform="translate(575 1766)" fill="#fff"/>
  </g>
</svg>
