<svg xmlns="http://www.w3.org/2000/svg" width="360" height="260" viewBox="0 0 360 260">
  <g id="Grupo_66012" data-name="Grupo 66012" transform="translate(2684 6294)">
    <path id="Trazado_110596" data-name="Trazado 110596" d="M22,0H338a22,22,0,0,1,22,22V238a22,22,0,0,1-22,22H22A22,22,0,0,1,0,238V22A22,22,0,0,1,22,0Z" transform="translate(-2684 -6294)" fill="#fff"/>
    <path id="Trazado_110608" data-name="Trazado 110608" d="M5.576-14.219,8.75-4.326l3.164-9.893h4.512V0H12.988V-3.32l.332-6.8L9.883,0H7.617L4.17-10.127,4.5-3.32V0H1.074V-14.219ZM24.4,0a3.716,3.716,0,0,1-.312-.947A3.06,3.06,0,0,1,21.553.2a3.749,3.749,0,0,1-2.539-.9,2.875,2.875,0,0,1-1.045-2.271,2.955,2.955,0,0,1,1.27-2.6,6.468,6.468,0,0,1,3.691-.879h1.016v-.559q0-1.462-1.26-1.462a1.03,1.03,0,0,0-1.172,1.158H18.223a2.95,2.95,0,0,1,1.3-2.487,5.479,5.479,0,0,1,3.325-.956,4.8,4.8,0,0,1,3.193.986,3.429,3.429,0,0,1,1.2,2.705v4.678A4.79,4.79,0,0,0,27.7-.166V0ZM22.344-2.148a1.836,1.836,0,0,0,1.021-.264,1.653,1.653,0,0,0,.581-.6V-4.7h-.957q-1.719,0-1.719,1.543a.942.942,0,0,0,.3.728A1.1,1.1,0,0,0,22.344-2.148ZM38.877-5.205a6.372,6.372,0,0,1-1.108,3.931A3.554,3.554,0,0,1,34.775.2,3.046,3.046,0,0,1,32.383-.869V4.063H29.092V-10.566h3.076l.1.977a3.046,3.046,0,0,1,2.49-1.172,3.582,3.582,0,0,1,3.037,1.44,6.45,6.45,0,0,1,1.084,3.96ZM35.586-5.41q0-2.812-1.641-2.812a1.549,1.549,0,0,0-1.562.84v4.16a1.6,1.6,0,0,0,1.582.879q1.572,0,1.621-2.715ZM46.279,0a3.716,3.716,0,0,1-.312-.947A3.06,3.06,0,0,1,43.428.2a3.749,3.749,0,0,1-2.539-.9,2.875,2.875,0,0,1-1.045-2.271,2.955,2.955,0,0,1,1.27-2.6A6.468,6.468,0,0,1,44.8-6.455H45.82v-.559q0-1.462-1.26-1.462a1.03,1.03,0,0,0-1.172,1.158H40.1a2.95,2.95,0,0,1,1.3-2.487,5.479,5.479,0,0,1,3.325-.956,4.8,4.8,0,0,1,3.193.986,3.429,3.429,0,0,1,1.2,2.705v4.678A4.79,4.79,0,0,0,49.57-.166V0ZM44.219-2.148a1.836,1.836,0,0,0,1.021-.264,1.653,1.653,0,0,0,.581-.6V-4.7h-.957q-1.719,0-1.719,1.543a.942.942,0,0,0,.3.728A1.1,1.1,0,0,0,44.219-2.148Z" transform="translate(-2527 -6243)" fill="#12263f"/>
    <path id="Trazado_110597" data-name="Trazado 110597" d="M0,0H71V54H0Z" transform="translate(-2558 -6136)" fill="#68b1f2"/>
    <path id="Trazado_110598" data-name="Trazado 110598" d="M0,0H71V54H0Z" transform="translate(-2483 -6136)" fill="#68b1f2"/>
    <path id="Trazado_110599" data-name="Trazado 110599" d="M0,0H71V54H0Z" transform="translate(-2558 -6197)" fill="#0155a0"/>
    <path id="Trazado_110600" data-name="Trazado 110600" d="M0,0H71V54H0Z" transform="translate(-2483 -6197)" fill="#0155a0"/>
    <path id="Trazado_110604" data-name="Trazado 110604" d="M8.078-4.852a6.61,6.61,0,0,1-.867,3.773A3.084,3.084,0,0,1,4.5.156,3.107,3.107,0,0,1,1.8-1.051,6.274,6.274,0,0,1,.9-4.656v-1.93a6.463,6.463,0,0,1,.867-3.727,3.108,3.108,0,0,1,2.719-1.219,3.136,3.136,0,0,1,2.7,1.176,6.237,6.237,0,0,1,.891,3.629ZM6.633-6.828A5.3,5.3,0,0,0,6.117-9.5a1.775,1.775,0,0,0-1.633-.84,1.751,1.751,0,0,0-1.617.836,5.171,5.171,0,0,0-.523,2.57v2.313A5.381,5.381,0,0,0,2.879-1.9,1.771,1.771,0,0,0,4.5-1.023a1.747,1.747,0,0,0,1.59-.828,5.186,5.186,0,0,0,.543-2.609Z" transform="translate(-2528 -6209)" fill="#12263f"/>
    <path id="Trazado_110605" data-name="Trazado 110605" d="M5.7,0H4.242V-9.633L1.328-8.562V-9.875L5.469-11.43H5.7Z" transform="translate(-2453 -6209)" fill="#12263f"/>
    <path id="Trazado_110602" data-name="Trazado 110602" d="M8.078-4.852a6.61,6.61,0,0,1-.867,3.773A3.084,3.084,0,0,1,4.5.156,3.107,3.107,0,0,1,1.8-1.051,6.274,6.274,0,0,1,.9-4.656v-1.93a6.463,6.463,0,0,1,.867-3.727,3.108,3.108,0,0,1,2.719-1.219,3.136,3.136,0,0,1,2.7,1.176,6.237,6.237,0,0,1,.891,3.629ZM6.633-6.828A5.3,5.3,0,0,0,6.117-9.5a1.775,1.775,0,0,0-1.633-.84,1.751,1.751,0,0,0-1.617.836,5.171,5.171,0,0,0-.523,2.57v2.313A5.381,5.381,0,0,0,2.879-1.9,1.771,1.771,0,0,0,4.5-1.023a1.747,1.747,0,0,0,1.59-.828,5.186,5.186,0,0,0,.543-2.609Z" transform="translate(-2580 -6163)" fill="#12263f"/>
    <path id="Trazado_110601" data-name="Trazado 110601" d="M5.7,0H4.242V-9.633L1.328-8.562V-9.875L5.469-11.43H5.7Z" transform="translate(-2580 -6102)" fill="#12263f"/>
    <path id="Trazado_110603" data-name="Trazado 110603" d="M35,34,0,0" transform="translate(-2589.5 -6228)" fill="none" stroke="#0155a0" stroke-width="3"/>
    <path id="Trazado_110606" data-name="Trazado 110606" d="M1.32,0V-11.375H5.039a4.317,4.317,0,0,1,2.785.766,2.759,2.759,0,0,1,.934,2.266A2.31,2.31,0,0,1,8.3-6.934a2.938,2.938,0,0,1-1.234.949A2.638,2.638,0,0,1,8.527-5a2.814,2.814,0,0,1,.535,1.723A3.042,3.042,0,0,1,8.07-.875,4.1,4.1,0,0,1,5.266,0Zm1.5-5.32v4.094H5.3A2.385,2.385,0,0,0,6.949-1.77a1.907,1.907,0,0,0,.605-1.5q0-2.055-2.234-2.055Zm0-1.2H5.086A2.375,2.375,0,0,0,6.66-7.017a1.654,1.654,0,0,0,.59-1.339A1.626,1.626,0,0,0,6.7-9.722a2.686,2.686,0,0,0-1.664-.427H2.82Z" transform="translate(-2601 -6207)" fill="#0155a0"/>
    <path id="Trazado_110607" data-name="Trazado 110607" d="M7.6-2.977H2.836L1.766,0H.219L4.563-11.375H5.875L10.227,0H8.688ZM3.289-4.2H7.156L5.219-9.523Z" transform="translate(-2580 -6228)" fill="#0155a0"/>
  </g>
</svg>
