<svg xmlns="http://www.w3.org/2000/svg" width="424.813" height="112.465" viewBox="0 0 424.813 112.465">
  <g id="Grupo_66015" data-name="Grupo 66015" transform="translate(-827 -4051.351)">
    <g id="Grupo_59499" data-name="Grupo 59499" transform="translate(829.783 4120.713)">
      <text id="_0" data-name="0" transform="translate(0.217 17.7)" fill="#12263f" font-size="17" font-family="Roboto-Black, Roboto" font-weight="800"><tspan x="0" y="0">0</tspan></text>
    </g>
    <g id="Grupo_59500" data-name="Grupo 59500" transform="translate(828.426 4083.408)">
      <text id="A" transform="translate(-0.426 19.005)" fill="#12263f" font-size="18" font-family="Roboto-Black, Roboto" font-weight="800"><tspan x="0" y="0">A</tspan></text>
    </g>
    <g id="Grupo_59498" data-name="Grupo 59498" transform="translate(852.013 4083.408)">
      <g id="Rectángulo_9268" data-name="Rectángulo 9268" transform="translate(31.053)" fill="none" stroke="#0155a0" stroke-width="2">
        <path d="M0,0H25.79A32.776,32.776,0,0,1,58.566,32.776v0A32.229,32.229,0,0,1,26.336,65H0a0,0,0,0,1,0,0V0A0,0,0,0,1,0,0Z" stroke="none"/>
        <path d="M1,1H25.794A31.772,31.772,0,0,1,57.566,32.772v0A31.233,31.233,0,0,1,26.333,64H1a0,0,0,0,1,0,0V1A0,0,0,0,1,1,1Z" fill="none"/>
      </g>
      <g id="Rectángulo_9269" data-name="Rectángulo 9269" transform="translate(-2 13.868)" fill="none" stroke="#0155a0" stroke-width="2">
        <rect width="34.817" height="3.467" stroke="none"/>
        <rect x="1" y="1" width="32.817" height="1.467" fill="none"/>
      </g>
      <g id="Rectángulo_9270" data-name="Rectángulo 9270" transform="translate(-2 48.537)" fill="none" stroke="#0155a0" stroke-width="2">
        <rect width="34.817" height="3.467" stroke="none"/>
        <rect x="1" y="1" width="32.817" height="1.467" fill="none"/>
      </g>
      <g id="Rectángulo_9271" data-name="Rectángulo 9271" transform="translate(87.854 29.725)" fill="none" stroke="#0155a0" stroke-width="2">
        <rect width="34.817" height="3.467" stroke="none"/>
        <rect x="1" y="1" width="32.817" height="1.467" fill="none"/>
      </g>
    </g>
    <g id="Trazado_110943" data-name="Trazado 110943" transform="translate(1009.328 4085.913) rotate(90)" fill="none">
      <path d="M28.75,0,57.5,36.322H0Z" stroke="none"/>
      <path d="M 28.74999809265137 3.222496032714844 L 4.133750915527344 34.32216644287109 L 53.36624145507812 34.32216644287109 L 28.74999809265137 3.222496032714844 M 28.74999809265137 -3.814697265625e-06 L 57.5 36.32216644287109 L -3.814697265625e-06 36.32216644287109 L 28.74999809265137 -3.814697265625e-06 Z" stroke="none" fill="#0155a0"/>
    </g>
    <g id="Trazado_110944" data-name="Trazado 110944" transform="translate(1007.011 4109.402)" fill="none">
      <path d="M6.495,0A6.472,6.472,0,1,1,0,6.472,6.483,6.483,0,0,1,6.495,0Z" stroke="none"/>
      <path d="M 6.49458122253418 2.000003814697266 C 4.016261100769043 2.000003814697266 2.000000953674316 4.006053924560547 2.000000953674316 6.471834182739258 C 2.000000953674316 8.937614440917969 4.016261100769043 10.94366455078125 6.49458122253418 10.94366455078125 C 8.972901344299316 10.94366455078125 10.98916149139404 8.937614440917969 10.98916149139404 6.471834182739258 C 10.98916149139404 4.006053924560547 8.972901344299316 2.000003814697266 6.49458122253418 2.000003814697266 M 6.49458122253418 3.814697265625e-06 C 10.08144092559814 3.814697265625e-06 12.98916149139404 2.897534370422363 12.98916149139404 6.471834182739258 C 12.98916149139404 10.04612445831299 10.08144092559814 12.94366455078125 6.49458122253418 12.94366455078125 C 2.907721519470215 12.94366455078125 9.5367431640625e-07 10.04612445831299 9.5367431640625e-07 6.471834182739258 C 9.5367431640625e-07 2.897534370422363 2.907721519470215 3.814697265625e-06 6.49458122253418 3.814697265625e-06 Z" stroke="none" fill="#0155a0"/>
    </g>
    <g id="Trazado_110945" data-name="Trazado 110945" transform="translate(1018.505 4113.833)" fill="none">
      <path d="M0,0H23.448V3.661H0Z" stroke="none"/>
      <path d="M -5.7220458984375e-06 7.152557373046875e-07 L 23.44848442077637 7.152557373046875e-07 L 23.44848442077637 3.660600662231445 L -5.7220458984375e-06 3.660600662231445 L -5.7220458984375e-06 7.152557373046875e-07 Z" stroke="none" fill="#0155a0"/>
    </g>
    <g id="Trazado_110946" data-name="Trazado 110946" transform="translate(1164.225 4069.172) rotate(90)" fill="none">
      <path d="M16.48,0l16.48,20.821H0Z" stroke="none"/>
      <path d="M 16.48046875 3.222499847412109 L 4.133752822875977 18.82109642028809 L 28.82718467712402 18.82109642028809 L 16.48046875 3.222499847412109 M 16.48046875 -3.814697265625e-06 L 32.9609375 20.82109642028809 L 0 20.82109642028809 L 16.48046875 -3.814697265625e-06 Z" stroke="none" fill="#0155a0"/>
    </g>
    <g id="Trazado_110947" data-name="Trazado 110947" transform="translate(1162.896 4082.636)" fill="none">
      <path d="M3.723,0A3.71,3.71,0,1,1,0,3.71,3.716,3.716,0,0,1,3.723,0Z" stroke="none"/>
      <path d="M 3.722912788391113 2.000003337860107 C 2.772892951965332 2.000003337860107 2.000002861022949 2.767043590545654 2.000002861022949 3.70987343788147 C 2.000002861022949 4.652703285217285 2.772892951965332 5.419743537902832 3.722912788391113 5.419743537902832 C 4.672932624816895 5.419743537902832 5.445822715759277 4.652703285217285 5.445822715759277 3.70987343788147 C 5.445822715759277 2.767043590545654 4.672932624816895 2.000003337860107 3.722912788391113 2.000003337860107 M 3.722912788391113 3.337860107421875e-06 C 5.779022693634033 3.337860107421875e-06 7.445822715759277 1.660963535308838 7.445822715759277 3.70987343788147 C 7.445822715759277 5.758783340454102 5.779022693634033 7.419743537902832 3.722912788391113 7.419743537902832 C 1.666802883148193 7.419743537902832 2.86102294921875e-06 5.758783340454102 2.86102294921875e-06 3.70987343788147 C 2.86102294921875e-06 1.660963535308838 1.666802883148193 3.337860107421875e-06 3.722912788391113 3.337860107421875e-06 Z" stroke="none" fill="#0155a0"/>
    </g>
    <g id="Trazado_110948" data-name="Trazado 110948" transform="translate(1169.25 4084.603)" fill="none">
      <path d="M0,0H13.1V2.1H0Z" stroke="none"/>
      <path d="M 0 2.384185791015625e-06 L 13.10354042053223 2.384185791015625e-06 L 13.10354042053223 2.098142147064209 L 0 2.098142147064209 L 0 2.384185791015625e-06 Z" stroke="none" fill="#0155a0"/>
    </g>
    <g id="Trazado_106956" data-name="Trazado 106956" transform="translate(1182.354 4107.481)" fill="none">
      <path d="M0,0H28.884L30.9,2.1H0Z" stroke="none"/>
      <path d="M 1.9073486328125e-06 0 L 28.88357162475586 0 L 30.89648246765137 2.098380088806152 L 1.9073486328125e-06 2.098380088806152 L 1.9073486328125e-06 0 Z" stroke="none" fill="#0155a0"/>
    </g>
    <g id="Trazado_110949" data-name="Trazado 110949" transform="translate(1182.354 4121.247)" fill="none">
      <path d="M0,0H30.9V2.1H0Z" stroke="none"/>
      <path d="M 1.9073486328125e-06 0 L 30.89648246765137 0 L 30.89648246765137 2.098380088806152 L 1.9073486328125e-06 2.098380088806152 L 1.9073486328125e-06 0 Z" stroke="none" fill="#0155a0"/>
    </g>
    <g id="Trazado_110950" data-name="Trazado 110950" transform="translate(1129.505 4084.603)" fill="none">
      <path d="M0,0H15.734V2.1H0Z" stroke="none"/>
      <path d="M 0 0 L 15.73439979553223 0 L 15.73439979553223 2.098380088806152 L 0 2.098380088806152 L 0 0 Z" stroke="none" fill="#0155a0"/>
    </g>
    <g id="Grupo_59505" data-name="Grupo 59505" transform="translate(0 52.941)">
      <g id="Polígono_29" data-name="Polígono 29" transform="translate(1164.225 4077.913) rotate(90)" fill="none">
        <path d="M16.48,0l16.48,20.821H0Z" stroke="none"/>
        <path d="M 16.48046875 3.222499847412109 L 4.133752822875977 18.82109642028809 L 28.82718467712402 18.82109642028809 L 16.48046875 3.222499847412109 M 16.48046875 -3.814697265625e-06 L 32.9609375 20.82109642028809 L 0 20.82109642028809 L 16.48046875 -3.814697265625e-06 Z" stroke="none" fill="#0155a0"/>
      </g>
      <g id="Elipse_4135" data-name="Elipse 4135" transform="translate(1162.896 4091.378)" fill="none" stroke="#0155a0" stroke-width="2">
        <ellipse cx="3.723" cy="3.71" rx="3.723" ry="3.71" stroke="none"/>
        <ellipse cx="3.723" cy="3.71" rx="2.723" ry="2.71" fill="none"/>
      </g>
      <g id="Rectángulo_9388" data-name="Rectángulo 9388" transform="translate(1169 4093.344)" fill="none" stroke="#0155a0" stroke-width="2">
        <rect width="13.354" height="2.098" stroke="none"/>
        <rect x="1" y="1" width="11.354" height="0.098" fill="none"/>
      </g>
      <g id="Rectángulo_9389" data-name="Rectángulo 9389" transform="translate(1128.505 4093.344)" fill="none" stroke="#0155a0" stroke-width="2">
        <rect width="15.734" height="2.098" stroke="none"/>
        <rect x="1" y="1" width="13.734" height="0.098" fill="none"/>
      </g>
    </g>
    <g id="Grupo_59501" data-name="Grupo 59501" transform="translate(1060.6 4103.207)">
      <rect id="Rectángulo_9241" data-name="Rectángulo 9241" width="44" height="9" transform="translate(0.4 0.207)" fill="#0155a0"/>
      <rect id="Rectángulo_9242" data-name="Rectángulo 9242" width="44" height="9" transform="translate(0.4 16.207)" fill="#0155a0"/>
    </g>
    <g id="Trazado_110951" data-name="Trazado 110951" transform="translate(1182.354 4085.652) rotate(90)" fill="none">
      <path d="M0,0H23.927V2.1H0Z" stroke="none"/>
      <path d="M 3.814697265625e-06 0 L 23.92724227905273 0 L 23.92724227905273 2.098380088806152 L 3.814697265625e-06 2.098380088806152 L 3.814697265625e-06 0 Z" stroke="none" fill="#0155a0"/>
    </g>
    <g id="Trazado_110952" data-name="Trazado 110952" transform="translate(1182.354 4121.247) rotate(90)" fill="none">
      <path d="M0,0H25.514V2.1H0Z" stroke="none"/>
      <path d="M -3.814697265625e-06 0 L 25.51367568969727 0 L 25.51367568969727 2.098380088806152 L -3.814697265625e-06 2.098380088806152 L -3.814697265625e-06 0 Z" stroke="none" fill="#0155a0"/>
    </g>
    <g id="Grupo_59506" data-name="Grupo 59506" transform="translate(1126.319 4283.438)">
      <g id="Sustracción_6" data-name="Sustracción 6" transform="translate(70.926 -189)" fill="none">
        <path d="M21.035,42.95H7.793a21.491,21.491,0,0,1-6.2-.908c8.537-4.122,13.84-11.938,13.84-20.4,0-8.638-5.469-16.532-14.272-20.6A21.46,21.46,0,0,1,7.793,0H21.035A21.476,21.476,0,0,1,42.4,19.31H54.568V21.6H42.51A21.474,21.474,0,0,1,21.035,42.95Z" stroke="none"/>
        <path d="M 21.03479957580566 40.94980239868164 C 26.21717071533203 40.94980239868164 31.0946102142334 38.9373893737793 34.76861953735352 35.28327941894531 C 38.44123077392578 31.63057136535645 40.48012161254883 26.76734161376953 40.50973129272461 21.5894603729248 L 40.51567459106445 20.54980087280273 L 40.41162872314453 19.50943183898926 C 39.93392944335938 14.73291110992432 37.70635223388672 10.31437110900879 34.13922119140625 7.067771434783936 C 30.54858016967773 3.799771308898926 25.8946704864502 2.000001192092896 21.03479957580566 2.000001192092896 L 7.793100357055664 2.000001192092896 C 7.470083236694336 2.000001192092896 7.148024082183838 2.00785231590271 6.826808929443359 2.023534536361694 C 13.47892189025879 6.779577255249023 17.43680000305176 13.93161392211914 17.43680000305176 21.64410209655762 C 17.43680000305176 29.15335845947266 13.64345073699951 36.18113327026367 7.260016441345215 40.94263458251953 C 7.437424182891846 40.94740676879883 7.615242004394531 40.94980239868164 7.793100357055664 40.94980239868164 L 21.03479957580566 40.94980239868164 M 21.03479957580566 42.94980239868164 L 7.793100357055664 42.94980239868164 C 5.683170318603516 42.94980239868164 3.598400592803955 42.64443969726562 1.596700549125671 42.04220962524414 C 10.13353061676025 37.91983032226562 15.43680095672607 30.10444068908691 15.43680095672607 21.64410209655762 C 15.43680095672607 13.00577163696289 9.968270301818848 5.111621379852295 1.16528046131134 1.042301177978516 C 3.30094051361084 0.3500511944293976 5.530820369720459 1.199340772473079e-06 7.793100357055664 1.199340772473079e-06 L 21.03479957580566 1.199340772473079e-06 C 26.39372062683105 1.199340772473079e-06 31.52571105957031 1.984761238098145 35.48542022705078 5.588661193847656 C 39.41851043701172 9.168351173400879 41.87475967407227 14.04149150848389 42.40169906616211 19.31040191650391 L 54.56790161132812 19.31040191650391 L 54.56790161132812 21.60090065002441 L 42.50970077514648 21.60090065002441 C 42.47705078125 27.31073188781738 40.22840118408203 32.67385101318359 36.17898941040039 36.70133209228516 C 32.12765121459961 40.73072052001953 26.74934005737305 42.94980239868164 21.03479957580566 42.94980239868164 Z" stroke="none" fill="#0155a0"/>
      </g>
    </g>
    <path id="Trazado_110942" data-name="Trazado 110942" d="M10.98-3.187H5.344L4.359,0H-.035L6.223-17.062H10.09L16.395,0H11.977ZM6.328-6.363H10l-1.84-5.918Zm20.121-4.846-3.82-1.054.762-2.213,3.738,1.534-.293-4.121h2.508l-.3,4.2,3.633-1.5.762,2.236-3.867,1.054,2.566,3.105L30.105-6.58l-2.145-3.445L25.8-6.7,23.777-8.021ZM40.746,0V-17.062h6.129a8.679,8.679,0,0,1,5.01,1.207,4.016,4.016,0,0,1,1.717,3.5,4.06,4.06,0,0,1-.609,2.262A3.551,3.551,0,0,1,51.2-8.707,3.6,3.6,0,0,1,53.25-7.395a3.816,3.816,0,0,1,.715,2.344,4.518,4.518,0,0,1-1.588,3.768A7.556,7.556,0,0,1,47.672,0Zm4.113-7.254v4.09h2.7a2.564,2.564,0,0,0,1.711-.51,1.784,1.784,0,0,0,.6-1.436,1.891,1.891,0,0,0-2.121-2.145Zm0-2.7H47a3.047,3.047,0,0,0,1.922-.494,1.752,1.752,0,0,0,.574-1.422,1.839,1.839,0,0,0-.621-1.557,3.324,3.324,0,0,0-2-.476H44.859ZM73.266-8.461H62.414v-3.047H73.266Zm0,5.145H62.414V-6.363H73.266Zm18.656.129H86.285L85.3,0H80.906l6.258-17.062h3.867L97.336,0H92.918ZM87.27-6.363h3.668L89.1-12.281ZM111.492-9.68h4v3.387h-4v4.582H107.8V-6.293h-4.008V-9.68H107.8v-4.453h3.691ZM123.352,0V-17.062h6.129a8.679,8.679,0,0,1,5.01,1.207,4.016,4.016,0,0,1,1.717,3.5,4.06,4.06,0,0,1-.609,2.262A3.551,3.551,0,0,1,133.8-8.707a3.6,3.6,0,0,1,2.051,1.313,3.816,3.816,0,0,1,.715,2.344,4.518,4.518,0,0,1-1.588,3.768A7.556,7.556,0,0,1,130.277,0Zm4.113-7.254v4.09h2.7a2.564,2.564,0,0,0,1.711-.51,1.784,1.784,0,0,0,.6-1.436,1.891,1.891,0,0,0-2.121-2.145Zm0-2.7h2.145a3.047,3.047,0,0,0,1.922-.494,1.752,1.752,0,0,0,.574-1.422,1.839,1.839,0,0,0-.621-1.557,3.324,3.324,0,0,0-2-.476h-2.016Z" transform="translate(967 4068.413)" fill="#12263f"/>
    <g id="Grupo_59514" data-name="Grupo 59514" transform="translate(872.499 4052.913)">
      <text id="A_B" data-name="A+B" transform="translate(0 18)" fill="#12263f" font-size="16" font-family="Roboto-Regular, Roboto"><tspan x="0" y="0">A+B</tspan></text>
    </g>
    <path id="Trazado_110956" data-name="Trazado 110956" d="M0,0H27" transform="translate(872 4056.413)" fill="none" stroke="#12263f" stroke-width="1"/>
    <path id="Trazado_110953" data-name="Trazado 110953" d="M7.6-2.977H2.836L1.766,0H.219L4.563-11.375H5.875L10.227,0H8.688ZM3.289-4.2H7.156L5.219-9.523Zm9.727-3.48-2.359-.7.359-1.178,2.359.874-.07-2.685h1.2l-.078,2.724,2.32-.859L17.1-8.323l-2.4.71L16.25-5.5l-.969.734-1.453-2.25-1.406,2.2-.977-.711ZM18.648,0V-11.375h3.719a4.317,4.317,0,0,1,2.785.766,2.759,2.759,0,0,1,.934,2.266,2.31,2.31,0,0,1-.453,1.41,2.937,2.937,0,0,1-1.234.949A2.638,2.638,0,0,1,25.855-5a2.814,2.814,0,0,1,.535,1.723A3.042,3.042,0,0,1,25.4-.875a4.1,4.1,0,0,1-2.8.875Zm1.5-5.32v4.094h2.477a2.385,2.385,0,0,0,1.652-.543,1.907,1.907,0,0,0,.605-1.5q0-2.055-2.234-2.055Zm0-1.2h2.266a2.375,2.375,0,0,0,1.574-.493,1.654,1.654,0,0,0,.59-1.339,1.626,1.626,0,0,0-.547-1.366,2.686,2.686,0,0,0-1.664-.427H20.148Z" transform="translate(1203 4071.413)" fill="#12263f"/>
    <path id="Trazado_110954" data-name="Trazado 110954" d="M0,0H8" transform="translate(1222 4055.913)" fill="none" stroke="#12263f" stroke-width="1"/>
    <path id="Trazado_110955" data-name="Trazado 110955" d="M0,0H8" transform="translate(1203.5 4055.913)" fill="none" stroke="#12263f" stroke-width="1"/>
  </g>
</svg>
