<svg xmlns="http://www.w3.org/2000/svg" xmlns:xlink="http://www.w3.org/1999/xlink" width="162" height="154" viewBox="0 0 162 154">
  <defs>
    <linearGradient id="linear-gradient" x1="0.5" x2="0.5" y2="1" gradientUnits="objectBoundingBox">
      <stop offset="0" stop-color="#47a0e6"/>
      <stop offset="1" stop-color="#0f2771"/>
    </linearGradient>
  </defs>
  <g id="Grupo_66040" data-name="Grupo 66040" transform="translate(-1079 -1697)">
    <path id="Trazado_110939" data-name="Trazado 110939" d="M18,0H144a18,18,0,0,1,18,18V136a18,18,0,0,1-18,18H18A18,18,0,0,1,0,136V18A18,18,0,0,1,18,0Z" transform="translate(1079 1697)" fill="url(#linear-gradient)"/>
    <path id="Trazado_110940" data-name="Trazado 110940" d="M10.063-14.031l5.453-8.719h3.531L11.859-11.469,19.219,0H15.656L10.063-8.875,4.438,0H.891L8.266-11.469,1.063-22.75H4.578Zm29.75,3.391A14.073,14.073,0,0,1,38.688-4.8,8.521,8.521,0,0,1,35.5-1,8.77,8.77,0,0,1,30.688.313a8.7,8.7,0,0,1-4.766-1.32A8.725,8.725,0,0,1,22.7-4.773a13.5,13.5,0,0,1-1.18-5.664v-1.641a13.906,13.906,0,0,1,1.141-5.8,8.694,8.694,0,0,1,3.227-3.852,8.658,8.658,0,0,1,4.773-1.336,8.819,8.819,0,0,1,4.82,1.32,8.506,8.506,0,0,1,3.211,3.828,14.142,14.142,0,0,1,1.125,5.836Zm-2.984-1.469A10.2,10.2,0,0,0,35.2-18.32a5.36,5.36,0,0,0-4.547-2.164A5.3,5.3,0,0,0,26.18-18.32a9.991,9.991,0,0,0-1.68,6.008v1.672a10.215,10.215,0,0,0,1.648,6.164,5.325,5.325,0,0,0,4.539,2.242,5.3,5.3,0,0,0,4.5-2.117,10.157,10.157,0,0,0,1.641-6.07ZM52.656-9.2H47.313V0H44.3V-22.75h7.531A8.914,8.914,0,0,1,57.742-21a6.3,6.3,0,0,1,2.07,5.094,6.125,6.125,0,0,1-1.148,3.7,6.856,6.856,0,0,1-3.2,2.359L60.813-.187V0H57.594Zm-5.344-2.453h4.609a5.2,5.2,0,0,0,3.555-1.158,3.917,3.917,0,0,0,1.32-3.1,4.125,4.125,0,0,0-1.258-3.24A5.326,5.326,0,0,0,51.906-20.3H47.313Z" transform="translate(1130 1740)" fill="#f6f6f6"/>
    <g id="Grupo_59135" data-name="Grupo 59135" transform="translate(27 -28)">
      <g id="Grupo_59134" data-name="Grupo 59134" transform="translate(1094 1795)">
        <path id="Unión_10" data-name="Unión 10" d="M.6,50A27.973,27.973,0,0,0,15.4,25.333,27.879,27.879,0,0,0,0,.356V0H31.137A23.75,23.75,0,0,1,54.884,23.333H83V26H54.793A26.229,26.229,0,0,1,28.637,50Z" transform="translate(7 0)" fill="#fff"/>
        <path id="Trazado_106596" data-name="Trazado 106596" d="M-6772-9905s16.154,8.205,17.18,24.1-15.642,25.9-15.642,25.9" transform="translate(6772 9905)" fill="none" stroke="#fff" stroke-width="2"/>
      </g>
      <rect id="Rectángulo_9161" data-name="Rectángulo 9161" width="23" height="2" transform="translate(1084 1807)" fill="#fff"/>
      <rect id="Rectángulo_9162" data-name="Rectángulo 9162" width="23" height="2" transform="translate(1084 1832)" fill="#fff"/>
    </g>
  </g>
</svg>
