<svg xmlns="http://www.w3.org/2000/svg" width="279.152" height="146.219" viewBox="0 0 279.152 146.219">
  <g id="Grupo_66047" data-name="Grupo 66047" transform="translate(552.035 8341.063)">
    <path id="Trazado_111047" data-name="Trazado 111047" d="M0,0H43.971V3.282H0Z" transform="translate(-525.667 -8290.247)" fill="#70089b"/>
    <path id="Trazado_111048" data-name="Trazado 111048" d="M0,0H43.971V3.282H0Z" transform="translate(-525.667 -8257.431)" fill="#70089b"/>
    <g id="Trazado_111049" data-name="Trazado 111049" transform="translate(-485.258 -8303.374)" fill="#e8e8e8">
      <path d="M 37.18644714355469 60.03104019165039 L 1.499997854232788 60.03104019165039 L 1.499997854232788 1.50000011920929 L 36.66937637329102 1.50000011920929 C 40.65575790405273 1.50000011920929 44.5221061706543 2.280400037765503 48.16101837158203 3.819530010223389 C 51.67653656005859 5.306469917297363 54.8341178894043 7.435470104217529 57.54603958129883 10.14739036560059 C 60.25796890258789 12.85931968688965 62.38696670532227 16.01688957214355 63.87390899658203 19.53241920471191 C 65.41304016113281 23.17131996154785 66.19343566894531 27.03767013549805 66.19343566894531 31.02404975891113 C 66.19343566894531 34.94063186645508 65.42670440673828 38.73926162719727 63.9145393371582 42.31441879272461 C 62.45363616943359 45.76837158203125 60.3619270324707 48.87065887451172 57.69748687744141 51.53509140014648 C 55.03305816650391 54.19953155517578 51.93076705932617 56.29124069213867 48.4768180847168 57.75214004516602 C 44.90165710449219 59.26430892944336 41.10302734375 60.03104019165039 37.18644714355469 60.03104019165039 Z" stroke="none"/>
      <path d="M 2.999992370605469 2.999996185302734 L 2.999992370605469 58.53104400634766 L 37.18645095825195 58.53104400634766 C 40.90119552612305 58.53104400634766 44.50322723388672 57.80417633056641 47.89248657226562 56.37064361572266 C 51.16764068603516 54.9853630065918 54.10966110229492 53.0015983581543 56.63681793212891 50.47443008422852 C 59.16398620605469 47.947265625 61.14775085449219 45.00525283813477 62.53302764892578 41.73009872436523 C 63.96656036376953 38.3408317565918 64.69342803955078 34.73880004882812 64.69342803955078 31.0240535736084 C 64.69342803955078 27.23950958251953 63.95289611816406 23.56976318359375 62.49239349365234 20.11674118041992 C 61.08107376098633 16.78002166748047 59.06002807617188 13.78269958496094 56.48537445068359 11.20805358886719 C 53.91072845458984 8.633407592773438 50.91341781616211 6.612354278564453 47.57668304443359 5.201030731201172 C 44.12367248535156 3.740531921386719 40.45392608642578 2.999996185302734 36.66938400268555 2.999996185302734 L 2.999992370605469 2.999996185302734 M -7.62939453125e-06 -3.814697265625e-06 L 36.66938400268555 -3.814697265625e-06 C 53.80349731445312 -3.814697265625e-06 67.69342803955078 13.88994216918945 67.69342803955078 31.0240535736084 C 67.69342803955078 47.87259674072266 54.03499603271484 61.53104400634766 37.18645095825195 61.53104400634766 L -7.62939453125e-06 61.53104400634766 L -7.62939453125e-06 -3.814697265625e-06 Z" stroke="none" fill="#70089b"/>
    </g>
    <path id="Trazado_111050" data-name="Trazado 111050" d="M0,0H41.916V3.429H0Z" transform="translate(-406.659 -8308.893)" fill="#70089b"/>
    <path id="Trazado_111051" data-name="Trazado 111051" d="M0,0H54.916V3.115H0Z" transform="translate(-419.659 -8278.718)" fill="#70089b"/>
    <path id="Trazado_111041" data-name="Trazado 111041" d="M0,0H3.418V45.578H0Z" transform="translate(-514.272 -8333)" fill="#70089b"/>
    <path id="Trazado_111042" data-name="Trazado 111042" d="M0,0H26.127V3.429H0Z" transform="translate(-403.657 -8332.207) rotate(90)" fill="#70089b"/>
    <path id="Trazado_111043" data-name="Trazado 111043" d="M0,0H122.009V3.5H0Z" transform="translate(-525.667 -8333)" fill="#70089b"/>
    <path id="Trazado_111044" data-name="Trazado 111044" d="M0,0H217.009V3.5H0Z" transform="translate(-519.667 -8223)" fill="#70089b"/>
    <path id="Trazado_111045" data-name="Trazado 111045" d="M9.688-3.609A4.185,4.185,0,0,1,8.355-.824a4.365,4.365,0,0,1-2.98.98,4.008,4.008,0,0,1-3.23-1.445A5.815,5.815,0,0,1,.93-5.156V-6.25A6.481,6.481,0,0,1,1.5-9.039,4.231,4.231,0,0,1,3.1-10.887a4.47,4.47,0,0,1,2.406-.645A4.11,4.11,0,0,1,8.414-10.52a4.235,4.235,0,0,1,1.273,2.8H8.18a3.268,3.268,0,0,0-.848-1.975A2.565,2.565,0,0,0,5.508-10.3,2.684,2.684,0,0,0,3.254-9.241a4.882,4.882,0,0,0-.816,3.026v1.1a5.018,5.018,0,0,0,.773,2.948A2.5,2.5,0,0,0,5.375-1.07a2.887,2.887,0,0,0,1.918-.566A3.143,3.143,0,0,0,8.18-3.609Zm1.438-.7a4.993,4.993,0,0,1,.488-2.234A3.643,3.643,0,0,1,12.973-8.07a3.7,3.7,0,0,1,1.988-.539,3.565,3.565,0,0,1,2.793,1.2,4.6,4.6,0,0,1,1.066,3.18v.1a5.036,5.036,0,0,1-.473,2.215A3.589,3.589,0,0,1,17-.391a3.743,3.743,0,0,1-2.02.547,3.556,3.556,0,0,1-2.785-1.2A4.575,4.575,0,0,1,11.125-4.2Zm1.453.172a3.616,3.616,0,0,0,.652,2.258,2.088,2.088,0,0,0,1.746.852,2.075,2.075,0,0,0,1.75-.863A3.955,3.955,0,0,0,17.375-4.3a3.61,3.61,0,0,0-.66-2.254,2.1,2.1,0,0,0-1.754-.863,2.075,2.075,0,0,0-1.727.852A3.925,3.925,0,0,0,12.578-4.133ZM22-8.453l.047,1.063a3.08,3.08,0,0,1,2.531-1.219q2.68,0,2.7,3.023V0H25.836V-5.594a1.946,1.946,0,0,0-.418-1.352,1.675,1.675,0,0,0-1.277-.437,2.086,2.086,0,0,0-1.234.375,2.546,2.546,0,0,0-.828.984V0H20.633V-8.453ZM32.969.156a3.693,3.693,0,0,1-2.8-1.129,4.19,4.19,0,0,1-1.078-3.02v-.266a5.073,5.073,0,0,1,.48-2.246,3.748,3.748,0,0,1,1.344-1.547,3.378,3.378,0,0,1,1.871-.559,3.166,3.166,0,0,1,2.563,1.086,4.7,4.7,0,0,1,.914,3.109v.6H30.539a3,3,0,0,0,.73,2.02,2.3,2.3,0,0,0,1.777.77,2.517,2.517,0,0,0,1.3-.312,3.259,3.259,0,0,0,.93-.828l.883.688A3.55,3.55,0,0,1,32.969.156Zm-.18-7.578a1.928,1.928,0,0,0-1.469.637A3.1,3.1,0,0,0,30.586-5H34.82v-.109a2.753,2.753,0,0,0-.594-1.707A1.815,1.815,0,0,0,32.789-7.422Zm7.984,2.055,1.875-3.086h1.688L41.57-4.273,44.422,0H42.75L40.8-3.164,38.844,0h-1.68l2.852-4.273L37.25-8.453h1.672ZM47.438,0H45.992V-8.453h1.445ZM45.875-10.7a.863.863,0,0,1,.215-.594.807.807,0,0,1,.637-.242.819.819,0,0,1,.641.242.854.854,0,0,1,.219.594.826.826,0,0,1-.219.586.834.834,0,0,1-.641.234.821.821,0,0,1-.637-.234A.834.834,0,0,1,45.875-10.7ZM49.367-4.3a4.993,4.993,0,0,1,.488-2.234A3.643,3.643,0,0,1,51.215-8.07,3.7,3.7,0,0,1,53.2-8.609,3.565,3.565,0,0,1,56-7.414a4.6,4.6,0,0,1,1.066,3.18v.1a5.036,5.036,0,0,1-.473,2.215A3.589,3.589,0,0,1,55.238-.391a3.743,3.743,0,0,1-2.02.547,3.556,3.556,0,0,1-2.785-1.2A4.575,4.575,0,0,1,49.367-4.2Zm1.453.172a3.616,3.616,0,0,0,.652,2.258,2.088,2.088,0,0,0,1.746.852,2.075,2.075,0,0,0,1.75-.863A3.955,3.955,0,0,0,55.617-4.3a3.61,3.61,0,0,0-.66-2.254A2.1,2.1,0,0,0,53.2-7.422a2.075,2.075,0,0,0-1.727.852A3.925,3.925,0,0,0,50.82-4.133Zm3.039-7.852h1.75l-2.094,2.3-1.164,0Zm6.383,3.531.047,1.063A3.08,3.08,0,0,1,62.82-8.609q2.68,0,2.7,3.023V0H64.078V-5.594a1.946,1.946,0,0,0-.418-1.352,1.675,1.675,0,0,0-1.277-.437,2.086,2.086,0,0,0-1.234.375,2.546,2.546,0,0,0-.828.984V0H58.875V-8.453ZM71.891,0V-11.375H75.1a5.169,5.169,0,0,1,2.625.656,4.438,4.438,0,0,1,1.762,1.867,6.078,6.078,0,0,1,.629,2.781v.727a6.1,6.1,0,0,1-.621,2.82A4.369,4.369,0,0,1,77.723-.664,5.5,5.5,0,0,1,75.039,0Zm1.5-10.148v8.922h1.578a3.434,3.434,0,0,0,2.7-1.079,4.458,4.458,0,0,0,.965-3.073v-.665a4.529,4.529,0,0,0-.91-3.014,3.239,3.239,0,0,0-2.582-1.091ZM83.727,0H82.281V-8.453h1.445ZM82.164-10.7a.863.863,0,0,1,.215-.594.807.807,0,0,1,.637-.242.819.819,0,0,1,.641.242.854.854,0,0,1,.219.594.826.826,0,0,1-.219.586.834.834,0,0,1-.641.234.821.821,0,0,1-.637-.234A.834.834,0,0,1,82.164-10.7Zm7.961,3.539a4.331,4.331,0,0,0-.711-.055A1.9,1.9,0,0,0,87.484-6V0H86.039V-8.453h1.406l.023.977a2.251,2.251,0,0,1,2.016-1.133,1.477,1.477,0,0,1,.641.109ZM94.813.156a3.693,3.693,0,0,1-2.8-1.129,4.19,4.19,0,0,1-1.078-3.02v-.266a5.073,5.073,0,0,1,.48-2.246,3.748,3.748,0,0,1,1.344-1.547,3.378,3.378,0,0,1,1.871-.559A3.166,3.166,0,0,1,97.2-7.523a4.7,4.7,0,0,1,.914,3.109v.6H92.383a3,3,0,0,0,.73,2.02,2.3,2.3,0,0,0,1.777.77,2.517,2.517,0,0,0,1.3-.312,3.259,3.259,0,0,0,.93-.828L98-1.477A3.55,3.55,0,0,1,94.813.156Zm-.18-7.578a1.928,1.928,0,0,0-1.469.637A3.1,3.1,0,0,0,92.43-5h4.234v-.109a2.753,2.753,0,0,0-.594-1.707A1.815,1.815,0,0,0,94.633-7.422Zm8.539,6.4a2.082,2.082,0,0,0,1.352-.469,1.649,1.649,0,0,0,.641-1.172h1.367a2.621,2.621,0,0,1-.5,1.383A3.293,3.293,0,0,1,104.8-.234a3.55,3.55,0,0,1-1.629.391A3.482,3.482,0,0,1,100.426-1a4.59,4.59,0,0,1-1.02-3.152v-.242a5.089,5.089,0,0,1,.453-2.2,3.451,3.451,0,0,1,1.3-1.492,3.7,3.7,0,0,1,2-.531,3.39,3.39,0,0,1,2.363.852,3.043,3.043,0,0,1,1,2.211h-1.367a1.992,1.992,0,0,0-.621-1.348,1.932,1.932,0,0,0-1.379-.527,2.023,2.023,0,0,0-1.707.793,3.724,3.724,0,0,0-.605,2.293v.273a3.65,3.65,0,0,0,.6,2.25A2.033,2.033,0,0,0,103.172-1.023Zm6.945-9.477v2.047H111.7v1.117h-1.578v5.249a1.173,1.173,0,0,0,.211.763.888.888,0,0,0,.719.254,3.5,3.5,0,0,0,.688-.094V0a4.215,4.215,0,0,1-1.109.155,1.8,1.8,0,0,1-1.461-.586,2.517,2.517,0,0,1-.492-1.664V-7.336h-1.539V-8.453h1.539V-10.5ZM118.6,0a3.036,3.036,0,0,1-.2-.891A3.225,3.225,0,0,1,115.992.156a2.984,2.984,0,0,1-2.051-.707,2.288,2.288,0,0,1-.8-1.793,2.39,2.39,0,0,1,1-2.051,4.733,4.733,0,0,1,2.824-.73h1.406v-.664A1.623,1.623,0,0,0,117.922-7a1.821,1.821,0,0,0-1.336-.449,2.108,2.108,0,0,0-1.3.391,1.151,1.151,0,0,0-.523.945h-1.453a2,2,0,0,1,.449-1.223,3.066,3.066,0,0,1,1.219-.934,4.1,4.1,0,0,1,1.691-.344,3.342,3.342,0,0,1,2.289.73,2.635,2.635,0,0,1,.859,2.012v3.891a4.757,4.757,0,0,0,.3,1.852V0Zm-2.4-1.1a2.54,2.54,0,0,0,1.289-.352,2.127,2.127,0,0,0,.883-.914V-4.1h-1.133q-2.656,0-2.656,1.555a1.316,1.316,0,0,0,.453,1.063A1.742,1.742,0,0,0,116.2-1.1Z" transform="translate(-474 -8195)" fill="#12263f"/>
    <path id="Trazado_111052" data-name="Trazado 111052" d="M10.98-3.187H5.344L4.359,0H-.035L6.223-17.062H10.09L16.395,0H11.977ZM6.328-6.363H10l-1.84-5.918Z" transform="translate(-552 -8210)" fill="#12263f"/>
    <path id="Trazado_111053" data-name="Trazado 111053" d="M10.98-3.187H5.344L4.359,0H-.035L6.223-17.062H10.09L16.395,0H11.977ZM6.328-6.363H10l-1.84-5.918Z" transform="translate(-552 -8324)" fill="#12263f"/>
    <path id="Trazado_111054" data-name="Trazado 111054" d="M1.289,0V-17.062H7.418a8.679,8.679,0,0,1,5.01,1.207,4.016,4.016,0,0,1,1.717,3.5,4.06,4.06,0,0,1-.609,2.262,3.551,3.551,0,0,1-1.793,1.383,3.6,3.6,0,0,1,2.051,1.313,3.816,3.816,0,0,1,.715,2.344A4.518,4.518,0,0,1,12.92-1.283,7.556,7.556,0,0,1,8.215,0ZM5.4-7.254v4.09H8.1a2.564,2.564,0,0,0,1.711-.51,1.784,1.784,0,0,0,.6-1.436A1.891,1.891,0,0,0,8.285-7.254Zm0-2.7H7.547a3.047,3.047,0,0,0,1.922-.494,1.752,1.752,0,0,0,.574-1.422,1.839,1.839,0,0,0-.621-1.557,3.324,3.324,0,0,0-2-.476H5.4Z" transform="translate(-552 -8283)" fill="#12263f"/>
    <path id="Trazado_111055" data-name="Trazado 111055" d="M15.094-5.777a6.231,6.231,0,0,1-.961,3.146A5.8,5.8,0,0,1,11.666-.516a8.4,8.4,0,0,1-3.627.75,6.7,6.7,0,0,1-5.3-2.191A9.048,9.048,0,0,1,.809-8.145v-.844a10.328,10.328,0,0,1,.873-4.389A6.615,6.615,0,0,1,4.2-16.283a7.013,7.013,0,0,1,3.8-1.025,7.354,7.354,0,0,1,4.992,1.635,6.459,6.459,0,0,1,2.145,4.506h-4.1a3.056,3.056,0,0,0-.785-2.238,3.229,3.229,0,0,0-2.25-.68,2.457,2.457,0,0,0-2.25,1.148,7.381,7.381,0,0,0-.75,3.668v1.207a8.167,8.167,0,0,0,.686,3.9A2.509,2.509,0,0,0,8.039-2.988a3.159,3.159,0,0,0,2.168-.668A2.835,2.835,0,0,0,11-5.777Z" transform="translate(-552 -8251)" fill="#12263f"/>
    <path id="Trazado_111056" data-name="Trazado 111056" d="M7.535-9.656l3.141-7.406h4.441L9.621-6.129V0H5.449V-6.129L-.035-17.062H4.383Z" transform="translate(-288 -8210.001)" fill="#12263f"/>
    <path id="Trazado_111057" data-name="Trazado 111057" d="M7.535-9.656l3.141-7.406h4.441L9.621-6.129V0H5.449V-6.129L-.035-17.062H4.383Z" transform="translate(-288 -8283.001)" fill="#12263f"/>
    <g id="Trazado_111046" data-name="Trazado 111046" transform="translate(-395.018 -8324.919)" fill="#e8e8e8">
      <path d="M 38.62619400024414 66.19261169433594 L 7.725237369537354 66.19261169433594 C 19.42685127258301 59.20046234130859 26.69999504089355 47.16748046875 26.69999504089355 34.11270523071289 C 26.69999504089355 20.59279251098633 19.08843612670898 8.381644248962402 6.829536437988281 1.499999165534973 L 38.05740737915039 1.499999165534973 C 46.156982421875 1.499999165534973 53.92399597167969 4.487905979156494 59.92767715454102 9.913332939147949 C 65.88858032226562 15.30011940002441 69.64278411865234 22.64531898498535 70.49871826171875 30.59586524963379 L 70.64291381835938 31.93530654907227 L 71.99010467529297 31.93530654907227 L 94.51831817626953 31.93530654907227 L 94.51831817626953 32.34630584716797 L 72.18631744384766 32.34630584716797 L 70.65744781494141 32.34630584716797 L 70.68658447265625 33.87489318847656 C 70.68738555908203 33.91670608520508 70.68753051757812 33.95975875854492 70.68771362304688 34.00278472900391 L 70.68775177001953 34.01078414916992 C 70.68792724609375 34.0508918762207 70.68811798095703 34.09095764160156 70.68811798095703 34.13070678710938 C 70.68811798095703 38.45961380004883 69.84059906005859 42.65827941894531 68.16910552978516 46.61009216308594 C 66.55431365966797 50.42782592773438 64.24231719970703 53.8568115234375 61.29731369018555 56.80179977416992 C 58.35228729248047 59.7468376159668 54.92330169677734 62.058837890625 51.10556793212891 63.67361068725586 C 47.15380859375 65.34510803222656 42.95514297485352 66.19261169433594 38.62619400024414 66.19261169433594 Z" stroke="none"/>
      <path d="M 38.6262092590332 64.69261169433594 C 42.75331497192383 64.69261169433594 46.75537872314453 63.88496780395508 50.521240234375 62.29210662841797 C 54.16017532348633 60.75296783447266 57.42890167236328 58.54890441894531 60.23665237426758 55.74113845825195 C 63.04437637329102 52.93344497680664 65.24842071533203 49.66472244262695 66.78759002685547 46.0257682800293 C 68.38047027587891 42.25984573364258 69.18811798095703 38.25776672363281 69.18811798095703 34.13070678710938 C 69.18811798095703 34.09353637695312 69.18792724609375 34.05606079101562 69.18777465820312 34.01855087280273 L 69.18771362304688 34.00661468505859 C 69.18756103515625 33.97201538085938 69.18751525878906 33.93742752075195 69.18686676025391 33.90381240844727 L 69.15235137939453 32.10344696044922 L 69.00733184814453 30.75642967224121 C 68.19088745117188 23.17262840270996 64.60916137695312 16.1656436920166 58.92197799682617 11.02622890472412 C 53.19451522827148 5.850444316864014 45.78466796875 2.999998092651367 38.05740737915039 2.999998092651367 L 11.93840789794922 2.999998092651367 C 22.08034515380859 10.4078311920166 28.20000839233398 21.7292423248291 28.20000839233398 34.11270523071289 C 28.20000839233398 46.09626007080078 22.32602310180664 57.24602127075195 12.60567188262939 64.69261169433594 L 38.6262092590332 64.69261169433594 M 38.6262092590332 67.69261169433594 L 1.370669364929199 67.69261169433594 C 15.84628486633301 61.77213668823242 25.20000839233398 48.59198379516602 25.20000839233398 34.11270523071289 C 25.20000839233398 19.03782844543457 15.30853080749512 5.64779806137085 0.0003154907317366451 -1.84513976364542e-06 L 38.05740737915039 -1.84513976364542e-06 C 46.52930068969727 -1.84513976364542e-06 54.65346908569336 3.125382661819458 60.93339157104492 8.800429344177246 C 67.16800689697266 14.43455219268799 71.09466552734375 22.11796760559082 71.99009704589844 30.43530654907227 L 96.01831817626953 30.43530654907227 L 96.01831817626953 33.84630584716797 L 72.18631744384766 33.84630584716797 C 72.187255859375 33.89525985717773 72.18746948242188 33.94567489624023 72.18769836425781 33.99604415893555 C 72.18789672851562 34.04107666015625 72.18811798095703 34.08609008789062 72.18811798095703 34.13070678710938 C 72.18811798095703 38.66144561767578 71.30072784423828 43.05672073364258 69.55060577392578 47.19442749023438 C 67.86020660400391 51.19093704223633 65.44026947021484 54.78019714355469 62.35795974731445 57.86247634887695 C 59.27568435668945 60.94476699829102 55.68643951416016 63.36471939086914 51.68989944458008 65.05512237548828 C 47.55223846435547 66.80524444580078 43.15696334838867 67.69261169433594 38.6262092590332 67.69261169433594 Z" stroke="none" fill="#70089b"/>
    </g>
  </g>
</svg>
