<svg xmlns="http://www.w3.org/2000/svg" width="534.547" height="143" viewBox="0 0 534.547 143">
  <g id="Grupo_66013" data-name="Grupo 66013" transform="translate(-305 -2076)">
    <g id="Grupo_66012" data-name="Grupo 66012">
      <path id="Trazado_110592" data-name="Trazado 110592" d="M62.514,127V101.6H0V94.827H62.514V33.867H0V27.094H62.514V0h83.972a60,60,0,0,1,60,60v.959H269v6.773H206.486V68a59,59,0,0,1-59,59Z" transform="translate(351 2091)" fill="#70089b"/>
      <path id="Trazado_110595" data-name="Trazado 110595" d="M0,0H46V60H0Z" transform="translate(305 2076)" fill="#43babe"/>
      <path id="Trazado_110596" data-name="Trazado 110596" d="M0,0H46V60H0Z" transform="translate(305 2159)" fill="#43babe"/>
      <path id="Trazado_110593" data-name="Trazado 110593" d="M9.578-11.328,15.516-22.75h3.406L11.078-8.484V0h-3V-8.484L.234-22.75H3.672Zm25.047-1.391H21.594v-2.516H34.625Zm0,6.484H21.594v-2.5H34.625Zm25.281.281H50.375L48.234,0H45.141l8.688-22.75h2.625L65.156,0H62.078ZM51.281-8.406h7.734L55.141-19.047ZM84.063,0V-22.75H91.5a8.634,8.634,0,0,1,5.57,1.531,5.519,5.519,0,0,1,1.867,4.531,4.621,4.621,0,0,1-.906,2.82,5.875,5.875,0,0,1-2.469,1.9,5.276,5.276,0,0,1,2.914,1.961,5.628,5.628,0,0,1,1.07,3.445A6.085,6.085,0,0,1,97.563-1.75,8.206,8.206,0,0,1,91.953,0Zm3-10.641v8.188h4.953a4.769,4.769,0,0,0,3.3-1.086,3.814,3.814,0,0,0,1.211-2.992q0-4.109-4.469-4.109Zm0-2.406h4.531a4.75,4.75,0,0,0,3.148-.986,3.307,3.307,0,0,0,1.18-2.678,3.252,3.252,0,0,0-1.094-2.733A5.371,5.371,0,0,0,91.5-20.3H87.063Z" transform="translate(740 2167)" fill="#12263f"/>
      <path id="Trazado_110598" data-name="Trazado 110598" d="M2.641,0V-22.75h7.438a8.634,8.634,0,0,1,5.57,1.531,5.519,5.519,0,0,1,1.867,4.531,4.621,4.621,0,0,1-.906,2.82,5.875,5.875,0,0,1-2.469,1.9,5.276,5.276,0,0,1,2.914,1.961,5.628,5.628,0,0,1,1.07,3.445A6.085,6.085,0,0,1,16.141-1.75,8.206,8.206,0,0,1,10.531,0Zm3-10.641v8.188h4.953a4.769,4.769,0,0,0,3.3-1.086,3.814,3.814,0,0,0,1.211-2.992q0-4.109-4.469-4.109Zm0-2.406h4.531a4.75,4.75,0,0,0,3.148-.986,3.307,3.307,0,0,0,1.18-2.678,3.252,3.252,0,0,0-1.094-2.733,5.371,5.371,0,0,0-3.328-.853H5.641Z" transform="translate(318 2199)" fill="#12263f"/>
      <path id="Trazado_110597" data-name="Trazado 110597" d="M15.2-5.953H5.672L3.531,0H.438L9.125-22.75H11.75L20.453,0H17.375ZM6.578-8.406h7.734L10.438-19.047Z" transform="translate(318 2118)" fill="#12263f"/>
      <path id="Trazado_110599" data-name="Trazado 110599" d="M0,0H46V60H0Z" transform="translate(619 2125)" fill="#43babe"/>
      <path id="Trazado_110600" data-name="Trazado 110600" d="M9.578-11.328,15.516-22.75h3.406L11.078-8.484V0h-3V-8.484L.234-22.75H3.672Z" transform="translate(633 2167)" fill="#12263f"/>
      <path id="Trazado_110594" data-name="Trazado 110594" d="M2.5,0A2.5,2.5,0,1,1,0,2.5,2.5,2.5,0,0,1,2.5,0Z" transform="translate(810 2154)" fill="#12263f"/>
    </g>
  </g>
</svg>
