<svg xmlns="http://www.w3.org/2000/svg" width="780" height="174" viewBox="0 0 780 174">
  <g id="Grupo_66014" data-name="Grupo 66014" transform="translate(-423 -1767)">
    <path id="Trazado_110924" data-name="Trazado 110924" d="M0,0H780V30H0Z" transform="translate(423 1767)" fill="#43babe"/>
    <path id="Trazado_110925" data-name="Trazado 110925" d="M9.15-2.656h-4.7L3.633,0H-.029L5.186-14.219H8.408L13.662,0H9.98ZM5.273-5.3H8.33L6.8-10.234ZM22.041-9.341l-3.184-.878.635-1.844,3.115,1.278-.244-3.434h2.09l-.254,3.5,3.027-1.249.635,1.863-3.223.878,2.139,2.588L25.088-5.483,23.3-8.354,21.5-5.581l-1.689-1.1ZM33.955,0V-14.219h5.107a7.232,7.232,0,0,1,4.175,1.006,3.347,3.347,0,0,1,1.431,2.92,3.383,3.383,0,0,1-.508,1.885,2.959,2.959,0,0,1-1.494,1.152,3,3,0,0,1,1.709,1.094,3.18,3.18,0,0,1,.6,1.953,3.765,3.765,0,0,1-1.323,3.14A6.3,6.3,0,0,1,39.727,0Zm3.428-6.045v3.408h2.246a2.136,2.136,0,0,0,1.426-.425,1.487,1.487,0,0,0,.5-1.2,1.576,1.576,0,0,0-1.768-1.787Zm0-2.246H39.17a2.539,2.539,0,0,0,1.6-.411,1.46,1.46,0,0,0,.479-1.185,1.533,1.533,0,0,0-.518-1.3,2.77,2.77,0,0,0-1.67-.4h-1.68Zm23.672,1.24H52.012V-9.59h9.043Zm0,4.287H52.012V-5.3h9.043ZM68.525,0V-14.219h5.107a7.232,7.232,0,0,1,4.175,1.006,3.347,3.347,0,0,1,1.431,2.92,3.383,3.383,0,0,1-.508,1.885,2.959,2.959,0,0,1-1.494,1.152,3,3,0,0,1,1.709,1.094,3.18,3.18,0,0,1,.6,1.953,3.765,3.765,0,0,1-1.323,3.14A6.3,6.3,0,0,1,74.3,0Zm3.428-6.045v3.408H74.2a2.136,2.136,0,0,0,1.426-.425,1.487,1.487,0,0,0,.5-1.2,1.576,1.576,0,0,0-1.768-1.787Zm0-2.246H73.74a2.539,2.539,0,0,0,1.6-.411,1.46,1.46,0,0,0,.479-1.185,1.533,1.533,0,0,0-.518-1.3,2.77,2.77,0,0,0-1.67-.4h-1.68ZM88.77-9.341l-3.184-.878.635-1.844,3.115,1.278-.244-3.434h2.09l-.254,3.5,3.027-1.249L94.59-10.1l-3.223.878,2.139,2.588L91.816-5.483,90.029-8.354l-1.8,2.773-1.689-1.1Zm19.99,6.685h-4.7L103.242,0H99.58l5.215-14.219h3.223L113.271,0H109.59ZM104.883-5.3h3.057l-1.533-4.932Z" transform="translate(757 1790)" fill="#fff"/>
    <g id="Trazado_110926" data-name="Trazado 110926" transform="translate(423 1797)" fill="#fff">
      <path d="M 779.5 143.5 L 0.5 143.5 L 0.5 0.5 L 779.5 0.5 L 779.5 143.5 Z" stroke="none"/>
      <path d="M 1 1 L 1 143 L 779 143 L 779 1 L 1 1 M 0 0 L 780 0 L 780 144 L 0 144 L 0 0 Z" stroke="none" fill="#43babe"/>
    </g>
    <g id="Grupo_59339" data-name="Grupo 59339" transform="translate(4064 10714)">
      <path id="Unión_32" data-name="Unión 32" d="M42.993,88V70.4H0V65.706H42.993V23.467H0V18.773H42.993V0H97.637a44.374,44.374,0,0,1,44.179,40.24H185v4.693H142A43.631,43.631,0,0,1,98.376,88Z" transform="translate(-3567 -8896)" fill="#70089b"/>
      <path id="Unión_33" data-name="Unión 33" d="M42.993,88V70.4H0V65.706H42.993V23.467H0V18.773H42.993V0H97.637a44.382,44.382,0,0,1,43.8,37.24H185v4.694H141.941q.066,1.211.066,2.436A43.63,43.63,0,0,1,98.376,88Z" transform="translate(-3143 -8896)" fill="#70089b"/>
      <g id="Grupo_59337" data-name="Grupo 59337" transform="translate(51 -25)">
        <rect id="Rectángulo_9240" data-name="Rectángulo 9240" width="32" height="41" transform="translate(-3650 -8824)" fill="#43babe"/>
        <path id="Trazado_110932" data-name="Trazado 110932" d="M1.9,0V-16.352H7.244a6.205,6.205,0,0,1,4,1.1,3.967,3.967,0,0,1,1.342,3.257,3.321,3.321,0,0,1-.651,2.027A4.223,4.223,0,0,1,10.164-8.6a3.792,3.792,0,0,1,2.094,1.409,4.045,4.045,0,0,1,.769,2.476A4.373,4.373,0,0,1,11.6-1.258,5.9,5.9,0,0,1,7.569,0ZM4.054-7.648v5.885h3.56A3.428,3.428,0,0,0,9.99-2.544a2.741,2.741,0,0,0,.87-2.151q0-2.954-3.212-2.954Zm0-1.729H7.311a3.414,3.414,0,0,0,2.263-.709,2.377,2.377,0,0,0,.848-1.925,2.338,2.338,0,0,0-.786-1.964,3.861,3.861,0,0,0-2.392-.613H4.054Z" transform="translate(-3641 -8797)" fill="#12263f"/>
      </g>
      <g id="Grupo_59336" data-name="Grupo 59336" transform="translate(51 -72)">
        <rect id="Rectángulo_9248" data-name="Rectángulo 9248" width="32" height="41" transform="translate(-3226 -8824)" fill="#43babe"/>
        <path id="Trazado_110928" data-name="Trazado 110928" d="M1.9,0V-16.352H7.244a6.205,6.205,0,0,1,4,1.1,3.967,3.967,0,0,1,1.342,3.257,3.321,3.321,0,0,1-.651,2.027A4.223,4.223,0,0,1,10.164-8.6a3.792,3.792,0,0,1,2.094,1.409,4.045,4.045,0,0,1,.769,2.476A4.373,4.373,0,0,1,11.6-1.258,5.9,5.9,0,0,1,7.569,0ZM4.054-7.648v5.885h3.56A3.428,3.428,0,0,0,9.99-2.544a2.741,2.741,0,0,0,.87-2.151q0-2.954-3.212-2.954Zm0-1.729H7.311a3.414,3.414,0,0,0,2.263-.709,2.377,2.377,0,0,0,.848-1.925,2.338,2.338,0,0,0-.786-1.964,3.861,3.861,0,0,0-2.392-.613H4.054Z" transform="translate(-3217 -8796)" fill="#12263f"/>
      </g>
      <g id="Grupo_59338" data-name="Grupo 59338" transform="translate(51 -15)">
        <rect id="Rectángulo_9239" data-name="Rectángulo 9239" width="32" height="42" transform="translate(-3650 -8882)" fill="#43babe"/>
        <path id="Trazado_110931" data-name="Trazado 110931" d="M10.452-4.093H3.9L2.428,0H.3L6.273-15.641h1.8L14.062,0H11.945ZM4.522-5.779H9.84L7.176-13.095Z" transform="translate(-3641 -8853)" fill="#12263f"/>
      </g>
      <g id="Grupo_59335" data-name="Grupo 59335" transform="translate(51 34)">
        <rect id="Rectángulo_9247" data-name="Rectángulo 9247" width="32" height="42" transform="translate(-3226 -8882)" fill="#43babe"/>
        <path id="Trazado_110927" data-name="Trazado 110927" d="M10.452-4.093H3.9L2.428,0H.3L6.273-15.641h1.8L14.062,0H11.945ZM4.522-5.779H9.84L7.176-13.095Z" transform="translate(-3217 -8853)" fill="#12263f"/>
      </g>
      <g id="Grupo_59332" data-name="Grupo 59332" transform="translate(-3382.582 -8872.787)">
        <rect id="Rectángulo_9076" data-name="Rectángulo 9076" width="32" height="42" transform="translate(-0.418 -0.212)" fill="#43babe"/>
        <path id="Trazado_110930" data-name="Trazado 110930" d="M6.585-7.788l4.082-7.853h2.342L7.616-5.833V0H5.554V-5.833L.161-15.641H2.524Z" transform="translate(9.582 28.788)" fill="#12263f"/>
      </g>
      <g id="Grupo_59334" data-name="Grupo 59334" transform="translate(-2958.705 -8872.787)">
        <rect id="Rectángulo_9076-2" data-name="Rectángulo 9076" width="32" height="42" transform="translate(-0.295 -0.212)" fill="#43babe"/>
        <path id="Trazado_110929" data-name="Trazado 110929" d="M6.585-7.788l4.082-7.853h2.342L7.616-5.833V0H5.554V-5.833L.161-15.641H2.524Z" transform="translate(9.705 28.788)" fill="#12263f"/>
      </g>
      <g id="Grupo_59333" data-name="Grupo 59333" transform="translate(-3285.4 -8865.206)">
        <rect id="Rectángulo_9241" data-name="Rectángulo 9241" width="44" height="9" transform="translate(0.4 0.207)" fill="#0155a0"/>
        <rect id="Rectángulo_9242" data-name="Rectángulo 9242" width="44" height="9" transform="translate(0.4 16.207)" fill="#0155a0"/>
      </g>
    </g>
  </g>
</svg>
