<svg xmlns="http://www.w3.org/2000/svg" width="95" height="101.75" viewBox="0 0 95 101.75">
  <g id="Grupo_66049" data-name="Grupo 66049" transform="translate(-216 -1715.25)">
    <path id="Unión_12" data-name="Unión 12" d="M22.078,50V40H0V37.333H22.078v-24H0V10.667H22.078V0H49.172a23.75,23.75,0,0,1,23.75,23.75c0,.083,0,.167,0,.25H95v2.667H72.762A26.253,26.253,0,0,1,46.672,50Z" transform="translate(216 1767)" fill="#fff"/>
    <path id="Trazado_110945" data-name="Trazado 110945" d="M15.2-5.953H5.672L3.531,0H.438L9.125-22.75H11.75L20.453,0H17.375ZM6.578-8.406h7.734L10.438-19.047ZM41,0H37.984L26.531-17.531V0H23.516V-22.75h3.016L38.016-5.141V-22.75H41Zm5.328,0V-22.75H52.75A10.338,10.338,0,0,1,58-21.437,8.877,8.877,0,0,1,61.523-17.7a12.155,12.155,0,0,1,1.258,5.563v1.453a12.2,12.2,0,0,1-1.242,5.641,8.738,8.738,0,0,1-3.547,3.719A11,11,0,0,1,52.625,0Zm3-20.3V-2.453h3.156a6.867,6.867,0,0,0,5.4-2.158,8.917,8.917,0,0,0,1.93-6.146v-1.329a9.058,9.058,0,0,0-1.82-6.029A6.478,6.478,0,0,0,52.828-20.3Z" transform="translate(231 1738)" fill="#fff"/>
  </g>
</svg>
