<svg xmlns="http://www.w3.org/2000/svg" xmlns:xlink="http://www.w3.org/1999/xlink" width="428.176" height="117.095" viewBox="0 0 428.176 117.095">
  <defs>
    <clipPath id="clip">
      <use xlink:href="#fill"/>
    </clipPath>
  </defs>
  <g id="Grupo_66014" data-name="Grupo 66014" transform="translate(-821 -3878.351)">
    <g id="Grupo_59495" data-name="Grupo 59495" transform="translate(823.356 3951.749)">
      <text id="_0" data-name="0" transform="translate(0 18)" fill="#12263f" font-size="17" font-family="Roboto-Black, Roboto" font-weight="800"><tspan x="0" y="0">0</tspan></text>
    </g>
    <g id="Grupo_59497" data-name="Grupo 59497" transform="translate(822 3914.443)">
      <text id="A" transform="translate(0 18)" fill="#12263f" font-size="17" font-family="Roboto-Black, Roboto" font-weight="800"><tspan x="0" y="0">A</tspan></text>
    </g>
    <g id="Grupo_59494" data-name="Grupo 59494" transform="translate(849.035 3914.631)">
      <g id="Sustracción_6" data-name="Sustracción 6" transform="translate(12.666 0)" fill="none">
        <path d="M48.555,68.637H7.646a34.6,34.6,0,0,1-6.675-.649c17.964-6.356,29.123-19.153,29.123-33.4C30.094,20.233,18.282,6.992,0,.855A34.511,34.511,0,0,1,7.646,0H48.555A34.321,34.321,0,0,1,82.7,30.859h29.349v3.459H82.873A34.29,34.29,0,0,1,48.555,68.637Z" stroke="none"/>
        <path d="M 48.55500411987305 66.63672637939453 C 52.9186897277832 66.63672637939453 57.15085601806641 65.78250885009766 61.13390731811523 64.09780883789062 C 64.98204040527344 62.47014236450195 68.43845367431641 60.13957595825195 71.40714263916016 57.17082595825195 C 74.37583923339844 54.20211029052734 76.70637512207031 50.74560928344727 78.33400726318359 46.8973274230957 C 80.01870727539062 42.91419219970703 80.8729248046875 38.68185806274414 80.8729248046875 34.31789398193359 L 80.8729248046875 32.68656539916992 L 80.71005249023438 31.05825996398926 C 79.91709136962891 23.13067626953125 76.22042083740234 15.79769229888916 70.301025390625 10.41012573242188 C 64.34222412109375 4.986775875091553 56.61933898925781 2.000009298324585 48.55500411987305 2.000009298324585 L 8.08441162109375 2.000009298324585 C 22.89334869384766 9.223054885864258 32.09420394897461 21.44246864318848 32.09420394897461 34.58880996704102 C 32.09420394897461 47.55717086791992 23.50700569152832 59.34980392456055 9.205907821655273 66.63672637939453 L 48.55500411987305 66.63672637939453 M 48.55500411987305 68.63672637939453 L 7.646405696868896 68.63672637939453 C 5.401522636413574 68.63672637939453 3.155622482299805 68.41841125488281 0.971055805683136 67.98782348632812 C 18.93482208251953 61.63179397583008 30.09420585632324 48.83477783203125 30.09420585632324 34.58880996704102 C 30.09420585632324 20.23310852050781 18.28158950805664 6.991809368133545 0.0001557963114464656 0.8549593687057495 C 2.49607253074646 0.2870093882083893 5.068605899810791 9.375000445288606e-06 7.646405696868896 9.375000445288606e-06 L 48.55500411987305 9.375000445288606e-06 C 57.11838912963867 9.375000445288606e-06 65.31935882568359 3.171776056289673 71.64722442626953 8.931026458740234 C 77.93257141113281 14.65165901184082 81.85790252685547 22.4392261505127 82.70011901855469 30.85919189453125 L 112.0491256713867 30.85920906066895 L 112.0491256713867 34.31789398193359 L 82.8729248046875 34.31789398193359 C 82.8729248046875 38.95140838623047 81.96522521972656 43.44620895385742 80.176025390625 47.67642593383789 C 78.44755554199219 51.76311111450195 75.97307586669922 55.43330764770508 72.82135772705078 58.58504104614258 C 69.66965484619141 61.73680877685547 65.99957275390625 64.21131134033203 61.91302108764648 65.93981170654297 C 57.68212127685547 67.72933959960938 53.18783950805664 68.63672637939453 48.55500411987305 68.63672637939453 Z" stroke="none" fill="#3776ae"/>
      </g>
      <g id="Grupo_59341" data-name="Grupo 59341" transform="translate(0 11.973)">
        <g id="Rectángulo_9255" data-name="Rectángulo 9255" fill="none" stroke="#3776ae" stroke-width="2">
          <rect width="34.965" height="3.112" stroke="none"/>
          <rect x="1" y="1" width="32.965" height="1.112" fill="none"/>
        </g>
        <g id="Rectángulo_9256" data-name="Rectángulo 9256" transform="translate(0 41.362)" fill="none" stroke="#3776ae" stroke-width="2">
          <rect width="34.965" height="3.328" stroke="none"/>
          <rect x="1" y="1" width="32.965" height="1.328" fill="none"/>
        </g>
      </g>
    </g>
    <g id="Trazado_110924" data-name="Trazado 110924" transform="translate(1009.328 3918.163) rotate(90)" fill="none">
      <path d="M28.75,0,57.5,36.322H0Z" stroke="none"/>
      <path d="M 28.74999809265137 3.222496032714844 L 4.133750915527344 34.32216644287109 L 53.36624145507812 34.32216644287109 L 28.74999809265137 3.222496032714844 M 28.74999809265137 -3.814697265625e-06 L 57.5 36.32216644287109 L -3.814697265625e-06 36.32216644287109 L 28.74999809265137 -3.814697265625e-06 Z" stroke="none" fill="#3776ae"/>
    </g>
    <g id="Trazado_110925" data-name="Trazado 110925" transform="translate(1165.953 3914.267)" fill="none">
      <path d="M3.723,0A3.71,3.71,0,1,1,0,3.71,3.716,3.716,0,0,1,3.723,0Z" stroke="none"/>
      <path d="M 3.722912788391113 2.000003337860107 C 2.772892951965332 2.000003337860107 2.000002861022949 2.767043590545654 2.000002861022949 3.70987343788147 C 2.000002861022949 4.652703285217285 2.772892951965332 5.419743537902832 3.722912788391113 5.419743537902832 C 4.672932624816895 5.419743537902832 5.445822715759277 4.652703285217285 5.445822715759277 3.70987343788147 C 5.445822715759277 2.767043590545654 4.672932624816895 2.000003337860107 3.722912788391113 2.000003337860107 M 3.722912788391113 3.337860107421875e-06 C 5.779022693634033 3.337860107421875e-06 7.445822715759277 1.660963535308838 7.445822715759277 3.70987343788147 C 7.445822715759277 5.758783340454102 5.779022693634033 7.419743537902832 3.722912788391113 7.419743537902832 C 1.666802883148193 7.419743537902832 2.86102294921875e-06 5.758783340454102 2.86102294921875e-06 3.70987343788147 C 2.86102294921875e-06 1.660963535308838 1.666802883148193 3.337860107421875e-06 3.722912788391113 3.337860107421875e-06 Z" stroke="none" fill="#3776ae"/>
    </g>
    <g id="Trazado_110926" data-name="Trazado 110926" transform="translate(1172 3916.233)" fill="none">
      <path d="M0,0H13.41V2.1H0Z" stroke="none"/>
      <path d="M -1.9073486328125e-06 0 L 13.41015815734863 0 L 13.41015815734863 2.098380088806152 L -1.9073486328125e-06 2.098380088806152 L -1.9073486328125e-06 0 Z" stroke="none" fill="#3776ae"/>
    </g>
    <g id="Trazado_110927" data-name="Trazado 110927" transform="translate(1185.41 3939.111)" fill="none">
      <path d="M0,0H31.98V2.1H0Z" stroke="none"/>
      <path d="M 0 0 L 31.97998046875 0 L 31.97998046875 2.098380088806152 L 0 2.098380088806152 L 0 0 Z" stroke="none" fill="#3776ae"/>
    </g>
    <g id="Trazado_110928" data-name="Trazado 110928" transform="translate(1185.41 3952.877)" fill="none">
      <path d="M0,0H31.98V2.1H0Z" stroke="none"/>
      <path d="M 0 0 L 31.97998046875 0 L 31.97998046875 2.098380088806152 L 0 2.098380088806152 L 0 0 Z" stroke="none" fill="#3776ae"/>
    </g>
    <g id="Trazado_110929" data-name="Trazado 110929" transform="translate(1131.562 3916.233)" fill="none">
      <path d="M0,0H15.734V2.1H0Z" stroke="none"/>
      <path d="M 0 0 L 15.73439979553223 0 L 15.73439979553223 2.098380088806152 L 0 2.098380088806152 L 0 0 Z" stroke="none" fill="#3776ae"/>
    </g>
    <g id="Trazado_110930" data-name="Trazado 110930" transform="translate(1013.505 3945.083)" fill="none">
      <path d="M0,0H27.448V3.661H0Z" stroke="none"/>
      <path d="M -5.7220458984375e-06 7.152557373046875e-07 L 27.44848442077637 7.152557373046875e-07 L 27.44848442077637 3.660600662231445 L -5.7220458984375e-06 3.660600662231445 L -5.7220458984375e-06 7.152557373046875e-07 Z" stroke="none" fill="#3776ae"/>
    </g>
    <g id="Grupo_59333" data-name="Grupo 59333" transform="translate(1060.6 3935.207)">
      <rect id="Rectángulo_9241" data-name="Rectángulo 9241" width="44" height="9" transform="translate(0.4 0.207)" fill="#0155a0"/>
      <rect id="Rectángulo_9242" data-name="Rectángulo 9242" width="44" height="9" transform="translate(0.4 16.207)" fill="#0155a0"/>
    </g>
    <g id="Trazado_110931" data-name="Trazado 110931" transform="translate(1185.41 3917.282) rotate(90)" fill="none">
      <path d="M0,0H23.927V2.1H0Z" stroke="none"/>
      <path d="M 3.814697265625e-06 0 L 23.92724227905273 0 L 23.92724227905273 2.098380088806152 L 3.814697265625e-06 2.098380088806152 L 3.814697265625e-06 0 Z" stroke="none" fill="#3776ae"/>
    </g>
    <g id="Trazado_110932" data-name="Trazado 110932" transform="translate(1185.41 3952.877) rotate(90)" fill="none">
      <path d="M0,0H25.514V2.1H0Z" stroke="none"/>
      <path d="M -3.814697265625e-06 0 L 25.51367568969727 0 L 25.51367568969727 2.098380088806152 L -3.814697265625e-06 2.098380088806152 L -3.814697265625e-06 0 Z" stroke="none" fill="#3776ae"/>
    </g>
    <g id="Grupo_59509" data-name="Grupo 59509" transform="translate(1188.228 3929.569)">
      <g id="Rectángulo_9268" data-name="Rectángulo 9268" transform="translate(17.228)" fill="#fff" stroke="#3776ae" stroke-width="2">
        <path d="M0,0H14.308A18.184,18.184,0,0,1,32.492,18.184v0A17.881,17.881,0,0,1,14.611,36.064H0a0,0,0,0,1,0,0V0A0,0,0,0,1,0,0Z" stroke="none"/>
        <path d="M1,1H14.314A17.178,17.178,0,0,1,31.492,18.178v0A16.887,16.887,0,0,1,14.605,35.064H1a0,0,0,0,1,0,0V1A0,0,0,0,1,1,1Z" fill="none"/>
      </g>
      <g id="Rectángulo_9271" data-name="Rectángulo 9271" transform="translate(47.632 16.491)" fill="#fff" stroke="#3776ae" stroke-width="2">
        <rect id="fill" width="13.316" height="1.923" stroke="none"/>
        <path d="M0,0.9234367609024048h13.316099166870117M12.316099166870117,0v1.9234367609024048M13.316099166870117,1h-13.316099166870117M1,1.9234367609024048v-1.9234367609024048" fill="none" clip-path="url(#clip)"/>
      </g>
    </g>
    <g id="Trazado_110933" data-name="Trazado 110933" transform="translate(1007.011 3941.652)" fill="#fff">
      <path d="M 6.49458122253418 11.94366455078125 C 3.464861154556274 11.94366455078125 1.000001192092896 9.489014625549316 1.000001192092896 6.471834182739258 C 1.000001192092896 3.454654216766357 3.464861154556274 1.000004172325134 6.49458122253418 1.000004172325134 C 9.524301528930664 1.000004172325134 11.98916149139404 3.454654216766357 11.98916149139404 6.471834182739258 C 11.98916149139404 9.489014625549316 9.524301528930664 11.94366455078125 6.49458122253418 11.94366455078125 Z" stroke="none"/>
      <path d="M 6.49458122253418 2.000003814697266 C 4.016261100769043 2.000003814697266 2.000000953674316 4.006053924560547 2.000000953674316 6.471834182739258 C 2.000000953674316 8.937614440917969 4.016261100769043 10.94366455078125 6.49458122253418 10.94366455078125 C 8.972901344299316 10.94366455078125 10.98916149139404 8.937614440917969 10.98916149139404 6.471834182739258 C 10.98916149139404 4.006053924560547 8.972901344299316 2.000003814697266 6.49458122253418 2.000003814697266 M 6.49458122253418 3.814697265625e-06 C 10.08144092559814 3.814697265625e-06 12.98916149139404 2.897534370422363 12.98916149139404 6.471834182739258 C 12.98916149139404 10.04612445831299 10.08144092559814 12.94366455078125 6.49458122253418 12.94366455078125 C 2.907721519470215 12.94366455078125 9.5367431640625e-07 10.04612445831299 9.5367431640625e-07 6.471834182739258 C 9.5367431640625e-07 2.897534370422363 2.907721519470215 3.814697265625e-06 6.49458122253418 3.814697265625e-06 Z" stroke="none" fill="#3776ae"/>
    </g>
    <g id="Trazado_110934" data-name="Trazado 110934" transform="translate(1167.281 3900.802) rotate(90)" fill="none">
      <path d="M16.48,0l16.48,20.821H0Z" stroke="none"/>
      <path d="M 16.48046875 3.222499847412109 L 4.133752822875977 18.82109642028809 L 28.82718467712402 18.82109642028809 L 16.48046875 3.222499847412109 M 16.48046875 -3.814697265625e-06 L 32.9609375 20.82109642028809 L 0 20.82109642028809 L 16.48046875 -3.814697265625e-06 Z" stroke="none" fill="#3776ae"/>
    </g>
    <g id="Grupo_59508" data-name="Grupo 59508" transform="translate(3.057 -115.429)">
      <g id="Polígono_29" data-name="Polígono 29" transform="translate(1164.225 4077.913) rotate(90)" fill="#fff">
        <path d="M 30.89405822753906 19.82109642028809 L 2.066879510879517 19.82109642028809 L 16.48046875 1.611252784729004 L 30.89405822753906 19.82109642028809 Z" stroke="none"/>
        <path d="M 16.48046875 3.222499847412109 L 4.133752822875977 18.82109642028809 L 28.82718467712402 18.82109642028809 L 16.48046875 3.222499847412109 M 16.48046875 -3.814697265625e-06 L 32.9609375 20.82109642028809 L 0 20.82109642028809 L 16.48046875 -3.814697265625e-06 Z" stroke="none" fill="#3776ae"/>
      </g>
      <g id="Elipse_4135" data-name="Elipse 4135" transform="translate(1162.896 4091.378)" fill="#fff" stroke="#3776ae" stroke-width="2">
        <ellipse cx="3.723" cy="3.71" rx="3.723" ry="3.71" stroke="none"/>
        <ellipse cx="3.723" cy="3.71" rx="2.723" ry="2.71" fill="none"/>
      </g>
      <g id="Rectángulo_9388" data-name="Rectángulo 9388" transform="translate(1168.943 4093.344)" fill="#fff" stroke="#3776ae" stroke-width="2">
        <rect width="13.41" height="2.098" stroke="none"/>
        <rect x="1" y="1" width="11.41" height="0.098" fill="none"/>
      </g>
      <g id="Rectángulo_9389" data-name="Rectángulo 9389" transform="translate(1128.505 4093.344)" fill="#fff" stroke="#3776ae" stroke-width="2">
        <rect width="15.734" height="2.098" stroke="none"/>
        <rect x="1" y="1" width="13.734" height="0.098" fill="none"/>
      </g>
    </g>
    <path id="Trazado_110939" data-name="Trazado 110939" d="M10.98-3.187H5.344L4.359,0H-.035L6.223-17.062H10.09L16.395,0H11.977ZM6.328-6.363H10l-1.84-5.918Zm20.121-4.846-3.82-1.054.762-2.213,3.738,1.534-.293-4.121h2.508l-.3,4.2,3.633-1.5.762,2.236-3.867,1.054,2.566,3.105L30.105-6.58l-2.145-3.445L25.8-6.7,23.777-8.021ZM40.746,0V-17.062h6.129a8.679,8.679,0,0,1,5.01,1.207,4.016,4.016,0,0,1,1.717,3.5,4.06,4.06,0,0,1-.609,2.262A3.551,3.551,0,0,1,51.2-8.707,3.6,3.6,0,0,1,53.25-7.395a3.816,3.816,0,0,1,.715,2.344,4.518,4.518,0,0,1-1.588,3.768A7.556,7.556,0,0,1,47.672,0Zm4.113-7.254v4.09h2.7a2.564,2.564,0,0,0,1.711-.51,1.784,1.784,0,0,0,.6-1.436,1.891,1.891,0,0,0-2.121-2.145Zm0-2.7H47a3.047,3.047,0,0,0,1.922-.494,1.752,1.752,0,0,0,.574-1.422,1.839,1.839,0,0,0-.621-1.557,3.324,3.324,0,0,0-2-.476H44.859ZM73.266-8.461H62.414v-3.047H73.266Zm0,5.145H62.414V-6.363H73.266Zm18.656.129H86.285L85.3,0H80.906l6.258-17.062h3.867L97.336,0H92.918ZM87.27-6.363h3.668L89.1-12.281ZM111.492-9.68h4v3.387h-4v4.582H107.8V-6.293h-4.008V-9.68H107.8v-4.453h3.691ZM123.352,0V-17.062h6.129a8.679,8.679,0,0,1,5.01,1.207,4.016,4.016,0,0,1,1.717,3.5,4.06,4.06,0,0,1-.609,2.262A3.551,3.551,0,0,1,133.8-8.707a3.6,3.6,0,0,1,2.051,1.313,3.816,3.816,0,0,1,.715,2.344,4.518,4.518,0,0,1-1.588,3.768A7.556,7.556,0,0,1,130.277,0Zm4.113-7.254v4.09h2.7a2.564,2.564,0,0,0,1.711-.51,1.784,1.784,0,0,0,.6-1.436,1.891,1.891,0,0,0-2.121-2.145Zm0-2.7h2.145a3.047,3.047,0,0,0,1.922-.494,1.752,1.752,0,0,0,.574-1.422,1.839,1.839,0,0,0-.621-1.557,3.324,3.324,0,0,0-2-.476h-2.016Z" transform="translate(967 3895.413)" fill="#12263f"/>
    <path id="Trazado_110941" data-name="Trazado 110941" d="M7.778-2.258H3.785L3.088,0H-.025L4.408-12.086H7.147L11.613,0H8.483Zm-3.3-2.25h2.6L5.777-8.7Z" transform="translate(822 3932.443)" fill="#12263f"/>
    <path id="Trazado_110938" data-name="Trazado 110938" d="M7.6-2.977H2.836L1.766,0H.219L4.563-11.375H5.875L10.227,0H8.688ZM3.289-4.2H7.156L5.219-9.523Zm9.727-3.48-2.359-.7.359-1.178,2.359.874-.07-2.685h1.2l-.078,2.724,2.32-.859L17.1-8.323l-2.4.71L16.25-5.5l-.969.734-1.453-2.25-1.406,2.2-.977-.711ZM18.648,0V-11.375h3.719a4.317,4.317,0,0,1,2.785.766,2.759,2.759,0,0,1,.934,2.266,2.31,2.31,0,0,1-.453,1.41,2.937,2.937,0,0,1-1.234.949A2.638,2.638,0,0,1,25.855-5a2.814,2.814,0,0,1,.535,1.723A3.042,3.042,0,0,1,25.4-.875a4.1,4.1,0,0,1-2.8.875Zm1.5-5.32v4.094h2.477a2.385,2.385,0,0,0,1.652-.543,1.907,1.907,0,0,0,.605-1.5q0-2.055-2.234-2.055Zm0-1.2h2.266a2.375,2.375,0,0,0,1.574-.493,1.654,1.654,0,0,0,.59-1.339,1.626,1.626,0,0,0-.547-1.366,2.686,2.686,0,0,0-1.664-.427H20.148Z" transform="translate(872 3904.413)" fill="#12263f"/>
    <path id="Trazado_110940" data-name="Trazado 110940" d="M0,0H27" transform="translate(871.5 3889.913)" fill="none" stroke="#12263f" stroke-width="1"/>
    <path id="Trazado_110935" data-name="Trazado 110935" d="M7.6-2.977H2.836L1.766,0H.219L4.563-11.375H5.875L10.227,0H8.688ZM3.289-4.2H7.156L5.219-9.523ZM15.672-6.1h3.172v1.367H15.672v3.594H14.219V-4.734H11.047V-6.1h3.172v-3.32h1.453ZM20.828,0V-11.375h3.719a4.317,4.317,0,0,1,2.785.766,2.759,2.759,0,0,1,.934,2.266,2.31,2.31,0,0,1-.453,1.41,2.937,2.937,0,0,1-1.234.949A2.638,2.638,0,0,1,28.035-5a2.814,2.814,0,0,1,.535,1.723,3.042,3.042,0,0,1-.992,2.406,4.1,4.1,0,0,1-2.8.875Zm1.5-5.32v4.094H24.8a2.385,2.385,0,0,0,1.652-.543,1.907,1.907,0,0,0,.605-1.5q0-2.055-2.234-2.055Zm0-1.2h2.266a2.375,2.375,0,0,0,1.574-.493,1.654,1.654,0,0,0,.59-1.339,1.626,1.626,0,0,0-.547-1.366,2.686,2.686,0,0,0-1.664-.427H22.328Z" transform="translate(1197 3904.413)" fill="#12263f"/>
    <path id="Trazado_110936" data-name="Trazado 110936" d="M0,0H8" transform="translate(1217.5 3888.913)" fill="none" stroke="#12263f" stroke-width="1"/>
    <path id="Trazado_110937" data-name="Trazado 110937" d="M0,0H8" transform="translate(1199 3888.913)" fill="none" stroke="#12263f" stroke-width="1"/>
  </g>
</svg>
