<svg xmlns="http://www.w3.org/2000/svg" width="522" height="304" viewBox="0 0 522 304">
  <g id="Grupo_66016" data-name="Grupo 66016" transform="translate(493 6022)">
    <path id="Trazado_110652" data-name="Trazado 110652" d="M22,0H500a22,22,0,0,1,22,22V282a22,22,0,0,1-22,22H22A22,22,0,0,1,0,282V22A22,22,0,0,1,22,0Z" transform="translate(-493 -6022)" fill="#fff"/>
    <path id="Trazado_110653" data-name="Trazado 110653" d="M5.576-14.219,8.75-4.326l3.164-9.893h4.512V0H12.988V-3.32l.332-6.8L9.883,0H7.617L4.17-10.127,4.5-3.32V0H1.074V-14.219ZM24.4,0a3.716,3.716,0,0,1-.312-.947A3.06,3.06,0,0,1,21.553.2a3.749,3.749,0,0,1-2.539-.9,2.875,2.875,0,0,1-1.045-2.271,2.955,2.955,0,0,1,1.27-2.6,6.468,6.468,0,0,1,3.691-.879h1.016v-.559q0-1.462-1.26-1.462a1.03,1.03,0,0,0-1.172,1.158H18.223a2.95,2.95,0,0,1,1.3-2.487,5.479,5.479,0,0,1,3.325-.956,4.8,4.8,0,0,1,3.193.986,3.429,3.429,0,0,1,1.2,2.705v4.678A4.79,4.79,0,0,0,27.7-.166V0ZM22.344-2.148a1.836,1.836,0,0,0,1.021-.264,1.653,1.653,0,0,0,.581-.6V-4.7h-.957q-1.719,0-1.719,1.543a.942.942,0,0,0,.3.728A1.1,1.1,0,0,0,22.344-2.148ZM38.877-5.205a6.372,6.372,0,0,1-1.108,3.931A3.554,3.554,0,0,1,34.775.2,3.046,3.046,0,0,1,32.383-.869V4.063H29.092V-10.566h3.076l.1.977a3.046,3.046,0,0,1,2.49-1.172,3.582,3.582,0,0,1,3.037,1.44,6.45,6.45,0,0,1,1.084,3.96ZM35.586-5.41q0-2.812-1.641-2.812a1.549,1.549,0,0,0-1.562.84v4.16a1.6,1.6,0,0,0,1.582.879q1.572,0,1.621-2.715ZM46.279,0a3.716,3.716,0,0,1-.312-.947A3.06,3.06,0,0,1,43.428.2a3.749,3.749,0,0,1-2.539-.9,2.875,2.875,0,0,1-1.045-2.271,2.955,2.955,0,0,1,1.27-2.6A6.468,6.468,0,0,1,44.8-6.455H45.82v-.559q0-1.462-1.26-1.462a1.03,1.03,0,0,0-1.172,1.158H40.1a2.95,2.95,0,0,1,1.3-2.487,5.479,5.479,0,0,1,3.325-.956,4.8,4.8,0,0,1,3.193.986,3.429,3.429,0,0,1,1.2,2.705v4.678A4.79,4.79,0,0,0,49.57-.166V0ZM44.219-2.148a1.836,1.836,0,0,0,1.021-.264,1.653,1.653,0,0,0,.581-.6V-4.7h-.957q-1.719,0-1.719,1.543a.942.942,0,0,0,.3.728A1.1,1.1,0,0,0,44.219-2.148Z" transform="translate(-255 -5981)" fill="#12263f"/>
    <path id="Trazado_110654" data-name="Trazado 110654" d="M0,0H57V44H0Z" transform="translate(-352 -5895)" fill="#68b1f2"/>
    <path id="Trazado_110655" data-name="Trazado 110655" d="M0,0H57V43H0Z" transform="translate(-352 -5796)" fill="#68b1f2"/>
    <path id="Trazado_110656" data-name="Trazado 110656" d="M0,0H58V44H0Z" transform="translate(-292 -5895)" fill="#68b1f2"/>
    <path id="Trazado_110657" data-name="Trazado 110657" d="M0,0H58V43H0Z" transform="translate(-292 -5796)" fill="#68b1f2"/>
    <path id="Trazado_110658" data-name="Trazado 110658" d="M0,0H57V44H0Z" transform="translate(-231 -5895)" fill="#68b1f2"/>
    <path id="Trazado_110659" data-name="Trazado 110659" d="M0,0H57V43H0Z" transform="translate(-231 -5796)" fill="#68b1f2"/>
    <path id="Trazado_110660" data-name="Trazado 110660" d="M0,0H57V44H0Z" transform="translate(-170 -5895)" fill="#68b1f2"/>
    <path id="Trazado_110661" data-name="Trazado 110661" d="M0,0H57V43H0Z" transform="translate(-170 -5796)" fill="#68b1f2"/>
    <path id="Trazado_110662" data-name="Trazado 110662" d="M0,0H57V43H0Z" transform="translate(-352 -5944)" fill="#0155a0"/>
    <path id="Trazado_110663" data-name="Trazado 110663" d="M0,0H57V44H0Z" transform="translate(-352 -5846)" fill="#0155a0"/>
    <path id="Trazado_110664" data-name="Trazado 110664" d="M0,0H58V43H0Z" transform="translate(-292 -5944)" fill="#0155a0"/>
    <path id="Trazado_110665" data-name="Trazado 110665" d="M0,0H58V44H0Z" transform="translate(-292 -5846)" fill="#0155a0"/>
    <path id="Trazado_110666" data-name="Trazado 110666" d="M0,0H57V43H0Z" transform="translate(-231 -5944)" fill="#0155a0"/>
    <path id="Trazado_110667" data-name="Trazado 110667" d="M0,0H57V44H0Z" transform="translate(-231 -5846)" fill="#0155a0"/>
    <path id="Trazado_110668" data-name="Trazado 110668" d="M0,0H57V43H0Z" transform="translate(-170 -5944)" fill="#0155a0"/>
    <path id="Trazado_110669" data-name="Trazado 110669" d="M0,0H57V44H0Z" transform="translate(-170 -5846)" fill="#0155a0"/>
    <path id="Trazado_110670" data-name="Trazado 110670" d="M6.059-3.639a4.958,4.958,0,0,1-.65,2.83A2.313,2.313,0,0,1,3.375.117,2.33,2.33,0,0,1,1.354-.788a4.706,4.706,0,0,1-.68-2.7V-4.939a4.847,4.847,0,0,1,.65-2.795,2.331,2.331,0,0,1,2.039-.914,2.352,2.352,0,0,1,2.027.882,4.678,4.678,0,0,1,.668,2.722ZM4.975-5.121a3.972,3.972,0,0,0-.387-2.007,1.331,1.331,0,0,0-1.225-.63,1.314,1.314,0,0,0-1.213.627A3.878,3.878,0,0,0,1.758-5.2v1.734a4.036,4.036,0,0,0,.4,2.042,1.329,1.329,0,0,0,1.216.659,1.31,1.31,0,0,0,1.192-.621,3.89,3.89,0,0,0,.407-1.957ZM12.8-3.639a4.958,4.958,0,0,1-.65,2.83,2.313,2.313,0,0,1-2.033.926A2.33,2.33,0,0,1,8.092-.788a4.706,4.706,0,0,1-.68-2.7V-4.939a4.847,4.847,0,0,1,.65-2.795A2.331,2.331,0,0,1,10.1-8.648a2.352,2.352,0,0,1,2.027.882A4.678,4.678,0,0,1,12.8-5.045ZM11.713-5.121a3.972,3.972,0,0,0-.387-2.007,1.331,1.331,0,0,0-1.225-.63,1.314,1.314,0,0,0-1.213.627A3.878,3.878,0,0,0,8.5-5.2v1.734a4.036,4.036,0,0,0,.4,2.042,1.329,1.329,0,0,0,1.216.659,1.31,1.31,0,0,0,1.192-.621,3.89,3.89,0,0,0,.407-1.957Z" transform="translate(-328 -5955)" fill="#12263f"/>
    <path id="Trazado_110671" data-name="Trazado 110671" d="M6.059-3.639a4.958,4.958,0,0,1-.65,2.83A2.313,2.313,0,0,1,3.375.117,2.33,2.33,0,0,1,1.354-.788a4.706,4.706,0,0,1-.68-2.7V-4.939a4.847,4.847,0,0,1,.65-2.795,2.331,2.331,0,0,1,2.039-.914,2.352,2.352,0,0,1,2.027.882,4.678,4.678,0,0,1,.668,2.722ZM4.975-5.121a3.972,3.972,0,0,0-.387-2.007,1.331,1.331,0,0,0-1.225-.63,1.314,1.314,0,0,0-1.213.627A3.878,3.878,0,0,0,1.758-5.2v1.734a4.036,4.036,0,0,0,.4,2.042,1.329,1.329,0,0,0,1.216.659,1.31,1.31,0,0,0,1.192-.621,3.89,3.89,0,0,0,.407-1.957ZM11.01,0H9.92V-7.225l-2.186.8v-.984L10.84-8.572h.17Z" transform="translate(-268 -5955)" fill="#12263f"/>
    <path id="Trazado_110672" data-name="Trazado 110672" d="M4.271,0H3.182V-7.225L1-6.422v-.984L4.1-8.572h.17ZM11.01,0H9.92V-7.225l-2.186.8v-.984L10.84-8.572h.17Z" transform="translate(-208 -5955)" fill="#12263f"/>
    <path id="Trazado_110673" data-name="Trazado 110673" d="M4.271,0H3.182V-7.225L1-6.422v-.984L4.1-8.572h.17ZM12.8-3.639a4.958,4.958,0,0,1-.65,2.83,2.313,2.313,0,0,1-2.033.926A2.33,2.33,0,0,1,8.092-.788a4.706,4.706,0,0,1-.68-2.7V-4.939a4.847,4.847,0,0,1,.65-2.795A2.331,2.331,0,0,1,10.1-8.648a2.352,2.352,0,0,1,2.027.882A4.678,4.678,0,0,1,12.8-5.045ZM11.713-5.121a3.972,3.972,0,0,0-.387-2.007,1.331,1.331,0,0,0-1.225-.63,1.314,1.314,0,0,0-1.213.627A3.878,3.878,0,0,0,8.5-5.2v1.734a4.036,4.036,0,0,0,.4,2.042,1.329,1.329,0,0,0,1.216.659,1.31,1.31,0,0,0,1.192-.621,3.89,3.89,0,0,0,.407-1.957Z" transform="translate(-149 -5955)" fill="#12263f"/>
    <path id="Trazado_110674" data-name="Trazado 110674" d="M6.059-3.639a4.958,4.958,0,0,1-.65,2.83A2.313,2.313,0,0,1,3.375.117,2.33,2.33,0,0,1,1.354-.788a4.706,4.706,0,0,1-.68-2.7V-4.939a4.847,4.847,0,0,1,.65-2.795,2.331,2.331,0,0,1,2.039-.914,2.352,2.352,0,0,1,2.027.882,4.678,4.678,0,0,1,.668,2.722ZM4.975-5.121a3.972,3.972,0,0,0-.387-2.007,1.331,1.331,0,0,0-1.225-.63,1.314,1.314,0,0,0-1.213.627A3.878,3.878,0,0,0,1.758-5.2v1.734a4.036,4.036,0,0,0,.4,2.042,1.329,1.329,0,0,0,1.216.659,1.31,1.31,0,0,0,1.192-.621,3.89,3.89,0,0,0,.407-1.957Z" transform="translate(-370 -5917)" fill="#12263f"/>
    <path id="Trazado_110675" data-name="Trazado 110675" d="M6.059-3.639a4.958,4.958,0,0,1-.65,2.83A2.313,2.313,0,0,1,3.375.117,2.33,2.33,0,0,1,1.354-.788a4.706,4.706,0,0,1-.68-2.7V-4.939a4.847,4.847,0,0,1,.65-2.795,2.331,2.331,0,0,1,2.039-.914,2.352,2.352,0,0,1,2.027.882,4.678,4.678,0,0,1,.668,2.722ZM4.975-5.121a3.972,3.972,0,0,0-.387-2.007,1.331,1.331,0,0,0-1.225-.63,1.314,1.314,0,0,0-1.213.627A3.878,3.878,0,0,0,1.758-5.2v1.734a4.036,4.036,0,0,0,.4,2.042,1.329,1.329,0,0,0,1.216.659,1.31,1.31,0,0,0,1.192-.621,3.89,3.89,0,0,0,.407-1.957Z" transform="translate(-326 -5917)" fill="#fff"/>
    <path id="Trazado_110676" data-name="Trazado 110676" d="M6.3,0H.709V-.779L3.662-4.061a7.016,7.016,0,0,0,.905-1.21,2.019,2.019,0,0,0,.249-.964,1.531,1.531,0,0,0-.4-1.1,1.414,1.414,0,0,0-1.078-.428,1.674,1.674,0,0,0-1.257.46,1.757,1.757,0,0,0-.448,1.28H.545a2.516,2.516,0,0,1,.759-1.9,2.813,2.813,0,0,1,2.03-.727,2.7,2.7,0,0,1,1.881.624,2.129,2.129,0,0,1,.691,1.661,4.88,4.88,0,0,1-1.605,3L2.016-.885H6.3Z" transform="translate(-326 -5819)" fill="#fff"/>
    <path id="Trazado_110677" data-name="Trazado 110677" d="M5.285-2.865H6.469v.885H5.285V0H4.2V-1.98H.311v-.639l3.82-5.912H5.285Zm-3.744,0H4.2V-7.049l-.129.234Z" transform="translate(-267 -5917)" fill="#fff"/>
    <path id="Trazado_110678" data-name="Trazado 110678" d="M4.963-8.537v.92h-.2a2.854,2.854,0,0,0-2.016.75,3.121,3.121,0,0,0-.867,2.045A2.314,2.314,0,0,1,3.721-5.6,2.212,2.212,0,0,1,5.5-4.811a3.028,3.028,0,0,1,.665,2.027A3.019,3.019,0,0,1,5.446-.674,2.472,2.472,0,0,1,3.521.117a2.435,2.435,0,0,1-1.986-.94A3.727,3.727,0,0,1,.773-3.246v-.416a5.616,5.616,0,0,1,1-3.6A3.691,3.691,0,0,1,4.77-8.537ZM3.539-4.693a1.729,1.729,0,0,0-1.025.334,1.74,1.74,0,0,0-.65.838v.4a2.8,2.8,0,0,0,.475,1.7,1.422,1.422,0,0,0,1.184.645,1.378,1.378,0,0,0,1.151-.539A2.237,2.237,0,0,0,5.092-2.73a2.238,2.238,0,0,0-.425-1.421A1.362,1.362,0,0,0,3.539-4.693Z" transform="translate(-267 -5819)" fill="#fff"/>
    <path id="Trazado_110679" data-name="Trazado 110679" d="M4.271,0H3.182V-7.225L1-6.422v-.984L4.1-8.572h.17Zm8.766,0H7.447V-.779L10.4-4.061a7.016,7.016,0,0,0,.905-1.21,2.019,2.019,0,0,0,.249-.964,1.531,1.531,0,0,0-.4-1.1,1.414,1.414,0,0,0-1.078-.428,1.674,1.674,0,0,0-1.257.46,1.757,1.757,0,0,0-.448,1.28H7.283a2.516,2.516,0,0,1,.759-1.9,2.813,2.813,0,0,1,2.03-.727,2.7,2.7,0,0,1,1.881.624,2.129,2.129,0,0,1,.691,1.661,4.88,4.88,0,0,1-1.605,3L8.754-.885h4.283Z" transform="translate(-209 -5917)" fill="#fff"/>
    <path id="Trazado_110680" data-name="Trazado 110680" d="M4.271,0H3.182V-7.225L1-6.422v-.984L4.1-8.572h.17Zm7.752-2.865h1.184v.885H12.023V0h-1.09V-1.98H7.049v-.639l3.82-5.912h1.154Zm-3.744,0h2.654V-7.049l-.129.234Z" transform="translate(-209 -5819)" fill="#fff"/>
    <path id="Trazado_110681" data-name="Trazado 110681" d="M5.883-6.3a1.981,1.981,0,0,1-.337,1.137,2.292,2.292,0,0,1-.911.779,2.445,2.445,0,0,1,1.058.838A2.108,2.108,0,0,1,6.082-2.3,2.229,2.229,0,0,1,5.335-.539,2.87,2.87,0,0,1,3.369.117,2.857,2.857,0,0,1,1.4-.542,2.24,2.24,0,0,1,.656-2.3a2.171,2.171,0,0,1,.378-1.248A2.352,2.352,0,0,1,2.08-4.395a2.236,2.236,0,0,1-.9-.779A2.009,2.009,0,0,1,.855-6.3a2.205,2.205,0,0,1,.691-1.711,2.594,2.594,0,0,1,1.822-.633,2.6,2.6,0,0,1,1.819.633A2.2,2.2,0,0,1,5.883-6.3ZM5-2.326a1.572,1.572,0,0,0-.454-1.166,1.61,1.61,0,0,0-1.187-.451A1.582,1.582,0,0,0,2.183-3.5,1.59,1.59,0,0,0,1.74-2.326a1.514,1.514,0,0,0,.431,1.143,1.653,1.653,0,0,0,1.2.416,1.648,1.648,0,0,0,1.2-.419A1.511,1.511,0,0,0,5-2.326ZM3.369-7.758a1.4,1.4,0,0,0-1.034.4,1.453,1.453,0,0,0-.4,1.075,1.446,1.446,0,0,0,.39,1.052,1.383,1.383,0,0,0,1.04.4,1.383,1.383,0,0,0,1.04-.4A1.446,1.446,0,0,0,4.8-6.287a1.446,1.446,0,0,0-.4-1.061A1.379,1.379,0,0,0,3.369-7.758Z" transform="translate(-145 -5917)" fill="#fff"/>
    <path id="Trazado_110682" data-name="Trazado 110682" d="M4.271,0H3.182V-7.225L1-6.422v-.984L4.1-8.572h.17ZM12.8-3.639a4.958,4.958,0,0,1-.65,2.83,2.313,2.313,0,0,1-2.033.926A2.33,2.33,0,0,1,8.092-.788a4.706,4.706,0,0,1-.68-2.7V-4.939a4.847,4.847,0,0,1,.65-2.795A2.331,2.331,0,0,1,10.1-8.648a2.352,2.352,0,0,1,2.027.882A4.678,4.678,0,0,1,12.8-5.045ZM11.713-5.121a3.972,3.972,0,0,0-.387-2.007,1.331,1.331,0,0,0-1.225-.63,1.314,1.314,0,0,0-1.213.627A3.878,3.878,0,0,0,8.5-5.2v1.734a4.036,4.036,0,0,0,.4,2.042,1.329,1.329,0,0,0,1.216.659,1.31,1.31,0,0,0,1.192-.621,3.89,3.89,0,0,0,.407-1.957Z" transform="translate(-149 -5819)" fill="#fff"/>
    <path id="Trazado_110683" data-name="Trazado 110683" d="M6.059-3.639a4.958,4.958,0,0,1-.65,2.83A2.313,2.313,0,0,1,3.375.117,2.33,2.33,0,0,1,1.354-.788a4.706,4.706,0,0,1-.68-2.7V-4.939a4.847,4.847,0,0,1,.65-2.795,2.331,2.331,0,0,1,2.039-.914,2.352,2.352,0,0,1,2.027.882,4.678,4.678,0,0,1,.668,2.722ZM4.975-5.121a3.972,3.972,0,0,0-.387-2.007,1.331,1.331,0,0,0-1.225-.63,1.314,1.314,0,0,0-1.213.627A3.878,3.878,0,0,0,1.758-5.2v1.734a4.036,4.036,0,0,0,.4,2.042,1.329,1.329,0,0,0,1.216.659,1.31,1.31,0,0,0,1.192-.621,3.89,3.89,0,0,0,.407-1.957ZM11.01,0H9.92V-7.225l-2.186.8v-.984L10.84-8.572h.17Z" transform="translate(-373 -5868)" fill="#12263f"/>
    <path id="Trazado_110684" data-name="Trazado 110684" d="M4.271,0H3.182V-7.225L1-6.422v-.984L4.1-8.572h.17ZM11.01,0H9.92V-7.225l-2.186.8v-.984L10.84-8.572h.17Z" transform="translate(-373 -5819)" fill="#12263f"/>
    <path id="Trazado_110685" data-name="Trazado 110685" d="M4.271,0H3.182V-7.225L1-6.422v-.984L4.1-8.572h.17ZM12.8-3.639a4.958,4.958,0,0,1-.65,2.83,2.313,2.313,0,0,1-2.033.926A2.33,2.33,0,0,1,8.092-.788a4.706,4.706,0,0,1-.68-2.7V-4.939a4.847,4.847,0,0,1,.65-2.795A2.331,2.331,0,0,1,10.1-8.648a2.352,2.352,0,0,1,2.027.882A4.678,4.678,0,0,1,12.8-5.045ZM11.713-5.121a3.972,3.972,0,0,0-.387-2.007,1.331,1.331,0,0,0-1.225-.63,1.314,1.314,0,0,0-1.213.627A3.878,3.878,0,0,0,8.5-5.2v1.734a4.036,4.036,0,0,0,.4,2.042,1.329,1.329,0,0,0,1.216.659,1.31,1.31,0,0,0,1.192-.621,3.89,3.89,0,0,0,.407-1.957Z" transform="translate(-373 -5770)" fill="#12263f"/>
    <path id="Trazado_110686" data-name="Trazado 110686" d="M4.271,0H3.182V-7.225L1-6.422v-.984L4.1-8.572h.17Z" transform="translate(-326 -5868)" fill="#fff"/>
    <path id="Trazado_110687" data-name="Trazado 110687" d="M2.285-4.793H3.1a1.79,1.79,0,0,0,1.207-.4,1.351,1.351,0,0,0,.439-1.061,1.323,1.323,0,0,0-1.494-1.5,1.554,1.554,0,0,0-1.122.4,1.4,1.4,0,0,0-.419,1.063H.627a2.176,2.176,0,0,1,.741-1.685,2.7,2.7,0,0,1,1.884-.671,2.668,2.668,0,0,1,1.893.639A2.307,2.307,0,0,1,5.83-6.234a1.873,1.873,0,0,1-.36,1.078,2.176,2.176,0,0,1-.981.779,2.1,2.1,0,0,1,1.087.738,2.05,2.05,0,0,1,.384,1.26,2.327,2.327,0,0,1-.75,1.822A2.809,2.809,0,0,1,3.258.117,2.883,2.883,0,0,1,1.3-.533,2.158,2.158,0,0,1,.551-2.25h1.09A1.394,1.394,0,0,0,2.08-1.172a1.671,1.671,0,0,0,1.178.4,1.64,1.64,0,0,0,1.2-.41,1.581,1.581,0,0,0,.416-1.178A1.434,1.434,0,0,0,4.418-3.5,1.991,1.991,0,0,0,3.1-3.908H2.285Z" transform="translate(-326 -5770)" fill="#fff"/>
    <path id="Trazado_110688" data-name="Trazado 110688" d="M1.207-4.277l.434-4.254H6.012v1H2.561L2.3-5.2a2.753,2.753,0,0,1,1.424-.369A2.354,2.354,0,0,1,5.578-4.8a3.02,3.02,0,0,1,.686,2.083A2.915,2.915,0,0,1,5.552-.642,2.6,2.6,0,0,1,3.563.117,2.7,2.7,0,0,1,1.717-.51,2.5,2.5,0,0,1,.9-2.244H1.928a1.722,1.722,0,0,0,.521,1.1,1.621,1.621,0,0,0,1.113.372,1.463,1.463,0,0,0,1.187-.516A2.156,2.156,0,0,0,5.18-2.707a1.978,1.978,0,0,0-.466-1.374A1.584,1.584,0,0,0,3.475-4.6a1.787,1.787,0,0,0-1.113.311l-.287.234Z" transform="translate(-267 -5868)" fill="#fff"/>
    <path id="Trazado_110689" data-name="Trazado 110689" d="M6.217-7.922,2.684,0H1.547L5.068-7.641H.451v-.891H6.217Z" transform="translate(-267 -5770)" fill="#fff"/>
    <path id="Trazado_110690" data-name="Trazado 110690" d="M4.271,0H3.182V-7.225L1-6.422v-.984L4.1-8.572h.17ZM9.023-4.793h.814a1.79,1.79,0,0,0,1.207-.4,1.351,1.351,0,0,0,.439-1.061,1.323,1.323,0,0,0-1.494-1.5,1.554,1.554,0,0,0-1.122.4,1.4,1.4,0,0,0-.419,1.063H7.365a2.176,2.176,0,0,1,.741-1.685A2.7,2.7,0,0,1,9.99-8.648a2.668,2.668,0,0,1,1.893.639,2.307,2.307,0,0,1,.686,1.775,1.873,1.873,0,0,1-.36,1.078,2.176,2.176,0,0,1-.981.779,2.1,2.1,0,0,1,1.087.738,2.05,2.05,0,0,1,.384,1.26,2.327,2.327,0,0,1-.75,1.822A2.809,2.809,0,0,1,10,.117a2.883,2.883,0,0,1-1.954-.65A2.158,2.158,0,0,1,7.289-2.25h1.09a1.394,1.394,0,0,0,.439,1.078A1.671,1.671,0,0,0,10-.768a1.64,1.64,0,0,0,1.2-.41,1.581,1.581,0,0,0,.416-1.178A1.434,1.434,0,0,0,11.156-3.5a1.991,1.991,0,0,0-1.318-.41H9.023Z" transform="translate(-209 -5868)" fill="#fff"/>
    <path id="Trazado_110691" data-name="Trazado 110691" d="M4.271,0H3.182V-7.225L1-6.422v-.984L4.1-8.572h.17ZM7.945-4.277l.434-4.254H12.75v1H9.3L9.041-5.2a2.753,2.753,0,0,1,1.424-.369,2.354,2.354,0,0,1,1.852.771A3.02,3.02,0,0,1,13-2.719,2.915,2.915,0,0,1,12.29-.642,2.6,2.6,0,0,1,10.3.117,2.7,2.7,0,0,1,8.455-.51a2.5,2.5,0,0,1-.814-1.734H8.666a1.722,1.722,0,0,0,.521,1.1A1.621,1.621,0,0,0,10.3-.768a1.463,1.463,0,0,0,1.187-.516,2.156,2.156,0,0,0,.431-1.424,1.978,1.978,0,0,0-.466-1.374A1.584,1.584,0,0,0,10.213-4.6,1.787,1.787,0,0,0,9.1-4.289l-.287.234Z" transform="translate(-209 -5770)" fill="#fff"/>
    <path id="Trazado_110692" data-name="Trazado 110692" d="M4.863-3.75a2.652,2.652,0,0,1-.812.65,2.2,2.2,0,0,1-1.034.246,2.273,2.273,0,0,1-1.286-.363A2.362,2.362,0,0,1,.885-4.239,3.486,3.486,0,0,1,.586-5.7,3.551,3.551,0,0,1,.911-7.236a2.389,2.389,0,0,1,.923-1.049,2.632,2.632,0,0,1,1.395-.363,2.382,2.382,0,0,1,2,.946,4.128,4.128,0,0,1,.729,2.581V-4.8a5.515,5.515,0,0,1-.984,3.636A3.782,3.782,0,0,1,2,.006H1.787v-.92h.229a2.984,2.984,0,0,0,2.063-.7A3,3,0,0,0,4.863-3.75Zm-1.67,0a1.674,1.674,0,0,0,1-.334,1.969,1.969,0,0,0,.671-.826v-.434a2.983,2.983,0,0,0-.463-1.734,1.381,1.381,0,0,0-1.172-.668A1.392,1.392,0,0,0,2.086-7.2a2.26,2.26,0,0,0-.434,1.444,2.352,2.352,0,0,0,.419,1.438A1.326,1.326,0,0,0,3.193-3.75Z" transform="translate(-145 -5868)" fill="#fff"/>
    <path id="Trazado_110693" data-name="Trazado 110693" d="M4.271,0H3.182V-7.225L1-6.422v-.984L4.1-8.572h.17ZM11.01,0H9.92V-7.225l-2.186.8v-.984L10.84-8.572h.17Z" transform="translate(-149 -5770)" fill="#fff"/>
    <path id="Trazado_110694" data-name="Trazado 110694" d="M28.287,27.478,0,0" transform="translate(-377.706 -5969.261)" fill="none" stroke="#0155a0" stroke-width="3"/>
    <path id="Trazado_110695" data-name="Trazado 110695" d="M7.266-2.707a3.139,3.139,0,0,1-1,2.089A3.274,3.274,0,0,1,4.031.117,3.006,3.006,0,0,1,1.608-.967,4.361,4.361,0,0,1,.7-3.867v-.82a4.861,4.861,0,0,1,.425-2.092,3.173,3.173,0,0,1,1.2-1.386,3.353,3.353,0,0,1,1.8-.483,3.083,3.083,0,0,1,2.18.759,3.176,3.176,0,0,1,.955,2.1H6.135A2.451,2.451,0,0,0,5.5-7.27a1.924,1.924,0,0,0-1.368-.458,2.013,2.013,0,0,0-1.69.8,3.661,3.661,0,0,0-.612,2.269v.827a3.764,3.764,0,0,0,.58,2.211A1.874,1.874,0,0,0,4.031-.8,2.165,2.165,0,0,0,5.47-1.228a2.357,2.357,0,0,0,.665-1.479Z" transform="translate(-387 -5953)" fill="#0155a0"/>
    <path id="Trazado_110696" data-name="Trazado 110696" d="M.99,0V-8.531H3.779a3.238,3.238,0,0,1,2.089.574,2.07,2.07,0,0,1,.7,1.7A1.733,1.733,0,0,1,6.229-5.2a2.2,2.2,0,0,1-.926.712A1.979,1.979,0,0,1,6.4-3.753a2.11,2.11,0,0,1,.4,1.292,2.282,2.282,0,0,1-.744,1.8A3.077,3.077,0,0,1,3.949,0ZM2.115-3.99V-.92H3.973a1.788,1.788,0,0,0,1.239-.407,1.43,1.43,0,0,0,.454-1.122q0-1.541-1.676-1.541Zm0-.9h1.7A1.781,1.781,0,0,0,5-5.262a1.24,1.24,0,0,0,.442-1,1.22,1.22,0,0,0-.41-1.025,2.014,2.014,0,0,0-1.248-.32H2.115Zm11.057,2.66H9.6L8.795,0H7.635l3.258-8.531h.984L15.141,0H13.986Zm-3.234-.92h2.9l-1.453-3.99Z" transform="translate(-370 -5970)" fill="#0155a0"/>
  </g>
</svg>
