<svg xmlns="http://www.w3.org/2000/svg" width="107" height="107.921" viewBox="0 0 107 107.921">
  <g id="Grupo_66054" data-name="Grupo 66054" transform="translate(-1107 -1716.938)">
    <path id="Trazado_110950" data-name="Trazado 110950" d="M10.063-14.031l5.453-8.719h3.531L11.859-11.469,19.219,0H15.656L10.063-8.875,4.438,0H.891L8.266-11.469,1.063-22.75H4.578Zm29.75,3.391A14.073,14.073,0,0,1,38.688-4.8,8.521,8.521,0,0,1,35.5-1,8.77,8.77,0,0,1,30.688.313a8.7,8.7,0,0,1-4.766-1.32A8.725,8.725,0,0,1,22.7-4.773a13.5,13.5,0,0,1-1.18-5.664v-1.641a13.906,13.906,0,0,1,1.141-5.8,8.694,8.694,0,0,1,3.227-3.852,8.658,8.658,0,0,1,4.773-1.336,8.819,8.819,0,0,1,4.82,1.32,8.506,8.506,0,0,1,3.211,3.828,14.142,14.142,0,0,1,1.125,5.836Zm-2.984-1.469A10.2,10.2,0,0,0,35.2-18.32a5.36,5.36,0,0,0-4.547-2.164A5.3,5.3,0,0,0,26.18-18.32a9.991,9.991,0,0,0-1.68,6.008v1.672a10.215,10.215,0,0,0,1.648,6.164,5.325,5.325,0,0,0,4.539,2.242,5.3,5.3,0,0,0,4.5-2.117,10.157,10.157,0,0,0,1.641-6.07ZM52.656-9.2H47.313V0H44.3V-22.75h7.531A8.914,8.914,0,0,1,57.742-21a6.3,6.3,0,0,1,2.07,5.094,6.125,6.125,0,0,1-1.148,3.7,6.856,6.856,0,0,1-3.2,2.359L60.813-.187V0H57.594Zm-5.344-2.453h4.609a5.2,5.2,0,0,0,3.555-1.158,3.917,3.917,0,0,0,1.32-3.1,4.125,4.125,0,0,0-1.258-3.24A5.326,5.326,0,0,0,51.906-20.3H47.313Z" transform="translate(1130 1740)" fill="#f6f6f6"/>
    <g id="Grupo_59135" data-name="Grupo 59135" transform="translate(22.938 -24.531)">
      <g id="Grupo_59134" data-name="Grupo 59134" transform="translate(1094.707 1794.531)">
        <path id="Unión_10" data-name="Unión 10" d="M.64,54A30.24,30.24,0,0,0,16.508,27.36,30.136,30.136,0,0,0,0,.383V0H33.2A25.628,25.628,0,0,1,58.851,25.2H89v2.88H58.753A28.329,28.329,0,0,1,30.5,54Z" transform="translate(7.356 0)" fill="#fff"/>
        <path id="Trazado_106596" data-name="Trazado 106596" d="M-6772-9905s17.3,8.784,18.393,25.806-16.746,27.727-16.746,27.727" transform="translate(6772 9905.47)" fill="none" stroke="#fff" stroke-width="2"/>
      </g>
      <rect id="Rectángulo_9161" data-name="Rectángulo 9161" width="25" height="2" transform="translate(1084.063 1807.531)" fill="#fff"/>
      <rect id="Rectángulo_9162" data-name="Rectángulo 9162" width="25" height="2" transform="translate(1084.063 1834.531)" fill="#fff"/>
    </g>
  </g>
</svg>
