<svg xmlns="http://www.w3.org/2000/svg" xmlns:xlink="http://www.w3.org/1999/xlink" width="162" height="154" viewBox="0 0 162 154">
  <defs>
    <linearGradient id="linear-gradient" x1="0.5" x2="0.5" y2="1" gradientUnits="objectBoundingBox">
      <stop offset="0" stop-color="#47a0e6"/>
      <stop offset="1" stop-color="#0f2771"/>
    </linearGradient>
  </defs>
  <g id="Grupo_66038" data-name="Grupo 66038" transform="translate(-720 -1697)">
    <path id="Trazado_110933" data-name="Trazado 110933" d="M18,0H144a18,18,0,0,1,18,18V136a18,18,0,0,1-18,18H18A18,18,0,0,1,0,136V18A18,18,0,0,1,18,0Z" transform="translate(720 1697)" fill="url(#linear-gradient)"/>
    <path id="Trazado_110934" data-name="Trazado 110934" d="M20.125,0H17.109L5.656-17.531V0H2.641V-22.75H5.656L17.141-5.141V-22.75h2.984ZM38.3-5.953H28.766L26.625,0H23.531l8.688-22.75h2.625L43.547,0H40.469ZM29.672-8.406h7.734L33.531-19.047ZM64.094,0H61.078L49.625-17.531V0H46.609V-22.75h3.016L61.109-5.141V-22.75h2.984Zm5.328,0V-22.75h6.422a10.338,10.338,0,0,1,5.25,1.313A8.877,8.877,0,0,1,84.617-17.7a12.155,12.155,0,0,1,1.258,5.563v1.453a12.2,12.2,0,0,1-1.242,5.641,8.738,8.738,0,0,1-3.547,3.719A11,11,0,0,1,75.719,0Zm3-20.3V-2.453h3.156a6.867,6.867,0,0,0,5.4-2.158,8.917,8.917,0,0,0,1.93-6.146v-1.329a9.058,9.058,0,0,0-1.82-6.029A6.478,6.478,0,0,0,75.922-20.3Z" transform="translate(758 1740)" fill="#f6f6f6"/>
    <path id="Trazado_110935" data-name="Trazado 110935" d="M22.073,50V40H0V37.333H22.073v-24H0V10.667H22.073V0H47.82A23.759,23.759,0,0,1,71.091,18.982,5.357,5.357,0,0,1,78.259,24H101v2H77.869a5.366,5.366,0,0,1-6.825,3A26.258,26.258,0,0,1,45.319,50Z" transform="translate(750 1767)" fill="#fff"/>
  </g>
</svg>
