<svg xmlns="http://www.w3.org/2000/svg" width="378" height="283" viewBox="0 0 378 283">
  <g id="Grupo_66043" data-name="Grupo 66043" transform="translate(5928 7955)">
    <path id="Trazado_110974" data-name="Trazado 110974" d="M12.236-11.572H7.969V0H4.541V-11.572H.352v-2.646H12.236ZM17.842,0a3.716,3.716,0,0,1-.312-.947A3.06,3.06,0,0,1,14.99.2a3.749,3.749,0,0,1-2.539-.9,2.875,2.875,0,0,1-1.045-2.271,2.955,2.955,0,0,1,1.27-2.6,6.468,6.468,0,0,1,3.691-.879h1.016v-.559q0-1.462-1.26-1.462a1.03,1.03,0,0,0-1.172,1.158H11.66a2.95,2.95,0,0,1,1.3-2.487,5.479,5.479,0,0,1,3.325-.956,4.8,4.8,0,0,1,3.193.986,3.429,3.429,0,0,1,1.2,2.705v4.678a4.79,4.79,0,0,0,.449,2.227V0ZM15.781-2.148A1.836,1.836,0,0,0,16.8-2.412a1.653,1.653,0,0,0,.581-.6V-4.7h-.957q-1.719,0-1.719,1.543a.942.942,0,0,0,.3.728A1.1,1.1,0,0,0,15.781-2.148ZM32.314-5.2A6.44,6.44,0,0,1,31.24-1.2,3.6,3.6,0,0,1,28.213.2a3.122,3.122,0,0,1-2.6-1.279L25.479,0H22.529V-15H25.82v5.283a3.013,3.013,0,0,1,2.373-1.045A3.6,3.6,0,0,1,31.24-9.346a6.473,6.473,0,0,1,1.074,3.984Zm-3.3-.21a4.3,4.3,0,0,0-.405-2.169,1.366,1.366,0,0,0-1.245-.648,1.576,1.576,0,0,0-1.543.848v4.192a1.585,1.585,0,0,0,1.563.838,1.4,1.4,0,0,0,1.475-1.131A8.121,8.121,0,0,0,29.014-5.405ZM37.236,0h-3.3V-15h3.3Zm7.979,0A3.716,3.716,0,0,1,44.9-.947,3.06,3.06,0,0,1,42.363.2a3.749,3.749,0,0,1-2.539-.9,2.875,2.875,0,0,1-1.045-2.271,2.955,2.955,0,0,1,1.27-2.6,6.468,6.468,0,0,1,3.691-.879h1.016v-.559q0-1.462-1.26-1.462a1.03,1.03,0,0,0-1.172,1.158H39.033a2.95,2.95,0,0,1,1.3-2.487,5.479,5.479,0,0,1,3.325-.956,4.8,4.8,0,0,1,3.193.986,3.429,3.429,0,0,1,1.2,2.705v4.678a4.79,4.79,0,0,0,.449,2.227V0ZM43.154-2.148a1.836,1.836,0,0,0,1.021-.264,1.653,1.653,0,0,0,.581-.6V-4.7H43.8q-1.719,0-1.719,1.543a.942.942,0,0,0,.3.728A1.1,1.1,0,0,0,43.154-2.148ZM54.443-5.361a6.455,6.455,0,0,1,1.084-3.955,3.568,3.568,0,0,1,3.027-1.445,3.035,3.035,0,0,1,2.383,1.113V-15h3.3V0H61.279l-.166-1.133A3.116,3.116,0,0,1,58.535.2,3.562,3.562,0,0,1,55.547-1.25,6.659,6.659,0,0,1,54.443-5.361Zm3.291.205q0,2.813,1.641,2.813a1.62,1.62,0,0,0,1.563-.918V-7.285a1.576,1.576,0,0,0-1.543-.937q-1.523,0-1.65,2.461ZM71.221.2a5.432,5.432,0,0,1-3.936-1.45,5.008,5.008,0,0,1-1.5-3.774V-5.3a6.489,6.489,0,0,1,.6-2.861,4.395,4.395,0,0,1,1.753-1.919,5.292,5.292,0,0,1,2.734-.679A4.574,4.574,0,0,1,74.385-9.38a5.43,5.43,0,0,1,1.289,3.853v1.279H69.131a2.372,2.372,0,0,0,.771,1.4,2.3,2.3,0,0,0,1.543.508,2.958,2.958,0,0,0,2.441-1.094l1.5,1.777A4.2,4.2,0,0,1,73.647-.308,5.891,5.891,0,0,1,71.221.2ZM70.85-8.223q-1.445,0-1.719,1.914h3.32v-.254a1.63,1.63,0,0,0-.4-1.226A1.593,1.593,0,0,0,70.85-8.223ZM86.191-3.916l1.67-6.65h3.467L87.881,0H84.521L81.074-10.566h3.477ZM97.295.2a5.432,5.432,0,0,1-3.936-1.45,5.008,5.008,0,0,1-1.5-3.774V-5.3a6.489,6.489,0,0,1,.6-2.861,4.395,4.395,0,0,1,1.753-1.919,5.292,5.292,0,0,1,2.734-.679,4.574,4.574,0,0,1,3.516,1.382,5.43,5.43,0,0,1,1.289,3.853v1.279H95.205a2.372,2.372,0,0,0,.771,1.4,2.3,2.3,0,0,0,1.543.508,2.958,2.958,0,0,0,2.441-1.094l1.5,1.777A4.2,4.2,0,0,1,99.722-.308,5.891,5.891,0,0,1,97.295.2Zm-.371-8.418q-1.445,0-1.719,1.914h3.32v-.254a1.63,1.63,0,0,0-.4-1.226A1.593,1.593,0,0,0,96.924-8.223Zm12.539.635-1.084-.078a1.947,1.947,0,0,0-1.992.977V0H103.1V-10.566h3.086l.107,1.357a2.548,2.548,0,0,1,2.314-1.553,3.209,3.209,0,0,1,.918.117Zm.586,2.227a6.455,6.455,0,0,1,1.084-3.955,3.568,3.568,0,0,1,3.027-1.445,3.035,3.035,0,0,1,2.383,1.113V-15h3.3V0h-2.959l-.166-1.133A3.116,3.116,0,0,1,114.141.2a3.562,3.562,0,0,1-2.988-1.445A6.659,6.659,0,0,1,110.049-5.361Zm3.291.205q0,2.813,1.641,2.813a1.62,1.62,0,0,0,1.563-.918V-7.285A1.576,1.576,0,0,0,115-8.223q-1.523,0-1.65,2.461ZM127.666,0a3.716,3.716,0,0,1-.312-.947A3.06,3.06,0,0,1,124.814.2a3.749,3.749,0,0,1-2.539-.9,2.875,2.875,0,0,1-1.045-2.271,2.955,2.955,0,0,1,1.27-2.6,6.468,6.468,0,0,1,3.691-.879h1.016v-.559q0-1.462-1.26-1.462a1.03,1.03,0,0,0-1.172,1.158h-3.291a2.95,2.95,0,0,1,1.3-2.487,5.479,5.479,0,0,1,3.325-.956,4.8,4.8,0,0,1,3.193.986,3.429,3.429,0,0,1,1.2,2.705v4.678a4.79,4.79,0,0,0,.449,2.227V0Zm-2.061-2.148a1.836,1.836,0,0,0,1.021-.264,1.653,1.653,0,0,0,.581-.6V-4.7h-.957q-1.719,0-1.719,1.543a.942.942,0,0,0,.3.728A1.1,1.1,0,0,0,125.605-2.148Zm6.309-3.213A6.455,6.455,0,0,1,133-9.316a3.568,3.568,0,0,1,3.027-1.445,3.035,3.035,0,0,1,2.383,1.113V-15h3.3V0H138.75l-.166-1.133A3.116,3.116,0,0,1,136.006.2a3.562,3.562,0,0,1-2.988-1.445A6.659,6.659,0,0,1,131.914-5.361Zm3.291.205q0,2.813,1.641,2.813a1.62,1.62,0,0,0,1.563-.918V-7.285a1.576,1.576,0,0,0-1.543-.937q-1.523,0-1.65,2.461Z" transform="translate(-5779 -7940)" fill="#12263f"/>
    <path id="Trazado_110969" data-name="Trazado 110969" d="M22,0H293a22,22,0,0,1,22,22V224a22,22,0,0,1-22,22H22A22,22,0,0,1,0,224V22A22,22,0,0,1,22,0Z" transform="translate(-5865 -7918)" fill="#fff"/>
    <path id="Trazado_110970" data-name="Trazado 110970" d="M2.1-2.391H-2.123L-2.861,0h-3.3l4.693-12.8h2.9L6.166,0H2.852ZM-1.384-4.772H1.367L-.013-9.211Zm4.97,24.921a6.61,6.61,0,0,1-.867,3.773A3.084,3.084,0,0,1,.008,25.156a3.107,3.107,0,0,1-2.7-1.207,6.274,6.274,0,0,1-.906-3.605v-1.93a6.463,6.463,0,0,1,.867-3.727A3.108,3.108,0,0,1-.008,13.469a3.136,3.136,0,0,1,2.7,1.176,6.237,6.237,0,0,1,.891,3.629ZM2.141,18.172A5.3,5.3,0,0,0,1.625,15.5a1.775,1.775,0,0,0-1.633-.84,1.751,1.751,0,0,0-1.617.836,5.171,5.171,0,0,0-.523,2.57v2.313A5.381,5.381,0,0,0-1.613,23.1a1.771,1.771,0,0,0,1.621.879,1.747,1.747,0,0,0,1.59-.828,5.186,5.186,0,0,0,.543-2.609ZM3.586,45.148a6.61,6.61,0,0,1-.867,3.773A3.084,3.084,0,0,1,.008,50.156a3.107,3.107,0,0,1-2.7-1.207,6.274,6.274,0,0,1-.906-3.605v-1.93a6.463,6.463,0,0,1,.867-3.727A3.108,3.108,0,0,1-.008,38.469a3.136,3.136,0,0,1,2.7,1.176,6.237,6.237,0,0,1,.891,3.629ZM2.141,43.172A5.3,5.3,0,0,0,1.625,40.5a1.775,1.775,0,0,0-1.633-.84,1.751,1.751,0,0,0-1.617.836,5.171,5.171,0,0,0-.523,2.57v2.313A5.381,5.381,0,0,0-1.613,48.1a1.771,1.771,0,0,0,1.621.879,1.747,1.747,0,0,0,1.59-.828,5.186,5.186,0,0,0,.543-2.609ZM1.2,75H-.25V65.367l-2.914,1.07V65.125L.977,63.57H1.2Zm0,25H-.25V90.367l-2.914,1.07V90.125L.977,88.57H1.2Z" transform="translate(-5809 -7817)" fill="#12263f"/>
    <path id="Trazado_110971" data-name="Trazado 110971" d="M-4.838,0V-12.8h4.6a6.509,6.509,0,0,1,3.757.905A3.012,3.012,0,0,1,4.8-9.264a3.045,3.045,0,0,1-.457,1.7A2.663,2.663,0,0,1,3-6.53a2.7,2.7,0,0,1,1.538.984,2.862,2.862,0,0,1,.536,1.758A3.388,3.388,0,0,1,3.885-.962,5.667,5.667,0,0,1,.356,0Zm3.085-5.44v3.067H.268a1.923,1.923,0,0,0,1.283-.382A1.338,1.338,0,0,0,2-3.832,1.419,1.419,0,0,0,.409-5.44Zm0-2.021H-.145A2.285,2.285,0,0,0,1.3-7.832,1.314,1.314,0,0,0,1.727-8.9a1.379,1.379,0,0,0-.466-1.168,2.493,2.493,0,0,0-1.5-.357H-1.753Zm7.32,27.61A6.61,6.61,0,0,1,4.7,23.922a3.084,3.084,0,0,1-2.711,1.234,3.107,3.107,0,0,1-2.7-1.207,6.274,6.274,0,0,1-.906-3.605v-1.93a6.463,6.463,0,0,1,.867-3.727,3.108,3.108,0,0,1,2.719-1.219,3.136,3.136,0,0,1,2.7,1.176,6.237,6.237,0,0,1,.891,3.629ZM4.121,18.172A5.3,5.3,0,0,0,3.605,15.5a1.775,1.775,0,0,0-1.633-.84,1.751,1.751,0,0,0-1.617.836,5.171,5.171,0,0,0-.523,2.57v2.313A5.381,5.381,0,0,0,.367,23.1a1.771,1.771,0,0,0,1.621.879,1.747,1.747,0,0,0,1.59-.828,5.186,5.186,0,0,0,.543-2.609ZM1.2,50H-.25V40.367l-2.914,1.07V40.125L.977,38.57H1.2ZM3.586,70.148a6.61,6.61,0,0,1-.867,3.773A3.084,3.084,0,0,1,.008,75.156a3.107,3.107,0,0,1-2.7-1.207,6.274,6.274,0,0,1-.906-3.605v-1.93a6.463,6.463,0,0,1,.867-3.727A3.108,3.108,0,0,1-.008,63.469a3.136,3.136,0,0,1,2.7,1.176,6.237,6.237,0,0,1,.891,3.629ZM2.141,68.172A5.3,5.3,0,0,0,1.625,65.5a1.775,1.775,0,0,0-1.633-.84,1.751,1.751,0,0,0-1.617.836,5.171,5.171,0,0,0-.523,2.57v2.313A5.381,5.381,0,0,0-1.613,73.1a1.771,1.771,0,0,0,1.621.879,1.747,1.747,0,0,0,1.59-.828,5.186,5.186,0,0,0,.543-2.609ZM1.2,100H-.25V90.367l-2.914,1.07V90.125L.977,88.57H1.2Z" transform="translate(-5733 -7817)" fill="#12263f"/>
    <path id="Trazado_110972" data-name="Trazado 110972" d="M0-7.242,2.355-12.8H5.687L1.564-4.6V0H-1.564V-4.6l-4.113-8.2h3.313ZM1.2,25H-.25V15.367l-2.914,1.07V15.125L.977,13.57H1.2Zm0,25H-.25V40.367l-2.914,1.07V40.125L.977,38.57H1.2Zm0,25H-.25V65.367l-2.914,1.07V65.125L.977,63.57H1.2ZM3.586,95.148a6.61,6.61,0,0,1-.867,3.773,3.084,3.084,0,0,1-2.711,1.234,3.107,3.107,0,0,1-2.7-1.207,6.274,6.274,0,0,1-.906-3.605v-1.93a6.463,6.463,0,0,1,.867-3.727A3.108,3.108,0,0,1-.008,88.469a3.136,3.136,0,0,1,2.7,1.176,6.237,6.237,0,0,1,.891,3.629ZM2.141,93.172A5.3,5.3,0,0,0,1.625,90.5a1.775,1.775,0,0,0-1.633-.84,1.751,1.751,0,0,0-1.617.836,5.171,5.171,0,0,0-.523,2.57v2.313A5.381,5.381,0,0,0-1.613,98.1a1.771,1.771,0,0,0,1.621.879,1.747,1.747,0,0,0,1.59-.828,5.186,5.186,0,0,0,.543-2.609Z" transform="translate(-5615 -7817)" fill="#12263f"/>
    <path id="Trazado_110973" data-name="Trazado 110973" d="M-31.856-5.432h-4.852v3.059h5.73V0h-8.815V-12.8h8.833v2.382h-5.748v2.7h4.852ZM-19.033,0H-22.1l-4.535-7.963V0H-29.72V-12.8h3.085l4.526,7.963V-12.8h3.076ZM-7.291-10.415h-3.841V0h-3.085V-10.415h-3.771V-12.8h10.7Zm6.056,5.889H-2.9V0H-5.99V-12.8H-.954a5.621,5.621,0,0,1,3.56,1.01A3.421,3.421,0,0,1,3.889-8.934a4.155,4.155,0,0,1-.541,2.213A3.837,3.837,0,0,1,1.657-5.3L4.329-.132V0h-3.3ZM-2.9-6.9H-.954A1.751,1.751,0,0,0,.369-7.362,1.788,1.788,0,0,0,.813-8.653a1.809,1.809,0,0,0-.448-1.3,1.735,1.735,0,0,0-1.318-.471H-2.9ZM13.021-2.391H8.793L8.055,0h-3.3L9.453-12.8h2.9L17.082,0H13.768ZM9.532-4.772h2.751L10.9-9.211ZM18.013,0V-12.8h4.122a6.064,6.064,0,0,1,3.05.769A5.406,5.406,0,0,1,27.3-9.857a6.554,6.554,0,0,1,.769,3.142v.589a6.592,6.592,0,0,1-.743,3.151A5.429,5.429,0,0,1,25.233-.8a5.93,5.93,0,0,1-3.01.8ZM21.1-10.415v8.042H22.17a2.4,2.4,0,0,0,2.039-.945,4.63,4.63,0,0,0,.712-2.808V-6.68a4.592,4.592,0,0,0-.712-2.795,2.442,2.442,0,0,0-2.074-.94ZM36.734-2.391H32.506L31.768,0h-3.3l4.693-12.8h2.9L40.794,0H37.481ZM33.245-4.772H36l-1.38-4.438Z" transform="translate(-5768 -7860)" fill="#12263f"/>
    <path id="Trazado_110975" data-name="Trazado 110975" d="M29,0,58,42H0Z" transform="translate(-5886 -7824) rotate(90)" fill="#01a0f2"/>
  </g>
</svg>
