<svg xmlns="http://www.w3.org/2000/svg" xmlns:xlink="http://www.w3.org/1999/xlink" width="162" height="154" viewBox="0 0 162 154">
  <defs>
    <linearGradient id="linear-gradient" x1="0.5" x2="0.5" y2="1" gradientUnits="objectBoundingBox">
      <stop offset="0" stop-color="#47a0e6"/>
      <stop offset="1" stop-color="#0f2771"/>
    </linearGradient>
  </defs>
  <g id="Grupo_66012" data-name="Grupo 66012" transform="translate(-361 -1697)">
    <path id="Trazado_110593" data-name="Trazado 110593" d="M18,0H144a18,18,0,0,1,18,18V136a18,18,0,0,1-18,18H18A18,18,0,0,1,0,136V18A18,18,0,0,1,18,0Z" transform="translate(361 1697)" fill="url(#linear-gradient)"/>
    <path id="Trazado_110594" data-name="Trazado 110594" d="M21.165,64A35.8,35.8,0,0,0,34.682,51.2H0V47.786H36.527a35.926,35.926,0,0,0,3.439-15.359,35.987,35.987,0,0,0-3.418-15.36H0V13.653H34.707a35.76,35.76,0,0,0-14.3-13.2V0H59.736a30.375,30.375,0,0,1,30.4,29.867H125V33.28H90.015A33.574,33.574,0,0,1,56.536,64Z" transform="translate(383 1760)" fill="#fff"/>
    <path id="Trazado_110595" data-name="Trazado 110595" d="M20.141-10.641A14.073,14.073,0,0,1,19.016-4.8,8.521,8.521,0,0,1,15.828-1,8.77,8.77,0,0,1,11.016.313,8.7,8.7,0,0,1,6.25-1.008,8.725,8.725,0,0,1,3.023-4.773a13.5,13.5,0,0,1-1.18-5.664v-1.641a13.906,13.906,0,0,1,1.141-5.8,8.694,8.694,0,0,1,3.227-3.852,8.658,8.658,0,0,1,4.773-1.336,8.819,8.819,0,0,1,4.82,1.32,8.506,8.506,0,0,1,3.211,3.828,14.142,14.142,0,0,1,1.125,5.836Zm-2.984-1.469a10.2,10.2,0,0,0-1.625-6.211,5.36,5.36,0,0,0-4.547-2.164A5.3,5.3,0,0,0,6.508-18.32a9.991,9.991,0,0,0-1.68,6.008v1.672A10.215,10.215,0,0,0,6.477-4.477a5.325,5.325,0,0,0,4.539,2.242,5.3,5.3,0,0,0,4.5-2.117,10.157,10.157,0,0,0,1.641-6.07ZM32.984-9.2H27.641V0H24.625V-22.75h7.531A8.914,8.914,0,0,1,38.07-21a6.3,6.3,0,0,1,2.07,5.094,6.125,6.125,0,0,1-1.148,3.7,6.856,6.856,0,0,1-3.2,2.359L41.141-.187V0H37.922Zm-5.344-2.453H32.25A5.2,5.2,0,0,0,35.8-12.815a3.917,3.917,0,0,0,1.32-3.1,4.125,4.125,0,0,0-1.258-3.24A5.326,5.326,0,0,0,32.234-20.3H27.641Z" transform="translate(419 1740)" fill="#fff"/>
  </g>
</svg>
