<svg xmlns="http://www.w3.org/2000/svg" width="539.5" height="151.762" viewBox="0 0 539.5 151.762">
  <g id="Grupo_66042" data-name="Grupo 66042" transform="translate(6555 6218.227)">
    <path id="Trazado_110948" data-name="Trazado 110948" d="M0,0H42V55H0Z" transform="translate(-6555 -6132)" fill="#43babe"/>
    <path id="Trazado_110950" data-name="Trazado 110950" d="M2.393,0V-20.617h6.74a7.824,7.824,0,0,1,5.048,1.388,5,5,0,0,1,1.692,4.106,4.188,4.188,0,0,1-.821,2.556,5.324,5.324,0,0,1-2.237,1.72A4.781,4.781,0,0,1,15.456-9.07a5.1,5.1,0,0,1,.97,3.122,5.514,5.514,0,0,1-1.8,4.361A7.437,7.437,0,0,1,9.544,0ZM5.112-9.643v7.42H9.6A4.322,4.322,0,0,0,12.6-3.207a3.456,3.456,0,0,0,1.1-2.712q0-3.724-4.05-3.724Zm0-2.181H9.218a4.3,4.3,0,0,0,2.853-.894,3,3,0,0,0,1.069-2.427,2.947,2.947,0,0,0-.991-2.476,4.868,4.868,0,0,0-3.016-.773H5.112Z" transform="translate(-6544 -6096)" fill="#12263f"/>
    <path id="Trazado_110949" data-name="Trazado 110949" d="M0,0H42V55H0Z" transform="translate(-6555 -6206)" fill="#43babe"/>
    <path id="Trazado_110951" data-name="Trazado 110951" d="M13.778-5.4H5.14L3.2,0H.4L8.27-20.617h2.379L18.536,0h-2.79ZM5.961-7.618h7.009L9.459-17.261Z" transform="translate(-6544 -6168)" fill="#12263f"/>
    <path id="Trazado_110943" data-name="Trazado 110943" d="M0,0H42V54H0Z" transform="translate(-6218 -6169)" fill="#43babe"/>
    <path id="Trazado_110944" data-name="Trazado 110944" d="M8.68-10.266l5.381-10.351h3.087L10.04-7.689V0H7.321V-7.689L.212-20.617H3.328Z" transform="translate(-6207 -6134)" fill="#12263f"/>
    <g id="Grupo_59134" data-name="Grupo 59134" transform="translate(-6483.411 -6215.998)">
      <path id="Unión_10" data-name="Unión 10" d="M1.762,148A82.827,82.827,0,0,0,45.443,74.986,82.554,82.554,0,0,0,0,1.052V0H104.016a57.951,57.951,0,0,1,58,58V69.067H245V76.96H162.015V82a65.945,65.945,0,0,1-66,66Z" transform="translate(20.411 -0.002)" fill="#70089b"/>
      <path id="Trazado_106596" data-name="Trazado 106596" d="M-6772-9905s47.619,24.186,50.642,71.047-46.107,76.343-46.107,76.343" transform="translate(6772 9905)" fill="none" stroke="#70089b" stroke-width="5"/>
    </g>
    <path id="Trazado_110946" data-name="Trazado 110946" d="M0,0H68V7H0Z" transform="translate(-6513 -6182)" fill="#70089b"/>
    <path id="Trazado_110947" data-name="Trazado 110947" d="M0,0H68V7H0Z" transform="translate(-6513 -6107)" fill="#70089b"/>
    <g id="Grupo_59130" data-name="Grupo 59130" transform="translate(2690 2014)">
      <text id="Y_A_B" data-name="Y= A + B" transform="translate(-8827 -8152)" fill="#12263f" font-size="32" font-family="Roboto-Regular, Roboto"><tspan x="0" y="0">Y= A + B</tspan></text>
      <line id="Línea_160" data-name="Línea 160" x2="81" transform="translate(-8786.5 -8185.5)" fill="none" stroke="#12263f" stroke-width="2"/>
    </g>
    <g id="Trazado_110945" data-name="Trazado 110945" transform="translate(-6068.5 -6162)" fill="none">
      <path d="M13.5,0A13.5,13.5,0,1,1,0,13.5,13.5,13.5,0,0,1,13.5,0Z" stroke="none"/>
      <path d="M 13.5 1 C 10.16113090515137 1 7.022109985351562 2.300230026245117 4.661169052124023 4.661169052124023 C 2.300230026245117 7.022109985351562 1 10.16113090515137 1 13.5 C 1 16.83887100219727 2.300230026245117 19.97789001464844 4.661169052124023 22.33882904052734 C 7.022109985351562 24.69976997375488 10.16113090515137 26 13.5 26 C 16.83887100219727 26 19.97789001464844 24.69976997375488 22.33882904052734 22.33882904052734 C 24.69976997375488 19.97789001464844 26 16.83887100219727 26 13.5 C 26 10.16113090515137 24.69976997375488 7.022109985351562 22.33882904052734 4.661169052124023 C 19.97789001464844 2.300230026245117 16.83887100219727 1 13.5 1 M 13.5 0 C 20.95584106445312 0 27 6.044160842895508 27 13.5 C 27 20.95584106445312 20.95584106445312 27 13.5 27 C 6.044160842895508 27 0 20.95584106445312 0 13.5 C 0 6.044160842895508 6.044160842895508 0 13.5 0 Z" stroke="none" fill="#12263f"/>
    </g>
  </g>
</svg>
