<svg xmlns="http://www.w3.org/2000/svg" xmlns:xlink="http://www.w3.org/1999/xlink" width="391.33" height="429.782" viewBox="0 0 391.33 429.782">
  <defs>
    <clipPath id="clip-path">
      <path id="Trazado_102213" data-name="Trazado 102213" d="M195.466,0l-18.9.952c-1.355.119-2.7.317-4.038.519-.779.119-1.554.231-2.451.346L157.527,3.8c-3.051.59-6.075,1.378-9,2.141l-3.393.872a3.612,3.612,0,0,0-2.621,4.451l8.456,31.573A158.106,158.106,0,0,0,119.2,56.019L102.806,27.676a3.628,3.628,0,0,0-5.018-1.285L86.88,33.034c-2.74,1.9-5.409,3.916-8.065,5.922L71.47,44.47c-1.029.862-2.022,1.766-3.019,2.669L57.176,57.445,47.008,68.609c-.852.939-1.7,1.887-2.695,3.047l-5.662,7.537c-1.919,2.557-3.836,5.121-5.733,7.9L26.362,97.817a3.628,3.628,0,0,0,1.279,5.028l28.346,16.39A157.747,157.747,0,0,0,42.8,151l-31.573-8.456a3.624,3.624,0,0,0-4.454,2.621l-.878,3.419c-.759,2.91-1.545,5.912-2.16,9.116l-2.192,14.25c-.244,1.561-.484,3.127-.6,4.749L0,195.851.948,214.7c.109,1.589.349,3.156.593,4.717L3.762,233.8c.593,3.057,1.381,6.082,2.137,9.007l.872,3.387a3.624,3.624,0,0,0,4.454,2.621L42.8,240.363a157.823,157.823,0,0,0,13.189,31.768L27.641,288.524a3.621,3.621,0,0,0-1.279,5.024l6.659,10.882c1.785,2.615,3.7,5.165,5.611,7.719l5.832,7.745c.83.968,1.679,1.9,2.522,2.839l10.421,11.42,11.045,10.071c1,.9,1.99,1.807,3.176,2.8l6.982,5.23c2.733,2.06,5.473,4.127,8.447,6.156l10.722,6.553a3.62,3.62,0,0,0,5.028-1.275L119.2,335.347a157.91,157.91,0,0,0,31.768,13.183l-8.456,31.576a3.616,3.616,0,0,0,2.621,4.451l3.355.862c2.938.766,5.973,1.554,9.177,2.179l14.448,2.224c1.474.231,2.958.465,4.576.6l19.136.942,18.944-.952c1.458-.128,2.922-.356,4.377-.59l14.612-2.253c3.031-.583,6-1.355,8.876-2.1,1.186-.308,2.368-.612,3.557-.91a3.628,3.628,0,0,0,2.628-4.454L240.363,348.5a158.089,158.089,0,0,0,31.765-13.151l16.394,28.343a3.623,3.623,0,0,0,5.028,1.275l10.882-6.655c2.515-1.721,4.954-3.557,7.4-5.393l8-6.021c1.083-.907,2.144-1.862,3.2-2.813l11.094-10.158,9.312-10.193c1.163-1.282,2.32-2.551,3.541-4.009l3.842-5.053c.833-1.134,1.676-2.265,2.515-3.4,1.679-2.253,3.365-4.512,5.085-7l6.521-10.725a3.617,3.617,0,0,0-1.282-5.018l-31.448-18.188a3.622,3.622,0,1,0-3.627,6.271l28.243,16.336-4.48,7.373c-1.557,2.243-3.191,4.435-4.819,6.623-.859,1.15-1.714,2.3-2.515,3.4l-3.691,4.861c-1.048,1.243-2.141,2.442-3.246,3.653l-9.078,9.959-10.812,9.879c-1,.9-2,1.8-2.868,2.541l-7.841,5.9c-2.358,1.772-4.707,3.541-6.979,5.1l-7.556,4.618-16.326-28.234a3.623,3.623,0,0,0-4.957-1.32A150.567,150.567,0,0,1,235,342.47a3.629,3.629,0,0,0-2.567,4.438l8.437,31.531-.061.019c-2.89.75-5.62,1.458-8.293,1.977l-12.375,1.913c-.708.1-1.416.208-2.128.32-1.291.205-2.586.41-3.752.519l-18.438.939-18.633-.932c-1.33-.115-2.64-.324-3.951-.532l-14.327-2.2c-2.794-.545-5.672-1.288-8.456-2.016l8.434-31.5a3.6,3.6,0,0,0-.362-2.749,3.648,3.648,0,0,0-2.2-1.689,150.681,150.681,0,0,1-36.655-15.211,3.615,3.615,0,0,0-4.951,1.32L98.39,356.851l-7.4-4.521c-2.727-1.865-5.38-3.868-8.021-5.858l-6.841-5.124c-.955-.8-1.881-1.644-2.807-2.487l-10.8-9.828L52.366,317.883c-.811-.9-1.621-1.8-2.265-2.535l-5.672-7.543c-1.849-2.471-3.7-4.938-5.329-7.309l-4.621-7.559,28.234-16.329a3.615,3.615,0,0,0,1.323-4.954A150.606,150.606,0,0,1,48.825,235a3.617,3.617,0,0,0-4.438-2.563l-31.5,8.434c-.724-2.781-1.471-5.656-1.99-8.315L8.7,218.3c-.208-1.359-.429-2.724-.522-4.063l-.939-18.39.936-18.688c.1-1.378.314-2.74.526-4.1l2.173-14.125c.542-2.817,1.256-5.556,2.009-8.453l31.505,8.44a3.629,3.629,0,0,0,4.438-2.567,150.554,150.554,0,0,1,15.211-36.652,3.62,3.62,0,0,0-1.323-4.957L34.479,98.429,39,91.026c1.734-2.538,3.592-5.012,5.451-7.489l5.5-7.335c.8-.932,1.625-1.839,2.439-2.746L62.3,62.562,73.326,52.5c.926-.843,1.852-1.685,2.647-2.355l7.21-5.406c2.576-1.948,5.169-3.9,7.649-5.633l7.556-4.6,16.336,28.243a3.623,3.623,0,0,0,4.951,1.32,150.648,150.648,0,0,1,36.655-15.218,3.62,3.62,0,0,0,2.564-4.438l-8.434-31.5c2.781-.721,5.659-1.468,8.325-1.987l12.308-1.942c.836-.106,1.679-.228,2.522-.356,1.186-.179,2.374-.359,3.454-.455l18.4-.942,18.665.932c1.17.1,2.342.282,3.512.458.856.128,1.7.256,2.439.343l12.3,1.935c2.794.542,5.515,1.246,8.4,1.993l.09.026-8.437,31.534A3.624,3.624,0,0,0,235,48.9a150.549,150.549,0,0,1,36.652,15.179,3.63,3.63,0,0,0,4.957-1.32l16.333-28.246,7.373,4.48c2.352,1.631,4.63,3.349,6.915,5.069l7.931,5.957c1.019.859,2.022,1.759,3.019,2.66l10.587,9.658,9.273,10.151c1.112,1.221,2.217,2.429,3.163,3.544l3.762,4.951c.836,1.144,1.689,2.282,2.538,3.425,1.637,2.195,3.278,4.393,4.72,6.46l4.6,7.559-28.24,16.333a3.629,3.629,0,0,0-1.32,4.96,149.274,149.274,0,0,1,15.211,36.648,3.63,3.63,0,0,0,4.441,2.567l31.505-8.44.067.253c.743,2.813,1.445,5.473,1.948,8.069l1.907,12.311c.1.849.231,1.7.359,2.551.179,1.179.359,2.358.452,3.451l.942,18.39-.932,18.624c-.1,1.2-.285,2.381-.461,3.557-.128.852-.256,1.7-.343,2.435l-1.894,12.286c-.532,2.717-1.269,5.515-1.983,8.222-.022.08-.042.157-.061.234l-31.505-8.434a3.621,3.621,0,1,0-1.878,7l35.037,9.386a3.628,3.628,0,0,0,4.454-2.621c.308-1.237.634-2.474.958-3.711.747-2.82,1.516-5.736,2.112-8.825l1.935-12.539c.1-.782.218-1.567.336-2.349.2-1.33.4-2.666.519-4.114l.945-19.146-.952-18.909c-.115-1.346-.314-2.682-.513-4.012-.119-.785-.237-1.57-.349-2.467l-1.945-12.555c-.57-2.97-1.339-5.874-2.083-8.681-.327-1.24-.657-2.48-.964-3.723a3.628,3.628,0,0,0-4.454-2.621L348.5,151a156.769,156.769,0,0,0-13.183-31.771l28.339-16.387a3.623,3.623,0,0,0,1.282-5.021l-6.643-10.908c-1.605-2.317-3.294-4.582-4.976-6.841-.84-1.125-1.676-2.249-2.541-3.432L346.86,71.5c-1.118-1.33-2.285-2.612-3.464-3.9l-9.5-10.385-10.866-9.934c-1.057-.952-2.118-1.907-3.352-2.932l-8.081-6.079c-2.362-1.782-4.714-3.55-7.325-5.361l-10.725-6.521a3.635,3.635,0,0,0-5.021,1.285L272.128,56.022a157.686,157.686,0,0,0-31.765-13.154l8.456-31.611a3.621,3.621,0,0,0-2.631-4.451q-1.8-.447-3.586-.92c-2.862-.743-5.822-1.509-8.963-2.112L221.092,1.8c-.788-.1-1.577-.215-2.362-.333-1.323-.2-2.644-.394-4.092-.519Z" fill="#fff"/>
    </clipPath>
    <clipPath id="clip-path-2">
      <path id="Trazado_102214" data-name="Trazado 102214" d="M50.915,99.405A48.485,48.485,0,1,1,99.4,147.891,48.539,48.539,0,0,1,50.915,99.405m-7.245,0A55.732,55.732,0,1,0,99.4,43.675,55.793,55.793,0,0,0,43.67,99.405" transform="translate(-43.67 -43.675)" fill="#fff"/>
    </clipPath>
    <clipPath id="clip-path-3">
      <path id="Trazado_102215" data-name="Trazado 102215" d="M59.931,26.127V93.97a3.624,3.624,0,0,0,7.248,0V26.127a3.624,3.624,0,1,0-7.248,0" transform="translate(-59.931 -22.503)" fill="#fff"/>
    </clipPath>
    <clipPath id="clip-path-4">
      <path id="Trazado_102216" data-name="Trazado 102216" d="M29.137,131.441a102.415,102.415,0,0,0,102.3,102.3,3.623,3.623,0,1,0,0-7.245,95.056,95.056,0,0,1,0-190.112,3.623,3.623,0,1,0,0-7.245,102.415,102.415,0,0,0-102.3,102.3" transform="translate(-29.137 -29.142)" fill="#fff"/>
    </clipPath>
    <clipPath id="clip-path-5">
      <path id="Trazado_102217" data-name="Trazado 102217" d="M74.5,69.882a3.621,3.621,0,0,0,1.323,4.951l121.058,69.916a3.555,3.555,0,0,0,1.807.487,3.622,3.622,0,0,0,1.814-6.758L79.447,68.558A3.61,3.61,0,0,0,74.5,69.882" transform="translate(-74.012 -68.068)" fill="#fff"/>
    </clipPath>
    <clipPath id="clip-path-6">
      <path id="Trazado_102218" data-name="Trazado 102218" d="M82.519,39.064a3.623,3.623,0,0,0,.039,5.124,94.26,94.26,0,0,1,28.327,67.651,94.883,94.883,0,0,1-12.731,47.521,3.622,3.622,0,1,0,6.268,3.634,102.136,102.136,0,0,0,13.708-51.155,101.442,101.442,0,0,0-30.49-72.813,3.621,3.621,0,0,0-5.121.038" transform="translate(-81.477 -37.984)" fill="#fff"/>
    </clipPath>
    <clipPath id="clip-path-7">
      <path id="Trazado_102219" data-name="Trazado 102219" d="M55.675,32.559A17.262,17.262,0,1,0,72.937,15.3,17.261,17.261,0,0,0,55.675,32.559" transform="translate(-55.675 -15.3)" fill="#fff"/>
    </clipPath>
    <clipPath id="clip-path-8">
      <path id="Trazado_102220" data-name="Trazado 102220" d="M77.22,50.551A17.262,17.262,0,1,0,94.482,33.289,17.263,17.263,0,0,0,77.22,50.551" transform="translate(-77.22 -33.289)" fill="#fff"/>
    </clipPath>
    <clipPath id="clip-path-9">
      <path id="Trazado_102221" data-name="Trazado 102221" d="M55.675,104.024A17.262,17.262,0,1,0,72.937,86.762a17.262,17.262,0,0,0-17.262,17.262" transform="translate(-55.675 -86.762)" fill="#fff"/>
    </clipPath>
  </defs>
  <g id="Grupo_66016" data-name="Grupo 66016" transform="translate(-329.003 -4404.413)">
    <g id="Grupo_59627" data-name="Grupo 59627" transform="translate(50.504 3294.918)">
      <g id="Grupo_53878" data-name="Grupo 53878" transform="translate(278.499 1109.495)">
        <g id="Grupo_53861" data-name="Grupo 53861">
          <g id="Grupo_53860" data-name="Grupo 53860" clip-path="url(#clip-path)">
            <rect id="Rectángulo_5891" data-name="Rectángulo 5891" width="419.204" height="419.172" transform="matrix(0.074, -0.997, 0.997, 0.074, -28.832, 389.23)" fill="#fff"/>
          </g>
        </g>
        <g id="Grupo_53863" data-name="Grupo 53863" transform="translate(139.935 139.951)">
          <g id="Grupo_53862" data-name="Grupo 53862" clip-path="url(#clip-path-2)">
            <rect id="Rectángulo_5892" data-name="Rectángulo 5892" width="119.393" height="119.393" transform="translate(-8.212 110.856) rotate(-85.764)" fill="#fff"/>
          </g>
        </g>
        <g id="Grupo_53865" data-name="Grupo 53865" transform="translate(192.041 72.108)">
          <g id="Grupo_53864" data-name="Grupo 53864" clip-path="url(#clip-path-3)">
            <rect id="Rectángulo_5893" data-name="Rectángulo 5893" width="75.418" height="12.775" transform="translate(-5.532 74.678) rotate(-85.764)" fill="#fff"/>
          </g>
        </g>
        <g id="Grupo_53867" data-name="Grupo 53867" transform="translate(93.366 93.382)">
          <g id="Grupo_53866" data-name="Grupo 53866" clip-path="url(#clip-path-4)">
            <rect id="Rectángulo_5894" data-name="Rectángulo 5894" width="211.868" height="120.748" transform="translate(-15.073 203.486) rotate(-85.764)" fill="#fff"/>
          </g>
        </g>
        <g id="Grupo_53869" data-name="Grupo 53869" transform="translate(237.161 218.115)">
          <g id="Grupo_53868" data-name="Grupo 53868" clip-path="url(#clip-path-5)">
            <rect id="Rectángulo_5895" data-name="Rectángulo 5895" width="86.511" height="134.682" transform="translate(-6.2 76.747) rotate(-85.764)" fill="#fff"/>
          </g>
        </g>
        <g id="Grupo_53871" data-name="Grupo 53871" transform="translate(261.082 121.715)">
          <g id="Grupo_53870" data-name="Grupo 53870" clip-path="url(#clip-path-6)">
            <rect id="Rectángulo_5896" data-name="Rectángulo 5896" width="129.204" height="46.281" transform="matrix(0.074, -0.997, 0.997, 0.074, -9.704, 126.124)" fill="#fff"/>
          </g>
        </g>
        <g id="Grupo_53873" data-name="Grupo 53873" transform="translate(178.403 49.027)">
          <g id="Grupo_53872" data-name="Grupo 53872" clip-path="url(#clip-path-7)">
            <rect id="Rectángulo_5897" data-name="Rectángulo 5897" width="36.977" height="36.98" transform="translate(-2.543 34.332) rotate(-85.764)" fill="#fff"/>
          </g>
        </g>
        <g id="Grupo_53875" data-name="Grupo 53875" transform="translate(247.441 106.67)">
          <g id="Grupo_53874" data-name="Grupo 53874" clip-path="url(#clip-path-8)">
            <rect id="Rectángulo_5898" data-name="Rectángulo 5898" width="36.98" height="36.98" transform="translate(-2.543 34.336) rotate(-85.764)" fill="#fff"/>
          </g>
        </g>
        <g id="Grupo_53877" data-name="Grupo 53877" transform="translate(178.403 278.017)">
          <g id="Grupo_53876" data-name="Grupo 53876" clip-path="url(#clip-path-9)">
            <rect id="Rectángulo_5899" data-name="Rectángulo 5899" width="36.977" height="36.98" transform="matrix(0.074, -0.997, 0.997, 0.074, -2.543, 34.332)" fill="#fff"/>
          </g>
        </g>
      </g>
    </g>
    <g id="Grupo_66011" data-name="Grupo 66011" transform="translate(5771.504 11726.337)">
      <path id="Trazado_110063" data-name="Trazado 110063" d="M101.343,736.958s2.33,7.63,4.313,13.909c1.368,4.331,6.7,12.882,10.72,10.154,1.833-1.243-.022-3.4-1.73-5.061-2.336-2.269-1.01-8.121-.816-10.565.308-3.89-4.087-9.75-7.106-13.294-2.137-2.508-4.619-.642-5.381,4.856" transform="translate(-5409.917 -7774.149)" fill="#d78c63"/>
      <path id="Trazado_110064" data-name="Trazado 110064" d="M91.831,735.758s.8,11.233,3.716,19.116c2.013,5.438,10.768,15.362,15.475,11.316,1.692-1.454-.437-3.654-2.78-5.593-2.819-2.334-3.286-4.571-4.4-7.239-1.644-3.927,1.7-13.149-.529-16.714s-10.848-7.944-11.478-.886" transform="translate(-5403.967 -7774.766)" fill="#d78c63"/>
      <path id="Trazado_110065" data-name="Trazado 110065" d="M88.283,745.913s.8,11.233,3.716,19.116c2.013,5.438,10.087,14.857,15.069,11.154,2.894-2.151-.613-3.968-2.956-5.908-2.819-2.334-2.7-4.094-3.821-6.762-1.644-3.927,1.7-13.149-.529-16.715s-10.848-7.944-11.478-.886" transform="translate(-5401.748 -7781.118)" fill="#d78c63"/>
      <path id="Trazado_110066" data-name="Trazado 110066" d="M74.939,737.961a16.058,16.058,0,0,0,8.421,9.589,6.346,6.346,0,0,0,6.079-.273c-.613-8.807,4.285-12.4,2.71-18.224-1.421-2.743-4.244-6.868-7.919-8.793-.956-.051-4.307.359-7.937,3.7-3.059,2.813-2.936,8.588-1.355,14" transform="translate(-5392.717 -7767.426)" fill="#fdcfad"/>
      <path id="Trazado_110067" data-name="Trazado 110067" d="M76.092,754.531s.8,11.233,3.716,19.116c1.151,3.107,4.221,6.563,7.889,9.741,2.433,2.107,5.913,3.012,7.94,1.207,2.191-1.952-1-4.046-3.34-5.986-2.819-2.333-3.081-3.811-4.2-6.478-1.644-3.927,1.7-13.149-.529-16.715s-10.848-7.944-11.478-.886" transform="translate(-5394.123 -7786.508)" fill="#fdcfad"/>
      <path id="Trazado_110068" data-name="Trazado 110068" d="M104.859,792.888c-3.842,1.544-5.049-1.447-6.02-2.49-1.943-2.089-3.2-6.891-4.444-9.4s-2.407-4.38-1.568-8.821c.2-1.051,3.834-2.017,5.8-1.361.248,4.311,5.517,21.441,6.229,22.074" transform="translate(-5404.411 -7798.914)" fill="#d78c63"/>
      <path id="Trazado_110069" data-name="Trazado 110069" d="M98.135,760.706a15.658,15.658,0,0,0,.8,8.485c1.066,2.682,2.342,4.554,2.438,6,.134,2-1.1,2.844-2.02,2.585-1.085-.306-3.242-3.33-4.636-6.088a27.127,27.127,0,0,1-2.031-5.651,19.18,19.18,0,0,1-5.183-10.48c-.538-3.7,1.758-7.04,3.085-7.007,7.579.183,7.551,12.154,7.551,12.154" transform="translate(-5401.208 -7785.124)" fill="#fdcfad"/>
      <path id="Trazado_110070" data-name="Trazado 110070" d="M51.731,526.274c-3.9,1.579-7.824,7.862-12.318,13.833-6.506,8.645-27.124,32.106-27.124,32.106-.715,2.81,13.39,13.451,16.012,12.337l22.18-25.461c1.655-1.442,6.283-5.8,6.283-5.8,2.925-4.909,1.026-12.253,1.03-17.609,0-6.352-2.029-11.046-6.064-9.41" transform="translate(-5354.2 -7645.889)" fill="#d78c63"/>
      <path id="Trazado_110071" data-name="Trazado 110071" d="M27.6,617.885c-1.781-2.154-4.129-3.768-6.005-5.842-7.962,9.035-13.474,14.547-13.867,15.6s2.756,5.25,7.875,7.35c4.389-4.812,12.468-16.537,12-17.1" transform="translate(-5351.339 -7699.741)" fill="#fdcfad"/>
      <path id="Trazado_110072" data-name="Trazado 110072" d="M.8,651.829c-2.676-4.853,1.515-12.613,10.7-17.837,1.021-.581,7.843,5.876,11.242,11.417,5.555,5.9,12.128,17.539,17.066,22.73.46,2.211-9.968,10.075-11.79,9.458C20.132,668.33,5.625,660.585.8,651.829" transform="translate(-5346.529 -7713.446)" fill="#fdcfad"/>
      <path id="Trazado_110073" data-name="Trazado 110073" d="M353.927,531.31c4.158.615,9.46,5.792,15.236,10.533,8.364,6.864,34.7,20.238,44.264,21.756-.759,5.465-15.255,15.256-26.185,15.939-16.83,1.052-32.333-16.394-32.333-16.394s-3.383-16.055-4.652-21.258c-1.5-6.171-.637-11.213,3.67-10.576" transform="translate(-5565.178 -7649.21)" fill="#d78c63"/>
      <path id="Trazado_110074" data-name="Trazado 110074" d="M149.545,914.8c1.547,8.679,1.033,31.889-1.072,44.109,1.48,2.328,4.506,1.971,10.642,1.913a76.285,76.285,0,0,0,9.907-.4c1.794-2.041,2.114-5.645,2.078-6.846-.42-13.8,4.623-29.566,4.612-35.042-.012-5.934-1.544-11.011.049-16.135-.91-1.673-5.86-4.564-16.358-4.236-10.335.323-12.392,2.392-12.664,4.039.157,1.291,2.353,10.065,2.805,12.6" transform="translate(-5438.312 -7878.687)" fill="#d78c63"/>
      <path id="Trazado_110075" data-name="Trazado 110075" d="M127.616,1031.332c-.2,3.407-1.181,10.027-2.524,11.814a18.644,18.644,0,0,1-8.066,6.391,16.664,16.664,0,0,0-5.314,4.439c-.929,1.084,1.048,3.291,7.289,4.735,4.708,1.09,10.362.93,14.662.559,8.653-.746,9.961-3.31,16-5.133,2.842-.876.906-4.8.939-6.074.058-2.177-1.1-3.972-1.386-6.915-.288-2.97.325-6.5-.209-9.894-4.286-4.141-20.641-3-21.386.076" transform="translate(-5416.266 -7960.268)" fill="#d78c63"/>
      <path id="Trazado_110076" data-name="Trazado 110076" d="M136.1,1088.933l-3.937,2.625-7.347,7.035c-7.114,1.9-25.939,3.057-35.589-.066-3.591-1.163-3.7-6.805-3.093-8.166,1.861-.94,7.61-1.2,10.63-2.4,3.649-1.449,27.453-1.413,27.453-1.413l2.941-2.994s6.868-2.981,7.645-3.266c.609-.292,1.124,3.251,1.832,4.76Z" transform="translate(-5400.228 -7992.607)" fill="#59482f"/>
      <path id="Trazado_110077" data-name="Trazado 110077" d="M161.16,1085.05c-.708-1.509-1.222-5.052-1.831-4.76-.4.148-2.423,1.012-4.287,1.815a14.3,14.3,0,0,1-2.651,6.948c-2.827,3.765-12.621,6.933-12.621,6.933a29.061,29.061,0,0,1-14.705,4.334c9.123.519,19.425-.43,24.278-1.727,6.648-1.776,4.649-3.658,7.367-5.527,1.889-1.183,3.5-1.625,4.541-2.247,1.3-1.273-.091-5.769-.091-5.769" transform="translate(-5424.753 -7992.607)" fill="#3a2d1c"/>
      <path id="Trazado_110078" data-name="Trazado 110078" d="M135.589,1075.068c-.816,1.169-2.863,1.413-5.417,3.013-2.718,1.869-.719,3.751-7.367,5.527-7.114,1.9-25.027,2.568-34.676-.556a4.888,4.888,0,0,1-3.338-3.272c-.358-1.422-2.5-6.673.546-9.718,6.3-6.3,16.788-1,18.968-2.544a9.666,9.666,0,0,1,1.915-2.04,13.475,13.475,0,0,1,8.017-2.919c5.291-.175,7.877,2.764,8.848,4.378a3.491,3.491,0,0,1-.879,4.628c1.748-.516,1.524-2.748,2.941-2.995,6.262-1.089,6.868-2.98,7.645-3.266.609-.292,1.124,3.252,1.832,4.761,1.11,2.367,1.732,3.907.966,5" transform="translate(-5398.897 -7981.524)" fill="#776445"/>
      <path id="Trazado_110079" data-name="Trazado 110079" d="M87.914,1084.4s.672-2.555,2.555-2.151,5.379,5.513,17.211,7.126c0,0-14.388,2.421-19.766-4.975" transform="translate(-5401.517 -7993.819)" fill="#99866b"/>
      <path id="Trazado_110080" data-name="Trazado 110080" d="M116.769,1073.212c9.146,2.225,19.424,3.5,27.648,2.625,1.522-.69,4.361.047,4.93-.769.766-1.1.144-2.637-.966-5-.708-1.509-1.222-5.052-1.832-4.76-.777.286-1.382,2.177-7.645,3.266-1.417.246-1.194,2.479-2.941,2.994a3.491,3.491,0,0,0,.878-4.627c-.972-1.614-3.557-4.553-8.848-4.378a13.478,13.478,0,0,0-8.017,2.919,9.658,9.658,0,0,0-1.915,2.041c-1.511,1.072-7.01-1.142-12.341-.509.966,1.264,4.572,4.628,11.047,6.2" transform="translate(-5412.656 -7981.524)" fill="#59482f"/>
      <path id="Trazado_110081" data-name="Trazado 110081" d="M185.118,1074.715c-2.525-6.549.1-5.157-5.319-2.583.084,3.469-.057,7.185-1.687,9.618-2.254,3.365-4.778,6.351-13.655,7.819,3.468-.574,6.7-.738,8.844-1.31,6.648-1.776,4.649-3.658,7.367-5.527,6.325-3.147,6.892-2.87,4.45-8.016" transform="translate(-5449.393 -7986.175)" fill="#59482f"/>
      <path id="Trazado_110082" data-name="Trazado 110082" d="M180.35,753.648l-8.5,55.366s-.666,6.577-12.133,6.84c-13.115.3-16.439-5.819-16.439-5.819s-4.629-53.929-1.264-59.569c4.019-6.737,38.335,3.182,38.335,3.182" transform="translate(-5434.589 -7784.854)" fill="#fdcfad"/>
      <path id="Trazado_110083" data-name="Trazado 110083" d="M312.409,914.8c-1.111,8.679.144,31.889,2.862,44.109-1.363,2.328-4.407,1.971-10.547,1.913a76.833,76.833,0,0,1-9.927-.4c-1.9-2.041-2.4-5.645-2.421-6.846-.273-13.8-5.683-29.566-5.947-35.042-.286-5.934.991-11.011-.86-16.135.827-1.673,5.631-4.564,16.146-4.236,10.351.323,12.512,2.392,12.867,4.039-.092,1.291-1.848,10.065-2.173,12.6" transform="translate(-5525.146 -7878.687)" fill="#d78c63"/>
      <path id="Trazado_110084" data-name="Trazado 110084" d="M322.777,1031.332c.368,3.407,1.685,10.027,3.117,11.814a20.02,20.02,0,0,0,8.387,6.391,17.909,17.909,0,0,1,5.537,4.439c.983,1.084-.883,3.291-7.051,4.735-4.653,1.09-10.315.93-14.634.559-8.691-.746-10.127-3.31-16.254-5.133-2.886-.876-1.147-4.8-1.244-6.074-.167-2.177.9-3.972,1.04-6.915.139-2.97-.652-6.5-.288-9.894,4.078-4.141,20.491-3,21.39.076" transform="translate(-5534.3 -7960.268)" fill="#d78c63"/>
      <path id="Trazado_110085" data-name="Trazado 110085" d="M292.768,1088.933l3.937,2.625,7.347,7.035c7.114,1.9,25.939,3.057,35.589-.066,3.591-1.163,3.7-6.805,3.093-8.166-1.861-.94-7.61-1.2-10.63-2.4-3.649-1.449-27.453-1.413-27.453-1.413l-2.941-2.994s-6.868-2.981-7.645-3.266c-.61-.292-1.124,3.251-1.832,4.76Z" transform="translate(-5529.315 -7992.607)" fill="#59482f"/>
      <path id="Trazado_110086" data-name="Trazado 110086" d="M291.155,1085.05c.708-1.509,1.222-5.052,1.831-4.76.4.148,2.423,1.012,4.287,1.815a14.3,14.3,0,0,0,2.651,6.948c2.827,3.765,12.621,6.933,12.621,6.933a29.061,29.061,0,0,0,14.705,4.334c-9.123.519-19.425-.43-24.278-1.727-6.648-1.776-4.649-3.658-7.367-5.527-1.889-1.183-3.5-1.625-4.542-2.247-1.3-1.273.091-5.769.091-5.769" transform="translate(-5528.235 -7992.607)" fill="#3a2d1c"/>
      <path id="Trazado_110087" data-name="Trazado 110087" d="M290.907,1075.068c.816,1.169,2.863,1.413,5.417,3.013,2.718,1.869.719,3.751,7.367,5.527,7.114,1.9,25.027,2.568,34.676-.556a4.888,4.888,0,0,0,3.338-3.272c.358-1.422,2.5-6.673-.546-9.718-6.3-6.3-16.788-1-18.968-2.544a9.667,9.667,0,0,0-1.915-2.04,13.475,13.475,0,0,0-8.017-2.919c-5.291-.175-7.877,2.764-8.848,4.378a3.491,3.491,0,0,0,.879,4.628c-1.748-.516-1.524-2.748-2.941-2.995-6.262-1.089-6.868-2.98-7.645-3.266-.609-.292-1.124,3.252-1.832,4.761-1.11,2.367-1.732,3.907-.966,5" transform="translate(-5528.273 -7981.524)" fill="#776445"/>
      <path id="Trazado_110088" data-name="Trazado 110088" d="M392.224,1086.507s-.672-2.555-2.555-2.151-5.379,5.513-17.211,7.126c0,0,14.388,2.421,19.766-4.975" transform="translate(-5579.493 -7995.134)" fill="#99866b"/>
      <path id="Trazado_110089" data-name="Trazado 110089" d="M323.486,1073.212c-9.146,2.225-19.424,3.5-27.648,2.625-1.522-.69-4.361.047-4.93-.769-.766-1.1-.144-2.637.966-5,.708-1.509,1.222-5.052,1.831-4.76.777.286,1.383,2.177,7.645,3.266,1.417.246,1.194,2.479,2.941,2.994a3.491,3.491,0,0,1-.878-4.627c.971-1.614,3.557-4.553,8.848-4.378a13.479,13.479,0,0,1,8.017,2.919,9.667,9.667,0,0,1,1.915,2.041c1.51,1.072,7.01-1.142,12.341-.509-.966,1.264-4.572,4.628-11.047,6.2" transform="translate(-5528.273 -7981.524)" fill="#59482f"/>
      <path id="Trazado_110090" data-name="Trazado 110090" d="M291.816,1074.715c2.525-6.549-.1-5.157,5.319-2.583-.084,3.469.057,7.185,1.687,9.618,2.254,3.365,4.778,6.351,13.655,7.819-3.468-.574-6.7-.738-8.844-1.31-6.648-1.776-4.649-3.658-7.367-5.527-6.325-3.147-6.892-2.87-4.451-8.016" transform="translate(-5528.215 -7986.175)" fill="#59482f"/>
      <path id="Trazado_110091" data-name="Trazado 110091" d="M254.884,753.648l11.7,55.366s1,6.577,12.476,6.84c13.131.3,16.148-5.819,16.148-5.819s1.5-53.929-2.152-59.569c-4.357-6.737-38.175,3.182-38.175,3.182" transform="translate(-5505.953 -7784.854)" fill="#fdcfad"/>
      <path id="Trazado_110092" data-name="Trazado 110092" d="M215.91,650.692,198.7,648.623l-32.554-.965-18.141,5.653s-6.167,30.266-5.521,39.573c.261,3.766,34.562,12.409,37.143,13.03.028.007,5.127,0,5.127,0,.026.005,36.962-9.264,37.223-13.03.645-9.307-6.068-42.193-6.068-42.193" transform="translate(-5435.62 -7722.017)" fill="#d78c63"/>
      <path id="Trazado_110093" data-name="Trazado 110093" d="M213.586,497.295c-7.1-9.7-22.1-15.91-48.272-16.131v0l-.247,0-.247,0v0c-26.173.221-41.173,6.431-48.272,16.131-2.852,3.9,6.644,21.466,6.679,21.743,0,0,6.169,19.127,8.236,32.782,3.021,6.732,11.131,9.442,33.219,9.442s32.4-5.881,34.316-12.4c.417-15.281,7.908-29.823,7.908-29.823.035-.277,9.532-17.845,6.679-21.743" transform="translate(-5419.093 -7617.875)" fill="#fdcfad"/>
      <path id="Trazado_110094" data-name="Trazado 110094" d="M220.895,450.585V464.05c0,2.51,4.264,4.546,9.524,4.546s9.524-2.036,9.524-4.546V450.585Z" transform="translate(-5484.694 -7598.752)" fill="#d78c63"/>
      <path id="Trazado_110095" data-name="Trazado 110095" d="M345.871,519.824,352.843,521a31.794,31.794,0,0,1,5.265,3.805c2.242,2.1,22.167,17.6,24.169,18.647s-5.82,8.837-7.8,11.9-8.158,10.611-8.158,10.611l-29.045-18.923Z" transform="translate(-5557.487 -7642.06)" fill="#fff"/>
      <path id="Trazado_110096" data-name="Trazado 110096" d="M343.185,550.68c-.456-1.62,2.731-5.532,4.4-9.411,2.647-6.146,1.613-14.523-2.58-19.734l-3.7-1.712L329.979,546.43s23.68,26.717,26.109,26.261,8.844-10.609,11.371-13.935c0,0-23.877-6.666-24.274-8.076" transform="translate(-5552.923 -7642.06)" fill="#90b3c3"/>
      <path id="Trazado_110097" data-name="Trazado 110097" d="M394.7,580.873s4.33-12.937,5.266-13.412,4.725,5.256,4.789,6.253-10.055,7.158-10.055,7.158" transform="translate(-5593.406 -7671.838)" fill="#90b3c3"/>
      <path id="Trazado_110098" data-name="Trazado 110098" d="M81.914,503.954a59.664,59.664,0,0,0-8.2,3.538c-5.035,2.9-8.86,8.779-12.074,12.471-5.5,6.32-12.551,14.2-13.668,15.089-1.77,1.4,6.687,8.65,9.206,11.287s10.7,7.825,10.7,7.825L80.423,536.2Z" transform="translate(-5376.386 -7632.133)" fill="#fff"/>
      <path id="Trazado_110099" data-name="Trazado 110099" d="M98.1,550.583c.143-1.676-3.025-12.243-2.625-14.043,1.454-6.531,7.422-16.78,7.422-16.78l6.359,18.486S92.33,565.02,91.018,564.758c-1.158-.232-4.964-3.919-8.071-6.71,0,0,1.331-.532,3.206-1.318,4.422-1.854,11.864-5.121,11.952-6.147" transform="translate(-5398.41 -7642.02)" fill="#90b3c3"/>
      <path id="Trazado_110100" data-name="Trazado 110100" d="M101.453,591.4s-5.947-7.322-6.956-7.612-8,1.764-7.874,2.756,14.83,4.856,14.83,4.856" transform="translate(-5400.708 -7682.051)" fill="#90b3c3"/>
      <path id="Trazado_110101" data-name="Trazado 110101" d="M198.569,558.8c-4.9,2.45-18.647,7.9-21.552,8.043-3.5.175-31.673.875-38.848-.875s-14.349-7-14.174-7.875.658-15.749-.742-18.9-10.5-31.848-11.374-34.648-3.894-7.875-2.844-9.45c13.124-9.712,24.007-11.6,24.542-11.724,2.275-.525,6.825-3.5,6.825-3.5l3.406.9,5.869,1.551.8,1.456,5.67,10.268s.014.056.042.164c.4,1.54,4.158,12.172,4.683,12.5.437.273,2.534-5.638,4.613-11.4.906-2.513,1.809-4.994,2.569-6.922a13.931,13.931,0,0,1,1.743-3.619c.679-.511,4.21-1.1,7.661-1.575,3.65-.5,7.213-.875,7.213-.875a63.78,63.78,0,0,1,9.932,3.059c11.539,4.665,15.266,10.766,15.266,10.766,2.1,10.324-11.024,31.323-11.549,32.373s1.249,29.78.245,30.28" transform="translate(-5414.591 -7617.074)" fill="#fff"/>
      <path id="Trazado_110102" data-name="Trazado 110102" d="M199.031,493.527l-5.25,2.362s-4.277,7.986-6.958,6.037c-1.1-.8-5.439-6.4-8.4-11.156-2.491-4-3.788-7.337-3.544-7.393,2.275-.525,6.825-3.5,6.825-3.5l10.08,3.906,4.095.819Z" transform="translate(-5455.896 -7617.074)" fill="#90b3c3"/>
      <path id="Trazado_110103" data-name="Trazado 110103" d="M282.1,489.478a18.409,18.409,0,0,1-1.97,4.2c-1.708,2.348-10.937,9.957-16.4,11.091-1.26.259-4.172-5.3-4.949-4.553-3.9,3.752-10.065,12.414-10.079,12.1-.021-.479,4.133-11.812,4.133-11.812l.151-1.1.9-6.517,11.074-5.6c3.65-.5,7.213-.875,7.213-.875a63.753,63.753,0,0,1,9.932,3.059" transform="translate(-5502.083 -7621.166)" fill="#90b3c3"/>
      <path id="Trazado_110104" data-name="Trazado 110104" d="M243.723,561.877c-1.575,1.312-1.312,10.5-.787,13.912s1.837,23.886,1.837,25.461,1.05-7.874.525-21c-.117-2.932-1.05-14.7-1.575-18.374" transform="translate(-5498.226 -7668.363)" fill="#90b3c3"/>
      <path id="Trazado_110105" data-name="Trazado 110105" d="M337.65,569.82s1.968-7.481,2.231-10.237-1.181-12.074-1.181-12.074-7.481,12.468-7.874,14.961S334.5,573.1,334.5,573.1Z" transform="translate(-5553.436 -7659.376)" fill="#90b3c3"/>
      <path id="Trazado_110106" data-name="Trazado 110106" d="M136.008,580.5s-2.975-11.549-3.15-13.824a13.28,13.28,0,0,1,2.275-7c.875-1.05,2.625,12.774,2.625,12.774l-.175,13.474Z" transform="translate(-5429.621 -7666.952)" fill="#90b3c3"/>
      <path id="Trazado_110107" data-name="Trazado 110107" d="M206.263,497.167c.772.154-2.8-19.511-3.85-22.4s-6.562-9.187-9.974-11.549c0,0-2.888-2.362-4.462-1.312s-2.1,6.3-6.037,8.4c0,0,1.05,6.825,11.156,17.061,1.575-1.968,4.594-7.481,5.25-7.874,0,0,5.294,15.574,7.918,17.674" transform="translate(-5460.328 -7605.665)" fill="#d5f2fa"/>
      <path id="Trazado_110108" data-name="Trazado 110108" d="M247.352,497.343c.218-5.225,2.262-8.557,3.675-13.3.858-2.882,1.188-8.183,1.585-9.274,1.05-2.887,6.562-9.187,9.974-11.549,0,0,2.887-2.362,4.462-1.312s2.1,6.3,6.037,8.4c0,0-1.969,9.974-9.974,15.487a42.035,42.035,0,0,0-6.168-5.643,183.706,183.706,0,0,0-9.591,17.192" transform="translate(-5501.242 -7605.666)" fill="#d5f2fa"/>
      <path id="Trazado_110109" data-name="Trazado 110109" d="M216.515,510.638s4.2-9.45,5.075-9.8,2.1,1.75,2.275,4.2c.094,1.31-1.382,3.427-.875,5.906.44,2.156,3.281,2.756,3.937,6.693-4.987-.263-10.412-7-10.412-7" transform="translate(-5481.954 -7630.161)" fill="#90b3c3"/>
      <path id="Trazado_110110" data-name="Trazado 110110" d="M248.287,518.858s5.6-13.124,6.125-15.4-.7-7.525.35-7.7,7.874,11.024,7.874,11.024Z" transform="translate(-5501.827 -7627.007)" fill="#90b3c3"/>
      <path id="Trazado_110111" data-name="Trazado 110111" d="M308.7,554.528a1.629,1.629,0,0,1,1.926-.745c.553.128-1.362,6.4-1.421,7.5a52.449,52.449,0,0,0,9.135,2.586c1-.073,1.761-7.341,2.259-7.066,1.484.818,1.186,3.106.759,5.132-.641,3.042-1.286,3.635-1.509,3.687-1.683.392-12.133-2.71-13.234-3.8-.818-.81.832-3.236,1.05-3.865.235-.68.525-2.823,1.036-3.424" transform="translate(-5538.169 -7663.256)" fill="#c5c5bd"/>
      <path id="Trazado_110112" data-name="Trazado 110112" d="M313.594,553.878c.553.128-1.362,6.4-1.421,7.5a52.447,52.447,0,0,0,9.135,2.586c1-.073,1.761-7.341,2.259-7.066,1,.889.377,2.8-.05,4.826-.641,3.041-1.37,3.623-1.593,3.675a5.054,5.054,0,0,1-1.575-.072c-.5-.075-.32-1.241-.942-1.375-3.477-.75-7.228-1.4-8.01-2.161-.831-.812.551-3.177.767-3.809.234-.683.264-4.372,1.43-4.1" transform="translate(-5541.136 -7663.351)" fill="#919187"/>
      <path id="Trazado_110113" data-name="Trazado 110113" d="M317.987,584.921c0-.394-.394-5.906-.131-6.956s1.312-3.018.919-3.937-10.237-3.675-11.024-3.15-1.837,5.774-2.231,8.137a54.8,54.8,0,0,0-.394,6.693Z" transform="translate(-5537.378 -7673.951)" fill="#70089b"/>
      <path id="Trazado_110114" data-name="Trazado 110114" d="M317.987,584.926c0-.394-.394-5.906-.131-6.956-.437-.612-10.193-1.268-10.587-2.187.875-2.537,1.269-5.425.481-4.9s-1.837,5.774-2.231,8.137a54.8,54.8,0,0,0-.394,6.693Z" transform="translate(-5537.378 -7673.957)" fill="#43085b"/>
      <path id="Trazado_110115" data-name="Trazado 110115" d="M326.445,520.415l7.148-23.807s-1.024-1.741-4.873-3.316-5.577-1.479-5.577-1.479l-6.8,25.059c0,.656,9.931,4.243,10.106,3.543" transform="translate(-5544.392 -7624.539)" fill="#70089b"/>
      <path id="Trazado_110116" data-name="Trazado 110116" d="M323.142,491.813a4.676,4.676,0,0,1,.768.055c.243.032-2.1,13.76-4.465,19.535-.28.685-1.9,3.626-1.662,4.374.243.783,4.251.986,4.9,1.4a26.655,26.655,0,0,1,3.762,3.237c-.175.7-10.106-2.887-10.106-3.543Z" transform="translate(-5544.392 -7624.539)" fill="#280437"/>
      <path id="Trazado_110117" data-name="Trazado 110117" d="M159.777,557.952c.218.63,1.867,3.055,1.05,3.865-1.1,1.091-11.552,4.194-13.235,3.8-.224-.052-.868-.646-1.509-3.687-.427-2.026-.725-4.313.76-5.132.5-.275,1.264,6.993,2.259,7.066a52.421,52.421,0,0,0,9.135-2.586c-.06-1.1-1.974-7.369-1.421-7.5a1.63,1.63,0,0,1,1.926.745c.511.6.8,2.743,1.036,3.424" transform="translate(-5437.683 -7663.256)" fill="#c5c5bd"/>
      <path id="Trazado_110118" data-name="Trazado 110118" d="M159.2,557.98c.216.632,1.6,3,.767,3.809-.782.764-4.532,1.411-8.01,2.161-.622.134-.442,1.3-.942,1.375a5.055,5.055,0,0,1-1.576.072c-.222-.052-.952-.634-1.593-3.675-.427-2.026-1.05-3.937-.05-4.826.5-.275,1.264,6.993,2.259,7.066a52.465,52.465,0,0,0,9.135-2.586c-.059-1.1-1.974-7.369-1.421-7.5,1.165-.27,1.2,3.42,1.43,4.1" transform="translate(-5438.635 -7663.351)" fill="#919187"/>
      <path id="Trazado_110119" data-name="Trazado 110119" d="M152.095,584.921c0-.394.394-5.906.131-6.956s-1.312-3.018-.919-3.937,10.237-3.675,11.024-3.15,1.837,5.774,2.231,8.137a54.806,54.806,0,0,1,.394,6.693Z" transform="translate(-5441.113 -7673.951)" fill="#70089b"/>
      <path id="Trazado_110120" data-name="Trazado 110120" d="M153.556,584.926c0-.394.394-5.906.131-6.956.437-.612,10.193-1.268,10.587-2.187-.875-2.537-1.269-5.425-.481-4.9s1.837,5.774,2.231,8.137a54.806,54.806,0,0,1,.394,6.693Z" transform="translate(-5442.575 -7673.957)" fill="#43085b"/>
      <path id="Trazado_110121" data-name="Trazado 110121" d="M137.763,520.415l-7.148-23.807s1.024-1.741,4.873-3.316,5.577-1.479,5.577-1.479l6.8,25.059c0,.656-9.931,4.243-10.106,3.543" transform="translate(-5428.226 -7624.539)" fill="#70089b"/>
      <path id="Trazado_110122" data-name="Trazado 110122" d="M153,491.813a4.676,4.676,0,0,0-.768.055c-.243.032,2.1,13.76,4.465,19.535.28.685,1.9,3.626,1.662,4.374-.243.783-4.251.986-4.9,1.4a26.657,26.657,0,0,0-3.762,3.237c.175.7,10.106-2.887,10.106-3.543Z" transform="translate(-5440.164 -7624.539)" fill="#43045d"/>
      <path id="Trazado_110123" data-name="Trazado 110123" d="M313.847,905.02s-1.713,6.693-.938,10.63,4.68,32.023,3.016,35.173-22.073,3.806-28.373,3.806-14.15-7.874-14.15-7.874,1.649-11.418,1.978-16.143-3.064-15.355-3.369-18.505,9.65-14.174,9.65-14.174Z" transform="translate(-5516.662 -7878.558)" fill="#300243"/>
      <path id="Trazado_110124" data-name="Trazado 110124" d="M308.006,1015.015s-10.771-5.512-16.47-4.725a23.274,23.274,0,0,0-9.855,3.937s20.517,3.15,26.325.787" transform="translate(-5522.714 -7948.787)" fill="#9d45c1"/>
      <path id="Trazado_110125" data-name="Trazado 110125" d="M252.292,752.963l5.622,41.735s-1.179,12.205,3.572,16.536c2.326,2.12,8.732,8.072,14.976,8.268,8.337.262,21.843-10.237,24.408-12.206.95-.729,3.12-3.994,2.539-6.3-.782-3.106-4.269-7.481-4.269-7.481s-1.217-21.781-.145-29.923c1.813-13.78-1.4-30.71-1.4-30.71l-44.667,6.3Z" transform="translate(-5504.332 -7775.323)" fill="#70089b"/>
      <path id="Trazado_110126" data-name="Trazado 110126" d="M258.294,827.882s4.9-14.437,6.025-21.786-.36-19.949-.36-19.949l-11.668.131Z" transform="translate(-5504.332 -7808.639)" fill="#41055a"/>
      <path id="Trazado_110127" data-name="Trazado 110127" d="M333.137,923.621c1.061-.787,4.061-6.7,2.505-6.65-2.355.072-8.976,7.37-12.4,7.437-5.14.1-16.583-.788-17.663-.788-2.275,0,5.525,7.35,7.8,7.35s18.7-6.562,19.761-7.35" transform="translate(-5537.402 -7890.466)" fill="#41055a"/>
      <path id="Trazado_110128" data-name="Trazado 110128" d="M365.222,876.3a11.715,11.715,0,0,1-2.6-3.325c-.486-1.4-1.239-12.774-1.239-12.774s-5.818,8.574-6.281,11.024,4.488,2.975,10.117,5.075" transform="translate(-5568.62 -7854.959)" fill="#41055a"/>
      <path id="Trazado_110129" data-name="Trazado 110129" d="M289.957,903.682c.627,1.05,16.192,1.214,21.454-.4,2-.615-9.715-11.334-13.763-10.525s-8.318,9.88-7.691,10.929" transform="translate(-5527.852 -7875.291)" fill="#9d45c1"/>
      <path id="Trazado_110130" data-name="Trazado 110130" d="M315.269,1025.015c-1.687.657-24.866,6.9-42.764,3.244a17.667,17.667,0,0,0-3.769,3.094c-1.593,1.817,4.529,5.724,4.529,5.724s-4.888,3.846-4.919,6.957c-.049,4.819,12.509,4.81,16.761,5.154,4.2.34,32.251-4.282,34.267-6.615,2.155-2.495-3.8-7.453-3.8-7.453s4.18-3.005,3.553-6.564a4.027,4.027,0,0,0-3.86-3.541" transform="translate(-5514.373 -7958.045)" fill="#70089b"/>
      <path id="Trazado_110131" data-name="Trazado 110131" d="M317.817,1025.644s-12.007,2.268-15.339,2.948c-3.37.688-16.57,1.234-19.794.962-3.256-.275-7.9-.9-7.9-.9l-2.8,2.592s18.647,3.967,19.622,4.146,11.882-4.586,11.882-4.586,11.549-.508,12.858-1.276,1.475-3.885,1.475-3.885" transform="translate(-5516.646 -7958.438)" fill="#480a63"/>
      <path id="Trazado_110132" data-name="Trazado 110132" d="M271.171,1052.773a17.174,17.174,0,0,1,2.063,1.666c.324.434-2.386,2.47-2.641,2.87s-2.525,2.321-2.279,4.087,1.827,4.335,11.644,4.629l6.056.6s13.607-1.407,20.065-2.969c0,0-24.5.416-27.833-2.007,0,0,9.827-1.79,12.907-2.118,3.05-.325,14.633-2.268,16.534-3.177s-17.722.206-21.232-.078c-3.547-.287-15.283-3.5-15.283-3.5" transform="translate(-5514.341 -7975.407)" fill="#330746"/>
      <path id="Trazado_110133" data-name="Trazado 110133" d="M376.626,1051.6a16.772,16.772,0,0,1,1.967,2.764c.146.6-12.214-1.043-12.214-1.043Z" transform="translate(-5575.69 -7974.675)" fill="#330746"/>
      <path id="Trazado_110134" data-name="Trazado 110134" d="M127.512,905.02s2.142,6.693,1.618,10.63-2.631,32.023-.767,35.173,22.317,3.806,28.616,3.806,13.646-7.874,13.646-7.874-2.379-11.418-3.011-16.143,2.081-15.355,2.185-18.505-10.557-14.174-10.557-14.174Z" transform="translate(-5426.285 -7878.558)" fill="#300243"/>
      <path id="Trazado_110135" data-name="Trazado 110135" d="M166.06,1015.015s10.419-5.512,16.167-4.725a24.916,24.916,0,0,1,10.107,3.937s-20.315,3.15-26.274.787" transform="translate(-5450.396 -7948.787)" fill="#9d45c1"/>
      <path id="Trazado_110136" data-name="Trazado 110136" d="M170.282,752.963,167.33,794.7s1.96,12.205-2.514,16.536c-2.19,2.12-8.216,8.072-14.447,8.268-8.32.262-22.5-10.237-25.189-12.206-1-.729-3.375-3.994-2.942-6.3.584-3.106,3.79-7.481,3.79-7.481s-.176-21.781-1.769-29.923c-2.7-13.78-.562-30.71-.562-30.71l45.071,6.3Z" transform="translate(-5422.953 -7775.323)" fill="#70089b"/>
      <path id="Trazado_110137" data-name="Trazado 110137" d="M227.526,827.882s-5.823-14.437-7.418-21.786-.917-19.949-.917-19.949l11.676.131Z" transform="translate(-5483.538 -7808.639)" fill="#41055a"/>
      <path id="Trazado_110138" data-name="Trazado 110138" d="M126.96,923.621c-1.112-.788-4.489-6.7-2.93-6.65,2.359.072,9.447,7.37,12.879,7.437,5.146.1,16.533-.788,17.612-.788,2.275,0-5.055,7.35-7.329,7.35s-19.12-6.562-20.231-7.35" transform="translate(-5423.854 -7890.466)" fill="#41055a"/>
      <path id="Trazado_110139" data-name="Trazado 110139" d="M128.2,876.3a10.69,10.69,0,0,0,2.385-3.325c.4-1.4.421-12.774.421-12.774s6.367,8.574,6.986,11.024-4.3,2.975-9.792,5.075" transform="translate(-5426.712 -7854.959)" fill="#41055a"/>
      <path id="Trazado_110140" data-name="Trazado 110140" d="M159.453,827.484s12.06,8.4,14.335,11.024,1.355,22.574.8,23.623-13.228,3.15-15.319,2.887,4.564-11.024,4.564-11.024-5.028-8.89-5.4-11.418c-1.026-7.014-.373-15.405,1.023-15.093" transform="translate(-5445.31 -7834.489)" fill="#9d45c1"/>
      <path id="Trazado_110141" data-name="Trazado 110141" d="M113.778,1025.015c1.687.657,24.866,6.9,42.764,3.244a17.675,17.675,0,0,1,3.769,3.094c1.592,1.817-4.529,5.724-4.529,5.724s4.888,3.846,4.92,6.957c.049,4.819-12.51,4.81-16.761,5.154-4.2.34-32.251-4.282-34.267-6.615-2.155-2.495,3.8-7.453,3.8-7.453s-4.18-3.005-3.553-6.564a4.027,4.027,0,0,1,3.86-3.541" transform="translate(-5414.833 -7958.045)" fill="#70089b"/>
      <path id="Trazado_110142" data-name="Trazado 110142" d="M120.684,1025.644s12.006,2.268,15.339,2.948c3.37.688,16.57,1.234,19.794.962,3.256-.275,7.905-.9,7.905-.9l2.8,2.592s-18.647,3.967-19.622,4.146-11.882-4.586-11.882-4.586-11.549-.508-12.858-1.276-1.475-3.885-1.475-3.885" transform="translate(-5422.014 -7958.438)" fill="#480a63"/>
      <path id="Trazado_110143" data-name="Trazado 110143" d="M177.883,1052.773a17.172,17.172,0,0,0-2.063,1.666c-.324.434,2.385,2.47,2.641,2.87s2.524,2.321,2.279,4.087-1.827,4.335-11.643,4.629l-6.056.6s-13.608-1.407-20.065-2.969c0,0,24.5.416,27.833-2.007,0,0-9.827-1.79-12.908-2.118-3.051-.325-14.633-2.268-16.534-3.177s17.723.206,21.232-.078c3.546-.287,15.283-3.5,15.283-3.5" transform="translate(-5434.872 -7975.407)" fill="#330746"/>
      <path id="Trazado_110144" data-name="Trazado 110144" d="M118.026,1051.6a16.773,16.773,0,0,0-1.967,2.764c-.146.6,12.214-1.043,12.214-1.043Z" transform="translate(-5419.12 -7974.675)" fill="#330746"/>
      <path id="Trazado_110145" data-name="Trazado 110145" d="M125.007,699.749s-.394,20.015.394,23.848,12.54,17.46,45.278,17.46a81.065,81.065,0,0,0,46.854-14.479c3.15-2.129-1.575-33.643-1.575-33.643Z" transform="translate(-5424.656 -7750.336)" fill="#70089b"/>
      <path id="Trazado_110146" data-name="Trazado 110146" d="M208.715,806.192s-8.4-8.224-11.374-8.75-14,1.4-14,1.4,9.1,3.85,13.649,4.725,11.724,2.625,11.724,2.625" transform="translate(-5461.205 -7815.647)" fill="#41055a"/>
      <path id="Trazado_110147" data-name="Trazado 110147" d="M250.156,812.36s7.7-5.075,12.249-4.55,16.1,9.8,16.1,9.8-25.2-1.575-28.348-5.25" transform="translate(-5502.996 -7822.165)" fill="#41055a"/>
      <path id="Trazado_110148" data-name="Trazado 110148" d="M240.811,750.141a44.1,44.1,0,0,1,1.225,7.35c.175,3.325.875,5.774,1.05,9.1s1.05,8.749,1.05,8.749.175-8.4,0-10.5-.962-15.136-.962-15.136Z" transform="translate(-5497.15 -7785.844)" fill="#41055a"/>
      <path id="Trazado_110149" data-name="Trazado 110149" d="M129,602.5s1.49-7.206,3.15-12.6c1.05-3.412,75.858-3.15,76.554-.5,1.089,4.144,1.794,8.562,2.191,9.953.788,2.756,7.7,28.086,7.175,43.7,0,0-26.861,3.543-47.334,5.118-13.1,1.008-39.962-3.165-43.7-4.725-4.725-1.969,0-37.01,1.968-40.947" transform="translate(-5424.712 -7684.311)" fill="#70089b"/>
      <path id="Trazado_110150" data-name="Trazado 110150" d="M127.162,637.769c.14-4.906,1.6-10.193,1.831-15.094.155-3.334-.041-6.669.4-9.973.672-5.035,2.054-10.03,2.368-15.1C130.265,602.783,129,608.9,129,608.9c-1.969,3.937-6.693,38.979-1.969,40.947a11.7,11.7,0,0,0,1.386.437c.043-4.292-1.377-8.22-1.255-12.511" transform="translate(-5424.712 -7690.708)" fill="#2b517c"/>
      <path id="Trazado_110151" data-name="Trazado 110151" d="M351.472,606.254c-.33-1.155-.873-4.4-1.671-7.84q0,12.123.021,24.245c.005,2.45,4.006,6.343,4.013,8.793.013,4.222-2.231,6.223-3.412,9.712-.782,2.309-.677,6-.657,8.793a32.607,32.607,0,0,1,8.881,0c.525-15.618-6.387-40.947-7.174-43.7" transform="translate(-5565.289 -7691.216)" fill="#42055b"/>
      <rect id="Rectángulo_13261" data-name="Rectángulo 13261" width="27.167" height="6.562" transform="translate(-5244.659 -7087.193)" fill="#4c0768"/>
      <rect id="Rectángulo_13262" data-name="Rectángulo 13262" width="26.248" height="4.725" transform="translate(-5244.003 -7086.8)" fill="#8d1dbb"/>
      <path id="Trazado_110152" data-name="Trazado 110152" d="M194.8,623.256c0,.38,1.1,25.986,1,27.218-.145,1.656-12.639,2.358-19.214,2.69-6.653.336-16.389-.733-18.19-1.537s1.783-28.343,1.783-28.343Z" transform="translate(-5445.284 -7706.754)" fill="#4b0667"/>
      <path id="Trazado_110153" data-name="Trazado 110153" d="M193.616,625.229c0,.357.63,22.334.527,23.487-.138,1.549-11.593,3.035-17.544,3.334-6.015.3-14.385-.658-16.01-1.411s1.61-25.369,1.61-25.369Z" transform="translate(-5446.688 -7707.988)" fill="#8a27b4"/>
      <path id="Trazado_110154" data-name="Trazado 110154" d="M161.185,663.755c-.031-1.921.621-12.406.119-13.3-1.064,7.011-1.555,15.561-.691,15.961a12.723,12.723,0,0,0,2.7.64,3.511,3.511,0,0,1-2.13-3.3" transform="translate(-5446.712 -7723.768)" fill="#5e85b7"/>
      <path id="Trazado_110155" data-name="Trazado 110155" d="M158.207,609.789c.96-.257,33.995-.884,34.757-.013s.964,11.271.244,12.068c-2.617,2.9-33.669,2.646-36.943,1.88s.979-13.678,1.942-13.935" transform="translate(-5443.504 -7698.043)" fill="#4b0667"/>
      <path id="Trazado_110156" data-name="Trazado 110156" d="M160.75,611.635c2.1,0,30.946-.483,32.189-.484s.652,9.15-.051,9.867c-2.553,2.606-29.887,2.2-33.052,1.507s.913-10.89.913-10.89" transform="translate(-5445.748 -7699.183)" fill="#8a27b4"/>
      <path id="Trazado_110157" data-name="Trazado 110157" d="M160.75,611.635c2.1,0,30.946-.483,32.189-.484-.294,1.643-29.694,1.379-30.461,2.091-2.788,2.59-3.585,7.61-2.642,9.283-3.174-.691.913-10.89.913-10.89" transform="translate(-5445.748 -7699.183)" fill="#a63fd1"/>
      <path id="Trazado_110158" data-name="Trazado 110158" d="M138.136,736.023s35.348.175,39.2-.175,19.249-.35,19.249-.35,4.725,10.15,5.6,12.6,2.8,19.249,4.9,22.4,10.674,10.324,18.9,6.3l-4.725-47.072-9.974-4.55-74.2,3.325Z" transform="translate(-5432.273 -7770.501)" fill="#3f0358"/>
      <path id="Trazado_110159" data-name="Trazado 110159" d="M127.882,720.6c-2.534,0-4.72-.025-6.474-.078-.525-.245-.525-13.238.264-13.285,14.573.486,74.8-1.488,93.955-3.736,1.063-.285,2.113,12.97,1.322,13.2-18.056,1.976-66.88,3.9-89.066,3.9" transform="translate(-5422.237 -7756.943)" fill="#555863"/>
      <path id="Trazado_110160" data-name="Trazado 110160" d="M162.485,716.223c-.652-.1-1.2-5.522-1.127-6.168-5.3-.788-33.081-1.851-39.687-2.053-.789.043-.789,11.993-.263,12.218,1.753.049,3.94.072,6.474.072,22.187,0,70.751-1.464,88.807-3.281.394-.107.263-8.4-1.181-11.812-6.168,1.181-37.141,2.1-37.141,2.1s-2.334,10.274-4.2,10.237c0,0-7.453-.646-11.681-1.312" transform="translate(-5422.237 -7758.007)" fill="#2f323c"/>
      <path id="Trazado_110161" data-name="Trazado 110161" d="M118.264,709.2c.909-.069,31.16.6,31.652,1.048s-.273,17.336-4.419,23.33c-3.152,4.558-14.387,10.1-19.787,9.927-5.339-.168-10.577-6.01-12.3-9.5-.966-1.955-.744-21.48-.409-22.066a9.361,9.361,0,0,1,5.262-2.739" transform="translate(-5417.03 -7760.506)" fill="#2b517c"/>
      <path id="Trazado_110162" data-name="Trazado 110162" d="M141.66,722.252c-4.139,2.371-8.138,4.928-12.18,7.366a130.116,130.116,0,0,1-15.41,8.225,2.846,2.846,0,0,0,.188.666c1.722,3.489,6.961,9.332,12.3,9.5,5.4.169,16.634-5.37,19.787-9.927,3.411-4.931,4.529-17.2,4.548-21.685a77.889,77.889,0,0,1-9.232,5.856" transform="translate(-5417.877 -7765.011)" fill="#183956"/>
      <rect id="Rectángulo_13263" data-name="Rectángulo 13263" width="2.558" height="27.612" transform="matrix(0.967, -0.256, 0.256, 0.967, -5296.458, -7052.358)" fill="#c5c5bd"/>
      <path id="Trazado_110163" data-name="Trazado 110163" d="M148.961,760.524l-.861.277-2.675-10.1Z" transform="translate(-5437.489 -7786.467)" fill="#919187"/>
      <path id="Trazado_110164" data-name="Trazado 110164" d="M143.234,731.344l-1.7-4.586-5-17.6-1.719.358-1.114-4.2,2.473-.655Z" transform="translate(-5430.151 -7757.666)" fill="#919187"/>
      <path id="Trazado_110165" data-name="Trazado 110165" d="M151.931,763.973c-.267-.174-2.413-1.122-2.413-1.122l-1.009.267s-1.4,1.886-1.542,2.169,2.756,5.58,2.756,5.58l2.574-.682s-.1-6.038-.367-6.212" transform="translate(-5438.45 -7794.067)" fill="#c5c5bd"/>
      <path id="Trazado_110166" data-name="Trazado 110166" d="M152.029,771.682a14.571,14.571,0,0,0-3.021-.741c-.061.147,2.29,4.492,2.29,4.492l1.268-.336s-.412-3.318-.538-3.416" transform="translate(-5439.729 -7799.117)" fill="#e0e0dc"/>
      <path id="Trazado_110167" data-name="Trazado 110167" d="M125.5,668.914l-4.942,1.309c-1.609.426-1.707-1.492-1.707-1.492l-5.511-20.807s-.357-3.207,2.5-3.964a3.671,3.671,0,0,1,4.574,1.894l5.532,20.887s.93,1.808-.449,2.173" transform="translate(-5417.41 -7719.591)" fill="#c3302a"/>
      <path id="Trazado_110168" data-name="Trazado 110168" d="M123.086,665.7l-1.425.378c-.464.123-.7-1.224-.7-1.224l-4-15.087s-.177-1.278.648-1.5c.987-.261,1.372.819,1.372.819l4.011,15.145s.49,1.36.093,1.465" transform="translate(-5419.677 -7722.372)" fill="#e25757"/>
      <path id="Trazado_110169" data-name="Trazado 110169" d="M135.841,668.352l-5.488-20.72a3.7,3.7,0,0,0-.731-1.068c1.236,4.44,4.558,19.26,4.38,21.819-.113,1.636-3.222,2.1-4.42,2.965a1.074,1.074,0,0,0,1.237.372l4.629-1.226c1.292-.342.393-2.142.393-2.142" transform="translate(-5427.58 -7721.333)" fill="#8a1515"/>
      <rect id="Rectángulo_13264" data-name="Rectángulo 13264" width="2.558" height="27.612" transform="matrix(0.989, -0.148, 0.148, 0.989, -5286.902, -7054.57)" fill="#c5c5bd"/>
      <path id="Trazado_110170" data-name="Trazado 110170" d="M168.442,755.968l-.886.181-1.551-10.333Z" transform="translate(-5450.361 -7783.412)" fill="#919187"/>
      <path id="Trazado_110171" data-name="Trazado 110171" d="M165.832,726.79l-1.19-4.746L161.6,704l-1.748.167-.646-4.3,2.53-.379Z" transform="translate(-5446.108 -7754.433)" fill="#919187"/>
      <path id="Trazado_110172" data-name="Trazado 110172" d="M170.562,760.19c-.246-.2-2.275-1.38-2.275-1.38l-1.032.155s-1.595,1.721-1.77,1.986,2.127,5.849,2.127,5.849l2.634-.4s.563-6.013.317-6.215" transform="translate(-5450.029 -7791.54)" fill="#c5c5bd"/>
      <path id="Trazado_110173" data-name="Trazado 110173" d="M170.262,767.405a14.6,14.6,0,0,0-2.922-1.068c-.076.139,1.783,4.717,1.783,4.717l1.3-.195s-.046-3.344-.16-3.454" transform="translate(-5451.195 -7796.241)" fill="#e0e0dc"/>
      <path id="Trazado_110174" data-name="Trazado 110174" d="M154.437,662.992l-5.055.759c-1.646.247-1.533-1.671-1.533-1.671l-3.194-21.286s0-3.227,2.923-3.666a3.671,3.671,0,0,1,4.338,2.385l3.206,21.368s.726,1.9-.685,2.111" transform="translate(-5437.007 -7715.391)" fill="#555863"/>
      <path id="Trazado_110175" data-name="Trazado 110175" d="M152.873,659.038l-1.458.219c-.475.071-.564-1.293-.564-1.293l-2.316-15.434s-.036-1.289.808-1.416c1.009-.151,1.274.965,1.274.965l2.325,15.494s.338,1.405-.069,1.466" transform="translate(-5439.435 -7717.915)" fill="#6d727f"/>
      <path id="Trazado_110176" data-name="Trazado 110176" d="M160.973,662.921l-3.181-21.2a3.713,3.713,0,0,0-.61-1.142c.741,4.549,2.417,19.644,1.96,22.168-.292,1.614-3.434,1.737-4.718,2.462a1.075,1.075,0,0,0,1.188.506l4.735-.711c1.322-.2.625-2.086.625-2.086" transform="translate(-5443.118 -7717.591)" fill="#2f323c"/>
      <path id="Trazado_110177" data-name="Trazado 110177" d="M138.886,739.465c2.112-3.118,1.649-21.071.684-21.537s-26.94-1.79-28.5-1.532c-1.346.589-2.592,15.775.411,22.091,1.687,3.722,9.262,7.483,11.443,7.759s13.889-3.717,15.964-6.782" transform="translate(-5415.098 -7764.991)" fill="#4472ab"/>
      <path id="Trazado_110178" data-name="Trazado 110178" d="M113.158,718.617c7.7,0,26.6-.6,26.412-.689-.965-.465-26.94-1.79-28.5-1.531-1.346.589-2.592,15.775.411,22.091-1.993-9.751.981-19.871,1.679-19.871" transform="translate(-5415.098 -7764.991)" fill="#5e85b7"/>
      <path id="Trazado_110179" data-name="Trazado 110179" d="M292.323,722.63s4.725,12.6,6.693,19.292,1.05,16.8,6.3,22.836c2.362,3.937,11.418,7.874,15.749,7.087s8.268-7.087,9.449-10.631-4.725-23.23-5.118-26.379-3.15-14.568-3.15-14.568Z" transform="translate(-5529.37 -7767.433)" fill="#555863"/>
      <path id="Trazado_110180" data-name="Trazado 110180" d="M324.709,731.092c-.944-4.531-2.462-10.824-2.462-10.824l-29.923,2.362s4.069,7.441,5.644,11.024c7.184.1,24.968-2.29,26.742-2.563" transform="translate(-5529.37 -7767.433)" fill="#2f323c"/>
      <path id="Trazado_110181" data-name="Trazado 110181" d="M301.115,690.358a14.6,14.6,0,0,0-7.748-5.7,30.451,30.451,0,0,0-7.479-.323c-3.421,1.209-10.1,4.839-11.435,7.209-.736,1.953.066,15.254.868,15.621a23.077,23.077,0,0,0,5.381,1.181c6.915-.218,20-1.86,20.315-2.037.786-.438.911-14.073.1-15.957" transform="translate(-5518.012 -7744.886)" fill="#e5a60b"/>
      <path id="Trazado_110182" data-name="Trazado 110182" d="M315.526,691.948c-1.76-2.764-11.66-6.708-13.457-6.425l-.015,0-.015,0c-1.805-.123-11.528,4.7-13.174,7.615-.736,1.953-.061,15.552.742,15.919.414.19,25.416-.928,25.822-1.154.786-.438.911-14.073.1-15.957" transform="translate(-5527.009 -7745.692)" fill="#ffdf2c"/>
      <path id="Trazado_110183" data-name="Trazado 110183" d="M323.269,706.457c-.674-.809-9.3-.3-9.8,0s-.4,6.411-.086,6.553c.16.073,9.827-.359,9.984-.446.3-.17.339-5.582-.1-6.107" transform="translate(-5542.379 -7758.521)" fill="#2f323c"/>
      <path id="Trazado_110184" data-name="Trazado 110184" d="M290.575,693.037c1.922-2,7.874-5.687,11.494-7.491l-.015,0-.015,0c-1.805-.123-11.528,4.7-13.174,7.615-.669,1.776-.171,13.186.528,15.51.045-3.211-.585-13.8,1.182-15.635" transform="translate(-5527.01 -7745.714)" fill="#fff18a"/>
      <path id="Trazado_110185" data-name="Trazado 110185" d="M317.261,702.7c-.453.1.513,13.776-1.284,14.06,0,0-25.438,2.684-24.636,3.051.414.19,25.416-.928,25.822-1.154.786-.438.911-14.073.1-15.956" transform="translate(-5528.744 -7756.446)" fill="#e5a60b"/>
      <path id="Trazado_110186" data-name="Trazado 110186" d="M341.625,772.815c-.8.064-23.908,5.092-24.31,5.566s-1.457,13.463,3.568,20.025c2.475,3.5,11.35,6.988,15.718,6.314s9-6.211,10.636-9.45c.931-1.839,1.876-19.831,1.613-20.347s-5.266-2.267-7.225-2.109" transform="translate(-5544.769 -7800.294)" fill="#2f323c"/>
      <rect id="Rectángulo_13265" data-name="Rectángulo 13265" width="27.612" height="2.558" transform="matrix(0.01, -1, 1, 0.01, -5218.722, -7006.698)" fill="#c5c5bd"/>
      <path id="Trazado_110187" data-name="Trazado 110187" d="M342.156,810.829l-.9.038.106-10.448Z" transform="translate(-5559.975 -7817.565)" fill="#919187"/>
      <path id="Trazado_110188" data-name="Trazado 110188" d="M344.2,782.231l-.424-4.874-.146-18.3-1.753-.112.044-4.35,2.558.026Z" transform="translate(-5560.367 -7788.904)" fill="#919187"/>
      <path id="Trazado_110189" data-name="Trazado 110189" d="M343.168,816.06c-.211-.239-2.028-1.723-2.028-1.723l-1.044-.01s-1.847,1.447-2.062,1.681,1.174,6.112,1.174,6.112l2.663.027s1.508-5.848,1.3-6.086" transform="translate(-5557.947 -7826.265)" fill="#c5c5bd"/>
      <path id="Trazado_110190" data-name="Trazado 110190" d="M342.308,822.419a14.557,14.557,0,0,0-2.715-1.517c-.1.125,1.014,4.94,1.014,4.94l1.312.013s.485-3.309.389-3.436" transform="translate(-5558.933 -7830.373)" fill="#e0e0dc"/>
      <path id="Trazado_110191" data-name="Trazado 110191" d="M341.8,717.686l-5.112-.052c-1.664-.017-1.249-1.892-1.249-1.892l.218-21.523s.507-3.187,3.467-3.157a3.671,3.671,0,0,1,3.906,3.042l-.218,21.606s.416,1.99-1.011,1.976" transform="translate(-5556.312 -7749.166)" fill="#c3302a"/>
      <path id="Trazado_110192" data-name="Trazado 110192" d="M341.644,712.895l-1.474-.015c-.48,0-.352-1.366-.352-1.366l.158-15.606s.169-1.279,1.022-1.27c1.021.01,1.1,1.155,1.1,1.155l-.158,15.666s.111,1.441-.3,1.437" transform="translate(-5559.068 -7751.401)" fill="#e25757"/>
      <path id="Trazado_110193" data-name="Trazado 110193" d="M343.18,718.5l.216-21.433a3.7,3.7,0,0,0-.421-1.224c.012,4.609-.725,19.779-1.576,22.2-.544,1.547-3.666,1.172-5.049,1.684a1.074,1.074,0,0,0,1.093.688l4.788.048c1.336.014.948-1.96.948-1.96" transform="translate(-5556.909 -7752.157)" fill="#8a1515"/>
      <rect id="Rectángulo_13266" data-name="Rectángulo 13266" width="27.612" height="2.558" transform="translate(-5211.951 -7006.488) rotate(-83.121)" fill="#c5c5bd"/>
      <path id="Trazado_110194" data-name="Trazado 110194" d="M360.233,811.614l-.9-.061,1.251-10.374Z" transform="translate(-5571.283 -7818.041)" fill="#919187"/>
      <path id="Trazado_110195" data-name="Trazado 110195" d="M366.111,783.4l.114-4.892,1.863-18.206-1.73-.3.521-4.319,2.539.306Z" transform="translate(-5575.523 -7789.584)" fill="#919187"/>
      <path id="Trazado_110196" data-name="Trazado 110196" d="M362.229,817.288c-.183-.26-1.827-1.935-1.827-1.935l-1.036-.125s-1.995,1.235-2.234,1.445.5,6.2.5,6.2l2.644.319s2.14-5.647,1.957-5.907" transform="translate(-5569.876 -7826.828)" fill="#c5c5bd"/>
      <path id="Trazado_110197" data-name="Trazado 110197" d="M361.013,823.137a14.554,14.554,0,0,0-2.533-1.806c-.11.114.466,5.021.466,5.021l1.3.157s.845-3.235.764-3.373" transform="translate(-5570.741 -7830.642)" fill="#e0e0dc"/>
      <path id="Trazado_110198" data-name="Trazado 110198" d="M367.382,719.613,362.307,719c-1.652-.2-1.034-2.018-1.034-2.018l2.578-21.369s.854-3.112,3.792-2.757a3.671,3.671,0,0,1,3.549,3.452L368.6,717.76s.2,2.024-1.221,1.853" transform="translate(-5572.426 -7750.27)" fill="#76a43b"/>
      <path id="Trazado_110199" data-name="Trazado 110199" d="M369.185,714.4l-1.464-.176c-.476-.058-.2-1.4-.2-1.4l1.869-15.495s.308-1.252,1.155-1.151c1.014.122.972,1.269.972,1.269l-1.876,15.555s-.048,1.445-.456,1.4" transform="translate(-5576.355 -7752.366)" fill="#9cc063"/>
      <path id="Trazado_110200" data-name="Trazado 110200" d="M368.921,721.153l2.567-21.28a3.716,3.716,0,0,0-.284-1.263c-.494,4.583-2.891,19.579-4,21.891-.711,1.478-3.772.762-5.2,1.119a1.074,1.074,0,0,0,1.011.8l4.754.573c1.327.16,1.157-1.844,1.157-1.844" transform="translate(-5572.95 -7753.886)" fill="#4b6d1d"/>
      <rect id="Rectángulo_13267" data-name="Rectángulo 13267" width="27.612" height="2.557" transform="translate(-5207.546 -7007.802) rotate(-72.82)" fill="#c5c5bd"/>
      <path id="Trazado_110201" data-name="Trazado 110201" d="M371.968,808.92l-.876-.221,3.086-9.983Z" transform="translate(-5578.638 -7816.5)" fill="#919187"/>
      <path id="Trazado_110202" data-name="Trazado 110202" d="M377.616,782.07l.987-4.792,5.088-17.579-1.648-.608,1.285-4.156,2.443.755Z" transform="translate(-5582.719 -7789.116)" fill="#919187"/>
      <path id="Trazado_110203" data-name="Trazado 110203" d="M374.625,815.167c-.134-.289-1.451-2.23-1.451-2.23l-1-.308s-2.183.859-2.457,1.022-.621,6.192-.621,6.192l2.545.786s3.116-5.173,2.982-5.462" transform="translate(-5577.392 -7825.202)" fill="#c5c5bd"/>
      <path id="Trazado_110204" data-name="Trazado 110204" d="M373.061,820.03a14.583,14.583,0,0,0-2.169-2.229c-.129.092-.439,5.023-.439,5.023l1.254.388s1.41-3.032,1.355-3.182" transform="translate(-5578.238 -7828.435)" fill="#e0e0dc"/>
      <path id="Trazado_110205" data-name="Trazado 110205" d="M391.068,721.014l-4.884-1.51c-1.59-.491-.657-2.17-.657-2.17l6.358-20.564s1.4-2.909,4.224-2.034a3.671,3.671,0,0,1,2.874,4.031L392.6,719.41s-.17,2.026-1.533,1.6" transform="translate(-5587.498 -7751.36)" fill="#ffdf2c"/>
      <path id="Trazado_110206" data-name="Trazado 110206" d="M396.008,715.381l-1.409-.435c-.458-.142.053-1.41.053-1.41l4.61-14.911s.527-1.177,1.342-.925c.976.3.729,1.422.729,1.422l-4.628,14.968s-.305,1.413-.7,1.291" transform="translate(-5593.223 -7753.295)" fill="#fff18a"/>
      <path id="Trazado_110207" data-name="Trazado 110207" d="M392.918,723.845l6.331-20.478a3.713,3.713,0,0,0-.054-1.294c-1.306,4.42-6.345,18.747-7.852,20.823-.964,1.327-3.847.076-5.319.171a1.074,1.074,0,0,0,.851.971l4.575,1.414c1.277.395,1.469-1.608,1.469-1.608" transform="translate(-5587.978 -7756.052)" fill="#e5a60b"/>
      <path id="Trazado_110208" data-name="Trazado 110208" d="M333.845,802.6c-3.889-6.731-1.414-18.385-.607-18.937s23.484-5.292,24.859-5.264c1.164.376,2.746,13.839-1.616,20.371-1.622,3.436-8.083,7.45-9.88,7.9s-11.132-1.709-12.755-4.074" transform="translate(-5554.01 -7803.792)" fill="#555863"/>
      <path id="Trazado_110209" data-name="Trazado 110209" d="M341.367,789.127c2.1-2.789,13.666-3.138,14.444-5.885-6.686,1.619-16.183,3.718-16.72,4.084-.739.5-1.265,13.2-.08,17.187.524-1.613.518-12.944,2.356-15.387" transform="translate(-5558.136 -7806.822)" fill="#6d727f"/>
      <path id="Trazado_110210" data-name="Trazado 110210" d="M390.028,132.491s8.4,4.594,14.7,20.867,6.3,36.354,5.512,38.454-9.974-17.062-9.974-17.062L386.353,138Z" transform="translate(-5588.184 -7399.792)" fill="#86541d"/>
      <path id="Trazado_110211" data-name="Trazado 110211" d="M56.76,104.457c-10.674,3.15-18.2,14.349-23.011,30.186-5.073,16.7-6.047,37.535-5.26,39.635s9.974-17.061,9.974-17.061l13.912-36.747s4.385-13.037,4.385-16.012" transform="translate(-5364.196 -7382.257)" fill="#86541d"/>
      <path id="Trazado_110212" data-name="Trazado 110212" d="M39.016,262.972s-1.564-18.367-11.291-15.689c-3.543.975-5.878,7.741-5.492,14.621.4,7.135,2.94,19.186,13.078,20.229Z" transform="translate(-5360.408 -7471.424)" fill="#d78c63"/>
      <path id="Trazado_110213" data-name="Trazado 110213" d="M415.9,262.972s1.564-18.367,11.291-15.689c3.543.975,5.878,7.741,5.492,14.621-.4,7.135-2.94,19.186-13.078,20.229Z" transform="translate(-5606.666 -7471.424)" fill="#d78c63"/>
      <path id="Trazado_110214" data-name="Trazado 110214" d="M192.638,179.947c-.6,21.3-17.4,43.115-70.926,43.115S45.46,201.248,44.867,179.947a40.5,40.5,0,0,1,.752-9.041c.061-.324.132-.647.2-.971l0,0,14.036-55.448S70.5,77.468,118.76,77.468c47,0,58.581,35.787,58.581,35.787l14.3,56.541.051.207a40.74,40.74,0,0,1,.942,9.944" transform="translate(-5374.582 -7365.376)" fill="#fdcfad"/>
      <path id="Trazado_110215" data-name="Trazado 110215" d="M191.87,329.546c-1.181,19.686-24.017,22.967-32.285,21.392-15.983-3.045-22.235-12.771-25.2-14.174-7.481-3.543-14.539,2.556-15.881,1.444-5.381-4.462-10.368-1.575-14.174,0-7.1,2.938-16.8,15.093-34.123,13.255-17.5-1.857-23.1-14.962-25.026-20.181a40.894,40.894,0,0,0-.314,6.334c.592,21.3,23.321,43.115,76.845,43.115s70.33-21.815,70.926-43.115c.028-1.012-.724-7.076-.769-8.071M147.091,364.02c-1.258,2.679-14.542,7.523-36.9,5.455-15.24-1.41-20.5-6.944-17.8-10.269,3.019-6.431,12.932-13.476,20.08-13.387,2.91.036,3.83,1.279,6.676,1.224,2.629-.051,4.143-2.318,7.76-1.486,13.124,3.018,23.492,11.418,20.185,18.462" transform="translate(-5374.583 -7523.045)" fill="#d78c63"/>
      <path id="Trazado_110216" data-name="Trazado 110216" d="M65.144,137.68c.933-1.134-.933-6.887,0-8.018,1.084-1.309,4.645,2.082,4.883.4.4-2.791-2.266-7.776-.557-10.194,1.239-1.752,5.438-4.178,7.286-5.237,4.517-2.589,26.594-7.293,31.422-7.742,14.863-1.38,28.2,1.275,42.667,5.815,3.2,1,16.1,2.779,17.9,5.342.886,1.258,4.894,12.4,5.465,13.662.248.548,3.882-3.344,3.871-2.96a25,25,0,0,1-.455,5.92c-.468,1.546,5.332,8.178,5.92,9.563,1.4,3.3,8.5,22.264,10.944,26.092-.023-.107-.043-.216-.066-.323l-.052-.207-14.3-56.542s-11.58-35.787-58.58-35.787c-48.258,0-58.906,37.024-58.906,37.024L49.217,167.3c7.278-20.1,14.439-27.81,15.927-29.619" transform="translate(-5377.313 -7365.376)" fill="#d78c63"/>
      <path id="Trazado_110217" data-name="Trazado 110217" d="M118.775,386.89c-41.981,0-69.091-16.242-73.881-35.793.593,21.3,23.322,43.115,76.845,43.115s70.328-21.817,70.924-43.115c-3.105,17.223-20.214,35.793-73.888,35.793" transform="translate(-5374.609 -7536.525)" fill="#d78c63"/>
      <path id="Trazado_110218" data-name="Trazado 110218" d="M64.56,316.347c-7.341-.941-12.518,1.316-13.357,4.36-.665,2.416.532,9.713,11,11.221,12.042,1.735,18.739-13.481,2.356-15.582" transform="translate(-5378.461 -7514.654)" fill="#f9b3a8"/>
      <path id="Trazado_110219" data-name="Trazado 110219" d="M74.524,323.116a.774.774,0,0,1-.9-.257.693.693,0,0,1,.157-1,34.042,34.042,0,0,1,4.11-2.314.772.772,0,0,1,1,.34.693.693,0,0,1-.321.958,33.218,33.218,0,0,0-3.909,2.2.709.709,0,0,1-.138.074" transform="translate(-5392.488 -7516.747)" fill="#c45c57"/>
      <path id="Trazado_110220" data-name="Trazado 110220" d="M85.378,326.76a.774.774,0,0,1-.912-.273.693.693,0,0,1,.187-.992,35.664,35.664,0,0,1,3.634-2,.769.769,0,0,1,1,.339.693.693,0,0,1-.323.958,34.881,34.881,0,0,0-3.467,1.9.762.762,0,0,1-.121.062" transform="translate(-5399.277 -7519.218)" fill="#c45c57"/>
      <path id="Trazado_110221" data-name="Trazado 110221" d="M390.235,315.934c-6.739.639-11.033,3.5-11.307,6.177-.218,2.124,2,7.917,11.641,7.142,11.081-.892,14.7-14.743-.334-13.318" transform="translate(-5583.53 -7514.467)" fill="#f9b3a8"/>
      <path id="Trazado_110222" data-name="Trazado 110222" d="M394.646,322.671a.741.741,0,0,1-.849-.038.558.558,0,0,1-.017-.854,33.16,33.16,0,0,1,3.324-2.7.731.731,0,0,1,.953.087.571.571,0,0,1-.137.853,32.273,32.273,0,0,0-3.162,2.567.7.7,0,0,1-.112.088" transform="translate(-5592.71 -7516.411)" fill="#c45c57"/>
      <path id="Trazado_110223" data-name="Trazado 110223" d="M404.885,323.733a.738.738,0,0,1-.862-.049.559.559,0,0,1,.012-.855,34.718,34.718,0,0,1,2.947-2.348.726.726,0,0,1,.952.087.571.571,0,0,1-.139.853,33.9,33.9,0,0,0-2.811,2.238.694.694,0,0,1-.1.075" transform="translate(-5599.115 -7517.289)" fill="#c45c57"/>
      <path id="Trazado_110224" data-name="Trazado 110224" d="M144.414,206.245c-10.524-5.591-29.178,1.183-27.614,4.39.528,1.082,9.135-1.942,19.462,1.963a62.419,62.419,0,0,1,11.059,5.987c2.169,1.419,2.348-9.549-2.907-12.341" transform="translate(-5419.527 -7444.585)" fill="#d78c63"/>
      <path id="Trazado_110225" data-name="Trazado 110225" d="M141.618,197.3c-6.308-3.44-14.19-2.674-19.392-1.258-3.436.935-8.408,6.633-8.28,7.11.322,1.2,10.33-1.924,20.664,1.983A55.8,55.8,0,0,1,145.07,210.8c2.17,1.42.408-11.393-3.452-13.5" transform="translate(-5417.798 -7438.794)" fill="#86541d"/>
      <path id="Trazado_110226" data-name="Trazado 110226" d="M133.187,203.3a.773.773,0,0,1-.318-.1,1.055,1.055,0,0,1-.383-1.337,13.957,13.957,0,0,1,3.349-4.344.8.8,0,0,1,1.222.2,1.107,1.107,0,0,1-.2,1.4,12.08,12.08,0,0,0-2.812,3.615.884.884,0,0,1-.86.564" transform="translate(-5429.336 -7440.339)" fill="#a06f35"/>
      <path id="Trazado_110227" data-name="Trazado 110227" d="M145.477,203.467a.773.773,0,0,1-.318-.1,1.056,1.056,0,0,1-.383-1.337,13.96,13.96,0,0,1,3.349-4.344.8.8,0,0,1,1.222.2,1.106,1.106,0,0,1-.2,1.4,12.081,12.081,0,0,0-2.812,3.615.884.884,0,0,1-.86.564" transform="translate(-5437.023 -7440.445)" fill="#a06f35"/>
      <path id="Trazado_110228" data-name="Trazado 110228" d="M159.164,203.746a.775.775,0,0,1-.318-.1,1.056,1.056,0,0,1-.383-1.337,13.956,13.956,0,0,1,3.349-4.344.8.8,0,0,1,1.222.2,1.107,1.107,0,0,1-.2,1.4,12.08,12.08,0,0,0-2.812,3.615.884.884,0,0,1-.86.564" transform="translate(-5445.584 -7440.62)" fill="#a06f35"/>
      <path id="Trazado_110229" data-name="Trazado 110229" d="M172.106,207.855a.834.834,0,0,1-.282-.19,1.1,1.1,0,0,1-.058-1.413,12.56,12.56,0,0,1,4.214-3.2.829.829,0,0,1,1.126.561,1.071,1.071,0,0,1-.514,1.3,10.866,10.866,0,0,0-3.531,2.658.817.817,0,0,1-.955.287" transform="translate(-5453.822 -7443.879)" fill="#a06f35"/>
      <path id="Trazado_110230" data-name="Trazado 110230" d="M288.184,208.52c10.524-5.59,29.178,1.184,27.614,4.39-.528,1.082-9.135-1.942-19.462,1.963a62.439,62.439,0,0,0-11.059,5.987c-2.169,1.419-2.348-9.548,2.907-12.34" transform="translate(-5524.07 -7446.008)" fill="#d78c63"/>
      <path id="Trazado_110231" data-name="Trazado 110231" d="M290.934,199.578c6.308-3.44,14.19-2.674,19.392-1.258,3.436.935,8.408,6.633,8.28,7.11-.322,1.2-10.33-1.924-20.664,1.983a55.8,55.8,0,0,0-10.461,5.664c-2.17,1.42-.408-11.393,3.452-13.5" transform="translate(-5525.754 -7440.218)" fill="#86541d"/>
      <path id="Trazado_110232" data-name="Trazado 110232" d="M344.852,205.574a.774.774,0,0,0,.318-.1,1.056,1.056,0,0,0,.383-1.337A13.961,13.961,0,0,0,342.2,199.8a.8.8,0,0,0-1.222.2,1.106,1.106,0,0,0,.2,1.4,12.082,12.082,0,0,1,2.812,3.615.884.884,0,0,0,.86.564" transform="translate(-5559.702 -7441.763)" fill="#a06f35"/>
      <path id="Trazado_110233" data-name="Trazado 110233" d="M332.562,205.742a.774.774,0,0,0,.318-.1,1.056,1.056,0,0,0,.383-1.337,13.961,13.961,0,0,0-3.349-4.344.8.8,0,0,0-1.222.2,1.106,1.106,0,0,0,.2,1.4,12.082,12.082,0,0,1,2.812,3.615.884.884,0,0,0,.86.564" transform="translate(-5552.015 -7441.868)" fill="#a06f35"/>
      <path id="Trazado_110234" data-name="Trazado 110234" d="M318.875,206.022a.773.773,0,0,0,.318-.1,1.056,1.056,0,0,0,.383-1.337,13.956,13.956,0,0,0-3.349-4.344.8.8,0,0,0-1.222.2,1.107,1.107,0,0,0,.2,1.4,12.079,12.079,0,0,1,2.812,3.615.884.884,0,0,0,.86.564" transform="translate(-5543.454 -7442.043)" fill="#a06f35"/>
      <path id="Trazado_110235" data-name="Trazado 110235" d="M304.608,210.13a.83.83,0,0,0,.282-.191,1.1,1.1,0,0,0,.058-1.413,12.559,12.559,0,0,0-4.214-3.2.829.829,0,0,0-1.127.561,1.071,1.071,0,0,0,.515,1.3,10.863,10.863,0,0,1,3.531,2.658.817.817,0,0,0,.955.287" transform="translate(-5533.892 -7445.303)" fill="#a06f35"/>
      <path id="Trazado_110236" data-name="Trazado 110236" d="M120.437,286.3c-8.5-1.8-9.022-13.266-6.414-23.863,2.445-9.935,7.863-19.568,16.546-20.521,9.758-1.071,15.038,9.841,15.192,22.282.153,12.326-5.775,26.237-25.324,22.1" transform="translate(-5416.982 -7468.191)" fill="#d78c63"/>
      <path id="Trazado_110237" data-name="Trazado 110237" d="M124.917,286.324c-7.783-1.648-8.256-12.159-5.861-21.865,2.245-9.093,7.207-17.9,15.15-18.776,8.927-.979,13.761,9,13.906,20.389.144,11.292-5.283,24.045-23.195,20.253" transform="translate(-5420.198 -7470.549)" fill="#fdfdfd"/>
      <path id="Trazado_110238" data-name="Trazado 110238" d="M138.271,269.506a38.829,38.829,0,0,1,10.114,9.226,26.76,26.76,0,0,0,2.7-12.66c-.145-11.388-4.979-21.368-13.906-20.389-7.393.811-12.2,8.5-14.644,16.9a50.461,50.461,0,0,1,15.735,6.926" transform="translate(-5423.172 -7470.549)" fill="#c5c5be"/>
      <path id="Trazado_110239" data-name="Trazado 110239" d="M147.958,300.67c-4.725-1.028-4.864-8.377-3.268-15.194,1.492-6.373,4.628-12.582,9.465-13.318,5.434-.827,8.25,6.033,8.2,13.968-.049,7.888-3.517,16.913-14.4,14.545" transform="translate(-5436.456 -7487.107)" fill="#654833"/>
      <path id="Trazado_110240" data-name="Trazado 110240" d="M156.538,304.769c-2.865-.624-2.95-5.081-1.982-9.215.905-3.865,2.807-7.632,5.741-8.078,3.3-.5,5,3.659,4.974,8.472-.03,4.784-2.133,10.257-8.733,8.822" transform="translate(-5442.853 -7496.705)" fill="#35291e"/>
      <path id="Trazado_110241" data-name="Trazado 110241" d="M153.288,275.592c-4.678.033-9.836,6.032-3.626,8.286s10.087-8.331,3.626-8.286" transform="translate(-5438.351 -7489.298)" fill="#fdfdfd"/>
      <path id="Trazado_110242" data-name="Trazado 110242" d="M119.581,263.112c-1.7-.5,1.06-8.249,3.356-12.145,2.556-4.34,6.4-8.587,11.9-9.19a10.981,10.981,0,0,1,9.983,4.522c1.967,2.531,3.206,7.129,2.615,7.323s-2.745-8.853-12.434-8c-10.693.944-15.31,17.519-15.417,17.489" transform="translate(-5420.994 -7468.106)" fill="#6b4017"/>
      <path id="Trazado_110243" data-name="Trazado 110243" d="M314.338,286.52c8.387-1.759,9.059-13.049,6.635-23.484-2.273-9.782-7.474-19.27-16.006-20.219-9.588-1.067-14.933,9.666-15.255,21.911-.319,12.135,5.326,25.839,24.626,21.792" transform="translate(-5527.729 -7468.752)" fill="#d78c63"/>
      <path id="Trazado_110244" data-name="Trazado 110244" d="M314.424,286.423c7.8-1.638,8.423-12.149,6.162-21.858-2.118-9.1-6.958-17.915-14.889-18.8-8.912-.991-13.884,8.983-14.186,20.371-.3,11.291,4.952,24.053,22.913,20.284" transform="translate(-5528.855 -7470.602)" fill="#fdfdfd"/>
      <path id="Trazado_110245" data-name="Trazado 110245" d="M304.277,269.591a39.548,39.548,0,0,0-10.241,9.214,26.573,26.573,0,0,1-2.525-12.664c.3-11.388,5.273-21.363,14.186-20.371,7.381.821,12.085,8.519,14.409,16.917a51.153,51.153,0,0,0-15.828,6.905" transform="translate(-5528.855 -7470.602)" fill="#c5c5be"/>
      <path id="Trazado_110246" data-name="Trazado 110246" d="M323.012,263.112c1.709-.5-.964-8.249-3.214-12.145-2.506-4.34-6.3-8.587-11.789-9.19a11.113,11.113,0,0,0-10.036,4.522c-2,2.531-3.289,7.129-2.7,7.323s2.849-8.853,12.527-8c10.682.944,15.105,17.519,15.213,17.489" transform="translate(-5531.125 -7468.106)" fill="#6b4017"/>
      <path id="Trazado_110247" data-name="Trazado 110247" d="M310.971,300.754c4.738-1.022,4.979-8.371,3.477-15.191-1.4-6.375-4.454-12.589-9.28-13.332-5.423-.834-8.333,6.023-8.393,13.958-.06,7.888,3.283,16.918,14.2,14.564" transform="translate(-5532.154 -7487.153)" fill="#654833"/>
      <path id="Trazado_110248" data-name="Trazado 110248" d="M314.78,305.008c2.805-.6,2.947-4.956,2.058-8.993-.831-3.774-2.637-7.453-5.494-7.893-3.21-.494-4.934,3.566-4.969,8.263-.036,4.67,1.944,10.016,8.4,8.623" transform="translate(-5538.159 -7497.11)" fill="#35291e"/>
      <path id="Trazado_110249" data-name="Trazado 110249" d="M301.717,276.179c-4.684.576-9.924,7.173-3.741,8.707s10.212-9.5,3.741-8.707" transform="translate(-5531.142 -7489.64)" fill="#fdfdfd"/>
      <path id="Trazado_110250" data-name="Trazado 110250" d="M233.368,338.191c0-1.162.82-4.508,2.964-3.987s3.789,3.294,2.8,4.16-5.763.692-5.764-.173" transform="translate(-5492.495 -7525.924)" fill="#d78c63"/>
      <path id="Trazado_110251" data-name="Trazado 110251" d="M205.07,378.858c1.551-1.043,27.77-1.419,29.1-.5s-1.44,18.538-13.358,18.659-17.289-17.113-15.74-18.156" transform="translate(-5474.633 -7553.25)" fill="#fd5f54"/>
      <path id="Trazado_110252" data-name="Trazado 110252" d="M205.072,378.858c1.551-1.043,27.77-1.419,29.1-.5.448.309.427,2.541-.259,5.36-8.621-6.934-23.066-5.505-28.035.5-1.056-2.777-1.329-5-.8-5.354" transform="translate(-5474.634 -7553.25)" fill="#902422"/>
      <path id="Trazado_110253" data-name="Trazado 110253" d="M187.284,326.895c1.768,16.982-20.833,24.995-25.726,25.25-7.548.394-22.05-7.53-26.773-11.9a18.874,18.874,0,0,0-10.574-4.71c-4.119-.538-8.917.467-10.1,2.173-1.181-1.706-6.025-2.7-10.1-2.186a18.914,18.914,0,0,0-10.68,4.724c-4.723,4.369-18.33,12.424-26.773,11.9-4.89-.3-26.9-8.3-25.9-25.286,0,0-5.776,12.723-2.406,21.523,3.15,8.225,15.749,34.648,75.8,35.829,34.039.669,69.481-12.6,76.174-34.648,2.737-9.017-2.949-22.669-2.949-22.669m-41.3,33.825c-1.074,5.235-9.954,9.974-30.6,9.974s-32.174-4.74-33.248-9.974c-1.178-5.744,13.385-17.931,25.33-18.725,2.121-.141,5.535.937,6.6.937s4.794-1.109,7.094-.9c11.847,1.092,25.993,13.021,24.831,18.686" transform="translate(-5369.796 -7521.364)" fill="#aa7e41"/>
      <path id="Trazado_110254" data-name="Trazado 110254" d="M206.295,370.727c-4.462-3.412-10.631-11.024-17.718-11.156-3.913-.073-8.681,2.906-8.793,2.756-1.181.263-1.968-2.494-5.034-2.772-6.323-.575-9.271,3.91-16.27,7.759-2.515,1.383-14.646,5.6-15.4,12.424-.854,7.736,9.8,11.724,37.492,11.856,5.679.027,29.267.263,32.942-5.643,3.507-5.636-5.072-13.583-7.218-15.224m5.885,10.412c-1.074,5.235-9.954,9.974-30.6,9.974s-32.174-4.74-33.248-9.974c-1.178-5.744,13.385-17.931,25.33-18.725,2.121-.141,5.535.937,6.6.937s4.794-1.109,7.094-.9c11.847,1.092,25.993,13.021,24.831,18.686" transform="translate(-5435.993 -7541.784)" fill="#915f1a"/>
      <path id="Trazado_110255" data-name="Trazado 110255" d="M187.284,326.895c.974,9.363-5.459,16-12.248,20.112.508,3.356-.158,13.013-10.539,18.746-4.232,2.337-24.269,17.376-63.64,12.641C74,375.164,62.83,369.178,56.5,364.482c-5.081-3.768-14.174-10.762-12.56-26.033a18.343,18.343,0,0,1-3.277-11.59s-5.777,12.723-2.406,21.523c3.15,8.225,15.749,34.648,75.8,35.829,34.039.67,69.481-12.6,76.174-34.648,2.737-9.017-2.949-22.669-2.949-22.669" transform="translate(-5369.796 -7521.364)" fill="#915f1a"/>
      <path id="Trazado_110256" data-name="Trazado 110256" d="M433.248,382.087a.875.875,0,0,1-.812-1.2c2.287-5.717-1.359-14.649-1.4-14.739a.875.875,0,0,1,1.616-.671c.163.392,3.957,9.677,1.4,16.06a.875.875,0,0,1-.813.55" transform="translate(-5616.093 -7545.182)" fill="#86541d"/>
      <path id="Trazado_110257" data-name="Trazado 110257" d="M416.664,402.176a.875.875,0,0,1-.715-1.378c3.166-4.505,1.108-14.656.565-15.959a.875.875,0,1,1,1.615-.673c.643,1.544,2.934,12.4-.748,17.639a.874.874,0,0,1-.716.372" transform="translate(-5606.596 -7556.871)" fill="#86541d"/>
      <path id="Trazado_110258" data-name="Trazado 110258" d="M405.012,417.47a.874.874,0,0,1-.8-1.237c1.086-2.389.215-8.725-.315-10.844a.875.875,0,1,1,1.7-.424c.33,1.322,1.7,8.723.21,11.992a.875.875,0,0,1-.8.513" transform="translate(-5599.144 -7569.803)" fill="#86541d"/>
      <path id="Trazado_110259" data-name="Trazado 110259" d="M380.571,424.341a.875.875,0,0,1-.606-1.507c2.749-2.635,2.251-13.062,1.473-15.653a.875.875,0,0,1,1.676-.5c.776,2.588,1.6,14.028-1.939,17.42a.873.873,0,0,1-.605.243" transform="translate(-5584.02 -7570.9)" fill="#86541d"/>
      <path id="Trazado_110260" data-name="Trazado 110260" d="M123.4,435.775a.875.875,0,0,1-.705-.356c-2.089-2.835-1.6-12.574-.152-16.2a.875.875,0,0,1,1.625.65c-1.37,3.426-1.634,12.381-.064,14.511a.875.875,0,0,1-.7,1.394" transform="translate(-5422.392 -7578.79)" fill="#86541d"/>
      <path id="Trazado_110261" data-name="Trazado 110261" d="M99.455,422.165a.874.874,0,0,1-.747-.418c-2.718-4.434-.369-14.5,1.815-18.506a.875.875,0,0,1,1.536.838c-2.006,3.677-4.123,13.061-1.86,16.753a.875.875,0,0,1-.745,1.333" transform="translate(-5407.503 -7568.854)" fill="#86541d"/>
      <path id="Trazado_110262" data-name="Trazado 110262" d="M70.651,407.173a.874.874,0,0,1-.783-.484c-2.488-4.977.347-14.667.469-15.077a.875.875,0,0,1,1.677.5c-.028.094-2.761,9.437-.581,13.8a.875.875,0,0,1-.782,1.266" transform="translate(-5389.592 -7561.475)" fill="#86541d"/>
      <path id="Trazado_110263" data-name="Trazado 110263" d="M52.129,389.257a.875.875,0,0,1-.8-.527c-3.126-7.2-.016-15.411.118-15.757a.875.875,0,0,1,1.632.631c-.03.078-2.98,7.9-.145,14.429a.875.875,0,0,1-.8,1.223" transform="translate(-5377.764 -7549.858)" fill="#86541d"/>
      <path id="Trazado_110264" data-name="Trazado 110264" d="M371.108,429.129a.875.875,0,0,1-.746-1.331c1.073-1.756,1.219-5.269,1.184-6.474a.875.875,0,0,1,.85-.9.889.889,0,0,1,.9.849c.006.2.121,4.883-1.44,7.437a.875.875,0,0,1-.748.419" transform="translate(-5578.102 -7579.887)" fill="#86541d"/>
      <path id="Trazado_110265" data-name="Trazado 110265" d="M344.827,445.811a.875.875,0,0,1-.5-1.592c4.741-3.319,3.714-11.158,3.7-11.236a.875.875,0,0,1,1.733-.243c.051.365,1.191,8.976-4.433,12.913a.87.87,0,0,1-.5.158" transform="translate(-5561.663 -7587.12)" fill="#86541d"/>
      <path id="Trazado_110266" data-name="Trazado 110266" d="M89.329,427.241a.874.874,0,0,1-.751-.425c-1.724-2.873.211-9.571.437-10.326a.875.875,0,0,1,1.676.5c-.768,2.565-1.613,7.255-.613,8.923a.875.875,0,0,1-.749,1.325" transform="translate(-5401.489 -7577.037)" fill="#86541d"/>
      <path id="Trazado_110267" data-name="Trazado 110267" d="M202.11,465.031a.874.874,0,0,1-.7-.35c-1.737-2.315-1.119-7.724-1.043-8.333a.875.875,0,0,1,1.736.217c-.182,1.461-.409,5.579.707,7.066a.875.875,0,0,1-.7,1.4" transform="translate(-5471.748 -7601.877)" fill="#86541d"/>
      <path id="Trazado_110268" data-name="Trazado 110268" d="M174.176,461.41a.874.874,0,0,1-.709-.36c-1.551-2.132-1.1-7.359-1.038-7.948a.875.875,0,0,1,1.742.169c-.19,1.971-.164,5.547.712,6.751a.875.875,0,0,1-.707,1.389" transform="translate(-5454.313 -7599.832)" fill="#86541d"/>
      <path id="Trazado_110269" data-name="Trazado 110269" d="M188.828,469.474a.876.876,0,0,1-.856-.7l-.875-4.2a.875.875,0,0,1,1.713-.357l.875,4.2a.876.876,0,0,1-.857,1.054" transform="translate(-5463.542 -7606.846)" fill="#86541d"/>
      <path id="Trazado_110270" data-name="Trazado 110270" d="M267.383,467.367a.876.876,0,0,1-.8-1.23c.416-.935.21-4.8-.07-7.245a.875.875,0,1,1,1.738-.2c.121,1.062.689,6.448-.07,8.154a.875.875,0,0,1-.8.52" transform="translate(-5513.224 -7603.338)" fill="#86541d"/>
      <path id="Trazado_110271" data-name="Trazado 110271" d="M284.67,467.895a.875.875,0,0,1-.8-1.237c.636-1.4.415-5.072.276-6.37a.875.875,0,0,1,1.74-.186c.056.526.523,5.2-.424,7.28a.875.875,0,0,1-.8.513" transform="translate(-5524.037 -7604.216)" fill="#86541d"/>
      <path id="Trazado_110272" data-name="Trazado 110272" d="M322.05,461.588a.875.875,0,0,1-.548-1.558c2.2-1.76,1.783-5.3,1.779-5.331a.875.875,0,0,1,1.736-.224c.024.184.554,4.541-2.421,6.921a.871.871,0,0,1-.546.192" transform="translate(-5547.416 -7600.709)" fill="#86541d"/>
      <path id="Trazado_110273" data-name="Trazado 110273" d="M307.1,458.429a.875.875,0,0,1-.638-1.473c1.88-2.006.994-7.284.493-9.149a.875.875,0,1,1,1.69-.454c.083.312,2.017,7.681-.907,10.8a.874.874,0,0,1-.639.276" transform="translate(-5538.064 -7596.325)" fill="#86541d"/>
      <path id="Trazado_110274" data-name="Trazado 110274" d="M114.191,60.241S93.215,53.861,72.751,78.1c-20.108,23.817-12.834,58.244-12.834,58.244s2.108-12.915,7.8-22.744c1.05,1.225,4.725,4.374,4.725,4.374a20.9,20.9,0,0,1,.787-10.149c8.73-9.268,25.725-10.948,38.06-14.437,0,0,.312-9.9.944-14.919Z" transform="translate(-5383.204 -7354.126)" fill="#a06f35"/>
      <path id="Trazado_110275" data-name="Trazado 110275" d="M89.206,78.1a53.187,53.187,0,0,0-4.262,5.811c.3,4.472,5.966,13.883,16.347,16.589,8.415-3.333,18.422-4.839,26.455-7.111,0,0,.311-9.9.944-14.919l1.956-18.227S109.671,53.86,89.206,78.1" transform="translate(-5399.659 -7354.126)" fill="#86541d"/>
      <path id="Trazado_110276" data-name="Trazado 110276" d="M60.368,133.425c-3.5,1.575-11.02,16.873-12.905,34.692-2.174,9.739-4.028,22.251-.788,34.516,0,0,3.019-21.086,15.133-34.517-7.04-10.717-1.44-34.691-1.44-34.691" transform="translate(-5374.628 -7400.376)" fill="#a06f35"/>
      <path id="Trazado_110277" data-name="Trazado 110277" d="M70.54,172.636c-1.144-2.987-.314-7.155.06-6.591.462.7.122,1.751,1.423,5.756,1.316,4.048,4.573,7.277,3.929,7.069-2.613-.845-4.7-4.382-5.412-6.234m1.285-5.366h0Z" transform="translate(-5390.286 -7420.747)" fill="#aa7e41"/>
      <path id="Trazado_110278" data-name="Trazado 110278" d="M51.114,243.3c-.891-2.586-.106-5.943.568-5.883s.292,1.471,1.323,5.32c.759,2.834,2.943,4.77,2.479,5.262-.241.255-3.239-1.417-4.37-4.7" transform="translate(-5378.25 -7465.417)" fill="#aa7e41"/>
      <path id="Trazado_110279" data-name="Trazado 110279" d="M81.536,147.023c-7.489-2.227-12.185-12.991-10.384-19.395a1.226,1.226,0,0,1,1.511-.848c.651.183,2.868-2.069,2.7-1.414a21.682,21.682,0,0,0,6.173,21.656" transform="translate(-5390.792 -7395.261)" fill="#86541d"/>
      <path id="Trazado_110280" data-name="Trazado 110280" d="M64.029,180.217c-.3,0-13.1-5.283-11.075-20.362.218-1.625,2.415-3.835,2.548-4.3a53.51,53.51,0,0,1,3.019-6.024c-5.364,22.264,5.841,30.684,5.508,30.684" transform="translate(-5379.515 -7410.42)" fill="#86541d"/>
      <path id="Trazado_110281" data-name="Trazado 110281" d="M50.185,201.315c.111-.667,1.763-4.656,1.664-4-.531,15.458,7.181,19.2,6.527,19.025-6.831-1.821-8.438-13.546-8.191-15.029" transform="translate(-5377.904 -7440.294)" fill="#86541d"/>
      <path id="Trazado_110282" data-name="Trazado 110282" d="M352.72,132.092c-5.119-4.375-28.348-3.412-29.162,9.872,1.555.168,5.352-1.436,7.682-2.435a20.066,20.066,0,0,0-2.275,4.375s7.519,2.356,9.975,3.412c3.689,1.587,7.349,13.387,7.481,14.7,2.231-.657,4.856-3.675,4.856-3.675l3.311,11.131s6.191,5.473,11.862,5.623c0,0-1-23.053-13.729-43" transform="translate(-5548.907 -7398.08)" fill="#a06f35"/>
      <path id="Trazado_110283" data-name="Trazado 110283" d="M398.755,173.14s5.968,9.791,8,15.307a64.088,64.088,0,0,1,1.8,38.668s-4.964-21.808-15.594-34.158a26.418,26.418,0,0,0,1.725-11.155c.656-2.1,4.068-8.662,4.068-8.662" transform="translate(-5592.317 -7425.217)" fill="#a06f35"/>
      <path id="Trazado_110284" data-name="Trazado 110284" d="M385.008,175.944a1.225,1.225,0,0,1-.115-2.445c2.857-.275,10.73-3.359,12.476-8.672.211-.643,2.151,3.134,1.91,3.766-2.344,6.153-13.672,7.3-14.152,7.345-.04,0-.079.006-.118.006" transform="translate(-5586.578 -7419.971)" fill="#86541d"/>
      <path id="Trazado_110285" data-name="Trazado 110285" d="M368.277,155.219c-.583-.343,12.776.726,15.433-8.305,0,0,1.894,2.018,1.67,2.656-2.429,6.907-15.484,6.6-17.1,5.649" transform="translate(-5576.866 -7408.813)" fill="#86541d"/>
      <path id="Trazado_110286" data-name="Trazado 110286" d="M349.636,149.179c-.683-.322,14.925.266,17.962-8.848,0,0,2.227,1.947,1.969,2.592-2.786,6.983-18.033,7.149-19.931,6.255" transform="translate(-5565.205 -7404.695)" fill="#aa7e41"/>
      <path id="Trazado_110287" data-name="Trazado 110287" d="M406.735,199.818a1.225,1.225,0,0,1-.5-2.344c1.793-.8,6.528-3.6,6.893-6.891a1.225,1.225,0,1,1,2.435.271c-.6,5.361-8.016,8.718-8.332,8.858a1.218,1.218,0,0,1-.5.106" transform="translate(-5600.166 -7435.446)" fill="#86541d"/>
      <path id="Trazado_110288" data-name="Trazado 110288" d="M416.18,229.942c-.364-.57,6.451-4.377,6.234-15.467a1.189,1.189,0,0,1,1.295-1.151c.675.04,1.088,11.488,1.073,12.165,1.316,9.411-.17,23.687-1.416,24.389-1.113-10.019-7.029-19.692-7.185-19.936" transform="translate(-5606.831 -7450.349)" fill="#86541d"/>
      <path id="Trazado_110289" data-name="Trazado 110289" d="M179.411,82.925c1.016,1.367,2.182,2.784,3.49,4.233A130.25,130.25,0,0,1,227.8,91.389c1.382.375,5.458-1.349,7.908-2.4a20.04,20.04,0,0,0-2.275,4.374s4.24-5.556,10.063-7.723c5.316-1.977,11.723-5.226,15.223-2.6-1.837-6.3-7.9-10.964-11.932-14.61C225.524,49.189,188.087,42,176.5,57.022c-10.513,8.194-4.607,19.657,2.907,25.9" transform="translate(-5453.371 -7347.542)" fill="#aa7e41"/>
      <path id="Trazado_110290" data-name="Trazado 110290" d="M300.768,130.4c-.326,0-3.245-4.033-1.7-7.89,1.458-3.637,6.35-6.527,11.61-5.909,2.241.264,19.443,3.3,21.543-1.163,1.706.919,4.462,5.512,4.462,5.512-5.069,1.575-13,1.009-18.922-.5a68.721,68.721,0,0,0-7.438-1.825c-4.1-.481-8.318,1.662-9.816,4.25-2.226,3.846.561,7.525.26,7.525" transform="translate(-5533.31 -7389.125)" fill="#915f1a"/>
      <path id="Trazado_110291" data-name="Trazado 110291" d="M278.31,140.837c-2.58-3.188,1.479-8.425,1.24-7.792-1.645,4.352,1.221,7.917.607,8.2a1.94,1.94,0,0,1-1.847-.4" transform="translate(-5520.066 -7400.105)" fill="#915f1a"/>
      <path id="Trazado_110292" data-name="Trazado 110292" d="M260.371,133.966a13.941,13.941,0,0,0,3.746-9.435c1.265,4.25-1.214,10.12-1.214,10.12-.154.538-3.272.11-2.531-.685" transform="translate(-5509.314 -7394.779)" fill="#915f1a"/>
      <path id="Trazado_110293" data-name="Trazado 110293" d="M285.288,103c1.063-7.666,8.784-12.2,13.268-13.85,6.135-2.259,12.841-1.178,15.442.58.56.379-4.419-1.515-13.454.823C289.47,93.421,285.265,103.172,285.288,103" transform="translate(-5524.97 -7371.885)" fill="#915f1a"/>
      <path id="Trazado_110294" data-name="Trazado 110294" d="M325.144,142.978c.506-2.176,2.86-5.459,8.653-6.73,2.729-.6,9.867-1.113,11.377.652.44.514-5.708-.545-10.922.916-6.679,1.872-9.132,5.263-9.108,5.161" transform="translate(-5549.899 -7401.791)" fill="#915f1a"/>
      <path id="Trazado_110295" data-name="Trazado 110295" d="M269.221,65.106c1.931-3.505,6.9-2.223,6.265-1.991-.843.308-2.968-.375-4.486,2.205-1.8,3.052.288,4.517-.361,4.325-2.3-.682-1.84-3.773-1.419-4.538" transform="translate(-5514.706 -7356.136)" fill="#c7985e"/>
      <path id="Trazado_110296" data-name="Trazado 110296" d="M302.107,83.478a9.58,9.58,0,0,1,6.375-5.161c3.947-.759,6.682,1.116,6.011,1.2-1.229.161-2.443.161-5.252.693-3.359.636-7.21,4.1-7.134,3.264" transform="translate(-5535.489 -7365.794)" fill="#c7985e"/>
      <path id="Trazado_110297" data-name="Trazado 110297" d="M81.14,51.977c11.024-13.912,33.488-6.937,38.78-6.42,4.646.454,9.488.078,13.367.471,16.536,4.725,27.3,37.535-2.362,37.01C105.463,85.4,93.389,85.4,84.087,74.621,79.3,72.714,73.5,63.405,81.14,51.977" transform="translate(-5394.963 -7344.039)" fill="#aa7e41"/>
      <path id="Trazado_110298" data-name="Trazado 110298" d="M91.879,47.407c7.29-3.4,16.581-2.745,21.569-2.774C107.7,44,102.628,42.95,95.017,44.175c-6.037,1.4-12.424,6.264-14.2,11.719a8.6,8.6,0,0,0,1.573,8.589c-.078-.124-4.6-10.5,9.493-17.076" transform="translate(-5396.766 -7344.198)" fill="#c7985e"/>
      <path id="Trazado_110299" data-name="Trazado 110299" d="M139.421,126.427a1.226,1.226,0,0,1-1.2-1c-.512-2.8-5.161-5.526-11.3-6.632-2.261-.407-4.725-.687-7.108-.957-7.266-.824-15.854-3.18-18.484-8.013-.324-.595,4.225,5.213,18.8,6.352,2.43.19,18.671-.455,20.51,8.809a1.228,1.228,0,0,1-1.206,1.446" transform="translate(-5409.893 -7385.585)" fill="#915f1a"/>
      <path id="Trazado_110300" data-name="Trazado 110300" d="M155.69,88.936a1.323,1.323,0,0,1-.491-.094,1.179,1.179,0,0,1-.676-1.571c1.335-3.023-2.338-7.463-8.5-10.292-2.494-1.144-5.235-2.151-8.126-3.212-8.505-3.123-17.185-6.311-19.041-13.265-.973-3.646.37-5.852,1.673-7.066,5.886-5.484,21.056-1.886,23.406.4.486.472-16-5.638-21.775,1.35a4.764,4.764,0,0,0-.983,4.686c1.54,5.785,9.658,8.75,17.606,11.653,2.816,1.028,5.74,2.1,8.331,3.28,7.654,3.5,11.687,9.033,9.747,13.4a1.271,1.271,0,0,1-1.168.736" transform="translate(-5420.661 -7348.537)" fill="#915f1a"/>
      <path id="Trazado_110301" data-name="Trazado 110301" d="M188.248,98.677a1.225,1.225,0,0,1-.577-2.306,2.575,2.575,0,0,0,1.006-2.4c-.033-1.079.048-4.556-6.859-9.035-5.14-3.333-16.97-6.642-18.853-9.776-1.437-2.393-1-4.753.546-6.923,2.216-3.111,8.933-1.49,8.846-.819s-4.885-1.381-6.905,2.314a5.5,5.5,0,0,0-.219,4.5c1.006,2.47,5.772,4.58,12.369,7.5,1.539.681,3.129,1.385,4.854,2.171,7.653,3.488,8.612,8.145,8.67,9.986a4.915,4.915,0,0,1-2.3,4.633,1.217,1.217,0,0,1-.575.145" transform="translate(-5447.912 -7358.453)" fill="#915f1a"/>
      <path id="Trazado_110302" data-name="Trazado 110302" d="M234.194,85.223a1.259,1.259,0,0,1-.13-.007c-.673-.071.365-3.832-2.834-7.387-2.733-3.036-9.715-2.935-14.2-7.157a6.232,6.232,0,0,1-1.48-6.8c1.811-4.668,9.292-4.82,9.357-4.146s-5.826.49-7.059,5a4.274,4.274,0,0,0,.948,4.249c1.3,1.349,3.667,2.307,6.177,3.322A27.878,27.878,0,0,1,232.121,76a8.266,8.266,0,0,1,2.073,9.22" transform="translate(-5481.083 -7354.098)" fill="#915f1a"/>
      <path id="Trazado_110303" data-name="Trazado 110303" d="M97.535,66.814c1-4.757,7.763-6.834,7.3-6.464-1.312,1.05-4.8,2.517-4.754,6.475.089,8.235,7.334,9.872,9.578,10.412.505.122-14.137-.863-12.125-10.424" transform="translate(-5407.416 -7354.643)" fill="#c7985e"/>
      <path id="Trazado_110304" data-name="Trazado 110304" d="M124.759,139.989c-3.179-.737-7.375-3.371-6.847-3.793.471-.376,7.656,2.983,19.832,3.98.674.055-6,1.433-12.986-.187m-5.126-3.6v0" transform="translate(-5420.252 -7402.091)" fill="#c7985e"/>
      <path id="Trazado_110305" data-name="Trazado 110305" d="M198.9,61.408c-1.822-1.138-1.425-5.208-.237-6.419,1.963-2,5.851-2.016,5.3-1.621-.989.711-2.73.566-4.208,3.167-1.691,2.976-.185,4.792-.857,4.873" transform="translate(-5470.156 -7350.176)" fill="#c7985e"/>
      <path id="Trazado_110306" data-name="Trazado 110306" d="M214.009,57.024c.586-4.644,7.19-6.389,9.469-4.923a20.066,20.066,0,0,0-9.469,4.923" transform="translate(-5480.386 -7349.193)" fill="#c7985e"/>
      <path id="Trazado_110307" data-name="Trazado 110307" d="M247.661,65.512c-.663-2.43-.792-5.021,1.033-6.827,3.67-3.632,8.639-2.106,8.528-1.438s-3.947-1.055-6.6,2.36c-1.016,1.306-.881,3.389-.688,4.983.537,4.428,9.189,7.692,7.216,14.523.076-6.072-8.2-8.88-9.485-13.6" transform="translate(-5501.154 -7352.169)" fill="#c7985e"/>
      <path id="Trazado_110308" data-name="Trazado 110308" d="M234.832,121.754a6.436,6.436,0,0,0,1.3-6.658c-2.649-8.745-7.295-8.449-7.089-9.093s7.324.424,9.489,8.6c.476,1.8,1.145,5.325-1.481,7.685-.716.643-3.266.536-2.216-.536" transform="translate(-5489.785 -7383.126)" fill="#c7985e"/>
      <path id="Trazado_110309" data-name="Trazado 110309" d="M185.846,151.832c3.351,14.315-2.26,26.317-7.152,29.184-11.5,6.745-32.982,6.9-65.958,6.82-29.591-.07-49.477-.378-59.9-6.75-10.712-6.546-17.165-23.472-16.364-29.847a9.727,9.727,0,0,1,3.489-5.792l137.706-.738c3.742.518,7.641,4.8,8.184,7.122" transform="translate(-5369.296 -7407.434)" fill="#12263f"/>
      <path id="Trazado_110310" data-name="Trazado 110310" d="M185.988,144.9c3.346,14.277-2.258,26.246-7.144,29.106-11.49,6.726-32.938,6.878-65.87,6.8-29.551-.07-49.41-.379-59.824-6.734-10.7-6.528-17.143-23.41-16.344-29.768a9.7,9.7,0,0,1,3.485-5.776l137.524-.732c3.737.516,7.631,4.792,8.173,7.1" transform="translate(-5369.509 -7403.11)" fill="#0155a0"/>
      <path id="Trazado_110311" data-name="Trazado 110311" d="M70.5,208.336c-11.785-2.931-18.474-6.684-25.3-17.947,2.819,6.344,7.4,13.015,13.24,16.579,10.414,6.355,30.273,6.663,59.824,6.733,17.944.043,32.472.015,43.855-1.109-31.057.051-72.709.448-91.621-4.256" transform="translate(-5374.804 -7436.005)" fill="#01a0f2"/>
      <path id="Trazado_110312" data-name="Trazado 110312" d="M149.07,139.3l-107.136.764s-2.6,5.184.5,13.258c1.863,4.866,8.027,9.4,10.7,10.927,8.79,5.026,33.466,6.491,45.354,6.117,3.759-.118,22.817,1.063,35.1-.3,9.173-10.912,6.871-19.483,15.5-30.766" transform="translate(-5372.12 -7404.05)" fill="#12263f"/>
      <path id="Trazado_110313" data-name="Trazado 110313" d="M188.218,132.274c-.646,26.209-33.549,26.664-74.1,25.663s-73.39-3.076-72.743-29.285a30.764,30.764,0,0,1,.681-5.733c3.177-6.168,35.408-1.125,72.931-.2,35.876.885,66.25-7.529,72.167,1.089a28.5,28.5,0,0,1,1.063,8.465" transform="translate(-5372.403 -7391.91)" fill="#0155a0"/>
      <path id="Trazado_110314" data-name="Trazado 110314" d="M269.216,126.575c-5.917-8.619-67.372,10.15-67.372,10.15l-28.509,16.666s-.693,5.258-.77,6.37c7.407.489,15.351.737,23.616.941,40.549,1,73.452.546,74.1-25.663a28.5,28.5,0,0,0-1.063-8.465" transform="translate(-5454.464 -7394.675)" fill="#12263f"/>
      <path id="Trazado_110315" data-name="Trazado 110315" d="M115.42,151.444c-21.713-.726-44.47-.93-57.639-8.169C46.364,137,43.01,123.786,43.2,122.92c3.177-6.168,35.408-1.125,72.932-.2,35.876.885,66.25-7.53,72.166,1.089.355,1.318-1.942,14.277-13.491,20.6-15.283,8.371-30.9,7.985-59.384,7.033" transform="translate(-5373.543 -7391.91)" fill="#01a0f2"/>
      <path id="Trazado_110316" data-name="Trazado 110316" d="M270.19,123.809c-3.464-5.047-15.313-4.254-31.742-2.907l-64.326,29.616c7.541.472,15.433.666,23.193.925,28.486.952,44.1,1.337,59.385-7.033,11.548-6.325,13.846-19.283,13.49-20.6" transform="translate(-5455.438 -7391.91)" fill="#9fdeff"/>
      <path id="Trazado_110317" data-name="Trazado 110317" d="M193.751,54.436C193.1,80.645,163.7,78.687,127.385,77.791s-65.78-.39-65.134-26.6S92.858,4.463,129.171,5.359s65.226,22.868,64.58,49.077" transform="translate(-5385.458 -7320.256)" fill="#01a0f2"/>
      <path id="Trazado_110318" data-name="Trazado 110318" d="M75.769,39.339c3.809-4.4,10.94-10.1,16.942-14.1C77.3,32.437,66.415,44.257,63.83,58.121A89.136,89.136,0,0,1,75.769,39.339" transform="translate(-5386.453 -7332.71)" fill="#9fdeff"/>
      <path id="Trazado_110319" data-name="Trazado 110319" d="M177.55,57.628a94.556,94.556,0,0,0,15.379-40.092s-13.482-11.37-14.9-11.061c-.347.03-.579,1.266-1.117,2.222,0,0,1.316,12.393.706,37.12.3,2.3-.222,9.484-.073,11.811" transform="translate(-5457.187 -7320.968)" fill="#12263f"/>
      <path id="Trazado_110320" data-name="Trazado 110320" d="M241.064,5.42a101.11,101.11,0,0,0,.258,15.5,123.6,123.6,0,0,0,11.606,42.062,129.717,129.717,0,0,0,7.907,14.958l.22.34c25.542.027,43.92-3.131,44.43-23.789C306.13,28.321,277.3,6.376,241.064,5.42" transform="translate(-5497.192 -7320.312)" fill="#12263f"/>
      <path id="Trazado_110321" data-name="Trazado 110321" d="M336.5,39.393a208.035,208.035,0,0,1,18.588,14.484c-4.087-13.551-16.149-25.082-32.5-31.794,3.44,6.665,7.69,12.9,13.912,17.31" transform="translate(-5548.298 -7330.734)" fill="#01a0f2"/>
      <path id="Trazado_110322" data-name="Trazado 110322" d="M191.977,45.334c-2.491,23.181-26.09,15.961-33.258,5.178-2.389-3.594-2.633-39.3-8.749-46.951a3.3,3.3,0,0,1-.253-.366,90.162,90.162,0,0,0-44.547-.781c1.892,12.1.179,46.29-2.171,49.472C95.509,62.03,68.181,67.68,61.2,46.833c-1.487.32-.2,4.182-.006,6.024,2.322,22,32.007,21.03,65.092,21.846,36.313.9,67.637,2.918,66.422-25.6-.082-1.922.218-5.118-.681-5.723,0,0,.029,1.235-.048,1.957" transform="translate(-5384.365 -7316.918)" fill="#0155a0"/>
      <path id="Trazado_110323" data-name="Trazado 110323" d="M180.731,4.644c1.554.9,12.169-4.365,43.106-1.592a90.155,90.155,0,0,0-44-.643c.379.889.443,1.974.894,2.234" transform="translate(-5459.013 -7316.918)" fill="#01a0f2"/>
      <path id="Trazado_110324" data-name="Trazado 110324" d="M262.43,138.386h0c4.661-3.984,6.947-15.7,4.7-22.557,3.544,17.824-13.094,26.784-32.285,16.41a56.952,56.952,0,0,1-3.453,7.953c-12.786,5.472-37.837,6.02-50.824,6.61,15.55.736,32.191.14,44.16.767h0c12.867-.385,28.163-.109,37.7-9.184" transform="translate(-5459.47 -7389.37)" fill="#12263f"/>
      <path id="Trazado_110325" data-name="Trazado 110325" d="M103.754,126.271c2.651-2.607,1.881-9.575,1.429-14.161-.512,5.152-1.163,8.941-1.872,9.9-7.49,10.143-34.817,15.793-41.8-5.053-1.487.32.436,6.272,2.9,9.592,4.908,6.619,24.595,14.227,39.344-.279" transform="translate(-5384.677 -7387.044)" fill="#12263f"/>
      <path id="Trazado_110326" data-name="Trazado 110326" d="M168.685,131.745s-.257,4.867-.967,5.849a19.585,19.585,0,0,1-7.131,5.7s7.02-1.2,8.6-4.161c1.479-2.769-.5-7.385-.5-7.385" transform="translate(-5446.973 -7399.325)" fill="#01a0f2"/>
      <path id="Trazado_110327" data-name="Trazado 110327" d="M490.046,458.855a9,9,0,0,1-9.111-7.556l2.477-4.612c1.79-14.782-2.886-21.018-1.545-27.587,2.145-10.511,13.685-16.664,18.906-6.982.636,3.923-6.12,13.756-1.324,35.328l.142,1a9.323,9.323,0,0,1-8.064,10.3,9.991,9.991,0,0,1-1.482.115" transform="translate(-5647.343 -7571.665)" fill="#fdcfad"/>
      <path id="Trazado_110328" data-name="Trazado 110328" d="M499.449,472.7c-2.6-7.985-2.362-16.961-1.693-25.045-2.745.088-1.925,4.855-7.171,6.832-1.58.6-5.908-.791-6.889-.211-.883,1.619,2.5,7.15,2.393,16.963l-5.154,5.313a9,9,0,0,0,9.111,7.556,10.04,10.04,0,0,0,1.482-.115,9.323,9.323,0,0,0,8.064-10.3Z" transform="translate(-5647.343 -7596.92)" fill="#d78c63"/>
      <path id="Trazado_110329" data-name="Trazado 110329" d="M471.212,478c3.768,1.807,9.849,9.582,9.931,17.893s-1.265,31.434-4.359,35.859-22.413,5.5-25.875,1.626.33-50.644.33-50.644Z" transform="translate(-5627.65 -7615.897)" fill="#d78c63"/>
      <path id="Trazado_110330" data-name="Trazado 110330" d="M405.852,487.4c-3.116.009-4.344-.588-6.027-3.267-2.583-4.112-2.812-10.334,1.657-12.788,1.494-.82,6.016-3.3,19.8-2.866,4.613.145,12.871.7,16.943,2.767,4.2,2.133,2.557,14.237,1.565,14.972-2.5,1.855-6.414,1.439-9.422.134-3.6-1.028-16.547-1.272-19.931-.1a9.824,9.824,0,0,1-4.581,1.145m24.639-1.009h0Zm-.513-.217,0,0,0,0M410.7,486.11l0,0,0,0" transform="translate(-5595.458 -7609.913)" fill="#fdcfad"/>
      <path id="Trazado_110331" data-name="Trazado 110331" d="M414.691,505.312c-7.476-2.335,2.108-9.909,18.483-5.54,1.749.467,6.782-3.792,8.172-2.44.808.787,2.352,3.443,2.139,4.7-.355,2.089-4.832,2.382-5.982,1.884-4.448-.469-14.848-.918-18.231.256a9.823,9.823,0,0,1-4.581,1.145M439.33,504.3h0Zm-.513-.216,0,0,0,0m-19.281-.064,0,0,0,0" transform="translate(-5604.297 -7627.825)" fill="#d78c63"/>
      <path id="Trazado_110332" data-name="Trazado 110332" d="M412.016,528.245c-4.486.077-6.7-3.54-7.3-7.85-.658-4.769,1.3-8.646,6.377-9.4,3.58-.531,9.73-1.017,14.932-1.185,10.074-.324,15.616-.215,18.115,1.145,2.384,1.3,3.387,10.727.259,14.979-2.286,3.108-25.295,1.243-30.93,2.176a9.92,9.92,0,0,1-1.455.133" transform="translate(-5599.594 -7635.701)" fill="#fdcfad"/>
      <path id="Trazado_110333" data-name="Trazado 110333" d="M420.012,545.116c-2.5-7.851,12.018-5.665,17.217-5.895,10.067-.445,11.012-4.1,12.6.212,1.126,3.046.1,5.369-3.946,5.581-7.877.413-19.239-.195-22.953.421-.49.081-2.442-.327-2.922-.319" transform="translate(-5609.057 -7653.024)" fill="#d78c63"/>
      <path id="Trazado_110334" data-name="Trazado 110334" d="M418.483,563.26c-4.629.014-6.784-2.768-7.336-6.953-.6-4.571,1.283-9.038,6.447-9.682,3.172-.4,8.228-.893,12.906-1.1,8.257-.37,15.029-.4,18.356,1.188,3.634,1.735,2.573,11.284-.079,14.2-1.409,1.551-7.792,2.955-11.869,1.314-2.6-.307-10.458.12-17.129.952a10.564,10.564,0,0,1-1.3.083m17.071-1.708.006,0-.006,0" transform="translate(-5603.625 -7658.002)" fill="#fdcfad"/>
      <path id="Trazado_110335" data-name="Trazado 110335" d="M452.884,571.475c-4.148-1-6.86,2.7-11.121,2.361-3.615-.29-7.981-2.932-11.268-1.229-2.573,1.333-5.714,3.563-6.433,6.427-.014.057-.033.108-.049.162a10.337,10.337,0,0,0,2.585.32,10.564,10.564,0,0,0,1.3-.083c6.671-.832,14.526-1.259,17.129-.952,11.515,1.83,10.018-6.484,7.861-7.006" transform="translate(-5611.739 -7674.258)" fill="#d78c63"/>
      <path id="Trazado_110336" data-name="Trazado 110336" d="M476.5,588.673l.006,0-.006,0" transform="translate(-5644.567 -7685.123)" fill="#d78c63"/>
      <path id="Trazado_110337" data-name="Trazado 110337" d="M433.828,597.4c-4.407.013-7.82-3.673-8.614-7.652-.9-4.522,2.3-7.024,7.415-7.937,3.305-.59,22.729-3.559,25.158.042,1.249,1.851,1.2,5.256,1.232,7.563.056,4.613-4.279,7.536-9.478,7.695-1.137.034-2.619.01-4.494-.02a90.265,90.265,0,0,0-9.393.146,10.677,10.677,0,0,1-1.826.163" transform="translate(-5612.396 -7679.764)" fill="#fdcfad"/>
      <path id="Trazado_110338" data-name="Trazado 110338" d="M458.951,618.862s1.078-3.612,4.464-3.855,11.857,1.129,11.857,1.129,1.145,2.378-1.713,3.3a21.77,21.77,0,0,1-14.607-.57" transform="translate(-5633.592 -7701.576)" fill="#d78c63"/>
      <rect id="Rectángulo_13268" data-name="Rectángulo 13268" width="200.025" height="424.782" transform="translate(-5346.529 -7316.923)" fill="none"/>
    </g>
  </g>
</svg>
