<svg xmlns="http://www.w3.org/2000/svg" width="143" height="47" viewBox="0 0 143 47">
  <g id="Grupo_59636" data-name="Grupo 59636" transform="translate(2175 7073)">
    <rect id="Rectángulo_9453" data-name="Rectángulo 9453" width="143" height="47" rx="23.5" transform="translate(-2175 -7073)" fill="#fff"/>
    <g id="Grupo_59635" data-name="Grupo 59635" transform="translate(-2133.415 -7063.5)">
      <path id="Trazado_110959" data-name="Trazado 110959" d="M-15.654-2.656h-4.7L-21.172,0h-3.662l5.215-14.219H-16.4L-11.143,0h-3.682ZM-19.531-5.3h3.057l-1.533-4.932ZM-5.127,0V-14.219H-.02a7.232,7.232,0,0,1,4.175,1.006,3.347,3.347,0,0,1,1.431,2.92,3.383,3.383,0,0,1-.508,1.885A2.959,2.959,0,0,1,3.584-7.256,3,3,0,0,1,5.293-6.162a3.18,3.18,0,0,1,.6,1.953,3.765,3.765,0,0,1-1.323,3.14A6.3,6.3,0,0,1,.645,0ZM-1.7-6.045v3.408H.547a2.136,2.136,0,0,0,1.426-.425,1.487,1.487,0,0,0,.5-1.2A1.576,1.576,0,0,0,.7-6.045Zm0-2.246H.088a2.539,2.539,0,0,0,1.6-.411,1.46,1.46,0,0,0,.479-1.185,1.533,1.533,0,0,0-.518-1.3,2.77,2.77,0,0,0-1.67-.4H-1.7ZM24.258-4.814a5.193,5.193,0,0,1-.8,2.622A4.833,4.833,0,0,1,21.4-.43,7,7,0,0,1,18.379.2a5.584,5.584,0,0,1-4.414-1.826,7.54,7.54,0,0,1-1.611-5.156v-.7a8.607,8.607,0,0,1,.728-3.657,5.513,5.513,0,0,1,2.095-2.422,5.844,5.844,0,0,1,3.164-.854,6.129,6.129,0,0,1,4.16,1.362,5.383,5.383,0,0,1,1.787,3.755H20.869a2.547,2.547,0,0,0-.654-1.865,2.691,2.691,0,0,0-1.875-.566,2.048,2.048,0,0,0-1.875.957,6.151,6.151,0,0,0-.625,3.057v1.006a6.806,6.806,0,0,0,.571,3.252,2.091,2.091,0,0,0,1.968.977,2.632,2.632,0,0,0,1.807-.557,2.363,2.363,0,0,0,.664-1.768Z" transform="translate(25.415 27.5)" fill="#43babe"/>
      <path id="Trazado_107109" data-name="Trazado 107109" d="M0,0H50" transform="translate(0.5 7)" fill="none" stroke="#43babe" stroke-width="2"/>
      <path id="Trazado_107110" data-name="Trazado 107110" d="M0,0H50" transform="translate(0.5)" fill="none" stroke="#43babe" stroke-width="2"/>
    </g>
  </g>
</svg>
