<svg xmlns="http://www.w3.org/2000/svg" width="536.5" height="243" viewBox="0 0 536.5 243">
  <g id="Grupo_66043" data-name="Grupo 66043" transform="translate(6551 7058)">
    <g id="Grupo_66042" data-name="Grupo 66042">
      <path id="Trazado_110958" data-name="Trazado 110958" d="M0,0H37V48H0Z" transform="translate(-6551 -6863)" fill="#43babe"/>
      <path id="Trazado_110964" data-name="Trazado 110964" d="M2.146,0V-18.484H8.188a7.015,7.015,0,0,1,4.526,1.244,4.484,4.484,0,0,1,1.517,3.682,3.754,3.754,0,0,1-.736,2.292,4.773,4.773,0,0,1-2.006,1.542,4.287,4.287,0,0,1,2.368,1.593,4.573,4.573,0,0,1,.87,2.8,4.944,4.944,0,0,1-1.612,3.91A6.668,6.668,0,0,1,8.557,0ZM4.583-8.646v6.652H8.607a3.875,3.875,0,0,0,2.685-.882,3.1,3.1,0,0,0,.984-2.431q0-3.339-3.631-3.339Zm0-1.955H8.265a3.859,3.859,0,0,0,2.558-.8,2.687,2.687,0,0,0,.958-2.176,2.642,2.642,0,0,0-.889-2.22,4.364,4.364,0,0,0-2.7-.693H4.583Z" transform="translate(-6541 -6831)" fill="#12263f"/>
      <path id="Trazado_110959" data-name="Trazado 110959" d="M0,0H37V48H0Z" transform="translate(-6551 -6993)" fill="#43babe"/>
      <path id="Trazado_110965" data-name="Trazado 110965" d="M2.146,0V-18.484H8.188a7.015,7.015,0,0,1,4.526,1.244,4.484,4.484,0,0,1,1.517,3.682,3.754,3.754,0,0,1-.736,2.292,4.773,4.773,0,0,1-2.006,1.542,4.287,4.287,0,0,1,2.368,1.593,4.573,4.573,0,0,1,.87,2.8,4.944,4.944,0,0,1-1.612,3.91A6.668,6.668,0,0,1,8.557,0ZM4.583-8.646v6.652H8.607a3.875,3.875,0,0,0,2.685-.882,3.1,3.1,0,0,0,.984-2.431q0-3.339-3.631-3.339Zm0-1.955H8.265a3.859,3.859,0,0,0,2.558-.8,2.687,2.687,0,0,0,.958-2.176,2.642,2.642,0,0,0-.889-2.22,4.364,4.364,0,0,0-2.7-.693H4.583Z" transform="translate(-6541 -6961)" fill="#12263f"/>
      <path id="Trazado_110960" data-name="Trazado 110960" d="M0,0H37V48H0Z" transform="translate(-6551 -6928)" fill="#43babe"/>
      <path id="Trazado_110966" data-name="Trazado 110966" d="M12.353-4.837H4.608L2.869,0H.355L7.414-18.484H9.547L16.618,0h-2.5ZM5.345-6.83h6.284L8.48-15.476Z" transform="translate(-6541 -6894)" fill="#12263f"/>
      <path id="Trazado_110961" data-name="Trazado 110961" d="M0,0H37V48H0Z" transform="translate(-6551 -7058)" fill="#43babe"/>
      <path id="Trazado_110967" data-name="Trazado 110967" d="M12.353-4.837H4.608L2.869,0H.355L7.414-18.484H9.547L16.618,0h-2.5ZM5.345-6.83h6.284L8.48-15.476Z" transform="translate(-6541 -7024)" fill="#12263f"/>
      <path id="Trazado_110944" data-name="Trazado 110944" d="M0,0H37V48H0Z" transform="translate(-6342 -6897)" fill="#43babe"/>
      <path id="Trazado_110945" data-name="Trazado 110945" d="M7.483-8.85l4.639-8.923h2.661L8.655-6.628V0H6.311V-6.628L.183-17.773H2.869Z" transform="translate(-6331.999 -6866)" fill="#12263f"/>
      <path id="Trazado_110950" data-name="Trazado 110950" d="M0,0H37V48H0Z" transform="translate(-6209 -7027)" fill="#43babe"/>
      <path id="Trazado_110953" data-name="Trazado 110953" d="M7.483-8.85l4.639-8.923h2.661L8.655-6.628V0H6.311V-6.628L.183-17.773H2.869Z" transform="translate(-6198.999 -6996)" fill="#12263f"/>
      <path id="Trazado_110943" data-name="Trazado 110943" d="M2,0A2,2,0,1,1,0,2,2,2,0,0,1,2,0Z" transform="translate(-6236 -6854)" fill="#12263f"/>
      <path id="Trazado_110946" data-name="Trazado 110946" d="M37.589,86V68.8H0V64.213H37.589V22.933H0V18.347H37.589V0H83.881a38.008,38.008,0,0,1,37.606,32.507,9.113,9.113,0,0,1,11.785,8.773H172v3.44h-39.39a9.1,9.1,0,0,1-11.16,5.321A42.009,42.009,0,0,1,79.881,86Z" transform="translate(-6514 -6916)" fill="#70089b"/>
      <path id="Trazado_110947" data-name="Trazado 110947" d="M10,0A10.047,10.047,0,1,1,0,10.047,10.023,10.023,0,0,1,10,0Z" transform="translate(-6395.6 -6884.654)" fill="#70089b"/>
      <path id="Trazado_110951" data-name="Trazado 110951" d="M9.578-11.328,15.516-22.75h3.406L11.078-8.484V0h-3V-8.484L.234-22.75H3.672Zm25.047-1.391H21.594v-2.516H34.625Zm0,6.484H21.594v-2.5H34.625Zm25.281.281H50.375L48.234,0H45.141l8.688-22.75h2.625L65.156,0H62.078ZM51.281-8.406h7.734L55.141-19.047Zm32.688-3.8h6.344v2.734H83.969v7.188H81.063V-9.469H74.719V-12.2h6.344v-6.641h2.906ZM102.2,0V-22.75h7.438a8.634,8.634,0,0,1,5.57,1.531,5.519,5.519,0,0,1,1.867,4.531,4.621,4.621,0,0,1-.906,2.82,5.875,5.875,0,0,1-2.469,1.9,5.276,5.276,0,0,1,2.914,1.961,5.628,5.628,0,0,1,1.07,3.445A6.085,6.085,0,0,1,115.7-1.75,8.206,8.206,0,0,1,110.094,0Zm3-10.641v8.188h4.953a4.769,4.769,0,0,0,3.3-1.086,3.814,3.814,0,0,0,1.211-2.992q0-4.109-4.469-4.109Zm0-2.406h4.531a4.75,4.75,0,0,0,3.148-.986,3.307,3.307,0,0,0,1.18-2.678,3.252,3.252,0,0,0-1.094-2.733,5.371,5.371,0,0,0-3.328-.853H105.2Z" transform="translate(-6136 -6993)" fill="#12263f"/>
      <path id="Trazado_110963" data-name="Trazado 110963" d="M0,0H81" transform="translate(-6095.5 -7026.5)" fill="none" stroke="#12263f" stroke-width="2"/>
      <path id="Trazado_110954" data-name="Trazado 110954" d="M0,0H47V3.951H0Z" transform="translate(-6361 -7003.488)" fill="#70089b"/>
      <path id="Trazado_110955" data-name="Trazado 110955" d="M0,0H47V3.951H0Z" transform="translate(-6256 -7004.476)" fill="#70089b"/>
      <path id="Trazado_110948" data-name="Trazado 110948" d="M40.5,0,81,75H0Z" transform="translate(-6250 -7043) rotate(90)" fill="#70089b"/>
      <path id="Trazado_110956" data-name="Trazado 110956" d="M7,0a6.958,6.958,0,0,1,7,6.915,6.958,6.958,0,0,1-7,6.915A6.958,6.958,0,0,1,0,6.915,6.958,6.958,0,0,1,7,0Z" transform="translate(-6260 -7010.402)" fill="#70089b"/>
      <path id="Trazado_110949" data-name="Trazado 110949" d="M0,0H43.887a38,38,0,0,1,38,38,42,42,0,0,1-42,42H0Z" transform="translate(-6478.443 -7042)" fill="#70089b"/>
      <path id="Trazado_110962" data-name="Trazado 110962" d="M0,0H39.866V4.267H0Z" transform="translate(-6514 -7024.933)" fill="#70089b"/>
      <path id="Trazado_110952" data-name="Trazado 110952" d="M0,0H39.866V4.267H0Z" transform="translate(-6514 -6982.267)" fill="#70089b"/>
      <path id="Trazado_110957" data-name="Trazado 110957" d="M0,0H39.866V4.267H0Z" transform="translate(-6400.866 -7003.6)" fill="#70089b"/>
    </g>
  </g>
</svg>
