<svg xmlns="http://www.w3.org/2000/svg" xmlns:xlink="http://www.w3.org/1999/xlink" width="289.522" height="158.65" viewBox="0 0 289.522 158.65">
  <defs>
    <clipPath id="clip">
      <use xlink:href="#fill"/>
    </clipPath>
    <clipPath id="clip-2">
      <use xlink:href="#fill-2"/>
    </clipPath>
  </defs>
  <g id="Grupo_66047" data-name="Grupo 66047" transform="translate(17.744 8161.008)">
    <g id="Trazado_111053" data-name="Trazado 111053" transform="translate(29.435 -8120.354)" fill="#70089b">
      <path d="M 79.30321502685547 2.068248271942139 L 0.4999963939189911 2.068248271942139 L 0.4999963939189911 0.5000038146972656 L 79.30321502685547 0.5000038146972656 L 79.30321502685547 2.068248271942139 Z" stroke="none"/>
      <path d="M 1 1.000003814697266 L 1 1.568248271942139 L 78.80321502685547 1.568248271942139 L 78.80321502685547 1.000003814697266 L 1 1.000003814697266 M 0 3.814697265625e-06 L 79.80321502685547 3.814697265625e-06 L 79.80321502685547 2.568248271942139 L 0 2.568248271942139 L 0 3.814697265625e-06 Z" stroke="none" fill="#707070"/>
    </g>
    <g id="Trazado_111054" data-name="Trazado 111054" transform="translate(11.435 -8095.454)" fill="#70089b">
      <path d="M 95.73799896240234 2.068250894546509 L 0.4999994933605194 2.068250894546509 L 0.4999994933605194 0.5000009536743164 L 95.73799896240234 0.5000009536743164 L 95.73799896240234 2.068250894546509 Z" stroke="none"/>
      <path d="M 1 1.000005960464478 L 1 1.568245887756348 L 95.23799896240234 1.568245887756348 L 95.23799896240234 1.000005960464478 L 1 1.000005960464478 M 0 5.960464477539062e-06 L 96.23799896240234 5.960464477539062e-06 L 96.23799896240234 2.568245887756348 L 0 2.568245887756348 L 0 5.960464477539062e-06 Z" stroke="none" fill="#707070"/>
    </g>
    <g id="Trazado_111055" data-name="Trazado 111055" transform="translate(104.885 -8131.41)" fill="#e8e8e8">
      <path d="M 29.10243606567383 46.65473556518555 L 1.50000524520874 46.65473556518555 L 1.50000524520874 1.500003933906555 L 28.69777488708496 1.500003933906555 C 31.7736759185791 1.500003933906555 34.75677490234375 2.102083921432495 37.56420516967773 3.289533853530884 C 40.27661514282227 4.436783790588379 42.71292495727539 6.079493999481201 44.80545425415039 8.172023773193359 C 46.89798355102539 10.26455402374268 48.54069519042969 12.7008638381958 49.68794631958008 15.41327381134033 C 50.87539672851562 18.220703125 51.47747421264648 21.20379447937012 51.47747421264648 24.27969360351562 C 51.47747421264648 27.30096435546875 50.8860969543457 30.23106384277344 49.71974563598633 32.98860549926758 C 48.59287643432617 35.65283584594727 46.97934341430664 38.04586410522461 44.92397689819336 40.10123443603516 C 42.86860656738281 42.1566047668457 40.4755744934082 43.77013397216797 37.81134414672852 44.89700317382812 C 35.05380630493164 46.0633544921875 32.12370681762695 46.65473556518555 29.10243606567383 46.65473556518555 Z" stroke="none"/>
      <path d="M 2.999996185302734 2.999992370605469 L 2.999996185302734 45.15472412109375 L 29.10243606567383 45.15472412109375 C 31.92186546325684 45.15472412109375 34.65537261962891 44.60320281982422 37.22702407836914 43.51549530029297 C 39.71244430541992 42.4642448425293 41.94521331787109 40.95866394042969 43.86331558227539 39.04057312011719 C 45.78140640258789 37.12247467041016 47.2869873046875 34.88970184326172 48.33823394775391 32.40428161621094 C 49.42594528198242 29.83263397216797 49.97746658325195 27.09912490844727 49.97746658325195 24.27969360351562 C 49.97746658325195 21.4056339263916 49.41524505615234 18.6191349029541 48.30643463134766 15.99759292602539 C 47.23480606079102 13.46398544311523 45.70004653930664 11.18793487548828 43.74479675292969 9.232673645019531 C 41.78953552246094 7.277412414550781 39.51348495483398 5.742652893066406 36.97987365722656 4.671024322509766 C 34.35833740234375 3.562213897705078 31.57183456420898 2.999992370605469 28.69777488708496 2.999992370605469 L 2.999996185302734 2.999992370605469 M -3.814697265625e-06 -7.62939453125e-06 L 28.69777488708496 -7.62939453125e-06 C 42.10708618164062 -7.62939453125e-06 52.97746658325195 10.87038421630859 52.97746658325195 24.27969360351562 C 52.97746658325195 37.46551513671875 42.28825378417969 48.15472412109375 29.10243606567383 48.15472412109375 L -3.814697265625e-06 48.15472412109375 L -3.814697265625e-06 -7.62939453125e-06 Z" stroke="none" fill="#70089b"/>
    </g>
    <g id="Trazado_111056" data-name="Trazado 111056" transform="translate(175.508 -8148.271)" fill="none">
      <path d="M30.229,52.977H1.073C12.4,48.342,19.721,38.028,19.721,26.7,19.721,14.9,11.98,4.42,0,0H29.784A26.715,26.715,0,0,1,56.34,23.819h18.8v2.67H56.493c0,.039,0,.078,0,.118s0,.07,0,.1A26.244,26.244,0,0,1,30.229,52.977Z" stroke="none"/>
      <path d="M 30.22919464111328 49.97669982910156 C 33.37137985229492 49.97669982910156 36.4179801940918 49.36198806762695 39.28435516357422 48.14962387084961 C 42.054443359375 46.97797393798828 44.54288101196289 45.30002593994141 46.68050765991211 43.16241073608398 C 48.81813049316406 41.02477645874023 50.49607086181641 38.53635025024414 51.66772079467773 35.76625061035156 C 52.88008117675781 32.89988708496094 53.49479293823242 29.85330009460449 53.49479293823242 26.71109962463379 L 53.49443054199219 26.62276268005371 C 53.49433135986328 26.60222434997559 53.49436950683594 26.58161163330078 53.49388122558594 26.56150054931641 L 53.45782852172852 25.07399940490723 L 53.35723114013672 24.13962554931641 C 52.73544311523438 18.36425018310547 50.00727081298828 13.02772521972656 45.67524337768555 9.11308765411377 C 41.31283187866211 5.171000003814697 35.66910552978516 3 29.78370666503906 3 L 11.25039100646973 3 C 18.43956184387207 8.905794143676758 22.72079467773438 17.42787170410156 22.72079467773438 26.69669914245605 C 22.72079467773438 35.67200469970703 18.60469055175781 44.06082534790039 11.70453357696533 49.97669982910156 L 30.22919464111328 49.97669982910156 M 30.22919464111328 52.97669982910156 L 1.073081493377686 52.97669982910156 C 12.40098190307617 48.34228897094727 19.72079467773438 38.02752304077148 19.72079467773438 26.69669914245605 C 19.72079467773438 14.89903736114502 11.98039436340332 4.419962406158447 0.001206494169309735 -8.544921570319275e-08 L 29.78370666503906 -8.544921570319275e-08 C 36.41371917724609 -8.544921570319275e-08 42.77175521850586 2.445937395095825 47.68661880493164 6.887249946594238 C 52.56607055664062 11.29656219482422 55.63923263549805 17.30952453613281 56.33999252319336 23.81850051879883 L 75.14460754394531 23.81850051879883 L 75.14460754394531 26.48880004882812 L 56.49300765991211 26.48880004882812 C 56.49394226074219 26.52747535705566 56.49418258666992 26.56712532043457 56.49439239501953 26.60661315917969 C 56.49459457397461 26.64157485961914 56.49479293823242 26.67643737792969 56.49479293823242 26.71109962463379 C 56.49479293823242 30.2569751739502 55.80034255981445 33.69675064086914 54.43073272705078 36.93489837646484 C 53.10783004760742 40.06259918212891 51.21399307250977 42.87155151367188 48.80183029174805 45.28372573852539 C 46.38964462280273 47.69589996337891 43.58069229125977 49.58973693847656 40.45300674438477 50.91263580322266 C 37.21484375 52.28224945068359 33.77505493164062 52.97669982910156 30.22919464111328 52.97669982910156 Z" stroke="none" fill="#70089b"/>
    </g>
    <g id="Grupo_59432" data-name="Grupo 59432" transform="translate(146.049 -8135.729)">
      <g id="Rect치ngulo_9255" data-name="Rect치ngulo 9255" transform="translate(20.947)" fill="none" stroke="#70089b" stroke-width="3">
        <rect id="fill" width="27.804" height="2.684" stroke="none"/>
        <path d="M0,1.183521032333374h27.80392837524414M26.30392837524414,0v2.683521032333374M27.80392837524414,1.5h-27.80392837524414M1.5,2.683521032333374v-2.683521032333374" fill="none" clip-path="url(#clip)"/>
      </g>
      <g id="Rect치ngulo_9256" data-name="Rect치ngulo 9256" transform="translate(11 23.615)" fill="none" stroke="#70089b" stroke-width="3">
        <rect id="fill-2" width="37.751" height="2.438" stroke="none"/>
        <path d="M0,0.9376165866851807h37.750728607177734M36.250728607177734,0v2.4376165866851807M37.750728607177734,1.5h-37.750728607177734M1.5,2.4376165866851807v-2.4376165866851807" fill="none" clip-path="url(#clip-2)"/>
      </g>
    </g>
    <g id="Trazado_111049" data-name="Trazado 111049" transform="translate(28.097 -8154.595)" fill="#70089b">
      <path d="M 2.175257921218872 35.95269393920898 L 0.4999978840351105 35.95269393920898 L 0.4999978840351105 0.5000050663948059 L 2.175257921218872 0.5000050663948059 L 2.175257921218872 35.95269393920898 Z" stroke="none"/>
      <path d="M 0.9999978542327881 0.9999961853027344 L 0.9999978542327881 35.45268630981445 L 1.675257921218872 35.45268630981445 L 1.675257921218872 0.9999961853027344 L 0.9999978542327881 0.9999961853027344 M -2.145767211914062e-06 -3.814697265625e-06 L 2.675257921218872 -3.814697265625e-06 L 2.675257921218872 36.45268630981445 L -2.145767211914062e-06 36.45268630981445 L -2.145767211914062e-06 -3.814697265625e-06 Z" stroke="none" fill="#707070"/>
    </g>
    <g id="Trazado_111050" data-name="Trazado 111050" transform="translate(168.746 -8153.974) rotate(90)" fill="#70089b">
      <path d="M 19.9471435546875 2.183520555496216 L 0.5000036954879761 2.183520555496216 L 0.5000036954879761 0.500000536441803 L 19.9471435546875 0.500000536441803 L 19.9471435546875 2.183520555496216 Z" stroke="none"/>
      <path d="M 1.000003814697266 1.000000476837158 L 1.000003814697266 1.683520555496216 L 19.4471435546875 1.683520555496216 L 19.4471435546875 1.000000476837158 L 1.000003814697266 1.000000476837158 M 3.814697265625e-06 4.76837158203125e-07 L 20.4471435546875 4.76837158203125e-07 L 20.4471435546875 2.683520555496216 L 3.814697265625e-06 2.683520555496216 L 3.814697265625e-06 4.76837158203125e-07 Z" stroke="none" fill="#707070"/>
    </g>
    <g id="Trazado_106953" data-name="Trazado 106953" transform="translate(10.391 -8154.595)" fill="#70089b">
      <path d="M 157.8550262451172 2.043479204177856 L 0.4999931156635284 2.043479204177856 L 0.4999931156635284 0.4999991357326508 L 157.8550262451172 0.4999991357326508 L 157.8550262451172 2.043479204177856 Z" stroke="none"/>
      <path d="M 0.9999847412109375 1.000010013580322 L 0.9999847412109375 1.543468236923218 L 157.3550415039062 1.543468236923218 L 157.3550415039062 1.000010013580322 L 0.9999847412109375 1.000010013580322 M -1.52587890625e-05 1.001358032226562e-05 L 158.3550415039062 1.001358032226562e-05 L 158.3550415039062 2.543468236923218 L -1.52587890625e-05 2.543468236923218 L -1.52587890625e-05 1.001358032226562e-05 Z" stroke="none" fill="#707070"/>
    </g>
    <path id="Trazado_111051" data-name="Trazado 111051" d="M8.693-2.523H4.23L3.451,0H-.028L4.926-13.508H7.988L12.979,0h-3.5ZM5.01-5.038h2.9L6.457-9.723Z" transform="translate(-17 -8147)" fill="#12263f" stroke="rgba(0,0,0,0)" stroke-width="1"/>
    <path id="Trazado_111043" data-name="Trazado 111043" d="M1.021,0V-13.508H5.873a6.871,6.871,0,0,1,3.966.956A3.179,3.179,0,0,1,11.2-9.778a3.214,3.214,0,0,1-.482,1.791A2.811,2.811,0,0,1,9.3-6.893a2.847,2.847,0,0,1,1.624,1.039A3.021,3.021,0,0,1,11.485-4a3.577,3.577,0,0,1-1.257,2.983A5.982,5.982,0,0,1,6.5,0ZM4.277-5.743V-2.5H6.411a2.03,2.03,0,0,0,1.354-.4,1.412,1.412,0,0,0,.473-1.136,1.5,1.5,0,0,0-1.679-1.7Zm0-2.134h1.7A2.412,2.412,0,0,0,7.5-8.267a1.387,1.387,0,0,0,.455-1.126,1.456,1.456,0,0,0-.492-1.233A2.632,2.632,0,0,0,5.873-11h-1.6Z" transform="translate(-17 -8087)" fill="#12263f" stroke="rgba(0,0,0,0)" stroke-width="1"/>
    <path id="Trazado_111052" data-name="Trazado 111052" d="M5.965-7.645l2.486-5.863h3.516L7.617-4.852V0h-3.3V-4.852L-.028-13.508h3.5Z" transform="translate(259 -8115)" fill="#12263f" stroke="rgba(0,0,0,0)" stroke-width="1"/>
    <g id="Trazado_111044" data-name="Trazado 111044" transform="translate(50.28 -8135.78)" fill="#e8e8e8">
      <path d="M 1.499999284744263 28.7186393737793 L 1.499999284744263 2.520988464355469 L 24.9158992767334 15.2317476272583 L 25.63147926330566 15.62017822265625 L 24.46530914306641 16.2531681060791 L 1.499999284744263 28.7186393737793 Z M 29.04692840576172 18.77228736877441 C 27.94895935058594 18.77228736877441 26.96208000183105 18.08440780639648 26.59120941162109 17.06058692932129 L 26.14664077758789 15.83334827423096 L 26.87549018859863 14.75160789489746 C 27.36188888549805 14.02969741821289 28.17363929748535 13.598708152771 29.04692840576172 13.598708152771 C 30.4849796295166 13.598708152771 31.6549186706543 14.75923728942871 31.6549186706543 16.18571853637695 C 31.6549186706543 17.61195755004883 30.4849796295166 18.77228736877441 29.04692840576172 18.77228736877441 Z" stroke="none"/>
      <path d="M 3 5.041965484619141 L 3 26.19771766662598 L 22.48721885681152 15.62013816833496 L 3 5.041965484619141 M 29.04692840576172 15.09870719909668 C 28.67335891723633 15.09870719909668 28.32663917541504 15.28228759765625 28.11944961547852 15.58977794647217 L 27.81660652160645 16.03924942016602 L 28.00151824951172 16.54970741271973 C 28.13180923461914 16.90936660766602 28.50558853149414 17.27228736877441 29.04692840576172 17.27228736877441 C 29.65787887573242 17.27228736877441 30.1549186706543 16.78485870361328 30.1549186706543 16.18571853637695 C 30.1549186706543 15.58633804321289 29.65787887573242 15.09870719909668 29.04692840576172 15.09870719909668 M 0 -1.9073486328125e-06 L 25.63150024414062 13.91344833374023 C 26.36886978149414 12.81906700134277 27.62340927124023 12.09870719909668 29.04692840576172 12.09870719909668 C 31.31576919555664 12.09870719909668 33.1549186706543 13.92835807800293 33.1549186706543 16.18571853637695 C 33.1549186706543 18.4426383972168 31.31576919555664 20.27228736877441 29.04692840576172 20.27228736877441 C 27.26709938049316 20.27228736877441 25.75139999389648 19.14638900756836 25.18088912963867 17.57147789001465 L 0 31.23955726623535 L 0 -1.9073486328125e-06 Z" stroke="none" fill="#70089b"/>
    </g>
    <g id="Trazado_111041" data-name="Trazado 111041" transform="translate(91.769 -8055.334)" fill="#e8e8e8">
      <path d="M 30.22919464111328 51.47670364379883 L 7.188048362731934 51.47670364379883 C 15.87015819549561 45.87231063842773 21.22079467773438 36.66103744506836 21.22079467773438 26.69670486450195 C 21.22079467773438 16.38492202758789 15.63034248352051 7.036551475524902 6.548449993133545 1.500005483627319 L 29.78370666503906 1.500005483627319 C 36.04140472412109 1.500005483627319 42.04229354858398 3.808472156524658 46.68092727661133 8.000171661376953 C 51.28666305541992 12.16213893890381 54.18733978271484 17.83689498901367 54.84861755371094 23.97907257080078 L 54.95732116699219 24.98880577087402 L 54.95592880249023 24.98880577087402 L 54.99345016479492 26.52541732788086 C 54.99417495727539 26.55480575561523 54.9942512512207 26.58491706848145 54.99441909790039 26.61492729187012 C 54.99460601806641 26.64751625061035 54.99479675292969 26.67939376831055 54.99479675292969 26.71110534667969 C 54.99479675292969 30.05512809753418 54.34020614624023 33.29831695556641 53.04921722412109 36.35058212280273 C 51.80196380615234 39.29946136474609 50.01607131958008 41.94815063476562 47.74117279052734 44.22307205200195 C 45.46626281738281 46.49795913696289 42.81756210327148 48.28385925292969 39.86868286132812 49.5311279296875 C 36.81640625 50.82211685180664 33.57320785522461 51.47670364379883 30.22919464111328 51.47670364379883 Z" stroke="none"/>
      <path d="M 30.22919464111328 49.97669982910156 C 33.37137985229492 49.97669982910156 36.4179801940918 49.36198806762695 39.28435516357422 48.14962387084961 C 42.054443359375 46.97797393798828 44.54288101196289 45.30002593994141 46.68050765991211 43.16241073608398 C 48.81813049316406 41.02477645874023 50.49607086181641 38.53635025024414 51.66772079467773 35.76625061035156 C 52.88008117675781 32.89988708496094 53.49479293823242 29.85330009460449 53.49479293823242 26.71109962463379 L 53.49443054199219 26.62276268005371 C 53.49433135986328 26.60222434997559 53.49436950683594 26.58161163330078 53.49388122558594 26.56150054931641 L 53.45782852172852 25.07399940490723 L 53.35723114013672 24.13962554931641 C 52.73544311523438 18.36425018310547 50.00727081298828 13.02772521972656 45.67524337768555 9.11308765411377 C 41.31283187866211 5.171000003814697 35.66910552978516 3 29.78370666503906 3 L 11.25039100646973 3 C 18.43956184387207 8.905794143676758 22.72079467773438 17.42787170410156 22.72079467773438 26.69669914245605 C 22.72079467773438 35.67200469970703 18.60469055175781 44.06082534790039 11.70453357696533 49.97669982910156 L 30.22919464111328 49.97669982910156 M 30.22919464111328 52.97669982910156 L 1.073081493377686 52.97669982910156 C 12.40098190307617 48.34228897094727 19.72079467773438 38.02752304077148 19.72079467773438 26.69669914245605 C 19.72079467773438 14.89903736114502 11.98039436340332 4.419962406158447 0.001206494169309735 -8.544921570319275e-08 L 29.78370666503906 -8.544921570319275e-08 C 36.41371917724609 -8.544921570319275e-08 42.77175521850586 2.445937395095825 47.68661880493164 6.887249946594238 C 52.56607055664062 11.29656219482422 55.63923263549805 17.30952453613281 56.33999252319336 23.81850051879883 L 75.14460754394531 23.81850051879883 L 75.14460754394531 26.48880004882812 L 56.49300765991211 26.48880004882812 C 56.49394226074219 26.52747535705566 56.49418258666992 26.56712532043457 56.49439239501953 26.60661315917969 C 56.49459457397461 26.64157485961914 56.49479293823242 26.67643737792969 56.49479293823242 26.71109962463379 C 56.49479293823242 30.2569751739502 55.80034255981445 33.69675064086914 54.43073272705078 36.93489837646484 C 53.10783004760742 40.06259918212891 51.21399307250977 42.87155151367188 48.80183029174805 45.28372573852539 C 46.38964462280273 47.69589996337891 43.58069229125977 49.58973693847656 40.45300674438477 50.91263580322266 C 37.21484375 52.28224945068359 33.77505493164062 52.97669982910156 30.22919464111328 52.97669982910156 Z" stroke="none" fill="#70089b"/>
    </g>
    <g id="Trazado_111045" data-name="Trazado 111045" transform="translate(82.658 -8042.792)" fill="#70089b">
      <path d="M 27.64203453063965 2.183520555496216 L 0.5000044107437134 2.183520555496216 L 0.5000044107437134 0.500000536441803 L 27.64203453063965 0.500000536441803 L 27.64203453063965 2.183520555496216 Z" stroke="none"/>
      <path d="M 0.9999942779541016 1.000000476837158 L 0.9999942779541016 1.683520555496216 L 27.14202499389648 1.683520555496216 L 27.14202499389648 1.000000476837158 L 0.9999942779541016 1.000000476837158 M -5.7220458984375e-06 4.76837158203125e-07 L 28.14202499389648 4.76837158203125e-07 L 28.14202499389648 2.683520555496216 L -5.7220458984375e-06 2.683520555496216 L -5.7220458984375e-06 4.76837158203125e-07 Z" stroke="none" fill="#707070"/>
    </g>
    <g id="Trazado_111046" data-name="Trazado 111046" transform="translate(82.658 -8019.178)" fill="#70089b">
      <path d="M 27.64203453063965 1.937618255615234 L 0.5000044107437134 1.937618255615234 L 0.5000044107437134 0.4999983012676239 L 27.64203453063965 0.4999983012676239 L 27.64203453063965 1.937618255615234 Z" stroke="none"/>
      <path d="M 0.9999942779541016 0.9999983310699463 L 0.9999942779541016 1.437618255615234 L 27.14202499389648 1.437618255615234 L 27.14202499389648 0.9999983310699463 L 0.9999942779541016 0.9999983310699463 M -5.7220458984375e-06 -1.668930053710938e-06 L 28.14202499389648 -1.668930053710938e-06 L 28.14202499389648 2.437618255615234 L -5.7220458984375e-06 2.437618255615234 L -5.7220458984375e-06 -1.668930053710938e-06 Z" stroke="none" fill="#707070"/>
    </g>
    <path id="Trazado_111047" data-name="Trazado 111047" d="M5.651-7.242,8.007-12.8h3.331L7.216-4.6V0H4.087V-4.6L-.026-12.8H3.287Z" transform="translate(182.565 -8023.876)" fill="#12263f" stroke="rgba(0,0,0,0)" stroke-width="1"/>
    <path id="Trazado_111048" data-name="Trazado 111048" d="M8.235-2.391H4.008L3.27,0h-3.3L4.667-12.8h2.9L12.3,0H8.982ZM4.746-4.772H7.5L6.117-9.211Z" transform="translate(60.478 -8041.876)" fill="#12263f" stroke="rgba(0,0,0,0)" stroke-width="1"/>
    <path id="Trazado_111042" data-name="Trazado 111042" d="M.913,0V-12.086H5.254a6.147,6.147,0,0,1,3.549.855,2.845,2.845,0,0,1,1.216,2.482,2.876,2.876,0,0,1-.432,1.6,2.515,2.515,0,0,1-1.27.979,2.547,2.547,0,0,1,1.453.93,2.7,2.7,0,0,1,.506,1.66A3.2,3.2,0,0,1,9.152-.909,5.352,5.352,0,0,1,5.819,0ZM3.827-5.138v2.9H5.736A1.816,1.816,0,0,0,6.948-2.6a1.264,1.264,0,0,0,.423-1.017,1.34,1.34,0,0,0-1.5-1.519Zm0-1.909H5.346A2.158,2.158,0,0,0,6.707-7.4,1.241,1.241,0,0,0,7.114-8.4a1.3,1.3,0,0,0-.44-1.1,2.355,2.355,0,0,0-1.419-.337H3.827Z" transform="translate(61.261 -8010.789)" fill="#12263f" stroke="rgba(0,0,0,0)" stroke-width="1"/>
  </g>
</svg>
