<svg xmlns="http://www.w3.org/2000/svg" width="218.152" height="88.896" viewBox="0 0 218.152 88.896">
  <g id="Grupo_66048" data-name="Grupo 66048" transform="translate(2696.035 8440)">
    <path id="Trazado_111046" data-name="Trazado 111046" d="M9.8,0H5.836V-12.609L1.945-11.473v-3l7.488-2.59H9.8Z" transform="translate(-2694 -8365)" fill="#12263f"/>
    <path id="Trazado_111047" data-name="Trazado 111047" d="M10.98-3.187H5.344L4.359,0H-.035L6.223-17.062H10.09L16.395,0H11.977ZM6.328-6.363H10l-1.84-5.918Z" transform="translate(-2696 -8415)" fill="#12263f"/>
    <path id="Trazado_111048" data-name="Trazado 111048" d="M7.535-9.656l3.141-7.406h4.441L9.621-6.129V0H5.449V-6.129L-.035-17.062H4.383Z" transform="translate(-2493 -8386.051)" fill="#12263f"/>
    <g id="Trazado_111045" data-name="Trazado 111045" transform="translate(-2640.773 -8440)" fill="#e8e8e8">
      <path d="M 62.8866081237793 87.3966064453125 L 9.902698516845703 87.3966064453125 C 9.011903762817383 87.3966064453125 8.12089729309082 87.36915588378906 7.232457637786865 87.31450653076172 C 27.88715744018555 78.30998229980469 40.47720718383789 62.39738464355469 40.47720718383789 44.79840850830078 C 40.47720718383789 27.00224876403809 27.05711364746094 10.52315139770508 5.828107357025146 1.691267132759094 C 7.179850578308105 1.564021229743958 8.540389060974121 1.500008463859558 9.902698516845703 1.500008463859558 L 62.8866081237793 1.500008463859558 C 73.60371398925781 1.500008463859558 83.86708068847656 5.469390392303467 91.78607940673828 12.67693614959717 C 99.65237426757812 19.83644485473633 104.5650634765625 29.58199119567871 105.6191558837891 40.11831665039062 L 105.754280090332 41.46899032592773 L 107.111701965332 41.46899032592773 L 133.9185028076172 41.46899032592773 L 133.9185180664062 43.21020889282227 L 107.3340072631836 43.21020889282227 L 105.8426055908203 43.21020889282227 L 105.8340225219727 44.70159149169922 C 105.8008651733398 50.47313690185547 104.642333984375 56.06777191162109 102.3906478881836 61.33010101318359 C 100.2144775390625 66.41590118408203 97.11315155029297 70.98168182373047 93.17279052734375 74.90062713623047 C 89.2314453125 78.820556640625 84.64772033691406 81.89731597900391 79.54891967773438 84.04542541503906 C 74.27079010009766 86.26909637451172 68.66478729248047 87.3966064453125 62.8866081237793 87.3966064453125 Z" stroke="none"/>
      <path d="M 62.8865966796875 85.89659881591797 C 68.46367645263672 85.89659881591797 73.87375640869141 84.80870056152344 78.966552734375 82.66310119628906 C 83.88705444335938 80.59010314941406 88.31085205078125 77.62059783935547 92.11501312255859 73.83705902099609 C 95.91825866699219 70.05449676513672 98.9114990234375 65.64801788330078 101.0115966796875 60.74002075195312 C 103.184196472168 55.66249847412109 104.3020324707031 50.26348114013672 104.3340530395508 44.69295883178711 L 104.3468475341797 42.46916580200195 L 104.126594543457 40.26763916015625 C 103.1094360351562 30.10055923461914 98.36825561523438 20.69595909118652 90.77641296386719 13.78623962402344 C 83.13421630859375 6.830619335174561 73.22941589355469 2.999999523162842 62.8865966796875 2.999999523162842 L 12.19967460632324 2.999999523162842 C 30.61141967773438 12.51023101806641 41.97719573974609 28.07646179199219 41.97719573974609 44.79840087890625 C 41.97719573974609 61.30073165893555 31.36183547973633 76.33800506591797 13.58890819549561 85.89659881591797 L 62.8865966796875 85.89659881591797 M 62.8865966796875 88.89659881591797 L 9.902695655822754 88.89659881591797 C 6.995075225830078 88.89659881591797 4.086355209350586 88.61389923095703 1.257355332374573 88.05634307861328 C 24.52375602722168 79.82415771484375 38.97719573974609 63.24942016601562 38.97719573974609 44.79840087890625 C 38.97719573974609 26.20545959472656 23.67781448364258 9.055599212646484 0.0001553271431475878 1.107079386711121 C 3.231415271759033 0.3718394041061401 6.563075542449951 -5.920410330872983e-07 9.902695655822754 -5.920410330872983e-07 L 62.8865966796875 -5.920410330872983e-07 C 73.97799682617188 -5.920410330872983e-07 84.59991455078125 4.108119487762451 92.79573822021484 11.56759929656982 C 100.9364929199219 18.97691917419434 106.0206527709961 29.06340026855469 107.1116943359375 39.96899795532227 L 135.4185028076172 39.96899795532227 L 135.4185180664062 44.71020126342773 L 107.3340148925781 44.71020126342773 C 107.299674987793 50.68328094482422 106.1001129150391 56.47388076782227 103.7697143554688 61.92018127441406 C 101.5174560546875 67.18377685546875 98.30801391601562 71.90885925292969 94.23055267333984 75.96415710449219 C 90.15205383300781 80.02052307128906 85.40837860107422 83.20453643798828 80.13129425048828 85.42775726318359 C 74.66783905029297 87.72952270507812 68.86589813232422 88.89659881591797 62.8865966796875 88.89659881591797 Z" stroke="none" fill="#70089b"/>
    </g>
    <g id="Grupo_59341" data-name="Grupo 59341" transform="translate(-2658.057 -8426.177)">
      <path id="Trazado_106958" data-name="Trazado 106958" d="M0,0H43.87l1.854,3.788H0Z" fill="#70089b"/>
      <path id="Trazado_106957" data-name="Trazado 106957" d="M0,0H50.87L47.89,3.946H0Z" transform="translate(0 52.935)" fill="#70089b"/>
    </g>
  </g>
</svg>
