<svg xmlns="http://www.w3.org/2000/svg" width="150.809" height="57" viewBox="0 0 150.809 57">
  <g id="Grupo_66018" data-name="Grupo 66018" transform="translate(2539.809 6858)">
    <path id="Trazado_110959" data-name="Trazado 110959" d="M28.12,57V49.486H0v-3.04H28.12V30.02H0V26.98H28.12V11.314H0V8.274H28.12V0H64.141A28.742,28.742,0,0,1,92.757,26.065H121V29.1H92.878A28.26,28.26,0,0,1,64.62,57Z" transform="translate(-2525 -6858)" fill="#fff"/>
    <path id="Trazado_110960" data-name="Trazado 110960" d="M1.238,0V-10.664H4.724a4.047,4.047,0,0,1,2.611.718A2.587,2.587,0,0,1,8.21-7.822,2.166,2.166,0,0,1,7.786-6.5a2.754,2.754,0,0,1-1.157.89,2.473,2.473,0,0,1,1.366.919,2.638,2.638,0,0,1,.5,1.615A2.852,2.852,0,0,1,7.566-.82,3.847,3.847,0,0,1,4.937,0ZM2.644-4.988V-1.15H4.966a2.236,2.236,0,0,0,1.549-.509,1.788,1.788,0,0,0,.568-1.4q0-1.926-2.095-1.926Zm0-1.128H4.768a2.226,2.226,0,0,0,1.476-.462A1.55,1.55,0,0,0,6.8-7.833a1.524,1.524,0,0,0-.513-1.281,2.518,2.518,0,0,0-1.56-.4H2.644Z" transform="translate(-2540 -6825)" fill="#fff"/>
    <path id="Trazado_110961" data-name="Trazado 110961" d="M9.082-3.384A3.923,3.923,0,0,1,7.833-.773,4.093,4.093,0,0,1,5.039.146,3.758,3.758,0,0,1,2.01-1.208,5.451,5.451,0,0,1,.872-4.834V-5.859A6.076,6.076,0,0,1,1.4-8.474a3.966,3.966,0,0,1,1.505-1.732,4.191,4.191,0,0,1,2.256-.6,3.853,3.853,0,0,1,2.725.948A3.971,3.971,0,0,1,9.082-7.236H7.668a3.064,3.064,0,0,0-.795-1.851,2.4,2.4,0,0,0-1.71-.573,2.516,2.516,0,0,0-2.113,1,4.577,4.577,0,0,0-.765,2.837v1.034A4.7,4.7,0,0,0,3.01-2.03,2.343,2.343,0,0,0,5.039-1a2.706,2.706,0,0,0,1.8-.531,2.947,2.947,0,0,0,.831-1.849Z" transform="translate(-2540 -6805)" fill="#fff"/>
    <path id="Trazado_110962" data-name="Trazado 110962" d="M6.651-2.6H2.481L1.545,0H.191l3.8-9.953H5.141L8.948,0H7.6ZM2.878-3.678H6.262l-1.7-4.655Z" transform="translate(-2540 -6846)" fill="#fff"/>
    <g id="Grupo_59332" data-name="Grupo 59332" transform="translate(-2398.478 -6839.478)">
      <text id="Y" transform="translate(0.478 15.478)" fill="#fff" font-size="14" font-family="Roboto-Regular, Roboto"><tspan x="0" y="0">Y</tspan></text>
    </g>
  </g>
</svg>
