<svg xmlns="http://www.w3.org/2000/svg" width="290.787" height="83.273" viewBox="0 0 290.787 83.273">
  <g id="Grupo_66047" data-name="Grupo 66047" transform="translate(1655.035 8437)">
    <g id="Grupo_59341" data-name="Grupo 59341" transform="translate(-1631.322 -8422)">
      <rect id="Rectángulo_9255" data-name="Rectángulo 9255" width="155.073" height="3.782" transform="translate(0 0.119)" fill="#70089b"/>
      <rect id="Rectángulo_9256" data-name="Rectángulo 9256" width="44.504" height="3.433" transform="translate(110.57 38.567)" fill="#70089b"/>
      <rect id="Rectángulo_9301" data-name="Rectángulo 9301" width="44.504" height="3.433" transform="translate(16.673 38.567)" fill="#70089b"/>
      <rect id="Rectángulo_9302" data-name="Rectángulo 9302" width="38.567" height="3.738" transform="translate(20.488 0) rotate(90)" fill="#70089b"/>
    </g>
    <g id="Trazado_111042" data-name="Trazado 111042" transform="translate(-1506.474 -8437)" fill="#e8e8e8">
      <path d="M 51.95338821411133 71.94091796875 L 8.181911468505859 71.94091796875 C 7.816551208496094 71.94091796875 7.451072216033936 71.93528747558594 7.085985660552979 71.92406463623047 C 23.64890480041504 64.36963653564453 33.70111083984375 51.36745071411133 33.70111083984375 37.00978088378906 C 33.70111083984375 22.47700119018555 22.96278381347656 9.005430221557617 5.895560264587402 1.573320269584656 C 6.655715942382812 1.524508714675903 7.418485641479492 1.499997496604919 8.181911468505859 1.499997496604919 L 51.95338821411133 1.499997496604919 C 60.74205017089844 1.499997496604919 69.15865325927734 4.755120754241943 75.65280151367188 10.66575145721436 C 82.10365295410156 16.53696632385254 86.13253021240234 24.52861213684082 86.99726867675781 33.16858291625977 L 87.13243103027344 34.51919555664062 L 88.48980712890625 34.51919555664062 L 110.37451171875 34.51919555664062 L 110.37451171875 35.43598175048828 L 88.67340087890625 35.43598175048828 L 87.1820068359375 35.43598175048828 L 87.17343139648438 36.92735290527344 C 87.14620208740234 41.66055297851562 86.19615936279297 46.24856567382812 84.34969329833984 50.56393432617188 C 82.56510925292969 54.73465728759766 80.02177429199219 58.47902679443359 76.79031372070312 61.69302749633789 C 73.55803680419922 64.90782928466797 69.79901885986328 67.43109130859375 65.61769866943359 69.19273376464844 C 61.28940200805664 71.01628875732422 56.69206619262695 71.94091796875 51.95338821411133 71.94091796875 Z" stroke="none"/>
      <path d="M 51.95338821411133 70.44092559814453 C 56.49097061157227 70.44092559814453 60.89235305786133 69.55589294433594 65.03530120849609 67.81040954589844 C 69.03836822509766 66.12387847900391 72.63742065429688 63.70785903930664 75.73252105712891 60.62947463989258 C 78.82687377929688 57.55186080932617 81.26212310791016 53.96679306030273 82.97063446044922 49.97385787963867 C 84.73802185058594 45.84332656860352 85.64738464355469 41.45094299316406 85.67345428466797 36.91874313354492 L 85.68386840820312 35.10792541503906 L 85.50472259521484 33.31797409057617 C 84.67693328857422 25.04724311828613 80.81955718994141 17.39649200439453 74.64315032958984 11.77507591247559 C 68.42580413818359 6.116392135620117 60.36775207519531 3.000009059906006 51.95338821411133 3.000009059906006 L 12.14916229248047 3.000009059906006 C 26.45196151733398 11.01414966583252 35.20110321044922 23.56130981445312 35.20110321044922 37.00979232788086 C 35.20110321044922 50.28740692138672 27.02365303039551 62.42341995239258 13.22800731658936 70.44092559814453 L 51.95338821411133 70.44092559814453 M 51.95338821411133 73.44092559814453 L 8.181903839111328 73.44092559814453 C 5.778769969940186 73.44092559814453 3.37563681602478 73.20729064941406 1.03925359249115 72.74658966064453 C 20.26053619384766 65.94573974609375 32.20110321044922 52.2529411315918 32.20110321044922 37.00979232788086 C 32.20110321044922 21.6494083404541 19.56200408935547 7.481192111968994 0.001503540086559951 0.914559006690979 C 2.67120361328125 0.3070589900016785 5.423470020294189 8.984375199361239e-06 8.181903839111328 8.984375199361239e-06 L 51.95338821411133 8.984375199361239e-06 C 61.1163215637207 8.984375199361239e-06 69.89150238037109 3.393875598907471 76.66245269775391 9.556426048278809 C 83.38773345947266 15.67740917205811 87.58810424804688 24.0099925994873 88.48980712890625 33.01921081542969 L 111.8745040893555 33.01921081542969 L 111.8745040893555 36.93599319458008 L 88.67340087890625 36.93599319458008 C 88.64501953125 41.87065887451172 87.65396881103516 46.65462493896484 85.72875213623047 51.15401077270508 C 83.86810302734375 55.50252532958984 81.21665191650391 59.40619277954102 77.84808349609375 62.75654220581055 C 74.47866821289062 66.10775756835938 70.55972290039062 68.73828887939453 66.20008850097656 70.57505798339844 C 61.68647003173828 72.47670745849609 56.8931884765625 73.44092559814453 51.95338821411133 73.44092559814453 Z" stroke="none" fill="#70089b"/>
    </g>
    <g id="Trazado_111041" data-name="Trazado 111041" transform="translate(-1579.15 -8411.644)" fill="#e8e8e8">
      <path d="M 1.50000011920929 55.39426040649414 L 1.50000011920929 2.523022174835205 L 46.7234001159668 27.1129150390625 L 47.92267990112305 27.7650146484375 L 48.6845703125 26.63231468200684 C 49.82247924804688 24.94061470031738 51.72034072875977 23.93064498901367 53.76137161254883 23.93064498901367 C 57.126708984375 23.93064498901367 59.86462020874023 26.65686416625977 59.86462020874023 30.00783538818359 C 59.86462020874023 33.35836410522461 57.126708984375 36.08422470092773 53.76137161254883 36.08422470092773 C 51.19419097900391 36.08422470092773 48.8855094909668 34.46977615356445 48.01651000976562 32.06686401367188 L 47.42288970947266 30.4254150390625 L 45.88941192626953 31.25918388366699 L 1.50000011920929 55.39426040649414 Z" stroke="none"/>
      <path d="M 3 5.046024322509766 L 3 52.87131118774414 L 46.97908020019531 28.95934104919434 L 3 5.046024322509766 M 53.76136779785156 25.43064880371094 C 52.22052001953125 25.43064880371094 50.78794479370117 26.19283866882324 49.92922210693359 27.4694938659668 L 48.64138031005859 29.38410949707031 L 49.42710113525391 31.55672645568848 C 50.08198928833008 33.36756896972656 51.82378768920898 34.584228515625 53.76136779785156 34.584228515625 C 56.29961013793945 34.584228515625 58.36462020874023 32.53125762939453 58.36462020874023 30.00782775878906 C 58.36462020874023 27.48396110534668 56.29961013793945 25.43064880371094 53.76136779785156 25.43064880371094 M 0 -7.62939453125e-06 L 47.43994140625 25.79512786865234 C 48.8046875 23.76617050170898 51.12664413452148 22.43064880371094 53.76136779785156 22.43064880371094 C 57.96064376831055 22.43064880371094 61.36462020874023 25.82277297973633 61.36462020874023 30.00782775878906 C 61.36462020874023 34.19210433959961 57.96064376831055 37.584228515625 53.76136779785156 37.584228515625 C 50.46717834472656 37.584228515625 47.661865234375 35.496826171875 46.60591888427734 32.57699584960938 L 0 57.91720581054688 L 0 -7.62939453125e-06 Z" stroke="none" fill="#70089b"/>
    </g>
    <path id="Trazado_111043" data-name="Trazado 111043" d="M10.98-3.187H5.344L4.359,0H-.035L6.223-17.062H10.09L16.395,0H11.977ZM6.328-6.363H10l-1.84-5.918Z" transform="translate(-1655 -8412)" fill="#12263f"/>
    <path id="Trazado_111044" data-name="Trazado 111044" d="M7.535-9.656l3.141-7.406h4.441L9.621-6.129V0H5.449V-6.129L-.035-17.062H4.383Z" transform="translate(-1379.365 -8396)" fill="#12263f"/>
  </g>
</svg>
