<svg xmlns="http://www.w3.org/2000/svg" width="780" height="174" viewBox="0 0 780 174">
  <g id="Grupo_66015" data-name="Grupo 66015" transform="translate(-423 -2047)">
    <path id="Trazado_110951" data-name="Trazado 110951" d="M0,0H780V30H0Z" transform="translate(423 2047)" fill="#43babe"/>
    <path id="Trazado_110933" data-name="Trazado 110933" d="M9.15-2.656h-4.7L3.633,0H-.029L5.186-14.219H8.408L13.662,0H9.98ZM5.273-5.3H8.33L6.8-10.234ZM25.459-8.066h3.33v2.822h-3.33v3.818H22.383V-5.244h-3.34V-8.066h3.34v-3.711h3.076ZM35.342,0V-14.219h5.107a7.232,7.232,0,0,1,4.175,1.006,3.347,3.347,0,0,1,1.431,2.92,3.383,3.383,0,0,1-.508,1.885,2.959,2.959,0,0,1-1.494,1.152,3,3,0,0,1,1.709,1.094,3.18,3.18,0,0,1,.6,1.953,3.765,3.765,0,0,1-1.323,3.14A6.3,6.3,0,0,1,41.113,0ZM38.77-6.045v3.408h2.246a2.136,2.136,0,0,0,1.426-.425,1.487,1.487,0,0,0,.5-1.2,1.576,1.576,0,0,0-1.768-1.787Zm0-2.246h1.787a2.539,2.539,0,0,0,1.6-.411,1.46,1.46,0,0,0,.479-1.185,1.533,1.533,0,0,0-.518-1.3,2.77,2.77,0,0,0-1.67-.4H38.77Zm23.672,1.24H53.4V-9.59h9.043Zm0,4.287H53.4V-5.3h9.043ZM69.912,0V-14.219H75.02a7.232,7.232,0,0,1,4.175,1.006,3.347,3.347,0,0,1,1.431,2.92,3.383,3.383,0,0,1-.508,1.885,2.959,2.959,0,0,1-1.494,1.152,3,3,0,0,1,1.709,1.094,3.18,3.18,0,0,1,.6,1.953A3.765,3.765,0,0,1,79.6-1.069,6.3,6.3,0,0,1,75.684,0ZM73.34-6.045v3.408h2.246a2.136,2.136,0,0,0,1.426-.425,1.487,1.487,0,0,0,.5-1.2,1.576,1.576,0,0,0-1.768-1.787Zm0-2.246h1.787a2.539,2.539,0,0,0,1.6-.411,1.46,1.46,0,0,0,.479-1.185,1.533,1.533,0,0,0-.518-1.3,2.77,2.77,0,0,0-1.67-.4H73.34Zm20.234.225H96.9v2.822h-3.33v3.818H90.5V-5.244h-3.34V-8.066H90.5v-3.711h3.076Zm17.959,5.41h-4.7L106.016,0h-3.662l5.215-14.219h3.223L116.045,0h-3.682ZM107.656-5.3h3.057l-1.533-4.932Z" transform="translate(757 2070)" fill="#fff"/>
    <g id="Trazado_110934" data-name="Trazado 110934" transform="translate(423 2077)" fill="#fff">
      <path d="M 779.5 143.5 L 0.5 143.5 L 0.5 0.5 L 779.5 0.5 L 779.5 143.5 Z" stroke="none"/>
      <path d="M 1 1 L 1 143 L 779 143 L 779 1 L 1 1 M 0 0 L 780 0 L 780 144 L 0 144 L 0 0 Z" stroke="none" fill="#43babe"/>
    </g>
    <path id="Trazado_110935" data-name="Trazado 110935" d="M0,0H32V41H0Z" transform="translate(465 2145)" fill="#43babe"/>
    <path id="Trazado_110936" data-name="Trazado 110936" d="M1.9,0V-16.352H7.244a6.205,6.205,0,0,1,4,1.1,3.967,3.967,0,0,1,1.342,3.257,3.321,3.321,0,0,1-.651,2.027A4.223,4.223,0,0,1,10.164-8.6a3.792,3.792,0,0,1,2.094,1.409,4.045,4.045,0,0,1,.769,2.476A4.373,4.373,0,0,1,11.6-1.258,5.9,5.9,0,0,1,7.569,0ZM4.054-7.648v5.885h3.56A3.428,3.428,0,0,0,9.99-2.544a2.741,2.741,0,0,0,.87-2.151q0-2.954-3.212-2.954Zm0-1.729H7.311a3.414,3.414,0,0,0,2.263-.709,2.377,2.377,0,0,0,.848-1.925,2.338,2.338,0,0,0-.786-1.964,3.861,3.861,0,0,0-2.392-.613H4.054Z" transform="translate(474 2172)" fill="#12263f"/>
    <path id="Trazado_110937" data-name="Trazado 110937" d="M0,0H32V41H0Z" transform="translate(889 2098)" fill="#43babe"/>
    <path id="Trazado_110938" data-name="Trazado 110938" d="M1.9,0V-16.352H7.244a6.205,6.205,0,0,1,4,1.1,3.967,3.967,0,0,1,1.342,3.257,3.321,3.321,0,0,1-.651,2.027A4.223,4.223,0,0,1,10.164-8.6a3.792,3.792,0,0,1,2.094,1.409,4.045,4.045,0,0,1,.769,2.476A4.373,4.373,0,0,1,11.6-1.258,5.9,5.9,0,0,1,7.569,0ZM4.054-7.648v5.885h3.56A3.428,3.428,0,0,0,9.99-2.544a2.741,2.741,0,0,0,.87-2.151q0-2.954-3.212-2.954Zm0-1.729H7.311a3.414,3.414,0,0,0,2.263-.709,2.377,2.377,0,0,0,.848-1.925,2.338,2.338,0,0,0-.786-1.964,3.861,3.861,0,0,0-2.392-.613H4.054Z" transform="translate(898 2126)" fill="#12263f"/>
    <path id="Trazado_110939" data-name="Trazado 110939" d="M0,0H32V42H0Z" transform="translate(465 2097)" fill="#43babe"/>
    <path id="Trazado_110940" data-name="Trazado 110940" d="M10.452-4.093H3.9L2.428,0H.3L6.273-15.641h1.8L14.062,0H11.945ZM4.522-5.779H9.84L7.176-13.095Z" transform="translate(474 2126)" fill="#12263f"/>
    <path id="Trazado_110941" data-name="Trazado 110941" d="M0,0H32V42H0Z" transform="translate(889 2146)" fill="#43babe"/>
    <path id="Trazado_110942" data-name="Trazado 110942" d="M10.452-4.093H3.9L2.428,0H.3L6.273-15.641h1.8L14.062,0H11.945ZM4.522-5.779H9.84L7.176-13.095Z" transform="translate(898 2175)" fill="#12263f"/>
    <path id="Trazado_110943" data-name="Trazado 110943" d="M0,0H32V42H0Z" transform="translate(681 2121)" fill="#43babe"/>
    <path id="Trazado_110944" data-name="Trazado 110944" d="M6.585-7.788l4.082-7.853h2.342L7.616-5.833V0H5.554V-5.833L.161-15.641H2.524Z" transform="translate(691 2150)" fill="#12263f"/>
    <path id="Trazado_110945" data-name="Trazado 110945" d="M0,0H32V42H0Z" transform="translate(1105 2121)" fill="#43babe"/>
    <path id="Trazado_110946" data-name="Trazado 110946" d="M6.585-7.788l4.082-7.853h2.342L7.616-5.833V0H5.554V-5.833L.161-15.641H2.524Z" transform="translate(1115 2150)" fill="#12263f"/>
    <path id="Trazado_110947" data-name="Trazado 110947" d="M0,0H44V9H0Z" transform="translate(779 2129)" fill="#0155a0"/>
    <path id="Trazado_110948" data-name="Trazado 110948" d="M0,0H44V9H0Z" transform="translate(779 2145)" fill="#0155a0"/>
    <path id="Trazado_110949" data-name="Trazado 110949" d="M56.322,98.708H2c21.107-8.635,34.745-27.855,34.745-48.965C36.744,27.76,22.321,8.235,0,0H55.492a49.774,49.774,0,0,1,49.481,44.38h53.506v5.264H105.261v.125A48.9,48.9,0,0,1,56.322,98.708Z" transform="translate(522.521 2095.646)" fill="#70089b"/>
    <path id="Trazado_110952" data-name="Trazado 110952" d="M0,0H69.667V5H0Z" transform="translate(497 2117.354)" fill="#70089b"/>
    <path id="Trazado_110953" data-name="Trazado 110953" d="M0,0H69.667V6H0Z" transform="translate(497 2161.354)" fill="#70089b"/>
    <path id="Trazado_110950" data-name="Trazado 110950" d="M56.322,98.708H2c21.107-8.635,34.745-27.855,34.745-48.965C36.744,27.76,22.321,8.235,0,0H55.492a49.778,49.778,0,0,1,49.363,43.38h53.624v5.264h-53.23c.009.4.013.782.013,1.125A48.9,48.9,0,0,1,56.322,98.708Z" transform="translate(946.521 2095.646)" fill="#70089b"/>
    <path id="Trazado_110954" data-name="Trazado 110954" d="M0,0H64V5H0Z" transform="translate(921 2117.354)" fill="#70089b"/>
    <path id="Trazado_110955" data-name="Trazado 110955" d="M0,0H64V6H0Z" transform="translate(921 2161.354)" fill="#70089b"/>
  </g>
</svg>
