<svg xmlns="http://www.w3.org/2000/svg" width="428" height="368" viewBox="0 0 428 368">
  <g id="Grupo_66014" data-name="Grupo 66014" transform="translate(1590 6312)">
    <path id="Trazado_110615" data-name="Trazado 110615" d="M22,0H406a22,22,0,0,1,22,22V346a22,22,0,0,1-22,22H22A22,22,0,0,1,0,346V22A22,22,0,0,1,22,0Z" transform="translate(-1590 -6312)" fill="#fff"/>
    <path id="Trazado_110640" data-name="Trazado 110640" d="M5.576-14.219,8.75-4.326l3.164-9.893h4.512V0H12.988V-3.32l.332-6.8L9.883,0H7.617L4.17-10.127,4.5-3.32V0H1.074V-14.219ZM24.4,0a3.716,3.716,0,0,1-.312-.947A3.06,3.06,0,0,1,21.553.2a3.749,3.749,0,0,1-2.539-.9,2.875,2.875,0,0,1-1.045-2.271,2.955,2.955,0,0,1,1.27-2.6,6.468,6.468,0,0,1,3.691-.879h1.016v-.559q0-1.462-1.26-1.462a1.03,1.03,0,0,0-1.172,1.158H18.223a2.95,2.95,0,0,1,1.3-2.487,5.479,5.479,0,0,1,3.325-.956,4.8,4.8,0,0,1,3.193.986,3.429,3.429,0,0,1,1.2,2.705v4.678A4.79,4.79,0,0,0,27.7-.166V0ZM22.344-2.148a1.836,1.836,0,0,0,1.021-.264,1.653,1.653,0,0,0,.581-.6V-4.7h-.957q-1.719,0-1.719,1.543a.942.942,0,0,0,.3.728A1.1,1.1,0,0,0,22.344-2.148ZM38.877-5.205a6.372,6.372,0,0,1-1.108,3.931A3.554,3.554,0,0,1,34.775.2,3.046,3.046,0,0,1,32.383-.869V4.063H29.092V-10.566h3.076l.1.977a3.046,3.046,0,0,1,2.49-1.172,3.582,3.582,0,0,1,3.037,1.44,6.45,6.45,0,0,1,1.084,3.96ZM35.586-5.41q0-2.812-1.641-2.812a1.549,1.549,0,0,0-1.562.84v4.16a1.6,1.6,0,0,0,1.582.879q1.572,0,1.621-2.715ZM46.279,0a3.716,3.716,0,0,1-.312-.947A3.06,3.06,0,0,1,43.428.2a3.749,3.749,0,0,1-2.539-.9,2.875,2.875,0,0,1-1.045-2.271,2.955,2.955,0,0,1,1.27-2.6A6.468,6.468,0,0,1,44.8-6.455H45.82v-.559q0-1.462-1.26-1.462a1.03,1.03,0,0,0-1.172,1.158H40.1a2.95,2.95,0,0,1,1.3-2.487,5.479,5.479,0,0,1,3.325-.956,4.8,4.8,0,0,1,3.193.986,3.429,3.429,0,0,1,1.2,2.705v4.678A4.79,4.79,0,0,0,49.57-.166V0ZM44.219-2.148a1.836,1.836,0,0,0,1.021-.264,1.653,1.653,0,0,0,.581-.6V-4.7h-.957q-1.719,0-1.719,1.543a.942.942,0,0,0,.3.728A1.1,1.1,0,0,0,44.219-2.148Z" transform="translate(-1396 -6258)" fill="#12263f"/>
    <path id="Trazado_110622" data-name="Trazado 110622" d="M0,0H71V54H0Z" transform="translate(-1513 -6090)" fill="#68b1f2"/>
    <path id="Trazado_110616" data-name="Trazado 110616" d="M0,0H71V54H0Z" transform="translate(-1438 -6090)" fill="#68b1f2"/>
    <path id="Trazado_110617" data-name="Trazado 110617" d="M0,0H71V54H0Z" transform="translate(-1363 -6090)" fill="#68b1f2"/>
    <path id="Trazado_110618" data-name="Trazado 110618" d="M0,0H71V54H0Z" transform="translate(-1288 -6090)" fill="#68b1f2"/>
    <path id="Trazado_110623" data-name="Trazado 110623" d="M0,0H71V54H0Z" transform="translate(-1513 -6151)" fill="#0155a0"/>
    <path id="Trazado_110624" data-name="Trazado 110624" d="M0,0H71V54H0Z" transform="translate(-1438 -6151)" fill="#0155a0"/>
    <path id="Trazado_110625" data-name="Trazado 110625" d="M0,0H71V54H0Z" transform="translate(-1363 -6151)" fill="#0155a0"/>
    <path id="Trazado_110626" data-name="Trazado 110626" d="M0,0H71V54H0Z" transform="translate(-1288 -6151)" fill="#0155a0"/>
    <path id="Trazado_110632" data-name="Trazado 110632" d="M8.078-4.852a6.61,6.61,0,0,1-.867,3.773A3.084,3.084,0,0,1,4.5.156,3.107,3.107,0,0,1,1.8-1.051,6.274,6.274,0,0,1,.9-4.656v-1.93a6.463,6.463,0,0,1,.867-3.727,3.108,3.108,0,0,1,2.719-1.219,3.136,3.136,0,0,1,2.7,1.176,6.237,6.237,0,0,1,.891,3.629ZM6.633-6.828A5.3,5.3,0,0,0,6.117-9.5a1.775,1.775,0,0,0-1.633-.84,1.751,1.751,0,0,0-1.617.836,5.171,5.171,0,0,0-.523,2.57v2.313A5.381,5.381,0,0,0,2.879-1.9,1.771,1.771,0,0,0,4.5-1.023a1.747,1.747,0,0,0,1.59-.828,5.186,5.186,0,0,0,.543-2.609Zm10.43,1.977A6.61,6.61,0,0,1,16.2-1.078,3.084,3.084,0,0,1,13.484.156a3.107,3.107,0,0,1-2.7-1.207,6.274,6.274,0,0,1-.906-3.605v-1.93a6.463,6.463,0,0,1,.867-3.727,3.108,3.108,0,0,1,2.719-1.219,3.136,3.136,0,0,1,2.7,1.176,6.237,6.237,0,0,1,.891,3.629ZM15.617-6.828A5.3,5.3,0,0,0,15.1-9.5a1.775,1.775,0,0,0-1.633-.84,1.751,1.751,0,0,0-1.617.836,5.171,5.171,0,0,0-.523,2.57v2.313A5.381,5.381,0,0,0,11.863-1.9a1.771,1.771,0,0,0,1.621.879,1.747,1.747,0,0,0,1.59-.828,5.186,5.186,0,0,0,.543-2.609Z" transform="translate(-1483 -6163)" fill="#12263f"/>
    <path id="Trazado_110633" data-name="Trazado 110633" d="M8.078-4.852a6.61,6.61,0,0,1-.867,3.773A3.084,3.084,0,0,1,4.5.156,3.107,3.107,0,0,1,1.8-1.051,6.274,6.274,0,0,1,.9-4.656v-1.93a6.463,6.463,0,0,1,.867-3.727,3.108,3.108,0,0,1,2.719-1.219,3.136,3.136,0,0,1,2.7,1.176,6.237,6.237,0,0,1,.891,3.629ZM6.633-6.828A5.3,5.3,0,0,0,6.117-9.5a1.775,1.775,0,0,0-1.633-.84,1.751,1.751,0,0,0-1.617.836,5.171,5.171,0,0,0-.523,2.57v2.313A5.381,5.381,0,0,0,2.879-1.9,1.771,1.771,0,0,0,4.5-1.023a1.747,1.747,0,0,0,1.59-.828,5.186,5.186,0,0,0,.543-2.609ZM14.68,0H13.227V-9.633l-2.914,1.07V-9.875l4.141-1.555h.227Z" transform="translate(-1409 -6163)" fill="#12263f"/>
    <path id="Trazado_110634" data-name="Trazado 110634" d="M5.7,0H4.242V-9.633L1.328-8.562V-9.875L5.469-11.43H5.7ZM14.68,0H13.227V-9.633l-2.914,1.07V-9.875l4.141-1.555h.227Z" transform="translate(-1335 -6163)" fill="#12263f"/>
    <path id="Trazado_110635" data-name="Trazado 110635" d="M5.7,0H4.242V-9.633L1.328-8.562V-9.875L5.469-11.43H5.7ZM17.063-4.852A6.61,6.61,0,0,1,16.2-1.078,3.084,3.084,0,0,1,13.484.156a3.107,3.107,0,0,1-2.7-1.207,6.274,6.274,0,0,1-.906-3.605v-1.93a6.463,6.463,0,0,1,.867-3.727,3.108,3.108,0,0,1,2.719-1.219,3.136,3.136,0,0,1,2.7,1.176,6.237,6.237,0,0,1,.891,3.629ZM15.617-6.828A5.3,5.3,0,0,0,15.1-9.5a1.775,1.775,0,0,0-1.633-.84,1.751,1.751,0,0,0-1.617.836,5.171,5.171,0,0,0-.523,2.57v2.313A5.381,5.381,0,0,0,11.863-1.9a1.771,1.771,0,0,0,1.621.879,1.747,1.747,0,0,0,1.59-.828,5.186,5.186,0,0,0,.543-2.609Z" transform="translate(-1262 -6163)" fill="#12263f"/>
    <path id="Trazado_110638" data-name="Trazado 110638" d="M8.078-4.852a6.61,6.61,0,0,1-.867,3.773A3.084,3.084,0,0,1,4.5.156,3.107,3.107,0,0,1,1.8-1.051,6.274,6.274,0,0,1,.9-4.656v-1.93a6.463,6.463,0,0,1,.867-3.727,3.108,3.108,0,0,1,2.719-1.219,3.136,3.136,0,0,1,2.7,1.176,6.237,6.237,0,0,1,.891,3.629ZM6.633-6.828A5.3,5.3,0,0,0,6.117-9.5a1.775,1.775,0,0,0-1.633-.84,1.751,1.751,0,0,0-1.617.836,5.171,5.171,0,0,0-.523,2.57v2.313A5.381,5.381,0,0,0,2.879-1.9,1.771,1.771,0,0,0,4.5-1.023a1.747,1.747,0,0,0,1.59-.828,5.186,5.186,0,0,0,.543-2.609Z" transform="translate(-1535 -6117)" fill="#12263f"/>
    <path id="Trazado_110627" data-name="Trazado 110627" d="M8.078-4.852a6.61,6.61,0,0,1-.867,3.773A3.084,3.084,0,0,1,4.5.156,3.107,3.107,0,0,1,1.8-1.051,6.274,6.274,0,0,1,.9-4.656v-1.93a6.463,6.463,0,0,1,.867-3.727,3.108,3.108,0,0,1,2.719-1.219,3.136,3.136,0,0,1,2.7,1.176,6.237,6.237,0,0,1,.891,3.629ZM6.633-6.828A5.3,5.3,0,0,0,6.117-9.5a1.775,1.775,0,0,0-1.633-.84,1.751,1.751,0,0,0-1.617.836,5.171,5.171,0,0,0-.523,2.57v2.313A5.381,5.381,0,0,0,2.879-1.9,1.771,1.771,0,0,0,4.5-1.023a1.747,1.747,0,0,0,1.59-.828,5.186,5.186,0,0,0,.543-2.609Z" transform="translate(-1481 -6117)" fill="#fff"/>
    <path id="Trazado_110628" data-name="Trazado 110628" d="M8.4,0H.945V-1.039L4.883-5.414A9.354,9.354,0,0,0,6.09-7.027a2.693,2.693,0,0,0,.332-1.285,2.041,2.041,0,0,0-.539-1.461,1.885,1.885,0,0,0-1.437-.57A2.232,2.232,0,0,0,2.77-9.73a2.343,2.343,0,0,0-.6,1.707H.727a3.355,3.355,0,0,1,1.012-2.539,3.751,3.751,0,0,1,2.707-.969,3.6,3.6,0,0,1,2.508.832,2.838,2.838,0,0,1,.922,2.215q0,1.68-2.141,4L2.688-1.18H8.4Z" transform="translate(-1407 -6117)" fill="#fff"/>
    <path id="Trazado_110629" data-name="Trazado 110629" d="M6.617-11.383v1.227H6.352a3.805,3.805,0,0,0-2.687,1A4.161,4.161,0,0,0,2.508-6.43,3.085,3.085,0,0,1,4.961-7.461,2.95,2.95,0,0,1,7.332-6.414a4.038,4.038,0,0,1,.887,2.7A4.025,4.025,0,0,1,7.262-.9,3.3,3.3,0,0,1,4.7.156,3.247,3.247,0,0,1,2.047-1.1a4.97,4.97,0,0,1-1.016-3.23v-.555a7.488,7.488,0,0,1,1.34-4.8,4.921,4.921,0,0,1,3.988-1.7Zm-1.9,5.125a2.306,2.306,0,0,0-1.367.445A2.32,2.32,0,0,0,2.484-4.7v.531A3.731,3.731,0,0,0,3.117-1.9,1.9,1.9,0,0,0,4.7-1.039,1.838,1.838,0,0,0,6.23-1.758a2.982,2.982,0,0,0,.559-1.883,2.983,2.983,0,0,0-.566-1.895A1.816,1.816,0,0,0,4.719-6.258Z" transform="translate(-1330 -6117)" fill="#fff"/>
    <path id="Trazado_110630" data-name="Trazado 110630" d="M7.047-3.82H8.625v1.18H7.047V0H5.594V-2.641H.414v-.852l5.094-7.883H7.047Zm-4.992,0H5.594V-9.4l-.172.313Z" transform="translate(-1257 -6117)" fill="#fff"/>
    <path id="Trazado_110639" data-name="Trazado 110639" d="M5.7,0H4.242V-9.633L1.328-8.562V-9.875L5.469-11.43H5.7Z" transform="translate(-1535 -6056)" fill="#12263f"/>
    <path id="Trazado_110631" data-name="Trazado 110631" d="M5.7,0H4.242V-9.633L1.328-8.562V-9.875L5.469-11.43H5.7Z" transform="translate(-1481 -6056)" fill="#fff"/>
    <path id="Trazado_110619" data-name="Trazado 110619" d="M3.047-6.391H4.133A2.387,2.387,0,0,0,5.742-6.93a1.8,1.8,0,0,0,.586-1.414,1.764,1.764,0,0,0-1.992-2,2.072,2.072,0,0,0-1.5.535,1.873,1.873,0,0,0-.559,1.418H.836a2.9,2.9,0,0,1,.988-2.246,3.6,3.6,0,0,1,2.512-.895,3.558,3.558,0,0,1,2.523.852,3.076,3.076,0,0,1,.914,2.367,2.5,2.5,0,0,1-.48,1.438A2.9,2.9,0,0,1,5.984-5.836a2.8,2.8,0,0,1,1.449.984,2.734,2.734,0,0,1,.512,1.68,3.1,3.1,0,0,1-1,2.43,3.745,3.745,0,0,1-2.6.9A3.844,3.844,0,0,1,1.738-.711,2.877,2.877,0,0,1,.734-3H2.188a1.859,1.859,0,0,0,.586,1.438,2.229,2.229,0,0,0,1.57.539,2.187,2.187,0,0,0,1.6-.547A2.108,2.108,0,0,0,6.5-3.141a1.912,1.912,0,0,0-.609-1.523,2.655,2.655,0,0,0-1.758-.547H3.047Z" transform="translate(-1407 -6056)" fill="#fff"/>
    <path id="Trazado_110620" data-name="Trazado 110620" d="M8.289-10.562,3.578,0H2.063l4.7-10.187H.6v-1.187H8.289Z" transform="translate(-1330 -6056)" fill="#fff"/>
    <path id="Trazado_110621" data-name="Trazado 110621" d="M1.609-5.7l.578-5.672H8.016v1.336h-4.6l-.344,3.1a3.671,3.671,0,0,1,1.9-.492A3.138,3.138,0,0,1,7.438-6.4a4.026,4.026,0,0,1,.914,2.777A3.886,3.886,0,0,1,7.4-.855,3.46,3.46,0,0,1,4.75.156,3.6,3.6,0,0,1,2.289-.68,3.337,3.337,0,0,1,1.2-2.992H2.57a2.3,2.3,0,0,0,.7,1.473,2.162,2.162,0,0,0,1.484.5,1.95,1.95,0,0,0,1.582-.687,2.874,2.874,0,0,0,.574-1.9,2.638,2.638,0,0,0-.621-1.832,2.113,2.113,0,0,0-1.652-.691,2.383,2.383,0,0,0-1.484.414l-.383.313Z" transform="translate(-1257 -6056)" fill="#fff"/>
    <path id="Trazado_110636" data-name="Trazado 110636" d="M35,34,0,0" transform="translate(-1544.5 -6182)" fill="none" stroke="#0155a0" stroke-width="3"/>
    <path id="Trazado_110641" data-name="Trazado 110641" d="M9.688-3.609A4.185,4.185,0,0,1,8.355-.824a4.365,4.365,0,0,1-2.98.98,4.008,4.008,0,0,1-3.23-1.445A5.815,5.815,0,0,1,.93-5.156V-6.25A6.481,6.481,0,0,1,1.5-9.039,4.231,4.231,0,0,1,3.1-10.887a4.47,4.47,0,0,1,2.406-.645A4.11,4.11,0,0,1,8.414-10.52a4.235,4.235,0,0,1,1.273,2.8H8.18a3.268,3.268,0,0,0-.848-1.975A2.565,2.565,0,0,0,5.508-10.3,2.684,2.684,0,0,0,3.254-9.241a4.882,4.882,0,0,0-.816,3.026v1.1a5.018,5.018,0,0,0,.773,2.948A2.5,2.5,0,0,0,5.375-1.07a2.887,2.887,0,0,0,1.918-.566A3.143,3.143,0,0,0,8.18-3.609Z" transform="translate(-1556 -6161)" fill="#0155a0"/>
    <path id="Trazado_110637" data-name="Trazado 110637" d="M1.32,0V-11.375H5.039a4.317,4.317,0,0,1,2.785.766,2.759,2.759,0,0,1,.934,2.266A2.31,2.31,0,0,1,8.3-6.934a2.938,2.938,0,0,1-1.234.949A2.638,2.638,0,0,1,8.527-5a2.814,2.814,0,0,1,.535,1.723A3.042,3.042,0,0,1,8.07-.875,4.1,4.1,0,0,1,5.266,0Zm1.5-5.32v4.094H5.3A2.385,2.385,0,0,0,6.949-1.77a1.907,1.907,0,0,0,.605-1.5q0-2.055-2.234-2.055Zm0-1.2H5.086A2.375,2.375,0,0,0,6.66-7.017a1.654,1.654,0,0,0,.59-1.339A1.626,1.626,0,0,0,6.7-9.722a2.686,2.686,0,0,0-1.664-.427H2.82ZM17.563-2.977H12.8L11.727,0H10.18l4.344-11.375h1.313L20.188,0H18.648ZM13.25-4.2h3.867L15.18-9.523Z" transform="translate(-1535 -6182)" fill="#0155a0"/>
  </g>
</svg>
