<svg xmlns="http://www.w3.org/2000/svg" width="240.191" height="101.192" viewBox="0 0 240.191 101.192">
  <g id="Grupo_66047" data-name="Grupo 66047" transform="translate(3259.04 8410.723)">
    <path id="Trazado_111042" data-name="Trazado 111042" d="M13.965-7.554a8.826,8.826,0,0,1-1.682,5.776A5.813,5.813,0,0,1,7.541.254,5.844,5.844,0,0,1,2.768-1.79,8.812,8.812,0,0,1,1.079-7.554v-3.377a8.826,8.826,0,0,1,1.682-5.776,5.827,5.827,0,0,1,4.754-2.031,5.83,5.83,0,0,1,4.761,2.044,8.834,8.834,0,0,1,1.688,5.776ZM9.687-11.477a6.593,6.593,0,0,0-.521-2.977,1.74,1.74,0,0,0-1.65-.984,1.7,1.7,0,0,0-1.606.914,6.21,6.21,0,0,0-.54,2.768v4.723a6.642,6.642,0,0,0,.521,3.028,1.746,1.746,0,0,0,1.65.958A1.723,1.723,0,0,0,9.153-3.98a6.341,6.341,0,0,0,.533-2.926Z" transform="translate(-3257 -8329)" fill="#12263f"/>
    <path id="Trazado_111043" data-name="Trazado 111043" d="M12.353-3.586H6.012L4.9,0H-.04L7-19.2h4.351L18.444,0h-4.97ZM7.119-7.159h4.126l-2.07-6.658Z" transform="translate(-3259 -8383)" fill="#12263f"/>
    <path id="Trazado_111044" data-name="Trazado 111044" d="M8.163-10.461l3.4-8.023h4.812L10.423-6.64V0H5.9V-6.64L-.038-18.484H4.748Z" transform="translate(-3035.226 -8351.846)" fill="#12263f"/>
    <g id="Grupo_59341" data-name="Grupo 59341" transform="translate(-3220.141 -8394.987)">
      <rect id="Rect치ngulo_9255" data-name="Rect치ngulo 9255" width="61.321" height="4.589" fill="#70089b"/>
      <rect id="Rect치ngulo_9256" data-name="Rect치ngulo 9256" width="61.321" height="4.906" transform="translate(0 60.98)" fill="#70089b"/>
    </g>
    <g id="Trazado_111041" data-name="Trazado 111041" transform="translate(-3200.466 -8410.723)" fill="#e8e8e8">
      <path d="M 71.58419799804688 99.69241333007812 L 11.27251052856445 99.69241333007812 C 9.96793270111084 99.69241333007812 8.663393020629883 99.64095306396484 7.364946365356445 99.53861236572266 C 31.26373863220215 89.38518524169922 45.86819839477539 71.16393280029297 45.86819839477539 50.99491119384766 C 45.86819839477539 30.61063575744629 30.31772041320801 11.74455451965332 5.789660453796387 1.803353071212769 C 7.605945110321045 1.601596713066101 9.437752723693848 1.500015377998352 11.27251052856445 1.500015377998352 L 71.58419799804688 1.500015377998352 C 83.83553314208984 1.500015377998352 95.568115234375 6.037557125091553 104.6206588745117 14.27676582336426 C 113.6127014160156 22.46095275878906 119.2286758422852 33.60149383544922 120.4340515136719 45.64618301391602 L 120.569221496582 46.99680709838867 L 121.9265975952148 46.99680709838867 L 152.6484069824219 46.99680709838867 L 152.6484069824219 49.39320373535156 L 122.1795120239258 49.39320373535156 L 120.6880722045898 49.39320373535156 L 120.6795349121094 50.88462066650391 C 120.6417617797852 57.48216247558594 119.3174514770508 63.87770462036133 116.7434310913086 69.89360046386719 C 114.2558059692383 75.70753479003906 110.7105712890625 80.92699432373047 106.2062377929688 85.40699768066406 C 101.7008666992188 89.88809967041016 96.46094512939453 93.40541076660156 90.63207244873047 95.86124420166016 C 84.59817504882812 98.40341186523438 78.18952941894531 99.69241333007812 71.58419799804688 99.69241333007812 Z" stroke="none"/>
      <path d="M 71.58419799804688 98.19239807128906 C 77.98845672607422 98.19239807128906 84.20113372802734 96.94300842285156 90.04965209960938 94.47894287109375 C 95.70026397705078 92.09820556640625 100.7802429199219 88.68814086914062 105.1484603881836 84.34346008300781 C 109.5156707763672 79.99983215332031 112.9528045654297 74.93965911865234 115.364372253418 69.30352783203125 C 117.8593063354492 63.47246551513672 119.1429138183594 57.27255249023438 119.1795425415039 50.87602996826172 L 119.1941833496094 48.3203010559082 L 118.941520690918 45.79555130004883 C 117.7730865478516 34.12009429931641 112.3285903930664 23.32048606872559 103.6110000610352 15.38609409332275 C 94.83523559570312 7.398811340332031 83.46124267578125 3.000007152557373 71.58419799804688 3.000007152557373 L 12.13962078094482 3.000007152557373 C 33.87295913696289 13.67025661468506 47.36819458007812 31.65280342102051 47.36819458007812 50.99489974975586 C 47.36819458007812 70.076416015625 34.77238464355469 87.43270111083984 13.78484535217285 98.19239807128906 L 71.58419799804688 98.19239807128906 M 71.58419799804688 101.1923980712891 L 11.27250003814697 101.1923980712891 C 7.961130619049072 101.1923980712891 4.649804592132568 100.8705291748047 1.430521845817566 100.2356796264648 C 27.91541290283203 90.86483001708984 44.36819458007812 71.99761962890625 44.36819458007812 50.99489974975586 C 44.36819458007812 29.83028984069824 26.95230484008789 10.30837631225586 -0.0008694484713487327 1.26057243347168 C 3.677674055099487 0.4234637320041656 7.470565319061279 7.198168077593436e-06 11.27250003814697 7.198168077593436e-06 L 71.58419799804688 7.198168077593436e-06 C 84.20980072021484 7.198168077593436e-06 96.30093383789062 4.676290035247803 105.6303024291992 13.16744232177734 C 114.8967819213867 21.60139846801758 120.6842575073242 33.08285522460938 121.9266052246094 45.49681091308594 L 154.1484069824219 45.49681091308594 L 154.1484069824219 50.89320373535156 L 122.1794967651367 50.89320373535156 C 122.1405639648438 57.69229125976562 120.7752380371094 64.28379058837891 118.1224975585938 70.48365783691406 C 115.5587844848633 76.47539520263672 111.9054565429688 81.85415649414062 107.2640228271484 86.47052764892578 C 102.6214599609375 91.08807373046875 97.22158813476562 94.71263885498047 91.21445465087891 97.24357604980469 C 84.99521636962891 99.86383056640625 78.39063262939453 101.1923980712891 71.58419799804688 101.1923980712891 Z" stroke="none" fill="#70089b"/>
    </g>
  </g>
</svg>
