<svg xmlns="http://www.w3.org/2000/svg" width="362.738" height="136.745" viewBox="0 0 362.738 136.745">
  <g id="Grupo_66047" data-name="Grupo 66047" transform="translate(1143.035 8485.745)">
    <path id="Trazado_111050" data-name="Trazado 111050" d="M7.535-9.656l3.141-7.406h4.441L9.621-6.129V0H5.449V-6.129L-.035-17.062H4.383ZM33.4-8.461H22.547v-3.047H33.4Zm0,5.145H22.547V-6.363H33.4Zm18.656.129H46.418L45.434,0H41.039L47.3-17.062h3.867L57.469,0H53.051ZM47.4-6.363H51.07l-1.84-5.918Z" transform="translate(-837.766 -8384)" fill="#12263f"/>
    <g id="Trazado_111043" data-name="Trazado 111043" transform="translate(-1015.995 -8441) rotate(90)" fill="none">
      <path d="M46,0,92,63.9H0Z" stroke="none"/>
      <path d="M 46 6.846302032470703 L 7.808380126953125 59.89667892456055 L 84.19161987304688 59.89667892456055 L 46 6.846302032470703 M 46 3.814697265625e-06 L 92 63.89667892456055 L 0 63.89667892456055 L 46 3.814697265625e-06 Z" stroke="none" fill="#70089b"/>
    </g>
    <g id="Trazado_111044" data-name="Trazado 111044" transform="translate(-903.049 -8441) rotate(90)" fill="none">
      <path d="M46,0,92,63.9H0Z" stroke="none"/>
      <path d="M 46 6.846302032470703 L 7.808380126953125 59.89667892456055 L 84.19161987304688 59.89667892456055 L 46 6.846302032470703 M 46 3.814697265625e-06 L 92 63.89667892456055 L 0 63.89667892456055 L 46 3.814697265625e-06 Z" stroke="none" fill="#70089b"/>
    </g>
    <g id="Trazado_111045" data-name="Trazado 111045" transform="translate(-1019.251 -8403.795)" fill="none">
      <path d="M9.122,0A9.09,9.09,0,1,1,0,9.09,9.106,9.106,0,0,1,9.122,0Z" stroke="none"/>
      <path d="M 9.122159957885742 4 C 6.297789573669434 4 4 6.283459663391113 4 9.0902099609375 C 4 11.89695930480957 6.297789573669434 14.180419921875 9.122159957885742 14.180419921875 C 11.94652938842773 14.180419921875 14.24431991577148 11.89695930480957 14.24431991577148 9.0902099609375 C 14.24431991577148 6.283459663391113 11.94652938842773 4 9.122159957885742 4 M 9.122159957885742 0 C 14.16019058227539 0 18.24431991577148 4.069829940795898 18.24431991577148 9.0902099609375 C 18.24431991577148 14.1105899810791 14.16019058227539 18.180419921875 9.122159957885742 18.180419921875 C 4.08413028717041 18.180419921875 0 14.1105899810791 0 9.0902099609375 C 0 4.069829940795898 4.08413028717041 0 9.122159957885742 0 Z" stroke="none" fill="#70089b"/>
    </g>
    <g id="Trazado_111046" data-name="Trazado 111046" transform="translate(-906.305 -8403.795)" fill="none">
      <path d="M9.122,0A9.09,9.09,0,1,1,0,9.09,9.106,9.106,0,0,1,9.122,0Z" stroke="none"/>
      <path d="M 9.122159957885742 4 C 6.297789573669434 4 4 6.283459663391113 4 9.0902099609375 C 4 11.89695930480957 6.297789573669434 14.180419921875 9.122159957885742 14.180419921875 C 11.94652938842773 14.180419921875 14.24431991577148 11.89695930480957 14.24431991577148 9.0902099609375 C 14.24431991577148 6.283459663391113 11.94652938842773 4 9.122159957885742 4 M 9.122159957885742 0 C 14.16019058227539 0 18.24431991577148 4.069829940795898 18.24431991577148 9.0902099609375 C 18.24431991577148 14.1105899810791 14.16019058227539 18.180419921875 9.122159957885742 18.180419921875 C 4.08413028717041 18.180419921875 0 14.1105899810791 0 9.0902099609375 C 0 4.069829940795898 4.08413028717041 0 9.122159957885742 0 Z" stroke="none" fill="#70089b"/>
    </g>
    <path id="Trazado_111047" data-name="Trazado 111047" d="M0,0H34.06V4.542H0Z" transform="translate(-1001.006 -8396.994)" fill="#70089b"/>
    <path id="Trazado_111048" data-name="Trazado 111048" d="M0,0H34.06V4.542H0Z" transform="translate(-888.06 -8396.994)" fill="#70089b"/>
    <path id="Trazado_111049" data-name="Trazado 111049" d="M0,0H34.06V4.542H0Z" transform="translate(-1110.5 -8396.994)" fill="#70089b"/>
    <path id="Trazado_111041" data-name="Trazado 111041" d="M0,0H19.151" transform="translate(-990.575 -8479)" fill="none" stroke="#12263f" stroke-width="2"/>
    <path id="Trazado_111042" data-name="Trazado 111042" d="M0,0H19.151" transform="translate(-990.575 -8484.745)" fill="none" stroke="#12263f" stroke-width="2"/>
    <path id="Trazado_111051" data-name="Trazado 111051" d="M10.98-3.187H5.344L4.359,0H-.035L6.223-17.062H10.09L16.395,0H11.977ZM6.328-6.363H10l-1.84-5.918Z" transform="translate(-1143 -8387)" fill="#12263f"/>
    <path id="Trazado_111052" data-name="Trazado 111052" d="M10.98-3.187H5.344L4.359,0H-.035L6.223-17.062H10.09L16.395,0H11.977ZM6.328-6.363H10l-1.84-5.918Z" transform="translate(-989 -8454)" fill="#12263f"/>
  </g>
</svg>
