<svg xmlns="http://www.w3.org/2000/svg" width="59.79" height="39.273" viewBox="0 0 59.79 39.273">
  <g id="Grupo_66048" data-name="Grupo 66048" transform="translate(-90.959 8275.773)">
    <path id="Trazado_111057" data-name="Trazado 111057" d="M7.348,0H4.377V-9.457L1.459-8.6v-2.25L7.075-12.8h.272Zm8.613-5.2a13.431,13.431,0,0,1,.571-3.99,9.629,9.629,0,0,1,1.578-3.129,5.6,5.6,0,0,1,2.237-1.793l.563,1.459a5.73,5.73,0,0,0-1.9,2.826,13.782,13.782,0,0,0-.681,4.5v.387A14.051,14.051,0,0,0,19-.352,5.706,5.706,0,0,0,20.909,2.5l-.562,1.459a5.547,5.547,0,0,1-2.237-1.8A9.484,9.484,0,0,1,16.532-.958a13.5,13.5,0,0,1-.571-3.85ZM29.5-2.391H25.269L24.53,0h-3.3l4.693-12.8h2.9L33.557,0H30.243ZM26.007-4.772h2.751l-1.38-4.438ZM39.691-7.26h3v2.54h-3v3.437H36.923V-4.72H33.917V-7.26h3.006V-10.6h2.769ZM44.1,0V-12.8h4.6a6.509,6.509,0,0,1,3.757.905,3.012,3.012,0,0,1,1.288,2.628,3.045,3.045,0,0,1-.457,1.7A2.663,2.663,0,0,1,51.943-6.53a2.7,2.7,0,0,1,1.538.984,2.862,2.862,0,0,1,.536,1.758A3.388,3.388,0,0,1,52.827-.962,5.667,5.667,0,0,1,49.3,0Zm3.085-5.44v3.067H49.21a1.923,1.923,0,0,0,1.283-.382,1.338,1.338,0,0,0,.448-1.077A1.419,1.419,0,0,0,49.351-5.44Zm0-2.021H48.8a2.285,2.285,0,0,0,1.441-.37A1.314,1.314,0,0,0,50.669-8.9a1.379,1.379,0,0,0-.466-1.168,2.493,2.493,0,0,0-1.5-.357H47.188Zm13.061,2.5a12.532,12.532,0,0,1-.606,3.92,10.008,10.008,0,0,1-1.674,3.186,5.574,5.574,0,0,1-2.307,1.806L55.1,2.5a5.787,5.787,0,0,0,1.89-2.812,13.577,13.577,0,0,0,.694-4.368v-.536a14.051,14.051,0,0,0-.672-4.588A5.706,5.706,0,0,0,55.1-12.656l.563-1.459a5.676,5.676,0,0,1,2.29,1.789,9.885,9.885,0,0,1,1.67,3.138,12.426,12.426,0,0,1,.628,3.845Z" transform="translate(90 -8261)" fill="#12263f" stroke="rgba(0,0,0,0)" stroke-width="1"/>
    <path id="Trazado_111058" data-name="Trazado 111058" d="M8.235-2.391H4.008L3.27,0h-3.3L4.667-12.8h2.9L12.3,0H8.982ZM4.746-4.772H7.5L6.117-9.211ZM18.431-7.26h3v2.54h-3v3.437H15.662V-4.72H12.656V-7.26h3.006V-10.6h2.769ZM22.843,0V-12.8h4.6a6.509,6.509,0,0,1,3.757.905,3.012,3.012,0,0,1,1.288,2.628,3.045,3.045,0,0,1-.457,1.7A2.663,2.663,0,0,1,30.683-6.53a2.7,2.7,0,0,1,1.538.984,2.862,2.862,0,0,1,.536,1.758A3.388,3.388,0,0,1,31.566-.962,5.667,5.667,0,0,1,28.037,0Zm3.085-5.44v3.067h2.021a1.923,1.923,0,0,0,1.283-.382,1.338,1.338,0,0,0,.448-1.077A1.419,1.419,0,0,0,28.09-5.44Zm0-2.021h1.608a2.285,2.285,0,0,0,1.441-.37A1.314,1.314,0,0,0,29.408-8.9a1.379,1.379,0,0,0-.466-1.168,2.493,2.493,0,0,0-1.5-.357H25.928Z" transform="translate(105 -8237)" fill="#12263f" stroke="rgba(0,0,0,0)" stroke-width="1"/>
  </g>
</svg>
