<svg xmlns="http://www.w3.org/2000/svg" width="235.099" height="138.979" viewBox="0 0 235.099 138.979">
  <g id="Grupo_66049" data-name="Grupo 66049" transform="translate(3031.554 7103)">
    <g id="Grupo_59629" data-name="Grupo 59629" transform="translate(-3030.032 -7057.79)">
      <g id="Polígono_25" data-name="Polígono 25" transform="translate(41.684 0) rotate(90)" fill="none">
        <path d="M20.29,0l20.29,28.183H0Z" stroke="none"/>
        <path d="M 20.28957939147949 6.846284866333008 L 7.808376312255859 24.18339729309082 L 32.77078247070312 24.18339729309082 L 20.28957939147949 6.846284866333008 M 20.28957939147949 -1.9073486328125e-06 L 40.57915878295898 28.18339729309082 L 0 28.18339729309082 L 20.28957939147949 -1.9073486328125e-06 Z" stroke="none" fill="#70089b"/>
      </g>
      <g id="Elipse_4123" data-name="Elipse 4123" transform="translate(40.248 16.411)" fill="none" stroke="#70089b" stroke-width="4">
        <ellipse cx="4.024" cy="4.009" rx="4.024" ry="4.009" stroke="none"/>
        <ellipse cx="4.024" cy="4.009" rx="2.024" ry="2.009" fill="none"/>
      </g>
      <rect id="Rectángulo_9303" data-name="Rectángulo 9303" width="94.708" height="2.004" transform="translate(48.295 19.41)" fill="#70089b"/>
      <rect id="Rectángulo_9304" data-name="Rectángulo 9304" width="15.023" height="2.004" transform="translate(0 19.41)" fill="#70089b"/>
      <rect id="Rectángulo_9449" data-name="Rectángulo 9449" width="33.773" height="2.004" transform="translate(174.993 18.629)" fill="#70089b"/>
    </g>
    <g id="Grupo_59630" data-name="Grupo 59630" transform="translate(-3030.032 -7012.579)">
      <g id="Polígono_25-2" data-name="Polígono 25" transform="translate(41.684 0) rotate(90)" fill="none">
        <path d="M20.29,0l20.29,28.183H0Z" stroke="none"/>
        <path d="M 20.28957939147949 6.846284866333008 L 7.808376312255859 24.18339729309082 L 32.77078247070312 24.18339729309082 L 20.28957939147949 6.846284866333008 M 20.28957939147949 -1.9073486328125e-06 L 40.57915878295898 28.18339729309082 L 0 28.18339729309082 L 20.28957939147949 -1.9073486328125e-06 Z" stroke="none" fill="#70089b"/>
      </g>
      <g id="Elipse_4123-2" data-name="Elipse 4123" transform="translate(40.248 16.411)" fill="none" stroke="#70089b" stroke-width="4">
        <ellipse cx="4.024" cy="4.009" rx="4.024" ry="4.009" stroke="none"/>
        <ellipse cx="4.024" cy="4.009" rx="2.024" ry="2.009" fill="none"/>
      </g>
      <rect id="Rectángulo_9303-2" data-name="Rectángulo 9303" width="39.241" height="2.004" transform="translate(48.295 19.41)" fill="#70089b"/>
      <rect id="Rectángulo_9304-2" data-name="Rectángulo 9304" width="15.023" height="2.004" transform="translate(0 19.41)" fill="#70089b"/>
    </g>
    <g id="Grupo_59628" data-name="Grupo 59628" transform="translate(-3031.554 -7103)">
      <g id="Polígono_31" data-name="Polígono 31" transform="translate(43.207 0) rotate(90)" fill="none">
        <path d="M20.29,0l20.29,28.183H0Z" stroke="none"/>
        <path d="M 20.28957939147949 6.846284866333008 L 7.808376312255859 24.18339729309082 L 32.77078247070312 24.18339729309082 L 20.28957939147949 6.846284866333008 M 20.28957939147949 -1.9073486328125e-06 L 40.57915878295898 28.18339729309082 L 0 28.18339729309082 L 20.28957939147949 -1.9073486328125e-06 Z" stroke="none" fill="#70089b"/>
      </g>
      <g id="Elipse_4140" data-name="Elipse 4140" transform="translate(41.771 16.411)" fill="none" stroke="#70089b" stroke-width="4">
        <ellipse cx="4.024" cy="4.009" rx="4.024" ry="4.009" stroke="none"/>
        <ellipse cx="4.024" cy="4.009" rx="2.024" ry="2.009" fill="none"/>
      </g>
      <rect id="Rectángulo_9443" data-name="Rectángulo 9443" width="15.023" height="2.004" transform="translate(0 19.41)" fill="#70089b"/>
      <rect id="Rectángulo_9444" data-name="Rectángulo 9444" width="40.022" height="2.004" transform="translate(49.037 19.41)" fill="#70089b"/>
      <rect id="Rectángulo_9445" data-name="Rectángulo 9445" width="28.903" height="2.004" transform="translate(89.059 19.41) rotate(90)" fill="#70089b"/>
      <rect id="Rectángulo_9446" data-name="Rectángulo 9446" width="40.022" height="2.004" transform="translate(87.055 46.31)" fill="#70089b"/>
    </g>
    <g id="Grupo_59631" data-name="Grupo 59631" transform="translate(-2944.499 -7020.312)">
      <rect id="Rectángulo_9447" data-name="Rectángulo 9447" width="28.903" height="2.004" transform="translate(2.004 0) rotate(90)" fill="#70089b"/>
      <rect id="Rectángulo_9448" data-name="Rectángulo 9448" width="40.022" height="2.004" transform="translate(0 0)" fill="#70089b"/>
    </g>
    <g id="Grupo_59632" data-name="Grupo 59632" transform="translate(-2925.186 -7078.844)">
      <g id="Sustracción_6" data-name="Sustracción 6" transform="translate(0 0)" fill="#fff">
        <path d="M 32.74380111694336 77.55330657958984 L 12.91321277618408 77.55330657958984 C 10.11541366577148 77.55330657958984 7.347471714019775 77.25108337402344 4.646580696105957 76.65245819091797 C 17.98530960083008 68.42433166503906 26.12850189208984 54.61558151245117 26.12850189208984 39.83760452270508 C 26.12850189208984 24.72421646118164 17.70109748840332 10.74095344543457 3.90402364730835 2.573004961013794 C 6.838131904602051 1.860024929046631 9.855350494384766 1.500005006790161 12.91321277618408 1.500005006790161 L 32.74380111694336 1.500005006790161 C 37.87791442871094 1.500005006790161 42.85768127441406 2.505216121673584 47.54476928710938 4.487705230712891 C 52.07270050048828 6.402894020080566 56.13953399658203 9.14498233795166 59.63230133056641 12.63780498504639 C 63.12505722045898 16.130615234375 65.86711120605469 20.19753837585449 67.78230285644531 24.72561645507812 C 69.76479339599609 29.41281700134277 70.77000427246094 34.39276123046875 70.77000427246094 39.52710342407227 C 70.77000427246094 44.66120529174805 69.76480102539062 49.64097213745117 67.78231048583984 54.32806015014648 C 65.86712646484375 58.85600662231445 63.12505722045898 62.92284774780273 59.63230133056641 66.41561889648438 C 56.13953399658203 69.90838623046875 52.07270050048828 72.65042877197266 47.54476928710938 74.56558227539062 C 42.85763549804688 76.548095703125 37.87786865234375 77.55330657958984 32.74380111694336 77.55330657958984 Z" stroke="none"/>
        <path d="M 32.74380111694336 76.05329895019531 C 37.67605209350586 76.05329895019531 42.45921325683594 75.08795928955078 46.9604377746582 73.18408966064453 C 51.30957412719727 71.34453582763672 55.21616363525391 68.71043395996094 58.57165145874023 65.35496520996094 C 61.9271240234375 61.99947357177734 64.56124114990234 58.09288787841797 66.40080261230469 53.74372482299805 C 68.30466461181641 49.24252319335938 69.26999664306641 44.4593620300293 69.26999664306641 39.527099609375 C 69.26999664306641 34.59462356567383 68.30466461181641 29.8112735748291 66.40080261230469 25.3099365234375 C 64.56121063232422 20.96063613891602 61.9271125793457 17.05397415161133 58.57163619995117 13.69844913482666 C 55.21616363525391 10.34292411804199 51.30957412719727 7.708786964416504 46.96042633056641 5.86921215057373 C 42.45925140380859 3.965349435806274 37.67608642578125 2.999999523162842 32.74380111694336 2.999999523162842 L 12.91321277618408 2.999999523162842 C 11.21732139587402 2.999999523162842 9.534266471862793 3.115263938903809 7.872435569763184 3.344403982162476 C 20.21537590026855 11.96316432952881 27.62849998474121 25.39775466918945 27.62849998474121 39.83760070800781 C 27.62849998474121 53.92825317382812 20.49546432495117 67.15843200683594 8.606743812561035 75.80228424072266 C 10.03004932403564 75.96931457519531 11.46756458282471 76.05329895019531 12.91321277618408 76.05329895019531 L 32.74380111694336 76.05329895019531 M 32.74380111694336 79.05329895019531 L 12.91321277618408 79.05329895019531 C 8.754938125610352 79.05329895019531 4.659162998199463 78.41061401367188 0.739662766456604 77.14305877685547 C 15.47477531433105 69.50105285644531 24.62849998474121 55.20713806152344 24.62849998474121 39.83760070800781 C 24.62849998474121 24.14909934997559 15.19150066375732 9.710911750793457 0.0002252624544780701 2.157474517822266 C 4.145312786102295 0.7252619862556458 8.489837646484375 -5.249023615760962e-07 12.91321277618408 -5.249023615760962e-07 L 32.74380111694336 -5.249023615760962e-07 C 38.07976150512695 -5.249023615760962e-07 43.25612640380859 1.045074462890625 48.12910079956055 3.10621190071106 C 52.83584976196289 5.097036838531494 57.06295013427734 7.947074413299561 60.69297409057617 11.57714939117432 C 64.32301330566406 15.20723724365234 67.17299652099609 19.43442535400391 69.16381072998047 24.14128684997559 C 71.22492218017578 29.01441192626953 72.26999664306641 34.19094848632812 72.26999664306641 39.527099609375 C 72.26999664306641 44.863037109375 71.22492218017578 50.03939819335938 69.16381072998047 54.91238784790039 C 67.17299652099609 59.61912536621094 64.32301330566406 63.84622573852539 60.69297409057617 67.47627258300781 C 57.06293869018555 71.10630035400391 52.83583831787109 73.956298828125 48.12910079956055 75.94709777832031 C 43.25608825683594 78.00822448730469 38.0797233581543 79.05329895019531 32.74380111694336 79.05329895019531 Z" stroke="none" fill="#70089b"/>
      </g>
    </g>
    <path id="Trazado_110946" data-name="Trazado 110946" d="M7.5,0A7.5,7.5,0,1,1,0,7.5,7.5,7.5,0,0,1,7.5,0Z" transform="translate(-2854 -7046)" fill="#70089b"/>
    <path id="Trazado_110945" data-name="Trazado 110945" d="M-23.489-1.992h-3.523L-27.627,0h-2.747l3.911-10.664h2.417L-20.1,0h-2.761ZM-26.4-3.977H-24.1l-1.15-3.7ZM-11.257-6.05h2.5v2.117h-2.5v2.864h-2.307V-3.933h-2.5V-6.05h2.5V-8.833h2.307ZM-3.845,0V-10.664H-.015a5.424,5.424,0,0,1,3.131.754A2.51,2.51,0,0,1,4.189-7.72a2.537,2.537,0,0,1-.381,1.414,2.219,2.219,0,0,1-1.121.864,2.247,2.247,0,0,1,1.282.82,2.385,2.385,0,0,1,.447,1.465A2.824,2.824,0,0,1,3.424-.8,4.723,4.723,0,0,1,.483,0Zm2.571-4.534v2.556H.41A1.6,1.6,0,0,0,1.479-2.3a1.115,1.115,0,0,0,.374-.9A1.182,1.182,0,0,0,.527-4.534Zm0-1.685H.066a1.9,1.9,0,0,0,1.2-.309,1.1,1.1,0,0,0,.359-.889,1.15,1.15,0,0,0-.388-.973,2.078,2.078,0,0,0-1.252-.3h-1.26ZM13.9-6.05h2.5v2.117H13.9v2.864H11.594V-3.933h-2.5V-6.05h2.5V-8.833H13.9Zm16.04,2.439a3.9,3.9,0,0,1-.6,1.967A3.625,3.625,0,0,1,27.8-.322a5.248,5.248,0,0,1-2.267.469,4.188,4.188,0,0,1-3.311-1.37A5.655,5.655,0,0,1,21.013-5.09v-.527a6.455,6.455,0,0,1,.546-2.743,4.134,4.134,0,0,1,1.571-1.816,4.383,4.383,0,0,1,2.373-.641A4.6,4.6,0,0,1,28.623-9.8a4.037,4.037,0,0,1,1.34,2.816H27.4a1.91,1.91,0,0,0-.491-1.4A2.018,2.018,0,0,0,25.5-8.8a1.536,1.536,0,0,0-1.406.718,4.613,4.613,0,0,0-.469,2.292v.754A5.1,5.1,0,0,0,24.056-2.6a1.568,1.568,0,0,0,1.476.732,1.974,1.974,0,0,0,1.355-.417,1.772,1.772,0,0,0,.5-1.326Z" transform="translate(-2826.418 -6964.167)" fill="#12263f"/>
    <path id="Trazado_110947" data-name="Trazado 110947" d="M0,0H9.836" transform="translate(-2858 -6979.294)" fill="none" stroke="#12263f" stroke-width="2"/>
    <path id="Trazado_110948" data-name="Trazado 110948" d="M0,0H9.836" transform="translate(-2832.654 -6979.294)" fill="none" stroke="#12263f" stroke-width="2"/>
    <path id="Trazado_110949" data-name="Trazado 110949" d="M0,0H9.836" transform="translate(-2806.929 -6979.294)" fill="none" stroke="#12263f" stroke-width="2"/>
    <path id="Trazado_110950" data-name="Trazado 110950" d="M0,0H60.907" transform="translate(-2858 -6983.833)" fill="none" stroke="#12263f" stroke-width="2"/>
  </g>
</svg>
