<svg xmlns="http://www.w3.org/2000/svg" width="143" height="47" viewBox="0 0 143 47">
  <g id="Grupo_59637" data-name="Grupo 59637" transform="translate(2175 7073)">
    <rect id="Rectángulo_9453" data-name="Rectángulo 9453" width="143" height="47" rx="23.5" transform="translate(-2175 -7073)" fill="#fff"/>
    <g id="Grupo_59635" data-name="Grupo 59635" transform="translate(-2149.293 -7064)">
      <path id="Trazado_110958" data-name="Trazado 110958" d="M-35.64-8.047l2.617-6.172h3.7L-33.9-5.107V0h-3.477V-5.107l-4.57-9.111h3.682Zm21.553,1H-23.13V-9.59h9.043Zm0,4.287H-23.13V-5.3h9.043ZM1.46-2.656h-4.7L-4.058,0H-7.72L-2.5-14.219H.718L5.972,0H2.29ZM-2.417-5.3H.64L-.894-10.234ZM11.987,0V-14.219h5.107a7.232,7.232,0,0,1,4.175,1.006,3.347,3.347,0,0,1,1.431,2.92,3.383,3.383,0,0,1-.508,1.885A2.959,2.959,0,0,1,20.7-7.256a3,3,0,0,1,1.709,1.094A3.18,3.18,0,0,1,23-4.209a3.765,3.765,0,0,1-1.323,3.14A6.3,6.3,0,0,1,17.759,0Zm3.428-6.045v3.408h2.246a2.136,2.136,0,0,0,1.426-.425,1.487,1.487,0,0,0,.5-1.2,1.576,1.576,0,0,0-1.768-1.787Zm0-2.246H17.2A2.539,2.539,0,0,0,18.8-8.7a1.46,1.46,0,0,0,.479-1.185,1.533,1.533,0,0,0-.518-1.3,2.77,2.77,0,0,0-1.67-.4h-1.68ZM41.372-4.814a5.193,5.193,0,0,1-.8,2.622A4.833,4.833,0,0,1,38.516-.43,7,7,0,0,1,35.493.2a5.584,5.584,0,0,1-4.414-1.826,7.54,7.54,0,0,1-1.611-5.156v-.7a8.607,8.607,0,0,1,.728-3.657,5.513,5.513,0,0,1,2.095-2.422,5.844,5.844,0,0,1,3.164-.854,6.129,6.129,0,0,1,4.16,1.362A5.383,5.383,0,0,1,41.4-9.307H37.983a2.547,2.547,0,0,0-.654-1.865,2.691,2.691,0,0,0-1.875-.566,2.048,2.048,0,0,0-1.875.957,6.151,6.151,0,0,0-.625,3.057v1.006a6.806,6.806,0,0,0,.571,3.252,2.091,2.091,0,0,0,1.968.977A2.632,2.632,0,0,0,37.3-3.047a2.363,2.363,0,0,0,.664-1.768Z" transform="translate(42.293 21)" fill="#43babe"/>
    </g>
  </g>
</svg>
