<svg xmlns="http://www.w3.org/2000/svg" width="112" height="107.92" viewBox="0 0 112 107.92">
  <g id="Grupo_66055" data-name="Grupo 66055" transform="translate(-1283 -1716.938)">
    <path id="Trazado_110951" data-name="Trazado 110951" d="M10.063-14.031l5.453-8.719h3.531L11.859-11.469,19.219,0H15.656L10.063-8.875,4.438,0H.891L8.266-11.469,1.063-22.75H4.578ZM40.188,0H37.172L25.719-17.531V0H22.7V-22.75h3.016L37.2-5.141V-22.75h2.984ZM63.016-10.641A14.073,14.073,0,0,1,61.891-4.8,8.521,8.521,0,0,1,58.7-1,8.77,8.77,0,0,1,53.891.313a8.7,8.7,0,0,1-4.766-1.32A8.725,8.725,0,0,1,45.9-4.773a13.5,13.5,0,0,1-1.18-5.664v-1.641a13.906,13.906,0,0,1,1.141-5.8,8.694,8.694,0,0,1,3.227-3.852,8.658,8.658,0,0,1,4.773-1.336,8.819,8.819,0,0,1,4.82,1.32,8.506,8.506,0,0,1,3.211,3.828,14.142,14.142,0,0,1,1.125,5.836Zm-2.984-1.469a10.2,10.2,0,0,0-1.625-6.211,5.36,5.36,0,0,0-4.547-2.164,5.3,5.3,0,0,0-4.477,2.164,9.991,9.991,0,0,0-1.68,6.008v1.672a10.215,10.215,0,0,0,1.648,6.164,5.325,5.325,0,0,0,4.539,2.242,5.3,5.3,0,0,0,4.5-2.117,10.157,10.157,0,0,0,1.641-6.07ZM75.859-9.2H70.516V0H67.5V-22.75h7.531A8.914,8.914,0,0,1,80.945-21a6.3,6.3,0,0,1,2.07,5.094,6.125,6.125,0,0,1-1.148,3.7,6.856,6.856,0,0,1-3.2,2.359L84.016-.187V0H80.8Zm-5.344-2.453h4.609a5.2,5.2,0,0,0,3.555-1.158,3.917,3.917,0,0,0,1.32-3.1,4.125,4.125,0,0,0-1.258-3.24A5.326,5.326,0,0,0,75.109-20.3H70.516Z" transform="translate(1297 1740)" fill="#f6f6f6"/>
    <g id="Grupo_59133" data-name="Grupo 59133" transform="translate(16.758 -27.875)">
      <path id="Unión_11" data-name="Unión 11" d="M.689,58A32.462,32.462,0,0,0,17.806,29.387,32.352,32.352,0,0,0,0,.412V0H35.933A27.539,27.539,0,0,1,63.068,22.744a6.2,6.2,0,0,1,7.963,4.323H96V30.16H71.031a6.2,6.2,0,0,1-8.309,4.2A30.43,30.43,0,0,1,33.034,58Z" transform="translate(1282.243 1793.875)" fill="#fff"/>
      <g id="Grupo_59132" data-name="Grupo 59132" transform="translate(1266.243 1794.877)">
        <path id="Trazado_106597" data-name="Trazado 106597" d="M-6772-9905s18.416,9.353,19.584,27.476-17.83,29.522-17.83,29.522" transform="translate(6782.28 9905)" fill="none" stroke="#fff" stroke-width="2"/>
        <rect id="Rectángulo_9159" data-name="Rectángulo 9159" width="26" height="3" transform="translate(0 12.998)" fill="#fff"/>
        <rect id="Rectángulo_9160" data-name="Rectángulo 9160" width="26" height="3" transform="translate(0 41.998)" fill="#fff"/>
      </g>
    </g>
  </g>
</svg>
