<svg xmlns="http://www.w3.org/2000/svg" width="780" height="203" viewBox="0 0 780 203">
  <g id="Grupo_66014" data-name="Grupo 66014" transform="translate(1798 9682)">
    <path id="Trazado_110942" data-name="Trazado 110942" d="M0,0H780V30H0Z" transform="translate(-1798 -9682)" fill="#43babe"/>
    <path id="Trazado_110943" data-name="Trazado 110943" d="M1.172-5.781a14.924,14.924,0,0,1,.635-4.434A10.7,10.7,0,0,1,3.56-13.691a6.225,6.225,0,0,1,2.485-1.992l.625,1.621a6.367,6.367,0,0,0-2.114,3.14,15.313,15.313,0,0,0-.757,5v.43a15.612,15.612,0,0,0,.747,5.1A6.34,6.34,0,0,0,6.67,2.773L6.045,4.395a6.163,6.163,0,0,1-2.485-2A10.538,10.538,0,0,1,1.807-1.064a15,15,0,0,1-.635-4.277ZM16.211-2.656h-4.7L10.693,0H7.031l5.215-14.219h3.223L20.723,0H17.041ZM12.334-5.3h3.057l-1.533-4.932ZM32.52-8.066h3.33v2.822H32.52v3.818H29.443V-5.244H26.1V-8.066h3.34v-3.711H32.52ZM42.4,0V-14.219H47.51a7.232,7.232,0,0,1,4.175,1.006,3.347,3.347,0,0,1,1.431,2.92,3.383,3.383,0,0,1-.508,1.885,2.959,2.959,0,0,1-1.494,1.152,3,3,0,0,1,1.709,1.094,3.18,3.18,0,0,1,.6,1.953,3.765,3.765,0,0,1-1.323,3.14A6.3,6.3,0,0,1,48.174,0ZM45.83-6.045v3.408h2.246A2.136,2.136,0,0,0,49.5-3.062a1.487,1.487,0,0,0,.5-1.2,1.576,1.576,0,0,0-1.768-1.787Zm0-2.246h1.787a2.539,2.539,0,0,0,1.6-.411A1.46,1.46,0,0,0,49.7-9.888a1.533,1.533,0,0,0-.518-1.3,2.77,2.77,0,0,0-1.67-.4H45.83ZM60.342-5.508a13.925,13.925,0,0,1-.674,4.355,11.12,11.12,0,0,1-1.86,3.54,6.193,6.193,0,0,1-2.563,2.007l-.625-1.621a6.43,6.43,0,0,0,2.1-3.125,15.085,15.085,0,0,0,.771-4.854v-.6a15.612,15.612,0,0,0-.747-5.1,6.34,6.34,0,0,0-2.124-3.164l.625-1.621A6.307,6.307,0,0,1,57.788-13.7a10.984,10.984,0,0,1,1.855,3.486,13.807,13.807,0,0,1,.7,4.272ZM73.105-8.066h3.33v2.822h-3.33v3.818H70.029V-5.244h-3.34V-8.066h3.34v-3.711h3.076ZM94.492-4.814a5.193,5.193,0,0,1-.8,2.622A4.833,4.833,0,0,1,91.636-.43,7,7,0,0,1,88.613.2,5.584,5.584,0,0,1,84.2-1.631a7.54,7.54,0,0,1-1.611-5.156v-.7a8.607,8.607,0,0,1,.728-3.657,5.513,5.513,0,0,1,2.095-2.422,5.844,5.844,0,0,1,3.164-.854,6.129,6.129,0,0,1,4.16,1.362,5.383,5.383,0,0,1,1.787,3.755H91.1a2.547,2.547,0,0,0-.654-1.865,2.691,2.691,0,0,0-1.875-.566,2.048,2.048,0,0,0-1.875.957,6.151,6.151,0,0,0-.625,3.057v1.006a6.806,6.806,0,0,0,.571,3.252,2.091,2.091,0,0,0,1.968.977,2.632,2.632,0,0,0,1.807-.557,2.363,2.363,0,0,0,.664-1.768Zm15.82-2.236H101.27V-9.59h9.043Zm0,4.287H101.27V-5.3h9.043Zm15.547.107h-4.7L120.342,0H116.68l5.215-14.219h3.223L130.371,0h-3.682ZM121.982-5.3h3.057l-1.533-4.932Zm20.186-2.764h3.33v2.822h-3.33v3.818h-3.076V-5.244h-3.34V-8.066h3.34v-3.711h3.076Zm9.98,2.285a14.924,14.924,0,0,1,.635-4.434,10.7,10.7,0,0,1,1.753-3.477,6.225,6.225,0,0,1,2.485-1.992l.625,1.621a6.367,6.367,0,0,0-2.114,3.14,15.313,15.313,0,0,0-.757,5v.43a15.612,15.612,0,0,0,.747,5.1,6.34,6.34,0,0,0,2.124,3.164l-.625,1.621a6.163,6.163,0,0,1-2.485-2,10.538,10.538,0,0,1-1.753-3.462,15,15,0,0,1-.635-4.277ZM159.111,0V-14.219h5.107a7.232,7.232,0,0,1,4.175,1.006,3.347,3.347,0,0,1,1.431,2.92,3.383,3.383,0,0,1-.508,1.885,2.959,2.959,0,0,1-1.494,1.152,3,3,0,0,1,1.709,1.094,3.18,3.18,0,0,1,.6,1.953,3.765,3.765,0,0,1-1.323,3.14A6.3,6.3,0,0,1,164.883,0Zm3.428-6.045v3.408h2.246a2.136,2.136,0,0,0,1.426-.425,1.487,1.487,0,0,0,.5-1.2,1.576,1.576,0,0,0-1.768-1.787Zm0-2.246h1.787a2.539,2.539,0,0,0,1.6-.411,1.46,1.46,0,0,0,.479-1.185,1.533,1.533,0,0,0-.518-1.3,2.77,2.77,0,0,0-1.67-.4h-1.68Zm20.234.225h3.33v2.822h-3.33v3.818H179.7V-5.244h-3.34V-8.066h3.34v-3.711h3.076ZM204.16-4.814a5.193,5.193,0,0,1-.8,2.622A4.833,4.833,0,0,1,201.3-.43,7,7,0,0,1,198.281.2a5.584,5.584,0,0,1-4.414-1.826,7.54,7.54,0,0,1-1.611-5.156v-.7a8.607,8.607,0,0,1,.728-3.657,5.513,5.513,0,0,1,2.095-2.422,5.844,5.844,0,0,1,3.164-.854,6.129,6.129,0,0,1,4.16,1.362,5.383,5.383,0,0,1,1.787,3.755h-3.418a2.547,2.547,0,0,0-.654-1.865,2.691,2.691,0,0,0-1.875-.566,2.048,2.048,0,0,0-1.875.957,6.151,6.151,0,0,0-.625,3.057v1.006a6.806,6.806,0,0,0,.571,3.252,2.091,2.091,0,0,0,1.968.977,2.632,2.632,0,0,0,1.807-.557,2.363,2.363,0,0,0,.664-1.768Zm6.406-.693a13.925,13.925,0,0,1-.674,4.355,11.12,11.12,0,0,1-1.86,3.54,6.193,6.193,0,0,1-2.563,2.007l-.625-1.621a6.43,6.43,0,0,0,2.1-3.125,15.085,15.085,0,0,0,.771-4.854v-.6a15.612,15.612,0,0,0-.747-5.1,6.34,6.34,0,0,0-2.124-3.164l.625-1.621a6.307,6.307,0,0,1,2.544,1.987,10.984,10.984,0,0,1,1.855,3.486,13.807,13.807,0,0,1,.7,4.272Z" transform="translate(-1516 -9659)" fill="#fff"/>
    <g id="Trazado_110924" data-name="Trazado 110924" transform="translate(-1798 -9652)" fill="#fff">
      <path d="M 779.5 172.5 L 0.5 172.5 L 0.5 0.5 L 779.5 0.5 L 779.5 172.5 Z" stroke="none"/>
      <path d="M 1 1 L 1 172 L 779 172 L 779 1 L 1 1 M 0 0 L 780 0 L 780 173 L 0 173 L 0 0 Z" stroke="none" fill="#43babe"/>
    </g>
    <path id="Trazado_110932" data-name="Trazado 110932" d="M0,0H44V9H0Z" transform="translate(-1442 -9594.999)" fill="#0155a0"/>
    <path id="Trazado_110927" data-name="Trazado 110927" d="M0,0H44V9H0Z" transform="translate(-1442 -9578.999)" fill="#0155a0"/>
    <path id="Trazado_110935" data-name="Trazado 110935" d="M0,0H17.554V22.174H0Z" transform="translate(-1697.149 -9596.233)" fill="#43babe"/>
    <path id="Trazado_110936" data-name="Trazado 110936" d="M.99,0V-8.531H3.779a3.238,3.238,0,0,1,2.089.574,2.07,2.07,0,0,1,.7,1.7A1.733,1.733,0,0,1,6.229-5.2a2.2,2.2,0,0,1-.926.712A1.979,1.979,0,0,1,6.4-3.753a2.11,2.11,0,0,1,.4,1.292,2.282,2.282,0,0,1-.744,1.8A3.077,3.077,0,0,1,3.949,0ZM2.115-3.99V-.92H3.973a1.788,1.788,0,0,0,1.239-.407,1.43,1.43,0,0,0,.454-1.122q0-1.541-1.676-1.541Zm0-.9h1.7A1.781,1.781,0,0,0,5-5.262a1.24,1.24,0,0,0,.442-1,1.22,1.22,0,0,0-.41-1.025,2.014,2.014,0,0,0-1.248-.32H2.115Z" transform="translate(-1692.529 -9582.309)" fill="#12263f"/>
    <path id="Trazado_110937" data-name="Trazado 110937" d="M0,0H17.554V23.1H0Z" transform="translate(-1697.149 -9623.027)" fill="#43babe"/>
    <path id="Trazado_110938" data-name="Trazado 110938" d="M4.751-1.86H1.772L1.1,0H.137L2.852-7.109h.82L6.392,0H5.43Zm-2.7-.767H4.473L3.262-5.952Z" transform="translate(-1692.529 -9610.256)" fill="#12263f"/>
    <path id="Trazado_110933" data-name="Trazado 110933" d="M31.317,54.887H1.11C12.847,50.086,20.431,39.4,20.431,27.66,20.431,15.436,12.411,4.579,0,0H30.856A27.678,27.678,0,0,1,58.37,24.677H88.122V27.6H58.53v.069A27.19,27.19,0,0,1,31.317,54.887Z" transform="translate(-1665.164 -9624)" fill="#70089b"/>
    <g id="Grupo_59341" data-name="Grupo 59341" transform="translate(-1679.356 -9611.93)">
      <rect id="Rectángulo_9255" data-name="Rectángulo 9255" width="38.738" height="2.78" fill="#70089b"/>
      <rect id="Rectángulo_9256" data-name="Rectángulo 9256" width="38.738" height="3.336" transform="translate(0 24.466)" fill="#70089b"/>
    </g>
    <path id="Trazado_110928" data-name="Trazado 110928" d="M31.317,54.887H1.11C12.847,50.086,20.431,39.4,20.431,27.66,20.431,15.436,12.411,4.579,0,0H30.856A27.678,27.678,0,0,1,58.37,24.677H88.122V27.6H58.53v.069A27.19,27.19,0,0,1,31.317,54.887Z" transform="translate(-1545.057 -9557.479)" fill="#70089b"/>
    <g id="Grupo_59341-2" data-name="Grupo 59341" transform="translate(-1680.28 -9545.408)">
      <rect id="Rectángulo_9255-2" data-name="Rectángulo 9255" width="58.14" height="2.78" transform="translate(101.629)" fill="#70089b"/>
      <rect id="Rectángulo_9256-2" data-name="Rectángulo 9256" width="159.769" height="3.336" transform="translate(0 24.466)" fill="#70089b"/>
    </g>
    <path id="Trazado_110934" data-name="Trazado 110934" d="M0,0H2.772V56.358H0Z" transform="translate(-1579.813 -9599.005)" fill="#70089b"/>
    <path id="Trazado_110939" data-name="Trazado 110939" d="M6.055-2.256A2.616,2.616,0,0,1,5.222-.515,2.728,2.728,0,0,1,3.359.1a2.505,2.505,0,0,1-2.019-.9A3.634,3.634,0,0,1,.581-3.223v-.684A4.051,4.051,0,0,1,.935-5.649a2.644,2.644,0,0,1,1-1.155,2.794,2.794,0,0,1,1.5-.4,2.569,2.569,0,0,1,1.816.632,2.647,2.647,0,0,1,.8,1.75H5.112a2.043,2.043,0,0,0-.53-1.234,1.6,1.6,0,0,0-1.14-.382,1.677,1.677,0,0,0-1.409.665,3.051,3.051,0,0,0-.51,1.891V-3.2a3.136,3.136,0,0,0,.483,1.842,1.562,1.562,0,0,0,1.353.684,1.8,1.8,0,0,0,1.2-.354,1.964,1.964,0,0,0,.554-1.233Z" transform="translate(-1700.844 -9519.713)" fill="#12263f"/>
    <path id="Trazado_110929" data-name="Trazado 110929" d="M2.993-3.54,4.849-7.109H5.913L3.462-2.651V0H2.524V-2.651L.073-7.109H1.147Z" transform="translate(-1444 -9528.951)" fill="#12263f"/>
    <path id="Trazado_110925" data-name="Trazado 110925" d="M1.073,0V-9.242H4.094a3.507,3.507,0,0,1,2.263.622,2.242,2.242,0,0,1,.759,1.841,1.877,1.877,0,0,1-.368,1.146,2.387,2.387,0,0,1-1,.771,2.143,2.143,0,0,1,1.184.8,2.286,2.286,0,0,1,.435,1.4A2.472,2.472,0,0,1,6.557-.711,3.334,3.334,0,0,1,4.278,0ZM2.292-4.323V-1H4.3a1.938,1.938,0,0,0,1.343-.441,1.549,1.549,0,0,0,.492-1.216q0-1.669-1.815-1.669Zm0-.978H4.132a1.93,1.93,0,0,0,1.279-.4,1.344,1.344,0,0,0,.479-1.088A1.321,1.321,0,0,0,5.446-7.9a2.182,2.182,0,0,0-1.352-.347h-1.8Z" transform="translate(-1341 -9559.854)" fill="#12263f"/>
    <path id="Trazado_110940" data-name="Trazado 110940" d="M5.7-2.232H2.127L1.324,0H.164L3.422-8.531h.984L7.67,0H6.516Zm-3.234-.92h2.9L3.914-7.143Z" transform="translate(-1341 -9619.854)" fill="#12263f"/>
    <g id="Grupo_59364" data-name="Grupo 59364" transform="translate(-1194.742 -9591.908)">
      <path id="Sustracción_6" data-name="Sustracción 6" d="M33.9,59.408H1.2c12.7-5.2,20.913-16.763,20.913-29.47C22.115,16.708,13.435,4.956,0,0H33.4a29.957,29.957,0,0,1,29.78,26.71h32.2v3.168H63.352v.076A29.43,29.43,0,0,1,33.9,59.408Z" transform="translate(15.36 0)" fill="#70089b"/>
      <g id="Grupo_59341-3" data-name="Grupo 59341" transform="translate(0 13.065)">
        <rect id="Rectángulo_9255-3" data-name="Rectángulo 9255" width="62.929" height="3.009" transform="translate(-21)" fill="#70089b"/>
      </g>
    </g>
    <path id="Trazado_110930" data-name="Trazado 110930" d="M0,0H3V50H0Z" transform="translate(-1217 -9625.854)" fill="#70089b"/>
    <g id="Grupo_59365" data-name="Grupo 59365" transform="translate(-1315.613 -9578.908)">
      <path id="Sustracción_6-2" data-name="Sustracción 6" d="M33.9,59.408H1.2c12.7-5.2,20.913-16.763,20.913-29.471C22.115,16.708,13.435,4.956,0,0H33.4a29.957,29.957,0,0,1,29.78,26.71H146.92V29.7H63.351c0,.043,0,.087,0,.131s0,.079,0,.118A29.43,29.43,0,0,1,33.9,59.408Z" transform="translate(15.36 0)" fill="#70089b"/>
      <g id="Grupo_59341-4" data-name="Grupo 59341" transform="translate(0 13.065)">
        <rect id="Rectángulo_9255-4" data-name="Rectángulo 9255" width="41.929" height="3.009" fill="#70089b"/>
        <rect id="Rectángulo_9256-3" data-name="Rectángulo 9256" width="41.929" height="3.611" transform="translate(0 26.482)" fill="#70089b"/>
      </g>
    </g>
    <path id="Trazado_110941" data-name="Trazado 110941" d="M0,0H100.113V2.994H0Z" transform="translate(-1315.613 -9625.854)" fill="#70089b"/>
    <path id="Trazado_110926" data-name="Trazado 110926" d="M7.266-2.707a3.139,3.139,0,0,1-1,2.089A3.274,3.274,0,0,1,4.031.117,3.006,3.006,0,0,1,1.608-.967,4.361,4.361,0,0,1,.7-3.867v-.82a4.861,4.861,0,0,1,.425-2.092,3.173,3.173,0,0,1,1.2-1.386,3.353,3.353,0,0,1,1.8-.483,3.083,3.083,0,0,1,2.18.759,3.176,3.176,0,0,1,.955,2.1H6.135A2.451,2.451,0,0,0,5.5-7.27a1.924,1.924,0,0,0-1.368-.458,2.013,2.013,0,0,0-1.69.8,3.661,3.661,0,0,0-.612,2.269v.827a3.764,3.764,0,0,0,.58,2.211A1.874,1.874,0,0,0,4.031-.8,2.165,2.165,0,0,0,5.47-1.228a2.357,2.357,0,0,0,.665-1.479Z" transform="translate(-1341 -9535.854)" fill="#12263f"/>
    <path id="Trazado_110931" data-name="Trazado 110931" d="M3.592-4.248,5.818-8.531H7.1L4.154-3.182V0H3.029V-3.182L.088-8.531H1.377Z" transform="translate(-1076 -9560.854)" fill="#12263f"/>
  </g>
</svg>
