<svg xmlns="http://www.w3.org/2000/svg" width="233.787" height="91.281" viewBox="0 0 233.787 91.281">
  <g id="Grupo_66047" data-name="Grupo 66047" transform="translate(2191.035 8440)">
    <g id="Grupo_59411" data-name="Grupo 59411" transform="translate(-2136.111 -8440)">
      <g id="Grupo_59341" data-name="Grupo 59341" transform="translate(0 14.194)">
        <rect id="Rectángulo_9255" data-name="Rectángulo 9255" width="55.315" height="3.943" fill="#70089b"/>
        <rect id="Rectángulo_9256" data-name="Rectángulo 9256" width="55.315" height="4.132" transform="translate(0 55.302)" fill="#70089b"/>
      </g>
      <g id="Sustracción_6" data-name="Sustracción 6" transform="translate(17.748 0)" fill="#e8e8e8">
        <path d="M 64.57318878173828 89.78160095214844 L 10.16820907592773 89.78160095214844 C 9.196998596191406 89.78160095214844 8.22584342956543 89.74986267089844 7.257535457611084 89.68666839599609 C 28.54217720031738 80.45917510986328 41.52298736572266 64.09832000732422 41.52298736572266 45.99990081787109 C 41.52298736572266 27.70167922973633 27.68889236450195 10.75924110412598 5.819843769073486 1.711992859840393 C 7.262083053588867 1.570936322212219 8.713947296142578 1.500000476837158 10.16820907592773 1.500000476837158 L 64.57318878173828 1.500000476837158 C 75.58796691894531 1.500000476837158 86.13645172119141 5.579520702362061 94.27550506591797 12.98708057403564 C 102.3603057861328 20.3453197479248 107.4094467163086 30.36137962341309 108.4928512573242 41.19021987915039 L 108.6279678344727 42.54090118408203 L 109.9853897094727 42.54090118408203 L 137.5509033203125 42.54090118408203 L 137.5509033203125 44.40900039672852 L 110.2131118774414 44.40900039672852 L 108.7216873168945 44.40900039672852 L 108.7131271362305 45.9004020690918 C 108.6790924072266 51.83198165893555 107.4884490966797 57.58184051513672 105.1743087768555 62.99028015136719 C 102.9377517700195 68.21733856201172 99.7503662109375 72.91000366210938 95.70064544677734 76.93789672851562 C 91.64994812011719 80.966796875 86.93892669677734 84.12915802001953 81.69844818115234 86.33712005615234 C 76.27366638183594 88.62270355224609 70.51188659667969 89.78160095214844 64.57318878173828 89.78160095214844 Z" stroke="none"/>
        <path d="M 64.57318878173828 88.28160095214844 C 70.31076812744141 88.28160095214844 75.87660980224609 87.16230010986328 81.11605072021484 84.95480346679688 C 86.17824554443359 82.82196044921875 90.72933197021484 79.76686096191406 94.64286804199219 75.87438201904297 C 98.55545043945312 71.98284149169922 101.634765625 67.44947814941406 103.7952499389648 62.40021896362305 C 106.0303115844727 57.17660140991211 107.1802673339844 51.62236022949219 107.2131500244141 45.89178085327148 L 107.2263107299805 43.59872055053711 L 107.0002899169922 41.33956146240234 C 105.9538497924805 30.87998008728027 101.0761871337891 21.2048397064209 93.265869140625 14.09642028808594 C 85.40361022949219 6.940780639648438 75.21369171142578 3.000000476837158 64.57318878173828 3.000000476837158 L 12.19419097900391 3.000000476837158 C 31.24760055541992 12.73691654205322 43.02298736572266 28.77056694030762 43.02298736572266 45.99990081787109 C 43.02298736572266 63.00128936767578 32.02458953857422 78.48851776123047 13.63262844085693 88.28160095214844 L 64.57318878173828 88.28160095214844 M 64.57318878173828 91.28160095214844 L 10.16820907592773 91.28160095214844 C 7.182628631591797 91.28160095214844 4.195968627929688 90.99130249023438 1.291168808937073 90.41876220703125 C 25.18178939819336 81.96588134765625 40.02298736572266 64.94631958007812 40.02298736572266 45.99990081787109 C 40.02298736572266 26.90828132629395 24.31300926208496 9.298460006713867 -3.122802809230052e-05 1.136840462684631 C 3.31782865524292 0.3818404674530029 6.738888740539551 4.760742058351752e-07 10.16820907592773 4.760742058351752e-07 L 64.57318878173828 4.760742058351752e-07 C 75.96226501464844 4.760742058351752e-07 86.86930847167969 4.21828031539917 95.28514862060547 11.87774085998535 C 103.6444091796875 19.48578071594238 108.8650512695312 29.84278106689453 109.9853897094727 41.04090118408203 L 139.0509033203125 41.04090118408203 L 139.0509033203125 45.90900039672852 L 110.2131118774414 45.90900039672852 C 110.1779098510742 52.04206085205078 108.9462509155273 57.98791885375977 106.5533676147461 63.58036041259766 C 104.2407455444336 68.98519897460938 100.9452667236328 73.83714294433594 96.75844573974609 78.00141906738281 C 92.57054901123047 82.16677856445312 87.69956970214844 85.43637847900391 82.28086853027344 87.71944427490234 C 76.67076873779297 90.08309936523438 70.71305084228516 91.28160095214844 64.57318878173828 91.28160095214844 Z" stroke="none" fill="#70089b"/>
      </g>
    </g>
    <path id="Trazado_111041" data-name="Trazado 111041" d="M0,0H55.315V4.564H0Z" transform="translate(-2131.548 -8423.748) rotate(90)" fill="#70089b"/>
    <path id="Trazado_111042" data-name="Trazado 111042" d="M0,0H36.5V3.868H0Z" transform="translate(-2168.053 -8399.229)" fill="#70089b"/>
    <path id="Trazado_111043" data-name="Trazado 111043" d="M10.98-3.187H5.344L4.359,0H-.035L6.223-17.062H10.09L16.395,0H11.977ZM6.328-6.363H10l-1.84-5.918Z" transform="translate(-2191 -8385)" fill="#12263f"/>
    <path id="Trazado_111044" data-name="Trazado 111044" d="M7.535-9.656l3.141-7.406h4.441L9.621-6.129V0H5.449V-6.129L-.035-17.062H4.383Z" transform="translate(-1972.365 -8385)" fill="#12263f"/>
  </g>
</svg>
