<svg xmlns="http://www.w3.org/2000/svg" width="539.5" height="151.762" viewBox="0 0 539.5 151.762">
  <g id="Grupo_66044" data-name="Grupo 66044" transform="translate(6555 5400.227)">
    <path id="Trazado_110959" data-name="Trazado 110959" d="M0,0H42V55H0Z" transform="translate(-6555 -5314)" fill="#43babe"/>
    <path id="Trazado_110960" data-name="Trazado 110960" d="M2.393,0V-20.617h6.74a7.824,7.824,0,0,1,5.048,1.388,5,5,0,0,1,1.692,4.106,4.188,4.188,0,0,1-.821,2.556,5.324,5.324,0,0,1-2.237,1.72A4.781,4.781,0,0,1,15.456-9.07a5.1,5.1,0,0,1,.97,3.122,5.514,5.514,0,0,1-1.8,4.361A7.437,7.437,0,0,1,9.544,0ZM5.112-9.643v7.42H9.6A4.322,4.322,0,0,0,12.6-3.207a3.456,3.456,0,0,0,1.1-2.712q0-3.724-4.05-3.724Zm0-2.181H9.218a4.3,4.3,0,0,0,2.853-.894,3,3,0,0,0,1.069-2.427,2.947,2.947,0,0,0-.991-2.476,4.868,4.868,0,0,0-3.016-.773H5.112Z" transform="translate(-6544 -5278)" fill="#12263f"/>
    <path id="Trazado_110961" data-name="Trazado 110961" d="M0,0H42V55H0Z" transform="translate(-6555 -5388)" fill="#43babe"/>
    <path id="Trazado_110962" data-name="Trazado 110962" d="M13.778-5.4H5.14L3.2,0H.4L8.27-20.617h2.379L18.536,0h-2.79ZM5.961-7.618h7.009L9.459-17.261Z" transform="translate(-6544 -5350)" fill="#12263f"/>
    <path id="Trazado_110963" data-name="Trazado 110963" d="M0,0H42V54H0Z" transform="translate(-6218 -5351)" fill="#43babe"/>
    <path id="Trazado_110964" data-name="Trazado 110964" d="M8.68-10.266l5.381-10.351h3.087L10.04-7.689V0H7.321V-7.689L.212-20.617H3.328Z" transform="translate(-6207 -5316)" fill="#12263f"/>
    <path id="Trazado_110969" data-name="Trazado 110969" d="M9.578-11.328,15.516-22.75h3.406L11.078-8.484V0h-3V-8.484L.234-22.75H3.672Zm25.047-1.391H21.594v-2.516H34.625Zm0,6.484H21.594v-2.5H34.625Zm25.281.281H50.375L48.234,0H45.141l8.688-22.75h2.625L65.156,0H62.078ZM51.281-8.406h7.734L55.141-19.047Zm32.688-3.8h6.344v2.734H83.969v7.188H81.063V-9.469H74.719V-12.2h6.344v-6.641h2.906ZM102.2,0V-22.75h7.438a8.634,8.634,0,0,1,5.57,1.531,5.519,5.519,0,0,1,1.867,4.531,4.621,4.621,0,0,1-.906,2.82,5.875,5.875,0,0,1-2.469,1.9,5.276,5.276,0,0,1,2.914,1.961,5.628,5.628,0,0,1,1.07,3.445A6.085,6.085,0,0,1,115.7-1.75,8.206,8.206,0,0,1,110.094,0Zm3-10.641v8.188h4.953a4.769,4.769,0,0,0,3.3-1.086,3.814,3.814,0,0,0,1.211-2.992q0-4.109-4.469-4.109Zm0-2.406h4.531a4.75,4.75,0,0,0,3.148-.986,3.307,3.307,0,0,0,1.18-2.678,3.252,3.252,0,0,0-1.094-2.733,5.371,5.371,0,0,0-3.328-.853H105.2Z" transform="translate(-6137 -5320)" fill="#12263f"/>
    <path id="Trazado_110970" data-name="Trazado 110970" d="M0,0H81" transform="translate(-6096.5 -5353.5)" fill="none" stroke="#12263f" stroke-width="2"/>
    <g id="Trazado_110965" data-name="Trazado 110965" transform="translate(-6068.5 -5344)" fill="none">
      <path d="M13.5,0A13.5,13.5,0,1,1,0,13.5,13.5,13.5,0,0,1,13.5,0Z" stroke="none"/>
      <path d="M 13.5 1 C 10.16113090515137 1 7.022109985351562 2.300230026245117 4.661169052124023 4.661169052124023 C 2.300230026245117 7.022109985351562 1 10.16113090515137 1 13.5 C 1 16.83887100219727 2.300230026245117 19.97789001464844 4.661169052124023 22.33882904052734 C 7.022109985351562 24.69976997375488 10.16113090515137 26 13.5 26 C 16.83887100219727 26 19.97789001464844 24.69976997375488 22.33882904052734 22.33882904052734 C 24.69976997375488 19.97789001464844 26 16.83887100219727 26 13.5 C 26 10.16113090515137 24.69976997375488 7.022109985351562 22.33882904052734 4.661169052124023 C 19.97789001464844 2.300230026245117 16.83887100219727 1 13.5 1 M 13.5 0 C 20.95584106445312 0 27 6.044160842895508 27 13.5 C 27 20.95584106445312 20.95584106445312 27 13.5 27 C 6.044160842895508 27 0 20.95584106445312 0 13.5 C 0 6.044160842895508 6.044160842895508 0 13.5 0 Z" stroke="none" fill="#12263f"/>
    </g>
    <g id="Grupo_59134" data-name="Grupo 59134" transform="translate(-6483.411 -5397.998)">
      <path id="Unión_10" data-name="Unión 10" d="M1.762,148A82.827,82.827,0,0,0,45.443,74.986,82.554,82.554,0,0,0,0,1.052V0H104.016a57.951,57.951,0,0,1,58,58V69.067H245V76.96H162.015V82a65.945,65.945,0,0,1-66,66Z" transform="translate(20.411 -0.002)" fill="#70089b"/>
      <path id="Trazado_106596" data-name="Trazado 106596" d="M-6772-9905s47.619,24.186,50.642,71.047-46.107,76.343-46.107,76.343" transform="translate(6772 9905)" fill="none" stroke="#70089b" stroke-width="5"/>
    </g>
    <path id="Trazado_110967" data-name="Trazado 110967" d="M0,0H68V7H0Z" transform="translate(-6513 -5364)" fill="#70089b"/>
    <path id="Trazado_110968" data-name="Trazado 110968" d="M0,0H68V7H0Z" transform="translate(-6513 -5289)" fill="#70089b"/>
    <path id="Trazado_110966" data-name="Trazado 110966" d="M13.5,0C20.956,0,27,6.716,27,15S20.956,30,13.5,30,0,23.284,0,15,6.044,0,13.5,0Z" transform="translate(-6303 -5340)" fill="#70089b"/>
  </g>
</svg>
