<svg xmlns="http://www.w3.org/2000/svg" width="1070" height="584" viewBox="0 0 1070 584">
  <g id="Grupo_66046" data-name="Grupo 66046" transform="translate(-265 -2998)">
    <path id="Trazado_110979" data-name="Trazado 110979" d="M10,0H1060a10,10,0,0,1,10,10V574a10,10,0,0,1-10,10H10A10,10,0,0,1,0,574V10A10,10,0,0,1,10,0Z" transform="translate(265 2998)" fill="#e8e8e8"/>
    <path id="Trazado_110978" data-name="Trazado 110978" d="M8.235-2.391H4.008L3.27,0h-3.3L4.667-12.8h2.9L12.3,0H8.982ZM4.746-4.772H7.5L6.117-9.211Zm9.387,8.218-1.494-.7.3-.6a4.874,4.874,0,0,0,.642-2.18v-2.2h2.373L15.943-.325a4.767,4.767,0,0,1-.519,2.057A5.226,5.226,0,0,1,14.133,3.445ZM22.562,0V-12.8h4.6a6.509,6.509,0,0,1,3.757.905A3.012,3.012,0,0,1,32.2-9.264a3.045,3.045,0,0,1-.457,1.7A2.663,2.663,0,0,1,30.4-6.53a2.7,2.7,0,0,1,1.538.984,2.862,2.862,0,0,1,.536,1.758A3.388,3.388,0,0,1,31.285-.962,5.667,5.667,0,0,1,27.756,0Zm3.085-5.44v3.067h2.021a1.923,1.923,0,0,0,1.283-.382A1.338,1.338,0,0,0,29.4-3.832,1.419,1.419,0,0,0,27.809-5.44Zm0-2.021h1.608a2.285,2.285,0,0,0,1.441-.37A1.314,1.314,0,0,0,29.127-8.9a1.379,1.379,0,0,0-.466-1.168,2.493,2.493,0,0,0-1.5-.357H25.646Zm12.5,2.619A5.613,5.613,0,0,1,38.7-7.378a3.96,3.96,0,0,1,1.591-1.709,4.791,4.791,0,0,1,2.435-.6A4.373,4.373,0,0,1,46.09-8.363a5.076,5.076,0,0,1,1.23,3.6v.105a4.925,4.925,0,0,1-1.235,3.529A4.384,4.384,0,0,1,42.741.176,4.434,4.434,0,0,1,39.48-1.042a4.761,4.761,0,0,1-1.327-3.3Zm2.962.185a3.538,3.538,0,0,0,.413,1.934,1.376,1.376,0,0,0,1.222.615q1.582,0,1.617-2.435v-.3q0-2.558-1.635-2.558-1.485,0-1.608,2.206ZM63.6-4.333a4.673,4.673,0,0,1-.721,2.36,4.35,4.35,0,0,1-1.85,1.586,6.3,6.3,0,0,1-2.72.563,5.025,5.025,0,0,1-3.973-1.644,6.786,6.786,0,0,1-1.45-4.641v-.633a7.746,7.746,0,0,1,.655-3.292,4.961,4.961,0,0,1,1.885-2.18,5.26,5.26,0,0,1,2.848-.769,5.516,5.516,0,0,1,3.744,1.226,4.844,4.844,0,0,1,1.608,3.379H60.548a2.292,2.292,0,0,0-.589-1.679,2.422,2.422,0,0,0-1.687-.51,1.843,1.843,0,0,0-1.687.861,5.536,5.536,0,0,0-.562,2.751v.905a6.126,6.126,0,0,0,.514,2.927,1.882,1.882,0,0,0,1.771.879,2.369,2.369,0,0,0,1.626-.5,2.126,2.126,0,0,0,.6-1.591Zm14.634-.352a5.735,5.735,0,0,1-1,3.538A3.2,3.2,0,0,1,74.54.176a2.742,2.742,0,0,1-2.153-.958V3.656H69.425V-9.51h2.769l.088.879a2.742,2.742,0,0,1,2.241-1.055,3.224,3.224,0,0,1,2.733,1.3,5.805,5.805,0,0,1,.976,3.564ZM75.27-4.869q0-2.531-1.477-2.531a1.394,1.394,0,0,0-1.406.756V-2.9a1.439,1.439,0,0,0,1.424.791q1.415,0,1.459-2.443ZM85.2-1.028a3.054,3.054,0,0,1-2.54,1.2,3,3,0,0,1-2.369-.91,3.826,3.826,0,0,1-.8-2.615V-9.51H82.45v6.179a1.065,1.065,0,0,0,1.187,1.222,1.548,1.548,0,0,0,1.45-.729V-9.51h2.979V0H85.289Zm9.088,1.2a4.889,4.889,0,0,1-3.542-1.305,4.507,4.507,0,0,1-1.354-3.4v-.246a5.84,5.84,0,0,1,.541-2.575,3.955,3.955,0,0,1,1.578-1.727,4.763,4.763,0,0,1,2.461-.611,4.117,4.117,0,0,1,3.164,1.244A4.887,4.887,0,0,1,98.3-4.975v1.151H92.408A2.135,2.135,0,0,0,93.1-2.566a2.066,2.066,0,0,0,1.389.457,2.662,2.662,0,0,0,2.2-.984l1.354,1.6A3.784,3.784,0,0,1,96.473-.277,5.3,5.3,0,0,1,94.289.176ZM93.955-7.4q-1.3,0-1.547,1.723H95.4v-.229a1.467,1.467,0,0,0-.36-1.1A1.434,1.434,0,0,0,93.955-7.4Zm5.159,2.575a5.809,5.809,0,0,1,.976-3.56,3.211,3.211,0,0,1,2.725-1.3,2.731,2.731,0,0,1,2.145,1V-13.5h2.971V0h-2.663l-.149-1.02a2.8,2.8,0,0,1-2.32,1.2,3.205,3.205,0,0,1-2.689-1.3A5.993,5.993,0,0,1,99.114-4.825Zm2.962.185q0,2.531,1.477,2.531a1.458,1.458,0,0,0,1.406-.826V-6.557A1.419,1.419,0,0,0,103.57-7.4q-1.371,0-1.485,2.215ZM114.214.176a4.889,4.889,0,0,1-3.542-1.305,4.507,4.507,0,0,1-1.354-3.4v-.246a5.84,5.84,0,0,1,.541-2.575,3.955,3.955,0,0,1,1.578-1.727,4.763,4.763,0,0,1,2.461-.611,4.117,4.117,0,0,1,3.164,1.244,4.887,4.887,0,0,1,1.16,3.467v1.151h-5.889a2.135,2.135,0,0,0,.694,1.257,2.066,2.066,0,0,0,1.389.457,2.662,2.662,0,0,0,2.2-.984l1.354,1.6A3.784,3.784,0,0,1,116.4-.277,5.3,5.3,0,0,1,114.214.176ZM113.88-7.4q-1.3,0-1.547,1.723h2.988v-.229a1.467,1.467,0,0,0-.36-1.1A1.434,1.434,0,0,0,113.88-7.4Zm8.253-2.109.1,1.116a3.225,3.225,0,0,1,2.716-1.292,2.713,2.713,0,0,1,2.219.888,4.226,4.226,0,0,1,.76,2.672V0h-2.971V-6a1.6,1.6,0,0,0-.29-1.059,1.342,1.342,0,0,0-1.055-.338,1.413,1.413,0,0,0-1.292.686V0h-2.962V-9.51ZM139.8-6.829l-.976-.07a1.752,1.752,0,0,0-1.793.879V0h-2.962V-9.51h2.777l.1,1.222a2.294,2.294,0,0,1,2.083-1.4,2.888,2.888,0,0,1,.826.105Zm5.5,7a4.889,4.889,0,0,1-3.542-1.305,4.507,4.507,0,0,1-1.354-3.4v-.246a5.84,5.84,0,0,1,.541-2.575,3.955,3.955,0,0,1,1.578-1.727,4.763,4.763,0,0,1,2.461-.611,4.117,4.117,0,0,1,3.164,1.244,4.887,4.887,0,0,1,1.16,3.467v1.151H143.42a2.135,2.135,0,0,0,.694,1.257,2.066,2.066,0,0,0,1.389.457,2.662,2.662,0,0,0,2.2-.984l1.354,1.6a3.784,3.784,0,0,1-1.569,1.217A5.3,5.3,0,0,1,145.3.176ZM144.967-7.4q-1.3,0-1.547,1.723h2.988v-.229a1.467,1.467,0,0,0-.36-1.1A1.434,1.434,0,0,0,144.967-7.4Zm14.361,2.716a5.735,5.735,0,0,1-1,3.538A3.2,3.2,0,0,1,155.637.176a2.742,2.742,0,0,1-2.153-.958V3.656h-2.962V-9.51h2.769l.088.879a2.742,2.742,0,0,1,2.241-1.055,3.224,3.224,0,0,1,2.733,1.3,5.805,5.805,0,0,1,.976,3.564Zm-2.962-.185q0-2.531-1.477-2.531a1.394,1.394,0,0,0-1.406.756V-2.9a1.439,1.439,0,0,0,1.424.791q1.415,0,1.459-2.443Zm10.02-1.96-.976-.07a1.752,1.752,0,0,0-1.793.879V0h-2.962V-9.51h2.777l.1,1.222a2.294,2.294,0,0,1,2.083-1.4,2.888,2.888,0,0,1,.826.105Zm5.5,7a4.889,4.889,0,0,1-3.542-1.305,4.507,4.507,0,0,1-1.354-3.4v-.246a5.84,5.84,0,0,1,.541-2.575,3.955,3.955,0,0,1,1.578-1.727,4.763,4.763,0,0,1,2.461-.611,4.117,4.117,0,0,1,3.164,1.244,4.887,4.887,0,0,1,1.16,3.467v1.151h-5.889a2.135,2.135,0,0,0,.694,1.257,2.066,2.066,0,0,0,1.389.457,2.662,2.662,0,0,0,2.2-.984l1.354,1.6a3.784,3.784,0,0,1-1.569,1.217A5.3,5.3,0,0,1,171.888.176ZM171.554-7.4q-1.3,0-1.547,1.723H173v-.229a1.467,1.467,0,0,0-.36-1.1A1.434,1.434,0,0,0,171.554-7.4Zm10.512,4.729a.684.684,0,0,0-.4-.606,6.016,6.016,0,0,0-1.5-.475,6.853,6.853,0,0,1-1.828-.646,3.062,3.062,0,0,1-1.1-.971,2.319,2.319,0,0,1-.378-1.31,2.628,2.628,0,0,1,1.081-2.158,4.453,4.453,0,0,1,2.83-.848,4.934,4.934,0,0,1,3.023.853,2.666,2.666,0,0,1,1.143,2.241h-2.971q0-1.143-1.2-1.143a1.194,1.194,0,0,0-.782.259.8.8,0,0,0-.316.646.737.737,0,0,0,.387.642,3.654,3.654,0,0,0,1.235.4,10.671,10.671,0,0,1,1.49.378,2.706,2.706,0,0,1,2.145,2.646,2.491,2.491,0,0,1-1.156,2.118,5.068,5.068,0,0,1-2.993.817,5.172,5.172,0,0,1-2.18-.439,3.645,3.645,0,0,1-1.494-1.2,2.707,2.707,0,0,1-.536-1.591h2.769a1.145,1.145,0,0,0,.439.962,1.808,1.808,0,0,0,1.081.3,1.422,1.422,0,0,0,.91-.246A.787.787,0,0,0,182.065-2.672ZM190.907.176a4.889,4.889,0,0,1-3.542-1.305,4.507,4.507,0,0,1-1.354-3.4v-.246a5.84,5.84,0,0,1,.541-2.575,3.955,3.955,0,0,1,1.578-1.727,4.763,4.763,0,0,1,2.461-.611,4.117,4.117,0,0,1,3.164,1.244,4.887,4.887,0,0,1,1.16,3.467v1.151h-5.889a2.135,2.135,0,0,0,.694,1.257,2.066,2.066,0,0,0,1.389.457,2.662,2.662,0,0,0,2.2-.984l1.354,1.6a3.784,3.784,0,0,1-1.569,1.217A5.3,5.3,0,0,1,190.907.176ZM190.573-7.4q-1.3,0-1.547,1.723h2.988v-.229a1.467,1.467,0,0,0-.36-1.1A1.434,1.434,0,0,0,190.573-7.4Zm8.253-2.109.1,1.116a3.225,3.225,0,0,1,2.716-1.292,2.713,2.713,0,0,1,2.219.888,4.226,4.226,0,0,1,.76,2.672V0h-2.971V-6a1.6,1.6,0,0,0-.29-1.059A1.342,1.342,0,0,0,200.3-7.4a1.413,1.413,0,0,0-1.292.686V0h-2.962V-9.51Zm10.881-2.364V-9.51h1.564v2.057h-1.564V-3.1a1.111,1.111,0,0,0,.193.747,1.037,1.037,0,0,0,.765.211A4.345,4.345,0,0,0,211.4-2.2V-.079a5.466,5.466,0,0,1-1.67.255,3.1,3.1,0,0,1-2.259-.721,2.954,2.954,0,0,1-.729-2.188v-4.72h-1.213V-9.51h1.213v-2.364ZM217.793,0a3.344,3.344,0,0,1-.281-.853A2.754,2.754,0,0,1,215.227.176a3.374,3.374,0,0,1-2.285-.813A2.588,2.588,0,0,1,212-2.681a2.66,2.66,0,0,1,1.143-2.338,5.821,5.821,0,0,1,3.322-.791h.914v-.5q0-1.316-1.134-1.316a.927.927,0,0,0-1.055,1.042h-2.962A2.655,2.655,0,0,1,213.4-8.825a4.931,4.931,0,0,1,2.993-.86,4.323,4.323,0,0,1,2.874.888,3.086,3.086,0,0,1,1.081,2.435v4.21a4.311,4.311,0,0,0,.4,2V0Zm-1.854-1.934a1.652,1.652,0,0,0,.918-.237,1.487,1.487,0,0,0,.523-.536V-4.228h-.861q-1.547,0-1.547,1.389a.848.848,0,0,0,.272.655A.986.986,0,0,0,215.938-1.934Zm11.8-4.9-.976-.07a1.752,1.752,0,0,0-1.793.879V0h-2.962V-9.51h2.777l.1,1.222a2.294,2.294,0,0,1,2.083-1.4,2.888,2.888,0,0,1,.826.105Zm11.215,5.8a3.054,3.054,0,0,1-2.54,1.2,3,3,0,0,1-2.369-.91,3.826,3.826,0,0,1-.8-2.615V-9.51h2.962v6.179a1.065,1.065,0,0,0,1.187,1.222,1.548,1.548,0,0,0,1.45-.729V-9.51h2.979V0h-2.777Zm7.207-8.481.1,1.116a3.225,3.225,0,0,1,2.716-1.292A2.713,2.713,0,0,1,251.2-8.8a4.226,4.226,0,0,1,.76,2.672V0h-2.971V-6a1.6,1.6,0,0,0-.29-1.059,1.342,1.342,0,0,0-1.055-.338,1.413,1.413,0,0,0-1.292.686V0h-2.962V-9.51ZM258.952,0a3.344,3.344,0,0,1-.281-.853A2.754,2.754,0,0,1,256.386.176,3.374,3.374,0,0,1,254.1-.637a2.588,2.588,0,0,1-.94-2.043A2.66,2.66,0,0,1,254.3-5.019a5.821,5.821,0,0,1,3.322-.791h.914v-.5q0-1.316-1.134-1.316a.927.927,0,0,0-1.055,1.042h-2.962a2.655,2.655,0,0,1,1.173-2.239,4.931,4.931,0,0,1,2.993-.86,4.323,4.323,0,0,1,2.874.888,3.086,3.086,0,0,1,1.081,2.435v4.21a4.311,4.311,0,0,0,.4,2V0ZM257.1-1.934a1.652,1.652,0,0,0,.918-.237,1.487,1.487,0,0,0,.523-.536V-4.228h-.861q-1.547,0-1.547,1.389a.848.848,0,0,0,.272.655A.986.986,0,0,0,257.1-1.934Zm15.513-.738a.684.684,0,0,0-.4-.606,6.016,6.016,0,0,0-1.5-.475,6.853,6.853,0,0,1-1.828-.646,3.062,3.062,0,0,1-1.1-.971,2.319,2.319,0,0,1-.378-1.31,2.628,2.628,0,0,1,1.081-2.158,4.453,4.453,0,0,1,2.83-.848,4.934,4.934,0,0,1,3.023.853,2.666,2.666,0,0,1,1.143,2.241h-2.971q0-1.143-1.2-1.143a1.194,1.194,0,0,0-.782.259.8.8,0,0,0-.316.646.737.737,0,0,0,.387.642,3.654,3.654,0,0,0,1.235.4,10.671,10.671,0,0,1,1.49.378,2.706,2.706,0,0,1,2.145,2.646,2.491,2.491,0,0,1-1.156,2.118,5.068,5.068,0,0,1-2.993.817,5.172,5.172,0,0,1-2.18-.439,3.645,3.645,0,0,1-1.494-1.2,2.707,2.707,0,0,1-.536-1.591h2.769a1.145,1.145,0,0,0,.439.962,1.808,1.808,0,0,0,1.081.3,1.422,1.422,0,0,0,.91-.246A.787.787,0,0,0,272.61-2.672Zm3.867-2.171a5.613,5.613,0,0,1,.554-2.536,3.96,3.96,0,0,1,1.591-1.709,4.791,4.791,0,0,1,2.435-.6,4.373,4.373,0,0,1,3.366,1.323,5.076,5.076,0,0,1,1.23,3.6v.105a4.925,4.925,0,0,1-1.235,3.529A4.384,4.384,0,0,1,281.074.176a4.434,4.434,0,0,1-3.261-1.217,4.761,4.761,0,0,1-1.327-3.3Zm2.962.185a3.538,3.538,0,0,0,.413,1.934,1.376,1.376,0,0,0,1.222.615q1.582,0,1.617-2.435v-.3q0-2.558-1.635-2.558-1.485,0-1.608,2.206ZM290.083,0h-2.971V-13.5h2.971Zm7.181,0a3.344,3.344,0,0,1-.281-.853A2.754,2.754,0,0,1,294.7.176a3.374,3.374,0,0,1-2.285-.813,2.588,2.588,0,0,1-.94-2.043,2.66,2.66,0,0,1,1.143-2.338,5.821,5.821,0,0,1,3.322-.791h.914v-.5q0-1.316-1.134-1.316a.927.927,0,0,0-1.055,1.042H291.7a2.655,2.655,0,0,1,1.173-2.239,4.931,4.931,0,0,1,2.993-.86,4.323,4.323,0,0,1,2.874.888,3.086,3.086,0,0,1,1.081,2.435v4.21a4.311,4.311,0,0,0,.4,2V0Zm-1.854-1.934a1.652,1.652,0,0,0,.918-.237,1.487,1.487,0,0,0,.523-.536V-4.228h-.861q-1.547,0-1.547,1.389a.848.848,0,0,0,.272.655A.986.986,0,0,0,295.409-1.934Zm14.326-1.591,1.5-5.985h3.12L311.256,0h-3.023l-3.1-9.51h3.129ZM320.467,0a3.344,3.344,0,0,1-.281-.853A2.754,2.754,0,0,1,317.9.176a3.374,3.374,0,0,1-2.285-.813,2.588,2.588,0,0,1-.94-2.043,2.66,2.66,0,0,1,1.143-2.338,5.821,5.821,0,0,1,3.322-.791h.914v-.5q0-1.316-1.134-1.316a.927.927,0,0,0-1.055,1.042H314.9a2.655,2.655,0,0,1,1.173-2.239,4.931,4.931,0,0,1,2.993-.86,4.323,4.323,0,0,1,2.874.888,3.086,3.086,0,0,1,1.081,2.435v4.21a4.311,4.311,0,0,0,.4,2V0Zm-1.854-1.934a1.652,1.652,0,0,0,.918-.237,1.487,1.487,0,0,0,.523-.536V-4.228h-.861q-1.547,0-1.547,1.389a.848.848,0,0,0,.272.655A.986.986,0,0,0,318.612-1.934Zm11.8-4.9-.976-.07a1.752,1.752,0,0,0-1.793.879V0h-2.962V-9.51h2.777l.1,1.222a2.294,2.294,0,0,1,2.083-1.4,2.888,2.888,0,0,1,.826.105ZM334.608,0h-2.971V-9.51h2.971Zm-3.146-11.971a1.334,1.334,0,0,1,.457-1.043,1.718,1.718,0,0,1,1.187-.407,1.718,1.718,0,0,1,1.187.407,1.334,1.334,0,0,1,.457,1.043,1.334,1.334,0,0,1-.457,1.043,1.718,1.718,0,0,1-1.187.407,1.718,1.718,0,0,1-1.187-.407A1.334,1.334,0,0,1,331.462-11.971ZM341.789,0a3.344,3.344,0,0,1-.281-.853A2.754,2.754,0,0,1,339.223.176a3.374,3.374,0,0,1-2.285-.813A2.588,2.588,0,0,1,336-2.681a2.66,2.66,0,0,1,1.143-2.338,5.821,5.821,0,0,1,3.322-.791h.914v-.5q0-1.316-1.134-1.316a.927.927,0,0,0-1.055,1.042h-2.962A2.655,2.655,0,0,1,337.4-8.825a4.931,4.931,0,0,1,2.993-.86,4.323,4.323,0,0,1,2.874.888,3.086,3.086,0,0,1,1.081,2.435v4.21a4.311,4.311,0,0,0,.4,2V0Zm-1.854-1.934a1.652,1.652,0,0,0,.918-.237,1.487,1.487,0,0,0,.523-.536V-4.228h-.861q-1.547,0-1.547,1.389a.848.848,0,0,0,.272.655A.986.986,0,0,0,339.935-1.934Zm14.88-2.742a5.8,5.8,0,0,1-.967,3.595A3.238,3.238,0,0,1,351.123.176a2.81,2.81,0,0,1-2.338-1.151L348.662,0h-2.654V-13.5h2.962v4.755a2.711,2.711,0,0,1,2.136-.94,3.239,3.239,0,0,1,2.742,1.274,5.826,5.826,0,0,1,.967,3.586Zm-2.971-.189a3.866,3.866,0,0,0-.365-1.952,1.229,1.229,0,0,0-1.121-.584,1.418,1.418,0,0,0-1.389.763v3.773a1.426,1.426,0,0,0,1.406.755A1.258,1.258,0,0,0,351.7-3.127,7.309,7.309,0,0,0,351.844-4.865ZM359.244,0h-2.971V-13.5h2.971Zm6.425.176a4.889,4.889,0,0,1-3.542-1.305,4.507,4.507,0,0,1-1.354-3.4v-.246a5.84,5.84,0,0,1,.541-2.575,3.955,3.955,0,0,1,1.578-1.727,4.763,4.763,0,0,1,2.461-.611,4.117,4.117,0,0,1,3.164,1.244,4.887,4.887,0,0,1,1.16,3.467v1.151h-5.889a2.135,2.135,0,0,0,.694,1.257,2.066,2.066,0,0,0,1.389.457,2.662,2.662,0,0,0,2.2-.984l1.354,1.6a3.784,3.784,0,0,1-1.569,1.217A5.3,5.3,0,0,1,365.669.176ZM365.335-7.4q-1.3,0-1.547,1.723h2.988v-.229a1.467,1.467,0,0,0-.36-1.1A1.434,1.434,0,0,0,365.335-7.4Zm9.642,2.558a5.613,5.613,0,0,1,.554-2.536,3.96,3.96,0,0,1,1.591-1.709,4.791,4.791,0,0,1,2.435-.6,4.373,4.373,0,0,1,3.366,1.323,5.076,5.076,0,0,1,1.23,3.6v.105a4.925,4.925,0,0,1-1.235,3.529A4.384,4.384,0,0,1,379.573.176a4.434,4.434,0,0,1-3.261-1.217,4.761,4.761,0,0,1-1.327-3.3Zm2.962.185a3.538,3.538,0,0,0,.413,1.934,1.376,1.376,0,0,0,1.222.615q1.582,0,1.617-2.435v-.3q0-2.558-1.635-2.558-1.485,0-1.608,2.206ZM395.6-1.028a3.054,3.054,0,0,1-2.54,1.2,3,3,0,0,1-2.369-.91,3.826,3.826,0,0,1-.8-2.615V-9.51h2.962v6.179a1.065,1.065,0,0,0,1.187,1.222,1.548,1.548,0,0,0,1.45-.729V-9.51h2.979V0h-2.777Zm7.207-8.481.1,1.116a3.225,3.225,0,0,1,2.716-1.292,2.713,2.713,0,0,1,2.219.888,4.226,4.226,0,0,1,.76,2.672V0h-2.971V-6a1.6,1.6,0,0,0-.29-1.059,1.342,1.342,0,0,0-1.055-.338A1.413,1.413,0,0,0,403-6.715V0h-2.962V-9.51ZM415.6,0a3.344,3.344,0,0,1-.281-.853A2.754,2.754,0,0,1,413.033.176a3.374,3.374,0,0,1-2.285-.813,2.588,2.588,0,0,1-.94-2.043,2.66,2.66,0,0,1,1.143-2.338,5.821,5.821,0,0,1,3.322-.791h.914v-.5q0-1.316-1.134-1.316A.927.927,0,0,0,413-6.587h-2.962a2.655,2.655,0,0,1,1.173-2.239,4.931,4.931,0,0,1,2.993-.86,4.323,4.323,0,0,1,2.874.888,3.086,3.086,0,0,1,1.081,2.435v4.21a4.311,4.311,0,0,0,.4,2V0Zm-1.854-1.934a1.652,1.652,0,0,0,.918-.237,1.487,1.487,0,0,0,.523-.536V-4.228h-.861q-1.547,0-1.547,1.389a.848.848,0,0,0,.272.655A.986.986,0,0,0,413.745-1.934ZM428.3-2.109a1.317,1.317,0,0,0,.967-.338,1.241,1.241,0,0,0,.334-.945h2.777a3.288,3.288,0,0,1-1.121,2.566,4.168,4.168,0,0,1-2.887,1,4.22,4.22,0,0,1-3.27-1.3,5.125,5.125,0,0,1-1.2-3.6v-.123a5.792,5.792,0,0,1,.532-2.544,3.872,3.872,0,0,1,1.534-1.7,4.573,4.573,0,0,1,2.373-.593,4.116,4.116,0,0,1,2.944,1.028,3.647,3.647,0,0,1,1.09,2.786H429.6A1.626,1.626,0,0,0,429.24-7a1.244,1.244,0,0,0-.967-.4q-1.151,0-1.345,1.468a10.357,10.357,0,0,0-.062,1.283,4.068,4.068,0,0,0,.343,1.986A1.187,1.187,0,0,0,428.3-2.109Zm4.957-2.733a5.613,5.613,0,0,1,.554-2.536A3.96,3.96,0,0,1,435.4-9.088a4.791,4.791,0,0,1,2.435-.6A4.373,4.373,0,0,1,441.2-8.363a5.076,5.076,0,0,1,1.23,3.6v.105A4.925,4.925,0,0,1,441.2-1.129,4.384,4.384,0,0,1,437.854.176a4.434,4.434,0,0,1-3.261-1.217,4.761,4.761,0,0,1-1.327-3.3Zm2.962.185a3.538,3.538,0,0,0,.413,1.934,1.376,1.376,0,0,0,1.222.615q1.582,0,1.617-2.435v-.3q0-2.558-1.635-2.558-1.485,0-1.608,2.206ZM446.537-9.51l.1,1.116a3.27,3.27,0,0,1,2.716-1.292,2.407,2.407,0,0,1,2.435,1.433,3.165,3.165,0,0,1,2.795-1.433q2.892,0,2.971,3.5V0h-2.971V-6a1.813,1.813,0,0,0-.246-1.063,1.048,1.048,0,0,0-.9-.334,1.4,1.4,0,0,0-1.31.782l.009.123V0h-2.971V-5.985a1.906,1.906,0,0,0-.237-1.081,1.045,1.045,0,0,0-.905-.334,1.42,1.42,0,0,0-1.3.782V0H443.76V-9.51ZM468.07-4.676a5.8,5.8,0,0,1-.967,3.595A3.238,3.238,0,0,1,464.379.176a2.81,2.81,0,0,1-2.338-1.151L461.918,0h-2.654V-13.5h2.962v4.755a2.711,2.711,0,0,1,2.136-.94A3.239,3.239,0,0,1,467.1-8.411a5.826,5.826,0,0,1,.967,3.586ZM465.1-4.865a3.866,3.866,0,0,0-.365-1.952,1.229,1.229,0,0,0-1.121-.584,1.418,1.418,0,0,0-1.389.763v3.773a1.426,1.426,0,0,0,1.406.755,1.258,1.258,0,0,0,1.327-1.018A7.309,7.309,0,0,0,465.1-4.865ZM472.5,0h-2.971V-9.51H472.5Zm-3.146-11.971a1.334,1.334,0,0,1,.457-1.043A1.718,1.718,0,0,1,471-13.421a1.718,1.718,0,0,1,1.187.407,1.334,1.334,0,0,1,.457,1.043,1.334,1.334,0,0,1-.457,1.043,1.718,1.718,0,0,1-1.187.407,1.718,1.718,0,0,1-1.187-.407A1.334,1.334,0,0,1,469.354-11.971Zm7.69,2.461.1,1.116a3.225,3.225,0,0,1,2.716-1.292,2.713,2.713,0,0,1,2.219.888,4.226,4.226,0,0,1,.76,2.672V0h-2.971V-6a1.6,1.6,0,0,0-.29-1.059,1.342,1.342,0,0,0-1.055-.338,1.413,1.413,0,0,0-1.292.686V0h-2.962V-9.51ZM489.832,0a3.344,3.344,0,0,1-.281-.853A2.754,2.754,0,0,1,487.266.176a3.374,3.374,0,0,1-2.285-.813,2.588,2.588,0,0,1-.94-2.043,2.66,2.66,0,0,1,1.143-2.338A5.821,5.821,0,0,1,488.5-5.81h.914v-.5q0-1.316-1.134-1.316a.927.927,0,0,0-1.055,1.042h-2.962a2.655,2.655,0,0,1,1.173-2.239,4.931,4.931,0,0,1,2.993-.86,4.323,4.323,0,0,1,2.874.888,3.086,3.086,0,0,1,1.081,2.435v4.21a4.311,4.311,0,0,0,.4,2V0Zm-1.854-1.934a1.652,1.652,0,0,0,.918-.237,1.487,1.487,0,0,0,.523-.536V-4.228h-.861q-1.547,0-1.547,1.389a.848.848,0,0,0,.272.655A.986.986,0,0,0,487.978-1.934Zm10.072-.176a1.317,1.317,0,0,0,.967-.338,1.241,1.241,0,0,0,.334-.945h2.777a3.288,3.288,0,0,1-1.121,2.566,4.168,4.168,0,0,1-2.887,1,4.22,4.22,0,0,1-3.27-1.3,5.125,5.125,0,0,1-1.2-3.6v-.123a5.792,5.792,0,0,1,.532-2.544,3.872,3.872,0,0,1,1.534-1.7,4.573,4.573,0,0,1,2.373-.593,4.116,4.116,0,0,1,2.944,1.028,3.647,3.647,0,0,1,1.09,2.786h-2.777A1.626,1.626,0,0,0,498.99-7a1.244,1.244,0,0,0-.967-.4q-1.151,0-1.345,1.468a10.357,10.357,0,0,0-.062,1.283,4.068,4.068,0,0,0,.343,1.986A1.187,1.187,0,0,0,498.05-2.109ZM506.5,0h-2.971V-9.51H506.5Zm-3.146-11.971a1.334,1.334,0,0,1,.457-1.043A1.718,1.718,0,0,1,505-13.421a1.718,1.718,0,0,1,1.187.407,1.334,1.334,0,0,1,.457,1.043,1.334,1.334,0,0,1-.457,1.043,1.718,1.718,0,0,1-1.187.407,1.718,1.718,0,0,1-1.187-.407A1.334,1.334,0,0,1,503.358-11.971Zm4.6,7.128a5.613,5.613,0,0,1,.554-2.536A3.96,3.96,0,0,1,510.1-9.088a4.791,4.791,0,0,1,2.435-.6A4.373,4.373,0,0,1,515.9-8.363a5.076,5.076,0,0,1,1.23,3.6v.105A4.925,4.925,0,0,1,515.9-1.129,4.384,4.384,0,0,1,512.552.176a4.434,4.434,0,0,1-3.261-1.217,4.761,4.761,0,0,1-1.327-3.3Zm2.962.185a3.538,3.538,0,0,0,.413,1.934,1.376,1.376,0,0,0,1.222.615q1.582,0,1.617-2.435v-.3q0-2.558-1.635-2.558-1.485,0-1.608,2.206Zm2.021-8.842h3.129l-2.443,2.76-2.417,0Zm8.218,3.99.1,1.116a3.225,3.225,0,0,1,2.716-1.292,2.713,2.713,0,0,1,2.219.888,4.226,4.226,0,0,1,.76,2.672V0h-2.971V-6a1.6,1.6,0,0,0-.29-1.059,1.342,1.342,0,0,0-1.055-.338,1.413,1.413,0,0,0-1.292.686V0h-2.962V-9.51ZM532.7-4.825a5.809,5.809,0,0,1,.976-3.56,3.211,3.211,0,0,1,2.725-1.3,2.731,2.731,0,0,1,2.145,1V-13.5h2.971V0h-2.663L538.7-1.02a2.8,2.8,0,0,1-2.32,1.2,3.205,3.205,0,0,1-2.689-1.3A5.993,5.993,0,0,1,532.7-4.825Zm2.962.185q0,2.531,1.477,2.531a1.458,1.458,0,0,0,1.406-.826V-6.557a1.419,1.419,0,0,0-1.389-.844q-1.371,0-1.485,2.215ZM547.8.176a4.889,4.889,0,0,1-3.542-1.305,4.507,4.507,0,0,1-1.354-3.4v-.246a5.84,5.84,0,0,1,.541-2.575,3.955,3.955,0,0,1,1.578-1.727,4.763,4.763,0,0,1,2.461-.611,4.117,4.117,0,0,1,3.164,1.244,4.887,4.887,0,0,1,1.16,3.467v1.151h-5.889a2.135,2.135,0,0,0,.694,1.257A2.066,2.066,0,0,0,548-2.109a2.662,2.662,0,0,0,2.2-.984l1.354,1.6A3.784,3.784,0,0,1,549.98-.277,5.3,5.3,0,0,1,547.8.176ZM547.462-7.4q-1.3,0-1.547,1.723H548.9v-.229a1.467,1.467,0,0,0-.36-1.1A1.434,1.434,0,0,0,547.462-7.4ZM561.27-3.524l1.5-5.985h3.12L562.79,0h-3.023l-3.1-9.51h3.129ZM572,0a3.344,3.344,0,0,1-.281-.853A2.754,2.754,0,0,1,569.435.176a3.374,3.374,0,0,1-2.285-.813,2.588,2.588,0,0,1-.94-2.043,2.66,2.66,0,0,1,1.143-2.338,5.821,5.821,0,0,1,3.322-.791h.914v-.5q0-1.316-1.134-1.316A.927.927,0,0,0,569.4-6.587h-2.962a2.655,2.655,0,0,1,1.173-2.239,4.931,4.931,0,0,1,2.993-.86,4.323,4.323,0,0,1,2.874.888,3.086,3.086,0,0,1,1.081,2.435v4.21a4.311,4.311,0,0,0,.4,2V0Zm-1.854-1.934a1.652,1.652,0,0,0,.918-.237,1.487,1.487,0,0,0,.523-.536V-4.228h-.861q-1.547,0-1.547,1.389a.848.848,0,0,0,.272.655A.986.986,0,0,0,570.146-1.934Zm11.8-4.9-.976-.07a1.752,1.752,0,0,0-1.793.879V0H576.22V-9.51H579l.1,1.222a2.294,2.294,0,0,1,2.083-1.4A2.888,2.888,0,0,1,582-9.58ZM586.143,0h-2.971V-9.51h2.971ZM583-11.971a1.334,1.334,0,0,1,.457-1.043,1.718,1.718,0,0,1,1.187-.407,1.718,1.718,0,0,1,1.187.407,1.334,1.334,0,0,1,.457,1.043,1.334,1.334,0,0,1-.457,1.043,1.718,1.718,0,0,1-1.187.407,1.718,1.718,0,0,1-1.187-.407A1.334,1.334,0,0,1,583-11.971ZM593.323,0a3.344,3.344,0,0,1-.281-.853A2.754,2.754,0,0,1,590.757.176a3.374,3.374,0,0,1-2.285-.813,2.588,2.588,0,0,1-.94-2.043,2.66,2.66,0,0,1,1.143-2.338A5.821,5.821,0,0,1,592-5.81h.914v-.5q0-1.316-1.134-1.316a.927.927,0,0,0-1.055,1.042H587.76a2.655,2.655,0,0,1,1.173-2.239,4.931,4.931,0,0,1,2.993-.86A4.323,4.323,0,0,1,594.8-8.8a3.086,3.086,0,0,1,1.081,2.435v4.21a4.311,4.311,0,0,0,.4,2V0Zm-1.854-1.934a1.652,1.652,0,0,0,.918-.237,1.487,1.487,0,0,0,.523-.536V-4.228h-.861q-1.547,0-1.547,1.389a.848.848,0,0,0,.272.655A.986.986,0,0,0,591.469-1.934Zm14.88-2.742a5.8,5.8,0,0,1-.967,3.595A3.238,3.238,0,0,1,602.657.176a2.81,2.81,0,0,1-2.338-1.151L600.2,0h-2.654V-13.5H600.5v4.755a2.711,2.711,0,0,1,2.136-.94,3.239,3.239,0,0,1,2.742,1.274,5.826,5.826,0,0,1,.967,3.586Zm-2.971-.189a3.866,3.866,0,0,0-.365-1.952,1.229,1.229,0,0,0-1.121-.584,1.418,1.418,0,0,0-1.389.763v3.773a1.426,1.426,0,0,0,1.406.755,1.258,1.258,0,0,0,1.327-1.018A7.309,7.309,0,0,0,603.378-4.865ZM610.778,0h-2.971V-13.5h2.971ZM617.2.176a4.889,4.889,0,0,1-3.542-1.305,4.507,4.507,0,0,1-1.354-3.4v-.246a5.84,5.84,0,0,1,.541-2.575,3.955,3.955,0,0,1,1.578-1.727,4.763,4.763,0,0,1,2.461-.611,4.117,4.117,0,0,1,3.164,1.244,4.887,4.887,0,0,1,1.16,3.467v1.151h-5.889a2.135,2.135,0,0,0,.694,1.257,2.066,2.066,0,0,0,1.389.457,2.662,2.662,0,0,0,2.2-.984l1.354,1.6a3.784,3.784,0,0,1-1.569,1.217A5.3,5.3,0,0,1,617.2.176ZM616.869-7.4q-1.3,0-1.547,1.723h2.988v-.229a1.467,1.467,0,0,0-.36-1.1A1.434,1.434,0,0,0,616.869-7.4Zm10.512,4.729a.684.684,0,0,0-.4-.606,6.016,6.016,0,0,0-1.5-.475,6.853,6.853,0,0,1-1.828-.646,3.062,3.062,0,0,1-1.1-.971,2.319,2.319,0,0,1-.378-1.31,2.628,2.628,0,0,1,1.081-2.158,4.453,4.453,0,0,1,2.83-.848,4.934,4.934,0,0,1,3.023.853,2.666,2.666,0,0,1,1.143,2.241h-2.971q0-1.143-1.2-1.143a1.194,1.194,0,0,0-.782.259.8.8,0,0,0-.316.646.737.737,0,0,0,.387.642,3.654,3.654,0,0,0,1.235.4,10.671,10.671,0,0,1,1.49.378,2.706,2.706,0,0,1,2.145,2.646,2.491,2.491,0,0,1-1.156,2.118,5.068,5.068,0,0,1-2.993.817,5.172,5.172,0,0,1-2.18-.439,3.645,3.645,0,0,1-1.494-1.2,2.707,2.707,0,0,1-.536-1.591h2.769a1.145,1.145,0,0,0,.439.962,1.808,1.808,0,0,0,1.081.3,1.422,1.422,0,0,0,.91-.246A.787.787,0,0,0,627.381-2.672Z" transform="translate(485 3547)" fill="#12263f"/>
    <path id="Trazado_111030" data-name="Trazado 111030" d="M5,0H191.507a5,5,0,0,1,5,5V47.754a5,5,0,0,1-5,5H5a5,5,0,0,1-5-5V5A5,5,0,0,1,5,0Z" transform="translate(464.029 3035.183)" fill="#f6f6f6"/>
    <path id="Trazado_111031" data-name="Trazado 111031" d="M12.353-4.837H4.608L2.869,0H.355L7.414-18.484H9.547L16.618,0h-2.5ZM5.345-6.83h6.284L8.48-15.476ZM31.9-9.915h5.154v2.222H31.9v5.84H29.542v-5.84H24.388V-9.915h5.154v-5.4H31.9ZM57.7-7.884q0,4.126-1.409,6.132A5.012,5.012,0,0,1,51.886.254a5.048,5.048,0,0,1-4.38-1.961,10.2,10.2,0,0,1-1.473-5.859V-10.7q0-4.075,1.409-6.056a5.05,5.05,0,0,1,4.418-1.98,5.1,5.1,0,0,1,4.393,1.911q1.409,1.911,1.447,5.9ZM55.352-11.1a8.606,8.606,0,0,0-.838-4.348,2.884,2.884,0,0,0-2.653-1.365,2.846,2.846,0,0,0-2.628,1.358,8.4,8.4,0,0,0-.851,4.177v3.758a8.744,8.744,0,0,0,.87,4.424,2.879,2.879,0,0,0,2.634,1.428,2.839,2.839,0,0,0,2.583-1.346,8.428,8.428,0,0,0,.882-4.24Zm22.775.762H67.539v-2.044H78.127Zm0,5.269H67.539V-7.1H78.127Zm20.541.229H90.924L89.185,0H86.671l7.059-18.484h2.133L102.934,0h-2.5ZM91.66-6.83h6.284L94.8-15.476Z" transform="translate(497 3070.096)" fill="#12263f"/>
    <path id="Trazado_106954" data-name="Trazado 106954" d="M-4788.652-8659h-60.52v305.428H-4902" transform="translate(5582.318 11718.581)" fill="none" stroke="#43babe" stroke-width="3"/>
    <path id="Trazado_106955" data-name="Trazado 106955" d="M-4900-8244.2h31.916V-8566h78.794" transform="translate(5580.319 11702.189)" fill="none" stroke="#43babe" stroke-width="3"/>
    <path id="Trazado_111032" data-name="Trazado 111032" d="M5,0H47.754a5,5,0,0,1,5,5V47.754a5,5,0,0,1-5,5H5a5,5,0,0,1-5-5V5A5,5,0,0,1,5,0Z" transform="translate(417.87 3035.183)" fill="#70089b"/>
    <path id="Trazado_111033" data-name="Trazado 111033" d="M11.035,0H8.219V-18.664L2.573-16.59v-2.543L10.6-22.145h.439Z" transform="translate(435.015 3071.139)" fill="#fff"/>
    <g id="Trazado_111034" data-name="Trazado 111034" transform="translate(406 3025)" fill="none">
      <path d="M0,0H269V73H0Z" stroke="none"/>
      <path d="M 2 2 L 2 71 L 267 71 L 267 2 L 2 2 M 0 0 L 269 0 L 269 73 L 0 73 L 0 0 Z" stroke="none" fill="#43babe"/>
    </g>
    <g id="Trazado_111035" data-name="Trazado 111035" transform="translate(406 3025)" fill="none">
      <path d="M0,0H269V73H0Z" stroke="none"/>
      <path d="M 2 2 L 2 71 L 267 71 L 267 2 L 2 2 M 0 0 L 269 0 L 269 73 L 0 73 L 0 0 Z" stroke="none" fill="#43babe"/>
    </g>
    <path id="Trazado_110980" data-name="Trazado 110980" d="M5,0H191.507a5,5,0,0,1,5,5V47.754a5,5,0,0,1-5,5H5a5,5,0,0,1-5-5V5A5,5,0,0,1,5,0Z" transform="translate(464.029 3420.513)" fill="#f6f6f6"/>
    <path id="Trazado_110981" data-name="Trazado 110981" d="M12.353-4.837H4.608L2.869,0H.355L7.414-18.484H9.547L16.618,0h-2.5ZM5.345-6.83h6.284L8.48-15.476ZM31.9-9.915h5.154v2.222H31.9v5.84H29.542v-5.84H24.388V-9.915h5.154v-5.4H31.9ZM56.926-4.837H49.182L47.442,0H44.929l7.059-18.484H54.12L61.191,0h-2.5ZM49.918-6.83H56.2l-3.148-8.646Zm7.77-13.876H48.623v-1.815h9.064Zm22.8,10.372H69.9v-2.044H80.488Zm0,5.269H69.9V-7.1H80.488ZM97.932,0H95.57V-15.653l-4.735,1.739v-2.133l6.729-2.526h.368Z" transform="translate(497 3455.426)" fill="#12263f"/>
    <path id="Trazado_110982" data-name="Trazado 110982" d="M5,0H47.754a5,5,0,0,1,5,5V47.754a5,5,0,0,1-5,5H5a5,5,0,0,1-5-5V5A5,5,0,0,1,5,0Z" transform="translate(417.87 3420.513)" fill="#70089b"/>
    <path id="Trazado_110983" data-name="Trazado 110983" d="M12.821-22.054v2.376h-.515A7.373,7.373,0,0,0,7.1-17.74a8.062,8.062,0,0,0-2.24,5.283,5.977,5.977,0,0,1,4.753-2,5.715,5.715,0,0,1,4.594,2.028A7.824,7.824,0,0,1,15.924-7.19,7.8,7.8,0,0,1,14.07-1.741,6.385,6.385,0,0,1,9.1.3,6.291,6.291,0,0,1,3.966-2.127,9.629,9.629,0,0,1,2-8.386V-9.46q0-6.085,2.6-9.3t7.727-3.292Zm-3.678,9.93a4.468,4.468,0,0,0-2.649.863A4.5,4.5,0,0,0,4.813-9.1v1.029A7.23,7.23,0,0,0,6.04-3.678,3.674,3.674,0,0,0,9.1-2.013a3.56,3.56,0,0,0,2.974-1.393,5.778,5.778,0,0,0,1.082-3.648,5.78,5.78,0,0,0-1.1-3.671A3.518,3.518,0,0,0,9.143-12.125Z" transform="translate(436.333 3456.469)" fill="#fff"/>
    <g id="Trazado_110984" data-name="Trazado 110984" transform="translate(406 3411)" fill="none">
      <path d="M0,0H269V72H0Z" stroke="none"/>
      <path d="M 2 2 L 2 70 L 267 70 L 267 2 L 2 2 M 0 0 L 269 0 L 269 72 L 0 72 L 0 0 Z" stroke="none" fill="#43babe"/>
    </g>
    <path id="Trazado_110990" data-name="Trazado 110990" d="M5,0H191.507a5,5,0,0,1,5,5V47.754a5,5,0,0,1-5,5H5a5,5,0,0,1-5-5V5A5,5,0,0,1,5,0Z" transform="translate(464.029 3338.516)" fill="#f6f6f6"/>
    <path id="Trazado_110991" data-name="Trazado 110991" d="M12.353-4.837H4.608L2.869,0H.355L7.414-18.484H9.547L16.618,0h-2.5ZM5.345-6.83h6.284L8.48-15.476ZM31.9-9.915h5.154v2.222H31.9v5.84H29.542v-5.84H24.388V-9.915h5.154v-5.4H31.9ZM56.926-4.837H49.182L47.442,0H44.929l7.059-18.484H54.12L61.191,0h-2.5ZM49.918-6.83H56.2l-3.148-8.646Zm30.57-3.5H69.9v-2.044H80.488Zm0,5.269H69.9V-7.1H80.488Zm20.541.229H93.285L91.546,0H89.032l7.059-18.484h2.133L105.295,0h-2.5ZM94.021-6.83h6.284l-3.148-8.646Z" transform="translate(497 3373.429)" fill="#12263f"/>
    <path id="Trazado_110992" data-name="Trazado 110992" d="M5,0H47.754a5,5,0,0,1,5,5V47.754a5,5,0,0,1-5,5H5a5,5,0,0,1-5-5V5A5,5,0,0,1,5,0Z" transform="translate(417.87 3338.516)" fill="#70089b"/>
    <path id="Trazado_110993" data-name="Trazado 110993" d="M3.118-11.05l1.12-10.989H15.53v2.588H6.615l-.666,6.009A7.112,7.112,0,0,1,9.627-14.4,6.08,6.08,0,0,1,14.41-12.4a7.8,7.8,0,0,1,1.771,5.381,7.53,7.53,0,0,1-1.839,5.366A6.7,6.7,0,0,1,9.2.3a6.966,6.966,0,0,1-4.768-1.62,6.465,6.465,0,0,1-2.1-4.48H4.98A4.447,4.447,0,0,0,6.327-2.944,4.189,4.189,0,0,0,9.2-1.983a3.779,3.779,0,0,0,3.065-1.332,5.568,5.568,0,0,0,1.113-3.678,5.111,5.111,0,0,0-1.2-3.55,4.093,4.093,0,0,0-3.2-1.34,4.616,4.616,0,0,0-2.876.8l-.742.605Z" transform="translate(436.333 3374.473)" fill="#fff"/>
    <g id="Trazado_110994" data-name="Trazado 110994" transform="translate(406 3329)" fill="none">
      <path d="M0,0H269V72H0Z" stroke="none"/>
      <path d="M 2 2 L 2 70 L 267 70 L 267 2 L 2 2 M 0 0 L 269 0 L 269 72 L 0 72 L 0 0 Z" stroke="none" fill="#43babe"/>
    </g>
    <path id="Trazado_110995" data-name="Trazado 110995" d="M5,0H191.507a5,5,0,0,1,5,5V47.754a5,5,0,0,1-5,5H5a5,5,0,0,1-5-5V5A5,5,0,0,1,5,0Z" transform="translate(464.029 3122.226)" fill="#f6f6f6"/>
    <path id="Trazado_110996" data-name="Trazado 110996" d="M5,0H191.507a5,5,0,0,1,5,5V47.754a5,5,0,0,1-5,5H5a5,5,0,0,1-5-5V5A5,5,0,0,1,5,0Z" transform="translate(464.029 3186.85)" fill="#f6f6f6"/>
    <path id="Trazado_110997" data-name="Trazado 110997" d="M5,0H191.507a5,5,0,0,1,5,5V47.754a5,5,0,0,1-5,5H5a5,5,0,0,1-5-5V5A5,5,0,0,1,5,0Z" transform="translate(465.348 3251.473)" fill="#f6f6f6"/>
    <path id="Trazado_110998" data-name="Trazado 110998" d="M12.353-4.837H4.608L2.869,0H.355L7.414-18.484H9.547L16.618,0h-2.5ZM5.345-6.83h6.284L8.48-15.476ZM31.9-9.915h5.154v2.222H31.9v5.84H29.542v-5.84H24.388V-9.915h5.154v-5.4H31.9ZM53.828,0H51.467V-15.653l-4.735,1.739v-2.133l6.729-2.526h.368Zm24.3-10.334H67.539v-2.044H78.127Zm0,5.269H67.539V-7.1H78.127ZM95.57,0H93.209V-15.653l-4.735,1.739v-2.133L95.2-18.573h.368Z" transform="translate(497 3157.139)" fill="#12263f"/>
    <path id="Trazado_110999" data-name="Trazado 110999" d="M12.353-4.837H4.608L2.869,0H.355L7.414-18.484H9.547L16.618,0h-2.5ZM5.345-6.83h6.284L8.48-15.476ZM29.9-12.035a2.053,2.053,0,0,1,1.6.711,2.07,2.07,0,0,1,.559,1.447,2.064,2.064,0,0,1-.711,1.587,2.073,2.073,0,0,1-1.447.571,2.087,2.087,0,0,1-1.6-.724,2.083,2.083,0,0,1-.559-1.435,2.075,2.075,0,0,1,.724-1.612A2.08,2.08,0,0,1,29.9-12.035ZM55.961-7.884q0,4.126-1.409,6.132A5.012,5.012,0,0,1,50.146.254a5.048,5.048,0,0,1-4.38-1.961,10.2,10.2,0,0,1-1.473-5.859V-10.7q0-4.075,1.409-6.056a5.05,5.05,0,0,1,4.418-1.98,5.1,5.1,0,0,1,4.393,1.911q1.409,1.911,1.447,5.9ZM53.612-11.1a8.606,8.606,0,0,0-.838-4.348,2.884,2.884,0,0,0-2.653-1.365,2.846,2.846,0,0,0-2.628,1.358,8.4,8.4,0,0,0-.851,4.177v3.758a8.744,8.744,0,0,0,.87,4.424,2.879,2.879,0,0,0,2.634,1.428A2.839,2.839,0,0,0,52.73-3.009a8.428,8.428,0,0,0,.882-4.24Zm22.775.762H65.8v-2.044H76.388Zm0,5.269H65.8V-7.1H76.388ZM97.7-7.884q0,4.126-1.409,6.132A5.012,5.012,0,0,1,91.889.254a5.048,5.048,0,0,1-4.38-1.961,10.2,10.2,0,0,1-1.473-5.859V-10.7q0-4.075,1.409-6.056a5.05,5.05,0,0,1,4.418-1.98,5.1,5.1,0,0,1,4.393,1.911q1.409,1.911,1.447,5.9ZM95.354-11.1a8.606,8.606,0,0,0-.838-4.348,2.884,2.884,0,0,0-2.653-1.365,2.846,2.846,0,0,0-2.628,1.358,8.4,8.4,0,0,0-.851,4.177v3.758a8.744,8.744,0,0,0,.87,4.424,2.879,2.879,0,0,0,2.634,1.428,2.839,2.839,0,0,0,2.583-1.346,8.428,8.428,0,0,0,.882-4.24Z" transform="translate(497 3221.443)" fill="#12263f"/>
    <path id="Trazado_111000" data-name="Trazado 111000" d="M12.353-4.837H4.608L2.869,0H.355L7.414-18.484H9.547L16.618,0h-2.5ZM5.345-6.83h6.284L8.48-15.476ZM29.9-12.035a2.053,2.053,0,0,1,1.6.711,2.07,2.07,0,0,1,.559,1.447,2.064,2.064,0,0,1-.711,1.587,2.073,2.073,0,0,1-1.447.571,2.087,2.087,0,0,1-1.6-.724,2.083,2.083,0,0,1-.559-1.435,2.075,2.075,0,0,1,.724-1.612A2.08,2.08,0,0,1,29.9-12.035ZM52.089,0H49.728V-15.653l-4.735,1.739v-2.133l6.729-2.526h.368Zm24.3-10.334H65.8v-2.044H76.388Zm0,5.269H65.8V-7.1H76.388Zm20.541.229H89.185L87.445,0H84.932L91.99-18.484h2.133L101.194,0h-2.5ZM89.921-6.83h6.284l-3.148-8.646Z" transform="translate(498.319 3286.066)" fill="#12263f"/>
    <path id="Trazado_111001" data-name="Trazado 111001" d="M5,0H47.754a5,5,0,0,1,5,5V47.754a5,5,0,0,1-5,5H5a5,5,0,0,1-5-5V5A5,5,0,0,1,5,0Z" transform="translate(417.87 3122.226)" fill="#70089b"/>
    <path id="Trazado_111002" data-name="Trazado 111002" d="M5,0H47.754a5,5,0,0,1,5,5V47.754a5,5,0,0,1-5,5H5a5,5,0,0,1-5-5V5A5,5,0,0,1,5,0Z" transform="translate(417.87 3186.85)" fill="#70089b"/>
    <path id="Trazado_111003" data-name="Trazado 111003" d="M5,0H47.754a5,5,0,0,1,5,5V47.754a5,5,0,0,1-5,5H5a5,5,0,0,1-5-5V5A5,5,0,0,1,5,0Z" transform="translate(419.188 3251.473)" fill="#70089b"/>
    <path id="Trazado_111004" data-name="Trazado 111004" d="M16.272,0H1.832V-2.013L9.46-10.49A18.124,18.124,0,0,0,11.8-13.615a5.217,5.217,0,0,0,.643-2.49A3.954,3.954,0,0,0,11.4-18.936a3.652,3.652,0,0,0-2.785-1.1,4.325,4.325,0,0,0-3.247,1.188,4.539,4.539,0,0,0-1.158,3.307h-2.8a6.5,6.5,0,0,1,1.96-4.919,7.267,7.267,0,0,1,5.245-1.877,6.983,6.983,0,0,1,4.859,1.612,5.5,5.5,0,0,1,1.786,4.291q0,3.254-4.147,7.75l-5.9,6.4H16.272Z" transform="translate(435.015 3158.183)" fill="#fff"/>
    <path id="Trazado_111005" data-name="Trazado 111005" d="M5.9-12.382h2.1a4.624,4.624,0,0,0,3.118-1.044,3.49,3.49,0,0,0,1.135-2.74q0-3.875-3.86-3.875A4.015,4.015,0,0,0,5.5-19,3.629,3.629,0,0,0,4.42-16.257H1.62a5.622,5.622,0,0,1,1.915-4.352A6.975,6.975,0,0,1,8.4-22.342a6.893,6.893,0,0,1,4.889,1.65,5.96,5.96,0,0,1,1.771,4.586,4.838,4.838,0,0,1-.931,2.785,5.621,5.621,0,0,1-2.535,2.013A5.416,5.416,0,0,1,14.4-9.4a5.3,5.3,0,0,1,.991,3.254,6.012,6.012,0,0,1-1.937,4.708A7.256,7.256,0,0,1,8.416.3a7.447,7.447,0,0,1-5.048-1.68A5.574,5.574,0,0,1,1.423-5.812H4.238A3.6,3.6,0,0,0,5.374-3.027,4.318,4.318,0,0,0,8.416-1.983a4.237,4.237,0,0,0,3.1-1.06,4.083,4.083,0,0,0,1.075-3.042,3.705,3.705,0,0,0-1.181-2.952A5.144,5.144,0,0,0,8.007-10.1H5.9Z" transform="translate(436.333 3222.806)" fill="#fff"/>
    <path id="Trazado_111006" data-name="Trazado 111006" d="M13.653-7.4h3.058v2.286H13.653V0H10.838V-5.116H.8v-1.65l9.869-15.273h2.982Zm-9.672,0h6.857V-18.209L10.5-17.6Z" transform="translate(437.652 3287.429)" fill="#fff"/>
    <g id="Trazado_111007" data-name="Trazado 111007" transform="translate(406 3107)" fill="none">
      <path d="M0,0H269V211H0Z" stroke="none"/>
      <path d="M 2 2 L 2 209 L 267 209 L 267 2 L 2 2 M 0 0 L 269 0 L 269 211 L 0 211 L 0 0 Z" stroke="none" fill="#43babe"/>
    </g>
    <path id="Trazado_110985" data-name="Trazado 110985" d="M5,0H300.971a5,5,0,0,1,5,5V47.754a5,5,0,0,1-5,5H5a5,5,0,0,1-5-5V5A5,5,0,0,1,5,0Z" transform="translate(854.159 3437.429)" fill="#f6f6f6"/>
    <path id="Trazado_110986" data-name="Trazado 110986" d="M1.688-7.5a19.628,19.628,0,0,1,.768-5.51,16.006,16.006,0,0,1,2.292-4.8,9.749,9.749,0,0,1,3.161-3.047l.482,1.549a10.111,10.111,0,0,0-3.041,4.342A18.822,18.822,0,0,0,4.05-8.43L4.037-7.351a18.92,18.92,0,0,0,1.79,8.506A10.159,10.159,0,0,0,8.392,4.532L7.909,5.967A10.062,10.062,0,0,1,4.685,2.818,17.646,17.646,0,0,1,1.688-7.5ZM21.239-4.837H13.5L11.756,0H9.242L16.3-18.484h2.133L25.5,0H23ZM14.231-6.83h6.284l-3.148-8.646ZM34.354-9.915h5.154v2.222H34.354v5.84H31.992v-5.84H26.838V-9.915h5.154v-5.4h2.361ZM42.732,0V-18.484h6.043A7.015,7.015,0,0,1,53.3-17.24a4.484,4.484,0,0,1,1.517,3.682,3.754,3.754,0,0,1-.736,2.292,4.773,4.773,0,0,1-2.006,1.542,4.287,4.287,0,0,1,2.368,1.593,4.573,4.573,0,0,1,.87,2.8A4.944,4.944,0,0,1,53.7-1.422,6.668,6.668,0,0,1,49.144,0ZM45.17-8.646v6.652h4.024a3.875,3.875,0,0,0,2.685-.882,3.1,3.1,0,0,0,.984-2.431q0-3.339-3.631-3.339Zm0-1.955h3.682a3.859,3.859,0,0,0,2.558-.8,2.687,2.687,0,0,0,.958-2.176,2.642,2.642,0,0,0-.889-2.22,4.364,4.364,0,0,0-2.7-.693H45.17Zm18.8,3.225a19.637,19.637,0,0,1-.743,5.427,16.048,16.048,0,0,1-2.272,4.792,9.956,9.956,0,0,1-3.206,3.123l-.5-1.435A10.206,10.206,0,0,0,60.4-.121a20.129,20.129,0,0,0,1.212-7v-.406a20.9,20.9,0,0,0-.559-4.958A16.732,16.732,0,0,0,59.5-16.593a9.486,9.486,0,0,0-2.241-2.831l.5-1.435a9.918,9.918,0,0,1,3.193,3.1,16.083,16.083,0,0,1,2.272,4.786A20.091,20.091,0,0,1,63.972-7.376ZM73.938-7.5a19.628,19.628,0,0,1,.768-5.51A16.006,16.006,0,0,1,77-17.812a9.749,9.749,0,0,1,3.161-3.047l.482,1.549A10.111,10.111,0,0,0,77.6-14.968,18.822,18.822,0,0,0,76.3-8.43l-.013,1.079a18.92,18.92,0,0,0,1.79,8.506,10.159,10.159,0,0,0,2.564,3.377l-.482,1.435a10.062,10.062,0,0,1-3.225-3.148A17.646,17.646,0,0,1,73.938-7.5ZM93.488-4.837H85.744L84,0H81.491L88.55-18.484h2.133L97.754,0h-2.5ZM86.48-6.83h6.284l-3.148-8.646ZM106.6-9.915h5.154v2.222H106.6v5.84h-2.361v-5.84H99.087V-9.915h5.154v-5.4H106.6Zm21.976,4.05a6.8,6.8,0,0,1-2.165,4.526A7.094,7.094,0,0,1,121.57.254a6.514,6.514,0,0,1-5.25-2.349,9.449,9.449,0,0,1-1.974-6.284v-1.777a10.532,10.532,0,0,1,.92-4.532,6.875,6.875,0,0,1,2.609-3,7.264,7.264,0,0,1,3.91-1.047,6.679,6.679,0,0,1,4.723,1.644,6.882,6.882,0,0,1,2.069,4.551h-2.45a5.311,5.311,0,0,0-1.377-3.209,4.168,4.168,0,0,0-2.964-.993,4.361,4.361,0,0,0-3.663,1.728A7.933,7.933,0,0,0,116.8-10.1v1.792a8.154,8.154,0,0,0,1.257,4.79,4.061,4.061,0,0,0,3.517,1.779,4.691,4.691,0,0,0,3.117-.92,5.108,5.108,0,0,0,1.441-3.206Zm8.049-1.511a19.637,19.637,0,0,1-.743,5.427,16.048,16.048,0,0,1-2.272,4.792,9.956,9.956,0,0,1-3.206,3.123l-.5-1.435a10.206,10.206,0,0,0,3.142-4.653,20.129,20.129,0,0,0,1.212-7v-.406a20.9,20.9,0,0,0-.559-4.958,16.732,16.732,0,0,0-1.555-4.107,9.486,9.486,0,0,0-2.241-2.831l.5-1.435a9.918,9.918,0,0,1,3.193,3.1,16.083,16.083,0,0,1,2.272,4.786A20.09,20.09,0,0,1,136.627-7.376Zm20.795-2.958H146.834v-2.044h10.588Zm0,5.269H146.834V-7.1h10.588Zm20.541.229h-7.744L168.479,0h-2.514l7.059-18.484h2.133L182.229,0h-2.5ZM170.955-6.83h6.284l-3.148-8.646Zm26.559-3.085h5.154v2.222h-5.154v5.84h-2.361v-5.84H190V-9.915h5.154v-5.4h2.361ZM212.329,0V-18.484h6.043A7.015,7.015,0,0,1,222.9-17.24a4.484,4.484,0,0,1,1.517,3.682,3.754,3.754,0,0,1-.736,2.292,4.773,4.773,0,0,1-2.006,1.542,4.287,4.287,0,0,1,2.368,1.593,4.573,4.573,0,0,1,.87,2.8,4.944,4.944,0,0,1-1.612,3.91A6.668,6.668,0,0,1,218.74,0Zm2.438-8.646v6.652h4.024a3.875,3.875,0,0,0,2.685-.882,3.1,3.1,0,0,0,.984-2.431q0-3.339-3.631-3.339Zm0-1.955h3.682a3.859,3.859,0,0,0,2.558-.8,2.687,2.687,0,0,0,.958-2.176,2.642,2.642,0,0,0-.889-2.22,4.364,4.364,0,0,0-2.7-.693h-3.605Zm27.346,4.735a6.8,6.8,0,0,1-2.165,4.526A7.094,7.094,0,0,1,235.1.254a6.514,6.514,0,0,1-5.25-2.349,9.449,9.449,0,0,1-1.974-6.284v-1.777a10.532,10.532,0,0,1,.92-4.532,6.875,6.875,0,0,1,2.609-3,7.264,7.264,0,0,1,3.91-1.047,6.679,6.679,0,0,1,4.723,1.644,6.882,6.882,0,0,1,2.069,4.551h-2.45a5.311,5.311,0,0,0-1.377-3.209,4.168,4.168,0,0,0-2.964-.993,4.361,4.361,0,0,0-3.663,1.728,7.933,7.933,0,0,0-1.327,4.917v1.792a8.154,8.154,0,0,0,1.257,4.79A4.061,4.061,0,0,0,235.1-1.739a4.691,4.691,0,0,0,3.117-.92,5.108,5.108,0,0,0,1.441-3.206Z" transform="translate(887.13 3472.342)" fill="#12263f"/>
    <path id="Trazado_110987" data-name="Trazado 110987" d="M5,0H47.754a5,5,0,0,1,5,5V47.754a5,5,0,0,1-5,5H5a5,5,0,0,1-5-5V5A5,5,0,0,1,5,0Z" transform="translate(806.681 3437.429)" fill="#70089b"/>
    <path id="Trazado_110988" data-name="Trazado 110988" d="M11.035,0H8.219V-18.664L2.573-16.59v-2.543L10.6-22.145h.439ZM33.679,0H19.239V-2.013l7.629-8.477a18.124,18.124,0,0,0,2.339-3.126,5.217,5.217,0,0,0,.643-2.49,3.954,3.954,0,0,0-1.044-2.831,3.652,3.652,0,0,0-2.785-1.1,4.325,4.325,0,0,0-3.247,1.188,4.539,4.539,0,0,0-1.158,3.307h-2.8a6.5,6.5,0,0,1,1.96-4.919,7.267,7.267,0,0,1,5.245-1.877,6.983,6.983,0,0,1,4.859,1.612,5.5,5.5,0,0,1,1.786,4.291q0,3.254-4.147,7.75l-5.9,6.4H33.679Z" transform="translate(815.913 3473.385)" fill="#fff"/>
    <path id="Trazado_111036" data-name="Trazado 111036" d="M5,0H300.971a5,5,0,0,1,5,5V47.754a5,5,0,0,1-5,5H5a5,5,0,0,1-5-5V5A5,5,0,0,1,5,0Z" transform="translate(854.159 3028.588)" fill="#f6f6f6"/>
    <path id="Trazado_111037" data-name="Trazado 111037" d="M12.353-4.837H4.608L2.869,0H.355L7.414-18.484H9.547L16.618,0h-2.5ZM5.345-6.83h6.284L8.48-15.476ZM29.9-12.035a2.053,2.053,0,0,1,1.6.711,2.07,2.07,0,0,1,.559,1.447,2.064,2.064,0,0,1-.711,1.587,2.073,2.073,0,0,1-1.447.571,2.087,2.087,0,0,1-1.6-.724,2.083,2.083,0,0,1-.559-1.435,2.075,2.075,0,0,1,.724-1.612A2.08,2.08,0,0,1,29.9-12.035Zm25.289,7.2H47.442L45.7,0H43.189l7.059-18.484h2.133L59.452,0h-2.5ZM48.179-6.83h6.284l-3.148-8.646Zm30.57-3.5H68.161v-2.044H78.749Zm0,5.269H68.161V-7.1H78.749Zm20.541.229H91.546L89.807,0H87.293l7.059-18.484h2.133L103.556,0h-2.5ZM92.282-6.83h6.284l-3.148-8.646Z" transform="translate(887.13 3063.183)" fill="#12263f"/>
    <path id="Trazado_111038" data-name="Trazado 111038" d="M5,0H47.754a5,5,0,0,1,5,5V47.754a5,5,0,0,1-5,5H5a5,5,0,0,1-5-5V5A5,5,0,0,1,5,0Z" transform="translate(806.681 3028.588)" fill="#70089b"/>
    <path id="Trazado_111039" data-name="Trazado 111039" d="M16.06-20.465,6.933,0H4l9.1-19.738H1.166v-2.3H16.06Z" transform="translate(823.826 3064.545)" fill="#fff"/>
    <g id="Trazado_111040" data-name="Trazado 111040" transform="translate(792 3019)" fill="none">
      <path d="M0,0H380V72H0Z" stroke="none"/>
      <path d="M 2 2 L 2 70 L 378 70 L 378 2 L 2 2 M 0 0 L 380 0 L 380 72 L 0 72 L 0 0 Z" stroke="none" fill="#43babe"/>
    </g>
    <path id="Trazado_111025" data-name="Trazado 111025" d="M5,0H300.971a5,5,0,0,1,5,5V47.754a5,5,0,0,1-5,5H5a5,5,0,0,1-5-5V5A5,5,0,0,1,5,0Z" transform="translate(854.159 3110.356)" fill="#f6f6f6"/>
    <path id="Trazado_111026" data-name="Trazado 111026" d="M12.353-4.837H4.608L2.869,0H.355L7.414-18.484H9.547L16.618,0h-2.5ZM5.345-6.83h6.284L8.48-15.476ZM29.9-12.035a2.053,2.053,0,0,1,1.6.711,2.07,2.07,0,0,1,.559,1.447,2.064,2.064,0,0,1-.711,1.587,2.073,2.073,0,0,1-1.447.571,2.087,2.087,0,0,1-1.6-.724,2.083,2.083,0,0,1-.559-1.435,2.075,2.075,0,0,1,.724-1.612A2.08,2.08,0,0,1,29.9-12.035Zm25.289,7.2H47.442L45.7,0H43.189l7.059-18.484h2.133L59.452,0h-2.5ZM48.179-6.83h6.284l-3.148-8.646Zm7.77-13.876H46.884v-1.815h9.064Zm22.8,10.372H68.161v-2.044H78.749Zm0,5.269H68.161V-7.1H78.749Zm21.315-2.818q0,4.126-1.409,6.132A5.012,5.012,0,0,1,94.25.254a5.048,5.048,0,0,1-4.38-1.961A10.2,10.2,0,0,1,88.4-7.566V-10.7q0-4.075,1.409-6.056a5.05,5.05,0,0,1,4.418-1.98,5.1,5.1,0,0,1,4.393,1.911q1.409,1.911,1.447,5.9ZM97.716-11.1a8.606,8.606,0,0,0-.838-4.348,2.884,2.884,0,0,0-2.653-1.365A2.846,2.846,0,0,0,91.6-15.45a8.4,8.4,0,0,0-.851,4.177v3.758a8.744,8.744,0,0,0,.87,4.424A2.879,2.879,0,0,0,94.25-1.663a2.839,2.839,0,0,0,2.583-1.346,8.428,8.428,0,0,0,.882-4.24Z" transform="translate(887.13 3144.951)" fill="#12263f"/>
    <path id="Trazado_111027" data-name="Trazado 111027" d="M5,0H47.754a5,5,0,0,1,5,5V47.754a5,5,0,0,1-5,5H5a5,5,0,0,1-5-5V5A5,5,0,0,1,5,0Z" transform="translate(806.681 3110.356)" fill="#70089b"/>
    <path id="Trazado_111028" data-name="Trazado 111028" d="M15.2-16.287a5.118,5.118,0,0,1-.87,2.937,5.922,5.922,0,0,1-2.354,2.013,6.317,6.317,0,0,1,2.732,2.165,5.447,5.447,0,0,1,1.007,3.224,5.759,5.759,0,0,1-1.93,4.556A7.415,7.415,0,0,1,8.7.3,7.381,7.381,0,0,1,3.61-1.4,5.786,5.786,0,0,1,1.7-5.949a5.61,5.61,0,0,1,.976-3.224,6.076,6.076,0,0,1,2.7-2.18,5.776,5.776,0,0,1-2.316-2.013,5.191,5.191,0,0,1-.848-2.921A5.7,5.7,0,0,1,4-20.707,6.7,6.7,0,0,1,8.7-22.342a6.706,6.706,0,0,1,4.7,1.635A5.685,5.685,0,0,1,15.2-16.287ZM12.912-6.009a4.062,4.062,0,0,0-1.173-3.012,4.16,4.16,0,0,0-3.065-1.166,4.087,4.087,0,0,0-3.035,1.15A4.108,4.108,0,0,0,4.5-6.009,3.912,3.912,0,0,0,5.608-3.058,4.27,4.27,0,0,0,8.7-1.983a4.258,4.258,0,0,0,3.088-1.082A3.9,3.9,0,0,0,12.912-6.009ZM8.7-20.041a3.613,3.613,0,0,0-2.672,1.022A3.753,3.753,0,0,0,5.01-16.242a3.735,3.735,0,0,0,1.007,2.717A3.573,3.573,0,0,0,8.7-12.488a3.573,3.573,0,0,0,2.687-1.037A3.735,3.735,0,0,0,12.4-16.242a3.737,3.737,0,0,0-1.044-2.74A3.562,3.562,0,0,0,8.7-20.041Z" transform="translate(823.826 3146.313)" fill="#fff"/>
    <g id="Trazado_111029" data-name="Trazado 111029" transform="translate(792 3101.001)" fill="none">
      <path d="M0,0H380V72H0Z" stroke="none"/>
      <path d="M 2 2 L 2 70 L 378 70 L 378 2 L 2 2 M 0 0 L 380 0 L 380 72 L 0 72 L 0 0 Z" stroke="none" fill="#43babe"/>
    </g>
    <path id="Trazado_111008" data-name="Trazado 111008" d="M5,0H300.971a5,5,0,0,1,5,5V47.754a5,5,0,0,1-5,5H5a5,5,0,0,1-5-5V5A5,5,0,0,1,5,0Z" transform="translate(854.159 3192.124)" fill="#f6f6f6"/>
    <path id="Trazado_111009" data-name="Trazado 111009" d="M12.353-4.837H4.608L2.869,0H.355L7.414-18.484H9.547L16.618,0h-2.5ZM5.345-6.83h6.284L8.48-15.476Zm7.77-13.876H4.05v-1.815h9.064Zm22.8,10.372H25.327v-2.044H35.915Zm0,5.269H25.327V-7.1H35.915Zm20.541.229H48.712L46.973,0H44.459l7.059-18.484H53.65L60.722,0h-2.5ZM49.448-6.83h6.284l-3.148-8.646Z" transform="translate(887.13 3227.037)" fill="#12263f"/>
    <path id="Trazado_111010" data-name="Trazado 111010" d="M0,0H9.232" transform="translate(891.746 3202.016)" fill="none" stroke="#12263f" stroke-width="1"/>
    <path id="Trazado_111011" data-name="Trazado 111011" d="M5,0H47.754a5,5,0,0,1,5,5V47.754a5,5,0,0,1-5,5H5a5,5,0,0,1-5-5V5A5,5,0,0,1,5,0Z" transform="translate(806.681 3192.124)" fill="#70089b"/>
    <path id="Trazado_111012" data-name="Trazado 111012" d="M12.563-9.687a6.852,6.852,0,0,1-2.1,1.68A5.688,5.688,0,0,1,7.8-7.372,5.872,5.872,0,0,1,4.473-8.31a6.1,6.1,0,0,1-2.187-2.641,9,9,0,0,1-.772-3.761,9.175,9.175,0,0,1,.84-3.981A6.171,6.171,0,0,1,4.738-21.4a6.8,6.8,0,0,1,3.6-.938A6.155,6.155,0,0,1,13.494-19.9a10.663,10.663,0,0,1,1.885,6.668v.817q0,6.433-2.543,9.392T5.162.015H4.617V-2.361h.59a7.709,7.709,0,0,0,5.328-1.805Q12.4-5.911,12.563-9.687Zm-4.314,0a4.324,4.324,0,0,0,2.6-.863,5.086,5.086,0,0,0,1.733-2.134V-13.8a7.706,7.706,0,0,0-1.2-4.48,3.568,3.568,0,0,0-3.027-1.726A3.6,3.6,0,0,0,5.389-18.6a5.838,5.838,0,0,0-1.12,3.731,6.076,6.076,0,0,0,1.082,3.716A3.427,3.427,0,0,0,8.25-9.687Z" transform="translate(825.145 3228.081)" fill="#fff"/>
    <g id="Trazado_111013" data-name="Trazado 111013" transform="translate(792 3182)" fill="none">
      <path d="M0,0H380V73H0Z" stroke="none"/>
      <path d="M 2 2 L 2 71 L 378 71 L 378 2 L 2 2 M 0 0 L 380 0 L 380 73 L 0 73 L 0 0 Z" stroke="none" fill="#43babe"/>
    </g>
    <path id="Trazado_111014" data-name="Trazado 111014" d="M5,0H300.971a5,5,0,0,1,5,5V47.754a5,5,0,0,1-5,5H5a5,5,0,0,1-5-5V5A5,5,0,0,1,5,0Z" transform="translate(854.159 3273.893)" fill="#f6f6f6"/>
    <path id="Trazado_111015" data-name="Trazado 111015" d="M12.353-4.837H4.608L2.869,0H.355L7.414-18.484H9.547L16.618,0h-2.5ZM5.345-6.83h6.284L8.48-15.476ZM31.9-9.915h5.154v2.222H31.9v5.84H29.542v-5.84H24.388V-9.915h5.154v-5.4H31.9ZM56.926-4.837H49.182L47.442,0H44.929l7.059-18.484H54.12L61.191,0h-2.5ZM49.918-6.83H56.2l-3.148-8.646ZM63.68,0V-18.484h6.043a7.015,7.015,0,0,1,4.526,1.244,4.484,4.484,0,0,1,1.517,3.682,3.754,3.754,0,0,1-.736,2.292,4.773,4.773,0,0,1-2.006,1.542,4.287,4.287,0,0,1,2.368,1.593,4.573,4.573,0,0,1,.87,2.8,4.944,4.944,0,0,1-1.612,3.91A6.668,6.668,0,0,1,70.091,0Zm2.438-8.646v6.652h4.024a3.875,3.875,0,0,0,2.685-.882,3.1,3.1,0,0,0,.984-2.431q0-3.339-3.631-3.339Zm0-1.955H69.8a3.859,3.859,0,0,0,2.558-.8,2.687,2.687,0,0,0,.958-2.176,2.642,2.642,0,0,0-.889-2.22,4.364,4.364,0,0,0-2.7-.693H66.117Zm30.558.267H86.087v-2.044H96.675Zm0,5.269H86.087V-7.1H96.675Zm20.541.229h-7.744L107.732,0h-2.514l7.059-18.484h2.133L121.481,0h-2.5ZM110.208-6.83h6.284l-3.148-8.646Z" transform="translate(887.13 3308.806)" fill="#12263f"/>
    <path id="Trazado_111016" data-name="Trazado 111016" d="M5,0H47.754a5,5,0,0,1,5,5V47.754a5,5,0,0,1-5,5H5a5,5,0,0,1-5-5V5A5,5,0,0,1,5,0Z" transform="translate(806.681 3273.893)" fill="#70089b"/>
    <path id="Trazado_111017" data-name="Trazado 111017" d="M11.035,0H8.219V-18.664L2.573-16.59v-2.543L10.6-22.145h.439ZM33.059-9.4q0,4.919-1.68,7.311A5.975,5.975,0,0,1,26.126.3,6.019,6.019,0,0,1,20.9-2.036q-1.7-2.339-1.756-6.986V-12.76q0-4.859,1.68-7.22A6.022,6.022,0,0,1,26.1-22.342a6.077,6.077,0,0,1,5.237,2.278q1.68,2.278,1.726,7.031Zm-2.8-3.83a10.261,10.261,0,0,0-1-5.184A3.439,3.439,0,0,0,26.1-20.041a3.393,3.393,0,0,0-3.133,1.62,10.019,10.019,0,0,0-1.014,4.98v4.48a10.425,10.425,0,0,0,1.037,5.275,3.432,3.432,0,0,0,3.141,1.7,3.385,3.385,0,0,0,3.08-1.6,10.048,10.048,0,0,0,1.052-5.056Z" transform="translate(814.594 3309.85)" fill="#fff"/>
    <g id="Trazado_111018" data-name="Trazado 111018" transform="translate(792 3264)" fill="none">
      <path d="M0,0H380V73H0Z" stroke="none"/>
      <path d="M 2 2 L 2 71 L 378 71 L 378 2 L 2 2 M 0 0 L 380 0 L 380 73 L 0 73 L 0 0 Z" stroke="none" fill="#43babe"/>
    </g>
    <path id="Trazado_111019" data-name="Trazado 111019" d="M5,0H300.971a5,5,0,0,1,5,5V47.754a5,5,0,0,1-5,5H5a5,5,0,0,1-5-5V5A5,5,0,0,1,5,0Z" transform="translate(854.159 3355.66)" fill="#f6f6f6"/>
    <path id="Trazado_111020" data-name="Trazado 111020" d="M12.353-4.837H4.608L2.869,0H.355L7.414-18.484H9.547L16.618,0h-2.5ZM5.345-6.83h6.284L8.48-15.476ZM31.9-9.915h5.154v2.222H31.9v5.84H29.542v-5.84H24.388V-9.915h5.154v-5.4H31.9ZM56.926-4.837H49.182L47.442,0H44.929l7.059-18.484H54.12L61.191,0h-2.5ZM49.918-6.83H56.2l-3.148-8.646Zm7.77-13.876H48.623v-1.815h9.064ZM63.68,0V-18.484h6.043a7.015,7.015,0,0,1,4.526,1.244,4.484,4.484,0,0,1,1.517,3.682,3.754,3.754,0,0,1-.736,2.292,4.773,4.773,0,0,1-2.006,1.542,4.287,4.287,0,0,1,2.368,1.593,4.573,4.573,0,0,1,.87,2.8,4.944,4.944,0,0,1-1.612,3.91A6.668,6.668,0,0,1,70.091,0Zm2.438-8.646v6.652h4.024a3.875,3.875,0,0,0,2.685-.882,3.1,3.1,0,0,0,.984-2.431q0-3.339-3.631-3.339Zm0-1.955H69.8a3.859,3.859,0,0,0,2.558-.8,2.687,2.687,0,0,0,.958-2.176,2.642,2.642,0,0,0-.889-2.22,4.364,4.364,0,0,0-2.7-.693H66.117Zm30.558.267H86.087v-2.044H96.675Zm0,5.269H86.087V-7.1H96.675Zm20.541.229h-7.744L107.732,0h-2.514l7.059-18.484h2.133L121.481,0h-2.5ZM110.208-6.83h6.284l-3.148-8.646Zm26.559-3.085h5.154v2.222h-5.154v5.84h-2.361v-5.84h-5.154V-9.915h5.154v-5.4h2.361ZM151.582,0V-18.484h6.043a7.015,7.015,0,0,1,4.526,1.244,4.484,4.484,0,0,1,1.517,3.682,3.754,3.754,0,0,1-.736,2.292,4.773,4.773,0,0,1-2.006,1.542,4.287,4.287,0,0,1,2.368,1.593,4.573,4.573,0,0,1,.87,2.8,4.944,4.944,0,0,1-1.612,3.91A6.668,6.668,0,0,1,157.993,0Zm2.438-8.646v6.652h4.024a3.875,3.875,0,0,0,2.685-.882,3.1,3.1,0,0,0,.984-2.431q0-3.339-3.631-3.339Zm0-1.955H157.7a3.859,3.859,0,0,0,2.558-.8,2.687,2.687,0,0,0,.958-2.176,2.642,2.642,0,0,0-.889-2.22,4.364,4.364,0,0,0-2.7-.693H154.02Z" transform="translate(887.13 3390.573)" fill="#12263f"/>
    <path id="Trazado_111021" data-name="Trazado 111021" d="M5,0H47.754a5,5,0,0,1,5,5V47.754a5,5,0,0,1-5,5H5a5,5,0,0,1-5-5V5A5,5,0,0,1,5,0Z" transform="translate(806.681 3355.66)" fill="#f6f6f6"/>
    <path id="Trazado_111022" data-name="Trazado 111022" d="M5,0H47.754a5,5,0,0,1,5,5V47.754a5,5,0,0,1-5,5H5a5,5,0,0,1-5-5V5A5,5,0,0,1,5,0Z" transform="translate(806.681 3355.66)" fill="#70089b"/>
    <path id="Trazado_111023" data-name="Trazado 111023" d="M11.035,0H8.219V-18.664L2.573-16.59v-2.543L10.6-22.145h.439ZM28.442,0H25.626V-18.664L19.98-16.59v-2.543L28-22.145h.439Z" transform="translate(814.594 3391.617)" fill="#fff"/>
    <g id="Trazado_111024" data-name="Trazado 111024" transform="translate(792 3346)" fill="none">
      <path d="M0,0H380V72H0Z" stroke="none"/>
      <path d="M 2 2 L 2 70 L 378 70 L 378 2 L 2 2 M 0 0 L 380 0 L 380 72 L 0 72 L 0 0 Z" stroke="none" fill="#43babe"/>
    </g>
    <g id="Trazado_110989" data-name="Trazado 110989" transform="translate(792 3428)" fill="none">
      <path d="M0,0H380V72H0Z" stroke="none"/>
      <path d="M 2 2 L 2 70 L 378 70 L 378 2 L 2 2 M 0 0 L 380 0 L 380 72 L 0 72 L 0 0 Z" stroke="none" fill="#43babe"/>
    </g>
  </g>
</svg>
