<svg xmlns="http://www.w3.org/2000/svg" width="335.679" height="342.828" viewBox="0 0 335.679 342.828">
  <g id="Grupo_66049" data-name="Grupo 66049" transform="translate(-526.249 8471.063)">
    <g id="Trazado_111074" data-name="Trazado 111074" transform="translate(739.455 -8413.972)" fill="#e8e8e8">
      <path d="M0,0,37.189.025A30.465,30.465,0,0,1,67.653,30.516,30.977,30.977,0,0,1,36.672,61.525L0,61.549Z" stroke="none"/>
      <path d="M 36.67245483398438 58.52626419067383 C 37.61789703369141 58.52569198608398 38.55612564086914 58.47886276245117 39.48556137084961 58.3861083984375 C 40.41495895385742 58.29336166381836 41.33555221557617 58.15467834472656 42.24576187133789 57.97039794921875 C 43.15593338012695 57.78612899780273 44.05572509765625 57.5562629699707 44.94353866577148 57.2811279296875 C 45.83131408691406 57.0059928894043 46.70712661743164 56.68560028076172 47.56936264038086 56.32025527954102 C 48.40253829956055 55.96723175048828 49.21449279785156 55.57614135742188 50.00394058227539 55.14788818359375 C 50.7933464050293 54.71963882446289 51.56025314331055 54.25423049926758 52.30334854125977 53.75251388549805 C 53.04642105102539 53.25081634521484 53.76569366455078 52.71282196044922 54.45986557006836 52.13941955566406 C 55.15401077270508 51.5660285949707 55.82305526733398 50.95722579956055 56.46572113037109 50.31388473510742 C 57.10835266113281 49.67055130004883 57.71642684936523 49.00086975097656 58.28906631469727 48.30612182617188 C 58.86169052124023 47.61139297485352 59.39889526367188 46.89160537719727 59.89978408813477 46.14805603027344 C 60.40066528320312 45.40451812744141 60.8652458190918 44.63722229003906 61.29265594482422 43.84746170043945 C 61.72005081176758 43.05771255493164 62.11028289794922 42.24550247192383 62.46246719360352 41.41211700439453 C 62.82691192626953 40.54970550537109 63.14645385742188 39.67378616333008 63.42074966430664 38.78594589233398 C 63.69503021240234 37.89811325073242 63.9240837097168 36.99835968017578 64.10758209228516 36.0882682800293 C 64.29108428955078 35.17818832397461 64.42903137207031 34.25777053833008 64.52109527587891 33.32859802246094 C 64.6131591796875 32.39943695068359 64.65934753417969 31.46151542663574 64.65934753417969 30.51643371582031 C 64.65934753417969 29.58877944946289 64.614013671875 28.66816329956055 64.52363586425781 27.75613594055176 C 64.43327331542969 26.84410858154297 64.29787445068359 25.9406681060791 64.11777496337891 25.0473804473877 C 63.93766021728516 24.15408325195312 63.71283340454102 23.27093124389648 63.44360733032227 22.39948463439941 C 63.17438507080078 21.52803230285645 62.86074829101562 20.66827392578125 62.50302886962891 19.8217830657959 C 62.15734481811523 19.00377655029297 61.77431488037109 18.2065486907959 61.35480117797852 17.43137168884277 C 60.93528366088867 16.65618133544922 60.47927474975586 15.90304088592529 59.98763275146484 15.17322158813477 C 59.49598693847656 14.44338798522949 58.96870040893555 13.73687648773193 58.40664291381836 13.05496215820312 C 57.84456634521484 12.37303256988525 57.24770736694336 11.7156982421875 56.61692810058594 11.08423709869385 C 55.98611831665039 10.45275783538818 55.32941818237305 9.855180740356445 54.64808654785156 9.292366981506348 C 53.96672821044922 8.729537963867188 53.26073455810547 8.201471328735352 52.53137588500977 7.709030628204346 C 51.80199432373047 7.216574192047119 51.04924392700195 6.759744167327881 50.27441024780273 6.339404582977295 C 49.49953842163086 5.919050216674805 48.70257568359375 5.535186290740967 47.88478469848633 5.188674449920654 C 47.03847503662109 4.830079078674316 46.17885208129883 4.515598773956299 45.30747222900391 4.245551109313965 C 44.43605804443359 3.975493669509888 43.55289077758789 3.749871730804443 42.65952301025391 3.569005012512207 C 41.76612854003906 3.388131141662598 40.8625373840332 3.252015590667725 39.9503059387207 3.160976886749268 C 39.03803253173828 3.069934368133545 38.11712646484375 3.023972749710083 37.18914413452148 3.023410797119141 L 3.002462387084961 3.002709150314331 L 3.002462387084961 58.54664993286133 L 36.67245483398438 58.52626419067383 M 36.67245483398438 61.52475738525391 L 6.729304914188106e-06 61.54935836791992 L 6.729304914188106e-06 -2.12251484299486e-06 L 37.18914413452148 0.02495099045336246 C 41.39778518676758 0.02777490019798279 45.406494140625 0.8835261464118958 49.05200576782227 2.428449869155884 C 52.69692993164062 3.973128080368042 55.97890853881836 6.206808567047119 58.73478698730469 8.965911865234375 C 61.49033355712891 11.72468376159668 63.72002792358398 15.00887870788574 65.26078796386719 18.65510559082031 C 66.80144500732422 22.30108833312988 67.65334320068359 26.30927276611328 67.65334320068359 30.51644897460938 C 67.65334320068359 34.7949333190918 66.78699493408203 38.87104797363281 65.22023010253906 42.57881927490234 C 63.65335464477539 46.28683853149414 61.38585662841797 49.62669372558594 58.58358764648438 52.43222045898438 C 55.78098297119141 55.23809051513672 52.44335556030273 57.50963973999023 48.73659515380859 59.08050155639648 C 45.02923965454102 60.65161895751953 40.95251846313477 61.52188491821289 36.67245483398438 61.52475738525391 Z" stroke="none" fill="#70089b"/>
    </g>
    <g id="Trazado_106959" data-name="Trazado 106959" transform="translate(593.22 -8189.766)" fill="#e8e8e8">
      <path d="M 36.66937637329102 60.03104019165039 L 1.499997854232788 60.03104019165039 L 1.499997854232788 1.50000011920929 L 37.18644714355469 1.50000011920929 C 41.10302734375 1.50000011920929 44.90165710449219 2.266730070114136 48.4768180847168 3.778900146484375 C 51.93076705932617 5.239799976348877 55.03305816650391 7.331510066986084 57.69748687744141 9.995949745178223 C 60.3619270324707 12.66038036346436 62.45363616943359 15.76267051696777 63.9145393371582 19.21661949157715 C 65.42670440673828 22.79178047180176 66.19343566894531 26.59041023254395 66.19343566894531 30.50699043273926 C 66.19343566894531 34.49337005615234 65.41304016113281 38.35971832275391 63.87390899658203 41.99861907958984 C 62.38696670532227 45.5141487121582 60.25796890258789 48.67171859741211 57.54603958129883 51.38365173339844 C 54.8341178894043 54.0955696105957 51.67653656005859 56.22457122802734 48.16101837158203 57.71150970458984 C 44.5221061706543 59.25064086914062 40.65575790405273 60.03104019165039 36.66937637329102 60.03104019165039 Z" stroke="none"/>
      <path d="M 2.999992370605469 2.999996185302734 L 2.999992370605469 58.53104400634766 L 36.66938400268555 58.53104400634766 C 40.45392608642578 58.53104400634766 44.12367248535156 57.79050827026367 47.57668304443359 56.33000946044922 C 50.91341781616211 54.91868591308594 53.91072845458984 52.89763259887695 56.48537445068359 50.3229866027832 C 59.06002807617188 47.74834442138672 61.08107376098633 44.75102233886719 62.49239349365234 41.41429901123047 C 63.95289611816406 37.96127319335938 64.69342803955078 34.29153060913086 64.69342803955078 30.50698661804199 C 64.69342803955078 26.79224395751953 63.96656036376953 23.19020843505859 62.53302764892578 19.80094146728516 C 61.14775085449219 16.52578735351562 59.16398620605469 13.58377456665039 56.63681793212891 11.05661010742188 C 54.10966110229492 8.529441833496094 51.16764068603516 6.545677185058594 47.89248657226562 5.160396575927734 C 44.50322723388672 3.726863861083984 40.90119552612305 2.999996185302734 37.18645095825195 2.999996185302734 L 2.999992370605469 2.999996185302734 M -7.62939453125e-06 -3.814697265625e-06 L 37.18645095825195 -3.814697265625e-06 C 54.03499603271484 -3.814697265625e-06 67.69342803955078 13.65844345092773 67.69342803955078 30.50698661804199 C 67.69342803955078 47.64109802246094 53.80349731445312 61.53104400634766 36.66938400268555 61.53104400634766 L -7.62939453125e-06 61.53104400634766 L -7.62939453125e-06 -3.814697265625e-06 Z" stroke="none" fill="#70089b"/>
    </g>
    <g id="Trazado_111069" data-name="Trazado 111069" transform="translate(552.812 -8144.643)" fill="#70089b">
      <path d="M 42.18832015991211 2.781657457351685 L 0.5000019669532776 2.781657457351685 L 0.5000019669532776 0.4999975264072418 L 42.18832015991211 0.4999975264072418 L 42.18832015991211 2.781657457351685 Z" stroke="none"/>
      <path d="M 1.000003814697266 0.999997615814209 L 1.000003814697266 2.281657457351685 L 41.68832015991211 2.281657457351685 L 41.68832015991211 0.999997615814209 L 1.000003814697266 0.999997615814209 M 3.814697265625e-06 -2.384185791015625e-06 L 42.68832015991211 -2.384185791015625e-06 L 42.68832015991211 3.281657457351685 L 3.814697265625e-06 3.281657457351685 L 3.814697265625e-06 -2.384185791015625e-06 Z" stroke="none" fill="#707070"/>
    </g>
    <g id="Trazado_111070" data-name="Trazado 111070" transform="translate(552.812 -8177.459)" fill="#70089b">
      <path d="M 42.18832015991211 2.781657457351685 L 0.5000019669532776 2.781657457351685 L 0.5000019669532776 0.4999975264072418 L 42.18832015991211 0.4999975264072418 L 42.18832015991211 2.781657457351685 Z" stroke="none"/>
      <path d="M 1.000003814697266 0.999997615814209 L 1.000003814697266 2.281657457351685 L 41.68832015991211 2.281657457351685 L 41.68832015991211 0.999997615814209 L 1.000003814697266 0.999997615814209 M 3.814697265625e-06 -2.384185791015625e-06 L 42.68832015991211 -2.384185791015625e-06 L 42.68832015991211 3.281657457351685 L 3.814697265625e-06 3.281657457351685 L 3.814697265625e-06 -2.384185791015625e-06 Z" stroke="none" fill="#707070"/>
    </g>
    <g id="Trazado_111059" data-name="Trazado 111059" transform="translate(683.982 -8234.773)" fill="#e8e8e8">
      <path d="M 38.05649566650391 66.19260406494141 L 6.828897953033447 66.19260406494141 C 19.08761024475098 59.31091690063477 26.69909477233887 47.09975433349609 26.69909477233887 33.57989883422852 C 26.69909477233887 20.52519226074219 19.42601585388184 8.492199897766113 7.724582195281982 1.499991536140442 L 38.62529373168945 1.499991536140442 C 42.95421600341797 1.499991536140442 47.15288162231445 2.347511529922485 51.10468292236328 4.018991470336914 C 54.92240142822266 5.633778095245361 58.35138702392578 7.945791721343994 61.29639053344727 10.8908052444458 C 64.24141693115234 13.83581829071045 66.55342864990234 17.26481819152832 68.16820526123047 21.0825252532959 C 69.83969879150391 25.03429794311523 70.68720245361328 29.23296546936035 70.68720245361328 33.56189727783203 C 70.68720245361328 33.65164566040039 70.68722534179688 33.74309921264648 70.68637847900391 33.83197784423828 L 70.67192077636719 35.34629821777344 L 72.18630981445312 35.34629821777344 L 94.51740264892578 35.34629821777344 L 94.51740264892578 35.75729751586914 L 71.9901123046875 35.75729751586914 L 70.64292144775391 35.75729751586914 L 70.49872589111328 37.09673690795898 C 69.64279174804688 45.0472297668457 65.888427734375 52.39243316650391 59.92724227905273 57.77927017211914 C 53.92332077026367 63.20469665527344 46.15613555908203 66.19260406494141 38.05649566650391 66.19260406494141 Z" stroke="none"/>
      <path d="M 38.05649566650391 64.69260406494141 C 45.78384780883789 64.69260406494141 53.19386291503906 61.84215927124023 58.92153930664062 56.66635894775391 C 64.60901641845703 51.5268669128418 68.19089508056641 44.51988220214844 69.00733947753906 36.93617630004883 L 69.17122650146484 35.4139404296875 L 69.18644714355469 33.81769943237305 C 69.18724822998047 33.73351287841797 69.18720245361328 33.64689636230469 69.18720245361328 33.56189727783203 C 69.18720245361328 29.43478965759277 68.37955474853516 25.43272972106934 66.78669738769531 21.6668529510498 C 65.24755859375 18.02794456481934 63.04349517822266 14.75920581817627 60.23574066162109 11.95146751403809 C 57.42801666259766 9.143744468688965 54.15927886962891 6.939667224884033 50.52035522460938 5.400498390197754 C 46.75444793701172 3.807636737823486 42.75238800048828 2.999990463256836 38.62529373168945 2.999990463256836 L 12.60494136810303 2.999990463256836 C 22.32513809204102 10.44660949707031 28.19909477233887 21.59640121459961 28.19909477233887 33.57989883422852 C 28.19909477233887 45.96330261230469 22.07947158813477 57.28474426269531 11.93769454956055 64.69260406494141 L 38.05649566650391 64.69260406494141 M 38.05649566650391 67.69260406494141 L -0.0001978576619876549 67.69260406494141 C 15.30764865875244 62.04479217529297 25.19909477233887 48.65551376342773 25.19909477233887 33.57989883422852 C 25.19909477233887 19.10151290893555 15.84567928314209 5.920606136322021 1.370140552520752 -9.474534635955933e-06 L 38.62529373168945 -9.474534635955933e-06 C 43.15607833862305 -9.474534635955933e-06 47.55134201049805 0.8873751163482666 51.68901824951172 2.637482881546021 C 55.68553924560547 4.327913761138916 59.27478790283203 6.747867584228516 62.35706329345703 9.830143928527832 C 65.43935394287109 12.91243648529053 67.85930633544922 16.50168228149414 69.54971313476562 20.49818992614746 C 71.29983520507812 24.63586807250977 72.18720245361328 29.0311450958252 72.18720245361328 33.56189727783203 C 72.18720245361328 33.65640640258789 72.18720245361328 33.7526969909668 72.18630981445312 33.84629821777344 L 96.01740264892578 33.84629821777344 L 96.01740264892578 37.25729751586914 L 71.9901123046875 37.25729751586914 C 71.09468078613281 45.57458877563477 67.16749572753906 53.2583122253418 60.93292617797852 58.89218902587891 C 54.65278625488281 64.56722259521484 46.52845001220703 67.69260406494141 38.05649566650391 67.69260406494141 Z" stroke="none" fill="#70089b"/>
    </g>
    <g id="Trazado_111071" data-name="Trazado 111071" transform="translate(672.584 -8186.536)" fill="#70089b">
      <path d="M 33.41613388061523 2.92894172668457 L 0.5000050067901611 2.92894172668457 L 0.5000050067901611 0.5000016689300537 L 33.41613388061523 0.5000016689300537 L 33.41613388061523 2.92894172668457 Z" stroke="none"/>
      <path d="M 0.9999961853027344 1.000001668930054 L 0.9999961853027344 2.42894172668457 L 32.9161262512207 2.42894172668457 L 32.9161262512207 1.000001668930054 L 0.9999961853027344 1.000001668930054 M -3.814697265625e-06 1.668930053710938e-06 L 33.9161262512207 1.668930053710938e-06 L 33.9161262512207 3.42894172668457 L -3.814697265625e-06 3.42894172668457 L -3.814697265625e-06 1.668930053710938e-06 Z" stroke="none" fill="#707070"/>
    </g>
    <g id="Trazado_111072" data-name="Trazado 111072" transform="translate(553.341 -8216.396)" fill="#70089b">
      <path d="M 154.6593170166016 3.614726066589355 L 0.5000109076499939 3.614726066589355 L 0.5000109076499939 0.5000061392784119 L 154.6593170166016 0.5000061392784119 L 154.6593170166016 3.614726066589355 Z" stroke="none"/>
      <path d="M 0.9999847412109375 1.000006198883057 L 0.9999847412109375 3.114726066589355 L 154.1592864990234 3.114726066589355 L 154.1592864990234 1.000006198883057 L 0.9999847412109375 1.000006198883057 M -1.52587890625e-05 6.198883056640625e-06 L 155.1592864990234 6.198883056640625e-06 L 155.1592864990234 4.114726066589355 L -1.52587890625e-05 4.114726066589355 L -1.52587890625e-05 6.198883056640625e-06 Z" stroke="none" fill="#707070"/>
    </g>
    <g id="Trazado_111077" data-name="Trazado 111077" transform="translate(602.982 -8467)" fill="#e8e8e8">
      <path d="M 38.05649566650391 66.19260406494141 L 6.828897953033447 66.19260406494141 C 19.08761024475098 59.31091690063477 26.69909477233887 47.09975433349609 26.69909477233887 33.57989883422852 C 26.69909477233887 20.52519226074219 19.42601585388184 8.492199897766113 7.724582195281982 1.499991536140442 L 38.62529373168945 1.499991536140442 C 42.95421600341797 1.499991536140442 47.15288162231445 2.347511529922485 51.10468292236328 4.018991470336914 C 54.92240142822266 5.633778095245361 58.35138702392578 7.945791721343994 61.29639053344727 10.8908052444458 C 64.24141693115234 13.83581829071045 66.55342864990234 17.26481819152832 68.16820526123047 21.0825252532959 C 69.83969879150391 25.03429794311523 70.68720245361328 29.23296546936035 70.68720245361328 33.56189727783203 C 70.68720245361328 33.65164566040039 70.68722534179688 33.74309921264648 70.68637847900391 33.83197784423828 L 70.67192077636719 35.34629821777344 L 72.18630981445312 35.34629821777344 L 94.51740264892578 35.34629821777344 L 94.51740264892578 35.75729751586914 L 71.9901123046875 35.75729751586914 L 70.64292144775391 35.75729751586914 L 70.49872589111328 37.09673690795898 C 69.64279174804688 45.0472297668457 65.888427734375 52.39243316650391 59.92724227905273 57.77927017211914 C 53.92332077026367 63.20469665527344 46.15613555908203 66.19260406494141 38.05649566650391 66.19260406494141 Z" stroke="none"/>
      <path d="M 38.05649566650391 64.69260406494141 C 45.78384780883789 64.69260406494141 53.19386291503906 61.84215927124023 58.92153930664062 56.66635894775391 C 64.60901641845703 51.5268669128418 68.19089508056641 44.51988220214844 69.00733947753906 36.93617630004883 L 69.17122650146484 35.4139404296875 L 69.18644714355469 33.81769943237305 C 69.18724822998047 33.73351287841797 69.18720245361328 33.64689636230469 69.18720245361328 33.56189727783203 C 69.18720245361328 29.43478965759277 68.37955474853516 25.43272972106934 66.78669738769531 21.6668529510498 C 65.24755859375 18.02794456481934 63.04349517822266 14.75920581817627 60.23574066162109 11.95146751403809 C 57.42801666259766 9.143744468688965 54.15927886962891 6.939667224884033 50.52035522460938 5.400498390197754 C 46.75444793701172 3.807636737823486 42.75238800048828 2.999990463256836 38.62529373168945 2.999990463256836 L 12.60494136810303 2.999990463256836 C 22.32513809204102 10.44660949707031 28.19909477233887 21.59640121459961 28.19909477233887 33.57989883422852 C 28.19909477233887 45.96330261230469 22.07947158813477 57.28474426269531 11.93769454956055 64.69260406494141 L 38.05649566650391 64.69260406494141 M 38.05649566650391 67.69260406494141 L -0.0001978576619876549 67.69260406494141 C 15.30764865875244 62.04479217529297 25.19909477233887 48.65551376342773 25.19909477233887 33.57989883422852 C 25.19909477233887 19.10151290893555 15.84567928314209 5.920606136322021 1.370140552520752 -9.474534635955933e-06 L 38.62529373168945 -9.474534635955933e-06 C 43.15607833862305 -9.474534635955933e-06 47.55134201049805 0.8873751163482666 51.68901824951172 2.637482881546021 C 55.68553924560547 4.327913761138916 59.27478790283203 6.747867584228516 62.35706329345703 9.830143928527832 C 65.43935394287109 12.91243648529053 67.85930633544922 16.50168228149414 69.54971313476562 20.49818992614746 C 71.29983520507812 24.63586807250977 72.18720245361328 29.0311450958252 72.18720245361328 33.56189727783203 C 72.18720245361328 33.65640640258789 72.18720245361328 33.7526969909668 72.18630981445312 33.84629821777344 L 96.01740264892578 33.84629821777344 L 96.01740264892578 37.25729751586914 L 71.9901123046875 37.25729751586914 C 71.09468078613281 45.57458877563477 67.16749572753906 53.2583122253418 60.93292617797852 58.89218902587891 C 54.65278625488281 64.56722259521484 46.52845001220703 67.69260406494141 38.05649566650391 67.69260406494141 Z" stroke="none" fill="#70089b"/>
    </g>
    <g id="Trazado_111085" data-name="Trazado 111085" transform="translate(561.667 -8418.763)" fill="#70089b">
      <path d="M 64.83333587646484 2.92894172668457 L 0.5000041127204895 2.92894172668457 L 0.5000041127204895 0.5000016689300537 L 64.83333587646484 0.5000016689300537 L 64.83333587646484 2.92894172668457 Z" stroke="none"/>
      <path d="M 0.9999923706054688 1.000001668930054 L 0.9999923706054688 2.42894172668457 L 64.33332061767578 2.42894172668457 L 64.33332061767578 1.000001668930054 L 0.9999923706054688 1.000001668930054 M -7.62939453125e-06 1.668930053710938e-06 L 65.33332061767578 1.668930053710938e-06 L 65.33332061767578 3.42894172668457 L -7.62939453125e-06 3.42894172668457 L -7.62939453125e-06 1.668930053710938e-06 Z" stroke="none" fill="#707070"/>
    </g>
    <g id="Trazado_111086" data-name="Trazado 111086" transform="translate(561.667 -8448.623)" fill="#70089b">
      <path d="M 64.83333587646484 2.614736080169678 L 0.4999979436397552 2.614736080169678 L 0.4999979436397552 0.4999961256980896 L 64.83333587646484 0.4999961256980896 L 64.83333587646484 2.614736080169678 Z" stroke="none"/>
      <path d="M 1 0.9999961853027344 L 1 2.114736080169678 L 64.33333587646484 2.114736080169678 L 64.33333587646484 0.9999961853027344 L 1 0.9999961853027344 M 0 -3.814697265625e-06 L 65.33333587646484 -3.814697265625e-06 L 65.33333587646484 3.114736080169678 L 0 3.114736080169678 L 0 -3.814697265625e-06 Z" stroke="none" fill="#707070"/>
    </g>
    <g id="Trazado_111073" data-name="Trazado 111073" transform="translate(602.982 -8367.308)" fill="#e8e8e8">
      <path d="M 38.05649566650391 66.19260406494141 L 6.828897953033447 66.19260406494141 C 19.08761024475098 59.31091690063477 26.69909477233887 47.09975433349609 26.69909477233887 33.57989883422852 C 26.69909477233887 20.52519226074219 19.42601585388184 8.492199897766113 7.724582195281982 1.499991536140442 L 38.62529373168945 1.499991536140442 C 42.95421600341797 1.499991536140442 47.15288162231445 2.347511529922485 51.10468292236328 4.018991470336914 C 54.92240142822266 5.633778095245361 58.35138702392578 7.945791721343994 61.29639053344727 10.8908052444458 C 64.24141693115234 13.83581829071045 66.55342864990234 17.26481819152832 68.16820526123047 21.0825252532959 C 69.83969879150391 25.03429794311523 70.68720245361328 29.23296546936035 70.68720245361328 33.56189727783203 C 70.68720245361328 33.65164566040039 70.68722534179688 33.74309921264648 70.68637847900391 33.83197784423828 L 70.67192077636719 35.34629821777344 L 72.18630981445312 35.34629821777344 L 94.51740264892578 35.34629821777344 L 94.51740264892578 35.75729751586914 L 71.9901123046875 35.75729751586914 L 70.64292144775391 35.75729751586914 L 70.49872589111328 37.09673690795898 C 69.64279174804688 45.0472297668457 65.888427734375 52.39243316650391 59.92724227905273 57.77927017211914 C 53.92332077026367 63.20469665527344 46.15613555908203 66.19260406494141 38.05649566650391 66.19260406494141 Z" stroke="none"/>
      <path d="M 38.05649566650391 64.69260406494141 C 45.78384780883789 64.69260406494141 53.19386291503906 61.84215927124023 58.92153930664062 56.66635894775391 C 64.60901641845703 51.5268669128418 68.19089508056641 44.51988220214844 69.00733947753906 36.93617630004883 L 69.17122650146484 35.4139404296875 L 69.18644714355469 33.81769943237305 C 69.18724822998047 33.73351287841797 69.18720245361328 33.64689636230469 69.18720245361328 33.56189727783203 C 69.18720245361328 29.43478965759277 68.37955474853516 25.43272972106934 66.78669738769531 21.6668529510498 C 65.24755859375 18.02794456481934 63.04349517822266 14.75920581817627 60.23574066162109 11.95146751403809 C 57.42801666259766 9.143744468688965 54.15927886962891 6.939667224884033 50.52035522460938 5.400498390197754 C 46.75444793701172 3.807636737823486 42.75238800048828 2.999990463256836 38.62529373168945 2.999990463256836 L 12.60494136810303 2.999990463256836 C 22.32513809204102 10.44660949707031 28.19909477233887 21.59640121459961 28.19909477233887 33.57989883422852 C 28.19909477233887 45.96330261230469 22.07947158813477 57.28474426269531 11.93769454956055 64.69260406494141 L 38.05649566650391 64.69260406494141 M 38.05649566650391 67.69260406494141 L -0.0001978576619876549 67.69260406494141 C 15.30764865875244 62.04479217529297 25.19909477233887 48.65551376342773 25.19909477233887 33.57989883422852 C 25.19909477233887 19.10151290893555 15.84567928314209 5.920606136322021 1.370140552520752 -9.474534635955933e-06 L 38.62529373168945 -9.474534635955933e-06 C 43.15607833862305 -9.474534635955933e-06 47.55134201049805 0.8873751163482666 51.68901824951172 2.637482881546021 C 55.68553924560547 4.327913761138916 59.27478790283203 6.747867584228516 62.35706329345703 9.830143928527832 C 65.43935394287109 12.91243648529053 67.85930633544922 16.50168228149414 69.54971313476562 20.49818992614746 C 71.29983520507812 24.63586807250977 72.18720245361328 29.0311450958252 72.18720245361328 33.56189727783203 C 72.18720245361328 33.65640640258789 72.18720245361328 33.7526969909668 72.18630981445312 33.84629821777344 L 96.01740264892578 33.84629821777344 L 96.01740264892578 37.25729751586914 L 71.9901123046875 37.25729751586914 C 71.09468078613281 45.57458877563477 67.16749572753906 53.2583122253418 60.93292617797852 58.89218902587891 C 54.65278625488281 64.56722259521484 46.52845001220703 67.69260406494141 38.05649566650391 67.69260406494141 Z" stroke="none" fill="#70089b"/>
    </g>
    <g id="Trazado_111083" data-name="Trazado 111083" transform="translate(561.341 -8319.07)" fill="#70089b">
      <path d="M 64.15929412841797 2.92894172668457 L 0.4999970495700836 2.92894172668457 L 0.4999970495700836 0.5000016689300537 L 64.15929412841797 0.5000016689300537 L 64.15929412841797 2.92894172668457 Z" stroke="none"/>
      <path d="M 0.9999961853027344 1.000001668930054 L 0.9999961853027344 2.42894172668457 L 63.65929794311523 2.42894172668457 L 63.65929794311523 1.000001668930054 L 0.9999961853027344 1.000001668930054 M 0 1.668930053710938e-06 L 64.65929412841797 1.668930053710938e-06 L 64.65929412841797 3.42894172668457 L 0 3.42894172668457 L 0 1.668930053710938e-06 Z" stroke="none" fill="#707070"/>
    </g>
    <g id="Trazado_111084" data-name="Trazado 111084" transform="translate(579.084 -8348.931)" fill="#70089b">
      <path d="M 46.4161376953125 2.614736080169678 L 0.4999988377094269 2.614736080169678 L 0.4999988377094269 0.4999961256980896 L 46.4161376953125 0.4999961256980896 L 46.4161376953125 2.614736080169678 Z" stroke="none"/>
      <path d="M 1 0.9999961853027344 L 1 2.114736080169678 L 45.9161376953125 2.114736080169678 L 45.9161376953125 0.9999961853027344 L 1 0.9999961853027344 M 0 -3.814697265625e-06 L 46.9161376953125 -3.814697265625e-06 L 46.9161376953125 3.114736080169678 L 0 3.114736080169678 L 0 -3.814697265625e-06 Z" stroke="none" fill="#707070"/>
    </g>
    <g id="Trazado_111060" data-name="Trazado 111060" transform="translate(671.914 -8159.793) rotate(-90)" fill="#70089b">
      <path d="M 25.62691497802734 2.92894172668457 L 0.5000056028366089 2.92894172668457 L 0.5000056028366089 0.5000016689300537 L 25.62691497802734 0.5000016689300537 L 25.62691497802734 2.92894172668457 Z" stroke="none"/>
      <path d="M 0.9999961853027344 1.000001668930054 L 0.9999961853027344 2.42894172668457 L 25.12690544128418 2.42894172668457 L 25.12690544128418 1.000001668930054 L 0.9999961853027344 1.000001668930054 M -3.814697265625e-06 1.668930053710938e-06 L 26.12690544128418 1.668930053710938e-06 L 26.12690544128418 3.42894172668457 L -3.814697265625e-06 3.42894172668457 L -3.814697265625e-06 1.668930053710938e-06 Z" stroke="none" fill="#707070"/>
    </g>
    <g id="Trazado_111061" data-name="Trazado 111061" transform="translate(657.862 -8162.5)" fill="#70089b">
      <path d="M 16.98012351989746 3 L 0.5000027418136597 3 L 0.5000027418136597 0.5 L 16.98012351989746 0.5 L 16.98012351989746 3 Z" stroke="none"/>
      <path d="M 1.000001907348633 1 L 1.000001907348633 2.5 L 16.48012351989746 2.5 L 16.48012351989746 1 L 1.000001907348633 1 M 1.9073486328125e-06 0 L 17.48012351989746 0 L 17.48012351989746 3.5 L 1.9073486328125e-06 3.5 L 1.9073486328125e-06 0 Z" stroke="none" fill="#707070"/>
    </g>
    <path id="Trazado_111079" data-name="Trazado 111079" d="M10.98-3.187H5.344L4.359,0H-.035L6.223-17.062H10.09L16.395,0H11.977ZM6.328-6.363H10l-1.84-5.918Z" transform="translate(527 -8223)" fill="#12263f" stroke="rgba(0,0,0,0)" stroke-width="1"/>
    <path id="Trazado_111082" data-name="Trazado 111082" d="M10.98-3.187H5.344L4.359,0H-.035L6.223-17.062H10.09L16.395,0H11.977ZM6.328-6.363H10l-1.84-5.918Z" transform="translate(527 -8453.5)" fill="#12263f" stroke="rgba(0,0,0,0)" stroke-width="1"/>
    <path id="Trazado_111080" data-name="Trazado 111080" d="M1.289,0V-17.062H7.418a8.679,8.679,0,0,1,5.01,1.207,4.016,4.016,0,0,1,1.717,3.5,4.06,4.06,0,0,1-.609,2.262,3.551,3.551,0,0,1-1.793,1.383,3.6,3.6,0,0,1,2.051,1.313,3.816,3.816,0,0,1,.715,2.344A4.518,4.518,0,0,1,12.92-1.283,7.556,7.556,0,0,1,8.215,0ZM5.4-7.254v4.09H8.1a2.564,2.564,0,0,0,1.711-.51,1.784,1.784,0,0,0,.6-1.436A1.891,1.891,0,0,0,8.285-7.254Zm0-2.7H7.547a3.047,3.047,0,0,0,1.922-.494,1.752,1.752,0,0,0,.574-1.422,1.839,1.839,0,0,0-.621-1.557,3.324,3.324,0,0,0-2-.476H5.4Z" transform="translate(526 -8169)" fill="#12263f" stroke="rgba(0,0,0,0)" stroke-width="1"/>
    <path id="Trazado_111081" data-name="Trazado 111081" d="M15.094-5.777a6.231,6.231,0,0,1-.961,3.146A5.8,5.8,0,0,1,11.666-.516a8.4,8.4,0,0,1-3.627.75,6.7,6.7,0,0,1-5.3-2.191A9.048,9.048,0,0,1,.809-8.145v-.844a10.328,10.328,0,0,1,.873-4.389A6.615,6.615,0,0,1,4.2-16.283a7.013,7.013,0,0,1,3.8-1.025,7.354,7.354,0,0,1,4.992,1.635,6.459,6.459,0,0,1,2.145,4.506h-4.1a3.056,3.056,0,0,0-.785-2.238,3.229,3.229,0,0,0-2.25-.68,2.457,2.457,0,0,0-2.25,1.148,7.381,7.381,0,0,0-.75,3.668v1.207a8.167,8.167,0,0,0,.686,3.9A2.509,2.509,0,0,0,8.039-2.988a3.159,3.159,0,0,0,2.168-.668A2.835,2.835,0,0,0,11-5.777Z" transform="translate(526 -8137)" fill="#12263f" stroke="rgba(0,0,0,0)" stroke-width="1"/>
    <path id="Trazado_111066" data-name="Trazado 111066" d="M1.289,0V-17.062H7.418a8.679,8.679,0,0,1,5.01,1.207,4.016,4.016,0,0,1,1.717,3.5,4.06,4.06,0,0,1-.609,2.262,3.551,3.551,0,0,1-1.793,1.383,3.6,3.6,0,0,1,2.051,1.313,3.816,3.816,0,0,1,.715,2.344A4.518,4.518,0,0,1,12.92-1.283,7.556,7.556,0,0,1,8.215,0ZM5.4-7.254v4.09H8.1a2.564,2.564,0,0,0,1.711-.51,1.784,1.784,0,0,0,.6-1.436A1.891,1.891,0,0,0,8.285-7.254Zm0-2.7H7.547a3.047,3.047,0,0,0,1.922-.494,1.752,1.752,0,0,0,.574-1.422,1.839,1.839,0,0,0-.621-1.557,3.324,3.324,0,0,0-2-.476H5.4Z" transform="translate(527 -8411)" fill="#12263f" stroke="rgba(0,0,0,0)" stroke-width="1"/>
    <path id="Trazado_111067" data-name="Trazado 111067" d="M15.094-5.777a6.231,6.231,0,0,1-.961,3.146A5.8,5.8,0,0,1,11.666-.516a8.4,8.4,0,0,1-3.627.75,6.7,6.7,0,0,1-5.3-2.191A9.048,9.048,0,0,1,.809-8.145v-.844a10.328,10.328,0,0,1,.873-4.389A6.615,6.615,0,0,1,4.2-16.283a7.013,7.013,0,0,1,3.8-1.025,7.354,7.354,0,0,1,4.992,1.635,6.459,6.459,0,0,1,2.145,4.506h-4.1a3.056,3.056,0,0,0-.785-2.238,3.229,3.229,0,0,0-2.25-.68,2.457,2.457,0,0,0-2.25,1.148,7.381,7.381,0,0,0-.75,3.668v1.207a8.167,8.167,0,0,0,.686,3.9A2.509,2.509,0,0,0,8.039-2.988a3.159,3.159,0,0,0,2.168-.668A2.835,2.835,0,0,0,11-5.777Z" transform="translate(526 -8317)" fill="#12263f" stroke="rgba(0,0,0,0)" stroke-width="1"/>
    <path id="Trazado_111068" data-name="Trazado 111068" d="M7.535-9.656l3.141-7.406h4.441L9.621-6.129V0H5.449V-6.129L-.035-17.062H4.383Z" transform="translate(791 -8191)" fill="#12263f" stroke="rgba(0,0,0,0)" stroke-width="1"/>
    <path id="Trazado_111078" data-name="Trazado 111078" d="M7.535-9.656l3.141-7.406h4.441L9.621-6.129V0H5.449V-6.129L-.035-17.062H4.383Z" transform="translate(846 -8377)" fill="#12263f" stroke="rgba(0,0,0,0)" stroke-width="1"/>
    <g id="Trazado_111063" data-name="Trazado 111063" transform="translate(699 -8399.308) rotate(-90)" fill="#70089b">
      <path d="M 33.34663772583008 2.833782911300659 L 0.4999988675117493 2.833782911300659 L 0.4999988675117493 0.5000029802322388 L 33.34663772583008 0.5000029802322388 L 33.34663772583008 2.833782911300659 Z" stroke="none"/>
      <path d="M 1 1.000003099441528 L 1 2.333783149719238 L 32.84663772583008 2.333783149719238 L 32.84663772583008 1.000003099441528 L 1 1.000003099441528 M 0 3.099441528320312e-06 L 33.84663772583008 3.099441528320312e-06 L 33.84663772583008 3.333782911300659 L 0 3.333782911300659 L 0 3.099441528320312e-06 Z" stroke="none" fill="#707070"/>
    </g>
    <g id="Trazado_111062" data-name="Trazado 111062" transform="translate(699 -8330) rotate(-90)" fill="#70089b">
      <path d="M 36.80757904052734 2.833782911300659 L 0.499997615814209 2.833782911300659 L 0.499997615814209 0.5000029802322388 L 36.80757904052734 0.5000029802322388 L 36.80757904052734 2.833782911300659 Z" stroke="none"/>
      <path d="M 0.9999961853027344 1.000003099441528 L 0.9999961853027344 2.333783149719238 L 36.30757904052734 2.333783149719238 L 36.30757904052734 1.000003099441528 L 0.9999961853027344 1.000003099441528 M -3.814697265625e-06 3.099441528320312e-06 L 37.30757904052734 3.099441528320312e-06 L 37.30757904052734 3.333782911300659 L -3.814697265625e-06 3.333782911300659 L -3.814697265625e-06 3.099441528320312e-06 Z" stroke="none" fill="#707070"/>
    </g>
    <g id="Trazado_111064" data-name="Trazado 111064" transform="translate(579 -8345.89) rotate(-90)" fill="#70089b">
      <path d="M 71.80757904052734 2.833782911300659 L 0.5000057220458984 2.833782911300659 L 0.5000057220458984 0.5000029802322388 L 71.80757904052734 0.5000029802322388 L 71.80757904052734 2.833782911300659 Z" stroke="none"/>
      <path d="M 0.9999923706054688 1.000003099441528 L 0.9999923706054688 2.333783149719238 L 71.30756378173828 2.333783149719238 L 71.30756378173828 1.000003099441528 L 0.9999923706054688 1.000003099441528 M -7.62939453125e-06 3.099441528320312e-06 L 72.30756378173828 3.099441528320312e-06 L 72.30756378173828 3.333782911300659 L -7.62939453125e-06 3.333782911300659 L -7.62939453125e-06 3.099441528320312e-06 Z" stroke="none" fill="#707070"/>
    </g>
    <g id="Trazado_111065" data-name="Trazado 111065" transform="translate(805.746 -8385.927)" fill="#70089b">
      <path d="M 27.75409698486328 2.911423921585083 L 0.4999965727329254 2.911423921585083 L 0.4999965727329254 0.5000038743019104 L 27.75409698486328 0.5000038743019104 L 27.75409698486328 2.911423921585083 Z" stroke="none"/>
      <path d="M 0.9999961853027344 1.000003814697266 L 0.9999961853027344 2.411423921585083 L 27.25409698486328 2.411423921585083 L 27.25409698486328 1.000003814697266 L 0.9999961853027344 1.000003814697266 M -3.814697265625e-06 3.814697265625e-06 L 28.25409698486328 3.814697265625e-06 L 28.25409698486328 3.411423921585083 L -3.814697265625e-06 3.411423921585083 L -3.814697265625e-06 3.814697265625e-06 Z" stroke="none" fill="#707070"/>
    </g>
    <g id="Trazado_111075" data-name="Trazado 111075" transform="translate(699.04 -8368.839)" fill="#70089b">
      <path d="M0,0H40.485V3.3H0Z" stroke="none"/>
      <path d="M 39.4856071472168 2.301474809646606 L 39.4856071472168 1.00174081325531 L 1.001453042030334 1.001194834709167 L 1.001453042030334 2.30202054977417 L 39.4856071472168 2.301474809646606 M 40.48533248901367 3.301757097244263 L 4.449892912816722e-06 3.303215265274048 L 4.449892912816722e-06 1.107643399222979e-07 L 40.48533248901367 0.001458415645174682 L 40.48533248901367 3.301757097244263 Z" stroke="none" fill="#70089b"/>
    </g>
    <g id="Trazado_111076" data-name="Trazado 111076" transform="translate(699.04 -8401.682)" fill="#70089b">
      <path d="M0,0H40.485V3.3H0Z" stroke="none"/>
      <path d="M 39.4856071472168 2.302270174026489 L 39.4856071472168 1.00174617767334 L 1.001453042030334 1.00119960308075 L 1.001453042030334 2.302816152572632 L 39.4856071472168 2.302270174026489 M 40.48533248901367 3.302552461624146 L 4.449892912816722e-06 3.30401086807251 L 4.449892912816722e-06 4.93762263431563e-06 L 40.48533248901367 0.001463841181248426 L 40.48533248901367 3.302552461624146 Z" stroke="none" fill="#70089b"/>
    </g>
  </g>
</svg>
