<svg xmlns="http://www.w3.org/2000/svg" width="780" height="174" viewBox="0 0 780 174">
  <g id="Grupo_66015" data-name="Grupo 66015" transform="translate(1798 9402)">
    <path id="Trazado_110961" data-name="Trazado 110961" d="M0,0H780V30H0Z" transform="translate(-1798 -9402)" fill="#43babe"/>
    <path id="Trazado_110962" data-name="Trazado 110962" d="M1.172-5.781a14.924,14.924,0,0,1,.635-4.434A10.7,10.7,0,0,1,3.56-13.691a6.225,6.225,0,0,1,2.485-1.992l.625,1.621a6.367,6.367,0,0,0-2.114,3.14,15.313,15.313,0,0,0-.757,5v.43a15.612,15.612,0,0,0,.747,5.1A6.34,6.34,0,0,0,6.67,2.773L6.045,4.395a6.163,6.163,0,0,1-2.485-2A10.538,10.538,0,0,1,1.807-1.064a15,15,0,0,1-.635-4.277ZM16.211-2.656h-4.7L10.693,0H7.031l5.215-14.219h3.223L20.723,0H17.041ZM12.334-5.3h3.057l-1.533-4.932ZM24.121-9.341l-3.184-.878.635-1.844,3.115,1.278-.244-3.434h2.09l-.254,3.5,3.027-1.249.635,1.863-3.223.878,2.139,2.588L27.168-5.483,25.381-8.354l-1.8,2.773-1.689-1.1ZM31.055,0V-14.219h5.107a7.232,7.232,0,0,1,4.175,1.006,3.347,3.347,0,0,1,1.431,2.92,3.383,3.383,0,0,1-.508,1.885,2.959,2.959,0,0,1-1.494,1.152,3,3,0,0,1,1.709,1.094,3.18,3.18,0,0,1,.6,1.953,3.765,3.765,0,0,1-1.323,3.14A6.3,6.3,0,0,1,36.826,0Zm3.428-6.045v3.408h2.246a2.136,2.136,0,0,0,1.426-.425,1.487,1.487,0,0,0,.5-1.2,1.576,1.576,0,0,0-1.768-1.787Zm0-2.246H36.27a2.539,2.539,0,0,0,1.6-.411,1.46,1.46,0,0,0,.479-1.185,1.533,1.533,0,0,0-.518-1.3,2.77,2.77,0,0,0-1.67-.4h-1.68ZM48.994-5.508a13.925,13.925,0,0,1-.674,4.355,11.12,11.12,0,0,1-1.86,3.54A6.193,6.193,0,0,1,43.9,4.395l-.625-1.621a6.43,6.43,0,0,0,2.1-3.125,15.085,15.085,0,0,0,.771-4.854v-.6a15.612,15.612,0,0,0-.747-5.1,6.34,6.34,0,0,0-2.124-3.164l.625-1.621A6.307,6.307,0,0,1,46.44-13.7,10.984,10.984,0,0,1,48.3-10.21a13.807,13.807,0,0,1,.7,4.272Zm4.365-3.833-3.184-.878.635-1.844,3.115,1.278-.244-3.434h2.09l-.254,3.5,3.027-1.249L59.18-10.1l-3.223.878L58.1-6.636,56.406-5.483,54.619-8.354l-1.8,2.773-1.689-1.1ZM71.8-4.814A5.193,5.193,0,0,1,71-2.192,4.833,4.833,0,0,1,68.94-.43,7,7,0,0,1,65.918.2,5.584,5.584,0,0,1,61.5-1.631a7.54,7.54,0,0,1-1.611-5.156v-.7a8.607,8.607,0,0,1,.728-3.657,5.513,5.513,0,0,1,2.095-2.422,5.844,5.844,0,0,1,3.164-.854,6.129,6.129,0,0,1,4.16,1.362,5.383,5.383,0,0,1,1.787,3.755H68.408a2.547,2.547,0,0,0-.654-1.865,2.691,2.691,0,0,0-1.875-.566A2.048,2.048,0,0,0,64-10.781a6.151,6.151,0,0,0-.625,3.057v1.006a6.806,6.806,0,0,0,.571,3.252,2.091,2.091,0,0,0,1.968.977,2.632,2.632,0,0,0,1.807-.557,2.363,2.363,0,0,0,.664-1.768Zm15.82-2.236H78.574V-9.59h9.043Zm0,4.287H78.574V-5.3h9.043Zm15.547.107h-4.7L97.646,0H93.984L99.2-14.219h3.223L107.676,0h-3.682ZM99.287-5.3h3.057l-1.533-4.932Zm11.787-4.038-3.184-.878.635-1.844,3.115,1.278-.244-3.434h2.09l-.254,3.5,3.027-1.249.635,1.863-3.223.878,2.139,2.588-1.689,1.152-1.787-2.871-1.8,2.773-1.689-1.1Zm7.031,3.56a14.924,14.924,0,0,1,.635-4.434,10.7,10.7,0,0,1,1.753-3.477,6.225,6.225,0,0,1,2.485-1.992l.625,1.621a6.367,6.367,0,0,0-2.114,3.14,15.313,15.313,0,0,0-.757,5v.43a15.612,15.612,0,0,0,.747,5.1A6.34,6.34,0,0,0,123.6,2.773l-.625,1.621a6.163,6.163,0,0,1-2.485-2,10.538,10.538,0,0,1-1.753-3.462,15,15,0,0,1-.635-4.277ZM125.068,0V-14.219h5.107a7.232,7.232,0,0,1,4.175,1.006,3.347,3.347,0,0,1,1.431,2.92,3.383,3.383,0,0,1-.508,1.885,2.959,2.959,0,0,1-1.494,1.152,3,3,0,0,1,1.709,1.094,3.18,3.18,0,0,1,.6,1.953,3.765,3.765,0,0,1-1.323,3.14A6.3,6.3,0,0,1,130.84,0ZM128.5-6.045v3.408h2.246a2.136,2.136,0,0,0,1.426-.425,1.487,1.487,0,0,0,.5-1.2A1.576,1.576,0,0,0,130.9-6.045Zm0-2.246h1.787a2.539,2.539,0,0,0,1.6-.411,1.46,1.46,0,0,0,.479-1.185,1.533,1.533,0,0,0-.518-1.3,2.77,2.77,0,0,0-1.67-.4H128.5Zm11.836-1.05-3.184-.878.635-1.844,3.115,1.278-.244-3.434h2.09l-.254,3.5,3.027-1.249.635,1.863-3.223.878,2.139,2.588-1.689,1.152-1.787-2.871-1.8,2.773-1.689-1.1ZM158.77-4.814a5.193,5.193,0,0,1-.8,2.622A4.833,4.833,0,0,1,155.913-.43,7,7,0,0,1,152.891.2a5.584,5.584,0,0,1-4.414-1.826,7.54,7.54,0,0,1-1.611-5.156v-.7a8.607,8.607,0,0,1,.728-3.657,5.513,5.513,0,0,1,2.095-2.422,5.844,5.844,0,0,1,3.164-.854,6.129,6.129,0,0,1,4.16,1.362A5.383,5.383,0,0,1,158.8-9.307h-3.418a2.547,2.547,0,0,0-.654-1.865,2.691,2.691,0,0,0-1.875-.566,2.048,2.048,0,0,0-1.875.957,6.151,6.151,0,0,0-.625,3.057v1.006a6.806,6.806,0,0,0,.571,3.252,2.091,2.091,0,0,0,1.968.977,2.632,2.632,0,0,0,1.807-.557,2.363,2.363,0,0,0,.664-1.768Zm6.406-.693a13.925,13.925,0,0,1-.674,4.355,11.12,11.12,0,0,1-1.86,3.54,6.193,6.193,0,0,1-2.563,2.007l-.625-1.621a6.43,6.43,0,0,0,2.1-3.125,15.085,15.085,0,0,0,.771-4.854v-.6a15.612,15.612,0,0,0-.747-5.1,6.34,6.34,0,0,0-2.124-3.164l.625-1.621a6.307,6.307,0,0,1,2.544,1.987,10.984,10.984,0,0,1,1.855,3.486,13.807,13.807,0,0,1,.7,4.272Z" transform="translate(-1503 -9379)" fill="#fff"/>
    <g id="Trazado_110944" data-name="Trazado 110944" transform="translate(-1798 -9372)" fill="#fff">
      <path d="M 779.5 143.5 L 0.5 143.5 L 0.5 0.5 L 779.5 0.5 L 779.5 143.5 Z" stroke="none"/>
      <path d="M 1 1 L 1 143 L 779 143 L 779 1 L 1 1 M 0 0 L 780 0 L 780 144 L 0 144 L 0 0 Z" stroke="none" fill="#43babe"/>
    </g>
    <path id="Trazado_110945" data-name="Trazado 110945" d="M0,0H44V9H0Z" transform="translate(-1442 -9312.999)" fill="#0155a0"/>
    <path id="Trazado_110946" data-name="Trazado 110946" d="M0,0H44V9H0Z" transform="translate(-1442 -9296.999)" fill="#0155a0"/>
    <g id="Grupo_59370" data-name="Grupo 59370" transform="translate(-1733.001 -9334.35)">
      <text id="B" transform="translate(5.001 15.351)" fill="#12263f" font-size="13" font-family="Roboto-Regular, Roboto"><tspan x="0" y="0">B</tspan></text>
    </g>
    <g id="Grupo_59371" data-name="Grupo 59371" transform="translate(-1733.001 -9363.239)">
      <text id="A" transform="translate(5.001 16.239)" fill="#12263f" font-size="12" font-family="Roboto-Regular, Roboto"><tspan x="0" y="0">A</tspan></text>
    </g>
    <path id="Trazado_110947" data-name="Trazado 110947" d="M0,0H62.929V3.009H0Z" transform="translate(-1604.742 -9278.988)" fill="#70089b"/>
    <path id="Trazado_110948" data-name="Trazado 110948" d="M0,0H172.929V3.611H0Z" transform="translate(-1714.742 -9252.508)" fill="#70089b"/>
    <path id="Trazado_110949" data-name="Trazado 110949" d="M0,0H172.929V3.611H0Z" transform="translate(-1714.742 -9252.508)" fill="#70089b"/>
    <path id="Trazado_110950" data-name="Trazado 110950" d="M0,0H3V61H0Z" transform="translate(-1606 -9337)" fill="#70089b"/>
    <path id="Trazado_110963" data-name="Trazado 110963" d="M7.266-2.707a3.139,3.139,0,0,1-1,2.089A3.274,3.274,0,0,1,4.031.117,3.006,3.006,0,0,1,1.608-.967,4.361,4.361,0,0,1,.7-3.867v-.82a4.861,4.861,0,0,1,.425-2.092,3.173,3.173,0,0,1,1.2-1.386,3.353,3.353,0,0,1,1.8-.483,3.083,3.083,0,0,1,2.18.759,3.176,3.176,0,0,1,.955,2.1H6.135A2.451,2.451,0,0,0,5.5-7.27a1.924,1.924,0,0,0-1.368-.458,2.013,2.013,0,0,0-1.69.8,3.661,3.661,0,0,0-.612,2.269v.827a3.764,3.764,0,0,0,.58,2.211A1.874,1.874,0,0,0,4.031-.8,2.165,2.165,0,0,0,5.47-1.228a2.357,2.357,0,0,0,.665-1.479Z" transform="translate(-1737 -9249)" fill="#12263f"/>
    <path id="Trazado_110951" data-name="Trazado 110951" d="M3.592-4.248,5.818-8.531H7.1L4.154-3.182V0H3.029V-3.182L.088-8.531H1.377Z" transform="translate(-1480 -9263)" fill="#12263f"/>
    <g id="Grupo_59373" data-name="Grupo 59373" transform="translate(-1714 -9362)">
      <path id="Rectángulo_9268" data-name="Rectángulo 9268" d="M0,0H32.181A27.227,27.227,0,0,1,59.408,27.227v0A26.773,26.773,0,0,1,32.635,54H0a0,0,0,0,1,0,0V0A0,0,0,0,1,0,0Z" transform="translate(25.796)" fill="#70089b"/>
      <rect id="Rectángulo_9269" data-name="Rectángulo 9269" width="28.922" height="2.88" transform="translate(0 11.52)" fill="#70089b"/>
      <rect id="Rectángulo_9270" data-name="Rectángulo 9270" width="28.922" height="2.88" transform="translate(0 40.32)" fill="#70089b"/>
      <rect id="Rectángulo_9271" data-name="Rectángulo 9271" width="28.922" height="2.88" transform="translate(82.077 24.693)" fill="#70089b"/>
    </g>
    <path id="Trazado_110952" data-name="Trazado 110952" d="M0,0H32.181A27.227,27.227,0,0,1,59.408,27.227,26.773,26.773,0,0,1,32.635,54H0Z" transform="translate(-1573.204 -9292)" fill="#70089b"/>
    <path id="Trazado_110953" data-name="Trazado 110953" d="M0,0H28.922V2.88H0Z" transform="translate(-1516.923 -9267.307)" fill="#70089b"/>
    <path id="Trazado_110954" data-name="Trazado 110954" d="M1.073,0V-9.242H4.094a3.507,3.507,0,0,1,2.263.622,2.242,2.242,0,0,1,.759,1.841,1.877,1.877,0,0,1-.368,1.146,2.387,2.387,0,0,1-1,.771,2.143,2.143,0,0,1,1.184.8,2.286,2.286,0,0,1,.435,1.4A2.472,2.472,0,0,1,6.557-.711,3.334,3.334,0,0,1,4.278,0ZM2.292-4.323V-1H4.3a1.938,1.938,0,0,0,1.343-.441,1.549,1.549,0,0,0,.492-1.216q0-1.669-1.815-1.669Zm0-.978H4.132a1.93,1.93,0,0,0,1.279-.4,1.344,1.344,0,0,0,.479-1.088A1.321,1.321,0,0,0,5.446-7.9a2.182,2.182,0,0,0-1.352-.347h-1.8Z" transform="translate(-1341 -9273)" fill="#12263f"/>
    <path id="Trazado_110955" data-name="Trazado 110955" d="M5.7-2.232H2.127L1.324,0H.164L3.422-8.531h.984L7.67,0H6.516Zm-3.234-.92h2.9L3.914-7.143Z" transform="translate(-1341 -9337)" fill="#12263f"/>
    <path id="Trazado_110956" data-name="Trazado 110956" d="M0,0H202.929V3.611H0Z" transform="translate(-1319.742 -9337.508)" fill="#70089b"/>
    <g id="Grupo_59372" data-name="Grupo 59372" transform="translate(-1272 -9311.916)">
      <g id="Grupo_59341" data-name="Grupo 59341" transform="translate(99.871 0)">
        <rect id="Rectángulo_9255" data-name="Rectángulo 9255" width="62.929" height="3.009" fill="#70089b"/>
      </g>
      <rect id="Rectángulo_9265" data-name="Rectángulo 9265" width="3" height="50" transform="translate(98.613 0.021)" fill="#70089b"/>
      <rect id="Rectángulo_9266" data-name="Rectángulo 9266" width="58.113" height="2.994" transform="translate(42 47.027)" fill="#70089b"/>
    </g>
    <path id="Trazado_110957" data-name="Trazado 110957" d="M7.266-2.707a3.139,3.139,0,0,1-1,2.089A3.274,3.274,0,0,1,4.031.117,3.006,3.006,0,0,1,1.608-.967,4.361,4.361,0,0,1,.7-3.867v-.82a4.861,4.861,0,0,1,.425-2.092,3.173,3.173,0,0,1,1.2-1.386,3.353,3.353,0,0,1,1.8-.483,3.083,3.083,0,0,1,2.18.759,3.176,3.176,0,0,1,.955,2.1H6.135A2.451,2.451,0,0,0,5.5-7.27a1.924,1.924,0,0,0-1.368-.458,2.013,2.013,0,0,0-1.69.8,3.661,3.661,0,0,0-.612,2.269v.827a3.764,3.764,0,0,0,.58,2.211A1.874,1.874,0,0,0,4.031-.8,2.165,2.165,0,0,0,5.47-1.228a2.357,2.357,0,0,0,.665-1.479Z" transform="translate(-1341 -9249)" fill="#12263f"/>
    <path id="Trazado_110958" data-name="Trazado 110958" d="M3.592-4.248,5.818-8.531H7.1L4.154-3.182V0H3.029V-3.182L.088-8.531H1.377Z" transform="translate(-1037 -9319)" fill="#12263f"/>
    <g id="Grupo_59374" data-name="Grupo 59374" transform="translate(-1309 -9292)">
      <path id="Rectángulo_9268-2" data-name="Rectángulo 9268" d="M0,0H32.181A27.227,27.227,0,0,1,59.408,27.227v0A26.773,26.773,0,0,1,32.635,54H0a0,0,0,0,1,0,0V0A0,0,0,0,1,0,0Z" transform="translate(25.796)" fill="#70089b"/>
      <rect id="Rectángulo_9269-2" data-name="Rectángulo 9269" width="38.589" height="2.88" transform="translate(-9.667 11.52)" fill="#70089b"/>
      <rect id="Rectángulo_9270-2" data-name="Rectángulo 9270" width="38.589" height="2.88" transform="translate(-9.667 40.32)" fill="#70089b"/>
    </g>
    <path id="Trazado_110959" data-name="Trazado 110959" d="M0,0H32.181A27.227,27.227,0,0,1,59.408,27.227,26.773,26.773,0,0,1,32.635,54H0Z" transform="translate(-1129.204 -9350)" fill="#70089b"/>
    <path id="Trazado_110960" data-name="Trazado 110960" d="M0,0H28.922V2.88H0Z" transform="translate(-1072.5 -9324.439)" fill="#70089b"/>
  </g>
</svg>
