<svg xmlns="http://www.w3.org/2000/svg" width="780" height="335" viewBox="0 0 780 335">
  <g id="Grupo_66015" data-name="Grupo 66015" transform="translate(3127 9516)">
    <g id="Grupo_66014" data-name="Grupo 66014">
      <path id="Trazado_110924" data-name="Trazado 110924" d="M0,0H780V30H0Z" transform="translate(-3127 -9516)" fill="#43babe"/>
      <path id="Trazado_110925" data-name="Trazado 110925" d="M1.172-5.781a14.924,14.924,0,0,1,.635-4.434A10.7,10.7,0,0,1,3.56-13.691a6.225,6.225,0,0,1,2.485-1.992l.625,1.621a6.367,6.367,0,0,0-2.114,3.14,15.313,15.313,0,0,0-.757,5v.43a15.612,15.612,0,0,0,.747,5.1A6.34,6.34,0,0,0,6.67,2.773L6.045,4.395a6.163,6.163,0,0,1-2.485-2A10.538,10.538,0,0,1,1.807-1.064a15,15,0,0,1-.635-4.277ZM16.211-2.656h-4.7L10.693,0H7.031l5.215-14.219h3.223L20.723,0H17.041ZM12.334-5.3h3.057l-1.533-4.932ZM32.52-8.066h3.33v2.822H32.52v3.818H29.443V-5.244H26.1V-8.066h3.34v-3.711H32.52ZM42.4,0V-14.219H47.51a7.232,7.232,0,0,1,4.175,1.006,3.347,3.347,0,0,1,1.431,2.92,3.383,3.383,0,0,1-.508,1.885,2.959,2.959,0,0,1-1.494,1.152,3,3,0,0,1,1.709,1.094,3.18,3.18,0,0,1,.6,1.953,3.765,3.765,0,0,1-1.323,3.14A6.3,6.3,0,0,1,48.174,0ZM45.83-6.045v3.408h2.246A2.136,2.136,0,0,0,49.5-3.062a1.487,1.487,0,0,0,.5-1.2,1.576,1.576,0,0,0-1.768-1.787Zm0-2.246h1.787a2.539,2.539,0,0,0,1.6-.411A1.46,1.46,0,0,0,49.7-9.888a1.533,1.533,0,0,0-.518-1.3,2.77,2.77,0,0,0-1.67-.4H45.83ZM60.342-5.508a13.925,13.925,0,0,1-.674,4.355,11.12,11.12,0,0,1-1.86,3.54,6.193,6.193,0,0,1-2.563,2.007l-.625-1.621a6.43,6.43,0,0,0,2.1-3.125,15.085,15.085,0,0,0,.771-4.854v-.6a15.612,15.612,0,0,0-.747-5.1,6.34,6.34,0,0,0-2.124-3.164l.625-1.621A6.307,6.307,0,0,1,57.788-13.7a10.984,10.984,0,0,1,1.855,3.486,13.807,13.807,0,0,1,.7,4.272ZM73.105-8.066h3.33v2.822h-3.33v3.818H70.029V-5.244h-3.34V-8.066h3.34v-3.711h3.076ZM94.492-4.814a5.193,5.193,0,0,1-.8,2.622A4.833,4.833,0,0,1,91.636-.43,7,7,0,0,1,88.613.2,5.584,5.584,0,0,1,84.2-1.631a7.54,7.54,0,0,1-1.611-5.156v-.7a8.607,8.607,0,0,1,.728-3.657,5.513,5.513,0,0,1,2.095-2.422,5.844,5.844,0,0,1,3.164-.854,6.129,6.129,0,0,1,4.16,1.362,5.383,5.383,0,0,1,1.787,3.755H91.1a2.547,2.547,0,0,0-.654-1.865,2.691,2.691,0,0,0-1.875-.566,2.048,2.048,0,0,0-1.875.957,6.151,6.151,0,0,0-.625,3.057v1.006a6.806,6.806,0,0,0,.571,3.252,2.091,2.091,0,0,0,1.968.977,2.632,2.632,0,0,0,1.807-.557,2.363,2.363,0,0,0,.664-1.768Zm15.82-2.236H101.27V-9.59h9.043Zm0,4.287H101.27V-5.3h9.043Zm15.547.107h-4.7L120.342,0H116.68l5.215-14.219h3.223L130.371,0h-3.682ZM121.982-5.3h3.057l-1.533-4.932Zm20.186-2.764h3.33v2.822h-3.33v3.818h-3.076V-5.244h-3.34V-8.066h3.34v-3.711h3.076Zm9.98,2.285a14.924,14.924,0,0,1,.635-4.434,10.7,10.7,0,0,1,1.753-3.477,6.225,6.225,0,0,1,2.485-1.992l.625,1.621a6.367,6.367,0,0,0-2.114,3.14,15.313,15.313,0,0,0-.757,5v.43a15.612,15.612,0,0,0,.747,5.1,6.34,6.34,0,0,0,2.124,3.164l-.625,1.621a6.163,6.163,0,0,1-2.485-2,10.538,10.538,0,0,1-1.753-3.462,15,15,0,0,1-.635-4.277ZM159.111,0V-14.219h5.107a7.232,7.232,0,0,1,4.175,1.006,3.347,3.347,0,0,1,1.431,2.92,3.383,3.383,0,0,1-.508,1.885,2.959,2.959,0,0,1-1.494,1.152,3,3,0,0,1,1.709,1.094,3.18,3.18,0,0,1,.6,1.953,3.765,3.765,0,0,1-1.323,3.14A6.3,6.3,0,0,1,164.883,0Zm3.428-6.045v3.408h2.246a2.136,2.136,0,0,0,1.426-.425,1.487,1.487,0,0,0,.5-1.2,1.576,1.576,0,0,0-1.768-1.787Zm0-2.246h1.787a2.539,2.539,0,0,0,1.6-.411,1.46,1.46,0,0,0,.479-1.185,1.533,1.533,0,0,0-.518-1.3,2.77,2.77,0,0,0-1.67-.4h-1.68Zm20.234.225h3.33v2.822h-3.33v3.818H179.7V-5.244h-3.34V-8.066h3.34v-3.711h3.076ZM204.16-4.814a5.193,5.193,0,0,1-.8,2.622A4.833,4.833,0,0,1,201.3-.43,7,7,0,0,1,198.281.2a5.584,5.584,0,0,1-4.414-1.826,7.54,7.54,0,0,1-1.611-5.156v-.7a8.607,8.607,0,0,1,.728-3.657,5.513,5.513,0,0,1,2.095-2.422,5.844,5.844,0,0,1,3.164-.854,6.129,6.129,0,0,1,4.16,1.362,5.383,5.383,0,0,1,1.787,3.755h-3.418a2.547,2.547,0,0,0-.654-1.865,2.691,2.691,0,0,0-1.875-.566,2.048,2.048,0,0,0-1.875.957,6.151,6.151,0,0,0-.625,3.057v1.006a6.806,6.806,0,0,0,.571,3.252,2.091,2.091,0,0,0,1.968.977,2.632,2.632,0,0,0,1.807-.557,2.363,2.363,0,0,0,.664-1.768Zm6.406-.693a13.925,13.925,0,0,1-.674,4.355,11.12,11.12,0,0,1-1.86,3.54,6.193,6.193,0,0,1-2.563,2.007l-.625-1.621a6.43,6.43,0,0,0,2.1-3.125,15.085,15.085,0,0,0,.771-4.854v-.6a15.612,15.612,0,0,0-.747-5.1,6.34,6.34,0,0,0-2.124-3.164l.625-1.621a6.307,6.307,0,0,1,2.544,1.987,10.984,10.984,0,0,1,1.855,3.486,13.807,13.807,0,0,1,.7,4.272Z" transform="translate(-2845 -9493)" fill="#fff"/>
      <g id="Trazado_110926" data-name="Trazado 110926" transform="translate(-3127 -9486)" fill="#fff">
        <path d="M 779.5 304.5 L 0.5 304.5 L 0.5 0.5 L 779.5 0.5 L 779.5 304.5 Z" stroke="none"/>
        <path d="M 1 1 L 1 304 L 779 304 L 779 1 L 1 1 M 0 0 L 780 0 L 780 305 L 0 305 L 0 0 Z" stroke="none" fill="#43babe"/>
      </g>
      <path id="Trazado_110927" data-name="Trazado 110927" d="M0,0H44V9H0Z" transform="translate(-2759 -9348.999)" fill="#0155a0"/>
      <path id="Trazado_110928" data-name="Trazado 110928" d="M0,0H44V9H0Z" transform="translate(-2759 -9332.999)" fill="#0155a0"/>
      <g id="Grupo_59391" data-name="Grupo 59391" transform="translate(-3068.944 -9349.725)">
        <path id="Sustracción_6" data-name="Sustracción 6" d="M38.2,66.94H1.356c14.314-5.856,23.563-18.89,23.563-33.206C24.919,18.826,15.138,5.585,0,0H37.633A33.723,33.723,0,0,1,71.384,33.752,33.161,33.161,0,0,1,38.2,66.94Z" transform="translate(17.307 0)" fill="#70089b"/>
        <g id="Grupo_59341" data-name="Grupo 59341" transform="translate(0 14.722)">
          <rect id="Rectángulo_9255" data-name="Rectángulo 9255" width="47.246" height="3.391" fill="#70089b"/>
          <rect id="Rectángulo_9256" data-name="Rectángulo 9256" width="47.246" height="4.069" transform="translate(0 29.839)" fill="#70089b"/>
        </g>
      </g>
      <g id="Grupo_59370" data-name="Grupo 59370" transform="translate(-3099 -9352.164)">
        <text id="B" transform="translate(0 16)" fill="#12263f" font-size="15" font-family="Roboto-Regular, Roboto"><tspan x="0" y="0">B</tspan></text>
      </g>
      <g id="Grupo_59371" data-name="Grupo 59371" transform="translate(-3099 -9429)">
        <text id="A" transform="translate(0 15)" fill="#12263f" font-size="14" font-family="Roboto-Regular, Roboto"><tspan x="0" y="0">A</tspan></text>
      </g>
      <path id="Trazado_110929" data-name="Trazado 110929" d="M0,0H76.749V3.67H0Z" transform="translate(-2948.673 -9348.492)" fill="#70089b"/>
      <path id="Trazado_110930" data-name="Trazado 110930" d="M0,0H114.557V4.4H0Z" transform="translate(-2986.481 -9316.195)" fill="#70089b"/>
      <path id="Trazado_110931" data-name="Trazado 110931" d="M0,0H3.659V74.4H0Z" transform="translate(-2950.208 -9419.242)" fill="#70089b"/>
      <path id="Trazado_110932" data-name="Trazado 110932" d="M8.477-3.158A3.662,3.662,0,0,1,7.311-.721,3.82,3.82,0,0,1,4.7.137,3.507,3.507,0,0,1,1.876-1.128,5.088,5.088,0,0,1,.813-4.512v-.957a5.671,5.671,0,0,1,.5-2.44,3.7,3.7,0,0,1,1.4-1.617,3.911,3.911,0,0,1,2.105-.564A3.6,3.6,0,0,1,7.362-9.2,3.706,3.706,0,0,1,8.477-6.754H7.157a2.86,2.86,0,0,0-.742-1.728,2.244,2.244,0,0,0-1.6-.535,2.348,2.348,0,0,0-1.972.93,4.271,4.271,0,0,0-.714,2.648v.965A4.391,4.391,0,0,0,2.81-1.894,2.187,2.187,0,0,0,4.7-.937a2.526,2.526,0,0,0,1.678-.5,2.75,2.75,0,0,0,.776-1.726Z" transform="translate(-3099 -9296.917)" fill="#12263f"/>
      <path id="Trazado_110933" data-name="Trazado 110933" d="M4.19-4.956l2.6-5h1.49L4.847-3.712V0H3.534V-3.712L.1-9.953h1.5Z" transform="translate(-2796.537 -9329.847)" fill="#12263f"/>
      <path id="Trazado_110934" data-name="Trazado 110934" d="M0,0H39.249A33.206,33.206,0,0,1,72.455,33.206,32.653,32.653,0,0,1,39.8,65.859H0Z" transform="translate(-2910.21 -9364.36)" fill="#70089b"/>
      <path id="Trazado_110935" data-name="Trazado 110935" d="M0,0H35.274V3.512H0Z" transform="translate(-2841.569 -9334.244)" fill="#70089b"/>
      <path id="Trazado_110936" data-name="Trazado 110936" d="M0,0H124.314V4.4H0Z" transform="translate(-3070.863 -9419.242)" fill="#70089b"/>
      <g id="Grupo_59394" data-name="Grupo 59394" transform="translate(-2670 -9384.146)">
        <text id="B-2" data-name="B" transform="translate(0 16)" fill="#12263f" font-size="15" font-family="Roboto-Regular, Roboto"><tspan x="0" y="0">B</tspan></text>
      </g>
      <g id="Grupo_59395" data-name="Grupo 59395" transform="translate(-2670 -9412.382)">
        <text id="A-2" data-name="A" transform="translate(0 14)" fill="#12263f" font-size="13" font-family="Roboto-Regular, Roboto"><tspan x="0" y="0">A</tspan></text>
      </g>
      <path id="Trazado_110937" data-name="Trazado 110937" d="M7.871-2.933A3.4,3.4,0,0,1,6.789-.67a3.547,3.547,0,0,1-2.422.8A3.257,3.257,0,0,1,1.742-1.047,4.724,4.724,0,0,1,.755-4.189v-.889a5.266,5.266,0,0,1,.46-2.266,3.438,3.438,0,0,1,1.3-1.5,3.632,3.632,0,0,1,1.955-.524,3.34,3.34,0,0,1,2.361.822A3.441,3.441,0,0,1,7.871-6.271H6.646a2.655,2.655,0,0,0-.689-1.6,2.084,2.084,0,0,0-1.482-.5,2.181,2.181,0,0,0-1.831.864A3.966,3.966,0,0,0,1.98-5.05v.9a4.077,4.077,0,0,0,.628,2.4A2.031,2.031,0,0,0,4.367-.87a2.345,2.345,0,0,0,1.558-.46,2.554,2.554,0,0,0,.72-1.6Z" transform="translate(-2670 -9268.971)" fill="#12263f"/>
      <path id="Trazado_110938" data-name="Trazado 110938" d="M3.891-4.6,6.3-9.242H7.687L4.5-3.447V0H3.282V-3.447L.1-9.242h1.4Z" transform="translate(-2378.235 -9332.5)" fill="#12263f"/>
      <g id="Grupo_59393" data-name="Grupo 59393" transform="translate(-2646.167 -9418.853)">
        <rect id="Rectángulo_9282" data-name="Rectángulo 9282" width="74.034" height="3.54" transform="translate(0 15.307)" fill="#70089b"/>
        <rect id="Rectángulo_9283" data-name="Rectángulo 9283" width="74.034" height="4.248" transform="translate(0 46.462)" fill="#70089b"/>
        <rect id="Rectángulo_9288" data-name="Rectángulo 9288" width="74.034" height="4.248" transform="translate(0 145.523)" fill="#70089b"/>
        <path id="Rectángulo_9284" data-name="Rectángulo 9284" d="M0,0H37.86A32.032,32.032,0,0,1,69.892,32.032v0a31.5,31.5,0,0,1-31.5,31.5H0a0,0,0,0,1,0,0V0A0,0,0,0,1,0,0Z" transform="translate(37.103)" fill="#70089b"/>
        <path id="Rectángulo_9289" data-name="Rectángulo 9289" d="M0,0H37.86A32.032,32.032,0,0,1,69.892,32.032v0a31.5,31.5,0,0,1-31.5,31.5H0a0,0,0,0,1,0,0V0A0,0,0,0,1,0,0Z" transform="translate(37.103 101.176)" fill="#70089b"/>
        <rect id="Rectángulo_9285" data-name="Rectángulo 9285" width="34.026" height="3.388" transform="translate(103.316 29.05)" fill="#70089b"/>
        <rect id="Rectángulo_9290" data-name="Rectángulo 9290" width="34.026" height="3.388" transform="translate(103.316 132.941)" fill="#70089b"/>
        <rect id="Rectángulo_9286" data-name="Rectángulo 9286" width="3.529" height="71.765" transform="translate(11.461 46.471)" fill="#70089b"/>
        <rect id="Rectángulo_9287" data-name="Rectángulo 9287" width="74.034" height="4.248" transform="translate(11.461 113.987)" fill="#70089b"/>
        <rect id="Rectángulo_9291" data-name="Rectángulo 9291" width="3.529" height="38.824" transform="translate(133.814 30)" fill="#70089b"/>
        <rect id="Rectángulo_9292" data-name="Rectángulo 9292" width="3.529" height="38.824" transform="translate(133.814 94.706)" fill="#70089b"/>
        <g id="Grupo_59392" data-name="Grupo 59392" transform="translate(133.814 51.538)">
          <path id="Sustracción_6-2" data-name="Sustracción 6" d="M36.845,64.573H1.306C15.115,58.925,24.038,46.352,24.038,32.54,24.038,18.16,14.6,5.387,0,0H36.3A32.531,32.531,0,0,1,68.861,32.558,31.989,31.989,0,0,1,36.845,64.573Z" transform="translate(16.695 0)" fill="#70089b"/>
          <g id="Grupo_59341-2" data-name="Grupo 59341" transform="translate(0 14.201)">
            <rect id="Rectángulo_9255-2" data-name="Rectángulo 9255" width="45.575" height="3.271" fill="#70089b"/>
            <rect id="Rectángulo_9256-2" data-name="Rectángulo 9256" width="45.575" height="3.925" transform="translate(0 28.784)" fill="#70089b"/>
          </g>
        </g>
        <rect id="Rectángulo_9293" data-name="Rectángulo 9293" width="34.026" height="3.388" transform="translate(219.369 82.131)" fill="#70089b"/>
      </g>
    </g>
  </g>
</svg>
